/* XPM */
static char *Al_Jazeera_Channel[] = {
/* columns rows colors chars-per-pixel */
"104 78 40 1",
"  c #03549D",
". c #0D5AA0",
"X c #125DA1",
"o c #1B62A4",
"O c #2A6CA8",
"+ c #3673AB",
"@ c #427BAF",
"# c #467DB0",
"$ c #4C82B2",
"% c #5587B4",
"& c #618EB8",
"* c #6994BA",
"= c #779CBE",
"- c #7EA0C0",
"; c #D59F0B",
": c #D6A00C",
"> c #D5A316",
", c #D6A828",
"< c #D7AC37",
"1 c #D7AF41",
"2 c #D7B147",
"3 c #D8B658",
"4 c #D8BB69",
"5 c #D9BE75",
"6 c #D9C07C",
"7 c #86A5C3",
"8 c #94AEC7",
"9 c #9CB3C9",
"0 c #A8BBCD",
"q c #B1C1CF",
"w c #B8C5D1",
"e c #D9C488",
"r c #DAC898",
"t c #DACCA6",
"y c #DACFB0",
"u c #DBD2B8",
"i c #C5CDD5",
"p c #CCD2D7",
"a c #DBD6C9",
"s c gainsboro",
/* pixels */
"ssssssssssssssssssssssssssssssssssssssssssssssssssssssssssssssssssssssssssssssssssssssssssssssssssssssss",
"ssssssssssssssssssssssssssssssssssssssssssssssssssssssssssssssssssssssssssssssssssssssssssssssssssssssss",
"sssssssssssssssssssssssssssssssssssssssssssssssssssa6ussssssssssssssssssssssssssssssssssssssssssssssssss",
"sssssssssssssssssssssssssssssssssssssssssssssssssss4tsssssssssssssssssssssssssssssssssssssssssssssssssss",
"ssssssssssssssssssssssssssssssssssssssssssssssssssu<ssssssssssssssssssssssssssssssssssssssssssssssssssss",
"sssssssssssssssssssssssssssssssssssssssssssssssssse<ssssssssssssssssssssssssssssssssssssssssssssssssssss",
"ssssssssssssssssssssssssssssssssssssssssssssssssss5>ssssssssssssssssssssssssssssssssssssssssssssssssssss",
"sssssssssssssssssssssssssssssssssssssssssssssssssse:tsssssssssssssssssssssssssssssssssssssssssssssssssss",
"ssssssssssssssssssssssssssssssssssssssssssssssssssu:<sssssssssssssssssssssssssssssssssssssssssssssssssss",
"sssssssssssssssssssssssssssssssssssssssssssssssssss<:6ssssssssssssssssssssssssssssssssssssssssssssssssss",
"sssssssssssssssssssssssssssssssssssssssssssssssssssr::esssssssssssssssssssssssssssssssssssssssssssssssss",
"ssssssssssssssssssssssssssssssssssssssssssssssssssss<::rssssssssssssssssssssssssssssssssssssssssssssssss",
"ssssssssssssssssssssssssssssssssssssssssssssssssssse3<::esssssssssssssssssssssssssssssssssssssssssssssss",
"ssssssssssssssssssssssssssssssssssssssssssssssssssa<sa,::6ssssssssssssssssssssssssssssssssssssssssssssss",
"ssssssssssssssssssssssssssssssssssssssssssssssssssr3ssa,::6sssssssssssssssssssssssssssssssssssssssssssss",
"sssssssssssssssssssssssssssssssssssssssssssssr33yse,sssa,::6ssssssssssssssssssssssssssssssssssssssssssss",
"sssssssssssssssssssssssssssssssssssssssssssat:::>uy:rsasa,::6sssssssssssssssssssssssssssssssssssssssssss",
"ssssssssssssssssssssssssssssssssssssssssssssy::::6s<>rsssa,>:essssssssssssssssssssssssssssssssssssssssss",
"ssssssssssssssssssssssssssssssssssssssssssy666<26<st:>rsssa,::esssssssssssssssssssssssssssssssssssssssss",
"ssssssssssssssssssssssssssssssssssssssssst:::2sst>as,::6sssa<::essssssssssssssssssssssssssssssssssssssss",
"ssssssssssssssssssssssssssssssssssssssssse::::aa,:as3<>:3assa<::tsssssssssssssssssssssssssssssssssssssss",
"sssssssssssssssssssssssssssssssssssssssssa6,<ta,>,us2er>:<assa>:>yssssssssssssssssssssssssssssssssssssss",
"ssssssssssssssssssssssssssssssssssssssssssssse:,t>as<3sy,:,ussu,>>usssssssssssssssssssssssssssssssssssss",
"ssssssssssssssssssssssssssssssssssssssssssae,:<a6>sa>essa<>>ussu>:,assssssssssssssssssssssssssssssssssss",
"ssssssssssssssssssssssssssssssssssssssssa6>:>esa>2se;tsass<:,asst:;2ssssssssssssssssssssssssssssssssssss",
"ssssssssssssssssssssssssssssssssssssssu6>;>6sss6:ts<:asssss2:3sssr;;6sssssssssssssssssssssssssssssssssss",
"ssssssssssssssssssssssssssssssssssssa6>:>6asssu><st:<ssssssa<;rsss6:;tssssssssssssssssssssssssssssssssss",
"sssssssssssssssssssssssssssssssssss6>;;6asssss2:ts<:esssssssu>,ssss3;>asssssssssssssssssssssssssssssssss",
"sssssssssssssssssssssssssssssssssa2:;2ussssssr:2sr;,asssssass4;usssa<:2sssssssssssssssssssssssssssssssss",
"ssssssssssssssssssssssssssssssssy>:>6sssssssa,>as,;6sssss36ssr:esstsu>:rssssssssssssssssssssssssssssssss",
"sssssssssssssssssssssssssssssssy>:,ussayssss6;6s6:<ssssa<2ssse:ts6:ase:,asssssssssssssssssssssssssssssss",
"ssssssssssssssssssssssssssssssa,:,assaeusssu>,sa>:ysssu,6ssss3>t<::rss<:6sssssssssssssssssssssssssssssss",
"ssssssssssssssssssssssssssssss3:,assa6sssss3:ts6:6sssy>essssu>>::::3ssy>>ussssssssssssssssssssssssssssss",
"sssssssssssssssssssssssssssssu:>tsas6aaassu:2ss,>assa,tssssa,:::::><sss6:6ssssssssssssssssssssssssssssss",
"sssssssssssssssssssssssssssss4:2ssss366ass3:ysy:6sssaussssa,:::::6y:assu>>asssssssssssssssssssssssssssss",
"sssssssssssssssssssssssssssss<:yssssr<tssa>2ss6:usssssssss6:>::<tsr:ysss3:esssssssssssssssssssssssssssss",
"sssssssssssssssssssssssssssss>>sssssssssse:tss3,sssssssssse::>esss<:ysast:3sssssssssssssssssssssssssssss",
"ssssssssssssssssssssssssssssa>2sassssssss,,sss,3sss6usssssa:<asss6::usssa>>sssssssssssssssssssssssssssss",
"sssssssssssssssssssssssssssss>3sst6rssssa:6sss<6sa1:usssssseassse::,sssss,:ussssssssssssssssssssssssssss",
"sssssssssssssssssssssssssssss,2s4;;;<assr:usss4tr>::6ss23tsssss6:::esssss<:rssssssssssssssssssssssssssss",
"sssssssssssssssssssssssssssss31u;::::2ss6>ssssa3::::ts6::>asss3:>:3ssssss,:essssssssssssssssssssssssssss",
"ssssssssssssssssssssssssssssst>1:;,42:rs<2ssss2:>:>6sa<:>6ssy,:::<ssssssu>:5ssssssssssssssssssssssssssss",
"ssssssssssssssssssssssssssssss<::3sss2<s,6sssu:::<usssst6sse>:>:3assssssr::essssssssssssssssssssssssssss",
"sssssssssssssssssssssssssssssst:1ssss3:a>rsss6:>6sssssssss4::::6ssssssss<::tssssssssssssssssssssssssssss",
"ssssssssssssssssssssssssssssssu:,6yt3:>y,tsss3:t62sssssss2:>:>esa,3tsssr::>assssssssssssssssssssssssssss",
"ssssssssssssssssssssssssssssssu>>::::>:u,tsss<:se:3sssss3:>:,uss3::,ssa,::<sssssssssssssssssssssssssssss",
"ssssssssssssssssssssssssssssssa>t3::::<a<ussa>,ss3:<usse:>:1assa<::tsa1:::esssssssssssssssssssssssssssss",
"sssssssssssssssssssssssssssssss,tsr324us<rssr:2sss<:>6s,::3ssssssyrsy<:::,asssssssssssssssssssssssssssss",
"sssssssssssssssssssssssssssssss<4sssssss2tss3:4sssa<:,y::<sssssssss5:::::rssssssssssssssssssssssssssssss",
"sssssssssssssssssssssssssssssas5,sssssss36sa>:essssa266::rrtyyyye2>:::::esssssssssssssssssssssssssssssss",
"sssssssssssssssssssssssssssssssa>rssssss63s4>:yss6essa2:>u>::::::::>::>essssssssssssssssssssssssssssssss",
"ssssssssssssssssssssssssssssssss5>usssssu6r::,sa2::2ss,:1r::::::::::>2usssssssssssssssssssssssssssssssss",
"sssssssssssssssssssssssssssssssss<>rssssa5:>:5sr:::esu::3u2,>::::>16ysssssssssssssssssssssssssssssssssss",
"sssssssssssssssssssssssssssssssssa,>,11<>>::,assu3rssr::6sssautuaassssssssssssssssssssssssssssssssssssss",
"sssssssssssssssssssssssssssssssssss3:::::>:>ysssu6sss6::rsasssssssssssssssssssssssssssssssssssssssssssss",
"ssssssssssssssssssssssssssssssssssssy3<,,,3usssy>:,ts2::ysutssssssssssssssssssssssssssssssssssssssssssss",
"ssssssssssssssssssssssssssssssssssssssssasa>uss<::<us,:>uss6urusssssssssssssssssssssssssssssssssssssssss",
"sssssssssssssssssssssssssssssssssssssssssss3>asa31ss6::,sssa3:esssssssssssssssssssssssssssssssssssssssss",
"ssssssssssssssssssssssssssssssssssssssssssss<>tsssst>::2sssssyssssssssssssssssssssssssssssssssssssssssss",
"ssssssssssssssssssssssssssssssssssssssssssssa<:1562::>:6ssssssssssssssssssssssssssssssssssssssssssssssss",
"ssssssssssssssssssssssssssssssssssssssssssssss3:::::::,assssssssssssssssssssssssssssssssssssssssssssssss",
"ssssssssssssssssssssssssssssssssssssssssssssssst3>>:>1usssssssssssssssssssssssssssssssssssssssssssssssss",
"sssssssssssssssssssssssssssssssssssssssssssssssssauuasssssssssssssssssssssssssssssssssssssssssssssssssss",
"ssssssssssssssssssssssssssssssssssssssssssssssssssssssssssssssssssssssssssssssssssssssssssssssssssssssss",
"sssssssssssssssssssssssssssssssssssssssssssssssssssassssssssssssssssssssssssssssssssssssssssssssssssssss",
"ssssssssssssssssssssssssasssssssssssssssssssssssssssssssssspssssssssssspssssssssssssssssssssssssssssssss",
"ssssssssssssssssssssssssssssssssssssssssssssssssssssssssssssssssssssssssssssssssssssssssssssssssssssssss",
"sssssssssssssssssssssssp0wssss0wssssqqpsspqqssss099qqisq0000psq0090ss0000pssssw0isssssssssssssssssssssss",
"sssssssssssssssssssssss+ Xpssw.%sssp .sss=  qsss+ o  7s+  XXisO X opso X owsspo +sssssssssssssssssssssss",
"ssssssssssssssssssssssq.+.-ssw.%sssp.XaspoO.+sssss=  ws+ sssssO sssssoos= =ss7 + 0ssssssssssssssssssssss",
"ssssssssssssssssssssss%.s+oasw.%sssp.Xps8 q= wsss8  9ss+ OO%ssO OO*ssO +o+issOOs #ssssssssssssssssssssss",
"ssssssssssssssssssssspX.$o 9sw.*sssp.Xps+ $+ &ss9 X9sss+ -70ss+ 770ssO & +ssq X$  isssssssssssssssssssss",
"sssssssssssssssssssss& $$% Osw O**pp.Xsq O%%X wso o=*qsO =--qsO 77-is  s* -s+ %$$ @sssssssssssssssssssss",
"sssssssssssssssssssss%$sss&@ii@+O+ss.Xs-@wss8@9s%@+++9s*@+OO8s%@+OOws$%sp$*p@&sss$#sssssssssssssssssssss",
"ssssssssssssssssssssssssssssssssssq* +ssssssssssssssssssssssssssssssssssssssssssssssssssssssssssssssssss",
"ssssssssssssssssssssssasssssssssps+ oqsssssssssssssspsssssssssssssssssssssssssssssssssssssssssssssssssss",
"ssssssssssssssssssssssssssssssssssssssssssssssssssssssssssssssssssssssssssssssssssssssssssssssssssssssss",
"ssssssssssssssssssssssssssssssssssssssssssssssssssssssssssssssssssssssssssssssssssssssssssssssssssssssss"
};
