/* XPM */
static char *Arirang_TV[] = {
/* columns rows colors chars-per-pixel */
"104 78 37 1",
"  c gray29",
". c #565656",
"X c gray40",
"o c gray47",
"O c #FA0427",
"+ c #FB0F30",
"@ c #FA1736",
"# c #F9213E",
"$ c #F82A46",
"% c #F7334E",
"& c #F63A53",
"* c #F6425B",
"= c #F54D65",
"- c #F2566A",
"; c #F25E71",
": c #EF6D7E",
"> c #F16779",
", c #EE7887",
"< c #F06F80",
"1 c #F07180",
"2 c gray53",
"3 c gray59",
"4 c gray66",
"5 c gray72",
"6 c #ED818E",
"7 c #EC8996",
"8 c #EB929D",
"9 c #E99BA5",
"0 c #E9A5AE",
"q c #E8AAB2",
"w c #E5B6BC",
"e c #E4BDC2",
"r c #C6C6C6",
"t c gainsboro",
"y c #E2C7CA",
"u c #E1CED0",
"i c #E0D3D4",
/* pixels */
"tttttttttttttttttttttttttttttttttttttttttttttttttttttttttttttttttttttttttttttttttttttttttttttttttttttttt",
"tttttttttttttttttttttttttttttttttttttttttttttttttttttttttttttttttttttttttttttttttttttttttttttttttttttttt",
"tttttttttttttttttttttttttttttttttttttttttttttttttttttttttttttttttttttttttttttttttttttttttttttttttttttttt",
"tttttttttttttttttttttttttttttttttttttttttttttttttttttttttttttttttttttttttttttttttttttttttttttttttttttttt",
"tttttttttttttttttttttttttttttttttttttttttttttttttttttttttttttttttttttttttttttttttttttttttttttttttttttttt",
"tttttttttttttttttttttttttttttttttttttttttttttttttttttttttttttttttttttttttttttttttttttttttttttttttttttttt",
"tttttttttttttttttttttttttttttttttttttttttttttttttttttttttttttttttttttttttttttttttttttttttttttttttttttttt",
"tttttttttttttttttttttttttttttttttttttttttttttttttttttttttttttttttttttttttttttttttttttttttttttttttttttttt",
"tttttttttttttttttttttttttttttttttttttttttttttttttttttttttttttttttttttttttttttttttttttttttttttttttttttttt",
"tttttttttttttttttttttttttttttttttttttttttttttttttttttttttttttttttttttttttttttttttttttttttttttttttttttttt",
"tttttttttttttttttttttttttttttttttttttttttttttttttttttttttttttttttttttttttttttttttttttttttttttttttttttttt",
"tttttttttttttttttttttttttttttttttttttttttttttttttttttttttttttttttttttttttttttttttttttttttttttttttttttttt",
"tttttttttttttttttttttttttttttttttttttttttttttttttttttttttttttttttttttttttttttttttttttttttttttttttttttttt",
"tttttttttttttttttttttttttttttttttttttttttttttttttttttttttttttttttttttttttttttttttttttttttttttttttttttttt",
"tttttttttttttttttttttttttttttttttttttttttttttttttttttttttttttttttttttttttttttttttttttttttttttttttttttttt",
"tttttttttttttttttttttttttttttttttttttttttttttttttttttttttttttttttttttttttttttttttttttttttttttttttttttttt",
"tttttttttttttttttttttttttttttttttttttttttttttttttttttttttttttttttttttttttttttttttttttttttttttttttttttttt",
"ttttttttttttttttttttttttttttttttttttttt;#;tttttttttttttttttttttttttttttttttttttttttttttttttttttttttttttt",
"tttttttttttttttttttttttttttttttttttttt>OOOyttttttttttttttttttttttttttttttttttttttttttttttttttttttttttttt",
"ttttttttttttttittttttttttttttttttttttt@OO#ittttttttttttttttttttttttttttttttttttttttttttttttttttttttttttt",
"tttttttttttttttttttttttttttttttttttitt1@*wtttttttttttttttttttttttttttttttttttttttttttttttttttttttttttttt",
"tttttttttttiq8669ytttttttttttttttttttttittttttttttttttttttttttttttttttttttttttttttttttttttittttttttttttt",
"ttttttttty:#OOOOO+;uttttttttyyyyyyyetueyyttttttyyyyyyyetttttueqeitttttttyyyyyyyyyuttttttttttiw99ettttttt",
"tttttttt7#OO%;>&OOO%itttti6$+OOOOO+;t*++-tttt,#+OOOOO+>iti7*OOOO#>itttti@+OOOOOO++*wttttttw-++OO+*wttttt",
"ttttttt>OO*0tttt:OOO6tttu&OO+*==-=1tu+OO7ttu*OO+*====1tt0#OO*-=+OO#itttqOOO*-*-*OOO#itttu;OO*,,*OO+etttt",
"tttttt:OO:ttttiti@OO*ttt>OO#yttttttt9OO+ett;OO#yttttttt6+O=wtttw@OO,tit:OO#ttttt,OOOytti*O#wtttt*OO-tttt",
"ttttt9OO>tttttttt#OO$tti@OO6tittttit>OO#ttu+OO6ttttttt8OO6ttttit-OO*ttt*OO-tittt,OO@itt*O*itttit6OO#tttt",
"tttti#O&tttttttti@OO%ttqOOOqtttttttt#OO;tt0OOOwittttte+O,tititit>OO#tty+OO8ttttt*OO=tt6O@ytitttt,OO#tttt",
"tttt,OOqttttittteOOO-tt:OO#tttttttty+OO9tt:OO#ttttttt=O*tttttttt-OO*tt9OOOyttttu+OO8tu@O,ttttttt=OO&tttt",
"tttt%O@tttty#,tt7OOO8tt*OO=ttttttit8OO+ytt*OO-ttttity+O8titt8ttt#OO>tt;OO#ttttt9OO+et6O+wttttttu+OO:tttt",
"tttt+O@ttt0@OO:t-OO+etu+OO7tittttti-OO&tty+OO8tttttt8OOytti-O;tw+OO9tt#OO>ttttt;OO#tt*O+ytttttt;OOOqtttt",
"tttt+OO=:&OOOO+w#OO$tt0OOOetttttttt#OO:tt9OOOettttit,OO:w7#OOO:8OO@ute+OO9tittt#OO;tt%OO7ttttt1OOO@itttt",
"tttt#OOOOOOOO+8wOOO>tt>OO#tttttttte+OO0tt>OO#ttttttt9OOO+OOOO+q-OO*tt7OO+ytttteOOO9tt=OOO,we9*OOOO=ttttt",
"ttttq+OOOOOO@9t,O+O9tt#OO;ttttttit6OO@itt#OO:tttttttt#OOOOOO@qt@OO,tt-OO*ttttt8OO+utt0OOOOOOOO#+OO6ttttt",
"ttttt9#OOO@>ytt*O+@yty+O+9tttttttt*OO*ttw+O+0ttttttttw*OOO#:ytq+O+wti@OO:ttttt=OO%tttt6+OOOO@,0OOOwttttt",
"tttttti09qittttq00wttu00qittttttttq00ettuq00ittttttttttq9qitttyq0qtti0qqytttttw0qettttty8,60ut:OO#tttttt",
"ttttttttttttttttttttttttttttttttttttttttttttttttttttttttttttttttttttttttttttttttttttttttttttti#OO:tttttt",
"ttttttttttttttttttttttttttttttttttttttttttitttttttttttttttttttttttttttttttttttttittttttttttit6OO+ytttttt",
"ttttttttttttttttttttttttttttttttttttttttttttttttttttttttttttttttttttttttttttttttttttttttttttq+OO7tittttt",
"tttttttttttttttttttttttttttttttttttttttttttttttttttttttttttttttttttttttttttttttttttttttttty,OOO6tttttttt",
"ttttttttttttttttttttttttttttttttttttttttttttttttttttttttttttttttttttttttttttttttttttttty##OOO#0ttttttttt",
"tttttttttttttttttttttttttttttttttttttttttttttttttttttttttttttttttttttttttttttttttttttttq###;9itttttttttt",
"tttttttttttttttttttttttttttttttttttttttttttttttttttttttttttttttttttttttttttttttttttttttttttttttttttttttt",
"tttttttttttttttttttttttttttttttttttttttttttttttttttttttttttttttttttttttttttttttttttttttttttttttttttttttt",
"tttttttttttttttttttttttttttttttttttttttttttttttttttttttttttttttttttttttttttttttttttttttttttttttttttttttt",
"ttttttttttttttttttttttitttttttttttttttttttttttttttttttttttttiitttttttttttttttttttttttttttttttttttttttttt",
"tttttttttttttttttttttttttttttttttttttttttttttttttttttttttttttttttttttttttttttttttttttttttttttttttttttttt",
"tttttttttttttttt52rtt55555rtt43tt444444rtr25tttr44444444tttr5555rr3533tt44ttt45t43rtttttt4ortttttttttttt",
"ttttttttt4X X4tt2 4ttX ..  5to 5tX     Xt4 2ttt4        2ttX    25 2X tr Xttr oto rttttttX 4tttttttttttt",
"tttttttt3 X4X 4t2 5ttrrrr3 4to rtttttt..t4 2rtttiitttt5 ottrr Xrtr 3X.ti..332 ot2 4rtttt4  Xtttttttttttt",
"tttttttr .ttt..t2 4tttttt4 4to rt2XXXX .t4   4tttttttt5 2tttt Xtr4 3X.tr  .X. oto  .rtt3 .3 .4tttttttttt",
"ttttttt5 2ttto r3 ..r3XXX. 3to 5tX 33344t5 25rtttttrrt4 2tttr .r   3X.tt ottt oto 45to  2554X  4tttttttt",
"ttttttt5 ottto r3 o3rX 22235to rtX rtrrr5o 3tto. .....   .rt4  5r4 3X.tr X554 ot2 rtt44rt2 rtr3rtttttttt",
"tttttttt. rtr Xt2 5ttX tttttto rt2  . . .. 2tt54444X 34444tto  2t5 3X.ttX     3to 5t2XX..  ..XXX5ttttttt",
"ttttttttr. o .rt3 4ttX rtrrtrX 5ttrrrrr4rro4ttttttto tttttt4 43 55 3X.tttrtrtrrt3ort533333333323rttttttt",
"tttttttttr3o3rtt2 4tto ......  rttttt4.  ottttt5ooo  Xo2rtr 2ttX.5 3X.tttttt2 ..3ttttttt3X.o5ttttttttttt",
"tttttttttttttttt3 4ttt544554ro rtttt3 X53 Xtttt5XXXXoX. 2tt5tttrrr 3X.tttttX 25o 3tttttX 24X 4tttttttttt",
"tttttttttttttttt2 4tttttttttto rtttt. ttto 5tttttttttt5 2tttttttt5 3X.ttttr ottt .tttt5 ottr .tttttttttt",
"tttttttttttttttt2 4tttttttttto rtttt. rtto rtttttttttt5 2tttttttt5 3X.ttttr Xtti Xtttt5 ottr Xtttttttttt",
"tttttttttttttttt2 4tttttttttto rtttt4 X4o ottttttttttt5 otttttttt5 3X ttttt2 o4X 4ttttto 24X 4tttttttttt",
"tttttttttttttttt52rtttttttttt43rttttt4X .3ttttttttttttr34ttttttttr2532tttttt3. .4ttttttt2  X4ttttttttttt",
"tttttttttttttttttttttttttttttttttttttttttttttttttttttttttttttttttttttttttttttttttttttttttttttttttttttttt",
"tttttttttttttttttttttttttttttttttttttttttttttttttttttttttttttttttttttttttttttttttttttttttttttttttttttttt",
"tttttttttttttttttttttttttttttttttttttttttttttttttttttttttttttttttttttttttttttttttttttttttttttttttttttttt",
"tttttttttttttttttttttttttttttttttttttttttttttttttttttttttttttttttttttttttttttttttttttttttttttttttttttttt",
"tttttttttttttttttttttttttttttttttttttttttttttttttttttttttttttttttttttttttttttttttttttttttttttttttttttttt",
"tttttttttttttttttttttttttttttttttttttttttttttttttttttttttttttttttttttttttttttttttttttttttttttttttttttttt",
"tttttttttttttttttttttttttttttttttttttttttttttttttttttttttttttttttttttttttttttttttttttttttttttttttttttttt",
"tttttttttttttttttttttttttttttttttttttttttttttttttttttttttttttttttttttttttttttttttttttttttttttttttttttttt",
"tttttttttttttttttttttttttttttttttttttttttttttttttttttttttttttttttttttttttttttttttttttttttttttttttttttttt",
"tttttttttttttttttttttttttttttttttttttttttttttttttttttttttttttttttttttttttttttttttttttttttttttttttttttttt",
"tttttttttttttttttttttttttttttttttttttttttttttttttttttttttttttttttttttttttttttttttttttttttttttttttttttttt",
"tttttttttttttttttttttttttttttttttttttttttttttttttttttttttttttttttttttttttttttttttttttttttttttttttttttttt",
"tttttttttttttttttttttttttttttttttttttttttttttttttttttttttttttttttttttttttttttttttttttttttttttttttttttttt",
"tttttttttttttttttttttttttttttttttttttttttttttttttttttttttttttttttttttttttttttttttttttttttttttttttttttttt",
"tttttttttttttttttttttttttttttttttttttttttttttttttttttttttttttttttttttttttttttttttttttttttttttttttttttttt",
"tttttttttttttttttttttttttttttttttttttttttttttttttttttttttttttttttttttttttttttttttttttttttttttttttttttttt",
"tttttttttttttttttttttttttttttttttttttttttttttttttttttttttttttttttttttttttttttttttttttttttttttttttttttttt"
};
