/* XPM */
static char *BBC_6_Music[] = {
/* columns rows colors chars-per-pixel */
"104 78 36 1",
"  c #010101",
". c #181818",
"X c gray16",
"o c gray22",
"O c #484848",
"+ c #565656",
"@ c gray40",
"# c #797979",
"$ c #018081",
"% c #16898A",
"& c #228E8F",
"* c #248F90",
"= c #299192",
"- c #3A9899",
"; c #449C9D",
": c #499EA0",
"> c #4EA0A0",
", c #57A4A5",
"< c #67ABAB",
"1 c #6FAFB0",
"2 c #70AFAF",
"3 c #71AFB0",
"4 c #78B3B3",
"5 c #898989",
"6 c #979797",
"7 c #87B9B9",
"8 c #93BEBE",
"9 c #A5A5A5",
"0 c #B7B7B7",
"q c #9BC1C1",
"w c #A7C6C6",
"e c #B7CDCD",
"r c #BED0D0",
"t c gray78",
"y c #C9D4D4",
"u c gainsboro",
/* pixels */
"uuuuuuuuuuuuuuuuuuuuuuuuuuuuuuuuuuuuuuuuuuuuuuuuuuuuuuuuuuuuuuuuuuuuuuuuuuuuuuuuuuuuuuuuuuuuuuuuuuuuuuuu",
"uuuuuuuuuuuuuuuuuuuuuuuuuuuuuuuuuuuuuuuuuuuuuuuuuuuuuuuuuuuuuuuuuuuuuuuuuuuuuuuuuuuuuuuuuuuuuuuuuuuuuuuu",
"uuuuuuuuuuuuuuuuuuuuuuuuuuuuuuuuuuuuuuuuuuuuuuuuuuuuuuuuuuuuuuuuuuuuuuuuuuuuuuuuuuuuuuuuuuuuuuuuuuuuuuuu",
"uuuuuuuuuuuuuuuuuuuuuuuuuuuuuuuuuuuuuuuuuuuuuuuuuuuuuuuuuuuuuuuuuuuuuuuuuuuuuuuuuuuuuuuuuuuuuuuuuuuuuuuu",
"uuuuuuuuuuuuuuuuuuuuuuuuuuuuuuuuuuuuuuuuuuuuuuuuuuuuuuuuuuuuuuuuuuuuuuuuuuuuuuuuuuuuuuuuuuuuuuuuuuuuuuuu",
"uuuuuuuuuuuuuuuuuuuuuuuuuuuuuuuuuuuuuuuuuuuuuuuuuuuuuuuuuuuuuuuuuuuuuuuuuuuuuuuuuuuuuuuuuuuuuuuuuuuuuuuu",
"uuuuuuuuuuuuuuuuuuuuuuuuuuuuuuuuuuuuuuuuuuuuuuuuuuuuuuuuuuuuuuuuuuuuuuuuuuuuuuuuuuuuuuuuuuuuuuuuuuuuuuuu",
"uuuuuuuuuuuuuuuuuuuuuuuuuuuuuuuuuuuuuuuuuuuuuuuuuuuuuuuuuuuuuuuuuuuuuuuuuuuuuuuuuuuuuuuuuuuuuuuuuuuuuuuu",
"uuuuuuuuuuuuuuuuuuuuuuuuuuuuuuuuuuuuuuuuuuuuuuuuuuuuuuuuuuuuuuuuuuuuuuuuuuuuuuuuuuuuuuuuuuuuuuuuuuuuuuuu",
"uuuuuuuuuuuuuuuuuuuuuuuuuuuuuuuuuuuuuuuuuuuuuuuuuuuuuuuuuuuuuuuuuuuuuuuuuuuuuuuuuuuuuuuuuuuuuuuuuuuuuuuu",
"uuuuuuuuuuuuuuuuuuuuuuuuuuuuuuuuuuuuuuuuuuuuuuuuuuuuuuuuuuuuuuuuuuuuuuuuuuuuuuuuuuuuuuuuuuuuuuuuuuuuuuuu",
"uuuuuuuuuuuuuuuuuuuuuuuuuuuuuuuuuuuuuuuuuuuuuuuuuuuuuuuuuuuuuuuuuuuuuuuuuuuuuuuuuuuuuuuuuuuuuuuuuuuuuuuu",
"uuuuuuuuuuuuuuuuuuuuuuuuuuuuuuuuuuuuuuuuuuuuuuuuuuuuuuuuuuuuuuuuuuuuuuuuuuuuuuuuuuuuuuuuuuuuuuuuuuuuuuuu",
"uuuuuuuuuuuuuuuuuuuuuuuuuuuuuuuuuuuuuuuuuuuuuuuuuuuuuuuuuuuuuuuuuuuuuuuuuuuuuuuuuuuuuuuuuuuuuuuuuuuuuuuu",
"uuuuuuuuuuuuuuuuuuuuuuuuuuuuuuuuuuuuuuuuuuuuuuuuuuuuuuuuuuuuuuuuuuuuuuuuuuuuuuuuuuuuuuuuuuuuuuuuuuuuuuuu",
"uuuuuuuuuuuuuuuuuuuuuuuuuuuuuuuuuuuuuuuuuuuuuuuuuuuuuuuuuuuuuuuuuuuuuuuuuuuuuuuuuuuuuuuuuuuuuuuuuuuuuuuu",
"uuuuuuuuuuuuuuuuuuuuuuuuuuuuuuuuuuuuuuuuuuuuuuuuuuuuuuuuuuuuuuuuuuuuuuuuuuuuuuuuuuuuuuuuuuuuuuuuuuuuuuuu",
"uuuuuuuuuuuuuuuuuuuuuuuuuuuuuuuuuuuuuuuuuuuuuuuuuuuuuuuuuuuuuuuuuuuuuuuuuuuuuuuuuuuuuuuuuuuuuuuuuuuuuuuu",
"uuuuuuuuuuuuuuuuuuuuuuuuuuuuuuuuuuuuuuuuuuuuuuuuuuuuuuuuuuuuuuuuuuuuuuuuuuuuuuuuuuuuuuuuuuuuuuuuuuuuuuuu",
"uuuuuuuuuuuuuuuuuuuuuuuuuuuuuuuuuuuuuuuuuuuuuuuuuuuuuuuuuuuuuuuuuuuuuuuuuuuuuuuuuuuuuuuuuuuuuuuuuuuuuuuu",
"uuuuuuuuuuuuuuuuuuuuuuuuuuuuuuuuuuuuuuuuuuuuuuuuuue4;=%%%%&-<wuuuuuuuuuuuuuuuuuuuuuuuuuuuuuuuuuuuuuuuuuu",
"uuuuOXXXXXXXt#XXXXXXX96XXXXXXX#uuuuuuuuuuuuuuuuy4=%>7w%$$$$$$=%,ruuuuuuuuuuuuuuuuuuuuuuuuuuuuuuuuuuuuuuu",
"uuuuX 506X  0+ +09o  5# .#09@ @uuuuuuuuuuuuuuy1%>wuuu7$$$$$$4ue<%>ruuuuuuuuuuuuuuuuuuuuuuuuuuuuuuuuuuuuu",
"uuuuX 9o+6  0O #@Xt  6# 9# .+ @uuuuuuuuuuuuuw%;euuuuy%$$$$$&uuuuy<%4uuuuuuuuuuuuuuuuuuuuuuuuuuuuuuuuuuuu",
"uuuuX 959@  0+ #965  5#X0     @uuuuuuuuuuuu3%8uuuuuu<$$$$$$quuuuuuy-;yuuuuuuuuuuuuuuuuuuuuuuuuuuuuuuuuuu",
"uuuuX 6@Ot. 0O #5O0o 6#X0     @uuuuuuuuuuu,*euuuuuue$$$$$$;uuuuuuuuu<=yuuuuuuuuuuuuuuuuuuuuuuuuuuuuuuuuu",
"uuuu. 9@Ot. 0+ ##o9O 5# 65oo# @uuuuuuuuuu<&yuuuuuuu-$$$$$$yuuuuuuuuuu7-uuuuuuuuuuuuuuuuuuuuuuuuuuuuuuuuu",
"uuuuX @5#o  0+ O55+  6#  +55O @uuuuuuuuu7%yuuuuuuuq$$$$$$<uuuuuuuuuuuu4>uuuuuuuuuuuuuuuuuuuuuuuuuuuuuuuu",
"uuuu@+++++++t5+++++++09+++++++6uuuuuuuur%euuuuuuuu%$$$$$%uuuuuuuuuuuuuu,7uuuuuuuuuuuuuuuuuuuuuuuuuuuuuuu",
"uuuuuuuuuuuuuuuuuuuuuuuuuuuuuuuuuuuuuuu-4uuuuuuuu4$$$$$$<yuuuuuuuuuuuuuu-yuuuuuuuuuuuuuuuuuuuuuuuuuuuuuu",
"uuuu#@5yuuu60uu0@@#9uu60uu5@5tuuuuuuuu8*uuuuuuuuy$$$$$$$$$%,euuuuuuuuuuue,uuuuuuuuuuuuuuuuuuuuuuuuuuuuuu",
"uuuuX6@@uuu.Ouu9o95O@u@5uo@65X9uuuuuuu*8uuuuuuuu,$$$$$$$$$$$$:yuuuuuuuuuu>yuuuuuuuuuuuuuuuuuuuuuuuuuuuuu",
"uuuuXt9ouu6+X0u9+uuuo0@55+uuu0Xuuuuuuw%uuuuuuuuw$$$$$$$$$$$$$$%euuuuuuuuue4uuuuuuuuuuuuuuuuuuuuuuuuuuuuu",
"uuuuX..0uuo06+u9+uuu@5@5@5uuuu.uuuuuu,2uuuuuuuu=$$$$$$$$$$$$$$$%euuuuuuuuu,uuuuuuuuuuuuuuuuuuuuuuuuuuuuu",
"uuuuXt+#u0.XX.t9+uuuo9@5,+uuut.uuuuuu%euuuuuuu7$$$$$$$$$$$$$$$$$%uuuuuuuuu4yuuuuuuuuuuuuuuuuuuuuuuuuuuuu",
"uuuuXtuX0+6uu##9o09++u@5uX#06X6uuuuue%uuuuuuuu%$$$$$$$$$$$$$$$$$$<uuuuuuuue8uuuuuuuuuuuuuuuuuuuuuuuuuuuu",
"uuuu@uu0#@uuut@0++@6uu69ut#+@9uuuuuu8-uuuuuuu4$$$$$$$;qre4%$$$$$$$yuuuuuuuu4uuuuuuuuuuuuuuuuuuuuuuuuuuuu",
"uuuuuuuuuuuuuuuuuuuuuuuuuuuuuuuuuuuu4,uuuuuuu*$$$$$$4uuuuuy=$$$$$$4uuuuuuuu4uuuuuuuuuuuuuuuuuuuuuuuuuuuu",
"uuuuuuuuuuuuuuuuuuuuuuuuuuuuuuuuuuuu<1uuuuuuy$$$$$$>uuuuuuuy$$$$$$;uuuuuuuu7uuuuuuuuuuuuuuuuuuuuuuuuuuuu",
"uuuuuuuuuuuuuuuuuuuuuuuuuuuuuuuuuuuu,4uuuuuuq$$$$$$wuuuuuuuu>$$$$$%uuuuuuuuwuuuuuuuuuuuuuuuq4yuuuuuuuuuu",
"uuuuuuuuuuuuuuuuuuuuuuuuuuuuuuuuuuuu<1uuuuuu7$$$$$$uuuuuuuuu4$$$$$$uuuuuuuuuuuuuuuuuuuuuuuu;$ruuuuuuuuuu",
"uuuuuuuuuuuuuuuuuuuuuuuuuuuuuuuuuuuu4,uuuuuu8$$$$$$yuuuuuuuu3$$$$$%uewyqquy8wuewuuwwuue78ruewuuyw8yuuuuu",
"uuuuuuuuuuuuuuuuuuuuuuuuuuuuuuuuuuuu8-uuuuuuw$$$$$$quuuuuuuu-$$$$$&u>$%$$>%$$7;$eu%$u7$$$$q-$rw%$$%quuuu",
"uuuuuuuuuuuuuuuuuuuuuuuuuuuuuuuuuuuue%uuuuuuu$$$$$$=uuuuuuuw$$$$$$,u>$,w$$q<$,-$eu%$u*$wy7u-$r=$8t;wuuuu",
"uuuuuuuuuuuuuuuuuuuuuuuuuuuuuuuuuuuuu%euuuuuu-$$$$$$-yuuuuq%$$$$$$8u>$wu$%uw$,-$eu%$u>$$%,y-$e$=uuuuuuuu",
"uuuuuuuuuuuuuuuuuuuuuuuuuuuuuuuuuuuuu,3uuuuuu8$$$$$$$%,41-$$$$$$$%uu>$eu%%uw$>-$eu%$uu8,&$,-$w$%uuuuuuuu",
"uuuuuuuuuuuuuuuuuuuuuuuuuuuuuuuuuuuuuw&uuuuuuu=$$$$$$$$$$$$$$$$$$4uu>$eu$%uw$,>$<7$$y;,w3$,-$r*$2q&3uuuu",
"uuuuuuuuuuuuuuuuuuuuuuuuuuuuuuuuuuuuuu&8uuuuuue$$$$$$$$$$$$$$$$$;uuu>$wu%%uw$>8$$%%$y,$$$*y-$rw&$$&euuuu",
"uuuuuuuuuuuuuuuuuuuuuuuuuuuuuuuuuuuuuu8=uuuuuuuq$$$$$$$$$$$$$$$=yuuuuyuuyyuuyuueeuyyuuyetuuyyuuuewuuuuuu",
"uuuuuuuuuuuuuuuuuuuuuuuuuuuuuuuuuuuuuuu-4uuuuuuuw%$$$$$$$$$$$$;uuuuuuuuueuuuuuuuuuuuuuuuuuuuuuuuuuuuuuuu",
"uuuuuuuuuuuuuuuuuuuuuuuuuuuuuuuuuuuuuuur%euuuuuuuu<$$$$$$$$$%8uuuuuuuuuequuuuuuuuuuuuuuuuuuuuuuuuuuuuuuu",
"uuuuuuuuuuuuuuuuuuuuuuuuuuuuuuuuuuuuuuuu7%yuuuuuuuuy7>=%&-,quuuuuuuuuuy4uuuuuuuuuuuuuuuuuuuuuuuuuuuuuuuu",
"uuuuuuuuuuuuuuuuuuuuuuuuuuuuuuuuuuuuuuuuu<=yuuuuuuuuuuuuuuuuuuuuuuuuuy<uuuuuuuuuuuuuuuuuuuuuuuuuuuuuuuuu",
"uuuuuuuuuuuuuuuuuuuuuuuuuuuuuuuuuuuuuuuuuu,*ruuuuuuuuuuuuuuuuuuuuuuue>yuuuuuuuuuuuuuuuuuuuuuuuuuuuuuuuuu",
"uuuuuuuuuuuuuuuuuuuuuuuuuuuuuuuuuuuuuuuuuuu4%quuuuuuuuuuuuuuuuuuuuu4,uuuuuuuuuuuuuuuuuuuuuuuuuuuuuuuuuuu",
"uuuuuuuuuuuuuuuuuuuuuuuuuuuuuuuuuuuuuuuuuuuuw*-euuuuuuuuuuuuuuuuuq-7uuuuuuuuuuuuuuuuuuuuuuuuuuuuuuuuuuuu",
"uuuuuuuuuuuuuuuuuuuuuuuuuuuuuuuuuuuuuuuuuuuuuu1%;quuuuuuuuuuuuy4=>yuuuuuuuuuuuuuuuuuuuuuuuuuuuuuuuuuuuuu",
"uuuuuuuuuuuuuuuuuuuuuuuuuuuuuuuuuuuuuuuuuuuuuuuy4=%>7wyyyye8<=%,yuuuuuuuuuuuuuuuuuuuuuuuuuuuuuuuuuuuuuuu",
"uuuuuuuuuuuuuuuuuuuuuuuuuuuuuuuuuuuuuuuuuuuuuuuuuue4;=%$$%&;4wuuuuuuuuuuuuuuuuuuuuuuuuuuuuuuuuuuuuuuuuuu",
"uuuuuuuuuuuuuuuuuuuuuuuuuuuuuuuuuuuuuuuuuuuuuuuuuuuuuuuuuuuuuuuuuuuuuuuuuuuuuuuuuuuuuuuuuuuuuuuuuuuuuuuu",
"uuuuuuuuuuuuuuuuuuuuuuuuuuuuuuuuuuuuuuuuuuuuuuuuuuuuuuuuuuuuuuuuuuuuuuuuuuuuuuuuuuuuuuuuuuuuuuuuuuuuuuuu",
"uuuuuuuuuuuuuuuuuuuuuuuuuuuuuuuuuuuuuuuuuuuuuuuuuuuuuuuuuuuuuuuuuuuuuuuuuuuuuuuuuuuuuuuuuuuuuuuuuuuuuuuu",
"uuuuuuuuuuuuuuuuuuuuuuuuuuuuuuuuuuuuuuuuuuuuuuuuuuuuuuuuuuuuuuuuuuuuuuuuuuuuuuuuuuuuuuuuuuuuuuuuuuuuuuuu",
"uuuuuuuuuuuuuuuuuuuuuuuuuuuuuuuuuuuuuuuuuuuuuuuuuuuuuuuuuuuuuuuuuuuuuuuuuuuuuuuuuuuuuuuuuuuuuuuuuuuuuuuu",
"uuuuuuuuuuuuuuuuuuuuuuuuuuuuuuuuuuuuuuuuuuuuuuuuuuuuuuuuuuuuuuuuuuuuuuuuuuuuuuuuuuuuuuuuuuuuuuuuuuuuuuuu",
"uuuuuuuuuuuuuuuuuuuuuuuuuuuuuuuuuuuuuuuuuuuuuuuuuuuuuuuuuuuuuuuuuuuuuuuuuuuuuuuuuuuuuuuuuuuuuuuuuuuuuuuu",
"uuuuuuuuuuuuuuuuuuuuuuuuuuuuuuuuuuuuuuuuuuuuuuuuuuuuuuuuuuuuuuuuuuuuuuuuuuuuuuuuuuuuuuuuuuuuuuuuuuuuuuuu",
"uuuuuuuuuuuuuuuuuuuuuuuuuuuuuuuuuuuuuuuuuuuuuuuuuuuuuuuuuuuuuuuuuuuuuuuuuuuuuuuuuuuuuuuuuuuuuuuuuuuuuuuu",
"uuuuuuuuuuuuuuuuuuuuuuuuuuuuuuuuuuuuuuuuuuuuuuuuuuuuuuuuuuuuuuuuuuuuuuuuuuuuuuuuuuuuuuuuuuuuuuuuuuuuuuuu",
"uuuuuuuuuuuuuuuuuuuuuuuuuuuuuuuuuuuuuuuuuuuuuuuuuuuuuuuuuuuuuuuuuuuuuuuuuuuuuuuuuuuuuuuuuuuuuuuuuuuuuuuu",
"uuuuuuuuuuuuuuuuuuuuuuuuuuuuuuuuuuuuuuuuuuuuuuuuuuuuuuuuuuuuuuuuuuuuuuuuuuuuuuuuuuuuuuuuuuuuuuuuuuuuuuuu",
"uuuuuuuuuuuuuuuuuuuuuuuuuuuuuuuuuuuuuuuuuuuuuuuuuuuuuuuuuuuuuuuuuuuuuuuuuuuuuuuuuuuuuuuuuuuuuuuuuuuuuuuu",
"uuuuuuuuuuuuuuuuuuuuuuuuuuuuuuuuuuuuuuuuuuuuuuuuuuuuuuuuuuuuuuuuuuuuuuuuuuuuuuuuuuuuuuuuuuuuuuuuuuuuuuuu",
"uuuuuuuuuuuuuuuuuuuuuuuuuuuuuuuuuuuuuuuuuuuuuuuuuuuuuuuuuuuuuuuuuuuuuuuuuuuuuuuuuuuuuuuuuuuuuuuuuuuuuuuu",
"uuuuuuuuuuuuuuuuuuuuuuuuuuuuuuuuuuuuuuuuuuuuuuuuuuuuuuuuuuuuuuuuuuuuuuuuuuuuuuuuuuuuuuuuuuuuuuuuuuuuuuuu",
"uuuuuuuuuuuuuuuuuuuuuuuuuuuuuuuuuuuuuuuuuuuuuuuuuuuuuuuuuuuuuuuuuuuuuuuuuuuuuuuuuuuuuuuuuuuuuuuuuuuuuuuu",
"uuuuuuuuuuuuuuuuuuuuuuuuuuuuuuuuuuuuuuuuuuuuuuuuuuuuuuuuuuuuuuuuuuuuuuuuuuuuuuuuuuuuuuuuuuuuuuuuuuuuuuuu",
"uuuuuuuuuuuuuuuuuuuuuuuuuuuuuuuuuuuuuuuuuuuuuuuuuuuuuuuuuuuuuuuuuuuuuuuuuuuuuuuuuuuuuuuuuuuuuuuuuuuuuuuu"
};
