/* XPM */
static char *C+_DEMANDE[] = {
/* columns rows colors chars-per-pixel */
"104 78 142 2",
"   c #0E0E0E",
".  c #110E0F",
"X  c #120F10",
"o  c #1A1819",
"O  c #1B1B28",
"+  c #211D1E",
"@  c #221F20",
"#  c #2A2728",
"$  c #302D2E",
"%  c #3E3628",
"&  c #373536",
"*  c #403728",
"=  c #413E3F",
"-  c #423F40",
";  c #484647",
":  c #514F50",
">  c #5A5859",
",  c #605E5E",
"<  c #615F60",
"1  c #686768",
"2  c #706E6F",
"3  c #716F70",
"4  c #797878",
"5  c #2897BF",
"6  c #3398B5",
"7  c #39A6BF",
"8  c #008DDA",
"9  c #0F92CF",
"0  c #0592D8",
"q  c #1895CB",
"w  c #1699D4",
"e  c #008AE8",
"r  c #0E9BE3",
"t  c #1CA2E3",
"y  c #239BC7",
"u  c #2DA1C5",
"i  c #39A9CE",
"p  c #3AABD7",
"a  c #26A9E6",
"s  c #32B0EA",
"d  c #479DAA",
"f  c #509EA3",
"g  c #5EA19A",
"h  c #45ABB9",
"j  c #52AFB3",
"k  c #5EB5AD",
"l  c #6EA48F",
"z  c #60A298",
"x  c #7CA684",
"c  c #79BB9A",
"v  c #69B9A8",
"b  c #77BEA0",
"n  c #49C4FC",
"m  c #54C5F4",
"M  c #6DC9EF",
"N  c #6BC8F0",
"B  c #78CBED",
"V  c #8B7D1E",
"C  c #896B27",
"Z  c #8B7920",
"A  c #947327",
"S  c #807E7F",
"D  c #817F80",
"F  c #8C897C",
"G  c #8BA97A",
"H  c #9AAC6F",
"J  c #92AA73",
"K  c #B4B15C",
"L  c #A5AD67",
"P  c #BFDD7E",
"I  c #FFBE1B",
"U  c #EEB529",
"Y  c #E7B936",
"T  c #F9BB26",
"R  c #F2BC31",
"E  c #CDB549",
"W  c #C2B352",
"Q  c #DAB944",
"!  c #C4BF6B",
"~  c #FDC21B",
"^  c #FBDB16",
"/  c #FEC726",
"(  c #F2D92D",
")  c #FFE213",
"_  c #FFF30E",
"`  c #FBE226",
"'  c #F9E234",
"]  c #CDE377",
"[  c #DEEA6E",
"{  c #D3E574",
"}  c #E6D255",
"|  c #EFDF6D",
" . c #F1DF64",
".. c #E9E15C",
"X. c #F6E148",
"o. c #F4E052",
"O. c #E1EB6D",
"+. c #888787",
"@. c #908E8F",
"#. c #918F90",
"$. c #989898",
"%. c #A09F9F",
"&. c #A19FA0",
"*. c #A8A7A7",
"=. c #B0AFB0",
"-. c #B9B9B9",
";. c #89C698",
":. c #98CD92",
">. c #88C2B5",
",. c #A9C08E",
"<. c #A9D489",
"1. c #B7D982",
"2. c #88CDEB",
"3. c #92CFE9",
"4. c #97D1EA",
"5. c #BBD4CB",
"6. c #A8D3E5",
"7. c #BBD6E2",
"8. c #C0BFBF",
"9. c #D4DFAA",
"0. c #D8DFBA",
"q. c #CFE280",
"w. c #D4E387",
"e. c #D5E299",
"r. c #D7E1A8",
"t. c #D8E0B1",
"y. c #E9DD88",
"u. c #E9DE91",
"i. c #E6DEA3",
"p. c #E4DDB1",
"a. c #E4E1AB",
"s. c #CACACA",
"d. c #CEDADE",
"f. c #D0CFCF",
"g. c #D0CFD0",
"h. c #DBDEC8",
"j. c gainsboro",
"k. c #C3D8E1",
"l. c #E0DCC8",
"z. c #E7E7E7",
"x. c #F0EFF0",
"c. c #FDFDFD",
/* pixels */
"j.j.j.j.j.j.j.j.j.j.j.j.j.j.j.j.j.j.j.j.j.j.j.j.j.j.j.j.j.j.j.j.j.j.j.j.j.j.j.j.j.j.j.j.j.j.j.j.j.j.j.j.j.j.j.j.j.j.j.j.j.j.j.j.j.j.j.j.j.j.j.j.j.j.j.j.j.j.j.j.j.j.j.j.j.j.j.j.j.j.j.j.j.j.j.j.j.j.j.j.j.j.j.j.",
"j.j.j.j.j.j.j.j.j.j.j.j.j.j.j.j.j.j.j.j.j.j.j.j.j.j.j.j.j.j.j.j.j.j.j.j.j.j.j.j.j.j.j.j.j.j.j.j.j.j.j.j.j.j.j.j.j.j.j.j.j.j.j.j.j.j.j.j.j.j.j.j.j.j.j.j.j.j.j.j.j.j.j.j.j.j.j.j.j.j.j.j.j.j.j.j.j.j.j.j.j.j.j.j.",
"j.j.j.j.j.j.j.j.j.j.j.j.j.j.j.j.j.j.j.j.j.j.j.j.j.j.j.j.j.j.j.j.j.j.j.j.j.j.j.j.j.j.j.j.j.j.j.j.j.j.j.j.j.j.j.j.j.j.j.j.j.j.j.j.j.j.j.j.j.j.j.j.j.j.j.j.j.j.j.j.j.j.j.j.j.j.j.j.j.j.j.j.j.j.j.j.j.j.j.j.j.j.j.j.",
"j.j.j.j.j.j.j.j.j.j.j.j.j.j.j.j.j.j.j.j.j.j.j.j.j.j.j.j.j.j.j.j.j.j.j.j.j.j.j.j.j.j.j.j.j.j.j.j.j.j.j.j.j.j.j.j.j.j.j.j.j.j.j.j.j.j.j.j.j.j.j.j.j.j.j.j.j.j.j.j.j.j.j.j.j.j.j.j.j.j.j.j.j.j.j.j.j.j.j.j.j.j.j.j.",
"j.j.j.j.j.j.j.j.j.j.j.j.j.j.j.j.j.j.j.j.j.j.j.j.j.j.j.j.j.j.j.j.j.j.j.j.j.j.j.j.j.j.j.j.j.j.j.j.j.j.j.j.j.j.j.j.j.j.j.j.j.j.j.j.j.j.j.j.j.j.j.j.j.j.j.j.j.j.j.j.j.j.j.j.j.j.j.j.j.j.j.j.j.j.j.j.j.j.j.j.j.j.j.j.",
"j.j.j.j.j.j.j.j.j.j.j.j.j.j.j.j.j.j.j.j.j.j.j.j.j.j.j.j.j.j.j.j.j.j.j.j.j.j.j.j.j.j.j.j.j.j.j.j.j.j.j.j.j.j.j.j.j.j.j.j.j.j.j.j.j.j.j.j.j.j.j.j.j.j.j.j.j.j.j.j.j.j.j.j.j.j.j.j.j.j.j.j.j.j.j.j.j.j.j.j.j.j.j.j.",
"j.j.j.j.j.j.j.j.j.j.j.j.j.j.j.j.j.j.j.j.j.j.j.j.j.j.j.j.j.j.j.j.j.j.j.j.j.j.j.j.j.j.j.j.j.j.j.j.j.j.j.j.j.j.j.j.j.j.j.j.j.j.j.j.j.j.j.j.j.j.j.j.j.j.j.j.j.j.j.j.j.j.j.j.j.j.j.j.j.j.j.j.j.j.j.j.j.j.j.j.j.j.j.j.",
"j.j.j.j.j.j.j.j.j.j.j.j.j.j.j.j.j.j.j.j.j.j.j.j.j.j.j.j.j.j.j.j.j.j.j.j.j.j.j.j.j.j.j.j.j.j.j.j.j.j.j.j.j.j.j.j.j.j.j.j.j.j.j.j.j.j.j.j.j.j.j.j.j.j.j.j.j.j.j.j.j.j.j.j.j.j.j.j.j.j.j.j.j.j.j.j.j.j.j.j.j.j.j.j.",
"j.j.j.j.j.j.j.j.j.j.j.j.j.j.j.j.j.j.j.j.j.j.j.j.j.j.j.j.j.j.j.j.j.j.j.j.j.j.j.j.j.j.j.j.j.j.j.j.j.j.j.j.j.j.j.j.j.j.j.j.j.j.j.j.j.j.j.j.j.j.j.j.j.j.j.j.j.j.j.j.j.j.j.j.j.j.j.j.j.j.j.j.j.j.j.j.j.j.j.j.j.j.j.j.",
"j.j.j.j.j.j.j.j.j.j.j.j.j.j.j.j.j.j.j.j.j.j.j.j.j.j.j.j.j.j.j.j.j.j.j.j.j.j.j.j.j.j.j.j.j.j.j.j.j.j.j.j.j.j.j.j.j.j.j.j.j.j.j.j.j.j.j.j.j.j.j.j.j.j.j.j.j.j.j.j.j.j.j.j.j.j.j.j.j.j.j.j.j.j.j.j.j.j.j.j.j.j.j.j.",
"j.j.j.j.j.j.j.j.j.j.j.j.j.j.j.j.j.j.j.j.j.j.j.j.j.j.j.j.j.j.j.j.j.j.j.j.j.j.j.j.j.j.j.j.j.j.j.j.j.j.j.j.j.j.j.j.j.j.j.j.j.j.j.j.j.j.j.j.j.j.j.j.j.j.j.j.j.j.j.j.j.j.j.j.j.j.j.j.j.j.j.j.j.j.j.j.j.j.j.j.j.j.j.j.",
"j.j.j.j.j.j.j.j.j.j.j.j.j.j.j.j.j.j.j.j.j.j.j.j.j.j.j.j.j.j.j.j.j.j.j.j.j.j.j.j.j.j.j.j.j.j.j.j.j.j.j.j.j.j.j.j.j.j.j.j.j.j.j.j.j.j.j.j.j.j.j.j.j.j.j.j.j.j.j.j.j.j.j.j.j.j.j.j.j.j.j.j.j.j.j.j.j.j.j.j.j.j.j.j.",
"j.j.j.j.j.j.j.j.j.j.j.j.j.j.j.j.j.j.j.j.j.j.j.j.j.j.j.j.j.j.j.j.j.j.j.j.j.j.j.j.j.j.j.j.j.j.j.j.j.j.j.j.j.j.j.j.j.j.j.j.j.j.j.j.j.j.j.j.j.j.j.j.j.j.j.j.j.j.j.j.j.j.j.j.j.j.j.j.j.j.j.j.j.j.j.j.j.j.j.j.j.j.j.j.",
"j.j.j.j.j.j.j.j.j.j.j.j.j.j.j.j.j.j.j.j.j.j.j.j.j.j.j.j.j.j.j.j.j.j.j.j.j.j.j.j.j.j.j.j.j.j.j.j.j.j.j.j.j.j.j.j.j.j.j.j.j.j.j.j.j.j.j.j.j.j.j.j.j.j.j.j.j.j.j.j.j.j.j.j.j.j.j.j.j.j.j.j.j.j.j.j.j.j.j.j.j.j.j.j.",
"j.j.j.j.j.j.j.j.j.j.j.j.j.j.j.j.j.j.j.j.j.j.j.j.j.j.j.j.j.j.j.j.j.j.j.j.j.j.j.j.j.j.j.j.j.j.j.j.j.j.j.j.j.j.j.j.j.j.j.j.j.j.j.j.j.j.j.j.j.j.j.j.j.j.j.j.j.j.j.j.j.j.j.j.j.j.j.j.j.j.j.j.j.j.j.j.j.j.j.j.j.j.j.j.",
"j.j.j.j.j.j.j.j.j.j.j.j.j.j.j.j.j.j.j.j.j.j.j.j.j.j.j.j.j.j.j.j.j.j.j.j.j.j.j.j.j.j.j.j.j.j.j.j.j.j.j.j.j.j.j.j.j.j.j.j.j.j.j.j.j.j.j.j.j.j.j.j.j.j.j.j.j.j.j.j.j.j.j.j.j.j.j.j.j.j.j.j.j.j.j.j.j.j.j.j.j.j.j.j.",
"j.j.j.j.j.j.j.j.j.j.j.j.j.j.j.j.j.j.j.j.j.j.j.j.j.j.j.j.j.j.j.j.j.j.j.j.j.j.j.j.j.j.j.j.j.j.j.j.j.j.j.j.j.j.j.j.j.j.j.j.j.j.j.j.j.j.j.j.j.j.j.j.j.j.j.j.j.j.j.j.j.j.j.j.j.j.j.j.j.j.j.j.j.j.j.j.j.j.j.j.j.j.j.j.",
"j.j.j.j.j.j.j.j.j.j.j.j.j.j.j.j.j.j.j.j.j.j.j.j.j.j.j.j.j.j.j.j.j.j.j.j.j.j.j.j.j.j.j.j.j.j.j.j.j.j.j.j.j.j.j.j.j.j.j.j.j.j.j.j.j.j.j.j.j.j.j.j.j.j.j.j.j.j.j.j.j.j.j.j.j.j.j.j.j.j.j.j.j.j.j.j.j.j.j.j.j.j.j.j.",
"j.j.j.j.j.j.j.j.j.j.j.j.j.j.j.j.j.j.j.j.j.j.j.j.j.j.j.j.j.j.j.j.j.j.j.j.j.j.j.j.j.j.j.j.j.j.j.j.j.j.j.j.j.j.j.j.j.j.j.j.j.j.j.j.j.j.j.j.j.j.j.j.j.j.j.j.j.j.j.j.j.j.j.j.j.j.j.j.j.j.j.j.j.j.j.j.j.j.j.j.j.j.j.j.",
"j.j.j.j.j.j.j.j.j.j.j.j.j.j.j.j.j.j.j.j.j.j.j.j.j.j.j.j.j.j.j.j.j.j.j.j.j.j.j.j.h.h.h.0.9.9.e.e.w.{ { 9.j.j.j.j.j.j.j.j.j.j.j.j.j.j.j.j.j.j.j.j.j.j.j.j.j.j.j.j.j.j.j.j.j.j.j.j.j.j.j.j.j.j.j.j.j.j.j.j.j.j.j.j.",
"j.j.j.j.j.j.j.j.j.j.j.j.j.j.j.j.j.j.j.j.j.j.j.j.j.j.j.j.j.h.h.0.0.9.r.e.e.w.w.q.] ] { [ O.O.[ { { { { r.j.j.j.j.j.j.j.j.j.j.j.j.j.j.j.j.j.j.j.j.j.j.j.j.j.j.j.j.j.j.j.j.j.j.j.j.j.j.j.j.j.j.j.j.j.j.j.j.j.j.j.j.",
"j.j.j.j.j.j.j.j.j.j.j.j.j.j.j.j.j.h.h.h.t.t.r.e.e.w.w.q.{ { { { ] ] { { { [ [ O.O.{ ] <.;.v h y :.[ ] e.j.j.h.p.y.u.j.j.j.j.j.j.j.j.j.j.j.j.j.j.j.j.j.j.j.j.j.j.j.j.j.j.j.j.j.j.j.j.j.j.j.j.j.j.j.j.j.j.j.j.j.j.",
"j.j.j.j.j.j.j.h.t.t.r.r.e.e.w.w.] ] { { { { ] { { ] ] ] ] ] { { [ [ O.[ ] 1.:.b j u 9 e e e e 8 c ..} } o.' ) ) ) o.j.j.j.j.j.j.j.j.j.j.j.j.j.j.j.j.j.j.j.j.j.j.j.j.j.j.j.j.j.j.j.j.j.j.j.j.j.j.j.j.j.j.j.j.j.j.",
"j.j.j.j.j.j.h.{ { { { { { { { { { { { { { ] ] ] { { [ O.O.O.{ P <.;.k 7 q 8 e e e e 9 6 g G K Q R T T T ) ) ) ) ) ' j.j.j.j.j.j.j.j.j.j.j.j.j.j.j.j.j.j.j.j.j.j.j.j.j.j.j.j.j.j.j.j.j.j.j.j.j.j.j.j.j.j.j.j.j.j.",
"j.j.j.j.j.j.h.{ { { { { { { { { ] ] ] { [ [ O.[ { ] <.;.v h y 0 e e e e 0 y f x L E R T ~ ~ ~ T T T T T ^ ) ) ) ) ) j.j.j.j.j.j.j.j.j.j.j.j.j.j.j.j.j.j.j.j.j.j.j.j.j.j.j.j.j.j.j.j.j.j.j.j.j.j.j.j.j.j.j.j.j.j.",
"j.j.j.j.j.j.j.{ { { ] ] ] { { [ O.O.[ ] 1.:.b j y w e e e e 8 q d l H K Y T I I I T T T T T T T T T T / ^ ) ) ) ) ) p.j.j.j.j.j.j.j.j.j.j.j.j.j.j.j.j.j.j.j.j.j.j.j.j.j.j.j.j.j.j.j.j.j.j.j.j.j.j.j.j.j.j.j.j.j.",
"j.j.j.j.j.j.j.] { [ [ O.[ { P <.;.k i w 8 e e e 8 9 6 z G K Q T T I I I T T T U T T T T T T T T T T T T ^ ) ) ) ) ) u.j.j.j.j.j.j.j.j.j.j.j.j.j.j.j.j.j.j.j.j.j.j.j.j.j.j.j.j.j.j.j.j.j.j.j.j.j.j.j.j.j.j.j.j.j.",
"j.j.j.j.j.j.j.w.] <.;.v h q 0 e e e e 0 5 f x L E R T I I I I T U T T T T T T T T T T T T T T T T T I U ^ ) ) ) ) ) | j.j.j.j.j.j.j.j.j.j.j.j.j.j.j.j.j.j.j.j.j.j.j.j.j.j.j.j.j.j.j.j.j.j.j.j.j.j.j.j.j.j.j.j.j.",
"j.j.j.j.7.6.3.i 9 8 8 e 8 8 q d l H W Y T I ~ ~ I T T T T T T T T T T T T T T T T T T T T T T T / T / T ^ ) ) ) ) ) X.j.j.j.j.j.j.j.j.j.j.j.j.j.j.j.j.j.j.j.j.j.j.j.j.j.j.j.j.j.j.j.j.j.j.j.j.j.j.j.j.j.j.j.j.j.",
"j.j.j.j.m m m r 8 0 0 0 8 H T T I I I T T U U U U U U U U U U U T U U U T U T T U U U U T U U U U U T U ^ ^ ^ ^ ^ ^ ( j.j.j.j.j.j.j.j.j.j.j.j.j.j.j.j.j.j.j.j.j.j.j.j.j.j.j.j.j.j.j.j.j.j.j.j.j.j.j.j.j.j.j.j.j.",
"j.j.j.j.M m m t 8 0 0 0 e J ~ T T T T T / A $ % * % % % * * * % * * % % % % % % % % % % * * % % % % * % % % % % % % % ; ; ; ; ; ; ; ; ; ; ; ; ; ; ; ; ; ; ; ; ; ; ; ; ; ; ; ; ; ; ; ; ; ; ; ; ; ; ; ; ; j.j.j.j.",
"j.j.j.j.2.m m a 8 0 0 0 e z I T T T T T / C O # # # # # # # @ @ @ @ # # @ # @ # # # # # # # @ @ # @ # # # # # @ # # # # # # # # # # # # # # # # # # # # # # # # # # # # # # # # # # # # # # # # # # # # j.j.j.j.",
"j.j.j.j.6.m m a 8 8 8 8 8 6 T T T T T T / C O $ # # # # o # & ; - $ + @ # # # # # o o o o # # # # # # o o o # # # # # o o o + # # # # # + o o + # # # # # # o o o # # # # # # $ # # # # # # # # # # # # j.j.j.j.",
"j.j.j.j.7.m m s 8 0 w t a p R T T T T T / C O # # # # # F f.x.c.c.j.*.: # # # @ ; =.=.=.*.& # # # @ , *.*.*.: + $ # # #.*.*.1 + $ # # # #.=.*.=.1 + # # # & *.=.=.1 + # # # # + 1 j.j.j.: + # # # # # # j.j.j.j.",
"j.j.j.j.d.m m m m m m m m m Q I T T T T / C O # # # & g.c.c.c.c.c.c.c.j.# # $ + -.c.c.c.c.: + # $ o *.c.c.c.g.# # # & c.c.c.+.o # # + > c.c.c.c.-.o # # # ; c.c.c.4 o # # # $ o 4 c.c.c.> + # # # # # # j.j.j.j.",
"j.j.j.j.j.N m m m m m m m n ! I T / T T / C O # # # j.c.c.c.c.x.x.c.c.-.o $ + : c.c.c.c.c.F o $ # + -.c.c.c.c.4 + # ; c.c.c., + $ # o 8.c.c.c.c.j.# # $ o 1 c.c.c.: o # # # $ + 4 c.c.c.> + # # # # # @ j.j.j.j.",
"j.j.j.j.j.2.m m m m m m m n ,.I T T T T / C O $ o +.c.c.c.j.1 & & : =.+.o $ + -.c.c.c.c.c.*.o # # # j.c.c.c.c.z.& o 1 c.c.c.; @ $ + > c.c.c.c.c.c.= # # o +.c.c.c.= # # # + + . 2 c.c.c.: o # # @ # # # j.j.j.j.",
"j.j.j.j.j.4.m m m m m m m n >.I T / / / ) Z O $ # j.c.c.z.& o # # + @ $ # @ : c.c.x.-.c.c.j.# # # & x.c.c.c.c.c.$.  +.c.c.x.& # $ o -.c.c.-.z.c.c.1 + $ o %.c.c.z.$ # $ -.s.s.s.j.c.c.c.j.s.s.g.&.@ # # j.j.j.j.",
"j.j.j.j.j.6.m m m m m N 2.4.5.^ ^ ) ) ) _ V O # ; c.c.c.$.o $ # # # # # $ + -.c.c.-.: c.c.c.= # @ ; c.c.c.8.c.c.c.& $.c.c.j.# # o > c.c.c.; s.c.c.#.o $ + -.c.c.s.+ # & x.c.c.c.c.c.c.c.c.c.c.c.s.@ # # j.j.j.j.",
"j.j.j.j.j.k.B 3.6.7.d.j.j.j.j.' ` X. .y.a.F # @ : c.c.c.3 + # # # # # # + : c.c.c.: # x.c.c.1 + + < c.c.x.; j.c.c.=.-.c.c.-.o $ o s.c.c.-.  $.c.c.-.o # # j.c.c.=.o # $ x.c.c.c.c.c.c.c.c.c.c.c.s.@ # # j.j.j.j.",
"j.j.j.j.j.j.j.j.j.j.j.j.j.j.j.h.j.j.j.j.j.@.# @ ; c.c.c.+.o $ # # # # $ o -.c.c.z., > j.c.c.#.+ + D c.c.z.+ 4 c.c.c.c.c.c.$.o @ > c.c.c.@.- $.c.c.j.# @ & x.c.c.$.o $ $ 8.g.g.g.z.c.c.c.j.g.g.j.&.@ # # j.j.j.j.",
"j.j.j.j.j.j.j.j.j.j.j.j.j.j.j.j.j.j.j.h.j.+.# # & x.c.c.j.$ o # # o # + : c.c.c.c.c.c.c.c.c.-.@ o $.c.c.s.@ @ g.c.c.c.c.c.S + @ 8.c.c.c.c.c.c.c.c.c.; o ; c.c.c.2 . # + # # # o 3 c.c.c.> o # # # # # # j.j.j.j.",
"j.j.j.j.j.j.j.j.j.j.j.j.j.j.j.j.j.j.j.j.j.@.# $ o =.c.c.c.g.1 ; : +.1 X -.c.c.c.c.c.c.c.c.c.z.$ o -.c.c.=.+ @ > c.c.c.c.c.1 X > c.c.c.c.c.c.c.c.c.c.2 . 1 c.c.c.S ; : ; # # $ + 3 c.c.c.> + $ # # # # # j.j.j.j.",
"j.j.j.j.j.j.j.j.j.j.j.j.j.j.j.j.j.j.j.j.j.+.# $ @ = x.c.c.c.c.c.c.c.> - c.c.c.-.+.@.+.$.c.c.c.; @ g.c.c.#.o $ o -.c.c.c.c.: X 8.c.c.z.S D D 4 j.c.c.$.  +.c.c.c.c.c.c.j.# # # o 3 c.c.c.> + # # # # # # j.j.j.j.",
"j.j.j.j.j.j.j.j.j.j.j.j.j.j.j.j.j.j.j.j.j.@.# # $ o > z.c.c.c.c.c.c.& s.c.c.c.& X o o o z.c.c.4 # c.c.c.4 o $ @ ; c.c.c.c.# < c.c.c.+.  o +   %.c.c.g.. =.c.c.c.c.c.c.8.o $ $ o 4 c.c.c.> o # # # # # # j.j.j.j.",
"j.j.j.j.j.j.j.j.j.j.j.j.j.j.j.j.j.j.j.g.j.+.# # # $ + & +.s.z.z.g.#.& &.%.*.4 @ $ $ $ # 4 *.&.< $ &.*.*.; @ # # + 4 *.*.#.+ 4 *.*.*.& # $ $ + > =.=.$.# 4 *.*.*.*.*.*.2 @ # # @ > *.*.*.; # # # # # # # j.j.j.j.",
"j.j.j.j.j.j.j.j.j.j.j.j.j.j.j.j.j.j.j.j.j.@.# $ # # # # o @ $ $ # o # o o o + # # # # # + o o @ # o o o # # # # # + o o o # + o o o # # # # # # o o o # + o o o o o o + # # # # # o o o # # # # # # # # j.j.j.j.",
"j.j.j.j.j.j.j.j.j.j.j.j.j.j.j.j.j.j.j.j.j.#.# $ # # # $ $ $ # # # $ # $ # $ $ # # $ # # $ $ $ $ # $ $ # $ $ # # # $ $ $ $ # $ $ $ $ $ # # # # # $ $ $ # # $ $ $ $ $ $ # $ # # $ # $ $ $ # # # # $ # # $ j.j.j.j.",
"j.j.j.j.j.j.j.j.j.j.j.j.j.j.j.j.j.j.j.j.j.+.# # # # # # # # # # # # # # # # # # # # # # # # # # # # # # # # # # # # # # # # # # # # # # # # # # # # # # # # # # # # # # # # # # # # # # # # # # # # # # j.j.j.j.",
"j.j.j.j.j.j.j.j.j.j.j.j.j.j.j.j.j.j.j.j.j.%., , , , , , , , > , > < < < , , , , , , , , , , , , , , , , < < < < , < , , > < , , , , , , , , , , , , , , , , , , , , , , , , , , < , , < < < < > < < , , j.j.j.j.",
"j.j.j.j.j.j.j.j.j.j.j.j.j.j.j.j.j.j.j.j.j.j.j.j.j.j.j.j.j.j.j.j.j.j.j.j.j.j.j.j.j.j.j.j.j.j.h.j.j.j.j.j.j.j.j.j.j.j.j.j.j.j.j.j.j.j.j.j.j.j.j.j.j.j.j.j.j.j.j.j.j.j.j.j.j.j.j.j.j.j.j.j.j.j.j.j.j.j.j.j.j.j.j.j.",
"j.j.j.j.j.j.j.j.j.j.j.j.j.j.j.j.j.j.j.j.j.j.j.j.d.j.j.j.j.j.f.%.-.j.h.j.j.d.f.g.d.j.j.j.d.f.d.j.j.j.j.j.f.g.g.j.j.j.j.f.f.g.f.j.j.f.g.j.j.j.f.g.h.d.j.j.f.d.j.j.d.f.j.j.j.d.f.f.j.f.f.g.j.j.j.j.g.g.g.g.j.j.j.j.",
"j.j.j.j.j.j.j.j.j.j.j.j.j.j.j.j.j.j.j.j.j.j.j.j.j.j.j.j.d.j.:   $ g.j.j.j.=.+ S j.j.d.j.D @ : j.j.j.j.f.$ o X $ @.j.d.& +   @ j.5.+ & d.j.x @ 4 j.d.j., + 1 j.j.*.+ ; j.j.s.+ > g.# o   $ #.j.s.# o   $ j.j.j.j.",
"j.j.j.j.j.j.j.j.j.j.j.j.j.j.j.j.j.j.j.j.j.j.j.j.j.j.j.j.j.-.      =.j.g.j.*.  4 j.h.j.j.$     -.j.g.j.f.X # 3 $   +.j.o + S +.j.%.    *.j.&   ; j.j.s.o   + s.j.$.    1 j.s.  : g.  # 3 # X $.g.  $ D +.j.j.j.j.",
"j.j.j.j.j.j.j.j.j.j.j.j.j.j.j.j.j.j.j.j.j.j.j.j.j.j.j.j.j.2   : . $.j.d.j.*.  4 j.j.j.*.  ;   1 j.j.j.g.X ; j.g.# o f.@ # -.-.j.S     1 -.    & j.j.S   :   #.j.$.  o   $.j.  : g.  : j.s.o # s.X ; -.8.j.j.j.j.",
"j.j.j.j.j.j.j.j.j.j.j.j.j.j.j.j.j.j.j.j.j.j.j.j.j.j.h.j.j.@ & j.o : j.d.j.*.  4 j.g.j.: X d.= @ g.j.j.g.X & d.j.;   -.$     o j.: o ; + = # - X s.j.$ # j.o = j.%.  S - o *.X : j.  : d.j.&   =.o     # j.j.j.j.",
"j.j.j.j.j.j.j.j.j.j.j.j.j.j.j.j.j.j.j.j.j.j.j.j.j.j.j.j.*.  $ 1 X X s.j.j.*.  F d.j.f.o   1 $   *.j.j.g.  - j.d.# o s.@ # =.-.j.$ $ -.    D D   s.-.  # 1 o   s.*.  @.s.X @   : j.  : j.g.@ @ 5.X ; =.-.j.j.j.j.",
"j.j.j.j.j.j.j.j.j.j.j.j.j.j.j.j.j.j.j.j.j.j.j.j.j.j.d.j.:   $ # $   +.j.j.*.  ; S =.@.  $ # &   : j.j.g.o # 4 =   x j.@ @ +.$.g.o - j.=   f.$.  =.1   $ # $   x =.  S j.$.    > g.  $ S &   +.g.  & +.#.j.j.j.j.",
"j.j.j.j.j.j.j.j.j.j.j.j.j.j.j.j.j.j.j.j.j.j.j.j.j.j.j.s.  & j.j.s.X & j.j.*.      2 ; o f.j.j.& X s.j.s.+     X 4 j.g.#     o -.  < j.4 = j.*.  3 # $ j.j.f.o & *.  D j.j.3   > g.X     o S j.5.o     O j.j.j.j.",
"j.j.j.j.j.j.j.j.j.j.j.j.j.j.j.j.j.j.j.j.j.j.j.j.j.j.j.j.j.j.j.j.j.j.j.j.j.j.j.j.j.j.j.j.d.j.j.j.j.j.j.j.j.j.j.j.j.j.j.j.j.j.j.j.j.j.j.j.d.j.j.j.j.j.j.j.j.j.j.j.j.j.j.j.j.j.j.j.j.j.j.j.j.j.j.j.j.j.j.j.j.j.j.j.",
"j.j.j.j.j.j.j.j.j.j.j.j.j.j.j.j.j.j.j.j.j.j.j.j.j.j.j.j.j.j.j.j.j.j.j.j.j.j.j.j.j.j.j.j.j.j.j.j.j.j.j.j.j.j.j.j.j.j.j.j.j.j.j.j.j.j.j.j.j.j.j.j.j.j.j.j.j.j.j.j.j.j.j.j.j.j.j.j.j.j.j.j.j.j.j.j.j.j.j.j.j.j.j.j.",
"j.j.j.j.j.j.j.j.j.j.j.j.j.j.j.j.j.j.j.j.j.j.j.j.j.j.j.j.j.j.j.j.j.j.j.j.j.j.j.j.j.j.j.j.j.j.j.j.j.j.j.j.j.j.j.j.j.j.j.j.j.j.j.j.j.j.j.j.j.j.j.j.j.j.j.j.j.j.j.j.j.j.j.j.j.j.j.j.j.j.j.j.j.j.j.j.j.j.j.j.j.j.j.j.",
"j.j.j.j.j.j.j.j.j.j.j.j.j.j.j.j.j.j.j.j.j.j.j.j.j.j.j.j.j.j.j.j.j.j.j.j.j.j.j.j.j.j.j.j.j.j.j.j.j.j.j.j.j.j.j.j.j.j.j.j.j.j.j.j.j.j.j.j.j.j.j.j.j.j.j.j.j.j.j.j.j.j.j.j.j.j.j.j.j.j.j.j.j.j.j.j.j.j.j.j.j.j.j.j.",
"j.j.j.j.j.j.j.j.j.j.j.j.j.j.j.j.j.j.j.j.j.j.j.j.j.j.j.j.j.j.j.j.j.j.j.j.j.j.j.j.j.j.j.j.j.j.j.j.j.j.j.j.j.j.j.j.j.j.j.j.j.j.j.j.j.j.j.j.j.j.j.j.j.j.j.j.j.j.j.j.j.j.j.j.j.j.j.j.j.j.j.j.j.j.j.j.j.j.j.j.j.j.j.j.",
"j.j.j.j.j.j.j.j.j.j.j.j.j.j.j.j.j.j.j.j.j.j.j.j.j.j.j.j.j.j.j.j.j.j.j.j.j.j.j.j.j.j.j.j.j.j.j.j.j.j.j.j.j.j.j.j.j.j.j.j.j.j.j.j.j.j.j.j.j.j.j.j.j.j.j.j.j.j.j.j.j.j.j.j.j.j.j.j.j.j.j.j.j.j.j.j.j.j.j.j.j.j.j.j.",
"j.j.j.j.j.j.j.j.j.j.j.j.j.j.j.j.j.j.j.j.j.j.j.j.j.j.j.j.j.j.j.j.j.j.j.j.j.j.j.j.j.j.j.j.j.j.j.j.j.j.j.j.j.j.j.j.j.j.j.j.j.j.j.j.j.j.j.j.j.j.j.j.j.j.j.j.j.j.j.j.j.j.j.j.j.j.j.j.j.j.j.j.j.j.j.j.j.j.j.j.j.j.j.j.",
"j.j.j.j.j.j.j.j.j.j.j.j.j.j.j.j.j.j.j.j.j.j.j.j.j.j.j.j.j.j.j.j.j.j.j.j.j.j.j.j.j.j.j.j.j.j.j.j.j.j.j.j.j.j.j.j.j.j.j.j.j.j.j.j.j.j.j.j.j.j.j.j.j.j.j.j.j.j.j.j.j.j.j.j.j.j.j.j.j.j.j.j.j.j.j.j.j.j.j.j.j.j.j.j.",
"j.j.j.j.j.j.j.j.j.j.j.j.j.j.j.j.j.j.j.j.j.j.j.j.j.j.j.j.j.j.j.j.j.j.j.j.j.j.j.j.j.j.j.j.j.j.j.j.j.j.j.j.j.j.j.j.j.j.j.j.j.j.j.j.j.j.j.j.j.j.j.j.j.j.j.j.j.j.j.j.j.j.j.j.j.j.j.j.j.j.j.j.j.j.j.j.j.j.j.j.j.j.j.j.",
"j.j.j.j.j.j.j.j.j.j.j.j.j.j.j.j.j.j.j.j.j.j.j.j.j.j.j.j.j.j.j.j.j.j.j.j.j.j.j.j.j.j.j.j.j.j.j.j.j.j.j.j.j.j.j.j.j.j.j.j.j.j.j.j.j.j.j.j.j.j.j.j.j.j.j.j.j.j.j.j.j.j.j.j.j.j.j.j.j.j.j.j.j.j.j.j.j.j.j.j.j.j.j.j.",
"j.j.j.j.j.j.j.j.j.j.j.j.j.j.j.j.j.j.j.j.j.j.j.j.j.j.j.j.j.j.j.j.j.j.j.j.j.j.j.j.j.j.j.j.j.j.j.j.j.j.j.j.j.j.j.j.j.j.j.j.j.j.j.j.j.j.j.j.j.j.j.j.j.j.j.j.j.j.j.j.j.j.j.j.j.j.j.j.j.j.j.j.j.j.j.j.j.j.j.j.j.j.j.j.",
"j.j.j.j.j.j.j.j.j.j.j.j.j.j.j.j.j.j.j.j.j.j.j.j.j.j.j.j.j.j.j.j.j.j.j.j.j.j.j.j.j.j.j.j.j.j.j.j.j.j.j.j.j.j.j.j.j.j.j.j.j.j.j.j.j.j.j.j.j.j.j.j.j.j.j.j.j.j.j.j.j.j.j.j.j.j.j.j.j.j.j.j.j.j.j.j.j.j.j.j.j.j.j.j.",
"j.j.j.j.j.j.j.j.j.j.j.j.j.j.j.j.j.j.j.j.j.j.j.j.j.j.j.j.j.j.j.j.j.j.j.j.j.j.j.j.j.j.j.j.j.j.j.j.j.j.j.j.j.j.j.j.j.j.j.j.j.j.j.j.j.j.j.j.j.j.j.j.j.j.j.j.j.j.j.j.j.j.j.j.j.j.j.j.j.j.j.j.j.j.j.j.j.j.j.j.j.j.j.j.",
"j.j.j.j.j.j.j.j.j.j.j.j.j.j.j.j.j.j.j.j.j.j.j.j.j.j.j.j.j.j.j.j.j.j.j.j.j.j.j.j.j.j.j.j.j.j.j.j.j.j.j.j.j.j.j.j.j.j.j.j.j.j.j.j.j.j.j.j.j.j.j.j.j.j.j.j.j.j.j.j.j.j.j.j.j.j.j.j.j.j.j.j.j.j.j.j.j.j.j.j.j.j.j.j.",
"j.j.j.j.j.j.j.j.j.j.j.j.j.j.j.j.j.j.j.j.j.j.j.j.j.j.j.j.j.j.j.j.j.j.j.j.j.j.j.j.j.j.j.j.j.j.j.j.j.j.j.j.j.j.j.j.j.j.j.j.j.j.j.j.j.j.j.j.j.j.j.j.j.j.j.j.j.j.j.j.j.j.j.j.j.j.j.j.j.j.j.j.j.j.j.j.j.j.j.j.j.j.j.j.",
"j.j.j.j.j.j.j.j.j.j.j.j.j.j.j.j.j.j.j.j.j.j.j.j.j.j.j.j.j.j.j.j.j.j.j.j.j.j.j.j.j.j.j.j.j.j.j.j.j.j.j.j.j.j.j.j.j.j.j.j.j.j.j.j.j.j.j.j.j.j.j.j.j.j.j.j.j.j.j.j.j.j.j.j.j.j.j.j.j.j.j.j.j.j.j.j.j.j.j.j.j.j.j.j.",
"j.j.j.j.j.j.j.j.j.j.j.j.j.j.j.j.j.j.j.j.j.j.j.j.j.j.j.j.j.j.j.j.j.j.j.j.j.j.j.j.j.j.j.j.j.j.j.j.j.j.j.j.j.j.j.j.j.j.j.j.j.j.j.j.j.j.j.j.j.j.j.j.j.j.j.j.j.j.j.j.j.j.j.j.j.j.j.j.j.j.j.j.j.j.j.j.j.j.j.j.j.j.j.j.",
"j.j.j.j.j.j.j.j.j.j.j.j.j.j.j.j.j.j.j.j.j.j.j.j.j.j.j.j.j.j.j.j.j.j.j.j.j.j.j.j.j.j.j.j.j.j.j.j.j.j.j.j.j.j.j.j.j.j.j.j.j.j.j.j.j.j.j.j.j.j.j.j.j.j.j.j.j.j.j.j.j.j.j.j.j.j.j.j.j.j.j.j.j.j.j.j.j.j.j.j.j.j.j.j.",
"j.j.j.j.j.j.j.j.j.j.j.j.j.j.j.j.j.j.j.j.j.j.j.j.j.j.j.j.j.j.j.j.j.j.j.j.j.j.j.j.j.j.j.j.j.j.j.j.j.j.j.j.j.j.j.j.j.j.j.j.j.j.j.j.j.j.j.j.j.j.j.j.j.j.j.j.j.j.j.j.j.j.j.j.j.j.j.j.j.j.j.j.j.j.j.j.j.j.j.j.j.j.j.j."
};
