/* XPM */
static char *CANAL_J[] = {
/* columns rows colors chars-per-pixel */
"104 78 169 2",
"   c #7F4C2F",
".  c #774D37",
"X  c #6F5341",
"o  c #705A4C",
"O  c #853F1C",
"+  c #963500",
"@  c #AB3D03",
"#  c #9E410C",
"$  c #9F4D18",
"%  c #874A27",
"&  c #8A5B3D",
"*  c #985E37",
"=  c #A34714",
"-  c #AB581B",
";  c #B64303",
":  c #B65B1A",
">  c #A85728",
",  c #A75F32",
"<  c #B85C25",
"1  c #BB611D",
"2  c #AC653A",
"3  c #BD6623",
"4  c #B66837",
"5  c #BD743E",
"6  c #985E41",
"7  c #836047",
"8  c #886B59",
"9  c #986647",
"0  c #986E52",
"q  c #99775D",
"w  c #87766A",
"e  c #887E73",
"r  c #977A66",
"t  c #A66945",
"y  c #A2724E",
"u  c #BE7B48",
"i  c #B07950",
"p  c #C14E0E",
"a  c #C85A16",
"s  c #D35B0E",
"d  c #D25C16",
"f  c #C8671C",
"g  c #D86819",
"h  c #DC721D",
"j  c #C76924",
"k  c #CB6A32",
"l  c #C47537",
"z  c #D66A25",
"x  c #D66F34",
"c  c #DB7525",
"v  c #D97937",
"b  c #E76B09",
"n  c #E36D16",
"m  c #E7720F",
"M  c #EA791A",
"N  c #F17D1D",
"B  c #E06D25",
"V  c #EB7D22",
"C  c #E67F30",
"Z  c #F17E21",
"A  c #C57C45",
"S  c #D87B43",
"D  c #8D827B",
"F  c #A8866C",
"G  c #A78A75",
"H  c #AB937E",
"J  c #B58465",
"K  c #B08F79",
"L  c #EC821E",
"P  c #EE921F",
"I  c #F0801C",
"U  c #F0981F",
"Y  c #EC8424",
"T  c #EB8B35",
"R  c #EE9723",
"E  c #EB9139",
"W  c #F08323",
"Q  c #F09A24",
"!  c #EFA122",
"~  c #F1A123",
"^  c #C68657",
"/  c #DA8449",
"(  c #DB8A56",
")  c #D29055",
"_  c #CA8962",
"`  c #CB946A",
"'  c #C99874",
"]  c #DB9768",
"[  c #D59E74",
"{  c #DDA46F",
"}  c #DCA87D",
"|  c #E78E46",
" . c #E18E57",
".. c #EA9547",
"X. c #E99C56",
"o. c #F19B49",
"O. c #E49D64",
"+. c #E19D72",
"@. c #EDA25A",
"#. c #F0A85C",
"$. c #E9A767",
"%. c #E5AA77",
"&. c #EDB06E",
"*. c #E9B27B",
"=. c #F1AB68",
"-. c #F1AE70",
";. c #F2B377",
":. c #9B938A",
">. c #9A9690",
",. c #A7988B",
"<. c #A69B93",
"1. c #BE9D88",
"2. c #B19F97",
"3. c #A6A39E",
"4. c #B4A79C",
"5. c #ADA9A4",
"6. c #B4ADA6",
"7. c #BAB4AE",
"8. c #BBBAB7",
"9. c #CD9D82",
"0. c #D39E81",
"q. c #CAA588",
"w. c #C8AD96",
"e. c #CFB29D",
"r. c #D9AB85",
"t. c #D5AE92",
"y. c #DDB089",
"u. c #D9B598",
"i. c #CDBAAC",
"p. c #C5BEBA",
"a. c #D5BBA8",
"s. c #D0BFB3",
"d. c #E5AD84",
"f. c #E7B687",
"g. c #E3BB97",
"h. c #F1B784",
"j. c #F3BF92",
"k. c #C9C2BD",
"l. c #DEC3AC",
"z. c #DBC9B9",
"x. c #EAC29A",
"c. c #F3C08C",
"v. c #F3C395",
"b. c #E4C6A7",
"n. c #E6CDB6",
"m. c #EAD2BA",
"M. c #F2CCA7",
"N. c #F6D1A8",
"B. c #F3D5B8",
"V. c #F9E0BA",
"C. c #C8C7C5",
"Z. c #CDD1D0",
"A. c #D8CDC4",
"S. c #DCD4CC",
"D. c gainsboro",
"F. c #DEE1DE",
"G. c #DEE2E2",
"H. c #E9D6C5",
"J. c #E5DFD8",
"K. c #F5DDC5",
"L. c #E9E3DC",
"P. c #F6E2CC",
"I. c #F6E8D8",
"U. c #E9E9E7",
"Y. c #EDEEF0",
"T. c #EEF4F3",
"R. c #F4EDE5",
"E. c #F7F2EC",
"W. c #F9F9F8",
/* pixels */
"D.D.D.D.D.D.D.D.D.D.D.D.D.D.D.D.D.D.D.D.D.D.D.D.D.D.D.D.D.D.D.D.D.D.D.D.D.D.D.D.D.D.D.D.D.D.D.D.D.D.D.D.D.D.D.D.D.D.D.D.D.D.D.D.D.D.D.D.D.D.D.D.D.D.D.D.D.D.D.D.D.D.D.D.D.D.D.D.D.D.D.D.D.D.D.D.D.D.D.D.D.D.D.D.",
"D.D.D.D.D.D.D.D.D.D.D.D.D.D.D.D.D.D.D.D.D.D.D.D.D.D.D.D.D.D.D.D.D.D.D.D.D.D.D.D.D.D.D.D.D.D.D.D.D.D.D.D.D.D.D.D.D.D.D.D.D.D.D.D.D.D.D.D.D.D.D.D.D.D.D.D.D.D.D.D.D.D.D.D.D.D.D.D.D.D.D.D.D.D.D.D.D.D.D.D.D.D.D.D.",
"D.D.D.D.D.D.D.D.D.D.D.D.D.D.D.D.D.D.D.D.D.D.D.D.D.D.D.D.D.D.D.D.D.D.D.D.D.D.D.D.D.D.D.D.D.D.D.D.D.D.D.D.D.D.D.D.D.D.D.D.D.D.D.D.D.D.D.D.D.D.D.D.D.D.D.D.D.D.D.D.D.D.D.D.D.D.D.D.D.D.D.D.D.D.D.D.D.D.D.D.D.D.D.D.",
"D.D.D.D.D.D.D.D.D.D.D.D.D.D.D.D.D.D.D.D.D.D.D.D.D.D.D.D.D.D.D.D.D.D.D.D.D.D.D.D.D.D.D.D.D.D.D.D.D.D.D.D.D.D.D.D.D.D.D.D.D.D.D.D.D.D.D.D.D.D.D.D.D.D.D.D.D.D.D.D.D.D.D.D.D.D.D.D.D.D.D.D.D.D.D.D.D.D.D.D.D.D.D.D.",
"D.D.D.D.D.D.D.D.D.D.D.D.D.D.D.D.D.D.D.D.D.D.D.D.D.D.D.D.D.D.D.D.D.D.D.D.D.D.D.D.D.D.D.D.D.D.D.D.D.D.D.D.D.D.D.D.D.D.D.D.D.D.D.D.D.D.D.D.D.D.D.D.D.D.D.D.D.D.D.D.D.D.D.D.D.D.D.D.D.D.D.D.D.D.D.D.D.D.D.D.D.D.D.D.",
"D.D.D.D.D.D.D.D.D.D.D.D.D.D.D.D.D.D.D.D.D.D.D.D.D.D.D.D.D.D.D.D.D.D.D.D.D.D.D.D.D.D.D.D.D.D.D.D.D.D.D.D.D.D.D.D.D.D.D.D.D.D.D.D.D.D.D.D.D.D.D.D.D.D.D.D.D.D.D.D.D.D.D.D.D.D.D.D.D.D.D.D.D.D.D.D.D.D.D.D.D.D.D.D.",
"D.D.D.D.D.D.D.D.D.D.D.D.D.D.D.D.D.D.D.D.D.D.D.D.D.D.D.D.D.D.D.D.D.D.D.D.D.D.D.D.D.D.D.D.D.D.D.D.D.D.D.D.D.D.D.D.D.D.D.D.D.D.D.D.D.D.D.D.D.D.D.D.D.D.D.D.D.D.D.D.D.D.D.D.D.D.D.D.D.D.D.D.D.D.D.D.D.D.D.D.D.D.D.D.",
"D.D.D.D.D.D.D.D.D.D.D.D.D.D.D.D.D.D.D.D.D.D.D.D.D.D.D.D.D.D.D.D.D.D.D.D.D.D.D.D.D.D.D.D.D.D.D.D.D.D.D.D.D.D.D.D.D.D.D.D.D.D.D.D.D.D.D.D.D.D.D.D.D.D.D.D.D.D.D.D.D.D.D.D.D.D.D.D.D.D.D.D.D.D.D.D.D.D.D.D.D.D.D.D.",
"D.D.D.D.D.D.D.D.D.D.D.D.D.D.D.D.D.D.D.D.D.D.D.D.D.D.D.D.D.D.D.D.D.D.D.D.D.D.D.D.D.D.D.D.D.D.D.D.D.D.D.D.D.D.D.D.D.D.D.D.D.D.D.D.D.D.D.D.D.D.D.D.D.D.D.D.D.D.D.D.D.D.D.D.D.D.D.D.D.D.D.D.D.D.D.D.D.D.D.D.D.D.D.D.",
"D.D.D.D.D.D.D.D.D.D.D.D.D.D.D.D.D.D.D.D.D.D.D.D.D.D.D.D.D.D.D.D.D.D.D.D.D.D.D.D.D.D.D.D.D.D.D.D.D.D.D.D.D.D.D.D.D.D.D.D.D.D.D.D.D.D.D.D.D.D.D.D.D.D.D.D.D.D.D.D.D.D.D.D.D.D.D.D.D.D.D.D.D.D.D.D.D.D.D.D.D.D.D.D.",
"D.D.D.D.D.D.D.D.D.D.D.D.D.D.D.D.D.D.D.D.D.D.D.D.D.D.D.D.D.D.D.D.D.D.D.D.D.D.D.D.D.D.D.D.D.D.D.D.D.D.D.D.D.D.D.D.D.D.D.D.D.D.D.D.D.D.D.D.D.D.D.D.D.D.D.D.D.D.D.D.D.D.D.D.D.D.D.D.D.D.D.D.D.D.D.D.D.D.D.D.D.D.D.D.",
"D.D.D.D.D.D.D.D.D.D.D.D.D.D.D.D.D.D.D.D.D.D.D.D.D.D.D.D.D.D.D.D.D.D.D.D.D.D.D.D.D.D.D.D.D.D.D.D.D.D.D.D.D.D.D.D.D.D.D.D.D.D.D.D.D.D.D.D.D.D.D.D.D.D.D.D.D.D.D.D.D.D.D.D.D.D.D.D.D.D.D.D.D.D.D.D.D.D.D.D.D.D.D.D.",
"D.D.D.D.D.D.D.D.D.D.D.D.D.D.D.D.D.D.D.D.D.D.D.D.D.D.D.D.D.D.D.D.D.D.D.D.D.D.D.D.D.D.D.D.D.D.D.D.D.D.D.D.D.D.D.D.D.D.D.D.D.D.D.D.D.D.D.D.D.D.D.D.D.D.D.D.D.D.D.D.D.D.D.D.D.D.D.D.D.D.D.D.D.D.D.D.D.D.D.D.D.D.D.D.",
"D.D.D.D.D.D.D.D.D.D.D.D.D.D.D.D.D.D.D.D.D.D.D.D.D.D.D.D.D.D.D.D.D.D.D.D.D.D.D.D.D.D.D.D.D.D.D.D.D.D.D.D.D.D.D.D.D.D.D.D.D.D.D.D.D.D.D.D.D.D.D.D.D.D.D.D.D.D.D.D.D.D.D.D.D.D.D.D.D.D.D.D.D.D.D.D.D.D.D.D.D.D.D.D.",
"D.D.D.D.D.D.D.D.D.D.D.D.D.D.D.D.D.D.D.D.D.D.D.D.D.D.D.D.D.D.D.D.D.D.D.D.D.D.D.D.D.D.D.D.D.D.D.D.D.D.D.D.D.D.D.D.D.D.D.D.D.D.D.D.D.D.D.D.D.D.D.D.D.D.D.D.D.D.D.F.D.D.D.D.D.F.F.D.D.D.D.D.D.D.D.D.D.D.D.D.D.D.D.D.",
"D.D.D.D.D.D.D.D.D.D.D.D.D.D.D.D.D.D.D.D.D.D.D.D.D.D.D.D.D.D.D.D.D.D.D.D.D.D.D.D.D.D.D.D.D.D.D.D.D.D.D.D.D.D.D.D.D.D.D.D.D.D.D.D.D.D.D.D.D.D.D.D.D.D.D.D.D.D.D.F.D.D.S.l.%...P L L R @.z.D.D.D.D.D.D.D.D.D.D.D.D.",
"D.D.D.D.D.D.D.D.D.D.D.D.D.D.D.D.D.D.D.D.D.D.D.D.D.D.D.D.D.D.D.D.D.D.D.D.D.D.D.D.D.D.D.D.D.D.D.D.D.D.D.D.D.D.D.D.D.D.D.D.D.D.D.D.D.D.D.D.D.D.D.D.D.D.D.D.D.D.S.l.*.X.E Y Y Y T Y Y Y Y R g.F.D.D.D.D.D.D.D.D.D.D.",
"D.D.D.D.D.D.D.D.D.D.D.D.D.D.D.D.D.D.D.D.D.D.D.D.D.D.D.D.D.D.D.D.D.D.D.D.D.D.D.D.D.D.D.D.D.D.D.D.D.D.D.D.D.D.D.D.D.D.D.D.D.D.D.D.D.D.D.D.D.D.D.F.D.D.A.b.*.@.Y Y Y Y Y Y Y I I W R Y T Y U *.D.D.D.D.D.D.D.D.D.D.",
"D.D.D.D.D.D.D.D.D.D.D.D.D.D.D.D.D.D.D.D.D.D.D.D.D.D.D.D.D.D.D.D.D.D.D.D.D.D.D.D.D.D.D.D.D.D.D.D.D.D.D.D.D.D.D.D.D.D.D.D.D.D.D.D.D.D.D.F.D.F.S.l.*.X.Y P P Y Y Y R Y Y I E -.h.o.L Y Y Y Y U { F.D.D.D.D.D.D.D.D.",
"D.D.D.D.D.D.D.D.D.D.D.D.D.D.D.D.D.D.D.D.D.D.D.D.D.D.D.D.D.D.D.D.D.D.D.D.D.D.D.D.D.D.D.D.D.D.D.D.D.D.D.D.D.D.D.D.D.D.D.D.D.D.D.D.D.D.S.b.%.X.T Y Y Y Y Y T Y Y T Y Y I =.E.W.W.W.c.L Y Y Y ! Y $.D.D.D.D.D.D.D.D.",
"D.D.D.D.D.D.D.D.D.D.D.D.D.D.D.D.D.D.D.D.D.D.D.D.D.D.D.D.D.D.D.D.D.D.D.D.D.D.D.D.D.D.D.D.D.D.D.D.D.D.D.D.D.D.D.D.D.D.D.D.D.D.D.z.*.X.Y Y Y W W V L Y Y Y Y Y R Y Y L E E.W.W.W.W.W.@.L Y Y R Q V %.D.D.D.D.D.D.D.",
"D.D.D.D.D.D.D.D.D.D.D.D.D.D.D.D.D.D.D.D.D.D.D.D.D.D.D.D.D.D.D.D.D.D.D.D.D.D.D.D.D.D.D.D.D.D.D.D.D.D.D.D.D.D.D.D.D.D.D.D.D.S.D.$.Y Y Y L N M T X.&.Y Y Y R Y Y Y R L &.U.U.W.W.W.W.;.L Y Y R Q V L l.D.D.D.D.D.D.",
"D.D.D.D.D.D.D.D.D.D.D.D.D.D.D.D.D.D.D.D.D.D.D.D.D.D.D.D.D.D.D.D.D.D.D.D.D.D.D.D.D.D.D.D.D.D.D.D.D.D.D.D.D.D.D.D.D.D.D.D.D.D.D.$.Y R Y o.j.B.R.W.W.#.L Y Y Y Y Y Y M ] C.Z.U.U.U.L.X.L L Y R ! V M | D.D.D.D.D.D.",
"D.D.D.D.D.D.D.D.D.D.D.D.D.D.D.D.D.D.D.D.D.D.D.D.D.D.D.D.D.D.D.D.D.D.D.D.D.D.D.D.D.D.D.D.D.D.D.D.D.D.D.D.D.D.D.D.D.D.D.D.D.D.D.$.Y T M x.W.W.W.W.W.#.L Y Y Y Y Y Y n S 6.6.k.C.p.q.Y Y L Y Y ! M V Y A.D.D.D.D.D.",
"D.D.D.D.D.D.D.D.D.D.D.D.D.D.D.D.D.D.D.D.D.D.D.D.D.D.D.D.D.D.D.D.D.D.D.D.D.D.D.D.D.D.D.D.D.D.D.D.D.D.D.D.D.D.D.D.D.D.D.D.D.S.D.$.W Y m d.W.W.W.W.E.=.Z Y W W Y Y Y M d J >.>.:.G v L Y Y L Y ~ N M V l.D.D.D.D.D.",
"D.D.D.D.D.D.D.D.D.D.D.D.D.D.D.D.D.D.D.D.D.D.D.D.D.D.D.D.D.D.D.D.D.D.D.D.D.D.D.D.D.D.D.D.D.D.D.D.D.D.D.D.D.D.D.D.D.D.D.D.D.D.D.y.Z T m %.W.W.W.W.W.=.V Y W T W Y Y V g f t y 4 c W Y Y Y Y Y ~ L M V l.D.D.D.D.D.",
"D.D.D.D.D.D.D.D.D.D.D.D.D.D.D.D.D.D.D.D.D.D.D.D.D.D.D.D.D.D.D.D.D.D.D.D.D.D.D.D.D.D.D.F.D.D.D.D.D.D.D.D.D.D.S.z.u.$.$.$.$.f.l.g.Y T m +.W.W.W.W.W.=.N Y Y W W Y Y Y V n n M N W Y Y Y Y Y P ! L M V l.D.D.D.D.D.",
"D.D.D.D.D.D.D.D.D.D.D.D.D.D.D.D.D.D.D.D.D.D.D.D.D.D.D.D.D.D.D.D.D.D.D.D.D.D.D.D.D.D.D.D.D.D.D.D.D.D.D.D.z.&.E Y L Y L Y Y Y Y Y Y W n +.W.W.W.W.W.-.Z C Y W Y Y Y Y Y Y Y Y Y Y Y Y Y Y Y Y ! L V V u.D.D.D.D.D.",
"D.D.D.D.D.D.D.D.D.D.D.D.D.D.D.D.D.D.D.D.D.D.D.D.D.D.D.D.D.D.D.D.D.D.D.D.D.D.D.D.F.F.D.F.D.D.D.D.D.D.S.$.Y Y Y Y T Y Y Y Y Y Y Y Y Y M O.W.W.W.W.W.;.M W Y Y Y Y Y W W Y V V M n M N Y Y Y W ~ L V V %.D.D.D.D.D.",
"D.D.D.D.D.D.D.D.D.D.D.D.D.D.D.D.D.D.D.D.D.D.D.D.D.D.D.D.D.D.D.D.D.D.D.D.D.D.D.D.F.S.z.z.S.D.D.D.D.b.E Y Y Y L N M M M M L Y Y Y Y Y n ] W.W.W.W.W.;.M W Y Y W Y Y Y Y M V T @.h.B.-.L Y Y Y ~ P V M %.D.D.D.D.D.",
"D.D.D.D.D.D.D.D.D.D.D.D.D.D.D.D.D.D.D.D.D.D.D.D.D.D.D.D.D.D.D.D.D.D.F.D.D.S.g.{ ..E L L E &.l.D.g.Y Y Y M M T $.;.c.v.&.Y M Y Y Y Y M ( W.W.W.W.W.h.L W Y Y W Y Y Y M h.I.E.W.W.W.V.L W Y Y ~ Y V V %.D.D.D.D.D.",
"D.D.D.D.D.D.D.D.D.D.D.D.D.D.D.D.D.D.D.D.D.D.D.D.D.D.D.D.D.D.D.D.S.z.y.$.E Y L P Y Y Y Y Y L P X.T Y Y M @.B.E.W.W.W.W.W.R.$.M Y W Y M ( W.W.W.W.W.h.M Y Y W W Y Y Y m M.W.W.W.W.W.B.L V Y Y Q Y n V  .D.D.D.D.D.",
"D.D.D.D.D.D.D.D.D.D.D.D.D.D.D.D.D.D.D.D.D.D.D.D.D.D.D.D.S.l.f.$.E Y Y Y Y Y R T W M M Y Y Y Y Y Y Y Y M.W.W.W.W.W.W.W.E.W.E.o.V Z Z M  .W.W.W.W.W.j.V V Y Y Y Y L W n d.W.W.W.E.W.P.W W W W Q R V M | D.D.D.D.D.",
"D.D.D.D.D.D.D.D.D.D.D.D.D.D.D.D.D.D.D.D.D.D.D.D.S.b.$.@.E Y Y Y Y Y Y Y Y Y L M T ....V M W W Y Y M M.W.W.W.Y.Z.Z.W.W.W.W.W.h.M Z C M ( W.W.E.W.W.j.M C Y Y L Y Y Y s d.W.W.W.W.W.I.T W W V R R M M | D.D.D.D.D.",
"D.D.D.D.D.D.D.D.D.D.D.D.D.D.D.D.D.D.D.D.D.D.S.&.E Y P L Y Y Y Y Y L I m M M E N.E.W.W.P.$.M W W M =.W.T.W.U.e . % A.W.W.W.W.x.V V Z N S W.W.W.W.W.v.V V L Y Y Y Y Y g [ W.Y.W.E.W.I.E M W N R Q M M ..D.D.D.D.D.",
"D.D.D.D.D.D.D.D.D.D.D.D.D.D.F.F.D.D.D.S.D.u.E Y Y Y T T Y Y Y Y Y E =.v.B.b.E.W.W.W.W.W.W.o.M Y M B.W.W.W.A.* : ; t.W.W.W.W.b.W Z Z N S T.W.E.W.W.x.W V Y L Y Y L Y n ] W.E.W.W.W.I.E N Y V R R V V V A.D.D.D.D.",
"D.D.D.D.D.D.D.D.D.D.D.D.z.g.*.f.x.S.F.F.g.Y Y L M L M M N W Y Y T I.W.W.W.W.W.W.W.W.W.W.W.h.M V T R.Y.Z.C.:.z m v n.W.E.W.W.x.V V C Z S Y.W.W.E.W.M.Y Y Y Y W Y Z V g ] W.W.W.W.W.E.E N Y L R Q M M V z.D.D.D.D.",
"D.D.D.D.D.D.D.D.D.D.l...Y Y Y Y L E @.{ Y L T #.v.M.M.h.T N Y W Y E.W.E.W.W.T.Y.W.W.W.W.W.x.Y V C F 8 & O > $.B.E.W.W.W.W.W.b.Y V C M S E.W.W.W.W.M.Y W Y Y Y W V Z n ( W.W.W.W.W.E.o.N W L Y ~ M M Z A.D.D.D.D.",
"D.D.D.D.D.D.D.D.F.*.Y Y Y Y T Y Y Y Y Y Y *.E.W.W.W.W.W.E.@.V V T R.W.W.W.S.D 8 A.W.E.W.W.g.Y Y M d p d [ I.W.W.W.W.W.W.W.W.b.V V Z V C Y.W.W.W.W.B.Y V V L Y W V Z n S W.W.W.Y.W.W.@.M V Y Y ! V V V g.D.D.D.D.",
"D.D.D.D.D.D.D.F.f.L L L Y L N Y Y Y Y L v.W.W.W.W.W.W.W.W.B.Y V T E.W.W.W.<.% @ ' W.W.W.W.f.Y V V M E P.W.W.W.W.G.S.W.W.W.W.b.W V Z V x E.W.Y.W.W.B.Y Y Y Y Y L V Y n S T.W.W.W.W.W.#.M W V Y ! V M V d.D.D.D.D.",
"D.D.D.D.D.D.D.g.L Y &.B.I.K.h.T L Y M #.W.W.Y.3.w S.W.W.W.H.T M T E.W.W.T.q.V m [ W.W.W.W.f.L Y M | E.W.W.W.Y.8.o 4.W.W.W.W.b.C V Y V C Y.W.Y.W.W.B.Y M Y W W W V Y n S E.W.W.W.W.W.=.n W V W ~ V M V d.D.D.D.D.",
"D.D.D.D.D.D.z.L T K.W.W.W.W.W.I.o.L L K.W.W.S.7 + 0.W.W.W.n.T M | E.W.W.W.r.V n %.W.E.W.W.f.M V V I.W.W.W.Z.o % @ u.W.W.W.W.M.Y V Y V x R.W.W.E.W.B.T V V V Y W W Y M x Y.W.W.W.W.W.-.M V W Y ~ V V V d.D.D.D.D.",
"D.D.D.D.F.F.@.Y I.W.W.W.W.W.W.W.m.Y E U.G.S.3.j b x.W.W.W.n.T M | W.W.W.W.y.W n d.W.W.W.W.d.W m -.W.E.W.U.r = g n H.W.W.W.W.n.Y W V V B R.W.T.W.W.P.T V V Y W V V Z V x R.W.W.W.W.W.h.M W V L ~ V V V X.D.D.D.D.",
"D.D.D.D.F.z.L x.W.W.Y.5.k.W.W.6.q Y T F 9 % * } K.W.W.W.W.b.Y M | W.E.W.E.y.W n d.W.E.W.W.d.W M M.W.E.W.U.^ M b | W.W.W.W.W.n.Y V V Z c R.W.W.W.W.K.T V Y V V Z V V B z L.W.E.W.W.W.j.M V W L Q W V V | D.D.D.D.",
"D.D.D.D.D.X.E W.W.W.,.% = s.3.& g V L s g r.R.W.W.W.W.W.W.l.Y M | W.W.W.E.r.W m h.W.E.W.W.r.L M K.W.W.W.W.%.m | I.W.W.W.W.W.m.T V V V c L.W.W.W.W.z.T N V Z Z V V V V z J.W.Y.W.W.W.v.M Z W V Q W V V ..D.D.D.D.",
"D.D.D.D.S.L c.W.W.L.F h M j 2 h L Y M T P.W.W.W.S.D.W.W.W.g.T M X.W.W.W.E.d.W n f.W.W.W.E.} L n m.W.W.W.W.R.K.W.W.W.W.W.W.W.B.T V W W z L.W.Y.G.G.5.c W Z Z V V V W V z P.W.W.Y.W.W.N.M V W V Q W M V  .D.D.D.D.",
"D.D.D.D.l.L P.W.W.S.) N V M N W Y W Y P.W.W.Y.5.X z.W.W.W.g.Y M X.W.W.W.Y.%.V m f.W.W.W.E.d.Y n g.W.E.W.W.W.W.W.W.S.W.W.W.W.R...V V Z B 1.,.r 0 * 2 M V Z M n M V V V d H.W.W.W.W.W.N.V V W V Q Y M V C D.D.D.D.",
"D.D.D.F.$.E E.W.W.S.| V V Y Y Y W m h.W.W.U.D % : P.W.E.W.u.W m O.W.W.W.Y.%.V m j.W.W.W.T.%.M M S T.W.W.W.W.W.W.C.w S.Z.C.i.6./ N W W n a : a a g M M V T ..-.| V V Z d H.W.W.W.W.W.M.V V W V R Y M M V D.D.D.D.",
"D.D.D.D.| ..W.W.W.H.E Y Y M M W V V K.W.W.S.i b E W.W.W.W.u.Y M =.W.E.W.Y.{ W m j.W.E.W.T.%.M V d _ J.W.W.T.D.5.0 > t t > > a B L Y Y L M V V W M X.K.I.E.W.W.K.V V n S E.W.W.W.W.W.f.M Y L L R L M M M D.D.D.D.",
"D.D.D.D.E @.W.W.W.K.E Y V X...m M T R.W.W.U. .m m.W.E.W.W.f.Y M =.W.E.W.E.%.Y n b.W.T.W.U.[ L Y B d 4 i K G 0 > g n g g n V W V Y Y Y Y Y W V Y M  .W.W.W.E.W.W.-.n | P.W.E.E.E.W.Y.{ M V Y L Q L M M M D.D.D.D.",
"D.D.D.D.M X.W.W.W.I...M T E.E.v.T T W.W.W.W.K.K.W.W.W.W.E.f.W m ;.W.W.W.Y.{ N M r.8.2.H F l M Y W B z d a a g M Z V W W W V V W Y Y Y Y Y W L Y V z L.W.W.W.W.W.W.I.W.W.W.W.W.W.W.z.T M Y Y L R M M M M D.D.D.D.",
"D.D.D.D.M ..W.W.W.W.*.L M.W.W.U.[ V R.W.W.W.W.W.E.U.W.W.W.M.Y M { D.p.4.,.^ N V z < : a f M V Y W Z Z V V W W Y V W Y V Y Y Y Y Y Y Y Y Y W W W V s u.W.Y.W.W.Y.W.W.W.T.W.W.W.W.U.[ M V Y V Y Y n n n C D.D.D.D.",
"D.D.D.D.Y Y R.W.W.W.E.R.W.W.U.H C m g.W.W.W.W.W.5.7.G.C.p.9.Y W c 2 > : a M Y Y M M Z Z Y L Y Y W Y Y Y Y V Y Y Y Y L L W Y Y Y L L L M h n Y V Z g k U.W.W.W.W.W.W.W.W.W.E.W.T.w.v L Y Y W Y L n n n  .F.D.D.D.",
"D.D.D.D.X.M g.W.E.W.W.W.W.Y.<.l Z V z a.U.U.Z.<.9 < 2 > - z V Y V M V V N Y V Y Z V V W Y Y Y Y Y Y Y Y W W Y Y Y L L L M h h h f f f 1 3 f W Y V V d ^ T.W.W.W.W.Y.W.Y.W.W.Y.4.v M V Y W L Y M n c c y.D.D.D.D.",
"D.D.D.D.O.L c H.W.W.W.W.D.:.4 M V V n a 4 t 2 3 n B n V V Z W W W W V V L Y Y Y Y Y W W Y Y Y Y W Y L L M M h c g f f 1 1 : : : : - - : - : V Y V V B a _ D.W.W.W.W.W.W.T.Z.,.l M V V Y L P L h c h c S.D.D.D.D.",
"D.D.D.D.g.L M j 0.k.p.4.r 3 M V V V Z V n n M Z V V W Y V V V W W V Z V Y Y Y Y W W Y V Y V M h z z j f 1 1 1 1 1 1 : 1 1 1 4 5 u ' ' e.i.i.y.M W W V g s 4 9.Z.G.G.D.C.,.y g M V V Y L L Y h g c g ) D.D.D.D.D.",
"D.D.D.D.S.T W M s a : a h Z V V Y V Y L Y W W V Y L Y W Y Y Y W W W L L M M c h h h j f j f 1 3 3 1 1 1 1 4 4 ^ ^ ` q.w.z.z.S.D.D.D.D.D.D.D.D.| Y Y Y V z d p > 2 t t , j n Z V Y Y L L Y M g f f j z.D.D.D.D.D.",
"D.D.D.D.D.g.V Y Z V V Z V V Y W h : c W W Y Y W W W W L Y L M c c z z j j j 3 1 1 1 3 3 1 5 5 A ' ` t.a.a.S.S.D.D.D.D.D.D.D.D.D.D.D.D.D.D.S.D.z.Y W Y Y V V n g d d g B N V V V W L Y Y M f f f f [ D.D.D.D.D.D.",
"D.D.D.D.D.D.X.L Y Y C V Y W W h - - - f h V M h h h j j f f 1 3 3 3 3 3 3 j ^ ^ ` q.q.z.z.S.D.D.D.D.D.D.F.D.D.D.D.D.D.D.D.D.D.D.D.D.D.D.D.D.D.D.u.V Y Y W W Y V Z Z Z Z V V V Y Y Y Y h f f f f A D.D.D.D.D.D.D.",
"D.D.D.D.D.D.S.%.V W V W V n f : - - - - - q.e.' ^ 5 3 3 3 5 l ` ` t.e.a.S.S.D.F.D.D.D.D.F.F.D.D.D.D.D.D.D.D.D.D.D.D.D.D.D.D.D.D.D.D.D.D.D.D.D.D.D.u.M W W W L Y Z C V V W V W Y Y L h 1 : 1 : l S.D.D.D.D.D.D.D.",
"D.D.D.D.D.D.D.D.z.y.] / l 3 3 < 1 1 1 ^ k.D.D.D.D.D.z.l.z.D.D.D.D.D.D.D.F.D.D.D.D.S.D.D.D.D.D.D.D.D.D.D.D.D.D.D.D.D.D.D.D.D.D.D.D.D.D.D.D.D.D.D.D.D.l.T M Y Y Y Y W W W Y Y W V M f : 1 : : u S.D.D.D.D.D.D.D.D.",
"D.D.D.D.D.D.D.D.D.D.D.D.Z.A.u.q.' t.A.D.D.D.D.D.D.D.D.D.D.D.D.S.D.D.D.D.D.D.D.D.D.D.D.D.D.D.D.D.D.D.D.D.D.D.D.D.D.D.D.D.D.D.D.D.D.D.D.D.D.D.D.D.D.D.D.S.} T h Y W L Y Y W V h f 1 - : : : ' S.D.D.D.D.D.D.D.D.D.",
"D.D.D.D.D.D.D.D.D.D.D.D.D.D.D.D.D.D.D.D.S.D.D.D.D.D.D.D.D.D.D.D.D.D.D.D.D.D.D.D.D.D.D.D.D.D.D.D.D.D.D.D.D.D.D.D.D.D.D.D.D.D.D.D.D.D.D.D.D.D.D.D.D.D.D.D.D.S.l.] v g f f f : : : : : : ^ k.D.D.D.D.D.D.D.D.D.D.D.",
"D.D.D.D.D.D.D.D.D.D.D.D.D.D.D.D.S.D.D.D.D.D.D.D.D.D.D.D.D.D.D.D.D.D.D.D.D.D.D.D.D.D.D.D.D.D.D.D.D.D.D.D.D.D.D.D.D.D.D.D.D.D.D.D.D.D.D.D.D.D.D.D.D.D.D.D.D.D.D.D.S.k.q.u 3 : : 3 u ' z.D.D.D.D.D.D.D.D.D.D.D.D.D.",
"D.D.D.D.D.D.D.D.D.D.D.D.D.D.D.D.D.D.D.D.D.D.D.D.D.D.D.D.D.D.D.D.D.D.D.D.D.D.D.D.D.D.D.D.D.D.D.D.D.D.D.D.D.D.D.D.D.D.D.D.D.D.D.D.D.D.D.D.D.D.D.D.D.D.D.D.D.D.D.D.D.D.D.D.D.D.D.D.D.D.D.D.D.D.D.D.D.D.D.D.D.D.D.D.",
"D.D.D.D.D.D.D.D.D.D.D.D.D.D.D.D.D.D.D.D.D.D.D.D.D.D.D.D.D.D.D.D.D.D.D.D.D.D.D.D.D.D.D.D.D.D.D.D.D.D.D.D.D.D.D.D.D.D.D.D.D.D.D.D.D.D.D.D.D.D.D.D.D.D.D.D.D.D.D.D.D.D.D.D.D.D.D.D.D.D.D.D.D.D.D.D.D.D.D.D.D.D.D.D.",
"D.D.D.D.D.D.D.D.D.D.D.D.D.D.D.D.D.D.D.D.D.D.D.D.D.D.D.D.D.D.D.D.D.D.D.D.D.D.D.D.D.D.D.D.D.D.D.D.D.D.D.D.D.D.D.D.D.D.D.D.D.D.D.D.D.D.D.D.D.D.D.D.D.D.D.D.D.D.D.D.D.D.D.D.D.D.D.D.D.D.D.D.D.D.D.D.D.D.D.D.D.D.D.D.",
"D.D.D.D.D.D.D.D.D.D.D.D.D.D.D.D.D.D.D.D.D.D.D.D.D.D.D.D.D.D.D.D.D.D.D.D.D.D.D.D.D.D.D.D.D.D.D.D.D.D.D.D.D.D.D.D.D.D.D.D.D.D.D.D.D.D.D.D.D.D.D.D.D.D.D.D.D.D.D.D.D.D.D.D.D.D.D.D.D.D.D.D.D.D.D.D.D.D.D.D.D.D.D.D.",
"D.D.D.D.D.D.D.D.D.D.D.D.D.D.D.D.D.D.D.D.D.D.D.D.D.D.D.D.D.D.D.D.D.D.D.D.D.D.D.D.D.D.D.D.D.D.D.D.D.D.D.D.D.D.D.D.D.D.D.D.D.D.D.D.D.D.D.D.D.D.D.D.D.D.D.D.D.D.D.D.D.D.D.D.D.D.D.D.D.D.D.D.D.D.D.D.D.D.D.D.D.D.D.D.",
"D.D.D.D.D.D.D.D.D.D.D.D.D.D.D.D.D.D.D.D.D.D.D.D.D.D.D.D.D.D.D.D.D.D.D.D.D.D.D.D.D.D.D.D.D.D.D.D.D.D.D.D.D.D.D.D.D.D.D.D.D.D.D.D.D.D.D.D.D.D.D.D.D.D.D.D.D.D.D.D.D.D.D.D.D.D.D.D.D.D.D.D.D.D.D.D.D.D.D.D.D.D.D.D.",
"D.D.D.D.D.D.D.D.D.D.D.D.D.D.D.D.D.D.D.D.D.D.D.D.D.D.D.D.D.D.D.D.D.D.D.D.D.D.D.D.D.D.D.D.D.D.D.D.D.D.D.D.D.D.D.D.D.D.D.D.D.D.D.D.D.D.D.D.D.D.D.D.D.D.D.D.D.D.D.D.D.D.D.D.D.D.D.D.D.D.D.D.D.D.D.D.D.D.D.D.D.D.D.D.",
"D.D.D.D.D.D.D.D.D.D.D.D.D.D.D.D.D.D.D.D.D.D.D.D.D.D.D.D.D.D.D.D.D.D.D.D.D.D.D.D.D.D.D.D.D.D.D.D.D.D.D.D.D.D.D.D.D.D.D.D.D.D.D.D.D.D.D.D.D.D.D.D.D.D.D.D.D.D.D.D.D.D.D.D.D.D.D.D.D.D.D.D.D.D.D.D.D.D.D.D.D.D.D.D.",
"D.D.D.D.D.D.D.D.D.D.D.D.D.D.D.D.D.D.D.D.D.D.D.D.D.D.D.D.D.D.D.D.D.D.D.D.D.D.D.D.D.D.D.D.D.D.D.D.D.D.D.D.D.D.D.D.D.D.D.D.D.D.D.D.D.D.D.D.D.D.D.D.D.D.D.D.D.D.D.D.D.D.D.D.D.D.D.D.D.D.D.D.D.D.D.D.D.D.D.D.D.D.D.D.",
"D.D.D.D.D.D.D.D.D.D.D.D.D.D.D.D.D.D.D.D.D.D.D.D.D.D.D.D.D.D.D.D.D.D.D.D.D.D.D.D.D.D.D.D.D.D.D.D.D.D.D.D.D.D.D.D.D.D.D.D.D.D.D.D.D.D.D.D.D.D.D.D.D.D.D.D.D.D.D.D.D.D.D.D.D.D.D.D.D.D.D.D.D.D.D.D.D.D.D.D.D.D.D.D.",
"D.D.D.D.D.D.D.D.D.D.D.D.D.D.D.D.D.D.D.D.D.D.D.D.D.D.D.D.D.D.D.D.D.D.D.D.D.D.D.D.D.D.D.D.D.D.D.D.D.D.D.D.D.D.D.D.D.D.D.D.D.D.D.D.D.D.D.D.D.D.D.D.D.D.D.D.D.D.D.D.D.D.D.D.D.D.D.D.D.D.D.D.D.D.D.D.D.D.D.D.D.D.D.D.",
"D.D.D.D.D.D.D.D.D.D.D.D.D.D.D.D.D.D.D.D.D.D.D.D.D.D.D.D.D.D.D.D.D.D.D.D.D.D.D.D.D.D.D.D.D.D.D.D.D.D.D.D.D.D.D.D.D.D.D.D.D.D.D.D.D.D.D.D.D.D.D.D.D.D.D.D.D.D.D.D.D.D.D.D.D.D.D.D.D.D.D.D.D.D.D.D.D.D.D.D.D.D.D.D.",
"D.D.D.D.D.D.D.D.D.D.D.D.D.D.D.D.D.D.D.D.D.D.D.D.D.D.D.D.D.D.D.D.D.D.D.D.D.D.D.D.D.D.D.D.D.D.D.D.D.D.D.D.D.D.D.D.D.D.D.D.D.D.D.D.D.D.D.D.D.D.D.D.D.D.D.D.D.D.D.D.D.D.D.D.D.D.D.D.D.D.D.D.D.D.D.D.D.D.D.D.D.D.D.D.",
"D.D.D.D.D.D.D.D.D.D.D.D.D.D.D.D.D.D.D.D.D.D.D.D.D.D.D.D.D.D.D.D.D.D.D.D.D.D.D.D.D.D.D.D.D.D.D.D.D.D.D.D.D.D.D.D.D.D.D.D.D.D.D.D.D.D.D.D.D.D.D.D.D.D.D.D.D.D.D.D.D.D.D.D.D.D.D.D.D.D.D.D.D.D.D.D.D.D.D.D.D.D.D.D."
};
