/* XPM */
static char *CBBC_Channel[] = {
/* columns rows colors chars-per-pixel */
"104 78 49 1",
"  c #010101",
". c #0D1100",
"X c #131A00",
"o c #151515",
"O c #1D2701",
"+ c #222E01",
"@ c #2A3701",
"# c #222222",
"$ c #343434",
"% c #344501",
"& c #3F5401",
"* c #435901",
"= c #4C6602",
"- c #526D02",
"; c #5B7902",
": c gray27",
"> c #535353",
", c #676767",
"< c #797979",
"1 c #688B02",
"2 c #6D9202",
"3 c #739A02",
"4 c #7BA402",
"5 c #81AB03",
"6 c #8BB803",
"7 c #99CC03",
"8 c #9ECD13",
"9 c #A1CE1C",
"0 c #A5CF2B",
"q c #A9CF35",
"w c #A9D038",
"e c #ACD141",
"r c #B3D259",
"t c #B9D369",
"y c #BDD577",
"u c #888888",
"i c #979797",
"p c #A7A7A7",
"a c #B9B9B9",
"s c #C2D688",
"d c #C6D795",
"f c #CCD8A8",
"g c #CFD9B2",
"h c #D2D9BB",
"j c #C3C3C3",
"k c #D7DBCC",
"l c gainsboro",
"z c #E9E9E9",
"x c gray100",
/* pixels */
"llllllllllllllllllllllllllllllllllllllllllllllllllllllllllllllllllllllllllllllllllllllllllllllllllllllll",
"llllllllllllllllllllllllllllllllllllllllllllllllllllllllllllllllllllllllllllllllllllllllllllllllllllllll",
"llllllllllllllllllllllllllllllllllllllllllllllllllllllllllllllllllllllllllllllllllllllllllllllllllllllll",
"llllllllllllllllllllllllllllllllllllllllllllllllllllllllllllllllllllllllllllllllllllllllllllllllllllllll",
"llllllllllllllllllllllllllllllllllllllllllllllllllllllllllllllllllllllllllllllllllllllllllllllllllllllll",
"llllllllllllllllllllllllllllllllllllllllllllllllllllllllllllllllllllllllllllllllllllllllllllllllllllllll",
"llllllllllllllllllllllllllllllllllllllllllllllllllllllllllllllllllllllllllllllllllllllllllllllllllllllll",
"llllllllllllllllllllllllllllllllllllllllllllllllllllllllllllllllllllllllllllllllllllllllllllllllllllllll",
"llllllllllllllllllllllllllllllllllllllllllllllllllllllllllllllllllllllllllllllllllllllllllllllllllllllll",
"llllllllllllllllllllllllllllllllllllllllllllllllllllllllllllllllllllllllllllllllllllllllllllllllllllllll",
"lllllllllllllllllllllll077777777777777777777777hllllllllllllllllllllllllllllllllllllllllllllllllllllllll",
"lllllllllllllllllllllllq77777777777777777777777hlllkttttttttttttttttklllllllllllllllllllllllllllllllllll",
"lllllllllllllllllllllll077777777777777777777777hllk07777777777777777hlllllllllllllllllllllllllllllllllll",
"lllllllllllllllllllllll077777777777777777777777hlk077777777777777777hlllllllllllllllllllllllllllllllllll",
"lllllllllllllllllllllll077776655565656565677777kkq777777777777777777glllllllllllllllllllllllllllllllllll",
"lllllllllllllllllllllll07777X             47777g07777777777777777777hlllllllllllgstrrrtydhllllllllllllll",
"lllllllllllllllllllllll07777X o#########  577779777776%%%%%%%%%57777hlllllllldr877777777779thlllllllllll",
"lllllllllllllllllllllll07777X kxxxxxxxxx# 57777777776O         47777hlllllld07777777777777777rklllllllll",
"llllllllllllkkkkkkkkkkk07777X kxxxxxxxxx# 5777777776X          47777hllllkw77777777777777777778fllllllll",
"llllllllgr877777777777777777O :>zxxxxxxx# 577777775X           47777hllld87777777777777777777777slllllll",
"llllllkr77777777777777777777X   zxxxxxxx# 47777777%            47777hlls777777776;*%OO%=277777777gllllll",
"llllllw77777777777777777777721  zxxxxxxx# 57777777% izzzzzi    47777hls77777771@         .%4777778llllll",
"lllllr777777777777777777777777. zxxxxxxx# 44226777@ pxxxxxp    47777rt7777773O  .>upaaau:.  ;77777slllll",
"llllg7777777444444444443444444  zxxxxxxx#       &5% pxxxxxp    4777777777771  opxxxxxxxxxz<  177770lllll",
"llllr77777%                     zxxxxxxx#  $$$o   X pxxxxxp    47777777777;  ,xxxxxxxxxxxxxi X77777lllll",
"llll07777%  ##################  zxxxxxxx:pxxxxxk>   pxxxxxp    47777777771  uxxxxxxxxxxxxxxxo 47777gllll",
"llll87777. lxxxxxxxxxxxxxxxxxx. zxxxxxxxzxxxxxxxx<  pxxxxxp    4777777776. <xxxxxxxxxxxxxxxx: 27777fllll",
"llll77776  xxxxxxxxxxxxxxxxxxxo zxxxxxxxxxxxxxxxxz  pxxxxxp    @%%%%%%%%+ $xxxxxxxxxxxxxxxxxo 57777gllll",
"llll77777  xxxxxxxxxxxxxxxxxxxo zxxxxxxxxxxxxxxxxx$ pxxxxxp               axxxxxxxziuuikxxx< O77777lllll",
"llll77777  xxxxxxxxxxxxxxxxxxx. zxxxxxxxj<axxxxxxx> pxxxxxp              $xxxxxxxu.     o$o  27777wlllll",
"llll77776  xxxxxxxpppppxxxxxxx. zxxxxxxx# .xxxxxxx> pxxxxxp              uxxxxxxp           177777slllll",
"llll77777  xxxxxxz     zxxxxxxo zxxxxxxx#  xxxxxxx> pxxxxxpooo.ooooo.o.  jxxxxxx#         .2777770llllll",
"llll77777  xxxxxxz     zxxxxxx. zxxxxxxx#  xxxxxxx> pxxxxxxxxxxxxxxxxxk  zxxxxxk         .3777778kllllll",
"llll77777  xxxxxxx     zxxxxxxo zxxxxxxx# .xxxxxxx> pxxxxxxxxxxxxxxxxxk oxxxxxxp        .4777777dlllllll",
"llll77776  xxxxxxx              zxxxxxxx#  xxxxxxx> pxxxxxxxxxxxxxxxxxk oxxxxxxi       .4777777yllllllll",
"llll77777  xxxxxxz              zxxxxxxx#  xxxxxxx> pxxxxxxxxxxxxxxxxxk oxxxxxxi      X577777777ylllllll",
"llll77776  xxxxxxz              zxxxxxxx#  xxxxxxx> pxxxxxxxxxxxxxxxxxl  xxxxxxj     X67777777777sllllll",
"llll77777  xxxxxxx              zxxxxxxx# .xxxxxxx> pxxxxxluuuuujxxxxxk  kxxxxxxo   O6777777777777glllll",
"llll77777  xxxxxxz              zxxxxxxx$ oxxxxxxx> pxxxxxp     <xxxxxk  ixxxxxx<  O677;+. O1777770lllll",
"llll77776  xxxxxxx     ooo.ooo  zxxxxxxxzilxxxxxxx> pxxxxxp     <xxxxxl  :xxxxxxz$  ++       *77777fllll",
"llll77776  xxxxxxx     zxxxxxxo zxxxxxxxxxxxxxxxxx> pxxxxxp     <xxxxxk   lxxxxxxz,    $izzp. 17777rllll",
"llll77777  xxxxxxz     zxxxxxx. zxxxxxxxxxxxxxxxxx: pxxxxxa$$$$$ixxxxxk   >xxxxxxxxxjazxxxxxi +77770llll",
"llll77777  xxxxxxx     zxxxxxx  zxxxxxxxxxxxxxxxxx$ pxxxxxxxxxxxxxxxxxk    jxxxxxxxxxxxxxxxxz .77778llll",
"llll77777  xxxxxxxaaaaaxxxxxxxo zxxxxxxxxxxxxxxxxa  pxxxxxxxxxxxxxxxxxk    okxxxxxxxxxxxxxxxl .77778llll",
"llll77776  xxxxxxxxxxxxxxxxxxx. zxxxxxxx:pzxxxxj<   pxxxxxxxxxxxxxxxxxk     #kxxxxxxxxxxxxxxu @77770llll",
"llll77777  xxxxxxxxxxxxxxxxxxxo o#######   o#o      pxxxxxxxxxxxxxxxxxk      .uxxxxxxxxxxxxi  37777rllll",
"llll77777  xxxxxxxxxxxxxxxxxxxo                .@;@ pxxxxxxxxxxxxxxxxxk   .1@  oulxxxxxxzi$  -77777fllll",
"llll87777. lxxxxxxxxxxxxxxxxxx. 667667666766677777@ $,,,,,,,,,,,,,,,,,>  .377;X   o$::$o   X2777770lllll",
"llll07777% .##################  677777777777777777%                     .3777771@.      .%17777777glllll",
"llllr77776%                     6777777777777777772;;;;;;;;;;;;;;;;;;;;;4777777777643246777777777dllllll",
"llllg7777777656565565565655656657777777777777777777777777777777777777777777777777777777777777777slllllll",
"lllllr77777777777777777777777777777777777777777777777777777777777777777777777777777777777777770gllllllll",
"lllllkq77777777777777777777777777777777777777777777777777777777777777777777777777777777777770dllllllllll",
"lllllllr777777777777777777777777%+O+OO+O+O+@73+OO+OO+OOOO17&O++OOOO+O++77778lgsr077777779eyhllllllllllll",
"llllllllgr8777777777777777777777O  +@%O    X71  .%%+.    ;7+    +%@    77778llllllkkhkklllllllllllllllll",
"lllllllllllllllllllllllllll07777X  37773   .71  +7777%   -7+  %67777*  77778llllllllllllllllllllllllllll",
"lllllllllllllllllllllllllll07777O  31 @7%  X71  +7+ 25   ;7+ @7;.  @% .77778llllllllllllllllllllllllllll",
"lllllllllllllllllllllllllll07777X  31.&7O  .71  +7+X32   -7+ 43        77778llllllllllllllllllllllllllll",
"lllllllllllllllllllllllllll07777O  37773.  .71  +7777*   -7+ 7=        77778llllllllllllllllllllllllllll",
"lllllllllllllllllllllllllll07777X  32+@34  X72  +7%+*7%  ;7+ 61       .77778llllllllllllllllllllllllllll",
"lllllllllllllllllllllllllll07777O  31  *7. .71  +7+  6;  ;7+ -7@    + .77778llllllllllllllllllllllllllll",
"lllllllllllllllllllllllllll07777X  361272  .71  +72157+  ;7+  173;27;  77778llllllllllllllllllllllllllll",
"lllllllllllllllllllllllllll07777O  *;;;%   .71  X;;;=O   ;7+   @;11*.  77778llllllllllllllllllllllllllll",
"lllllllllllllllllllllllllll07777X          X72           -7+          .77778llllllllllllllllllllllllllll",
"lllllllllllllllllllllllllll0777766766766766777666766676677766766766676777778llllllllllllllllllllllllllll",
"lllllllllllllllllllllllllll0777777777777777777777777777777777777777777777778llllllllllllllllllllllllllll",
"lllllllllllllllllllllllllll0777777777777777777777777777777777777777777777778llllllllllllllllllllllllllll",
"lllllllllllllllllllllllllll0777777777777777777777777777777777777777777777778llllllllllllllllllllllllllll",
"lllllllllllllllllllllllllll0777777777777777777777777777777777777777777777778llllllllllllllllllllllllllll",
"llllllllllllllllllllllllllllllllllllllllllllllllllllllllllllllllllllllllllllllllllllllllllllllllllllllll",
"llllllllllllllllllllllllllllllllllllllllllllllllllllllllllllllllllllllllllllllllllllllllllllllllllllllll",
"llllllllllllllllllllllllllllllllllllllllllllllllllllllllllllllllllllllllllllllllllllllllllllllllllllllll",
"llllllllllllllllllllllllllllllllllllllllllllllllllllllllllllllllllllllllllllllllllllllllllllllllllllllll",
"llllllllllllllllllllllllllllllllllllllllllllllllllllllllllllllllllllllllllllllllllllllllllllllllllllllll",
"llllllllllllllllllllllllllllllllllllllllllllllllllllllllllllllllllllllllllllllllllllllllllllllllllllllll",
"llllllllllllllllllllllllllllllllllllllllllllllllllllllllllllllllllllllllllllllllllllllllllllllllllllllll",
"llllllllllllllllllllllllllllllllllllllllllllllllllllllllllllllllllllllllllllllllllllllllllllllllllllllll",
"llllllllllllllllllllllllllllllllllllllllllllllllllllllllllllllllllllllllllllllllllllllllllllllllllllllll"
};
