/* XPM */
static char *CNBC_Europe[] = {
/* columns rows colors chars-per-pixel */
"104 78 128 2",
"   c black",
".  c #181818",
"X  c gray17",
"o  c #393939",
"O  c #484848",
"+  c #565656",
"@  c DimGray",
"#  c #7B7B7B",
"$  c #6460AA",
"%  c #6F6BB0",
"&  c #706CB1",
"*  c #7774B5",
"=  c #0DB14B",
"-  c #11B24E",
";  c #19B554",
":  c #24B85C",
">  c #2BBB62",
",  c #34BE68",
"<  c #47C476",
"1  c #0089D0",
"2  c #1392D4",
"3  c #2A9CD8",
"4  c #39A3DB",
"5  c #48AADD",
"6  c #52AFDF",
"7  c #58B2E0",
"8  c #68B9E3",
"9  c #73BEE6",
"0  c #59CA83",
"q  c #6ED093",
"w  c #7BD49D",
"e  c #7AC2E7",
"r  c #CE1141",
"t  c #D01B49",
"y  c #D32A55",
"u  c #D5335C",
"i  c #D73C64",
"p  c #F37021",
"a  c #F47D35",
"s  c #D94469",
"d  c #DA4D71",
"f  c #DD597B",
"g  c #DF6282",
"h  c #E06987",
"j  c #E2708D",
"k  c #E47C96",
"l  c #F48039",
"z  c #FDB913",
"x  c #FDBE25",
"c  c #F58A49",
"v  c #F69358",
"b  c #F79D67",
"n  c #F7A06B",
"m  c #F8A879",
"M  c #FDC029",
"N  c #FDC438",
"B  c #FDC845",
"V  c #FECC55",
"C  c #FED46F",
"Z  c #FED674",
"A  c #898989",
"S  c gray60",
"D  c #8784BD",
"F  c #A5A5A5",
"G  c #B7B7B7",
"H  c #8D8AC0",
"J  c #928FC3",
"K  c #9997C7",
"L  c #A19ECC",
"P  c #A5A3CE",
"I  c #ACAAD2",
"U  c #B8B6D8",
"Y  c #8DDBAA",
"T  c #90DBAC",
"R  c #A9E3BF",
"E  c #8FCBEA",
"W  c #98CFEC",
"Q  c #9AD0EC",
"!  c #A8D7EF",
"~  c #B7DEF2",
"^  c #ADE5C2",
"/  c #B5E7C8",
"(  c #BFEBD0",
")  c #BCE0F2",
"_  c #E6859D",
"`  c #E88EA5",
"'  c #EA98AD",
"]  c #EB9EB2",
"[  c #F9B58C",
"{  c #F9BC97",
"}  c #EDAABB",
"|  c #F1BAC8",
" . c #FAC19E",
".. c #FEDB86",
"X. c #FEDE91",
"o. c #FAC7A7",
"O. c #FBCFB4",
"+. c #FBD3BB",
"@. c #FEE098",
"#. c #FEE7AE",
"$. c #CBCBCB",
"%. c #C3C2DF",
"&. c gainsboro",
"*. c #CAC8E2",
"=. c #D0CFE5",
"-. c #D8D7E9",
";. c #CAEED8",
":. c #D0F0DC",
">. c #C8E6F5",
",. c #D6ECF8",
"<. c #DAF3E4",
"1. c #DEF0F9",
"2. c #F4CBD5",
"3. c #FCDAC6",
"4. c #F6D4DC",
"5. c #F8DCE3",
"6. c #FEE9C7",
"7. c #FDE6D9",
"8. c #FFF1CE",
"9. c #FFF3D6",
"0. c #E7E7E7",
"q. c #E7E6F2",
"w. c #EAF8EF",
"e. c #E7F4F9",
"r. c #FBE9E8",
"t. c #FBECF0",
"y. c #FEF4EA",
"u. c #FBFBFB",
/* pixels */
"&.&.&.&.&.&.&.&.&.&.&.&.&.&.&.&.&.&.&.&.&.&.&.&.&.&.&.&.&.&.&.&.&.&.&.&.&.&.&.&.&.&.&.&.&.&.&.&.&.&.&.&.&.&.&.&.&.&.&.&.&.&.&.&.&.&.&.&.&.&.&.&.&.&.&.&.&.&.&.&.&.&.&.&.&.&.&.&.&.&.&.&.&.&.&.&.&.&.&.&.&.&.&.&.",
"&.&.&.&.&.&.&.&.&.&.&.&.&.&.&.&.&.&.&.&.&.&.&.&.&.&.&.&.&.&.&.&.&.&.&.&.&.&.&.&.&.&.&.&.&.&.&.&.&.&.&.&.&.&.&.&.&.&.&.&.&.&.&.&.&.&.&.&.&.&.&.&.&.&.&.&.&.&.&.&.&.&.&.&.&.&.&.&.&.&.&.&.&.&.&.&.&.&.&.&.&.&.&.&.",
"&.&.&.&.&.&.&.&.&.&.&.&.&.&.&.&.&.&.&.&.&.&.&.&.&.&.&.&.&.&.&.&.&.&.&.&.&.&.&.&.&.&.&.&.&.&.&.&.&.&.&.&.&.&.&.&.&.&.&.&.&.&.&.&.&.&.&.&.&.&.&.&.&.&.&.&.&.&.&.&.&.&.&.&.&.&.&.&.&.&.&.&.&.&.&.&.&.&.&.&.&.&.&.&.",
"&.&.&.&.&.&.&.&.&.&.&.&.&.&.&.&.&.&.&.&.&.&.&.&.&.&.&.&.&.&.&.&.&.&.&.&.&.&.&.&.&.&.&.&.&.&.&.&.&.&.&.&.&.&.&.&.&.&.&.&.&.&.&.&.&.&.&.&.&.&.&.&.&.&.&.&.&.&.&.&.&.&.&.&.&.&.&.&.&.&.&.&.&.&.&.&.&.&.&.&.&.&.&.&.",
"&.&.&.&.&.&.&.&.&.&.&.&.&.&.&.&.&.&.&.&.&.&.&.&.&.&.&.&.&.&.&.&.&.&.&.&.&.&.w.u.u.u.u.u.0.0.&.&.&.&.&.&.&.&.&.&.&.&.0.t.u.u.u.u.u.0.&.&.&.&.&.&.&.&.&.&.&.&.&.&.&.&.&.&.&.&.&.&.&.&.&.&.&.&.&.&.&.&.&.&.&.&.&.&.",
"&.&.&.&.&.&.&.&.&.&.&.&.&.&.&.&.&.&.&.&.&.&.&.&.&.&.&.&.&.&.&.&.&.&.&.&.t.u.} h i u u f ' r.u.0.&.&.&.&.&.&.&.&.0.u.q.I D * * D K =.u.w.&.&.&.&.&.&.&.&.&.&.&.&.&.&.&.&.&.&.&.&.&.&.&.&.&.&.&.&.&.&.&.&.&.&.&.&.",
"&.&.&.&.&.&.&.&.&.&.&.&.&.&.&.&.&.&.&.&.&.&.&.&.&.&.&.&.&.&.&.&.&.&.0.u.] y r r r r r r r t ` u.0.&.&.&.&.&.&.u.q.K $ $ $ $ $ $ $ $ D 0.u.&.&.&.&.&.&.&.&.&.&.&.&.&.&.&.&.&.&.&.&.&.&.&.&.&.&.&.&.&.&.&.&.&.&.&.",
"&.&.&.&.&.&.&.&.&.&.&.&.&.&.&.&.&.&.&.&.&.&.&.&.&.&.&.&.&.&.&.&.&.0.t.f r r r r r r r r r r r d t.q.&.&.&.&.u.=.% $ $ $ $ $ $ $ $ $ $ $ U u.&.&.&.&.&.&.&.&.&.&.&.&.&.&.&.&.&.&.&.&.&.&.&.&.&.&.&.&.&.&.&.&.&.&.",
"&.&.&.&.&.&.&.&.&.&.&.&.&.&.&.&.&.&.&.&.&.&.&.&.&.&.&.&.&.&.&.&.&.u.d r r r r r r r r r r r r r s t.0.&.&.u.-.$ $ $ $ $ $ $ $ $ $ $ $ $ $ %.u.&.&.&.&.&.&.&.&.&.&.&.&.&.&.&.&.&.&.&.&.&.&.&.&.&.&.&.&.&.&.&.&.&.",
"&.&.&.&.&.&.&.&.&.&.&.&.&.&.&.&.&.&.&.&.&.&.&.&.&.&.&.&.&.&.&.&.u.k r r r r r r r r r r r r r r r j u.&.0.e.% $ $ $ $ $ $ $ $ $ $ $ $ $ $ $ q.q.&.&.&.&.&.&.&.&.&.&.&.&.&.&.&.&.&.&.&.&.&.&.&.&.&.&.&.&.&.&.&.&.",
"&.&.&.&.&.&.&.&.&.&.&.&.&.&.&.&.&.&.&.&.&.&.&.&.&.&.&.&.&.&.&.0.r.t r r r r r r r r r r r r r r r r 2.q.u.P $ $ $ $ $ $ $ $ $ $ $ $ $ $ $ $ H u.&.&.&.&.&.&.&.&.&.&.&.&.&.&.&.&.&.&.&.&.&.&.&.&.&.&.&.&.&.&.&.&.",
"&.&.&.&.&.&.&.&.&.&.&.&.&.&.&.&.&.&.&.&.&.&.&.&.&.&.&.&.&.&.-.t._ r r r r r r r r r r r r r r r r r g u.u.% $ $ $ $ $ $ $ $ $ $ $ $ $ $ $ $ $ q.0.&.&.&.&.&.&.&.&.&.&.&.&.&.&.&.&.&.&.&.&.&.&.&.&.&.&.&.&.&.&.&.",
"&.&.&.&.&.&.&.&.&.&.&.&.&.&.&.&.&.&.&.&.&.&.&.&.&.&.&.&.&.&.&.u.i r r r r r r r r r r r r r r r r r t u.=.$ $ $ $ $ $ $ $ $ $ $ $ $ $ $ $ $ $ U t.&.&.&.&.&.&.&.&.&.&.&.&.&.&.&.&.&.&.&.&.&.&.&.&.&.&.&.&.&.&.&.",
"&.&.&.&.&.&.&.&.&.&.&.&.&.&.&.&.&.&.&.&.&.&.&.&.&.&.&.&.&.&.&.u.r r r r r r r r r r r r r r r r r r r r.U $ $ $ $ $ $ $ $ $ $ $ $ $ $ $ $ $ $ J t.-.&.&.&.&.&.&.&.&.&.&.&.&.&.&.&.&.&.&.&.&.&.&.&.&.&.&.&.&.&.&.",
"&.&.&.&.&.&.&.&.&.&.&.&.&.&.&.&.&.&.&.&.&.&.&.&.&.&.&.&.&.&.0.r.r r r r r r r r r r r r r r r r r r r 2.P $ $ $ $ $ $ $ $ $ $ $ $ $ $ $ $ $ $ D u.&.&.&.&.&.&.&.&.&.&.&.&.&.&.&.&.&.&.&.&.&.&.&.&.&.&.&.&.&.&.&.",
"&.&.&.&.&.&.&.&.&.&.&.&.&.&.&.&.&.&.&.&.&.&.&.0.0.&.&.&.&.&.&.r.r r r r r r r r r r r r r r r r r r r 2.=.I I I H $ $ $ $ $ $ $ $ $ $ $ $ $ $ H u.&.&.&.&.&.&.&.&.&.&.&.&.&.&.&.&.&.&.&.&.&.&.&.&.&.&.&.&.&.&.&.",
"&.&.&.&.&.&.&.&.&.&.&.&.&.&.&.&.&.&.&.0.t.u.u.y.y.u.u.0.0.&.&.u.t r r r r r r r r r r r r r r r r r r 4.u.u.u.u.I $ $ $ $ $ $ $ $ $ $ $ $ $ $ K u.&.&.0.w.u.u.u.u.u.w.0.&.&.&.&.&.&.&.&.&.&.&.&.&.&.&.&.&.&.&.&.",
"&.&.&.&.&.&.&.&.&.&.&.&.&.&.&.&.&.&.w.u. .v p p p a v o.t.w.&.u.i r r r r r r r r r r r r r r r r r t u.u.u.-.* $ $ $ $ $ $ $ $ $ $ $ $ $ $ $ U w.0.t.,.8 3 1 1 1 3 8 >.u.0.&.&.&.&.&.&.&.&.&.&.&.&.&.&.&.&.&.&.",
"&.&.&.&.&.&.&.&.&.&.&.&.&.&.&.&.0.u.+.l p p p p p p p p a o.u.u._ r r r r r r r r r r r r r r r r r u u.u.q.% $ $ $ $ $ $ $ $ $ $ $ $ $ $ $ $ q.w.u.8 1 1 1 1 1 1 1 1 1 6 e.q.&.&.&.&.&.&.&.&.&.&.&.&.&.&.&.&.&.",
"&.&.&.&.&.&.&.&.&.&.&.&.&.&.&.0.u.[ p p p p p p p p p p p p [ u.r.t r r r r r r r r r r r r r r r r g u.u.P $ $ $ $ $ $ $ $ $ $ $ $ $ $ $ $ H u.1.3 1 1 1 1 1 1 1 1 1 1 1 2 ,.q.&.&.&.&.&.&.&.&.&.&.&.&.&.&.&.&.",
"&.&.&.&.&.&.&.&.&.&.&.&.&.&.-.u. .p p p p p p p p p p p p p p o.u.f r r r r r r r r r r r r r r r r ` u.u.H $ $ $ $ $ $ $ $ $ $ $ $ $ $ $ $ =.e.3 1 1 1 1 1 1 1 1 1 1 1 1 1 2 1.0.&.&.&.&.&.&.&.&.&.&.&.&.&.&.&.",
"&.&.&.&.&.&.&.&.&.&.&.&.&.&.t.7.p p p p p p p p p p p p p p p p 3.| r r r r r r r r r r r r r r r r } u.u.K $ $ $ $ $ $ $ $ $ $ $ $ $ $ $ * u.7 1 1 1 1 1 1 1 1 1 1 1 1 1 1 1 5 u.&.&.&.&.&.&.&.&.&.&.&.&.&.&.&.",
"&.&.&.&.&.&.&.&.&.&.&.&.&.&.u.v p p p p p p p p p p p p p p p p v u.i r r r r r r r r r r r r r r r 4.u.u.I $ $ $ $ $ $ $ $ $ $ $ $ $ $ $ U >.1 1 1 1 1 1 1 1 1 1 1 1 1 1 1 1 1 ! w.&.&.&.&.&.&.&.&.&.&.&.&.&.&.",
"&.&.&.&.&.&.&.&.&.&.&.&.&.0.7.p p p p p p p p p p p p p p p p p p 3.' r r r r r r r r r r r r r r t u.u.u.*.$ $ $ $ $ $ $ $ $ $ $ $ $ $ % u.7 1 1 1 1 1 1 1 1 1 1 1 1 1 1 1 1 1 5 u.&.&.&.&.&.&.&.&.&.&.&.&.&.&.",
"&.&.&.&.&.&.&.&.&.&.&.&.&.w.{ p p p p p p p p p p p p p p p p p p b t.t r r r r r r r r r r r r r u u.u.u.-.$ $ $ $ $ $ $ $ $ $ $ $ $ $ K 1.1 1 1 1 1 1 1 1 1 1 1 1 1 1 1 1 1 1 1 u.0.&.&.&.&.&.&.&.&.&.&.&.&.&.",
"&.&.&.&.&.&.&.&.&.&.&.&.&.u.n p p p p p p p p p p p p p p p p p p p y.j r r r r r r r r r r r r r h u.u.u.u.$ $ $ $ $ $ $ $ $ $ $ $ $ $ q.e 1 1 1 1 1 1 1 1 1 1 1 1 1 1 1 1 1 1 1 >.0.&.&.&.&.&.&.&.&.&.&.&.&.&.",
"&.&.&.&.&.&.&.&.&.&.&.&.&.u.b p p p p p p p p p p p p p p p p p p p [ 4.r r r r r r r r r r r r r _ u.u.u.u.* $ $ $ $ $ $ $ $ $ $ $ $ H u.2 1 1 1 1 1 1 1 1 1 1 1 1 1 1 1 1 1 1 1 ) 0.&.&.&.&.&.&.&.&.&.&.&.&.&.",
"&.&.&.&.&.&.&.&.&.&.&.&.&.u.b p p p p p p p p p p p p p p p p p p p a u.d r r r r r r r r r r r r } u.u.u.u.J $ $ $ $ $ $ $ $ $ $ $ $ =.W 1 1 1 1 1 1 1 1 1 1 1 1 1 1 1 1 1 1 1 1 ) 0.&.&.&.&.&.&.&.&.&.&.&.&.&.",
"&.&.&.&.&.&.&.&.&.&.&.&.&.u.[ p p p p p p p p p p p p p p p p p p p p O.} r r r r r r r r r r r r 4.u.u.u.u.I $ $ $ $ $ $ $ $ $ $ $ * u.4 1 1 1 1 1 1 1 1 1 1 1 1 1 1 1 1 1 1 1 1 ,.0.&.&.&.&.&.&.&.&.&.&.&.&.&.",
"&.&.&.&.&.&.&.&.&.&.&.&.&.0.o.p p p p p p p p p p p p p p p p p p p p v u.y r r r r r r r r r r t u.u.u.u.u.U $ $ $ $ $ $ $ $ $ $ $ U ) 1 1 1 1 1 1 1 1 1 1 1 1 1 1 1 1 1 1 1 1 2 u.&.&.&.&.&.&.&.&.&.&.&.&.&.&.",
"&.&.&.&.&.&.&.&.&.&.&.&.&.0.y.p p p p p p p p p p p p p p p p p p p p p 7.` r r r r r r r r r r i u.u.u.u.u.-.$ $ $ $ $ $ $ $ $ $ % t.6 1 1 1 1 1 1 1 1 1 1 1 1 1 1 1 1 1 1 1 1 7 u.&.&.&.&.&.&.&.&.&.&.&.&.&.&.",
"&.&.&.&.&.&.&.&.&.&.&.&.&.&.u.m p p p p p p p p p p p p p p p p p p p p m r.t r r r r r r r r r f u.u.u.u.u.e.$ $ $ $ $ $ $ $ $ $ K ,.1 1 1 1 1 1 1 1 1 1 1 1 1 1 1 1 1 1 1 1 1 ,.0.&.&.&.&.&.&.&.&.&.&.&.&.&.&.",
"&.&.&.&.&.&.&.&.&.&.&.&.&.&.0.y.l p p p p p p p p p p p p p p p p p p p p u.g r r r r r r r r r _ u.u.u.u.u.u.% $ $ $ $ $ $ $ $ $ ,.9 1 1 1 1 1 1 1 1 1 1 1 1 1 1 1 1 1 1 1 1 8 u.&.&.&.&.&.&.&.&.&.&.&.&.&.&.&.",
"&.&.&.&.&.&.&.&.&.&.&.&.&.&.&.t.7.l p p p p p p p p p p p p p p p p p p p { 2.r r r r r r r r r } u.u.u.u.u.u.D $ $ $ $ $ $ $ $ H u.2 1 1 1 1 1 1 1 1 1 1 1 1 1 1 1 1 1 1 1 5 u.0.&.&.&.&.&.&.&.&.&.&.&.&.&.&.&.",
"&.&.&.&.&.&.&.&.&.&.&.&.&.&.&.&.u.6.l p p p p p p p p p p p p p p p p p p c u.i r r r r r r r r 4.u.u.u.u.u.u.K $ $ $ $ $ $ $ $ =.W 1 1 1 1 1 1 1 1 1 1 1 1 1 1 1 1 1 1 1 7 u.0.&.&.&.&.&.&.&.&.&.&.&.&.&.&.&.&.",
"&.&.&.&.&.&.&.&.&.&.&.&.&.0.q.w.q.u.y.m p p p p p p p p p p p p p p p p p p 3.] r r r r r r r r u.u.u.u.u.u.u.U $ $ $ $ $ $ $ * u.3 1 1 1 1 1 1 1 1 1 1 1 1 1 1 1 1 1 1 E u.u.0.q.0.&.&.&.&.&.&.&.&.&.&.&.&.&.&.",
"&.&.&.&.&.&.&.&.&.&.&.w.u.u.y.#.8.y.u.u.3.l p p p p p p p p p p p p p p p p b t.t r r r r r r u u.u.u.u.u.u.u.=.$ $ $ $ $ $ $ U ) 1 1 1 1 1 1 1 1 1 1 1 1 1 1 1 1 1 4 ,.u.u.<.;.;.u.u.t.&.&.&.&.&.&.&.&.&.&.&.&.",
"&.&.&.&.&.&.&.&.&.0.u.9.Z M z z z z B ..y.u.m p p p p p p p p p p p p p p p p r.j r r r r r r f u.u.u.u.u.u.u.q.$ $ $ $ $ $ % e.6 1 1 1 1 1 1 1 1 1 1 1 1 1 1 1 2 Q u.^ 0 ; = = = ; < ^ u.w.&.&.&.&.&.&.&.&.&.&.",
"&.&.&.&.&.&.&.&.w.u...z z z z z z z z z x @.u.+.a p p p p p p p p p p p p p p [ 5.r r r r r r _ u.u.u.u.u.u.u.u.$ $ $ $ $ $ K 1.1 1 1 1 1 1 1 1 1 1 1 1 1 1 1 5 1.;.< = = = = = = = = = < <.u.&.&.&.&.&.&.&.&.&.",
"&.&.&.&.&.&.&.0.u.V z z z z z z z z z z z z B y.y.n p p p p p p p p p p p p p a u.d r r r r r } u.u.u.u.u.u.u.u.* $ $ $ $ $ q.9 1 1 1 1 1 1 1 1 1 1 1 1 1 2 W u.Y - = = = = = = = = = = = : ;.u.&.&.&.&.&.&.&.&.",
"&.&.&.&.&.&.0.u.V z z z z z z z z z z z z z z z X.u.+.a p p p p p p p p p p p p O.| r r r r r 2.u.u.u.u.u.u.u.u.J $ $ $ $ D u.2 1 1 1 1 1 1 1 1 1 1 1 1 5 1.:., = = = = = = = = = = = = = = ; ;.0.&.&.&.&.&.&.&.",
"&.&.&.&.&.&.u.X.z z z z z z z z z z z z z z z z z V 9.y.b p p p p p p p p p p p v u.y r r r t u.u.u.u.u.u.u.u.u.I $ $ $ $ *.Q 1 1 1 1 1 1 1 1 1 1 1 2 Q u.w - = = = = = = = = = = = = = = = = , u.0.&.&.&.&.&.&.",
"&.&.&.&.&.0.u.x z z z z z z z z z z z z z z z z z z z @.u.O.a p p p p p p p p p p 7.` r r r u u.u.u.u.u.u.u.u.u.%.$ $ $ & u.3 1 1 1 1 1 1 1 1 1 1 6 e.:., = = = = = = = = = = = = = = = = = = = R w.&.&.&.&.&.&.",
"&.&.&.&.&.t.#.z z z z z z z z z z z z z z z z z z z z z N 9.y.b p p p p p p p p p m t.t r r f u.u.u.u.u.u.u.u.u.-.$ $ $ I >.1 1 1 1 1 1 1 1 1 2 ! u.q = = = = = = = = = = = = = = = = = = = = = < u.&.&.&.&.&.&.",
"&.&.&.&.&.u.C z z z z z z z z z z z z z z z z z z z z z z z X.u.o.a p p p p p p p p y.h r r _ u.u.u.u.u.u.u.u.u.t.$ $ % e.7 1 1 1 1 1 1 1 1 6 e.;., = = = = = = = = = = = = = = = = = = = = = = ; u.0.&.&.&.&.&.",
"&.&.&.&.&.u.B z z z z z z z z z z z z z z z z z z z z z z z z B 9.r.v p p p p p p p  .2.r r } u.u.u.u.u.u.u.u.u.u.& $ K e.1 1 1 1 1 1 1 2 ! u.w - = = = = = = = = = = = = = = = = = = = = = = = = <.0.&.&.&.&.&.",
"&.&.&.&.&.u.N z z z z z z z z z z z z z z z z z z z z z z z z z z ..u.o.p p p p p p c u.s r 2.u.u.u.u.u.u.u.u.u.u.H $ -.e 1 1 1 1 1 1 6 e.( > = = = = = = = = = = = = = = = = = = = = = = = = = = ;.0.&.&.&.&.&.",
"&.&.&.&.&.u.B z z z z z z z z z z z z z z z z z z z z z z z z z z z B 9.r.v p p p p p 3.} r t.u.u.u.u.u.u.u.u.u.u.P D u.2 1 1 1 1 2 ! u.w - = = = = = = = = = = = = = = = = = = = = = = = = = = = :.0.&.&.&.&.&.",
"&.&.&.&.&.u.V z z z z z z z z z z z z z z z z z z z z z z z z z z z z z X.u. .p p p p n u.s u.u.u.u.u.u.u.u.u.u.u.*.*.! 1 1 1 1 6 e.;., = = = = = = = = = = = = = = = = = = = = = = = = = = = = = w.0.&.&.&.&.&.",
"&.&.&.&.&.u.@.z z z z z z z z z z z z z z z z z z z z z z z z z z z z z z B 9.7.v p p p r.2.u.u.u.u.u.u.u.u.u.u.u.q.u.4 1 1 2 ! u.w - = = = = = = = = = = = = = = = = = = = = = = = = = = = = = , u.0.&.&.&.&.&.",
"&.&.&.&.&.0.y.z z z z z z z z z z z z z z z z z z z z z z z z z z z z z z z z ..u.{ p p [ u.u.u.u.u.u.u.u.u.u.u.u.u.>.1 1 6 e.;.> = = = = = = = = = = = = = = = = = = = = = = = = = = = = = = = Y u.&.&.&.&.&.&.",
"&.&.&.&.&.&.u.Z z z z z z z z z z z z z z z z z z z z z z z z z z z z z z z z z B 9.7.c a u.u.u.u.u.u.u.u.u.u.u.u.u.7 2 ! u.w = = = = = = = = = = = = = = = = = = = = = = = = = = = = = = = = : w.0.&.&.&.&.&.&.",
"&.&.&.&.&.&.q.u.N z z z z z z z z z z z z z z z z z z z z z z z z z z z z z z z z z Z u.{ +.u.u.u.u.u.u.u.u.u.u.u.e.7 e.( > = = = = = = = = = = = = = = = = = = = = = = = = = = = = = = = = = / u.&.&.&.&.&.&.&.",
"&.&.&.&.&.&.&.w.8.z z z z z z z z z z z z z z z z z z z z z z z z z z z z z z z z z z B 9.y.u.u.u.u.u.u.u.u.u.u.u.u.u.w = = = = = = = = = = = = = = = = = = = = = = = = = = = = = = = = = = w u.0.&.&.&.&.&.&.&.",
"&.&.&.&.&.&.&.&.u.8.N z z z z z z z z z z z z z z z z z z z z z z z z z z z z z z z z z z X.u.u.u.u.u.u.u.u.u.u.u.;., = = = = = = = = = = = = = = = = = = = = = = = = = = = = = = = = = - T u.0.&.&.&.&.&.&.&.&.",
"&.&.&.&.&.&.&.&.&.w.u.X.M z z z z z z z z z z z z z z z z z z z z z z z z z z z z z z z z z B 9.u.u.u.u.u.u.u.u.w = = = = = = = = = = = = = = - = = = = = = = = = = = = = = = = = = - 0 :.u.0.&.&.&.&.&.&.&.&.&.",
"&.&.&.&.&.&.&.&.&.&.0.u.u.6.@.X.@.@.X.X.X.X.X.X.X.X.X.X.X.X.X.X.@.@.@.X.X.X.X.X.X.X.X.X.X.X.X.X.u.u.u.u.u.u.u.^ Y Y T T T T Y T T T T T T T T T T T T T T T Y Y T T T T T T T T T / w.u.0.&.&.&.&.&.&.&.&.&.&.&.",
"&.&.&.&.&.&.&.&.&.&.&.&.0.0.w.w.t.u.w.w.t.w.w.t.w.e.t.t.w.t.w.w.t.w.t.w.w.w.t.w.w.u.w.t.t.w.w.q.t.w.t.u.t.w.w.y.w.w.t.t.w.w.t.w.w.t.w.t.w.w.t.t.w.w.e.t.w.t.w.0.t.w.w.w.t.w.q.t.w.0.0.&.&.&.&.&.&.&.&.&.&.&.&.&.",
"&.&.&.&.&.&.&.&.&.&.&.&.&.&.&.$.$.$.$.$.&.&.&.&.&.&.&.&.&.&.&.&.&.&.&.&.&.&.&.&.&.&.&.&.&.&.&.&.&.&.&.&.&.&.&.&.-.&.&.&.&.&.&.&.0.&.&.&.&.&.&.&.&.&.&.&.&.&.&.&.&.&.&.&.&.&.&.$.$.$.$.$.&.&.&.&.&.&.&.&.&.&.&.&.",
"&.&.&.&.&.&.&.&.&.&.F @ o X               X + S &.&.&.&.&.@ X X X X X X X X o $.&.&.&.&.&.&.G X X X X X + &.S X X X X X X X X X X X o o + @ S $.&.&.&.&.&.&.&.&.&.&.F # o X               X + S $.&.&.&.&.&.&.&.",
"&.&.&.&.&.&.&.&.A .                             . # &.&.&.+                   O &.&.&.&.&.&.F           o &.A                                   O $.&.&.&.&.&.&.A .                             . @ &.&.&.&.&.&.",
"&.&.&.&.&.&.G X                 .                   o $.&.+                     A &.&.&.&.&.F           o &.#                                     . $.&.&.&.G X                 .                   X $.&.&.&.&.",
"&.&.&.&.&.G               X S &.&.&.G @               + &.+                       G &.&.&.&.F           o &.%             G $.$.$.F @               @ &.&.G .             X S $.&.&.G #               + &.&.&.&.",
"&.&.&.&.&..             o &.&.&.&.&.&.0.@               &.+           .           o &.&.&.&.F           o &.#             G &.&.&.&.&.+             # &.&.X             o &.&.&.&.&.&.&.#               &.&.&.&.",
"&.&.&.&.#               $.&.&.&.&.&.&.&.$.F F F F S F F &.O           A o           @ &.&.&.F           o &.A             G &.&.&.&.G X           . $.&.A               G &.&.&.&.&.&.&.&.G F G G F G G &.&.&.&.",
"&.&.&.&.o             O &.&.&.&.&.&.&.&.&.&.&.&.&.&.&.&.&.+           A $..           F &.&.F           o &.#             . X . . .             o G &.&.O             o &.&.&.&.&.&.&.&.&.&.&.&.&.&.&.&.&.&.&.&.",
"&.&.&.&..             + &.&.&.&.&.&.&.&.&.&.&.&.&.&.&.&.&.+           A &.S           . $.&.F           o &.A                               X # &.&.&.&..             + &.&.&.&.&.&.&.&.&.&.&.&.&.&.&.&.&.&.&.&.",
"&.&.&.&.              @ &.&.&.&.&.&.&.&.&.&.&.&.&.&.&.&.&.+           A &.&.@           O &.F           o &.#                                     A &.&..             + &.&.&.&.&.&.&.&.&.&.&.&.&.&.&.&.&.&.&.&.",
"&.&.&.&..             O &.&.&.&.&.&.&.&.&.&.&.&.&.&.&.&.&.O           A &.&.&.o           A F           o &.#             G $.$.G F @               # &..             O &.&.&.&.&.&.&.&.&.&.&.&.&.&.&.&.&.&.&.&.",
"&.&.&.&.o             . $.&.&.&.&.&.&.&.G O O O O O O + &.+           A &.&.&.$..           A           o 0.A             G &.&.&.&.&.S             . &.O               $.&.&.&.&.&.&.&.G O O O O O O + &.&.&.&.",
"&.&.&.&.A               O &.&.&.&.&.&.$.o             O &.+           A &.&.&.&.A                       o &.#             G 0.&.&.&.&.@               G S               o &.&.&.&.&.&.$.O             o &.&.&.&.",
"&.&.&.&.&.X               . @ F G G # .             . G &.+           A &.&.&.&.&.@                     o &.#             O O O O o .               . &.&.o               . @ S G G A .               G &.&.&.&.",
"&.&.&.&.&.$.X                                     . F &.&.+           A &.&.&.&.&.&.o                   o 0.A                                       S &.&.$.o                                     . F &.&.&.&.&.",
"&.&.&.&.&.&.&.A X                             X # &.&.&.&.+           A &.&.&.&.&.&.$..                 o &.#                                 . + G &.&.&.&.&.A X                             . # $.&.&.&.&.&.&.",
"&.&.&.&.&.&.&.&.&.F # O o .         . X + # G &.&.&.&.&.&.A + + + + + F &.&.&.&.&.&.&.F + + + + + + + + # &.F + + + + + + + + + + + + + @ A F &.&.&.&.&.&.&.&.&.&.F # O o .         . o O # G &.&.&.&.&.&.&.&.&.",
"&.&.&.&.&.&.&.&.&.&.&.&.&.&.&.&.&.&.&.&.&.&.&.&.&.&.&.&.&.&.&.&.&.&.&.&.&.&.&.&.&.&.&.&.&.0.&.&.&.&.&.0.&.&.&.&.&.&.&.&.&.&.&.&.0.&.&.&.&.&.&.&.&.&.&.&.&.&.&.&.&.&.&.&.&.&.&.&.&.&.0.&.&.&.&.&.&.&.&.&.&.&.&.&.",
"&.&.&.&.&.&.&.&.&.&.&.&.&.&.&.&.&.&.&.&.&.&.&.&.&.&.&.&.&.&.&.&.&.&.&.&.&.&.&.&.&.&.&.&.&.&.&.&.&.&.&.&.&.&.&.&.&.&.&.&.&.&.&.&.&.&.&.&.&.&.&.&.&.&.&.&.&.&.&.&.&.&.&.&.&.&.&.&.&.&.&.&.&.&.&.&.&.&.&.&.&.&.&.&.",
"&.&.&.&.&.&.&.&.&.&.&.&.&.&.&.&.&.&.&.&.&.&.&.&.&.&.&.&.&.&.&.&.&.&.&.&.&.&.&.&.&.&.&.&.&.&.&.&.&.&.&.&.&.&.&.&.&.&.&.&.&.&.&.&.&.&.&.&.&.&.&.&.&.&.&.&.&.&.&.&.&.&.&.&.&.&.&.&.&.&.&.&.&.&.&.&.&.&.&.&.&.&.&.&."
};
