/* XPM */
static char *DELUXE_MUSIC[] = {
/* columns rows colors chars-per-pixel */
"104 78 82 1",
"  c #8C0406",
". c #8B0F12",
"X c #8E1719",
"o c #98060A",
"O c #980D12",
"+ c #97161A",
"@ c #9A1E21",
"# c #9A292B",
"$ c #992F31",
"% c #9C3234",
"& c #A8040C",
"* c #A70C13",
"= c #A7161C",
"- c #B4040D",
"; c #B40C15",
": c #B7151E",
"> c #A91B22",
", c #B81821",
"< c #AA252A",
"1 c #A72E32",
"2 c #A83437",
"3 c #BB252D",
"4 c #BA2C34",
"5 c #B7343A",
"6 c #AC3F42",
"7 c #B83D42",
"8 c #AB4749",
"9 c #A74F52",
"0 c #AB5658",
"q c #B8454A",
"w c #B84E52",
"e c #B7575A",
"r c #B85E62",
"t c #BA6567",
"y c #BE6E71",
"u c #B97577",
"i c #C01923",
"p c #C12C34",
"a c #C1333C",
"s c #C23D44",
"d c #C5444B",
"f c #C34D54",
"g c #C4555A",
"h c #C95D62",
"j c #D05C63",
"k c #C8666B",
"l c #C76E72",
"z c #C67679",
"x c #D1646A",
"c c #D2757A",
"v c #BF7D80",
"b c #CD7E82",
"n c #D47E82",
"m c #BD8486",
"M c #BF9293",
"N c #CA8486",
"B c #CA8F91",
"V c #CB9597",
"C c #D4868A",
"Z c #DA8E92",
"A c #D59497",
"S c #CB9FA1",
"D c #D69EA1",
"F c #CBA8A9",
"G c #CFB6B7",
"H c #D9A6A8",
"J c #D5AFB1",
"K c #D5B8B9",
"L c #E1979B",
"P c #E4AAAD",
"I c #E3B7B8",
"U c #D5BFC0",
"Y c #E7BFC0",
"T c #D7C7C8",
"R c gainsboro",
"E c #E9C9CA",
"W c #ECCFD0",
"Q c #EDD5D6",
"! c #F1D9DA",
"~ c #F6EAEA",
"^ c #F9EFF0",
"/ c #FEFDFD",
/* pixels */
"RRRRRRRRRRRRRRRRRRRRRRRRRRRRRRRRRRRRRRRRRRRRRRRRRRRRRRRRRRRRRRRRRRRRRRRRRRRRRRRRRRRRRRRRRRRRRRRRRRRRRRRR",
"RRRRRRRRRRRRRRRRRRRRRRRRRRRRRRRRRRRRRRRRRRRRRRRRRRRRRRRRRRRRRRRRRRRRRRRRRRRRRRRRRRRRRRRRRRRRRRRRRRRRRRRR",
"RRRRRRRRRRRRRRRRRRRRRRRRRRRRRRRRRRRRRRRRRRRRRRRRRRUddURRRRRRRRRRRRRRRRRRRRRRRRRRRRRRRRRRRRRRRRRRRRRRRRRR",
"RRRRRRRRRRRRRRRRRRRRRRRRRRRRRRRRRRRRRRRRRRRRRRRRRbi::,zRRRRRRRRRRRRRRRRRRRRRRRRRRRRRRRRRRRRRRRRRRRRRRRRR",
"RRRRRRRRRRRRRRRRRRRRRRRRRRRRRRRRRRRRRRRRRRRRRRQDp::i:::4SRRRRRRRRRRRRRRRRRRRRRRRRRRRRRRRRRRRRRRRRRRRRRRR",
"RRRRRRRRRRRRRRRRRRRRRRRRRRRRRRRRRRRRRRRRRRRRRKf::,i:::,::qGRRRRRRRRRRRRRRRRRRRRRRRRRRRRRRRRRRRRRRRRRRRRR",
"RRRRRRRRRRRRRRRRRRRRRRRRRRRRRRRRRRRRRRRRRRRTk,:i,i:::::,,:,tTRRRRRRRRRRRRRRRRRRRRRRRRRRRRRRRRRRRRRRRRRRR",
"RRRRRRRRRRRRRRRRRRRRRRRRRRRRRRRRRRRRRRRRRRZpi,i::::::::::,,:3NRRRRRRRRRRRRRRRRRRRRRRRRRRRRRRRRRRRRRRRRRR",
"RRRRRRRRRRRRRRRRRRRRRRRRRRRRRRRRRRRRRRRRJsiii;:i::::::::=::===7JRRRRRRRRRRRRRRRRRRRRRRRRRRRRRRRRRRRRRRRR",
"RRRRRRRRRRRRRRRRRRRRRRRRRRRRRRRRRRRRRRUj,:i:i:::::::::=::==:=:==eTRRRRRRRRRRRRRRRRRRRRRRRRRRRRRRRRRRRRRR",
"RRRRRRRRRRRRRRRRRRRRRRRRRRRRRRRRRRRRWbii:i:i::::::::=::=::=======>vRRRRRRRRRRRRRRRRRRRRRRRRRRRRRRRRRRRRR",
"RRRRRRRRRRRRRRRRRRRRRRRRRRRRRRRRRRRDp:iiii:::::::::::=::===:===:===2SRRRRRRRRRRRRRRRRRRRRRRRRRRRRRRRRRRR",
"RRRRRRRRRRRRRRRRRRRRRRRRRRRRRRRRRKfiii:;:ii;::::=:::::===:===:=======8KRRRRRRRRRRRRRRRRRRRRRRRRRRRRRRRRR",
"RRRRRRRRRRRRRRRRRRRRRRRRRRRRRRRTl,:ii;iii;:::::::=:==:=:==:;==========@yTRRRRRRRRRRRRRRRRRRRRRRRRRRRRRRR",
"RRRRRRRRRRRRRRRRRRRRRRRRRRRRQRZpi:i:::::::::::::::=::;:=:========++=+==+<MRRRRRRRRRRRRRRRRRRRRRRRRRRRRRR",
"RRRRRRRRRRRRRRRRRRRRRRRRRRRRJs:i,i:i:ii:::::::::==:==:=:======*======+++++6FRRRRRRRRRRRRRRRRRRRRRRRRRRRR",
"RRRRRRRRRRRRRRRRRRRRRRRRQRTh,,i:i:ii:::::::::::::;:===;==========+==+=++=+++rTRRRRRRRRRRRRRRRRRRRRRRRRRR",
"RRRRRRRRRRRRRRRRRRRRRRRRWn3,,i:i;i:::::::::::=:==::=:=============++=+=+++=@+@mRRRRRRRRRRRRRRRRRRRRRRRRR",
"RRRRRRRRRRRRRRRRRRRRRRRHp:i:i:::iii::::::::::=::::===:=========+=++=+=+=+++++++%FRRRRRRRRRRRRRRRRRRRRRRR",
"RRRRRRRRRRRRRRRRRRRRRUf:ii:i:i:ii::::::::=::=:=:===:;=========+==+=+++++++++++++X9GRRRRRRRRRRRRRRRRRRRRR",
"RRRRRRRRRRRRRRRRRRRRli,iii:iii:i;i::::::::::::=:=::==;======+==++=+==++++++++X+XXXXuTRRRRRRRRRRRRRRRRRRR",
"RRRRRRRRRRRRRRRRRRAp,,i:;ii;::i:i;:::::::=:==:=====:====+====++==++++++++++++X+XXXXX$BRRRRRRRRRRRRRRRRRR",
"RRRRRRRRRRRRRRRRRR<=ii:ii:i;::::;i::::::::=::=:============+===++==+++++++++XXXXX+XX+3RRRRRRRRRRRRRRRRRR",
"RRRRRRRRRRRRRRRRRR$XO::ii;iii:i:i:::::=:=:;==:===========+==++=++=+++++++++X+XX+XX+=:pRRRRRRRRRRRRRRRRRR",
"RRRRRRRRRRRRRRRRRR#XX+=,i::::i::::,:::=:=:=:=========+===+=+==+++++++++X++XXX+XX+=ii:pRRRRRRRRRRRRRRRRRR",
"RRRRRRRRRRRRRRRRRR$XX+X+,,ii,:::::,,,,>,,,==>,>>=====>====+==+=@@+++++++XX@XXXX=,,::iiRRRRRRRRRRRRRRRRRR",
"RRRRRRRRRRRRRRRRRR#XX++  o---:,:::---&&&&*,=&&*>====Ooo=*=+OOO+.oO+++.  +.  . &--::::iRRRRRRRRRRRRRRRRRR",
"RRRRRRRRRRRRRRRRRR$XXX@yzulcx4-::;xcccccnq*,kn7*>==*wbh=+++hb61bueO+Otzz$%zuzcccc,:,:pRRRRRRRRRRRRRRRRRR",
"RRRRRRRRRRRRRRRRRR$XXO#~//////Z:::!/^////A&<~/N&>==oP/W+=++Q/DO!//8 0//!.t//////^p;iiiRRRRRRRRRRRRRRRRRR",
"RRRRRRRRRRRRRRRRRR$+XO#~/^^^///P;:!//^/^/C&<~/bo==>oH/E++=+W/D 9//W#Q//8 k////^/^p;::pRRRRRRRRRRRRRRRRRR",
"RRRRRRRRRRRRRRRRRR$XXO#~/B#2qE//h&!/H*<,3<*<~/N&>=>oH/E*=++W/DO.A//!//Ao&k//d:3,p,:i:pRRRRRRRRRRRRRRRRRR",
"RRRRRRRRRRRRRRRRRR#XX+#~/N Oo@~/Ko!/Yhkkq*=>~/No=+>oH/E++++Q/D ++~///!==&k//chxx,::i:pRRRRRRRRRRRRRRRRRR",
"RRRRRRRRRRRRRRRRRR#X+.#~/No=>oH/Q=!/////H&=<~/no>+=oJ/WO+++Q/H +.0///w*>&k//////s;,:iiRRRRRRRRRRRRRRRRRR",
"RRRRRRRRRRRRRRRRRR$X+O#~/No+@oH/W=!/////H*=>~/No>=>OH/WO>+OQ/H @ z///l&>&k//////s;,:ipRRRRRRRRRRRRRRRRRR",
"RRRRRRRRRRRRRRRRRR$XX+#~/b oo6^/Ho!/H=4<=**<~/zoOoO B/^2  2//N..2////^4=&k//d,33;:,:,iRRRRRRRRRRRRRRRRRR",
"RRRRRRRRRRRRRRRRRR$X+.#~/JetN~//qo!/Iwhgk7*<~/Hektt18//!ly!//2OOI//P//I**k//cghhh,:,:pRRRRRRRRRRRRRRRRRR",
"RRRRRRRRRRRRRRRRRR$XX.#~///////zo=!//////A&<^//////z V//////NOol//IoI//k&k//////^p;:iiRRRRRRRRRRRRRRRRRR",
"RRRRRRRRRRRRRRRRRR#X+X#^/////Weo>=!//////Z&3^//////z Oz~//~lO+2~/~1&5^/~>k//////^p;i:pRRRRRRRRRRRRRRRRRR",
"RRRRRRRRRRRRRRRRRR$X+X+1%1662Oo=+o<5775443=,5d51126<++ .##Oo@O121<o=*57q>;4445sds,:::pRRRRRRRRRRRRRRRRRR",
"RRRRRRRRRRRRRRRRRR#XX++80e+oO+>=<heq=&5gg5=:;-pge1o+OOeNBNe+O>O2ee7===*&3lZAc7--:::::pRRRRRRRRRRRRRRRRRR",
"RRRRRRRRRRRRRRRRRR$X+.#~//Do@+=oD//~<&A//A&,,;A//Ao+#E/////W1+oA//A&>==C^/////E4;,:::pQRRRRRRRRRRRRRRRRR",
"RRRRRRRRRRRRRRRRRR#XX+#~///wo>ow///~<&A//Z&,,&Z//L-*E///////W+oA//Ao>*H////////~a;,::iRRRRRRRRRRRRRRRRRR",
"RRRRRRRRRRRRRRRRRR$X+.#~///W++=Q///~<&A//A&,,&Z//L-d///ywH///N A//A&*N///~AZE/^/!,:i:pRRRRRRRRRRRRRRRRRR",
"RRRRRRRRRRRRRRRRRR#X++#~////B B////~<&A//A&,,-Z//L-x///1  VEz5 A//Ao<~//P=&&&x//Pp:::pRRRRRRRRRRRRRRRRRR",
"RRRRRRRRRRRRRRRRRR#XX.#~////~l^////~<&A//A&,,&Z//L-d///^A8o o+oA//Aol//~==,,,&kd-::::pRRRRRRRRRRRRRRRRRR",
"RRRRRRRRRRRRRRRRRR$XX+#~//~/////~//~<&A//Z&,,&Z//L-;H/////EeO+oA//AoA//A&>===,-;:::::iRRRRRRRRRRRRRRRRRR",
"RRRRRRRRRRRRRRRRRR$X+.#~/~t/////k~/~<&A//A-,,&A//L-,XV//////BOoA//AoH//C&>:==:,,:::::iRRRRRRRRRRRRRRRRRR",
"RRRRRRRRRRRRRRRRRR$X++#~//<B///B<//~<&A//A&,,&Z//L-i. #NW////e A//AoC//I&,>:,=,;;:::ipRRRRRRRRRRRRRRRRRR",
"RRRRRRRRRRRRRRRRRR$X+.#~//1+!/~=2//~<&c//E&;;-Y//C-,8D% +8Q//H A//Aoq///e&*=&,WIs::::iRRRRRRRRRRRRRRRRRR",
"RRRRRRRRRRRRRRRRRR#XX+#~//2oeEwo5//~<*q///D44L///d-P//Q%  H//J A//Ao=Y//^C54gQ//^p;::3RRRRRRRRRRRRRRRRRR",
"RRRRRRRRRRRRRRRRRR#X+X#~//2O+o+*2//~<=*P////////P;;j///~HK///z Z//A&*5^////^////C;:::pRRRRRRRRRRRRRRRRRR",
"RRRRRRRRRRRRRRRRRR$XX.#~//2O++=O5//~<*=>E//////Ei:i-N///////W@oZ//Ao>*q~///////C;::::pRRRRRRRRRRRRRRRRRR",
"RRRRRRRRRRRRRRRRRR$X+.#JEK1O=+=O1IEI>==;;CQ^^!n:;ii:oeE~^^!B@+olWWlo=>*>CQ^/~Pd&:::::pRRRRRRRRRRRRRRRRRR",
"RRRRRRRRRRRRRRRRRR$X+X+.OO+++=+==OO*=:=:=&;44:-:i:::+ .#%1+o+++=oo====>*&=34,&*,:::::3RRRRRRRRRRRRRRRRRR",
"RRRRRRRRRRRRRRRRRR$X+XX++++++=+==========>:;;:::::ii+++..O+=++=++=+======:;==,:::::::3RRRRRRRRRRRRRRRRRR",
"RRRRRRRRRRRRRRRRRR$X+++++++++==++=======:=:==:::::::+XX++++++++==+=+=========;=::::,:3RRRRRRRRRRRRRRRRRR",
"RRRRRRRRRRRRRRRRRRM$+X+X+++++==+========:=:=::::::i:+XX+++++++=+=+=+=======:=:=:::::4VRRRRRRRRRRRRRRRRRR",
"RRRRRRRRRRRRRRRRRRRTu@+++++=+++=+=========::=:=:::i:+XX+X++++++=+===========:=:==:,lRRRRRRRRRRRRRRRRRRRR",
"RRRRRRRRRRRRRRRRRRRRRT0X++++=++======;===::=::::::::+.+X+++++=+=+====+*==:=:=::::gURRRRRRRRRRRRRRRRRRRRR",
"RRRRRRRRRRRRRRRRRRRRRRRF2++++=+==+=======;=:::::::::+XX++++++++++=++========:=;5FRRRRRRRRRRRRRRRRRRRRRRR",
"RRRRRRRRRRRRRRRRRRRRRRRRQM#++=+++=======:=::;:::::i:XXOX++++++=+==+========,=,NRRRRRRRRRRRRRRRRRRRRRRRRR",
"RRRRRRRRRRRRRRRRRRRRRRRRRRTt=+========;===:=::::::i:+XX++++++++=++=======:==gTRRRRRRRRRRRRRRRRRRRRRRRRRR",
"RRRRRRRRRRRRRRRRRRRRRRRRRRRRG8++=+=======::=::::::::+XXX+++++++===+====>>=7JRRRRRRRRRRRRRRRRRRRRRRRRRRRR",
"RRRRRRRRRRRRRRRRRRRRRRRRRRRRRRV1=======:=:=::::::;i:XX+X+X++=+++++=+==>=<BRRRRRRRRRRRRRRRRRRRRRRRRRRRRRR",
"RRRRRRRRRRRRRRRRRRRRRRRRRRRRRRRTy>======:=::=:::::::+XOX++++++++==+===>yTRRRRRRRRRRRRRRRRRRRRRRRRRRRRRRR",
"RRRRRRRRRRRRRRRRRRRRRRRRRRRRRRRRRKw======:=:::::::::++X+X++++++=++=+=wGRRRRRRRRRRRRRRRRRRRRRRRRRRRRRRRRR",
"RRRRRRRRRRRRRRRRRRRRRRRRRRRRRRRRRRRD2=>>===:=:::::::+XX+X+++++++==+2VRRRRRRRRRRRRRRRRRRRRRRRRRRRRRRRRRRR",
"RRRRRRRRRRRRRRRRRRRRRRRRRRRRRRRRRRRRRN>=,,=::=::::::+XXX+++++++=+<bRRRRRRRRRRRRRRRRRRRRRRRRRRRRRRRRRRRRR",
"RRRRRRRRRRRRRRRRRRRRRRRRRRRRRRRRRRRRRRTr==>,=:::::::XX+X++++++++0TRRRRRRRRRRRRRRRRRRRRRRRRRRRRRRRRRRRRRR",
"RRRRRRRRRRRRRRRRRRRRRRRRRRRRRRRRRRRRRRRRJ7:,,::=::i:XXX+X++@++6FRRRRRRRRRRRRRRRRRRRRRRRRRRRRRRRRRRRRRRRR",
"RRRRRRRRRRRRRRRRRRRRRRRRRRRRRRRRRRRRRRRRRRB4=:,:::::XXXOX+X+#BRRRRRRRRRRRRRRRRRRRRRRRRRRRRRRRRRRRRRRRRRR",
"RRRRRRRRRRRRRRRRRRRRRRRRRRRRRRRRRRRRRRRRRRRTl,:,:::,+X+X+X+tTRRRRRRRRRRRRRRRRRRRRRRRRRRRRRRRRRRRRRRRRRRR",
"RRRRRRRRRRRRRRRRRRRRRRRRRRRRRRRRRRRRRRRRRRRRRKw:i,i:XXXXX8GRRRRRRRRRRRRRRRRRRRRRRRRRRRRRRRRRRRRRRRRRRRRR",
"RRRRRRRRRRRRRRRRRRRRRRRRRRRRRRRRRRRRRRRRRRRRRRRSp:::XXX$SRRRRRRRRRRRRRRRRRRRRRRRRRRRRRRRRRRRRRRRRRRRRRRR",
"RRRRRRRRRRRRRRRRRRRRRRRRRRRRRRRRRRRRRRRRRRRRRRRRRbi:X@uRRRRRRRRRRRRRRRRRRRRRRRRRRRRRRRRRRRRRRRRRRRRRRRRR",
"RRRRRRRRRRRRRRRRRRRRRRRRRRRRRRRRRRRRRRRRRRRRRRRRRQTf8URRRRRRRRRRRRRRRRRRRRRRRRRRRRRRRRRRRRRRRRRRRRRRRRRR",
"RRRRRRRRRRRRRRRRRRRRRRRRRRRRRRRRRRRRRRRRRRRRRRRRRRRRRRRRRRRRRRRRRRRRRRRRRRRRRRRRRRRRRRRRRRRRRRRRRRRRRRRR",
"RRRRRRRRRRRRRRRRRRRRRRRRRRRRRRRRRRRRRRRRRRRRRRRRRRRRRRRRRRRRRRRRRRRRRRRRRRRRRRRRRRRRRRRRRRRRRRRRRRRRRRRR"
};
