/* XPM */
static char *Deutsches_Musik_Fernsehen[] = {
/* columns rows colors chars-per-pixel */
"104 78 39 1",
"  c #005AAE",
". c #005FB0",
"X c #0B6CB6",
"o c #106FB8",
"O c #1773B9",
"+ c #267ABC",
"@ c #2B7FC0",
"# c #3783BE",
"$ c #2E81C1",
"% c #3C87C1",
"& c #468CC2",
"* c #4C92C8",
"= c #5796C6",
"- c #659CC7",
"; c #6EA1C8",
": c #66A3D1",
"> c #79A7CA",
", c #73ABD5",
"< c #7DB1D8",
"1 c #84ADCC",
"2 c #8CB1CE",
"3 c #85B6DB",
"4 c #93B5CF",
"5 c #9AB9D2",
"6 c #A3BED2",
"7 c #9BC2E1",
"8 c #ABC2D3",
"9 c #B7C8D5",
"0 c #A7CAE5",
"q c #B7D3EA",
"w c #C2CED7",
"e c #C9D2D9",
"r c gainsboro",
"t c #C6DDEE",
"y c #CEE2F1",
"u c #D6E7F3",
"i c #E3EEF7",
"p c #EAF3F9",
"a c #FDFEFE",
/* pixels */
"rrrrrrrrrrrrrrrrrrrrrrrrrrrrrrrrrrrrrrrrrrrrrrrrrrrrrrrrrrrrrrrrrrrrrrrrrrrrrrrrrrrrrrrrrrrrrrrrrrrrrrrr",
"rrrrrrrrrrrrrrrrrrrrrrrrrrrrrrrrrrrrrrrrrrrrrrrrrrrrrrrrrrrrrrrrrrrrrrrrrrrrrrrrrrrrrrrrrrrrrrrrrrrrrrrr",
"rrrrrrrrrrrrrrrrrrrrrrrrrrrrrrrrrrrrrrrrrrrrrrrrrrrrrrrrrrrrrrrrrrrrrrrrrrrrrrrrrrrrrrrrrrrrrrrrrrrrrrrr",
"rrrrrrrrrrrrrrrrrrrrrrrrrrrrrrrrrrrrrrrrrrrrrrrrrrrrrrrrrrrrrrrrrrrrrrrrrrrrrrrrrrrrrrrrrrrrrrrrrrrrrrrr",
"rrrrrrrrrrrrrrrrrrrrrrrrrrrrrrrrrrrrrrrrrrrrrrrrrrrrrrrrrrrrrrrrrrrrrrrrrrrrrrrrrrrrrrrrrrrrrrrrrrrrrrrr",
"rrrrrrrrrrrrrrrrrrrrrrrrrrrrrrrrrrrrrrrrrrrrrrrrrrrrrrrrrrrrrrrrrrrrrrrrrrrrrrrrrrrrrrrrrrrrrrrrrrrrrrrr",
"rrrrrrrrrrrrrrrrrrrrrrrrrrrrrrrrrrrrrrrrrrrrrrrrrrrrrrrrrrrrrrrrrrrrrrrrrrrrrrrrrrrrrrrrrrrrrrrrrrrrrrrr",
"rrrrrrrrrrrrrrrrrrrrrrrrrrrrrrrrrrrrrrrrrrrrrrrrrrrrrrrrrrrrrrrrrrrrrrrrrrrrrrrrrrrrrrrrrrrrrrrrrrrrrrrr",
"rrrrrrrrrrrrrrrrrrrrrrrrrrrrrrrrrrrrrrrrrrrrrrrrrrrrrrrrrrrrrrrrrrrrrrrrrrrrrrrrrrrrrrrrrrrrrrrrrrrrrrrr",
"rrrrrrrrrrrrrrrrrrrrrrrrrrrrrrrrrrrrrrrrrrrrrrrrrrrrrrrrrrrrrrrrrrrrrrrrrrrrrrrrrrrrrrrrrrrrrrrrrrrrrrrr",
"rrrrrrrrrrrrrrrrrrrrrrrrrrrrrrrrrrrrrrrrrrrrrrrrrrrrrrrrrrrrrrrrrrrrrrrrrrrrrrrrrrrrrrrrrrrrrrrrrrrrrrrr",
"rrrrrrrrrrrrrrrrrrrrrrrrrrrrrrrrrrrrrrrrrrrrrrrrrrrrrrrrrrrrrrrrrrrrrrrrrrrrrrrrrrrrrrrrrrrrrrrrrrrrrrrr",
"rrrrrrrrrrrrrrrrrrrrrrrrrrrrrrrrrrrrrrrrrrrrrrrrrrrrrrrrrrrrrrrrrrrrrrrrrrrrrrrrrrrrrrrrrrrrrrrrrrrrrrrr",
"rrrrrrrrrrrrrrrrrrrrrrrrrrrrrrrrrrrrrrrrrrrrrrrrrrrrrrrrrrrrrrrrrrrrrrrrrrrrrrrrrrrrrrrrrrrrrrrrrrrrrrrr",
"rrrrrrrrrrrrrrrrrrrrrrrrrrrrrrrrrrrrrrrrrrrrrrrrrrrrrrrrrrrrrrrrrrrrrrrrrrrrrrrrrrrrrrrrrrrrrrrrrrrrrrrr",
"rrrrrrrrrrrrrrrrrrrrrrrrrrrrrrrrrrrrrrrrrrrrrrrrrrrrrrrrrrrrrrrrrrrrrrrrrrrrrrrrrrrrrrrrrrrrrrrrrrrrrrrr",
"rrrrrrrrrrrrrrrrrrrrrrrrrrrrrrrrrrrrrrrrrrrrrrrrrrrrrrrrrrrrrrrrrrrrrrrrrrrrrrrrrrrrrrrrrrrrrrrrrrrrrrrr",
"rrrrrrrrrrrrrrrrrrrrrrrrrrrrrrrrrrrrrrrrrrrrrrrrrrrrrrrrrrrrrrrrrrrrrrrrrrrrrrrrrrrrrrrrrrrrrrrrrrrrrrrr",
"rrrrrrrrrrrrrrrrrrrrrrrrrrrrrrrrrrrrrrrrrrrrrrrrrrrrrrrrrrrrrrrrrrrrrrrrrrrrrrrrrrrrrrrrrrrrrrrrrrrrrrrr",
"rrrrrrrrrrrrrrrrrrrrrrrrrrrrrrrrrrrrrrrrrrrrrrrrrrrrrrrrrrrrrrrrrrrrrrrrrrrrrrrrrrrrrrrrrrrrrrrrrrrrrrrr",
"rrrrrrrrrrrrrrrrrrrrrrrrrrrrrrrrrrrrrrrrrrrrrrrrrrrrrrrrrrrrrrrrrrrrrrrrrrrrrrrrrrrrrrrrrrrrrrrrrrrrrrrr",
"rrrrrrrrrrrrrrrrrrrrrrrrrrrrrrrrrrrrrrrrrrrrrrrrrrrrrrrrrrrrrrrrrrrrrrrrrrrrrrrrrrrrrrrrrrrrrrrrrrrrrrrr",
"rrrrrrrrrrrrrrrrrrrrrrrrrrrrrrrrrrrrrrrrrrrrrrrrrrrrrrrrrrrrrrrrrrrrrrrrrrrrrrrrrrrrrrrrrrrrrrrrrrrrrrrr",
"rrrrr6&OXXXX=aaa0@o<aaatXoXXoXoXXoXXoXXoX-rr4+++@1rrrrrrrrrrrrrrr1wrrrrrrrrrrrrw#wrrrrrrrrrrrrrrrrrrrrrr",
"rrrr5oXXoXoX3aa0XXXXuaapOXXXoXooXoXXooXoo=rr1+695+=rrrrrrrrrrrrrrO9rrrrrrrrrrrrw+rrrrrrrrrrrrrrrrrrrrrrr",
"rrrr+XooXoo.0ap+XXX.0aaa%XoXXXXXoXoXXXXoX=rr1#rrreo9r1%&6r14rr16;O&99&#-erw=#=re+>&&wrr>#=wr9&#-errrrrrr",
"rrrrXoXoXXo.0a0XoXXXtaaa%XoXXoXXXoXXoXXoo=rr1#rrrr+64+65@e&=rr&>8O>e+>8#;r+-6&#ro=6=#r-&61#e+>6&-rrrrrrr",
"rrrrXoXXXXXX7a<.oXX@aaaa$XoXoXoooXXoXXooo=rr1+rrrr+6%-55O>--rr*1rO9r+&6we4+rrr4w+er6+rO>44o4#&6eerrrrrrr",
"rrrrXXXoXXo.3a-.ooX0aaapOXoXXXoXoXoXXXooo=rr1+rrrrO6+&&&-6=-rr&1r+6rr;++4>#rrrrw+er6#eO&&&-9r-#+1rrrrrrr",
"rrrrXXoXoXo.*a:XX.7aaaaqXXXXXoXXXoXooXXoX=rr1#rrr-+r#1rr16--rr+2rO9r=rr4+6Orr8+e+er8#r+9rr>6-rr4Xrrrrrrr",
"rrrrXoXoXooXOa3 O0aaaaa=XXXXoXXooXoXXXXOX=rr2o&&+#6r6+=&+e6O-=O2r+#9&+-+-r&#-O1r+er6+r4O-##e&+-+-rrrrrrr",
"rrrroXoXoXXoXtu:iaaaaaqXXXXXXooXXoXXOXXoX=rre5449rrrre12err6169wre4wr616rrr618rr6rre8rrw14rrr6>5rrrrrrrr",
"rrrroXXoXXoo 3aaaaaaauOXoooXoXXXoXoXXXooX=rrrrrrrrrrrrrrrrrrrrrrrrrrrrrrrrrrrrrrrrrrrrrrrrrrrrrrrrrrrrrr",
"rrrrXXoXXoXO7aaaaaaatOXoXXXoXXoooXXXoXXoX=rrrrrrrrrrrrrrrrrrrrrrrrrrrrrrrrrrrrrrrrrrrrrrrerrrrrrrrrrrrrr",
"rrrroXXoXX=iaaaaaaa7XXooXooXXoXXXXoooXXoX=rrrrrrrrrrrrrrrrrrrrrrrrrrrrrrrrrrrrrrrrrrrrrrrrrrrrrrrrrrrrrr",
"rrrrXooXX3aaaaaaap:.XXXXoXXXoXoXoXXXXXooo=rr4&&9rr6#&6rrrrrrrrerrrr;+r>&errrrrrrrrrrrrrrrrrrrrrrrrrrrrrr",
"rrrrXXXoqaaaaaaaa@ oXXXXXXoXXoXXoXoXXXooo=rr;Xo>rr=XX5rrrrrrrrrrrrr1=r&Xerrrrrrrrrrrrrrrrrrrrrrrrrrrrrrr",
"rrrrXXXqaaaaaaq:a,XoXXXooXXoXoXoXoXooXXoo=rr;oo+reOXo691wr51ee;#=6r61r=Xrw>5rrrrrrrrrrrrrrrrrrrrrrrrrrrr",
"rrrroXqaaaaaa3X yuXoXXXXXXooXXXXoXXXoXXoo=rr;X+ow5X&X91X6r&Xe&X1#Xw&Xr&o9+O9rrrrrrrrrrrrrrrrrrrrrrrrrrrr",
"rrrr.3aaaaap*.oX:a& XO@@@X.XXoXXXooXXXooo=rr;X1o1=+1X94o6r-oe+X166r=Xr=o+Oerrrrrrrrrrrrrrrrrrrrrrrrrrrrr",
"rrrr:aaaaap&.OX.@pyqupaapu0=oXXXoXoXXoXoX=rr;X6&+O;4o92X6r- ee-OX+e=Xr=Xoo6rrrrrrrrrrrrrrrrrrrrrrrrrrrrr",
"rrrraaaaaa*.oXo3iaaaaaaaaaaay&XoXoXoXoooo=rr>o64XX94o64X2r&ow=2r2o2-Xr=ow+Oerrrrrrrrrrrrrrrrrrrrrrrrrrrr",
"rrrraaaaa3.oX@uaaaaaaaaaaaaaaa*Xo oXoXXoo=rr;X6eXOr1X6wXX+OXe=X&+Ow&Xr&Xr6X&rrrrrrrrrrrrrrrrrrrrrrrrrrrr",
"rrrraaaaioXXOiaaapua37yaaaaaaaiOXooXXXooX=rr95er66rw6er61495rr5;>wr66r66rr64rrrrrrrrrrrrrrrrrrrrrrrrrrrr",
"rrrraaaa3.oX0aaa7o@a& X&uaaaaaa: OXoXoooo=rrrrrrrrrrrrrrrrrrrrrrrrrrrrrrrrrrrrrrrrrrrrrrrrrrrrrrrrrrrrrr",
"rrrraaaa*.X@aaa,.X.tqXXXouaaaaa7 OXoXXXoX=rrrrrrrrrrrrrrerrrrrrrrrrrrrrrrrrrrrrrrrrrrrrrrrrrrrrrrrrrrrrr",
"rrrraaaa*XX=aatXooX-aOXo.=aaaaa7 ooXoXXoo=rrrrrrrrrrrrrrrrrrrrrrrrrrrrrrrrrrrrrrrrrrrrrrrrrrrrrrrrrrrrrr",
"rrrraaaa*XX&aa3XoXXoa,.oXoiaaaa: OoXXoooX=rr655555errrrrrrrrrrrrrerrrrrrrrrrrrrrr64rrrrrrrrrrrrrrrrrrrrr",
"rrrryaaa7XoX7a0 XXo 0u.ooXyaaapoXoXooXXoX=rr;XooXo5rrrrrrrrrrrrrrrrrrrrrrrrrrrrrr+orrrrrrrrrrrrrrrrrrrrr",
"rrrr@iaaa@XoX,u,OXo.&a@XXOpaaa&XooXXXXooX=rr1o;669ere46rre6r6e9ee4wrre54wrrrw46rr%+e68rrre56rrw9r56rrrrr",
"rrrrX&aaauOXXXo=*@ooXp3 .0aau&XoXXXoo ooo=rr;X1eerr5OOo&r1 &X2+++XO6r+++X1r>oOo;r&O+XX1r4Ooo=r-o#oo=rrrr",
"rrrrX.*aaau*X.X..XXX ,p&tap3oXoXoXooooXoX=rr;Xo X#rO&e2X52o#6e+Ow6X;6X>e;>6X;e-ow=X5wO+ro&e1X6>X>e+orrrr",
"rrrrooX&uaaaq,%+oOO@*0aau,+.XoXoXXoXoXXoo-rr;X&1146X+O+o-2O6rrO#reX=e&oo=w2o+O+O4&orrO%6X+O+o;>Xwr*orrrr",
"rrrr&ooXO,tpaaaaaapppwtiX XoXXoXXooXXoooX=rr1o2rrr9X-w9461O6rr+#rwo-w6w4O+2o1w64w&orr+%9o-9949>o9r&orrrr",
"rrrrw#XoX.XO&**===@@X #a%XoXXXoooXXooXXoX=rr;X1rrrr#O1-O92X6rro+rwX-6o;6O+e++2&+e+XrrO+r++2-Ow;o9r&Xrrrr",
"rrrrrr1&@@@+OOOooOO@@@+p3.oXXoXXXXoXXXooX=rr4#4rrrre=oO1r4#9rr&-re#>r1+O#9r6#O+6r-&rr&-re&X+2r1#9r-&rrrr",
"rrrrrrrrrrrrrrrrrrrrrrrrrrrrrrrrrrrrrrrrrrrrrrrrrrrrrrrrrrrrrrrrrrrrrrrrrrrrrrrrrrrrrrrrrrrrrrrrrrrrrrrr",
"rrrrrrrrrrrrrrrrrrrrrrrrrrrrrrrrrrrrrrrrrrrrrrrrrrrrrrrrrrrrrrrrrrrrrrrrrrrrrrrrrrrrrrrrrrrrrrrrrrrrrrrr",
"rrrrrrrrrrrrrrrrrrrrrrrrrrrrrrrrrrrrrrrrrrrrrrrrrrrrrrrrrrrrrrrrrrrrrrrrrrrrrrrrrrrrrrrrrrrrrrrrrrrrrrrr",
"rrrrrrrrrrrrrrrrrrrrrrrrrrrrrrrrrrrrrrrrrrrrrrrrrrrrrrrrrrrrrrrrrrrrrrrrrrrrrrrrrrrrrrrrrrrrrrrrrrrrrrrr",
"rrrrrrrrrrrrrrrrrrrrrrrrrrrrrrrrrrrrrrrrrrrrrrrrrrrrrrrrrrrrrrrrrrrrrrrrrrrrrrrrrrrrrrrrrrrrrrrrrrrrrrrr",
"rrrrrrrrrrrrrrrrrrrrrrrrrrrrrrrrrrrrrrrrrrrrrrrrrrrrrrrrrrrrrrrrrrrrrrrrrrrrrrrrrrrrrrrrrrrrrrrrrrrrrrrr",
"rrrrrrrrrrrrrrrrrrrrrrrrrrrrrrrrrrrrrrrrrrrrrrrrrrrrrrrrrrrrrrrrrrrrrrrrrrrrrrrrrrrrrrrrrrrrrrrrrrrrrrrr",
"rrrrrrrrrrrrrrrrrrrrrrrrrrrrrrrrrrrrrrrrrrrrrrrrrrrrrrrrrrrrrrrrrrrrrrrrrrrrrrrrrrrrrrrrrrrrrrrrrrrrrrrr",
"rrrrrrrrrrrrrrrrrrrrrrrrrrrrrrrrrrrrrrrrrrrrrrrrrrrrrrrrrrrrrrrrrrrrrrrrrrrrrrrrrrrrrrrrrrrrrrrrrrrrrrrr",
"rrrrrrrrrrrrrrrrrrrrrrrrrrrrrrrrrrrrrrrrrrrrrrrrrrrrrrrrrrrrrrrrrrrrrrrrrrrrrrrrrrrrrrrrrrrrrrrrrrrrrrrr",
"rrrrrrrrrrrrrrrrrrrrrrrrrrrrrrrrrrrrrrrrrrrrrrrrrrrrrrrrrrrrrrrrrrrrrrrrrrrrrrrrrrrrrrrrrrrrrrrrrrrrrrrr",
"rrrrrrrrrrrrrrrrrrrrrrrrrrrrrrrrrrrrrrrrrrrrrrrrrrrrrrrrrrrrrrrrrrrrrrrrrrrrrrrrrrrrrrrrrrrrrrrrrrrrrrrr",
"rrrrrrrrrrrrrrrrrrrrrrrrrrrrrrrrrrrrrrrrrrrrrrrrrrrrrrrrrrrrrrrrrrrrrrrrrrrrrrrrrrrrrrrrrrrrrrrrrrrrrrrr",
"rrrrrrrrrrrrrrrrrrrrrrrrrrrrrrrrrrrrrrrrrrrrrrrrrrrrrrrrrrrrrrrrrrrrrrrrrrrrrrrrrrrrrrrrrrrrrrrrrrrrrrrr",
"rrrrrrrrrrrrrrrrrrrrrrrrrrrrrrrrrrrrrrrrrrrrrrrrrrrrrrrrrrrrrrrrrrrrrrrrrrrrrrrrrrrrrrrrrrrrrrrrrrrrrrrr",
"rrrrrrrrrrrrrrrrrrrrrrrrrrrrrrrrrrrrrrrrrrrrrrrrrrrrrrrrrrrrrrrrrrrrrrrrrrrrrrrrrrrrrrrrrrrrrrrrrrrrrrrr",
"rrrrrrrrrrrrrrrrrrrrrrrrrrrrrrrrrrrrrrrrrrrrrrrrrrrrrrrrrrrrrrrrrrrrrrrrrrrrrrrrrrrrrrrrrrrrrrrrrrrrrrrr",
"rrrrrrrrrrrrrrrrrrrrrrrrrrrrrrrrrrrrrrrrrrrrrrrrrrrrrrrrrrrrrrrrrrrrrrrrrrrrrrrrrrrrrrrrrrrrrrrrrrrrrrrr",
"rrrrrrrrrrrrrrrrrrrrrrrrrrrrrrrrrrrrrrrrrrrrrrrrrrrrrrrrrrrrrrrrrrrrrrrrrrrrrrrrrrrrrrrrrrrrrrrrrrrrrrrr",
"rrrrrrrrrrrrrrrrrrrrrrrrrrrrrrrrrrrrrrrrrrrrrrrrrrrrrrrrrrrrrrrrrrrrrrrrrrrrrrrrrrrrrrrrrrrrrrrrrrrrrrrr",
"rrrrrrrrrrrrrrrrrrrrrrrrrrrrrrrrrrrrrrrrrrrrrrrrrrrrrrrrrrrrrrrrrrrrrrrrrrrrrrrrrrrrrrrrrrrrrrrrrrrrrrrr",
"rrrrrrrrrrrrrrrrrrrrrrrrrrrrrrrrrrrrrrrrrrrrrrrrrrrrrrrrrrrrrrrrrrrrrrrrrrrrrrrrrrrrrrrrrrrrrrrrrrrrrrrr"
};
