/* XPM */
static char *EURO_STAR[] = {
/* columns rows colors chars-per-pixel */
"104 78 183 2",
"   c #343DB4",
".  c #096FB3",
"X  c #0B72B4",
"o  c #147BB8",
"O  c #3A42B5",
"+  c #297EB6",
"@  c #5D0AB4",
"#  c #600FB5",
"$  c #6414B5",
"%  c #790AB3",
"&  c #7D14B5",
"*  c #6D27B9",
"=  c #702BB9",
"-  c #7D3BBD",
";  c #424BB7",
":  c #4B55B9",
">  c #555CBB",
",  c #5A62BD",
"<  c #7F43BE",
"1  c #6269BE",
"2  c #6A69C0",
"3  c #6C73C1",
"4  c #757BC3",
"5  c #1E81BB",
"6  c #2784BB",
"7  c #368ABE",
"8  c #0A92E8",
"9  c #1697E9",
"0  c #3F90C0",
"q  c #269CE7",
"w  c #309EE6",
"e  c #2FA2EA",
"r  c #458DBE",
"t  c #4C91BE",
"y  c #4895C2",
"u  c #569AC3",
"i  c #5EA0C6",
"p  c #42A6E5",
"a  c #55ADE5",
"s  c #679CC5",
"d  c #7D82C5",
"f  c #779EC8",
"g  c #66A3C7",
"h  c #6DABD5",
"j  c #78ABCA",
"k  c #70B3DF",
"l  c #62B1E3",
"z  c #78B9E3",
"x  c #A6072C",
"c  c #A70F33",
"v  c #A91738",
"b  c #AE243F",
"n  c #9F086F",
"m  c #9F0970",
"M  c #A00C71",
"N  c #A1116F",
"B  c #A11476",
"V  c #AB2444",
"C  c #B02D46",
"Z  c #B0304D",
"A  c #A6247C",
"S  c #B74B62",
"D  c #BA566B",
"F  c #BE667A",
"G  c #DA2B2D",
"H  c #DA2F32",
"J  c #DB3638",
"K  c #DA3E41",
"L  c #EB4F03",
"P  c #EC5104",
"I  c #EA5A17",
"U  c #E9601E",
"Y  c #E9672B",
"T  c #E86B31",
"R  c #E97132",
"E  c #DB494B",
"W  c #DB5859",
"Q  c #DB5E62",
"!  c #DB686B",
"~  c #DA7678",
"^  c #E77541",
"/  c #811BB6",
"(  c #950AB4",
")  c #9B16B6",
"_  c #8627B9",
"`  c #8E37BC",
"'  c #9E25B8",
"]  c #903BBD",
"[  c #AB3685",
"{  c #A02CBB",
"}  c #A338BC",
"|  c #A234C0",
" . c #824ABF",
".. c #9546BF",
"X. c #AF438C",
"o. c #B65A98",
"O. c #BA679F",
"+. c #BF7391",
"@. c #BB6DA2",
"#. c #BE75A7",
"$. c #BB74B6",
"%. c #844FC0",
"&. c #8B57C2",
"*. c #9D57C2",
"=. c #8C64C4",
"-. c #887CC6",
";. c #9468C6",
":. c #9F78C9",
">. c #A059C2",
",. c #B05EC2",
"<. c #A96AC6",
"1. c #A878C9",
"2. c #B469C5",
"3. c #B679C9",
"4. c #C47C8B",
"5. c #DB7F80",
"6. c #C07DAB",
"7. c #F68703",
"8. c #F48E17",
"9. c #F49317",
"0. c #F29425",
"q. c #E6895D",
"w. c #EE9F42",
"e. c #E58D66",
"r. c #E5926A",
"t. c #E39677",
"y. c #EFA246",
"u. c #EAA967",
"i. c #E9B374",
"p. c #8888C7",
"a. c #8E96CA",
"s. c #9598CB",
"d. c #85AECB",
"f. c #88B3CD",
"g. c #9EA1CD",
"h. c #94B8CF",
"j. c #9CBCD0",
"k. c #84BDE2",
"l. c #A989CC",
"z. c #AD90CD",
"x. c #B794CE",
"c. c #BF9FD0",
"v. c #A5A8CF",
"b. c #AFB1D1",
"n. c #BDA7D2",
"m. c #B5B7D3",
"M. c #9AC4E1",
"N. c #A9C4D5",
"B. c #B9CBD6",
"V. c #BBD0DE",
"C. c #A8CAE1",
"Z. c #CA939E",
"A. c #DC8788",
"S. c #DF968A",
"D. c #DC9D9E",
"F. c #C283AE",
"G. c #C386B0",
"H. c #C99ABA",
"J. c #CDA5B9",
"K. c #DCA6A7",
"L. c #D0ACB5",
"P. c #DAB6B6",
"I. c #E3A182",
"U. c #E2AD95",
"Y. c #E7BA88",
"T. c #E5BE92",
"R. c #E0BAA9",
"E. c #CDA9C1",
"W. c #C8ACD3",
"Q. c #C9B6D5",
"!. c #D2BBCB",
"~. c #D1BBD5",
"^. c #DFC4B7",
"/. c #E3C7AA",
"(. c #E2CBB4",
"). c #E1D1BD",
"_. c #C8C9D7",
"`. c #CAD3D9",
"'. c #DACACA",
"]. c #D4C8D8",
"[. c #DFD5CA",
"{. c gainsboro",
"}. c #E0D0C0",
/* pixels */
"{.{.{.{.{.{.{.{.{.{.{.{.{.{.{.{.{.{.{.{.{.{.{.{.{.{.{.{.{.{.{.{.{.{.{.{.{.{.{.{.{.{.{.{.{.{.{.{.{.{.{.{.{.{.{.{.{.{.{.{.{.{.{.{.{.{.{.{.{.{.{.{.{.{.{.{.{.{.{.{.{.{.{.{.{.{.{.{.{.{.{.{.{.{.{.{.{.{.{.{.{.{.{.{.",
"{.{.{.{.{.{.{.{.{.{.{.{.{.{.{.{.{.{.{.{.{.{.{.{.{.{.{.{.{.{.{.{.{.{.{.{.{.{.{.{.{.{.{.{.{.{.{.{.{.{.{.{.{.{.{.{.{.{.{.{.{.{.{.{.{.{.{.{.{.{.{.{.{.{.{.{.{.{.{.{.{.{.{.{.{.{.{.{.{.{.{.{.{.{.{.{.{.{.{.{.{.{.{.{.",
"{.{.{.{.{.{.{.{.{.{.{.{.{.{.{.{.{.{.{.{.{.{.{.{.{.{.{.{.{.{.{.{.{.{.{.{.{.{.{.{.{.{.6.H.{.{.{.{.{.{.{.{.{.{.{.{.{.{.{.{.E.@.{.{.{.{.{.{.{.{.{.{.{.{.{.{.{.{.{.{.{.{.{.{.{.{.{.{.{.{.{.{.{.{.{.{.{.{.{.{.{.{.{.{.",
"{.{.{.{.{.{.{.{.{.{.{.{.{.{.{.{.{.{.{.{.{.{.{.{.{.{.{.{.{.{.{.{.{.{.{.{.{.{.{.{.{.{.#.n F.{.{.{.{.{.{.{.{.{.{.{.{.{.{.H.B X.{.{.{.{.{.{.{.{.{.{.{.{.{.{.{.{.{.{.{.{.{.{.{.{.{.{.{.{.{.{.{.{.{.{.{.{.{.{.{.{.{.{.",
"{.{.{.{.{.{.{.{.{.{.{.{.{.{.{.{.{.{.{.{.{.{.{.{.{.{.{.{.{.{.{.{.{.{.{.{.{.{.{.{.{.{.6.n n o.].{.{.{.{.{.{.{.{.{.{.{.@.n n O.{.{.{.{.{.{.{.{.{.{.{.{.{.{.{.{.{.{.{.{.{.{.{.{.{.{.{.{.{.{.{.{.{.{.{.{.{.{.{.{.{.{.",
"{.{.{.{.{.{.{.{.{.{.{.{.{.{.{.{.{.{.{.{.{.{.{.{.{.{.{.{.{.{.{.{.{.{.{.{.{.{.{.{.{.{.F.M M n [ !.{.{.{.{.{.{.{.{.].[ n M n O.{.{.{.{.{.{.{.{.{.{.{.{.{.{.{.{.{.{.{.{.{.{.{.{.{.{.{.{.{.{.{.{.{.{.{.{.{.{.{.{.{.{.",
"{.{.{.{.{.{.{.{.{.{.{.{.{.{.{.{.{.{.{.{.{.{.{.{.{.{.{.{.{.{.{.{.{.{.{.{.{.{.{.{.{.{.F.n M M n B G.{.{.{.{.{.{.J.B n M M n O.{.{.{.{.{.{.{.{.{.{.{.{.{.{.{.{.{.{.{.{.{.{.{.{.{.{.{.{.{.{.{.{.{.{.{.{.{.{.{.{.{.{.",
"{.{.{.{.{.{.{.{.{.{.{.{.{.{.{.{.{.{.{.{.{.{.{.{.{.{.{.{.{.{.{.{.{.{.{.{.{.{.{.{.{.{.G.n M n M n n @.].{.{.{.6.n n M n M n #.{.{.{.{.{.{.{.{.{.{.{.{.{.{.{.{.{.{.{.{.{.{.{.{.{.{.{.{.{.{.{.{.{.{.{.{.{.{.{.{.{.{.",
"{.{.{.{.{.{.{.{.{.{.{.{.{.{.{.{.{.{.{.{.{.{.{.{.{.{.{.{.{.{.{.{.{.{.{.{.{.{.{.{.{.{.H.M M n n n n n J.{.{.!.n n M n n M n F.{.{.{.{.{.{.{.{.{.{.{.{.{.{.{.{.{.{.{.{.{.{.{.{.{.{.{.{.{.{.{.{.{.{.{.{.{.{.{.{.{.{.",
"{.{.{.{.{.{.{.{.{.{.{.{.{.{.{.{.{.{.{.{.{.{.{.{.{.{.{.{.{.{.{.{.{.{.{.{.{.{.{.{.].{.H.M M n n n n A ].{.{.{.[ n n n n M n G.{.{.{.{.{.{.{.{.{.{.{.{.{.{.{.{.{.{.{.{.{.{.{.{.{.{.{.{.{.{.{.{.{.{.{.{.{.{.{.{.{.{.",
"{.{.{.{.{.{.{.{.{.{.{.{.{.{.{.{.{.{.{.{.{.{.{.{.{.{.{.{.{.{.{.{.{.{.{.'.4.L.{.{.{.{.H.M M n M M n o.{.{.{.{.6.n M n n M n F.{.{.{.{.~.3.~.{.{.{.{.{.{.{.{.{.{.{.{.{.{.{.{.{.{.{.{.{.{.{.{.{.{.{.{.{.{.{.{.{.{.{.",
"{.{.{.{.{.{.{.{.{.{.{.{.{.{.{.{.{.{.{.{.{.{.{.{.{.{.{.{.{.{.{.{.{.{.{.'.x x Z 4.L.{.~.M n n M M n H.{.].{.{.!.M M n M n n J.{.W.3.} ( ( ~.{.{.{.{.{.{.{.{.{.{.{.{.{.{.{.{.{.{.{.{.{.{.{.{.{.{.{.{.{.{.{.{.{.{.{.",
"{.{.{.{.{.{.{.{.{.{.{.{.{.{.{.{.{.{.{.{.{.{.{.{.{.{.{.{.{.{.{.{.{.{.{.'.v x x x x V ! O.o.[ B n B '.{.{.{.{.{.[ n N [ o.$.2.{ ( ( ( ( ( ~.{.{.{.{.{.{.{.{.{.{.{.{.{.{.{.{.{.{.{.{.{.{.{.{.{.{.{.{.{.{.{.{.{.{.{.",
"{.{.{.{.{.{.{.{.{.{.{.{.{.{.{.{.{.{.{.{.{.{.{.{.{.{.'.{.{.{.{.{.{.{.{.'.v x x x x x x x C D 4.o.6.{.{.{.{.{.{.6.o.$.,.{ ( ( ( ( ( ( ( ( ~.{.{.{.{.{.{.{.{.].{.{.{.{.{.{.{.{.{.{.{.{.{.{.{.{.{.{.{.{.{.{.{.{.{.{.",
"{.{.{.{.{.{.{.{.{.{.{.{.{.{.{.{.{.{.{.{.{.{.{.{.{.{.! Q D.[.{.{.{.{.{.'.v x x x x x x x x x x V L.{.{.{.{.{.{.~.{ ( ( ( ( ( ( ( ( ( ( ( ~.{.{.{.{.{.].c.*.%.].{.{.{.{.{.{.{.{.{.{.{.{.{.{.{.{.{.{.{.{.{.{.{.{.{.",
"{.{.{.{.{.{.{.{.{.{.{.{.{.{.{.{.{.{.{.{.{.{.{.{.{.{.K.G G K ~ P.{.{.{.'.v x x x x x x x x x x c '.{.{.{.{.{.{.{.{ ( ( ( ( ( ( ( ( ( ( ( ~.{.{.{.W.<._ % % 1.{.{.{.{.{.{.{.{.{.{.{.{.{.{.{.{.{.{.{.{.{.{.{.{.{.{.",
"{.{.{.{.{.{.{.{.{.{.{.{.{.{.{.{.{.{.{.{.{.{.{.{.{.{.[.K G G G G E A.'.].v x x x x x x x x x x Q {.{.{.{.{.{.{.{.2.( ( ( ( ( ( ( ( ( ( ( ~.].3.` % % % % & ].{.{.{.{.{.{.{.{.{.{.{.{.{.{.{.{.{.{.{.{.{.{.{.{.{.{.",
"{.{.{.{.{.{.{.{.{.{.{.{.{.{.{.{.{.{.{.{.{.{.{.{.{.{.{.~ G G G G G G G 5.V x x x x x x x x x x Z.{.{.{.{.{.{.{.{.W.( ( ( ( ( ( ( ( ( ( ) 3.& % % % % % % *.{.{.{.{.{.{.{.{.{.{.{.{.{.{.{.{.{.{.{.{.{.{.{.{.{.{.{.",
"{.{.{.{.{.{.{.{.{.{.{.{.{.{.{.{.{.{.{.{.{.{.{.{.{.[.{.P.G G G G G G G ~ V x x x x x x x x x c '.{.{.{.{.{.{.{.{.{.{ ( ( ( ( ( ( ( ( ( ) <.% % % % % % % x.{.].{.{.{.{.{.{.{.{.{.{.{.{.{.{.{.{.{.{.{.{.{.{.{.{.{.",
"{.{.{.{.{.{.{.{.{.{.{.{.{.{.{.{.{.{.{.{.{.{.{.{.{.{.{.{.E G G G G G G ~ V x x x x x x x x x S {.{.{.{.{.{.{.{.{.{.2.( ( ( ( ( ( ( ( ( ) 2.% % % % % % & ].{.{.{.{.{.{.{.{.{.{.{.{.{.{.{.{.{.{.{.{.{.{.{.{.{.{.{.",
"{.{.{.{.{.{.{.{.{.{.{.{.{.{.{.{.{.{.{.{.{.{.{.{.{.{.{.{.A.G G G G G G ~ V x x x x x x x x x Z.{.{.{.{.{.{.{.{.{.{.W.( ( ( ( ( ( ( ( ( ) <.% % % % % % *.{.{.{.{.{.{.{.{.{.{.{.{.{.{.{.{.{.{.{.{.{.{.{.{.{.{.{.{.",
"{.{.{.{.{.{.{.{.{.{.{.{.{.{.{.{.{.{.{.{.{.{.{.{.{.{.{.{.P.G G G G G G ~ V x x x x x x x x c '.{.{.{.{.{.{.{.{.{.{.{.' ( ( ( ( ( ( ( ( ) <.% % % % % % W.{.{.{.{.{.{.{.{.{.{.{.{.{.{.{.{.{.{.{.{.{.{.{.{.{.{.{.{.",
"{.{.{.{.{.{.{.{.{.{.{.{.{.{.{.{.{.{.{.{.{.{.{.{.{.{.{.{.{.W G G G G G ~ V x x x c x x x x S {.].{.{.{.{.{.{.{.{.{.{.2.( ( ( ( ( ( ( ( ) <.% % % % % _ {.{.{.{.{.{.{.{.{.{.{.{.{.{.{.{.{.{.{.{.{.{.{.{.{.{.{.{.{.",
"{.{.{.{.{.{.{.{.{.{.{.{.{.{.{.{.{.{.{.{.{.{.{.{.{.{.{.{.{.'.P.P.P.P.P.'.L.L.L.L.J.J.J.E.L.'.{.{.{.{.{.{.{.{.{.{.{.{.].W.W.W.W.W.W.W.W.W.].W.W.n.W.W.].{.{.{.{.{.{.{.{.{.{.{.{.{.{.{.{.{.{.{.{.{.{.{.{.{.{.{.{.{.",
"{.{.{.{.{.{.{.{.{.{.{.{.{.{.{.{.{.{.{.{.{.{.{.{.{.{.{.{.{.{.{.{.{.{.{.{.{.{.{.{.{.{.{.{.{.{.{.{.{.{.{.{.{.{.{.{.{.{.{.{.{.{.{.{.{.{.{.{.{.{.{.{.{.{.{.{.{.{.{.{.{.{.{.{.{.{.{.{.{.{.{.{.{.{.{.{.{.{.{.{.{.{.{.{.",
"{.{.{.{.{.{.{.{.{.{.{.{.{.{.{.{.{.{.{.{.{.{.{.{.{.{.{.{.{.{.{.{.{.{.{.{.{.[.{.{.{.{.{.[.{.{.{.{.{.{.{.{.{.{.{.{.{.{.{.{.{.{.{.{.{.{.{.{.{.{.{.{.{.{.{.{.{.{.{.{.{.{.{.{.{.{.{.{.{.{.{.{.{.{.{.{.{.{.{.{.{.{.{.{.",
"{.{.{.{.{.{.{.{.{.{.{.{.{.{.{.{.{.{.{.{.{.{.{.{.{.{.{.'.D.{.{.{.{.{.{.{.{.{.{.{.{.{.{.{.{.{.{.{.{.{.{.{.{.{.{.{.{.{.{.{.{.{.{.{.{.{.{.{.{.{.{.{.{.{.{.W.].{.{.{.{.{.{.{.{.{.{.{.{.{.{.{.{.{.{.{.{.{.{.{.{.{.{.{.",
"{.{.{.{.{.{.{.{.{.{.{.{.{.{.{.{.{.{.{.{.{.{.{.{.{.{.P.E G W '.{.{.{.{.{.{.{.{.{.{.{.{.{.{.{.{.{.{.{.{.{.{.{.{.{.{.{.{.{.{.{.{.{.{.{.{.{.{.{.{.{.{.]...% _ c.{.{.{.{.{.{.{.{.{.{.{.{.{.{.{.{.{.{.{.{.{.{.{.{.{.{.",
"{.{.{.{.{.{.{.{.{.{.{.{.{.{.{.{.{.{.{.{.{.{.{.{.{.~ G G G G H D.{.{.{.{.{.{.{.{.{.{.{.{.{.{.{.{.{.{.{.{.{.{.{.{.{.{.{.{.{.{.{.{.{.{.{.{.{.{.{.{.W._ % % % % <.].{.{.{.{.{.{.{.{.{.{.{.{.{.{.{.{.{.{.{.{.{.{.{.{.",
"{.{.{.{.{.{.{.{.{.{.{.{.{.{.{.{.{.{.{.{.{.{.{.P.E G G G G G G G ! ].{.{.{.{.{.{.{.{.{.{.{.{.{.{.{.{.{.{.{.{.{.{.{.{.{.{.{.{.{.{.{.{.{.{.{.{.{.<.% % % % % % % _ c.{.{.{.{.{.{.{.{.{.{.{.{.{.{.{.{.{.{.{.{.{.{.{.",
"{.{.{.{.{.{.{.{.{.{.{.{.{.{.{.{.{.{.{.{.{.{.5.G G G G G G G G G K t.U.{.{.{.{.{.{.{.{.{.{.{.{.{.{.{.{.{.{.{.{.{.{.{.{.{.{.{.{.{.{.{.{.{.{.W.:._ % % % % % % & % % ..].{.{.{.{.{.{.{.{.{.{.{.{.{.{.{.{.{.{.{.{.{.",
"{.{.{.{.{.{.{.{.{.{.{.{.{.{.{.{.{.{.{.{.K.E G G G G G G G G G H S.P L t.{.{.{.{.{.{.{.{.{.{.{.{.{.{.{.{.{.{.{.{.{.{.{.{.{.{.{.{.{.{.{.{.z.$ @ 1./ % % % % % % & % % & x.{.{.{.{.{.{.{.{.{.{.{.{.{.{.{.{.{.{.{.{.",
"{.{.{.{.{.{.{.{.{.{.{.{.{.{.{.{.{.{.{.{.P.A.W H G G G G G G G t.R P P P ^ '.{.{.{.{.{.{.{.{.{.{.{.{.{.{.{.{.{.{.{.{.{.{.{.{.{.{.{.{.`. .$ # @ * 1.% & % % % % % & ] <.c.{.{.{.{.{.{.{.{.{.{.{.{.{.{.{.{.{.{.{.{.",
"{.{.{.{.{.{.{.{.{.{.{.{.{.{.{.{.{.{.{.{.{.{.{.'.K.~ E G G G Q q.P P P P P I U.{.{.{.{.{.{.{.{.{.{.{.{.{.{.{.{.{.{.{.{.{.{.{.{.{.{.n.= @ $ @ @ @  ...% % % _ ..x.].{.{.{.{.{.{.{.{.{.{.{.{.{.{.{.{.{.{.{.{.{.{.{.",
"{.{.{.{.{.{.{.{.{.{.{.{.{.{.{.{.{.{.{.{.{.{.{.{.{.{.{.!.A.! t.L P P P P P L L q.{.{.{.{.{.{.{.{.{.{.{.{.{.{.{.{.{.{.{.{.{.{.{.{.1.@ @ @ @ @ @ @ @ ;.>.1.W.`.{.{.{.{.{.{.{.{.{.{.{.{.{.{.{.{.{.{.{.{.{.{.{.{.{.{.",
"{.{.{.{.{.{.{.{.{.{.{.{.{.{.{.{.{.{.{.{.{.{.{.{.{.{.{.{.{.'.I P P P P P L L P L Y ^.{.{.{.{.{.{.{.{.{.{.{.{.{.{.{.{.{.{.{.{.].- @ @ @ @ @ @ @ @ @ $ Q.{.{.{.{.{.{.{.{.{.{.{.{.{.{.{.{.{.{.{.{.{.{.{.{.{.{.{.{.{.",
"{.{.{.{.{.{.{.{.{.{.{.{.{.{.{.{.{.{.{.{.{.{.{.{.{.{.{.[.{.T L P L P L P P L P P L R.{.{.{.{.{.{.{.{.{.{.{.{.{.{.{.{.{.{.{.{.~.@ @ @ @ @ @ @ @ @ # @ * ].{.{.{.{.{.{.{.{.{.{.{.{.{.{.{.{.{.{.{.{.{.{.{.{.{.{.{.{.",
"{.{.{.{.{.{.{.{.{.{.{.{.{.{.{.{.{.{.{.{.{.{.{.{.{.{.{.{.r.L P L P L P L L P P P Y {.{.{.{.{.{.{.{.{.{.{.{.{.{.{.{.{.{.{.{.{.{. .@ @ @ @ @ @ @ @ @ @ @  .{.{.{.{.{.{.{.{.{.{.{.{.{.{.{.{.{.{.{.{.{.{.{.{.{.{.{.{.",
"{.{.{.{.{.{.{.{.{.{.{.{.{.{.{.{.{.{.{.{.{.{.{.{.{.{.{.R.P P P L P P L P L P P L r.{.[.{.{.{.{.{.{.{.{.{.{.{.{.{.{.{.{.{.{.{.{.l.@ @ @ @ @ @ @ @ @ @ $ @ z.{.{.{.{.{.{.{.{.{.{.{.{.{.{.{.{.{.{.{.{.{.{.{.{.{.{.{.",
"{.{.{.{.{.{.{.{.{.{.{.{.{.{.{.{.{.{.{.{.{.{.{.{.{.{.'.I P P L L P P P L P P P P R.{.{.{.{.{.{.{.{.{.{.{.{.{.{.{.{.{.{.{.{.{.{._.# @ @ @ @ @ @ @ @ @ @ $ $ Q.{.{.{.{.{.{.{.{.{.{.{.{.{.{.{.{.{.{.{.{.{.{.{.{.{.{.",
"{.{.{.{.{.{.{.{.{.{.{.{.{.{.{.{.{.{.{.{.{.{.{.{.{.{.q.L L L L P P P P P P P P Y {.{.{.{.{.{.{.{.{.{.{.{.{.{.{.{.{.{.{.{.{.{.{.{.< @ @ @ @ @ @ @ @ @ @ @ @  .{.{.{.{.{.{.{.{.{.{.{.{.{.{.{.{.{.{.{.{.{.{.{.{.{.{.",
"{.{.{.{.{.{.{.{.{.{.{.{.{.{.{.{.{.{.{.{.{.{.{.{.{.{.[.R.t.T L L P P P P P P P r.{.{.{.{.{.{.{.{.{.{.{.{.{.{.{.{.{.{.{.{.{.{.{.{.l.@ @ @ @ @ @ @ @ @ * &.n._.{.{.{.{.{.{.{.{.{.{.{.{.{.{.{.{.{.{.{.{.{.{.{.{.{.{.",
"{.{.{.{.{.{.{.{.{.{.{.{.{.{.{.{.{.{.{.{.{.{.{.{.{.{.{.{.{.{.^.t.R I L P P P P /.{.{.{.{.{.{.{.{.{.{.{.{.{.{.{.{.{.{.{.{.{.{.{.{._.$ @ @ @ @ $ - ;.n.{.{.{.{.{.{.{.{.{.{.{.{.{.{.{.{.{.{.{.{.{.{.{.{.{.{.{.{.{.{.",
"{.{.{.{.{.{.{.{.{.{.{.{.{.{.{.{.{.{.{.{.{.{.{.{.{.{.{.{.{.{.{.{.Y.u.q.^ U P U {.{.{.{.{.{.{.{.{.{.{.{.m.j.{.{.{.{.{.{.{.{.{.{.{.{.- @ $ ` =.p.a.{.{.{.{.{.{.{.{.{.{.{.{.{.{.{.{.{.{.{.{.{.{.{.{.{.{.{.{.{.{.{.{.",
"{.{.{.{.{.{.{.{.{.{.{.{.{.{.{.{.{.{.{.{.{.{.{.{.{.{.{.{.{.{.{.T.U 7.9.y.u.r.I.{.{.{.{.{.{.{.{.{.{.{.j X . s {.{.{.{.{.{.{.{.{.{.{.z.=.p.1 : O   a.{.{.{.{.{.{.{.{.{.{.{.{.{.{.{.{.{.{.{.{.{.{.{.{.{.{.{.{.{.{.{.",
"{.{.{.{.{.{.{.{.{.{.{.{.{.{.{.{.{.{.{.{.{.{.{.{.{.{.{.{.{.{.^.7.7.7.7.7.7.9.).{.{.{.{.{.{.{.{.{._.r . . X . 7 B.{.{.{.{.{.{.{.{.{.`.: O O         b.{.{.{.{.{.{.{.{.{.{.{.{.{.{.{.{.{.{.{.{.{.{.{.{.{.{.{.{.{.{.",
"{.{.{.{.{.{.{.{.{.{.{.{.{.{.{.{.{.{.{.{.{.{.{.{.{.{.{.{.{.[.0.7.7.7.7.7.7.9.[.{.{.{.{.{.{.{.{.j.o . X . . X . X d.{.{.{.{.{.{.{.{.{.>   O O       O _.{.{.{.{.{.{.{.{.{.{.{.{.{.{.{.{.{.{.{.{.{.{.{.{.{.{.{.{.{.",
"{.{.{.{.{.{.{.{.{.{.{.{.{.{.{.{.{.{.{.{.{.{.{.{.{.{.{.{.{.w.7.7.7.7.7.7.7.u.{.{.{.{.{.{.{.{.s . X X . . . X X . . y `.{.].{.{.{.{.{.s.  O           > {.{.{.{.{.{.{.{.{.{.{.{.{.{.{.{.{.{.{.{.{.{.{.{.{.{.{.{.{.",
"{.{.{.{.{.{.{.{.{.{.{.{.{.{.{.{.{.{.{.{.{.{.{.{.{.{.{.{.i.7.7.7.7.7.7.7.7./.{.{.{.{.{.{.B.7 X X X . . . X . . . X . + N.{.{.{.{.{.{._.O O O O     O   1 {.{.{.{.{.{.{.{.{.{.{.{.{.{.{.{.{.{.{.{.{.{.{.{.{.{.{.{.",
"{.{.{.{.{.{.{.{.{.{.{.{.{.{.{.{.{.{.{.{.{.{.{.{.{.{.{.Y.7.7.7.7.7.7.7.7.8.{.{.{.{.{.{.k.h . X X X . . . . . X . X X . s a.{.{.{.{.{.{.,   O O O     O O a.{.{.{.{.{.{.{.{.{.{.{.{.{.{.{.{.{.{.{.{.{.{.{.{.{.{.{.",
"{.{.{.{.{.{.{.{.{.{.{.{.{.{.{.{.{.{.{.{.{.{.{.{.{.{.^.7.7.7.7.8.8.8.0.0.i.{.{.{.{.`.a 8 w g . X X . . . . X . . X . i 1   1 _.{.`.{.{.g.: : : ; ; O O O O b.{.{.{.{.{.{.{.{.{.{.{.{.{.{.{.{.{.{.{.{.{.{.{.{.{.{.",
"{.{.{.{.{.{.{.{.{.{.{.{.{.{.{.{.{.{.{.{.{.{.{.{.{.{.[.'.[.[.[.[.{.{.{.{.{.{.{.{.N.q 8 8 8 a t X X . X . . X . X . 7 p.  O   O v.{.{.{.{.`.`.{.`.`.`._._._._.{.{.{.{.{.{.{.{.{.{.{.{.{.{.{.{.{.{.{.{.{.{.{.{.{.{.",
"{.{.{.{.{.{.{.{.{.{.{.{.{.{.{.{.{.{.{.{.{.{.{.{.{.{.{.{.{.{.{.{.{.{.{.{.{.{.{.z 8 8 8 8 8 8 z 6 . . . . . . X . o a.  O         d [.{.{.{.{.{.{.{.{.{.{.{.{.{.{.{.{.{.{.{.{.{.{.{.{.{.{.{.{.{.{.{.{.{.{.{.{.{.{.",
"{.{.{.{.{.{.{.{.{.{.{.{.{.{.{.{.{.{.{.{.{.{.{.{.{.{.{.{.{.{.{.{.{.{.{.{.{.{.{.a 8 8 8 8 8 8 9 h X X . . . . X . f :         O   > {.{.{.{.{.{.{.{.{.{.{.{.{.{.{.{.{.{.{.{.{.{.{.{.{.{.{.{.{.{.{.{.{.{.{.{.{.{.{.",
"{.{.{.{.{.{.{.{.{.{.{.{.{.{.{.{.{.{.{.{.{.{.{.{.{.{.{.{.{.{.{.{.{.{.{.{.{.{.{.M.8 8 8 8 8 8 8 C.j . X . . . . i _.O             a.{.`.{.{.{.{.{.{.{.{.{.{.{.{.{.{.{.{.{.{.{.{.{.{.{.{.{.{.{.{.{.{.{.{.{.{.{.{.{.",
"{.{.{.{.{.{.{.{.{.{.{.{.{.{.{.{.{.{.{.{.{.{.{.{.{.{.{.{.{.{.{.{.{.{.{.{.{.{.{.`.9 8 8 8 8 8 l {.{.7 . . . . 6 `.{.s.  O         B.{.{.{.{.{.{.{.{.{.{.{.{.{.{.{.{.{.{.{.{.{.{.{.{.{.{.{.{.{.{.{.{.{.{.{.{.{.{.{.",
"{.{.{.{.{.{.{.{.{.{.{.{.{.{.{.{.{.{.{.{.{.{.{.{.{.{.{.{.{.{.{.{.{.{.{.{.{.{.{.{.p 8 8 8 8 q `.{.{._.o X X X N.{.[.{.,   O     ; {.{.{.{.{.{.{.{.{.{.{.{.{.{.{.{.{.{.{.{.{.{.{.{.{.{.{.{.{.{.{.{.{.{.{.{.{.{.{.{.",
"{.{.{.{.{.{.{.{.{.{.{.{.{.{.{.{.{.{.{.{.{.{.{.{.{.{.{.{.{.{.{.{.{.{.{.{.{.{.{.{.k.8 8 8 8 N.{.{.{.{.h.X . d.{.{.{.{._.O O O O 1 {.{.{.{.{.{.{.{.{.{.{.{.{.{.{.{.{.{.{.{.{.{.{.{.{.{.{.{.{.{.{.{.{.{.{.{.{.{.{.{.",
"{.{.{.{.{.{.{.{.{.{.{.{.{.{.{.{.{.{.{.{.{.{.{.{.{.{.{.{.{.{.{.{.{.{.{.{.{.{.{.{.V.8 8 8 l {.{.{.{.{.{.t r {.{.{.{.{.{.g.  O O v.{.{.{.{.{.{.{.{.{.{.{.{.{.{.{.{.{.{.{.{.{.{.{.{.{.{.{.{.{.{.{.{.{.{.{.{.{.{.{.{.",
"{.{.{.{.{.{.{.{.{.{.{.{.{.{.{.{.{.{.{.{.{.{.{.{.{.{.{.{.{.{.{.{.{.{.{.{.{.{.{.{.{.w 8 q {.{.{.{.{.{.{.{.`.{.{.{.{.{.{.{.1 O O `.{.{.{.{.{.{.{.{.{.{.{.{.{.{.{.{.{.{.{.{.{.{.{.{.{.{.{.{.{.{.{.{.{.{.{.{.{.{.{.{.",
"{.{.{.{.{.{.{.{.{.{.{.{.{.{.{.{.{.{.{.{.{.{.{.{.{.{.{.{.{.{.{.{.{.{.{.{.{.{.{.{.{.l 8 B.{.{.{.{.{.{.{.{.{.{.{.{.{.{.{.{.`.O , {.{.{.{.{.{.{.{.{.{.{.{.{.{.{.{.{.{.{.{.{.{.{.{.{.{.{.{.{.{.{.{.{.{.{.{.{.{.{.{.{.",
"{.{.{.{.{.{.{.{.{.{.{.{.{.{.{.{.{.{.{.{.{.{.{.{.{.{.{.{.{.{.{.{.{.{.{.{.{.{.{.{.{.M.a {.{.{.{.{.{.{.{.{.{.{.{.{.{.{.{.{.{.s.a.{.{.{.{.{.{.{.{.{.{.{.{.{.{.{.{.{.{.{.{.{.{.{.{.{.{.{.{.{.{.{.{.{.{.{.{.{.{.{.{.{.",
"{.{.{.{.{.{.{.{.{.{.{.{.{.{.{.{.{.{.{.{.{.{.{.{.{.{.{.{.{.{.{.{.{.{.{.{.{.{.{.{.{.`.`.{.{.{.{.{.{.{.{.{.{.{.{.{.{.{.{.{.{.{.[.{.{.{.{.{.{.{.{.{.{.{.{.{.{.{.{.{.{.{.{.{.{.{.{.{.{.{.{.{.{.{.{.{.{.{.{.{.{.{.{.{.",
"{.{.{.{.{.{.{.{.{.{.{.{.{.{.{.{.{.{.{.{.{.{.{.{.{.{.{.{.{.{.{.{.{.{.{.{.{.{.{.{.{.{.{.{.{.{.{.{.{.{.{.{.{.{.{.{.{.{.{.{.{.{.{.{.{.{.{.{.{.{.{.{.{.{.{.{.{.{.{.{.{.{.{.{.{.{.{.{.{.{.{.{.{.{.{.{.{.{.{.{.{.{.{.{.",
"{.{.{.{.{.{.{.{.{.{.{.{.{.{.{.{.{.{.{.{.{.{.{.{.{.{.{.{.{.{.{.{.{.{.{.{.{.{.{.{.{.{.{.{.{.{.{.{.{.{.{.{.{.{.{.{.{.{.{.{.{.{.{.{.{.{.{.{.{.{.{.{.{.{.{.{.{.{.{.{.{.{.{.{.{.{.{.{.{.{.{.{.{.{.{.{.{.{.{.{.{.{.{.{.",
"{.{.{.{.{.{.{.{.{.{.{.{.{.{.{.{.{.{.{.{.{.{.{.{.{.{.{.{.{.{.{.{.{.{.{.{.{.{.{.{.{.{.{.{.{.{.{.{.{.{.{.{.{.{.{.{.{.{.{.{.{.{.{.{.{.{.{.{.{.{.{.{.{.{.{.{.{.{.{.{.{.{.{.{.{.{.{.{.{.{.{.{.{.{.{.{.{.{.{.{.{.{.{.{.",
"{.{.{.{.{.{.{.{.{.{.{.{.{.{.{.{.{.{.{.{.{.{.{.{.{.{.{.{.{.{.{.{.{.{.{.{.{.{.{.{.{.{.{.{.{.{.`.{.{.{.{.{.{.{.{.`.{.{.{.{.{.{.{.{.{.{.{.{.{.{.{.{.{.{.{.{.{.{.{.{.{.{.{.{.{.{.{.{.{.{.{.{.{.{.{.{.{.{.{.{.{.{.{.{.",
"{.{.{.{.{.{.{.{.{.{.{.{.{.{.{.{.{.{.{.{.{.{.{.{.{.{.{.{.{.{.{.{.{.{.{.{.{.{.{.{.{.{.{.{.{.{.{.`.{.{.{.{.{.{.{.{.{.{.{.{.{.{.{.{.{.{.{.{.{.{.{.{.{.{.{.{.{.{.{.{.{.{.{.{.{.{.{.{.{.{.{.{.{.{.{.{.{.{.{.{.{.{.{.{.",
"{.{.{.{.{.{.{.{.{.{.{.{.{.{.{.{.{.{.{.{.{.{.{.{.{.{.{.{.{.{.{.{.{.{.{.{.{.f.i g N.{.{.B.j j j j j f.{.{.{.{.N.g B.{.{.{.{.{.f.g g g h.{.{.{.{.{.{.{.{.{.{.{.{.{.{.{.{.{.{.{.{.{.{.{.{.{.{.{.{.{.{.{.{.{.{.{.{.{.",
"{.{.{.{.{.{.{.{.{.{.{.{.{.{.{.{.{.{.{.{.{.{.{.{.{.{.{.{.{.{.{.{.{.{.{.{.i X 5 5 5 B.{.N.5 5 X 5 5 7 {.{.{.{.7 5 i {.{.{.{.`.5 5 5 5 5 y {.`.{.{.{.{.{.{.{.{.{.{.{.{.{.{.{.{.{.{.{.{.{.{.{.{.{.{.{.{.{.{.{.{.{.{.",
"{.{.{.{.{.{.{.{.{.{.{.{.{.{.{.{.{.{.{.{.{.{.{.{.{.{.{.{.{.{.{.{.{.{.{.`.5 7 {.{.j.{.{.{.`.`.5 i `.{.{.{.{.N.5 6 5 B.{.{.{.`.5 0 `.`.i 5 B.{.{.{.{.{.{.{.{.{.{.{.{.{.{.{.{.{.{.{.{.{.{.{.{.{.{.{.{.{.{.{.{.{.{.{.",
"{.{.{.{.{.{.{.{.{.{.{.{.{.{.{.{.{.{.{.{.{.{.{.{.{.{.{.{.{.{.{.{.{.{.{.{.7 5 6 j V.{.{.{.{.`.5 u {.{.{.{.{.y 6 V.5 j {.{.{.{.5 y {.`.y 5 `.{.{.{.{.{.{.{.{.{.{.{.{.{.{.{.{.{.{.{.{.{.{.{.{.{.{.{.{.{.{.{.{.{.{.{.",
"{.{.{.{.{.{.{.{.{.{.{.{.{.{.{.{.{.{.{.{.{.{.{.{.{.{.{.{.{.{.{.{.{.{.{.{.`.j 6 5 o N.{.{.{.`.X g {.{.{.{.B.5 y j.5 5 `.`.{.`.5 5 5 5 5 g {.{.{.{.{.{.{.{.{.{.{.{.{.{.{.{.{.{.{.{.{.{.{.{.{.{.{.{.{.{.{.{.{.{.{.{.",
"{.{.{.{.{.{.{.{.{.{.{.{.{.{.{.{.{.{.{.{.{.{.{.{.{.{.{.{.{.{.{.{.{.{.{.{.B.{.{.B.o g {.{.{.`.o g {.{.{.{.j 5 5 5 5 5 j.{.{.{.5 7 j 5 6 {.{.{.{.{.{.{.{.{.{.{.{.{.{.{.{.{.{.{.{.{.{.{.{.{.{.{.{.{.{.{.{.{.{.{.{.{.",
"{.{.{.{.{.{.{.{.{.{.{.{.{.{.{.{.{.{.{.{.{.{.{.{.{.{.{.{.{.{.{.{.{.{.{.`.5 5 i y X h.{.{.{.`.o i {.{.{.`.5 7 B.B.B.5 7 {.{.{.5 y {.h.5 i {.{.{.{.{.{.{.{.{.{.{.{.{.{.{.{.{.{.{.{.{.{.{.{.{.{.{.{.{.{.{.{.{.{.{.{.",
"{.{.{.{.{.{.{.{.{.{.{.{.{.{.{.{.{.{.{.{.{.{.{.{.{.{.{.{.{.{.{.{.{.{.{.{.N.y 5 5 j {.{.{.{.`.7 j {.{.{.N.7 N.{.{.{.j 7 B.{.{.0 g {.{.i 7 B.{.{.{.{.{.{.{.{.{.{.{.{.{.{.{.{.{.{.{.{.{.{.{.{.{.{.{.{.{.{.{.{.{.{.{.",
"{.{.{.{.{.{.{.{.{.{.{.{.{.{.{.{.{.{.{.{.{.{.{.{.{.{.{.{.{.{.{.{.{.{.{.{.{.{.{.{.{.{.{.{.{.{.{.{.{.{.{.{.{.{.{.{.{.{.{.{.{.{.{.{.{.{.{.{.{.{.{.{.{.{.{.{.{.{.{.{.{.{.{.{.{.{.{.{.{.{.{.{.{.{.{.{.{.{.{.{.{.{.{.{.",
"{.{.{.{.{.{.{.{.{.{.{.{.{.{.{.{.{.{.{.{.{.{.{.{.{.{.{.{.{.{.{.{.{.{.{.{.{.{.{.{.{.{.{.{.{.{.{.{.{.{.{.{.{.{.{.{.{.{.{.{.{.{.{.{.{.{.{.{.{.{.{.{.{.{.{.{.{.{.{.{.{.{.{.{.{.{.{.{.{.{.{.{.{.{.{.{.{.{.{.{.{.{.{.{."
};
