/* XPM */
static char *FOOT+_24~24[] = {
/* columns rows colors chars-per-pixel */
"104 78 114 2",
"   c #31292E",
".  c #3F373C",
"X  c #006D1B",
"o  c #03701F",
"O  c #0A7425",
"+  c #147A2E",
"@  c #187B31",
"#  c #345C3E",
"$  c #286838",
"%  c #217035",
"&  c #33623E",
"*  c #3B5541",
"=  c #42393E",
"-  c #463C43",
";  c #4C4449",
":  c #405244",
">  c #50434C",
",  c #554D52",
"<  c #565B4A",
"1  c #5B5458",
"2  c #60734C",
"3  c #6C6569",
"4  c #6F6670",
"5  c #6C7F71",
"6  c #706A6E",
"7  c #736D70",
"8  c #797376",
"9  c #1A8235",
"0  c #218838",
"q  c #308B36",
"w  c #3B933A",
"e  c #2C8743",
"r  c #358C4B",
"t  c #3A8F50",
"y  c #3F9254",
"u  c #3BB64B",
"i  c #3FB650",
"p  c #489C3A",
"a  c #59A83A",
"s  c #6DB53F",
"d  c #449458",
"f  c #4F9B62",
"g  c #5E8D6A",
"h  c #549C66",
"j  c #48B84B",
"k  c #47B856",
"l  c #56A442",
"z  c #59BC4E",
"x  c #51BB5E",
"c  c #5BA26D",
"v  c #5FA471",
"b  c #5ABD67",
"n  c #69884B",
"m  c #66866D",
"M  c #6ABA4B",
"N  c #7DB849",
"B  c #67A877",
"V  c #61BE6D",
"C  c #64BF70",
"Z  c #5FC06B",
"A  c #7BC44F",
"S  c #6BC176",
"D  c #72C27D",
"F  c #72AF82",
"G  c #7BB48A",
"H  c #7CC586",
"J  c #817B7E",
"K  c #84C44A",
"L  c #8AC651",
"P  c #92CB53",
"I  c #93D252",
"U  c #86C670",
"Y  c #96C865",
"T  c #A1CD79",
"R  c #A7D57D",
"E  c #888285",
"W  c #9B9699",
"Q  c #81B78F",
"!  c #87BB94",
"~  c #A19D9F",
"^  c #A29EA1",
"/  c #ABA7AA",
"(  c #85C78E",
")  c #8BC993",
"_  c #93C89C",
"`  c #9BC8A5",
"'  c #AFD091",
"]  c #B0D192",
"[  c #A4CCAB",
"{  c #A8CEB3",
"}  c #AAD1AF",
"|  c #ACD0B5",
" . c #BED7AB",
".. c #B6D5BC",
"X. c #BDD8C3",
"o. c #C2BFC1",
"O. c #C9D7BE",
"+. c #C0E0A0",
"@. c #CEE7BB",
"#. c #C9C7C8",
"$. c #C5D9C8",
"%. c #CFD9D1",
"&. c #D6DACE",
"*. c gainsboro",
"=. c #C8E0CE",
"-. c #CCE2D2",
";. c #D7E8DB",
":. c #DEECE1",
">. c #E0DFE0",
",. c #E6F2DC",
"<. c #E4ECE6",
"1. c #E9F2EB",
"2. c #EFF6F1",
"3. c #FDFEFD",
/* pixels */
"*.*.*.*.*.*.*.*.*.*.*.*.*.*.*.*.*.*.*.*.*.*.*.*.*.*.*.*.*.*.*.*.*.*.*.*.*.*.*.*.*.*.*.*.*.*.*.*.*.*.*.*.*.*.*.*.*.*.*.*.*.*.*.*.*.*.*.*.*.*.*.*.*.*.*.*.*.*.*.*.*.*.*.*.*.*.*.*.*.*.*.*.*.*.*.*.*.*.*.*.*.*.*.*.",
"*.*.*.*.*.*.*.*.*.*.*.*.*.*.*.*.*.*.*.*.*.*.*.*.*.*.*.*.*.*.*.*.*.*.*.*.*.*.*.*.*.*.*.*.*.*.*.*.*.*.*.*.*.*.*.*.*.*.*.*.*.*.*.*.*.*.*.*.*.*.*.*.*.*.*.*.*.*.*.*.*.*.*.*.*.*.*.*.*.*.*.*.*.*.*.*.*.*.*.*.*.*.*.*.",
"*.*.*.*.*.*.*.*.*.*.*.*.*.*.*.*.*.*.*.*.*.*.*.*.*.*.*.*.*.*.*.*.*.*.*.*.*.*.*.*.*.*.*.*.*.*.*.*.*.*.*.*.*.*.*.*.*.*.*.*.*.*.*.*.*.*.*.*.*.*.*.*.*.*.*.*.*.*.*.*.*.*.*.*.*.*.*.*.*.*.*.*.*.*.*.*.*.*.*.*.*.*.*.*.",
"*.*.*.*.*.*.*.*.*.*.*.*.*.*.*.*.*.*.*.*.*.*.*.*.*.*.*.*.*.*.*.*.*.*.*.*.*.*.*.*.*.*.*.*.*.*.*.*.*.*.*.*.*.*.*.*.*.*.*.*.*.*.*.*.*.*.*.*.*.*.*.*.*.*.*.*.*.*.*.*.*.*.*.*.*.*.*.*.*.*.*.*.*.*.*.*.*.*.*.*.*.*.*.*.",
"*.*.*.*.*.*.*.*.*.*.*.*.*.*.*.*.*.*.*.*.*.*.*.*.*.*.*.*.*.*.*.*.*.*.*.*.*.*.*.*.*.*.*.*.*.*.*.*.*.*.*.*.*.*.*.*.*.*.*.*.*.*.*.*.*.*.*.*.*.*.*.*.*.*.*.*.*.*.*.*.*.*.*.*.*.*.*.*.*.*.*.*.*.*.*.*.*.*.*.*.*.*.*.*.",
"*.*.*.*.*.*.*.*.*.*.*.*.*.*.*.*.*.*.*.*.*.*.*.*.*.*.*.*.*.*.*.*.*.*.*.*.*.*.*.*.*.*.*.*.*.*.*.*.*.*.*.*.*.*.*.*.*.*.*.*.*.*.*.*.*.*.*.*.*.*.*.*.*.*.*.*.*.*.*.*.*.*.*.*.*.*.*.*.*.*.*.*.*.*.*.*.*.*.*.*.*.*.*.*.",
"*.*.*.*.*.*.*.*.*.*.*.*.*.*.*.*.*.*.*.*.*.*.*.*.*.*.*.*.*.*.*.*.*.*.*.*.*.*.*.*.*.*.*.*.*.*.*.*.*.*.*.*.*.*.*.*.*.*.*.*.*.*.*.*.*.*.*.*.*.*.*.*.*.*.*.*.*.*.*.*.*.*.*.*.*.*.*.*.*.*.*.*.*.*.*.*.*.*.*.*.*.*.*.*.",
"*.*.*.*.*.*.*.*.*.*.*.*.*.*.*.*.*.*.*.*.*.*.*.*.*.*.*.*.*.*.*.*.*.*.*.*.*.*.*.*.*.*.*.*.*.*.*.*.*.*.*.*.*.*.*.*.*.*.*.*.*.*.*.*.*.*.*.*.*.*.*.*.*.*.*.*.*.*.*.*.*.*.*.*.*.*.*.*.*.*.*.*.*.*.*.*.*.*.*.*.*.*.*.*.",
"*.*.*.*.*.*.*.*.*.*.*.*.*.*.*.*.*.*.*.*.*.*.*.*.*.*.*.*.*.*.*.*.*.*.*.*.*.*.*.*.*.*.*.*.*.*.*.*.*.*.*.*.*.*.*.*.*.*.*.*.*.*.*.*.*.*.*.*.*.*.*.*.*.*.*.*.*.*.*.*.*.*.*.*.*.*.*.*.*.*.*.*.*.*.*.*.*.*.*.*.*.*.*.*.",
"*.*.*.*.*.*.*.*.*.*.*.*.*.*.*.*.*.*.*.*.*.*.*.*.*.*.*.*.*.*.*.*.*.*.*.*.*.*.*.*.*.*.*.*.*.*.*.*.*.*.*.*.*.*.*.*.*.*.*.*.*.*.*.*.*.*.*.*.*.*.*.*.*.*.*.*.*.*.*.*.*.*.*.*.*.*.*.*.*.*.*.*.*.*.*.*.*.*.*.*.*.*.*.*.",
"*.*.*.*.*.*.*.*.*.*.*.*.*.*.*.*.*.*.*.*.*.*.*.*.*.*.*.*.*.*.*.*.*.*.*.*.*.*.*.*.*.*.*.*.*.*.*.*.*.*.*.*.*.*.*.*.*.*.*.*.*.*.*.*.*.*.*.*.*.*.*.*.*.*.*.*.*.*.*.*.*.*.*.*.*.*.*.*.*.*.*.*.*.*.*.*.*.*.*.*.*.*.*.*.",
"*.*.*.*.*.*.*.*.*.*.*.*.*.*.*.*.*.*.*.*.*.*.*.*.*.*.*.*.*.*.*.*.*.*.*.*.*.*.*.*.*.*.*.*.*.*.*.*.*.*.*.*.*.*.*.*.*.*.*.*.*.*.*.*.*.*.*.*.*.*.*.*.*.*.*.*.*.*.*.*.*.*.*.*.*.*.*.*.*.*.*.*.*.*.*.*.*.*.*.*.*.*.*.*.",
"*.*.*.*.*.*.*.*.*.*.*.*.*.*.*.*.*.*.*.*.*.*.*.*.*.*.*.*.*.*.*.*.*.*.*.*.*.*.*.*.*.*.*.*.*.*.*.*.*.*.*.*.*.*.*.*.*.*.*.*.*.*.*.*.*.*.*.*.*.*.*.*.*.*.*.*.*.*.*.*.*.*.*.*.*.*.*.*.*.*.*.*.*.*.*.*.*.*.*.*.*.*.*.*.",
"*.*.*.*.*.*.*.*.*.*.*.*.*.*.*.*.*.*.*.*.*.*.*.*.*.*.*.*.*.*.*.*.*.*.*.*.*.*.*.*.*.*.*.*.*.*.*.*.*.*.*.*.*.*.*.*.*.*.*.*.*.*.*.*.*.*.*.*.*.*.*.*.*.*.*.*.*.*.*.*.*.*.*.*.*.*.*.*.*.*.*.*.*.*.*.*.*.*.*.*.*.*.*.*.",
"*.*.*.*.*.*.*.*.*.*.*.*.*.*.*.*.*.*.*.*.*.*.*.*.*.*.*.*.*.*.*.*.*.*.*.*.*.*.*.*.*.*.*.*.*.*.*.*.*.*.*.*.*.*.*.*.*.*.*.*.*.*.*.*.*.*.*.*.*.*.*.*.*.*.*.*.*.*.*.*.*.*.*.*.*.*.*.*.*.*.*.*.*.*.*.*.*.*.*.*.*.*.*.*.",
"*.*.*.*.*.*.*.*.*.*.*.*.*.*.*.*.*.*.*.*.*.*.*.*.*.*.*.*.*.*.*.*.*.*.*.*.*.*.*.*.*.*.*.*.*.*.*.*.*.*.*.*.*.*.*.*.*.*.*.*.*.*.*.*.*.*.*.*.*.*.*.*.*.*.*.*.*.*.*.*.*.*.*.*.*.*.*.*.*.*.*.*.*.*.*.*.*.*.*.*.*.*.*.*.",
"*.*.*.*.*.*.*.*.*.*.*.*.*.*.*.*.*.*.*.*.*.*.*.*.*.*.*.*.*.*.*.*.*.*.*.*.*.*.*.*.*.*.*.*.*.*.*.*.*.*.*.*.*.*.*.*.*.*.*.*.*.*.*.*.*.*.*.*.*.*.*.*.*.*.*.*.*.*.*.*.*.*.*.*.*.*.*.*.*.*.*.*.*.*.*.*.*.*.*.*.*.*.*.*.",
"*.*.*.*.*.*.*.*.*.*.*.*.*.*.*.*.*.*.*.*.*.*.*.*.*.*.*.*.*.*.*.*.*.*.*.*.*.*.*.*.*.*.*.*.*.*.*.*.*.*.*.*.*.*.*.*.*.*.*.*.*.*.*.*.*.*.*.*.*.*.*.*.*.*.*.*.*.*.*.*.*.*.*.*.*.*.*.*.*.*.*.*.*.*.*.*.*.*.*.*.*.*.*.*.",
"*.*.*.*.*.*.*.*.*.*.*.*.*.*.*.*.*.*.*.*.*.*.*.*.*.*.*.*.*.*.*.*.*.*.*.*.*.*.*.*.*.*.*.*.*.*.*.*.*.*.*.*.*.*.*.*.*.*.*.*.*.*.*.*.*.*.*.*.*.*.*.*.*.*.*.*.*.*.*.*.*.*.*.*.*.*.*.*.*.*.*.*.*.*.*.*.*.*.*.*.*.*.*.*.",
"*.*.*.*.*.*.*.*.*.*.*.*.*.*.*.*.*.*.*.*.*.*.*.*.*.*.*.*.*.*.*.*.*.*.*.*.*.*.*.*.*.*.*.*.*.*.*.*.*.*.*.*.*.*.*.*.*.*.*.*.*.*.*.*.*.*.*.*.*.*.*.*.*.*.*.*.*.*.*.*.*.*.*.*.*.*.*.*.*.*.*.*.*.*.*.*.*.*.*.*.*.*.*.*.",
"*.*.*.*.*.*.*.*.*.*.*.*.*.*.*.*.*.*.*.*.*.*.*.*.*.*.*.*.*.*.*.*.*.*.*.*.&.*.*.*.*.*.*.*.*.*.*.*.*.%.#...[ ) C V x U &.*.*.*.*.*.*.*.*.*.*.*.*.*.*.*.*.*.*.*.*.*.*.*.*.*.*.*.*.*.*.*.*.*.*.*.*.*.*.*.*.*.*.*.*.*.",
"*.*.*.*.*.*.*.*.*.*.*.*.*.*.*.*.*.*.*.*.*.*.*.*.*.*.*.*.*.*.*.&.*.*.*.*.*.*.*.*.*.*.&.#.} ! ( C b x j u u u u u u M Y $.*.*.*.*.*.*.*.*.*.*.*.*.*.*.*.*.*.*.*.*.*.*.*.*.*.*.*.*.*.*.*.*.*.*.*.*.*.*.*.*.*.*.*.*.",
"*.*.*.*.*.*.*.*.*.*.*.*.*.*.*.*.*.*.*.*.*.*.*.%.*.*.*.*.*.*.*.*.*.*.%.$...[ ) H C x j u u u u u u u u u u u u u u z L L  .*.*.*.*.*.*.*.*.*.*.*.*.*.*.*.*.*.*.*.*.*.*.*.*.*.*.*.*.*.*.*.*.*.*.*.*.*.*.*.*.*.*.*.",
"*.*.*.*.*.*.*.*.*.*.*.*.*.*.*.*.*.*.*.*.*.*.*.*.*.*.*.%.X.[ _ ( C b k u u u u u u u u u u u u u u u u u u u u u u z L L L ' *.*.*.*.*.*.*.*.*.*.*.*.*.*.*.*.*.*.*.*.*.*.*.*.*.*.*.*.*.*.*.*.*.*.*.*.*.*.*.*.*.*.",
"*.*.*.*.*.*.*.*.*.*.*.*.*.*.*.*.*.*.*.%.$.| _ ) D C x j u u u u u u u u u u u u u u u u u u u u u u u u u u u u u j L L L L T %.*.*.*.*.*.*.*.*.*.*.*.*.*.*.*.*.*.*.*.*.*.*.*.*.*.*.*.*.*.*.*.*.*.*.*.*.*.*.*.*.",
"*.*.*.*.*.*.*.*.*.*.*.%.$.X.} _ H C b k u u u u u u u u u u u u u u u u u u u u u u u u u u u u u u u u u u u u u j L L L L L Y $.*.*.*.*.*.*.*.*.*.*.*.*.*.*.*.*.*.*.*.*.*.*.*.*.*.*.*.*.*.*.*.*.*.*.*.*.*.*.*.",
"*.*.*.*.*.*.*.*.$.S b k i u u u u u u u u u u u u j u u u u u u u u u u u u u u u u u u u u u u u u u u u u u u u u N K L L L L P  .*.*.*.*.*.&.*.%.*.*.*.*.*.*.*.%.*.*.*.*.*.&.*.*.*.*.*.*.*.*.&.*.*.*.*.*.*.*.",
"*.*.*.*.*.*.*.*.$.u u u u u u j u u u u u u u u u u u u u u u u u u u u u u u u u u u u u u u u u u u u u u u u u u A K L L L L L L ] *.*.*.*.*.*.*.*.*.*.*.*.*.*.*.*.*.*.*.*.*.*.*.*.;.*.*.*.*.*.*.*.*.*.*.*.*.",
"*.*.*.*.8 8 8 8 8 0 9 0 0 0 0 0 0 9 0 0 0 0 0 0 0 0 0 0 0 0 0 0 0 0 0 0 % 0 9 0 0 0 0 0 0 0 0 0 9 0 0 0 0 0 0 9 0 9 M L K L L L L L L U 8 4 7 7 7 6 7 7 7 7 7 7 7 7 7 7 4 6 7 7 7 7 7 7 7 7 7 6 6 7 7 7 *.*.*.*.",
"*.*.*.*.; ; ; ; ; @ + + + + + + + + + + + + + + + + + + + + + + + + + + + + + + + + + + + + + + O + + O + + + + + O l P K L L L L L L L N < - ; > ; ; ; ; ; ; ; ; ; ; ; - > > > ; ; ; ; ; ; ; ; > > ; ; *.*.*.*.",
"*.*.*.*.; > ; ; > % + + + + + + + + @ + + + + + + + + + + + + + + @ @ @ + + + + @ + + + + + + + @ @ @ @ @ + + + @ + p P L L L L L L L L P L 2 ; ; ; ; > ; , ; ; ; , ; ; ; ; > ; ; ; ; ; ; > > ; > ; > ; *.*.*.*.",
"*.*.*.*.; ; ; ; > $ + + + + + + @ @ @ @ @ @ @ @ + + + + + + @ @ + O O O + @ @ + + + + + + + + @ @ + O O O + @ + + + w L L L L L L L L P P P I n ; ; ; ; ; ; ; ; ; ; ; ; ; - = - = ; ; ; ; ; ; ; ; ; ; ; *.*.*.*.",
"*.*.*.*.; ; ; ; - $ 9 + + + + + O O O O o O O O + @ + + + + O O 0 t d e @ o O @ + @ + + + @ @ + O + e y t 0 O O @ + q L L L K K K K N s a p w 0 : ; ; ; ; ; ; ; ; ; ; ; ; / #.o.#.J - > ; ; ; ; ; ; ; ; *.*.*.*.",
"*.*.*.*.; ; ; ; > & + + + + @ + ! | { | | { { | f O @ @ + O c X.1.3.3.3.;.` e O @ + + @ + @ O r ` ;.3.3.3.1.X.h O O 0 L K L Y R +.@...} { _ + O # > ; ; ; ; ; ; ; ; ; ; ; <.3.3.3.^ . > ; ; ; ; ; ; ; ; *.*.*.*.",
"*.*.*.*.; ; ; ; > * + + @ + @ O ;.3.3.3.3.3.3.3.F o @ + @ X.3.3.3.3.3.3.3.3.2.B O @ + @ @ O F 2.3.3.3.3.3.3.3.3.{ + @ l +.,.2.3.3.3.3.3.3.1.@ + # - ; ; ; ; ; ; ; ; ; ; ; >.3.2.3.W = > ; ; ; ; ; ; ; ; *.*.*.*.",
"*.*.*.*.; ; ; ; - * + + @ + @ + $.3.3.3.3.3.3.3.F O + @ -.3.3.3.3.3.3.3.3.3.3.3.h O @ @ O G 3.3.3.3.3.3.3.3.3.3.3.| O @ 3.3.3.3.3.3.3.3.3.1.+ + & > ; ; ; ; ; ; ; ; ; ; ; >.3.3.3.W = > ; ; ; ; ; ; ; ; *.*.*.*.",
"*.*.*.*.; ; ; ; > ; @ + + @ @ O $.3.3.2.! ! ! ! y + O ` 3.3.3.3.` c h Q 1.3.3.3.:.@ + O d 3.3.3.3.=.F f B X.3.3.3.3.B O F Q ! 2.3.3.<.Q ! F @ + $ > ; ; ; ; ; ; - - - - - >.3.3.3.W . - ; > - > ; ; ; ; *.*.*.*.",
"*.*.*.*.; ; ; ; > ; @ + + @ @ O =.3.3.<.o X X X O O r 3.3.3.2.f o O O o e <.3.3.3.B O O ..3.3.3.` O O O O O ` 3.3.3.$.O O o O :.3.3.=.o O O + + % ; ; ; ; ; = E >.*.>.*.>.3.3.3.3.1.*.*.*.>.#., ; ; ; ; *.*.*.*.",
"*.*.*.*.; ; ; ; ; ; % + + + + O =.3.3.1.d d d y @ o G 3.3.3.G X @ @ @ @ X B 3.3.3.{ o e 2.3.3.;.+ + @ @ + + + :.3.3.2.e + @ @ :.3.3.-.+ @ @ @ + + ; ; ; ; > . W 3.3.3.3.3.3.3.3.3.3.3.3.3.3.2., ; ; ; ; *.*.*.*.",
"*.*.*.*.; ; ; ; ; ; % + + + @ + =.3.3.3.3.3.3.1.e O | 3.3.3.e + @ + + + + 0 2.3.3.$.o h 3.3.3.! O @ + + + @ O ` 3.3.3.d O @ @ :.3.3.-.+ + + + + + ; > ; ; ; . W 3.3.3.3.3.3.3.3.3.3.3.3.3.3.<., ; > ; ; *.*.*.*.",
"*.*.*.*.; ; ; ; > > & + + + @ O =.3.3.3.3.3.3.2.e O X.3.3.<.@ + @ + + @ + @ :.3.3.%.X B 3.3.3.B O @ + + + @ o ! 3.3.3.d O @ @ :.3.3.-.+ + + + + @ * ; ; ; > . W 3.3.3.3.3.3.3.3.3.3.3.3.3.3.3., ; ; ; ; *.*.*.*.",
"*.*.*.*.; ; ; ; > - # + + + @ O =.3.3.3.2.1.2.;.% O X.3.3.2.e + @ + + @ + e 2.3.3...X c 3.3.3.Q O @ + + + @ o { 3.3.3.r O @ @ :.3.3.-.+ + + + @ + * > ; ; ; - 7 / / / / / 2.3.3.3.%.^ / / / ^ , ; ; ; ; *.*.*.*.",
"*.*.*.*.; ; ; ; ; > * + + + + O =.3.3.<.e 9 0 % @ o _ 3.3.3.F o @ @ @ @ X G 3.3.3.Q X r 3.3.3.-.O + @ @ @ + 0 2.3.3.:.+ @ + @ :.3.3.-.O + + + + + * > ; ; ; ; - . . = = . *.3.3.3.W   - . . = ; ; ; ; ; *.*.*.*.",
"*.*.*.*.; ; ; ; > - * + + + @ + =.3.3.<.@ + + + + O f 3.3.3.2.d o O O o f 2.3.3.3.r O + -.3.3.3._ O O O o @ X.3.3.3._ o @ + @ :.3.3.-.+ + + @ @ + $ > ; ; ; ; ; > > > > > *.3.3.3.W - , , ; ; ; ; ; ; ; *.*.*.*.",
"*.*.*.*.; ; ; ; ; > : + + + @ O =.3.3.<.@ + @ @ + @ O X.3.3.3.3.[ B B | 3.3.3.3.[ O @ O v 3.3.3.3.%.F B ! :.3.3.3.2.e O @ + @ :.3.3.%.O @ + + @ + $ > ; ; ; ; ; ; ; ; ; ; >.3.3.3.W . ; ; ; ; ; ; ; ; ; *.*.*.*.",
"*.*.*.*.; ; ; ; ; > ; @ + + @ O $.3.3.:.@ + @ + + @ + e <.3.3.3.3.3.3.3.3.3.3.-.@ + @ @ O ` 3.3.3.3.3.3.3.3.3.3.3.c O @ @ + @ :.3.3.$.+ @ + + @ + @ ; ; ; ; ; ; ; ; ; ; ; >.3.3.3.W . > ; ; ; ; ; ; ; ; *.*.*.*.",
"*.*.*.*.; ; ; ; ; ; > @ + + + + ;.3.3.3.@ + @ + @ + @ O r =.3.3.3.3.3.3.3.3.X.0 O @ + + + O ! 3.3.3.3.3.3.3.3.1.c O @ @ @ + @ 1.3.3.:.+ + + @ + + % ; ; ; ; ; ; ; ; ; ; ; >.3.3.3.W = > ; ; ; ; ; ; ; ; *.*.*.*.",
"*.*.*.*.; ; ; ; > > - % 9 + + + G ` ` ! @ + @ + + + + @ O + B X.<.3.2.<...c O + @ + + + @ @ O d ` ;.2.3.2.-.! % O @ + + @ @ @ ! ` ` G + @ + + + + @ * ; ; ; ; ; ; ; ; ; ; 3 6 3 6 1 ; > ; ; ; ; ; ; ; ; *.*.*.*.",
"*.*.*.*.; ; ; ; ; ; > $ + @ + @ O O o O + + + + @ @ + + @ + O O @ e e @ O O @ @ @ + @ + @ + @ O o + e e 9 + O + @ + + + @ @ + O o o O @ @ + + + + + * ; ; ; ; ; ; ; ; ; ; - - - - ; ; ; ; ; ; ; ; ; ; ; *.*.*.*.",
"*.*.*.*.; ; ; ; ; ; > & + @ + + @ @ @ @ + + + + + + + @ + @ @ @ + + + + @ @ + + + + + + + + @ @ @ + + + + + @ + + + @ @ + + + @ @ @ @ @ + + + + + + * > ; ; ; ; ; ; ; ; ; ; ; ; ; ; ; ; ; ; ; ; ; ; ; ; *.*.*.*.",
"*.*.*.*.; ; ; ; ; ; > * + + @ + + + + + + + + + + + + @ + + + + + @ @ + + + + + + + + + + + + + + + + + + + + + + + + @ + + + + @ @ @ % % $ * * * ; ; ; > ; ; ; ; ; ; ; ; ; ; ; ; ; ; ; ; ; ; ; ; ; ; ; *.*.*.*.",
"*.*.*.*.; ; ; ; ; > > * + + @ + @ + + + @ + @ @ @ @ + + @ + + + @ + + @ + @ + @ + @ @ @ @ @ @ @ @ @ @ @ + 9 + 9 + @ @ @ @ $ & * * : ; > > > > > > > > ; ; ; > > > > > ; > ; ; ; ; ; > ; > ; ; ; > ; > ; *.*.*.*.",
"*.*.*.*.; ; ; ; ; ; ; * + + + + + + + + + + + + + + + + + + + + + + + + @ + @ @ + + + + + + + @ + @ @ % $ $ * * * * ; ; > > - > - > ; ; ; ; ; ; ; ; ; ; ; ; ; ; ; ; ; ; ; ; ; ; ; ; ; ; ; ; ; ; ; ; ; ; *.*.*.*.",
"*.*.*.*.8 8 8 8 8 8 8 8 e 9 9 9 0 9 0 0 0 0 9 9 0 0 9 9 0 0 0 0 0 0 0 @ 0 0 0 0 0 0 e r y f g g m 5 5 8 8 8 7 7 8 8 8 8 8 8 8 8 8 8 8 8 8 8 8 8 8 8 8 8 8 8 8 8 8 8 8 8 8 7 8 8 8 8 8 8 8 8 8 8 8 8 8 8 *.*.*.*.",
"*.*.*.*.*.*.*.*.*.*.*.*.Z u i i u u u u i i i i i i u u i i u u i i i k x C H _ { X.%.*.*.*.*.*.*.*.*.*.*.*.*.*.*.*.*.*.*.*.*.*.*.*.*.*.*.*.*.*.*.*.*.*.*.*.*.*.*.*.:.*.*.*.*.*.*.*.*.*.*.*.*.*.*.*.*.*.*.*.*.*.",
"*.*.*.*.*.*.*.*.*.*.*.*.D u u u u u u u u u u i u u u j x V F ) ` | X.%.*.*.*.*.*.*.*.*.*.*.*.*.*.*.*.*.*.*.*.*.*.*.*.*.*.*.*.*.*.*.%.*.*.*.*.%.*.*.*.*.*.*.*.%.*.*.*.*.*.*.*.*.*.*.*.*.%.*.*.*.*.*.*.*.*.*.*.*.",
"*.*.*.*.*.*.*.*.*.*.*.*.( u u u u u u i k b C H _ [ X.%.*.*.*.*.*.*.*.*.*.*.*.*.*.*.*.*.*.*.*.*.*.*.*.*.*.*.*.*.*.*.*.*.*.*.*.*.*.*.*.*.*.*.*.*.*.*.*.*.*.*.*.*.*.*.*.*.*.*.*.*.*.*.*.*.*.*.*.*.*.*.*.*.*.*.*.*.",
"*.*.*.*.*.*.*.*.*.*.*.*.` k b C ) ` ..$.%.*.*.*.*.*.*.*.*.*.*.%.*.*.*.*.*.*.*.*.*.*.*.*.*.*.*.*.*.*.*.*.*.*.*.*.*.*.*.*.*.*.*.*.*.*.*.*.*.*.*.*.*.*.*.*.*.*.*.*.*.*.*.*.*.*.*.*.*.*.*.*.*.*.*.*.*.*.*.*.*.*.*.*.",
"*.*.*.*.*.*.*.*.*.*.*.*.*.*.*.*.*.*.*.*.*.*.*.*.*.*.*.*.*.*.*.*.*.*.*.*.*.*.*.*.*.*.*.*.*.*.*.*.*.*.*.*.*.*.*.*.*.*.*.*.*.*.*.*.*.*.*.*.*.*.*.*.*.*.*.*.*.*.*.*.*.*.*.*.*.*.*.*.*.*.*.*.*.*.*.*.*.*.*.*.*.*.*.*.",
"*.*.*.*.*.*.*.*.*.*.*.*.*.*.*.*.*.*.*.*.*.*.*.*.*.*.*.*.*.*.*.*.*.*.*.*.*.*.*.*.*.*.*.*.*.*.*.*.*.*.*.*.*.*.*.*.*.*.*.*.*.*.*.*.*.*.*.*.*.*.*.*.*.*.*.*.*.*.*.*.*.*.*.*.*.*.*.*.*.*.*.*.*.*.*.*.*.*.*.*.*.*.*.*.",
"*.*.*.*.*.*.*.*.*.*.*.*.*.*.*.*.*.*.*.*.*.*.*.*.*.*.*.*.*.*.*.*.*.*.*.*.*.*.*.*.*.*.*.*.*.*.*.*.*.*.*.*.*.*.*.*.*.*.*.*.*.*.*.*.*.*.*.*.*.*.*.*.*.*.*.*.*.*.*.*.*.*.*.*.*.*.*.*.*.*.*.*.*.*.*.*.*.*.*.*.*.*.*.*.",
"*.*.*.*.*.*.*.*.*.*.*.*.*.*.*.*.*.*.*.*.*.*.*.*.*.*.*.*.*.*.*.*.*.*.*.*.*.*.*.*.*.*.*.*.*.*.*.*.*.*.*.*.*.*.*.*.*.*.*.*.*.*.*.*.*.*.*.*.*.*.*.*.*.*.*.*.*.*.*.*.*.*.*.*.*.*.*.*.*.*.*.*.*.*.*.*.*.*.*.*.*.*.*.*.",
"*.*.*.*.*.*.*.*.*.*.*.*.*.*.*.*.*.*.*.*.*.*.*.*.*.*.*.*.*.*.*.*.*.*.*.*.*.*.*.*.*.*.*.*.*.*.*.*.*.*.*.*.*.*.*.*.*.*.*.*.*.*.*.*.*.*.*.*.*.*.*.*.*.*.*.*.*.*.*.*.*.*.*.*.*.*.*.*.*.*.*.*.*.*.*.*.*.*.*.*.*.*.*.*.",
"*.*.*.*.*.*.*.*.*.*.*.*.*.*.*.*.*.*.*.*.*.*.*.*.*.*.*.*.*.*.*.*.*.*.*.*.*.*.*.*.*.*.*.*.*.*.*.*.*.*.*.*.*.*.*.*.*.*.*.*.*.*.*.*.*.*.*.*.*.*.*.*.*.*.*.*.*.*.*.*.*.*.*.*.*.*.*.*.*.*.*.*.*.*.*.*.*.*.*.*.*.*.*.*.",
"*.*.*.*.*.*.*.*.*.*.*.*.*.*.*.*.*.*.*.*.*.*.*.*.*.*.*.*.*.*.*.*.*.*.*.*.*.*.*.*.*.*.*.*.*.*.*.*.*.*.*.*.*.*.*.*.*.*.*.*.*.*.*.*.*.*.*.*.*.*.*.*.*.*.*.*.*.*.*.*.*.*.*.*.*.*.*.*.*.*.*.*.*.*.*.*.*.*.*.*.*.*.*.*.",
"*.*.*.*.*.*.*.*.*.*.*.*.*.*.*.*.*.*.*.*.*.*.*.*.*.*.*.*.*.*.*.*.*.*.*.*.*.*.*.*.*.*.*.*.*.*.*.*.*.*.*.*.*.*.*.*.*.*.*.*.*.*.*.*.*.*.*.*.*.*.*.*.*.*.*.*.*.*.*.*.*.*.*.*.*.*.*.*.*.*.*.*.*.*.*.*.*.*.*.*.*.*.*.*.",
"*.*.*.*.*.*.*.*.*.*.*.*.*.*.*.*.*.*.*.*.*.*.*.*.*.*.*.*.*.*.*.*.*.*.*.*.*.*.*.*.*.*.*.*.*.*.*.*.*.*.*.*.*.*.*.*.*.*.*.*.*.*.*.*.*.*.*.*.*.*.*.*.*.*.*.*.*.*.*.*.*.*.*.*.*.*.*.*.*.*.*.*.*.*.*.*.*.*.*.*.*.*.*.*.",
"*.*.*.*.*.*.*.*.*.*.*.*.*.*.*.*.*.*.*.*.*.*.*.*.*.*.*.*.*.*.*.*.*.*.*.*.*.*.*.*.*.*.*.*.*.*.*.*.*.*.*.*.*.*.*.*.*.*.*.*.*.*.*.*.*.*.*.*.*.*.*.*.*.*.*.*.*.*.*.*.*.*.*.*.*.*.*.*.*.*.*.*.*.*.*.*.*.*.*.*.*.*.*.*.",
"*.*.*.*.*.*.*.*.*.*.*.*.*.*.*.*.*.*.*.*.*.*.*.*.*.*.*.*.*.*.*.*.*.*.*.*.*.*.*.*.*.*.*.*.*.*.*.*.*.*.*.*.*.*.*.*.*.*.*.*.*.*.*.*.*.*.*.*.*.*.*.*.*.*.*.*.*.*.*.*.*.*.*.*.*.*.*.*.*.*.*.*.*.*.*.*.*.*.*.*.*.*.*.*.",
"*.*.*.*.*.*.*.*.*.*.*.*.*.*.*.*.*.*.*.*.*.*.*.*.*.*.*.*.*.*.*.*.*.*.*.*.*.*.*.*.*.*.*.*.*.*.*.*.*.*.*.*.*.*.*.*.*.*.*.*.*.*.*.*.*.*.*.*.*.*.*.*.*.*.*.*.*.*.*.*.*.*.*.*.*.*.*.*.*.*.*.*.*.*.*.*.*.*.*.*.*.*.*.*.",
"*.*.*.*.*.*.*.*.*.*.*.*.*.*.*.*.*.*.*.*.*.*.*.*.*.*.*.*.*.*.*.*.*.*.*.*.*.*.*.*.*.*.*.*.*.*.*.*.*.*.*.*.*.*.*.*.*.*.*.*.*.*.*.*.*.*.*.*.*.*.*.*.*.*.*.*.*.*.*.*.*.*.*.*.*.*.*.*.*.*.*.*.*.*.*.*.*.*.*.*.*.*.*.*.",
"*.*.*.*.*.*.*.*.*.*.*.*.*.*.*.*.*.*.*.*.*.*.*.*.*.*.*.*.*.*.*.*.*.*.*.*.*.*.*.*.*.*.*.*.*.*.*.*.*.*.*.*.*.*.*.*.*.*.*.*.*.*.*.*.*.*.*.*.*.*.*.*.*.*.*.*.*.*.*.*.*.*.*.*.*.*.*.*.*.*.*.*.*.*.*.*.*.*.*.*.*.*.*.*.",
"*.*.*.*.*.*.*.*.*.*.*.*.*.*.*.*.*.*.*.*.*.*.*.*.*.*.*.*.*.*.*.*.*.*.*.*.*.*.*.*.*.*.*.*.*.*.*.*.*.*.*.*.*.*.*.*.*.*.*.*.*.*.*.*.*.*.*.*.*.*.*.*.*.*.*.*.*.*.*.*.*.*.*.*.*.*.*.*.*.*.*.*.*.*.*.*.*.*.*.*.*.*.*.*.",
"*.*.*.*.*.*.*.*.*.*.*.*.*.*.*.*.*.*.*.*.*.*.*.*.*.*.*.*.*.*.*.*.*.*.*.*.*.*.*.*.*.*.*.*.*.*.*.*.*.*.*.*.*.*.*.*.*.*.*.*.*.*.*.*.*.*.*.*.*.*.*.*.*.*.*.*.*.*.*.*.*.*.*.*.*.*.*.*.*.*.*.*.*.*.*.*.*.*.*.*.*.*.*.*.",
"*.*.*.*.*.*.*.*.*.*.*.*.*.*.*.*.*.*.*.*.*.*.*.*.*.*.*.*.*.*.*.*.*.*.*.*.*.*.*.*.*.*.*.*.*.*.*.*.*.*.*.*.*.*.*.*.*.*.*.*.*.*.*.*.*.*.*.*.*.*.*.*.*.*.*.*.*.*.*.*.*.*.*.*.*.*.*.*.*.*.*.*.*.*.*.*.*.*.*.*.*.*.*.*.",
"*.*.*.*.*.*.*.*.*.*.*.*.*.*.*.*.*.*.*.*.*.*.*.*.*.*.*.*.*.*.*.*.*.*.*.*.*.*.*.*.*.*.*.*.*.*.*.*.*.*.*.*.*.*.*.*.*.*.*.*.*.*.*.*.*.*.*.*.*.*.*.*.*.*.*.*.*.*.*.*.*.*.*.*.*.*.*.*.*.*.*.*.*.*.*.*.*.*.*.*.*.*.*.*.",
"*.*.*.*.*.*.*.*.*.*.*.*.*.*.*.*.*.*.*.*.*.*.*.*.*.*.*.*.*.*.*.*.*.*.*.*.*.*.*.*.*.*.*.*.*.*.*.*.*.*.*.*.*.*.*.*.*.*.*.*.*.*.*.*.*.*.*.*.*.*.*.*.*.*.*.*.*.*.*.*.*.*.*.*.*.*.*.*.*.*.*.*.*.*.*.*.*.*.*.*.*.*.*.*.",
"*.*.*.*.*.*.*.*.*.*.*.*.*.*.*.*.*.*.*.*.*.*.*.*.*.*.*.*.*.*.*.*.*.*.*.*.*.*.*.*.*.*.*.*.*.*.*.*.*.*.*.*.*.*.*.*.*.*.*.*.*.*.*.*.*.*.*.*.*.*.*.*.*.*.*.*.*.*.*.*.*.*.*.*.*.*.*.*.*.*.*.*.*.*.*.*.*.*.*.*.*.*.*.*."
};
