/* XPM */
static char *FRANCE_2_HD[] = {
/* columns rows colors chars-per-pixel */
"104 78 59 1",
"  c #ED1B2F",
". c #ED1E31",
"X c #EE2837",
"o c #EF343C",
"O c #EC2F41",
"+ c #EE3945",
"@ c #EA3F50",
"# c #F03D4D",
"$ c #EE4248",
"% c #ED4853",
"& c #EE545B",
"* c #F04847",
"= c #F04657",
"- c #F1534D",
"; c #F05B59",
": c #E95966",
"> c #F25766",
", c #F1625E",
"< c #E7626F",
"1 c #EA6B77",
"2 c #E6717C",
"3 c #F26961",
"4 c #F36A77",
"5 c #F3717D",
"6 c #E67C86",
"7 c #F47A85",
"8 c gray74",
"9 c #C7ACAE",
"0 c #CCB1B3",
"q c #DAB7B9",
"w c #E7828C",
"e c #E38B93",
"r c #E2969D",
"t c #F68A95",
"y c #F6939C",
"u c #E29CA3",
"i c #F79AA3",
"p c #E1A5AA",
"a c #E4AEB3",
"s c #E8B1B4",
"d c #F8A4AC",
"f c #F7ABB2",
"g c #F9B6BC",
"h c #DCBEC1",
"j c #F8BCC2",
"k c gray79",
"l c #DEC8CA",
"z c gainsboro",
"x c #ECC7CA",
"c c #E9CDD0",
"v c #E3D5D7",
"b c #F9C4C9",
"n c #FBCDD2",
"m c #FCD7DB",
"M c #FDDEE0",
"N c gray91",
"B c #FBE8EA",
"V c #FEEEF0",
"C c gray98",
/* pixels */
"zzzzzzzzzzzzzzzzzzzzzzzzzzzzzzzzzzzzzzzzzzzzzzzzzzzzzzzzzzzzzzzzzzzzzzzzzzzzzzzzzzzzzzzzzzzzzzzzzzzzzzzz",
"zzzzzzzzzzzzzzzzzzzzzzzzzzzzzzzzzzzzzzzzzzzzzzzzzzzzzzzzzzzzzzzzzzzzzzzzzzzzzzzzzzzzzzzzzzzzzzzzzzzzzzzz",
"zzzzzzzzzzzzzzzzzzzzzzzzzzzzzzzzzzzzzzzzzzzzzzzzzzzzzzzzzzzzzzzzzzzzzzzzzzzzzzzzzzzzzzzzzzzzzzzzzzzzzzzz",
"zzzzzzzzzzzzzzzzzzzzzzzzzzzzzzzzzzzzzzzzzzzzzzzzzzzzzzzzzzzzzzzzzzzzzzzzzzzzzzzzzzzzzzzzzzzzzzzzzzzzzzzz",
"zzzzzzzzzzzzzzzzzzzzzzzzzzzzzzzzzzzzzzzzzzzzzzzzzzzzzzzzzzzzzzzzzzzzzzzzzzzzzzzzzzzzzzzzzzzzzzzzzzzzzzzz",
"zzzzzzzzzzzzzzzzzzzzzzzzzzzzzzzzzzzzzzzzzzzzzzzzzzzzzzzzzzzzzzzzzzzzzzzzzzzzzzzzzzzzzzzzzzzzzzzzzzzzzzzz",
"zzzzzzzzzzzzzzzzzzzzzzzzzzzzzzzzzzzzzzzzzzzzzzzzzzzzzzzzzzzzzzzzzzzzzzzzzzzzzzzzzzzzzzzzzzzzzzzzzzzzzzzz",
"zzzzzzzzzzzzzzzzzzzzzzzzzzzzzzzzzzzzzzzzzzzzzzzzzzzzzzzzzzzzzzzzzzzzzzzzzzzzzzzzzzzzzzzzzzzzzzzzzzzzzzzz",
"zzzzzzzzzzzzzzzzzzzzzzzzzzzzzzzzzzzzzzzzzzzzzzzzzzzzzzzzzzzzzzzzzzzzzzzzzzzzzzzzzzzzzzzzzzzzzzzzzzzzzzzz",
"zzzzzzzzzzzzzzzzzzzzzzzzzzzzzzzvzzxr2&+2zzzzzzzzzzzzzzzzzzzzzzzzzzzzzzzzzzzzzzzzzzzzzzzzzzzzzzzzzzzzzzzz",
"zzzzzzzzzzzzzzzzzzzzzzzzzzzzzlu6:**;333%zzzzzzzzzzzzzzzzzzzzzzzzzzzzzzzzzzzzzzzzzzzzzzzzzzzzzzzzzzzzzzzz",
"zzzzzzzzzzzzzzzzzzzzzzzzlaw<%%;3333,333%zzzzzzzzzzzzzzzzzzzzzzzzzzzzzzzzzzzzzzzzzzzzzzzzzzzzzzzzzzzzzzzz",
"zzzzzzzzzzzzzzzzzzzvp6:#$-,3333333333,3%zzzzzzzzzzzzzzzzzzzzzzzzzzzzzzzzzzzzzzzzzzzzzzzzzzzzzzzzzzzzzzzz",
"zzzzzzzzzzzzzzzae<%$%;33333,333;,,,,,,;%zzzzzzzzzzzzzzzzzzzzzzzzzzzzzzzzzzzzzzzzzzzzzzzzzzzzzzzzzzzzzzzz",
"zzzzzzzzzzlp6&+$&;;;;;;;;;;;,;;>;;;:;;;%zzzzzzzzzzzzzzzzzzzzzzzzzzzzzzzzzzzzzzzzzzzzzzzzzzzzzzzzzzzzzzzz",
"zzzzzlp6:++++OXX.       . XXO#-;;;&&&&&%zzzzzzzzzzzzzzzzzzzzzzzzzzzzzzzzzzzzzzzzzzzzzzzzzzzzzzzzzzzzzzzz",
"zzzz6XoX.                      .O$&&&&=@zzzzzzzzzzzzzzzzzzzzzzzzzzzzzzzzzzzzzzzzzzzzzzzzzzzzzzzzzzzzzzzz",
"zzzzX...                          .+%=%@zzzzzzzzzzzzzzzzzzzzzzzzzzzzzzzzzzzzzzzzzzzzzzzzzzzzzzzzzzzzzzzz",
"zzzzX         7B#              .    X%%@zzzzzzzzzzzzzzzzzzzzzzzzzzzzzzzzzzzzzzzzzzzzzzzzzzzzzzzzzzzzzzzz",
"zzzzX        XnnO74tX7y> 77y= #ttO 4y5%@zzzzzzzzzzzzzzzzzzzzzzzzzzzzzzzzzzzzzzzzzzzzzzzzzzzzzzzzzzzzzzzz",
"zzzzX        .fd jj>4i4M bdib.B4yi>M>m5@zzzzzzzzzzzzzzzzzzzzzzzzzzzzzzzzzzzzzzzzzzzzzzzzzzzzzzzzzzzzzzzz",
"zzzz          iy j7 >jgV b4>nOC   7Bbn5@zzzzzzzzzzzzzzzzzzzzzzzzzzzzzzzzzzzzzzzzzzzzzzzzzzzzzzzzzzzzzzzz",
"zzzz.         it j7 id7COb4>n.B4if>m:f%ozzzzzzzzzzzzzzzzzzzzzzzzzzzzzzzzzzzzzzzzzzzzzzzzzzzzzzzzzzzzzzzz",
"zzzz.         >& 4# Oy77O4##5.#ytX 4y1.Xzzzzzzzzzzzzzzzzzzzzzzzzzzzzzzzzzzzzzzzzzzzzzzzzzzzzzzzzzzzzzzzz",
"zzzz.                                  .zzzzzzzzzzzNzzzzzzzzzzzzzzzzzzzzzzzNzzzNzzzzzzzzzzzzzzzzzzzzzzzz",
"zzzz                 .      ..         .zzzzzzzzzzzzzzzzzzzzzzzzzzzzzzzNzzzzzzzzzzzzzzzzzzzzzzzzzzzzzzzz",
"zzzz                .>yjMBVVBMgy>      .zzzzzzzzzkkkkkkkkkkzzzzzzzzzzzkkkkkkkkkkkkzkkkkkkzzzzzzzzzzzzzzz",
"zzzz              XtBCCCCCCCCCCCCVi#   Xzzzzzzzzzzkzzzzkkzzzzzzzzzzzzzkkkkkzkkkkkkkkkzkkkkkkkzzzzzzzzzzz",
"zzzz             4VCCCCCCCCCCCCCCCCC7...zzzzzzzzzzzzzzkzkzzzzzzzzzzzzzzkzkzkkzkkzkzkzkkkkkkkkkkzzzzzzzzz",
"zzzz.           tCCCCCCCCCCCCCCCCCCCCi.Xzzzzzzzzzzzzzzzzzzzzzzzzzzzzzzzzzzzzkzzzzkzkzzzzkzzzzkzzzzzzzzzz",
"zzzz.          7CCCCCCCCCCCCCCCCCCCCCC7.zzzzzzzzzzzNzzzzNzzzzzzzzzzzzzzzzzzzzzzzzzzzkzzzzkzkzzzkzzzzzzzz",
"zzzz.         OVCCCCCCCCCCCCCCCCCCCCCCC#zzzzzzzzzNNNNNNNNNNzzzzzzzzzzzzzNzzzzzzzzzzzzzzzzzzzzzzzzzzzzzzz",
"zzzz.       ..iCCCCCCCCCCmgbBCCCCCCCCCCizzzzzzzzzNNNNNNNNNNzzzzzzzzzzzNNNNNzNNNzNzNzNzzNzzzzzzzzzzzzzzzz",
"zzzz.       ..BCCCCCCCCB=    =mCCCCCCCCMzzzzzzzzzCNNCNNNCNNzzzzzzzzzzzNNNNNNNNNNNzzzzNNNNNNNNNzNNzzzzzzz",
"zzzzX        =CCCCCCCCC>      +CCCCCCCCBzzzzzzzzzCCNNNNNNNNzzzzzzzzzzzNNNNNNNNNNzzzzzzzNNNNNNNNNNNzzzzzz",
"zzzvX        5CCCCCCCCB        bCCCCCCCMzzzzzzzzzNCCCNCCCCNzzzzzzzzzzzNNCNCNNCNNzzzzzzzzNNNNNNNNNNzzzzzz",
"zzzzX        tCCCCCCCCj.       fCCCCCCCBzzzzzzzzzCNCNCCNCNNzzzzzzzzzzzNCCNNNCNNCzzzzzzzzzNNNNNNNCNCzzzzz",
"zzzzX        iCCCCCCCCf.       mCCCCCCCBzzzzzzzzzCCCCCCNCCCzNNNNNzNzNzCNCCCNCCCNzzzzzzzzzNCCCCCCCNCNzzzz",
"zzzzo        tVVVVCVVVy     ..4CCCCCCCCBzzzzzzzzzCCCCCCCCCCCCCCCCCNCCCCCCNCCCNCNzzzzzzzzzNCCCCCCCCCCzzzz",
"zzzz+           ....        .=VCCCCCCCCmzzzzzzzzzCCCCCCCCCCCCCCCCCCCCCCCCCCCCCCCzzzzzzzzzzCCCCCCCCCCzzzz",
"zzzz*                       >VCCCCCCCCCivzzzzzzzzCCCCCCCCCCCCCCCCCCCCCCCCCCCCCCCzzzzzzzzzzCCCCCCCCCNzzzz",
"zzzz-.                    XiCCCCCCCCCCC#zzzzzzzzzzzzNNNCCCCCCCCCCCCCCCCCCCCCCCCCzzzzzzzzzzCCCNNzzzkkzzzz",
"zzzz-o                  .&MCCCCCCCCCCC7Xzzzzzzzzzk8888888888kkkzkzzNNNCCCCCCCCCCzzzzzzzzzzzkkk888888zzzz",
"zzzz*o                 XdCCCCCCCCCCCCi Xzzzzzzzzzk8k8k888888888k8888k888k88kkkkkzzzzzzzzzz8888888888zzzz",
"zzzz*-                =mCCCCCCCCCCCCy. ozzzzzzzzzkk8kkkkk8kk8k8kk88k888888888888zzzzzzzzzz8888888888zzzz",
"zzzz*,.             .yCCCCCCCCCCCCB<  .+zzzzzzzzzkkkkkkkkkkkkkkkkkkkkkkkkk8k88k8zzzzzzzzzz8888888888zzzz",
"zzzz*;o            +bCCCCCCCCCCNCx=   X$zzzzzzzzNkkkkkkkkkkzzzzzzzzzzzkkkkkkkkkkzzzzzzzzzkk88888k88kzzzz",
"zzzz*--           5NCCVCCCNCNNCB7..   $$zzzzzzzzzkkkzkkkkkkzzzzzzzzzzzkkkkkkkkkkzzzzzzzzzk8kk8kkkkkkzzzz",
"zzzz+--o        XfCCCNCNCCNNNNs+     X-$zzzzzzzzzzkzkkzkkzkzzzzzzzzzzzkkzkkkkkkkzzzzzzzzzkkkkkkkkkkzzzzz",
"zzzz*---       XhCNNCNNCNNNNx:..     o-$zzzzzzzzzzzzzzzzzzkzzzzzzzzzzzkzzkzzkkzzzzzzzzzzzkkkkkkkkkkzzzzz",
"zzzz*---o      sNCNNNNNNNNc4.       X$*$zzzzzzzzzzzzzzzzzzzzzzzzzzzzzzzzzzzkkzzzzzzzzzzzzzkkzzkkkkkzzzzz",
"zzzzo-*--X    4NCNNNNNNNNwX.        +$*@zzzzzzzzzzzzzzzzzzzzzzzzzzzzzzzzzzzzzzzzzzzzzzzzkzzzkzzzzzzzzzzz",
"zzzz+---**.   cNNNNNNNzzvvvvvvllllzllklqzzzzzzzzzNNNNzNzzzNzzzzzzzzzzzzzzzzzzzzzzzzzzzzzzzzzzzzzzzzzzzzz",
"zzzzo******. &NNNNzzzzzzzNzzzzzzzzzzzzzlzzzzzzzzzNNNNNNNNNNzzzzzzzzzzzNzzzzzNNzzzzzzzzzzzzzzzzzzzzzzzzzz",
"zzzzo*******owzzNzzzzzzzzzzzzzzzzzkzzzzqzzzzzzzzzNNNNNNNNNNNzzzzzzzzzzNNzNzNNzNNNNNzzNzNzzzzzzzzzzzzzzzz",
"zzzz+********pzzzzzzzzzzzzzkzkkzkzkkkkkqzzzzzzzzzNCNNNNCNNNzzzzzzzzzzzNNNNNNNNNNNNNNNNNNNNzNNNNNzzzzzzzz",
"zzzzo********azzzzzzzkzzzzzzzzkkkkkkkkkhzzzzzzzzzCCNNNCNCCNzzzzzzzzzzzNNNNNNNNNNNNNNNNNNNNNNNNNzzzzzzzzz",
"zzzzo$o**oo*oazzkzkzkzzzkkkkkkkkkkkkkkk0zzzzzzzzzNCCCCCCCCCzzzzzzzzzzzNCCCCNCCNNCNNNCNCNCNNNNNzzzzzzzzzz",
"zzzzoo+$o*o*oqkkzzzkkzkkkkkkkkkkkkkkkkk0zzzzzzzzzCCCCCCCCCCzzzzzzzzzzzCCCCCCCNCCCCCCCCCNCNNNNzzzzzzzzzzz",
"zzzzoo++oooooqzkkkkkkkkkkkkkkkk8kkkk88k0zzzzzzzzzNCNCCNCNNNzzzzzzzzzzzNNNNNNCNCNNNNNNNNNNzzzzzzzzzzzzzzz",
"zzzzooo+oooooo+ooooooooo++ooooooooooooo+zzzzzzzzzzzzzzzzzzzzzzzzzzzzzzzzzzzzzzzzzzzzzzzzzzzzzzzzzzzzzzzz",
"zzzzXoooooooooooooooooooooooooXoXoooooX+zzzzzzzzzzzzzzzzzzzzzzzzzzzzzzzzzzzzzzzzzzzzzzzzzzzzzzzzzzzzzzzz",
"zzzzroXXooooooooooooXoooXooooXXoXXoXoXX+zzzzzzzzzzzzzzzzzzzzzzzzzzzzzzzzzzzzzzzzzzzzzzzzzzzzzzzzzzzzzzzz",
"zzzzzzlpw:X.XoooXoXXoXXoXoXXoXXoXXXXXXXOzzzzzzzzzzzzzzzzzzzzzzzzzzzzzzzzzzzzzzzzzzzzzzzzzzzzzzzzzzzzzzzz",
"zzzzzzzzzzzqe<oXXXoXXXXXXXXXXXXXXXXXXXXozzzzzzzzzzzzzzzzzzzzzzzzzzzzzzzzzzzzzzzzzzzzzzzzzzzzzzzzzzzzzzzz",
"zzzzzzzzzzzzzzzzqe<+X.XXXXXXXXXXXX..XXXozzzzzzzzzzzzzzzzzzzzzzzzzzzzzzzzzzzzzzzzzzzzzzzzzzzzzzzzzzzzzzzz",
"zzzzzzzzzzzzzzzzzzzzlqe&o...XX..X.X...Xozzzzzzzzzzzzzzzzzzzzzzzzzzzzzzzzzzzzzzzzzzzzzzzzzzzzzzzzzzzzzzzz",
"zzzzzzzzzzzzzzzzzzzzzzzzzhr2$......X...ozzzzzzzzzzzzzzzzzzzzzzzzzzzzzzzzzzzzzzzzzzzzzzzzzzzzzzzzzzzzzzzz",
"zzzzzzzzzzzzzzzzzzzzzzzzzzzzzzqe<O.X. .ozzzzzzzzzzzzzzzzzzzzzzzzzzzzzzzzzzzzzzzzzzzzzzzzzzzzzzzzzzzzzzzz",
"zzzzzzzzzzzzzzzzzzzzzzzzzzzzzzzzzzlpw&+2zzzzzzzzzzzzzzzzzzzzzzzzzzzzzzzzzzzzzzzzzzzzzzzzzzzzzzzzzzzzzzzz",
"zzzzzzzzzzzzzzzzzzzzzzzzzzzzzzzzzzzzzzzzzzzzzzzzzzzzzzzzzzzzzzzzzzzzzzzzzzzzzzzzzzzzzzzzzzzzzzzzzzzzzzzz",
"zzzzzzzzzzzzzzzzzzzzzzzzzzzzzzzzzzzzzzzzzzzzzzzzzzzzzzzzzzzzzzzzzzzzzzzzzzzzzzzzzzzzzzzzzzzzzzzzzzzzzzzz",
"zzzzzzzzzzzzzzzzzzzzzzzzzzzzzzzzzzzzzzzzzzzzzzzzzzzzzzzzzzzzzzzzzzzzzzzzzzzzzzzzzzzzzzzzzzzzzzzzzzzzzzzz",
"zzzzzzzzzzzzzzzzzzzzzzzzzzzzzzzzzzzzzzzzzzzzzzzzzzzzzzzzzzzzzzzzzzzzzzzzzzzzzzzzzzzzzzzzzzzzzzzzzzzzzzzz",
"zzzzzzzzzzzzzzzzzzzzzzzzzzzzzzzzzzzzzzzzzzzzzzzzzzzzzzzzzzzzzzzzzzzzzzzzzzzzzzzzzzzzzzzzzzzzzzzzzzzzzzzz",
"zzzzzzzzzzzzzzzzzzzzzzzzzzzzzzzzzzzzzzzzzzzzzzzzzzzzzzzzzzzzzzzzzzzzzzzzzzzzzzzzzzzzzzzzzzzzzzzzzzzzzzzz",
"zzzzzzzzzzzzzzzzzzzzzzzzzzzzzzzzzzzzzzzzzzzzzzzzzzzzzzzzzzzzzzzzzzzzzzzzzzzzzzzzzzzzzzzzzzzzzzzzzzzzzzzz",
"zzzzzzzzzzzzzzzzzzzzzzzzzzzzzzzzzzzzzzzzzzzzzzzzzzzzzzzzzzzzzzzzzzzzzzzzzzzzzzzzzzzzzzzzzzzzzzzzzzzzzzzz"
};
