/* XPM */
static char *Heart_TV[] = {
/* columns rows colors chars-per-pixel */
"104 78 204 2",
"   c #EB2040",
".  c #EB2141",
"X  c #EB2242",
"o  c #EB2342",
"O  c #EB2443",
"+  c #EB2444",
"@  c #EB2544",
"#  c #EB2645",
"$  c #EA2746",
"%  c #EA2847",
"&  c #EA2947",
"*  c #EA2A48",
"=  c #EA2A49",
"-  c #EA2B49",
";  c #EA2C4A",
":  c #EA2D4A",
">  c #EA2D4B",
",  c #EA2E4C",
"<  c #EA2F4C",
"1  c #EA2F4D",
"2  c #EA304D",
"3  c #EA314E",
"4  c #EA324F",
"5  c #E93350",
"6  c #E93451",
"7  c #E93551",
"8  c #E93552",
"9  c #E93652",
"0  c #E93753",
"q  c #E93854",
"w  c #E93955",
"e  c #E93A55",
"r  c #E93B56",
"t  c #E93C57",
"y  c #E93D58",
"u  c #E93E59",
"i  c #E93F5A",
"p  c #E8405A",
"a  c #E8415C",
"s  c #E8425C",
"d  c #E8435D",
"f  c #E8445E",
"g  c #E8465F",
"h  c #E74C65",
"j  c #E74E66",
"k  c #E74E67",
"l  c #E74F67",
"z  c #E84760",
"x  c #E84861",
"c  c #E84962",
"v  c #E84A63",
"b  c #E84B64",
"n  c #E75068",
"m  c #E75168",
"M  c #E75169",
"N  c #E7526A",
"B  c #E7536A",
"V  c #E7546B",
"C  c #E7556C",
"Z  c #E7566D",
"A  c #E7576E",
"S  c #E6596F",
"D  c #E7586E",
"F  c #E65A70",
"G  c #E65B71",
"H  c #E65C72",
"J  c #E65D73",
"K  c #E65E73",
"L  c #E65F74",
"P  c #E65F75",
"I  c #E66075",
"U  c #E66176",
"Y  c #E66276",
"T  c #E66277",
"R  c #E66378",
"E  c #E5657A",
"W  c #E5667A",
"Q  c #E5677B",
"!  c #E66478",
"~  c #E5687B",
"^  c #E5687C",
"/  c #E5697D",
"(  c #E56A7D",
")  c #E56A7E",
"_  c #E56C7F",
"`  c #E56D80",
"'  c #E56E81",
"]  c #E56F81",
"[  c #E57082",
"{  c #E57083",
"}  c #E57183",
"|  c #E47284",
" . c #E47385",
".. c #E47486",
"X. c #E47586",
"o. c #E47687",
"O. c #E47688",
"+. c #E47788",
"@. c #E37E8E",
"#. c #E37F8F",
"$. c #E47889",
"%. c #E4798A",
"&. c #E47A8B",
"*. c #E47B8B",
"=. c #E47B8C",
"-. c #E47C8C",
";. c #E47D8D",
":. c #DFB1B8",
">. c #DFB1B9",
",. c #DFB2B9",
"<. c #DFB3BA",
"1. c #DFB4BB",
"2. c #DFB6BC",
"3. c #DFB6BD",
"4. c #DFB7BD",
"5. c #DFB8BE",
"6. c #E38090",
"7. c #E38190",
"8. c #E38191",
"9. c #E38291",
"0. c #E38392",
"q. c #E38493",
"w. c #E38594",
"e. c #E38694",
"r. c #E38796",
"t. c #E38896",
"y. c #E38997",
"u. c #E28C99",
"i. c #E28C9A",
"p. c #E28D9B",
"a. c #E28E9B",
"s. c #E28F9C",
"d. c #E2909D",
"f. c #E2929E",
"g. c #E2929F",
"h. c #E2939F",
"j. c #E294A0",
"k. c #E294A1",
"l. c #E295A1",
"z. c #E296A2",
"x. c #E297A2",
"c. c #E198A4",
"v. c #E19AA5",
"b. c #E19AA6",
"n. c #E19BA6",
"m. c #E19CA7",
"M. c #E19DA7",
"N. c #E19EA9",
"B. c #E19FA9",
"V. c #E1A0AA",
"C. c #E1A1AB",
"Z. c #E1A2AC",
"A. c #E1A3AD",
"S. c #E0A4AE",
"D. c #E0A5AE",
"F. c #E0A5AF",
"G. c #E0A6AF",
"H. c #E0A7B0",
"J. c #E0A8B1",
"K. c #E0A9B2",
"L. c #E0ABB3",
"P. c #E0ACB4",
"I. c #E0AEB5",
"U. c #E0AEB6",
"Y. c #E0B0B7",
"T. c #DFBAC0",
"R. c #DFBBC0",
"E. c #DFBCC1",
"W. c #DEBDC2",
"Q. c #DFBCC2",
"!. c #DEBEC3",
"~. c #DEBFC4",
"^. c #DEC0C5",
"/. c #DEC1C5",
"(. c #DEC1C6",
"). c #DEC2C7",
"_. c #DEC3C7",
"`. c #DEC4C8",
"'. c #DEC5C9",
"]. c #DEC6CA",
"[. c #DEC7CA",
"{. c #DEC8CB",
"}. c #DDCACD",
"|. c #DDCBCE",
" X c #DEC9CC",
".X c #DDCCCF",
"XX c #DDCDCF",
"oX c #DDCDD0",
"OX c #DDCED0",
"+X c #DDCFD1",
"@X c #DDCFD2",
"#X c #DDD1D3",
"$X c #DDD2D4",
"%X c #DDD3D5",
"&X c #DDD4D5",
"*X c #DDD5D6",
"=X c #DCD6D7",
"-X c #DCD7D8",
";X c #DCD8D8",
":X c #DCD8D9",
">X c #DCD9DA",
",X c #DCDADA",
"<X c #DCDBDB",
"1X c gainsboro",
/* pixels */
"1X1X1X1X1X1X1X1X1X1X1X1X1X1X1X1X1X1X1X1X1X1X1X1X1X1X1X1X1X1X1X1X1X1X1X1X1X1X1X1X1X1X1X1X1X1X1X1X1X1X1X1X1X1X1X1X1X1X1X1X1X1X1X1X1X1X1X1X1X1X1X1X1X1X1X1X1X1X1X1X1X1X1X1X1X1X1X1X1X1X1X1X1X1X1X1X1X1X1X1X1X1X1X1X",
"1X1X1X1X1X1X1X1X1X1X1X1X1X1X1X1X1X1X1X1X1X1X1X1X1X1X1X1X1X1X1X1X1X1X1X1X1X1X1X1X1X1X1X1X1X1X1X1X1X1X1X1X1X1X1X1X1X1X1X1X1X1X1X1X1X1X1X1X1X1X1X1X1X1X1X1X1X1X1X1X1X1X1X1X1X1X1X1X1X1X1X1X1X1X1X1X1X1X1X1X1X1X1X1X",
"1X1X1X1X1X1X1X1X1X1X1X1X1X1X1X1X1X1X1X1X1X1X1X1X1X1X1X1X1X1X1X1X1X1X1X1X1X1X1X1X1X1X1X1X1X1X1X1X1X1X1X1X1X1X1X1X1X1X1X1X1X1X1X1X1X1X1X1X1X1X1X1X1X1X1X1X1X1X1X1X1X1X1X1X1X1X1X1X1X1X1X1X1X1X1X1X1X1X1X1X1X1X1X1X",
"1X1X1X1X1X1X1X1X1X1X1X1X1X1X1X1X1X1X1X1X1X1X1X1X1X1X1X1X1X1X1X1X1X1X1X1X1X1X1X1X1X1X1X1X1X1X1X1X1X1X1X1X1X1X1X1X1X1X1X1X1X1X1X1X1X1X1X1X1X1X1X1X1X1X1X1X1X1X1X1X1X1X1X1X1X1X1X1X1X1X1X1X1X1X1X1X1X1X1X1X1X1X1X1X",
"1X1X1X1X1X1X1X1X1X1X1X1X1X1X1X1X1X1X1X1X1X1X1X1X1X1X1X1X1X1X1X1X1X1X1X1X1X1X1X1X1X1X1X1X1X1X1X1X1X1X1X1X1X1X1X1X1X1X1X1X1X1X1X1X1X1X1X1X1X1X1X1X1X1X1X1X1X1X1X1X1X1X1X1X1X1X1X1X1X1X1X1X1X1X1X1X1X1X1X1X1X1X1X1X",
"1X1X1X1X1X1X1X1X1X1X1X1X1X1X1X1X1X1X1X1X1X1X1X1X1X1X1X1X1X1X1X1X1X1X1X1X1X1X1X1X1X1X1X1X1X1X1X1X1X1X1X1X1X1X1X1X1X1X1X1X1X1X1X1X1X1X1X1X1X1X1X1X1X1X1X1X1X1X1X1X1X1X1X1X1X1X1X1X1X1X1X1X1X1X1X1X1X1X1X1X1X1X1X1X",
"1X1X1X1X1X1X1X1X1X1X1X1X1X1X1X1X1X1X1X1X1X1X1X1X1X1X1X1X1X1X1X1X1X1X1X1X1X1X1X1X1X1X1X1X1X1X1X1X1X1X1X1X1X1X1X1X1X1X1X1X1X1X1X1X1X1X1X1X1X1X1X1X1X1X1X1X1X1X1X1X1X1X1X1X1X1X1X1X1X1X1X1X1X1X1X1X1X1X1X1X1X1X1X1X",
"1X1X1X1X1X1X1X1X1X1X1X1X1X1X1X1X1X1X1X1X1X1X1X1X1X1X1X1X1X1X1X1X1X1X1X1X1X1X1X1X1X1X1X1X1X1X1X1X1X1X1X1X1X1X1X1X1X1X1X1X1X1X1X1X1X1X1X1X1X1X1X1X1X1X1X1X1X1X1X1X1X1X1X1X1X1X1X1X1X1X1X1X1X1X1X1X1X1X1X1X1X1X1X1X",
"1X1X1X1X1X1X1X1X1X1X1X1X1X1X1X1X1X1X1X1X1X1X1X1X1X1X1X1X1X1X1X1X1X1X1X1X1X1X1X1X1X1X1X1X1X1X1X1X1X1X1X1X1X1X1X1X1X1X1X1X1X1X1X1X1X1X1X1X1X1X1X1X1X1X1X1X1X1X1X1X1X1X1X1X1X1X1X1X1X1X1X1X1X1X1X1X1X1X1X1X1X1X1X1X",
"1X1X1X1X1X1X1X1X1X1X1X1X1X1X1X1X1X1X1X1X1X1X1X1X1X1X1X1X1X1X1X1X1X1X1X1X1X1X1X1X1X1X1X1X1X1X1X1X1X1X1X1X1X1X1X1X1X1X1X1X1X1X1X1X1X1X1X1X1X1X1X1X1X1X1X1X1X1X1X1X1X1X1X1X1X1X1X1X1X1X1X1X1X1X1X1X1X1X1X1X1X1X1X1X",
"1X1X1X1X1X1X1X1X1X1X1X1X1X1X1X1X1X1X1X1X1X1X1X1X1X1X1X1X1X1X1X1X1X1X1X1X1X1X1X1X1X1X1X1X1X1X1X1X1X1X1X1X1X1X1X1X1X1X1X1X1X1X1X1X1X1X1X1X1X1X1X1X1X1X1X1X1X1X1X1X1X1X1X1X1X1X1X1X1X1X1X1X1X1X1X1X1X1X1X1X1X1X1X1X",
"1X1X1X1X1X1X1X1X1X1X1X1X1X1X1X1X1X1X1X1X1X1X1X1X1X1X1X1X1X1X1X1X1X1X1X1X1X1X1X1X1X1X1X1X1X1X1X1X1X1X1X1X1X1X1X1X1X1X1X1X1X1X1X1X1X1X1X1X1X1X1X1X1X1X1X1X1X1X1X1X1X1X1X1X1X1X1X1X1X1X1X1X1X1X1X1X1X1X1X1X1X1X1X1X",
"1X1X1X1X1X1X1X1X1X1X1X1X1X1X1X1X1X1X1X1X1X1X1X1X1X1X1X1X1X1X1X1X1X1X1X1X1X1X1X1X1X1X1X1X1X1X1X1X1X1X1X1X1X1X1X1X1X1X1X1X1X1X1X1X1X1X1X1X1X1X1X1X1X1X1X1X1X1X1X1X1X1X1X1X1X1X1X1X1X1X1X1X1X1X1X1X1X1X1X1X1X1X1X1X",
"1X1X1X1X1X1X1X1X1X1X1X1X1X1X1X1X1X1X1X1X1X1X1X1X1X1X1X1X1X1X1X1X1X1X1X1X1X1X1X1X1X1X1X1X1X1X1X1X1X1X1X1X1X1X1X1X1X1X1X1X1X1X1X1X1X1X1X1X1X1X1X1X1X1X1X1X1X1X1X1X1X1X1X1X1X1X1X1X1X1X1X1X1X1X1X1X1X1X1X1X1X1X1X1X",
"1X1X1X1X1X1X1X1X1X1X1X1X1X1X1X1X1X1X1X1X1X1X1X1X1X1X1X1X1X1X1X1X1X1X1X1X1X1X1X1X1X1X1X1X1X1X1X1X1X1X1X1X1X1X1X1X1X1X1X1X1X1X1X1X1X1X1X1X1X1X1X1X1X1X1X1X1X1X1X1X1X1X1X1X1X1X1X1X1X1X1X1X1X1X1X1X1X1X1X1X1X1X1X1X",
"1X1X1X1X1X1X1X1X1X1X1X1X1X1X1X1X1X1X1X1X1X1X1X1X1X1X1X1X1X1X1X1X1X1X1X1X1X1X1X1X1X1X1X1X1X1X1X1X1X1X1X1X1X1X1X1X1X1X1X1X1X1X1X1X1X1X1X1X1X1X1X1X1X1X1X1X1X1X1X1X1X1X1X1X1X1X1X1X1X1X1X1X1X1X1X1X1X1X1X1X1X1X1X1X",
"1X1X1X1X1X1X1X1X1X1X1X1X1X1X1X1X1X1X1X1X1X1X1X1X1X1X1X1X1X1X1X1X1X1X1X1X1X1X1X1X1X1X1X1X1X1X1X1X1X1X1X1X1X1X1X1X1X1X1X1X1X1X1X1X1X1X1X1X1X1X1X1X1X1X1X1X1X1X1X1X1X1X1X1X1X1X1X1X1X1X1X1X1X1X1X1X1X1X1X1X1X1X1X1X",
"1X1X1X1X1X1X1X1X1X1X1X1X1X1X1X1X1X1X1X1X1X1X1X1X1X1X1X1X1X1X1X1X1X1X1X1X1X1X1X1X1X1X1X1X1X1X1X1X1X1X1X1X1X1X1X1X1X1X1X1X1X1X1X1X1X1X1X1X1X1X1X1X1X1X1X1X1X1X1X1X1X1X1X1X1X1X1X1X1X1X1X1X1X1X1X1X1X1X1X1X1X1X1X1X",
"1X1X1X1X1X1X1X1X1X1X1X1X1X1X1X1X1X1X1X1X1X1X1X1X1X1X1X1X1X1X1X1X1X1X1X1X1X1X1X1X1X1X1X1X1X1X1X1X1X1X1X1X1X1X1X1X1X1X1X1X1X1X1X1X1X1X1X1X1X1X1X1X1X1X1X1X1X1X1X1X1X1X1X1X1X1X1X1X1X1X1X1X1X1X1X1X1X1X1X1X1X1X1X1X",
"1X1X1X1X1X1X1X1X1X1X1X1X1X1X1X1X1X1X1X1X1X1X1X1X1X1X1X1X1X1X1X1X1X1X1X1X1X1X1X1X1X1X1X1X1X1X1X1X1X1X1X1X1X1X1X1X1X1X1X1X1X1X1X1X1X1X1X1X1X1X1X1X1X1X1X1X1X1X1X1X1X1X1X1X1X1X1X1X1X1X1X1X1X1X1X1X1X1X1X1X1X1X1X1X",
"1X1X1X1X1X1X1X1X1X1X1X1X1X1X1X1X1X1X1X1X1X1X1X1X1X1X1X1X1X1X1X1X1X1X1X1X1X1X1X1X1X1X1X1X1X1X1X1X1X1X1X1X1X1X1X1X1X1X1X1X1X1X1X1X1X1X1X1X1X1X1X1X1X1X1X1X1X1X1X1X1X1X1X1X1X1X1X1X1X1X1X1X1X1X1X1X1X1X1X1X1X1X1X1X",
"1X1X1X1X1X1X1X1X1X1X1X1X1X1X1X1X1X1X1X1X1X1X1X1X1X1X1X1X1X1X1X1X1X1X1X1X1X1X1X1X1X1X1X1X1X1X1X1X1X1X1X1X1X1X1X1X1X1X1X1X1X1X1X1X1X1X1X1X1X1X1X1X1X1X1X1X1X1X1X1X1X1X1X1X1X1X1X1X1X1X1X1X1X1X1X1X1X1X1X1X1X1X1X1X",
"1X1X1X1X1X1X1X1X1X1X1X1X1X1X1X1X1X1X1X1X1X1X1X1X1X1X1X1X1X1X1X1X1X1X1X1X1X1X1X1X1X1X1X1X1X1X1X1X1X1X1X1X1X1X1X1X1X1X1X1X1X1X1X1X1X1X1X1X1X1X1X1X1X1X1X1X1X1X1X1X1X1X1X1X1X1X1X1X1X1X1X1X1X1X1X1X1X1X1X1X1X1X1X1X",
"1X1X1X1X1X1X1X1X1X1X1X1X1X1X1X1X1X1X1X1X1X1X1X1X1X1X1X1X1X1X1X1X1X1X1X1X1X1X1X1X1X1X1X1X1X1X1X1X1X1X1X1X1X1X1X1X1X1X1X1X1X1X1X1X1X1X1X1X1X1X1X1X1X1X1X1X1X1X1X1X1X1X1X1X1X1X1X1X1X1X1X1X1X1X1X1X1X1X1X1X1X1X1X1X",
"1X1X1X1X1X1X1X1X1X1X1X1X1X1X1X1X1X1X1X1X1X1X1X1X1X1X1X1X1X1X1X1X1X1X1X1X1X1X1X1X1X1X1X1X1X1X1X1X1X1X1X1X1X1X1X1X1X1X1X1X1X1X1X1X1X1X1X1X1X1X1X1X1X1X1X1X1X1X1X1X1X1X1X1X1X1X1X1X1X1X1X1X1X1X1X1X1X1X1X1X1X1X1X1X",
"1X1X1X1X. O   ..1X,X1X1X1X1X1X1X1X1X1X1X1X1X1X1X1X1X1X1X1X1X1X1X1X1X1X1X1X1X1X1X1X1X1X1X1X1X1X1X1X1X1X1X1X1X1X1X1X1X1X1X1X1X1X1X1X1X1X1X1X1X1X1X,X1X~   . 6 =X1X1X1X1X1X1X1X1X1X1X1X1X1X1X1X1X1X1X1X1X1X1X1X1X1X",
"1X1X1X1X. O   ..1X,X1X1X1X1X1X1X1X1X1X1X1X1X1X1X1X1X1X1X1X1X1X1X1X1X1X1X1X1X1X1X1X1X1X1X1X1X1X1X1X1X1X1X1X1X1X1X1X1X1X1X1X1X1X1X1X1X1X1X1X1X1X1X,X1X(   . 6 ;X1X1X1X1X1X1X1X1X1X1X1X1X1X1X1X1X1X1X1X1X1X1X1X1X1X",
"1X1X1X1X. .   ..1X,X1X1X1X1X1X1X1X1X1X1X1X1X1X1X1X1X1X1X1X1X1X1X1X1X1X1X1X1X1X1X1X1X1X1X1X1X1X1X1X1X1X1X1X1X1X1X1X1X1X1X1X1X1X1X1X1X1X1X1X1X1X1X,X1X~ . . 6 ;X1X,X1X1X1X1X1X1X1X1X1X1X1X1X1X1X1X1X1X1X1X1X1X1X1X",
"1X1X1X1X. . . ..1X,X1X1X1X1X1X1X1X1X1X1X1X1X1X1X1X1X1X1X1X1X1X1X1X1X1X1X1X1X1X1X1X1X1X1X1X1X1X1X1X1X1X1X1X1X1X1X1X1X1X1X1X1X1X1X1X1X1X1X1X1X1X1X,X1X(     0 ;X1X,X1X1X1X1X1X1X1X1X1X1X1X1X1X1X1X1X1X1X1X1X1X1X1X",
"1X1X1X1X. O . ..1X,X1X,X,X,X,X1X1X1X1X1X1X1X1X1X1X1X1X1X1X1X<X<X,X,X,X<X<X1X1X1X1X1X1X1X1X1X1X1X1X1X1X1X<X<X<X<X<X1X1X1X1X1X1X1X1X1X1X1X1X1X1X1X,X,XQ     0 ;X1X,X1X1X1X1X1X1X1X1X1X1X1X1X1X1X1X1X1X1X1X1X1X1X1X",
"1X1X1X1X. O . ..1X=X,X1X1X1X1X,X,X1X1X1X1X1X1X1X1X1X1X1X,X,X<X<X1X1X<X1X1X<X<X1X1X1X1X1X1X1X1X1X1X1X1X<X,X<X<X<X1X,X<X1X1X1X1X1X1X1X1X1X,X,X,X1X,X1XQ .   6 =X1X1X1X1X1X1X1X1X1X1X1X1X1X1X1X1X1X,X,X,X,X1X1X1X1X",
"1X1X1X1X. . . | 1X,X1X#X[.{.=X1X1X,X,X1X1X1X1X1X1X1X1X,X,X1X<X[.P.Z.H.T.-X1X1X<X<X1X1X1X1X1X1X1X1X1X<X1X<X=X[.{.,X1X<X,X1X1X1X1X1X1X,X,X1X1X1X<X,X1XQ     6 =X1X,X1X1X1X1X1X1X1X1X1X1X1X1X1X1X,X1X1X1X1X1X1X1X1X",
"1X1X1X1X. .   O.<Xi.j 1 + $ 8 H D.,X1X1X1X1X1X1X1X1X,X1X|.6.d + . . . . 6 Q 3.1X1X1X1X1X1X1X1X1X1X,X1X1.I 2 + & q ` (.1X,X1X[.y i 8 b.<XP.' d O.H.5 1     O y y p y d 6 ..1X,X1X1X1X1X1X1X,X1X<.p x d D 1X1X1X1X",
"1X1X1X1X.     n d   .   . .   . . n [.1X,X1X1X1X,X1X1Xu.- . . . + + + . . . . Q #X1X,X1X1X1X1X1X1X1X-..     . . . . + j.<X1X~..     ' F   +   L b.  .           . . . . 2 #X1X,X1X1X1X1X1X,X1X` . O . ..1X1X1X1X",
"1X1X1X1X.         +           + + . 2 T.1X<X1X,X1X,XQ . . + . .       . . + O . t (.1X1X1X1X1X,X1X$.. O O .     . + . . j.,X!..   +     + +   R N.. . . . . . . . . . O . M.1X,X1X1X1X1X,X1X=X6 . . - ~.1X1X1X1X",
"1X1X<X<X.     . +   - L #.=.n . . + . q oX1X,X,X1XQ . + . . 2 ` v.H.V.#.d . . . . q {.1X1X1X,X1XP.. . . . x -.$.y . . . - XX[..       +   + 8 w.P.n 8 . . + Z Z D j . . . K 1X,X1X1X1X1X,X1XD.  .   K 1X1X1X1X1X",
"1X1X1X1X. . . .   F |.<X<X<X<X<.q . + . ` 1X,X,Xt.  + . . ..=X1X,X1X1X1X,XN.q . + . V 1X1X,X,X1XF . O   6.1X,X1X,XQ . O . 6.XX          x 1.<X1X,X1XQ .   6 -X1X1X;Xq     - {.1X,X1X1X1X,X1XQ   + . V.1X1X1X1X1X",
"1X1X1X1X. . . . F <X<X,X,X,X,X<X[.6   . - (.,X[.<   .   j.1X,X,X,X,X,X-X,X1X| . . +   u.1X=X1XXX< .   V 1X,X-X,X,X=Xq . . j (.    +   n -X1X<X<X,X1XQ   . 6 =X,X=X1X$.  O . d.1X,X1X1X,X1XoX2   . 6 =X1X1X1X1X1X",
"1X1X1X1X. . . + (.<X,X<X1X1X<X,X,Xj.  O . u.1XO.. +   =.1X,X1X1X1X,X,X1XT.z . . . . . 6.1X,X1X!.  O   u.1X,X1X1X,X,X( . . q 3..     $ ).<X>X1X1X,X<XQ   . 6 ,X1X,X1X!.. . . V 1X,X1X1X,X1XM.  O   ..1X,X1X1X1X1X",
"1X1X1X1X. .   Z <X<X<X<X1X1X1X<X1XXX<   . ( 1Xq . . q %X1X,X1X1X,X1X,X6.+ . O .   d <.,X=XN._ j   .   j.1X,X1X1X,X1X| . . 6 <.O .   R <X<X<X1X1X,X<X(   . 6 -X1X1X1X1Xn . . + (.1X,X1X,X1XK   . . 5.1X,X1X1X1X1X",
"1X1X1X1X. . . [ 1X,X<X1X1X1X1X1X1X1Xd     I [.  .   *.1X,X1X,X,X1X3.d . . + . O 6.;X1XL.t   . . . + . v.<X,X1X1X,X<X...   5 <.O .   w.<X>X<X1X1X,X1X~   . 6 -X1X1X,X1Xj.. O . t.1X,X1X1X{.<     l 1X1X1X1X1X1X1X",
"1X1X1X1X. + . ..<X,X1X1X1X1X1X1X1X1Xd .   I J.  O   J.1X,X,X1X=X$.. . + O . x 5.1X1XM..   O O   . . . j.1X,X1X1X,X1X..    5 <.O .   p.<X<X<X1X1X,X1X~   . 6 -X1X,X1X1X#X2     b 1X1X,X1Xd.. O   h.1X,X1X1X1X1X1X",
"1X1X1X1X. . . | 1X,X1X1X1X1X1X1X,X1Xd . . R v.. O   5.1X,X1XY.y . . + . + e.,X,X1X^.&   O   O t d d q Z.1X,X1X1X,X<X... . 6 <.O .   p.<X>X<X1X1X,X<X~ . . 6 -X1X,X1X,X1X`   . . 5.1X,X1XV . . 2 XX1X1X1X1X1X1X1X",
"1X1X1X1X. . . ..1X,X1X1X1X1X1X1X,X1Xd . . I N.  O   5.1X#X[     O .   j !.1X,X,X1XQ   O   V `.1X<X1X1X1X1X1X1X1X,X<X... . 6 <.O     s.<X>X<X1X1X,X<X( . . 6 -X1X,X1X,X1X<.. .   6.1X1X(.+ . . ( 1X,X1X1X1X1X1X1X",
"1X1X1X1X. O . ..1X,X1X1X1X1X1X1X,X1Xd     I <.  O   V.1.6 . O O . & u.1X1X,X,X1XXX2     d ;X1X1X1X1X1X1X1X1X1X1X,X1X..    5 <.O .   s.<X,X1X1X1X,X<X(     6 =X1X1X1X1X1X1Xx .   d ,X1Xt.. O . P.1X,X1X1X1X1X1X1X",
"1X1X1X1X. O . ..1X,X1X1X1X1X1X1X,X,Xd     F oX. . . 6 & . O .   V `.1X,X,X1X,X1XV.  O   u.1X;X1X1X1X1X1X1X1X1X1X,X1X...   5 <.O .   p.<X,X1X1X1X,X<X|     < XX,X,X1X1X,X1Xu.. .   <.1Xx . . d 1X1X1X1X1X1X1X1X1X",
"1X1X1X1X. . . | 1X,X1X1X1X1X1X1X,X1Xd   . Z 1Xx . . . . . . < d.1X,X,X1X1X,X,X1XV   O   V.1X1X1X1X1X1X1X1X1X1X1X,X,X... . 6 <.O .   s.<X,X<X1X1X,X1Xs.  + . D.1X,X1X1X,X1X{.< .   -.[.. . . t.1X,X1X1X1X1X1X1X1X",
"1X1X1X1X. . . ..1X,X1X1X1X1X1X1X1X1Xd   . Z 1Xd.. . . . . K [.1X,X1X1X1X,X;X1Xu.  . O   6.1X;X1X<X<X<X<X<X,X,X,X,X1X|   . 6 <.O     s.<X<X<X1X1X<X1XT.. . . j 1X,X,X,X1X,X1XI .   x $.. . & [.1X1X1X1X1X1X1X1X1X",
"1X1X1X1X. O   ..1X,X1X1X1X1X1X1X1X1Xd     Z 1X=Xp . O   d =X1X,X,X,X,X1X,X1Xj.. . . .   6 |.1X,X1X<X1X1X1X1X1X<X,X<X..    5 <.+ .   u.1X,X1X1X1X1X,X1XZ . + . ` 1X1X,X1X,X1XJ.  . + & .   I 1X,X1X1X1X1X1X1X1X1X",
"1X1X1X1X. O   ..1X,X1X1X1X1X1X1X1X1Xd     Z 1X1XP.. . .   p Z.,X1X1X1X1X~.I . . .   . .   t Z.|.oXoXoXoX|.XXXXXX|.,X`     5 <.O . . u.1X,X1X1X1X1X,X1X3.O . . . x N.[.,X1X1X,Xp . . . .   D.1X,X1X1X1X1X1X1X1X1X",
"1X1X1X1X. . . ..1X,X1X1X1X1X1X1X1X1Xd     Z 1X;X1Xh.  . O .   0 K ` Q d . . O O . F p   O .   & - - - - & & - & & - +   . 6 <.O . . u.1X,X1X1X1X1X1X,X1Xu.. . + . .   :.1X;X1X6.. O . . t =X1X1X1X1X1X1X1X1X1X1X",
"1X1X1X1XO + . ..1X,X1X1X1X1X1X1X1X1Xd .   Z 1X,X,X1Xv.&   . O   . . . . . O . . ( 1X3.<   . O                 .     . . . 6 1.+ O . s.1X,X1X1X1X1X1X1X,X1Xd.. . . + . P.,X,X1X(.+ . + . -.1X,X1X1X1X1X1X1X1X1X1X",
"1X1X1X1X. O . ..1X,X1X1X1X1X1X1X1X1Xd . . Z 1X,X1X,X1X(.K . . . . . . . . . y Z.1X,X1X[.K O         . . .   . .       . . 6 1.O .   u.1X,X1X1X1X1X1X1X1X,X1XT.F + . . Y.1X,X1X1XD . . O !.1X1X1X1X1X1X1X1X1X1X1X",
"1X1X1X1X[ [ ~ V.1X,X1X1X1X1X1X1X1X1Xq._ ( d.1X1X1X1X,X1X1X3.| p - . + 0 L V.,X1X,X1X,X,X1X5.t.[ ` ` [ ` ` ` [ [ ` [ ` [ _ $.[.[ [ ~ P.1X1X1X1X1X1X1X1X1X1X,X,X1X(.d.[ (.1X1X1X1X5.e.t.v.1X1X1X1X1X1X1X1X1X1X1X1X",
"1X1X1X1X1X1X1X1X1X1X1X1X1X1X1X1X1X1X1X1X1X1X1X1X1X1X1X1X1X1X1X1X1X1X1X1X1X1X1X1X1X1X1X1X1X1X1X1X<X1X1X1X1X1X1X1X1X1X1X1X1X1X1X1X1X1X1X1X1X1X1X1X1X1X1X1X1X1X1X1X1X1X1X1X1X1X1X1X1X1X1X1X1X1X1X1X1X1X1X1X1X1X1X1X",
"1X1X1X1X1X1X1X1X1X1X1X1X1X1X1X1X1X1X1X1X1X1X1X1X1X1X1X1X1X1X1X1X1X1X1X1X1X1X1X1X1X1X1X1X1X1X1X1X1X1X1X1X1X1X1X1X1X1X1X1X1X1X1X1X1X1X1X1X1X1X1X1X1X1X1X1X1X1X1X1X1X1X1X1X1X1X1X1X1X1X1X1X1X1X1X1X1X1X1X1X1X1X1X1X",
"1X1X1X1X1X1X1X1X1X1X1X1X1X1X1X1X1X1X1X1X1X1X1X1X1X1X1X1X1X1X1X1X1X1X1X1X1X1X1X1X1X1X1X1X1X1X1X1X1X1X1X1X1X1X1X1X1X1X1X1X1X1X1X1X1X1X1X1X1X1X1X1X1X1X1X1X1X1X1X1X1X1X1X1X1X1X1X1X1X1X1X1X1X1X1X1X1X1X1X1X1X1X1X1X",
"1X1X1X1X1X1X1X1X1X1X1X1X1X1X1X1X1X1X1X1X1X1X1X1X1X1X1X1X1X1X1X1X1X1X1X1X1X1X1X1X1X1X1X1X1X1X1X1X1X1X1X1X1X1X1X1X1X1X1X1X1X1X1X1X1X1X1X1X1X1X1X1X1X1X1X1X1X1X1X1X1X1X1X1X1X1X1X1X1X1X1X1X1X1X1X1X1X1X1X1X1X1X1X1X",
"1X1X1X1X1X1X1X1X1X1X1X1X1X1X1X1X1X1X1X1X1X1X1X1X1X1X1X1X1X1X1X1X1X1X1X1X1X1X1X1X1X1X1X1X1X1X1X1X1X1X1X1X1X1X1X1X1X1X1X1X1X1X1X1X1X1X1X1X1X1X1X1X1X1X1X1X1X1X1X1X1X1X1X1X1X1X1X1X1X1X1X1X1X1X1X1X1X1X1X1X1X1X1X1X",
"1X1X1X1X1X1X1X1X1X1X1X1X1X1X1X1X1X1X1X1X1X1X1X1X1X1X1X1X1X1X1X1X1X1X1X1X1X1X1X1X1X1X1X1X1X1X1X1X1X1X1X1X1X1X1X1X1X1X1X1X1X1X1X1X1X1X1X1X1X1X1X1X1X1X1X1X1X1X1X1X1X1X1X1X1X1X1X1X1X1X1X1X1X1X1X1X1X1X1X1X1X1X1X1X",
"1X1X1X1X1X1X1X1X1X1X1X1X1X1X1X1X1X1X1X1X1X1X1X1X1X1X1X1X1X1X1X1X1X1X1X1X1X1X1X1X1X1X1X1X1X1X1X1X1X1X1X1X1X1X1X1X1X1X1X1X1X1X1X1X1X1X1X1X1X1X1X1X1X1X1X1X1X1X1X1X1X1X1X1X1X1X1X1X1X1X1X1X1X1X1X1X1X1X1X1X1X1X1X1X",
"1X1X1X1X1X1X1X1X1X1X1X1X1X1X1X1X1X1X1X1X1X1X1X1X1X1X1X1X1X1X1X1X1X1X1X1X1X1X1X1X1X1X1X1X1X1X1X1X1X1X1X1X1X1X1X1X1X1X1X1X1X1X1X1X1X1X1X1X1X1X1X1X1X1X1X1X1X1X1X1X1X1X1X1X1X1X1X1X1X1X1X1X1X1X1X1X1X1X1X1X1X1X1X1X",
"1X1X1X1X1X1X1X1X1X1X1X1X1X1X1X1X1X1X1X1X1X1X1X1X1X1X1X1X1X1X1X1X1X1X1X1X1X1X1X1X1X1X1X1X1X1X1X1X1X1X1X1X1X1X1X1X1X1X1X1X1X1X1X1X1X1X1X1X1X1X1X1X1X1X1X1X1X1X1X1X1X1X1X1X1X1X1X1X1X1X1X1X1X1X1X1X1X1X1X1X1X1X1X1X",
"1X1X1X1X1X1X1X1X1X1X1X1X1X1X1X1X1X1X1X1X1X1X1X1X1X1X1X1X1X1X1X1X1X1X1X1X1X1X1X1X1X1X1X1X1X1X1X1X1X1X1X1X1X1X1X1X1X1X1X1X1X1X1X1X1X1X1X1X1X1X1X1X1X1X1X1X1X1X1X1X1X1X1X1X1X1X1X1X1X1X1X1X1X1X1X1X1X1X1X1X1X1X1X1X",
"1X1X1X1X1X1X1X1X1X1X1X1X1X1X1X1X1X1X1X1X1X1X1X1X1X1X1X1X1X1X1X1X1X1X1X1X1X1X1X1X1X1X1X1X1X1X1X1X1X1X1X1X1X1X1X1X1X1X1X1X1X1X1X1X1X1X1X1X1X1X1X1X1X1X1X1X1X1X1X1X1X1X1X1X1X1X1X1X1X1X1X1X1X1X1X1X1X1X1X1X1X1X1X1X",
"1X1X1X1X1X1X1X1X1X1X1X1X1X1X1X1X1X1X1X1X1X1X1X1X1X1X1X1X1X1X1X1X1X1X1X1X1X1X1X1X1X1X1X1X1X1X1X1X1X1X1X1X1X1X1X1X1X1X1X1X1X1X1X1X1X1X1X1X1X1X1X1X1X1X1X1X1X1X1X1X1X1X1X1X1X1X1X1X1X1X1X1X1X1X1X1X1X1X1X1X1X1X1X1X",
"1X1X1X1X1X1X1X1X1X1X1X1X1X1X1X1X1X1X1X1X1X1X1X1X1X1X1X1X1X1X1X1X1X1X1X1X1X1X1X1X1X1X1X1X1X1X1X1X1X1X1X1X1X1X1X1X1X1X1X1X1X1X1X1X1X1X1X1X1X1X1X1X1X1X1X1X1X1X1X1X1X1X1X1X1X1X1X1X1X1X1X1X1X1X1X1X1X1X1X1X1X1X1X1X",
"1X1X1X1X1X1X1X1X1X1X1X1X1X1X1X1X1X1X1X1X1X1X1X1X1X1X1X1X1X1X1X1X1X1X1X1X1X1X1X1X1X1X1X1X1X1X1X1X1X1X1X1X1X1X1X1X1X1X1X1X1X1X1X1X1X1X1X1X1X1X1X1X1X1X1X1X1X1X1X1X1X1X1X1X1X1X1X1X1X1X1X1X1X1X1X1X1X1X1X1X1X1X1X1X",
"1X1X1X1X1X1X1X1X1X1X1X1X1X1X1X1X1X1X1X1X1X1X1X1X1X1X1X1X1X1X1X1X1X1X1X1X1X1X1X1X1X1X1X1X1X1X1X1X1X1X1X1X1X1X1X1X1X1X1X1X1X1X1X1X1X1X1X1X1X1X1X1X1X1X1X1X1X1X1X1X1X1X1X1X1X1X1X1X1X1X1X1X1X1X1X1X1X1X1X1X1X1X1X1X",
"1X1X1X1X1X1X1X1X1X1X1X1X1X1X1X1X1X1X1X1X1X1X1X1X1X1X1X1X1X1X1X1X1X1X1X1X1X1X1X1X1X1X1X1X1X1X1X1X1X1X1X1X1X1X1X1X1X1X1X1X1X1X1X1X1X1X1X1X1X1X1X1X1X1X1X1X1X1X1X1X1X1X1X1X1X1X1X1X1X1X1X1X1X1X1X1X1X1X1X1X1X1X1X1X",
"1X1X1X1X1X1X1X1X1X1X1X1X1X1X1X1X1X1X1X1X1X1X1X1X1X1X1X1X1X1X1X1X1X1X1X1X1X1X1X1X1X1X1X1X1X1X1X1X1X1X1X1X1X1X1X1X1X1X1X1X1X1X1X1X1X1X1X1X1X1X1X1X1X1X1X1X1X1X1X1X1X1X1X1X1X1X1X1X1X1X1X1X1X1X1X1X1X1X1X1X1X1X1X1X",
"1X1X1X1X1X1X1X1X1X1X1X1X1X1X1X1X1X1X1X1X1X1X1X1X1X1X1X1X1X1X1X1X1X1X1X1X1X1X1X1X1X1X1X1X1X1X1X1X1X1X1X1X1X1X1X1X1X1X1X1X1X1X1X1X1X1X1X1X1X1X1X1X1X1X1X1X1X1X1X1X1X1X1X1X1X1X1X1X1X1X1X1X1X1X1X1X1X1X1X1X1X1X1X1X",
"1X1X1X1X1X1X1X1X1X1X1X1X1X1X1X1X1X1X1X1X1X1X1X1X1X1X1X1X1X1X1X1X1X1X1X1X1X1X1X1X1X1X1X1X1X1X1X1X1X1X1X1X1X1X1X1X1X1X1X1X1X1X1X1X1X1X1X1X1X1X1X1X1X1X1X1X1X1X1X1X1X1X1X1X1X1X1X1X1X1X1X1X1X1X1X1X1X1X1X1X1X1X1X1X",
"1X1X1X1X1X1X1X1X1X1X1X1X1X1X1X1X1X1X1X1X1X1X1X1X1X1X1X1X1X1X1X1X1X1X1X1X1X1X1X1X1X1X1X1X1X1X1X1X1X1X1X1X1X1X1X1X1X1X1X1X1X1X1X1X1X1X1X1X1X1X1X1X1X1X1X1X1X1X1X1X1X1X1X1X1X1X1X1X1X1X1X1X1X1X1X1X1X1X1X1X1X1X1X1X",
"1X1X1X1X1X1X1X1X1X1X1X1X1X1X1X1X1X1X1X1X1X1X1X1X1X1X1X1X1X1X1X1X1X1X1X1X1X1X1X1X1X1X1X1X1X1X1X1X1X1X1X1X1X1X1X1X1X1X1X1X1X1X1X1X1X1X1X1X1X1X1X1X1X1X1X1X1X1X1X1X1X1X1X1X1X1X1X1X1X1X1X1X1X1X1X1X1X1X1X1X1X1X1X1X",
"1X1X1X1X1X1X1X1X1X1X1X1X1X1X1X1X1X1X1X1X1X1X1X1X1X1X1X1X1X1X1X1X1X1X1X1X1X1X1X1X1X1X1X1X1X1X1X1X1X1X1X1X1X1X1X1X1X1X1X1X1X1X1X1X1X1X1X1X1X1X1X1X1X1X1X1X1X1X1X1X1X1X1X1X1X1X1X1X1X1X1X1X1X1X1X1X1X1X1X1X1X1X1X1X",
"1X1X1X1X1X1X1X1X1X1X1X1X1X1X1X1X1X1X1X1X1X1X1X1X1X1X1X1X1X1X1X1X1X1X1X1X1X1X1X1X1X1X1X1X1X1X1X1X1X1X1X1X1X1X1X1X1X1X1X1X1X1X1X1X1X1X1X1X1X1X1X1X1X1X1X1X1X1X1X1X1X1X1X1X1X1X1X1X1X1X1X1X1X1X1X1X1X1X1X1X1X1X1X1X",
"1X1X1X1X1X1X1X1X1X1X1X1X1X1X1X1X1X1X1X1X1X1X1X1X1X1X1X1X1X1X1X1X1X1X1X1X1X1X1X1X1X1X1X1X1X1X1X1X1X1X1X1X1X1X1X1X1X1X1X1X1X1X1X1X1X1X1X1X1X1X1X1X1X1X1X1X1X1X1X1X1X1X1X1X1X1X1X1X1X1X1X1X1X1X1X1X1X1X1X1X1X1X1X1X"
};
