/* XPM */
static char *itvn[] = {
/* columns rows colors chars-per-pixel */
"104 78 38 1",
"  c #273D7E",
". c #2B4181",
"X c #394D88",
"o c #3E518B",
"O c #42558E",
"+ c #4A5C92",
"@ c #4F6095",
"# c #57689A",
"$ c #606F9C",
"% c #62719E",
"& c #6877A4",
"* c #717FA9",
"= c #7885AC",
"- c #7D8AB1",
"; c #838EAE",
": c #828EB3",
"> c #8A95B7",
", c #939DBC",
"< c #9AA3BB",
"1 c #A3AABF",
"2 c #9AA4C2",
"3 c #A4ACC5",
"4 c #ACB3C9",
"5 c #B5BBCA",
"6 c #B4BBD2",
"7 c #BCC1CD",
"8 c #BCC3D6",
"9 c #C2C5CF",
"0 c #C7CBD7",
"q c #CED1D8",
"w c gainsboro",
"e c #CDD2E1",
"r c #D7DAE6",
"t c #DEE1EA",
"y c #E4E6EB",
"u c #E9EBF2",
"i c #EFF1F5",
"p c #F7F8FA",
/* pixels */
"wwwwwwwwwwwwwwwwwwwwwwwwwwwwwwwwwwwwwwwwwwwwwwwwwwwwrwwwwwwwwwwwwwwwwwwwwwwwwwwwwwwwwwwwwwwwwwwwwwwwwwww",
"wwwwwwwwwwwwwwwwwwwwwwwwwwwwwwwwwwwwwwwwwwwwwwwwwwwwrrwwwwwwwwwwwwwwwwwwwwwwwwwwwwwwwwwwwwwwwwwwwwwwwwww",
"wwwwwwwwwwwwwwwwwwwwwwwwwwwwwwwwwwwwwwwwwwrrwtrrrrrrrrrrrqwrwwwwwwwwwwwwwwwwwwwwwwwwwwwwwwwwwwwwwwwwwwww",
"wwwwwwwwwwwwwwwwwwwwwwwwwwwwwwwwwwwwwwwwwtytttttttrrrrerereeerqwwwwwwwwwwwwwwwwwwwwwwwwwwwwwwwwwwwwwwwww",
"wwwwwwwwwwwwwwwwwwwwwwwwwwwwwwwwwwwwwwwyttttytrtrtrrrrreeeeeeeeeeerrwwwrwwwwwwwwwwwwwwwwwwwwwwwwwwwwwwww",
"wwwwwwwwwwwwwwwwwwwwwwwwwwwwwwwwwwwwyyyyuyuttttttrrrrrrreeeee0e08e0ewwwtwwwwwwwwwwwwwwwwwwwwwwwwwwwwwwww",
"wwwwwwwwwwwwwwwwwwwwwwwwwwwwwwwwwwyyyuuyytutytttttrrrrreeeeeeee0e0000errwwwwwwwwwwwwwwwwwwwwwwwwwwwwwwww",
"wwwwwwwwwwwwwwwwwwwwwwwwwwwwwwwwyuuuuuuuyuytttttrrrrrrrrreeee0e00e80088rwwwwwwwwwwwwwwwwwwwwwwwwwwwwwwww",
"wwwwwwwwwwwwwwwwwwwwwwwwwwwwwwwyuuuuuuuyyyyyyttwwrrwwwwrrreeeee00e8808888wwwwwwwwwwwwwwwwwwwwwwwwwwwwwww",
"wwwwwwwwwwwwwwwwwwwwwwwwwwwwwyiuuuuuuuyuyyttwwwwwwwwwwwwrrwwqqee0080e8e888qwwwwwwwwwwwwwwwwwwwwwwwwwwwww",
"wwwwwwwwwwwwwwwwwwwwwwwwwwwwyiiiiuiuuuyytwwwwwwwwwwwwwwwwwwwwwqq000888888880wwwwwwwwwwwwwwwwwwwwwwwwwwww",
"wwwwwwwwwwwwwwwwwwwwwwwwwwwyiiiiiiuuuywwwwwwwwwwwwwwwwwwwwwwwwwrwe00888888880rwwwwwwwwwwwwwwwwwwwwwwwwww",
"wwwwwwwwwwwwwwwwwwwwwwwwwwupipiiiuiuywwwwwwwwwwwwwwwwwwwwwwwwwwwwwwe8888886868rwwwwwwwwwwwwwwwwwwwwwwwww",
"wwwwwwwwwwwwwwwwwwwwwwwwwupiiiiiiiywwwwwwwwwwwwwwwwwwwwwwwwwwwwwwwwwr0888866668wwwwwwwwwwwwwwwwwwwwwwwww",
"wwwwwwwwwwwwwwwwwwwwwwwwuiipiiipiywwwwwwwwwwwwwwwwwwwwwwwwwwwwwwwwwwwwq888686668wwwwwwwwwwwwwwwwwwwwwwww",
"wwwwwwwwwwwwwwwwwwwwwwwyppippipiwwwwwwwwwwwwwwwwwwwwwwwwwwwwwwwwwwwwwwwe866666660wwwwwwwwwwwwwwwwwwwwwww",
"wwwwwwwwwwwwwwwwwwwwwwyppippiiiwwwwwwwwwwwwwwwwwwwwwwwwwwwwwwwwwwwwwwwwwq866666660wwwwwwwwwwwwwwwwwwwwww",
"wwwwwwwwwwwwwwwwwwwwwwippppipiwwwwwwwwwwwwwwwwwwwwwwwwwwwwwwwwwwwwwwwwwwww76666446wwwwwwwwwwwwwwwwwwwwww",
"wwwwwwwwwwwwwwwwwwwwwippppppiwwwwwwwwwwwwwwwwwwwwwwwwwwwwwwwwwwwwwwwwwwwwwq66666646wwwwwwwwwwwwwwwwwwwww",
"wwwwwwwwwwwwwwwwwwwwyippppppwwwwwwwwwwwwwwwwwwwwwwwwwwwwwwwwwwwwwwwwwwwwwwwq46666449wwwwwwwwwwwwwwwwwwww",
"wwwwwwwwwwwwwwwwwwwrpppppppywwwwwwwwwwwwwwwwwwwwwwwwwwwwwwwwwwwwwwwwwwwwwwwwq4444446wwwwwwwwwwwwwwwwwwww",
"wwwwwwwwwwwwwwwwwww7<<ypppiwwwwwwwwwwwwwwwwwwwwwwwwwwwwwwwwwwwwwwwwwwwwwwwwww84444448wwwwwwwwwwwwwwwwwww",
"wwwwwwwwwwwwwwwwww,X..Oeppwwwwwwwwwwwwwwwwwwwwwwwwwwwwwwwwwwwwwwwwwwwwwwwwwwww4444444qwwwwwwwwwwwwwwwwww",
"wwwwwwwwwwwwwwwww9oXoo.%pywwwwwwwwwwwwwwwwwwwwwwwwwwwwwwwwwwwwwwwwwwwwwwwwwwww04443438wwwwwwwwwwwwwwwwww",
"wwwwwwwwwwwwwwwww3XXXXX+ywwwwwwwwwwwwwwwwwwwwwwwwwwwwwwwwwwwwwwwwwwwwwwwwwwwwww6436336erwwwwwwwwwwwwwwww",
"wwwwwwwwwwwwwwwww9OoXo.#ywwwwwwwwwwwwwwwwwwwwwwwwwwwwwwwwwwwwwwwwwwwwwwwwwwwwww03333338rwwwwwwwwwwwwwwww",
"wwwwwwwwwwwwwwwwwp> ..X5wwwwwwq555555wwwwwwwwwwwwwwwwwwwwwwwwwwwwwwwwwwwwwwwwwww6333336rwwwwwwwwwwwwwwww",
"wwwwwwwwwwwwwwwwypp3&*0iwwwwww1XXXXX@wwwwwwwwwwwwwwwwwwwwwwwwwwwwwwwwwwwwwwwwwww8333333ewwwwwwwwwwwwwwww",
"wwwwwwwwwwwwwwwwyppppppwwwwwww4XXXXX#wwwwwwwwwwwwwwwwwwwwwwwwwwwwwwwwwwwwwwwwwwwe3333338wwwwwwwwwwwwwwww",
"wwwwwwwwwwwwwwwwpppppppwwwwwww1XXXXX@wwwwwwwwwwwwwwwwwwwwwwwwwwwwwwwwwwwwwwwwwwwr6333326wwwwwwwwwwwwwwww",
"wwwwwwwwwwwwwwwwppppppiwwwwwww3XXXXX@wwwwwwwwwwwwwwwwwwwwwwwwwwwwwwwwwwwwwwwwwrrr8332223wwwwwwwwwwwwwwww",
"wwwwwwwwwwwwwwwyppppppywwwwwww4XXXXX#wwwwqwwwwwwwwwwwwwwwwwwwwwwwwwwq00qwwwwwwwrre2233230wwwwwwwwwwwwwww",
"wwwwwwwwwwwwwww9655559wwwwww;#@XXXXXX###q1@$$##$qwwww;@$#&w;#$$$$99&+oo@;qwwwwwwww3221129wwwwwwwwwwwwwww",
"wwwwwwwwwwwwwww=.. . $wwwwww%XXXXXXXXXXX97XXXXXX1wwww@XOX=w$XXXXo<OXXXXXX@qwwwwwww4<22226wwwwwwwwwwwwwww",
"wwwwwwwwwwwwwww$ooooX;wwwwww&XoXXXXXXXXo9w$XXXOX*www1XXXX1w%XXXXo+XoXXXXoX;wwwwwww5<22224wwwwwwwwwwwwwww",
"wwwwwwwwwwwwwww@XoXoX<wwwwww&XXXXXXXXXXX9w>XXXXX+qww=XOX#ww%XXXXXXXXXXXXXX@wwwwwww7<22223wwwwwwwwwwwwwww",
"wwwwwwwwwwwwwww+XXXoX1wwwwww51>XXXXX+333qw9OXXXXX1ww@XXX>ww$XXXXXX>5#XXXXXOwwwwwrw0222222wwwwwwwwwwwwwww",
"wwwwwwwwwwwwwwwoXXXXX5wwwwwwww5XXXXX#wwwwww&XXXXX;w1XXXO9ww$XXXXX$ww<XoXXXOqwwwwww0,22,22wwwwwwwwwwwwwww",
"wwwwwwwwwwwwwwwOXXXXX5wwwwwwww1XXXXX@wwwwww1XXXXXOw;XOX$www$XXXXX=ww1XXXXXo9wwwwww0,22,22wwwwwwwwwwwwwww",
"wwwwwwwwwwwwwwwoXXXoX5wwwwwwww4XXXXX@wwwwwwq+XXXXX1$XXX<www$XXXXX=ww1XXXXXoqwwwwww02,,,,,wwwwwwwwwwwwwww",
"wwwwwwwwwwwwwwwOooXoX5wwwwwwww4XXXXX#wwwwwww;XOXXX@OXXOqwww$XXXXX=ww1XXXXXOqwwwwww9,,,,,2rrrwwwwwwwwwwww",
"wwwwwwwwwwwwwww+XoXoo4wwwwwwww1XXXXX#wwwwwww5XXXXXXXXX*wwww$XOXXX;ww1XXXXXO0wwwwww9,,,,,2rwrwwwwwwwwwwww",
"wwwwwwwwwwwwwww@XoXoX<wwwwwwww1XXXXX@wwwwwwww#XXXXXXXX1wwww$XXXXX=ww1XXXXXo9wwwwww6,,,,,2wwwwwwwwwwwwwww",
"wwwwwwwwwwwwwww%oooOo;wwwwwwww1XXXXXo5q6qwwqw>XOXXXXX@wwwww$XOXXX=ww1XXXXXo0wwwwww4,,,,,3wwwwwwwwwwwwwww",
"wwwwwwwwwwwwwww=XXXXo&wwwwwwww5XXXXXXXOX9wwww9OXXXXXX;wwwww$XXXXX=ww1XXXXXo9wwwwww3,,,,,4wwwwwwwwwwwwwww",
"wwwwwwwwwwwwwww,OOOOo@wwwwwwwwqOXXXXXXXX9wwwww%XXXXXX5wwwww$XXXXX=ww1XXXXXOqwwwwww,,,>,,8wwwwwwwwwwwwwww",
"wwwwwwwwwwwwwww5OOXOXO9wwwwwwww;XXXXXXXo9wwwww1XOXXX$wwwwww$ OXOX;ww1XXXXXO9wwwww0>>>>,>0wwwwwwwwwwwwwww",
"wwwwwwwwwwwwwwwq+XOOOo<wwwwwwwww*XXXXXXX9wwwwwq+XXXX,wwwwww$OXXXX=ww1XXXXXOqwwwww6>>>,>2wwwwwwwwwwwwwwww",
"wwwwwwwwwwwwwwww&OOOOO&wwwwwwwwww5>;;;;1qwwwwww1,<<<qwwwwww1<<<<,5ww9,<<<<<qwwwwr2>>>>>3wwwwwwwwwwwwwwww",
"wwwwwwwwwwwwwwww>OOOOO+9wwwwwwwwwwwwwwwwwwwwwwwwwwwwwwwwwwwwwwwwwwwwwwwwwwwwwwwwq:>>>>>7wwwwwwwwwwwwwwww",
"wwwwwwwwwwwwwwww7OOOOOO>wwwwwwwwwwwwwwwwwwwwwwwwqwwwwwwwwwwwwwwwwwwwwwwwwwwwwwww4:>>>>>qwwwwwwwwwwwwwwww",
"wwwwwwwwwwwwwwwww$OOOOO#wwwwwwwwwwwwwwwwwwwwwwwwwwwwwwwwwwwwwwwwwwwwwwwwwwwwwwww>>>>>>2wwwwwwwwwwwwwwwww",
"wwwwwwwwwwwwwwwww<OOOOOO1wwwwwwwwwwwwwwwwwwwwwwwwwwwwwwwwwwwwwwwwwwwwwwwwwwwwww5>>>:>>7wwwwwwwwwwwwwwwww",
"wwwwwwwwwwwwwwwww0+OOOOO$wwwwwwwwwwwwwwwwwwwwwwwwwwwwwwwwwwwwwwwwwwwwwwwwwwwwww,::::>>qwwwwwwwwwwwwwwwww",
"wwwwwwwwwwwwwwwwww;O+OO+O<wwwwwwwwwwwwwwwwwwwwwwwwwwwwwwwwwwwwwwwwwwwwwwwwwwww4::::>:4wwwwwwwwwwwwwwwwww",
"wwwwwwwwwwwwwwwwww9+OOOOO@qwwwwwwwwwwwwwwwwwwwwwwwwwwwwwwwwwwwwwwwwwwwwwwwwww0;:::::>qwwwwwwwwwwwwwwwwww",
"wwwwwwwwwwwwwwwwwww;OOO++O=wwwwwwwwwwwwwwwwwwwwwwwwwwwwwwwwwwwwwwwwwwwwwwwwww,::::::4wwwwwwwwwwwwwwwwwww",
"wwwwwwwwwwwwwwwwwww9@OOOO+O1wwwwwwwwwwwwwwwwwwwwwwwwwwwwwwwwwwwwwwwwwwwwwwww4-:::::>ewwwwwwwwwwwwwwwwwww",
"wwwwwwwwwwwwwwwwwwww<O++++++5wwwwwwwwwwwwwwwwwwwwwwwwwwwwwwwwwwwwwwwwwwwwww7-:--:::6wwwwwwwwwwwwwwwwwwww",
"wwwwwwwwwwwwwwwwwwwww&++O+++$9wwwwwwwwwwwwwwwwwwwwwwwwwwwwwwwwwwwwwwwwwwww0:---:::2rwwwwwwwwwwwwwwwwwwww",
"wwwwwwwwwwwwwwwwwwwww9+++++++$qwqwwwwwwwwwwwwwwwwwwwwwwwwwwwwwwwwwwwwwwww0:------>qwwwwwwwwwwwwwwwwwwwww",
"wwwwwwwwwwwwwwwwwwwwww1+++++@+$9wwwwwwwwwwwwwwwwwwwwwwwwwwwwwwwwwwwwwwww0-=--==--7wwwwwwwwwwwwwwwwwwwwww",
"wwwwwwwwwwwwwwwwwwwwwww;+@+++@+$5wwwwwwwwwwwwwwwwwwwwwwwwwwwwwwwwwwwwww7-=-=----4wwwwwwwwwwwwwwwwwwwwwww",
"wwwwwwwwwwwwwwwwwwwwwwww=+@@@@@@@1wwwwwwwwwwwwwwwwwwwwwwwwwwwwwwwwwwww3*=====-=2wwwwwwwwwwwwwwwwwwwwwwww",
"wwwwwwwwwwwwwwwwwwwwwwwww&+@@@@@@@-qwwwwwwwwwwwwwwwwwwwwwwwwwwwwwwww0>*=====--,wwwwwwwwwwwwwwwwwwwwwwwww",
"wwwwwwwwwwwwwwwwwwwwwwwwwq&+@@@@@#@$1wwwwwwwwwwwwwwwwwwwwwwwwwwwwww3=**=*===-,wwwwwwwwwwwwwwwwwwwwwwwwww",
"wwwwwwwwwwwwwwwwwwwwwwwwwww*@@@@@@@##&4wwwwwwwwwwwwwwwwwwwwwwwwwq4-******===2wwrwwwwwwwwwwwwwwwwwwwwwwww",
"wwwwwwwwwwwwwwwwwwwwwwwwwwww>@@@@@@@#@#%<9wwwwwrrwwwwwwwwwwwww01=******==*=3wrwwwwwwwwwwwwwwwwwwwwwwwwww",
"wwwwwwwwwwwwwwwwwwwwwwwwwwwww1#@##@######$=19wwwwwwwwwwwrwq93:&*&******=*=7wwwwwwwwwwwwwwwwwwwwwwwwwwwww",
"wwwwwwwwwwwwwwwwwwwwwwwwwwwwww9*@##@@@#######&-,14665541,:*&&*&**&******,qwwwwwwwwwwwwwwwwwwwwwwwwwwwwww",
"wwwwwwwwwwwwwwwwwwwwwwwwwwwwwwww<#@@#######$##$#$$$%%%%%%&&&&**&*&****-6wwwwwwwwwwwwwwwwwwwwwwwwwwwwwwww",
"wwwwwwwwwwwwwwwwwwwwwwwwwwwwwwwwwq>#########$$$$%%%%%%&%&&&&&&&&&***=3qwwwwwwwwwwwwwwwwwwwwwwwwwwwwwwwww",
"wwwwwwwwwwwwwwwwwwwwwwwwwwwwwwwwwww0>$#######$$$$$$%%%%%&&&&&&&&**=1qwwwwwwwwwwwwwwwwwwwwwwwwwwwwwwwwwww",
"wwwwwwwwwwwwwwwwwwwwwwwwwwwwwwwwwwwwwq1*#$#$##$$$$%%%%%%&&&&&&&*:4qrwwwwwwwwwwwwwwwwwwwwwwwwwwwwwwwwwwww",
"wwwwwwwwwwwwwwwwwwwwwwwwwwwwwwwwwwwwwwww03;%$#$$%%%%%%%%&%&&*>40wwwwwwwwwwwwwwwwwwwwwwwwwwwwwwwwwwwwwwww",
"wwwwwwwwwwwwwwwwwwwwwwwwwwwwwwwwwwwwwwwwwwwq93>=*&%%&&*=:,48wwwwwwwwwwwwwwwwwwwwwwwwwwwwwwwwwwwwwwwwwwww",
"wwwwwwwwwwwwwwwwwwwwwwwwwwwwwwwwwwwwwwwwwwwwwwwwrrwwwwwwrrwwwwwwwwwwwwwwwwwwwwwwwwwwwwwwwwwwwwwwwwwwwwww",
"wwwwwwwwwwwwwwwwwwwwwwwwwwwwwwwwwwwwwwwwwwwwwwwwwrwwwwwwwwwwwwwwwwwwwwwwwwwwwwwwwwwwwwwwwwwwwwwwwwwwwwww"
};
