/* XPM */
static char *LCI[] = {
/* columns rows colors chars-per-pixel */
"104 78 120 2",
"   c #7D0B0B",
".  c #0A039E",
"X  c #0000AD",
"o  c #000EB3",
"O  c #0115BA",
"+  c #1711A4",
"@  c #121AB3",
"#  c #1821B5",
"$  c #2831BF",
"%  c #001CC4",
"&  c #0225CB",
"*  c #012CD3",
"=  c #0138DA",
"-  c #1135D2",
";  c #003CE3",
":  c #223ED0",
">  c #0541DE",
",  c #1947DD",
"<  c #0147E7",
"1  c #004AF0",
"2  c #0152EE",
"3  c #0159F2",
"4  c #0167F6",
"5  c #0078FB",
"6  c #146CF5",
"7  c #1378F8",
"8  c #2F40C9",
"9  c #2846D2",
"0  c #3C47C8",
"q  c #395ADB",
"w  c #3864E2",
"e  c #5C62CC",
"r  c #4266E0",
"t  c #5270E2",
"y  c #7174D1",
"u  c #637FE3",
"i  c #0286FF",
"p  c #1388FB",
"a  c #5D8CF0",
"s  c #6887E8",
"d  c #7A89E1",
"f  c #789CF2",
"g  c #78BEFB",
"h  c #890D0D",
"j  c #970E0D",
"k  c #970E10",
"l  c #9D100F",
"z  c #9D1212",
"x  c #A60A09",
"c  c #A71515",
"v  c #B90707",
"b  c #B91617",
"n  c #CD0B0A",
"m  c #CD100F",
"M  c #C91919",
"N  c #D10E0D",
"B  c #DB0F11",
"V  c #DC100F",
"C  c #D61B1B",
"Z  c #C91C23",
"A  c #DA1E21",
"S  c #DB2223",
"D  c #D83939",
"F  c #E80E0E",
"G  c #E8100F",
"H  c #E61919",
"J  c #F61816",
"K  c #E31F20",
"L  c #EC201F",
"P  c #F8211E",
"I  c #EA2322",
"U  c #E53D3D",
"Y  c #F62423",
"T  c #F83A39",
"R  c #D9403F",
"E  c #DB4545",
"W  c #D07272",
"Q  c #E94E4D",
"!  c #E95756",
"~  c #F24646",
"^  c #F35B5A",
"/  c #E76465",
"(  c #E87777",
")  c #F16F6F",
"_  c #F3807E",
"`  c #859AEA",
"'  c #89A0ED",
"]  c #89ADF7",
"[  c #88B7FA",
"{  c #95A5E8",
"}  c #9EB2EF",
"|  c #92B5F8",
" . c #A6B8EF",
".. c #AFBFF2",
"X. c #B0AFE0",
"o. c #86C5FC",
"O. c #ADC4F7",
"+. c #B0C3F5",
"@. c #DC8E8D",
"#. c #DF9C9C",
"$. c #D7A1A0",
"%. c #E68D8C",
"&. c #E49D9D",
"*. c #F38A89",
"=. c #F79393",
"-. c #E6A7A6",
";. c #E3B4B4",
":. c #F5A8A8",
">. c #F3B6B6",
",. c gainsboro",
"<. c #C7C9EC",
"1. c #DBDEF4",
"2. c #DAE6FA",
"3. c #EACBCB",
"4. c #F7C5C5",
"5. c #F9D8D8",
"6. c #E7EAF9",
"7. c #EAF4FE",
"8. c #F5E4E4",
"9. c #FEFEFE",
/* pixels */
",.,.,.,.,.,.,.,.,.,.,.,.,.,.,.,.,.,.,.,.,.,.,.,.,.,.,.,.,.,.,.,.,.,.,.,.,.,.,.,.,.,.,.,.,.,.,.,.,.,.,.,.,.,.,.,.,.,.,.,.,.,.,.,.,.,.,.,.,.,.,.,.,.,.,.,.,.,.,.,.,.,.,.,.,.,.,.,.,.,.,.,.,.,.,.,.,.,.,.,.,.,.,.,.",
",.,.,.,.,.,.,.,.,.,.,.,.,.,.,.,.,.,.,.,.,.,.,.,.,.,.,.,.,.,.,.,.,.,.,.,.,.,.,.,.,.,.,.,.,.,.,.,.,.,.,.,.,.,.,.,.,.,.,.,.,.,.,.,.,.,.,.,.,.,.,.,.,.,.,.,.,.,.,.,.,.,.,.,.,.,.,.,.,.,.,.,.,.,.,.,.,.,.,.,.,.,.,.,.",
",.,.,.,.,.,.,.,.,.,.,.,.,.,.,.,.,.,.,.,.,.,.,.,.,.,.,.,.,.,.,.,.,.,.,.,.,.,.,.,.,.,.,.,.,.,.,.,.,.,.,.,.,.,.,.,.,.,.,.,.,.,.,.,.,.,.,.,.,.,.,.,.,.,.,.,.,.,.,.,.,.,.,.,.,.,.,.,.,.,.,.,.,.,.,.,.,.,.,.,.,.,.,.,.",
",.,.,.,.,.,.,.,.,.,.,.,.,.,.,.,.,.,.,.,.,.,.,.,.,.,.,.,.,.,.,.,.,.,.,.,.,.,.,.,.,.,.,.,.,.,.,.,.,.,.,.,.,.,.,.,.,.,.,.,.,.,.,.,.,.,.,.,.,.,.,.,.,.,.,.,.,.,.,.,.,.,.,.,.,.,.,.,.,.,.,.,.,.,.,.,.,.,.,.,.,.,.,.,.",
",.,.,.,.,.,.,.,.,.,.,.,.,.,.,.,.,.,.,.,.,.,.,.,.,.,.,.,.,.,.,.,.,.,.,.,.,.,.,.,.,.,.,.,.,.,.,.,.,.,.,.,.,.,.,.,.,.,.,.,.,.,.,.,.,.,.,.,.,.,.,.,.,.,.,.,.,.,.,.,.,.,.,.,.,.,.,.,.,.,.,.,.,.,.,.,.,.,.,.,.,.,.,.,.",
",.,.,.,.,.,.,.,.,.,.,.,.,.,.,.,.,.,.,.,.,.,.,.,.,.,.,.,.,.,.,.,.,.,.,.,.,.,.,.,.,.,.,.,.,.,.,.,.,.,.,.,.,.,.,.,.,.,.,.,.,.,.,.,.,.,.,.,.,.,.,.,.,.,.,.,.,.,.,.,.,.,.,.,.,.,.,.,.,.,.,.,.,.,.,.,.,.,.,.,.,.,.,.,.",
",.,.,.,.,.,.,.,.,.,.,.,.,.,.,.,.,.,.,.,.,.,.,.,.,.,.,.,.,.,.,.,.,.,.,.,.,.,.,.,.,.,.,.,.,.,.,.,.,.,.,.,.,.,.,.,.,.,.,.,.,.,.,.,.,.,.,.,.,.,.,.,.,.,.,.,.,.,.,.,.,.,.,.,.,.,.,.,.,.,.,.,.,.,.,.,.,.,.,.,.,.,.,.,.",
",.,.,.,.,.,.,.,.,.,.,.,.,.,.,.,.,.,.,.,.,.,.,.,.,.,.,.,.,.,.,.,.,.,.,.,.,.,.,.,.,.,.,.,.,.,.,.,.,.,.,.,.,.,.,.,.,.,.,.,.,.,.,.,.,.,.,.,.,.,.,.,.,.,.,.,.,.,.,.,.,.,.,.,.,.,.,.,.,.,.,.,.,.,.,.,.,.,.,.,.,.,.,.,.",
",.,.,.,.,.,.,.,.,.,.,.,.,.,.,.,.,.,.,.,.,.,.,.,.,.,.,.,.,.,.,.,.,.,.,.,.,.,.,.,.,.,.,.,.,.,.,.,.,.,.,.,.,.,.,.,.,.,.,.,.,.,.,.,.,.,.,.,.,.,.,.,.,.,.,.,.,.,.,.,.,.,.,.,.,.,.,.,.,.,.,.,.,.,.,.,.,.,.,.,.,.,.,.,.",
",.,.,.,.,.,.,.,.,.,.,.,.,.,.,.,.,.,.,.,.,.,.,.,.,.,.,.,.,.,.,.,.,.,.,.,.,.,.,.,.,.,.,.,.,.,.,.,.,.,.,.,.,.,.,.,.,.,.,.,.,.,.,.,.,.,.,.,.,.,.,.,.,.,.,.,.,.,.,.,.,.,.,.,.,.,.,.,.,.,.,.,.,.,.,.,.,.,.,.,.,.,.,.,.",
",.,.,.,.,.,.,.,.,.,.,.,.,.,.,.,.,.,.,.,.,.,.,.,.,.,.,.,.,.,.,.,.,.,.,.,.,.,.,.,.,.,.,.,.,.,.,.,.,.,.,.,.,.,.,.,.,.,.,.,.,.,.,.,.,.,.,.,.,.,.,.,.,.,.,.,.,.,.,.,.,.,.,.,.,.,.,.,.,.,.,.,.,.,.,.,.,.,.,.,.,.,.,.,.",
",.,.,.,.,.,.,.,.,.,.,.,.,.,.,.,.,.,.,.,.,.,.,.,.,.,.,.,.,.,.,.,.,.,.,.,.,.,.,.,.,.,.,.,.,.,.,.,.,.,.,.,.,.,.,.,.,.,.,.,.,.,.,.,.,.,.,.,.,.,.,.,.,.,.,.,.,.,.,.,.,.,.,.,.,.,.,.,.,.,.,.,.,.,.,.,.,.,.,.,.,.,.,.,.",
",.,.,.,.,.,.,.,.,.,.,.,.,.,.,.,.,.,.,.,.,.,.,.,.,.,.,.,.,.,.,.,.,.,.,.,.,.,.,.,.,.,.,.,.,.,.,.,.,.,.,.,.,.,.,.,.,.,.,.,.,.,.,.,.,.,.,.,.,.,.,.,.,.,.,.,.,.,.,.,.,.,.,.,.,.,.,.,.,.,.,.,.,.,.,.,.,.,.,.,.,.,.,.,.",
",.,.,.,.,.,.,.,.,.,.,.,.,.,.,.,.,.,.,.,.,.,.,.,.,.,.,.,.,.,.,.,.,.,.,.,.,.,.,.,.,.,.,.,.,.,.,.,.,.,.,.,.,.,.,.,.,.,.,.,.,.,.,.,.,.,.,.,.,.,.,.,.,.,.,.,.,.,.,.,.,.,.,.,.,.,.,.,.,.,.,.,.,.,.,.,.,.,.,.,.,.,.,.,.",
",.,.,.,.,.,.,.,.,.,.,.,.,.,.,.,.,.,.,.,.,.,.,.,.,.,.,.,.,.,.,.,.,.,.,.,.,.,.,.,.,.,.,.,.,.,.,.,.,.,.,.,.,.,.,.,.,.,.,.,.,.,.,.,.,.,.,.,.,.,.,.,.,.,.,.,.,.,.,.,.,.,.,.,.,.,.,.,.,.,.,.,.,.,.,.,.,.,.,.,.,.,.,.,.",
",.,.,.,.,.,.,.,.,.,.,.,.,.,.,.,.,.,.,.,.,.,.,.,.,.,.,.,.,.,.,.,.,.,.,.,.,.,.,.,.,.,.,.,.,.,.,.,.,.,.,.,.,.,.,.,.,.,.,.,.,.,.,.,.,.,.,.,.,.,.,.,.,.,.,.,.,.,.,.,.,.,.,.,.,.,.,.,.,.,.,.,.,.,.,.,.,.,.,.,.,.,.,.,.",
",.,.,.,.,.,.,.,.,.,.,.,.,.,.,.,.,.,.,.,.,.,.,.,.,.,.,.,.,.,.,.,.,.,.,.,.,.,.,.,.,.,.,.,.,.,.,.,.,.,.,.,.,.,.,.,.,.,.,.,.,.,.,.,.,.,.,.,.,.,.,.,.,.,.,.,.,.,.,.,.,.,.,.,.,.,.,.,.,.,.,.,.,.,.,.,.,.,.,.,.,.,.,.,.",
",.,.,.,.,.,.,.,.,.,.,.,.,.,.,.,.,.,.,.,.,.,.,.,.,.,.,.,.,.,.,.,.,.,.,.,.,.,.,.,.,.,.,.,.,.,.,.,.,.,.,.,.,.,.,.,.,.,.,.,.,.,.,.,.,.,.,.,.,.,.,.,.,.,.,.,.,.,.,.,.,.,.,.,.,.,.,.,.,.,.,.,.,.,.,.,.,.,.,.,.,.,.,.,.",
",.,.,.,.,.,.,.,.,.,.,.,.,.,.,.,.,.,.,.,.,.,.,.,.,.,.,.,.,.,.,.,.,.,.,.,.,.,.,.,.,.,.,.,.,.,.,.,.,.,.,.,.,.,.,.,.,.,.,.,.,.,.,.,.,.,.,.,.,.,.,.,.,.,.,.,.,.,.,.,.,.,.,.,.,.,.,.,.,.,.,.,.,.,.,.,.,.,.,.,.,.,.,.,.",
",.,.,.,.,.,.,.,.,.,.,.,.,.,.,.,.,.,.,.,.,.,.,.,.,.,.,.,.,.,.,.,.,.,.,.,.,.,.,.,.,.,.,.,.,.,.,.,.,.,.,.,.,.,.,.,.,.,.,.,.,.,.,.,.,.,.,.,.,.,.,.,.,.,.,.,.,.,.,.,.,.,.,.,.,.,.,.,.,.,.,.,.,.,.,.,.,.,.,.,.,.,.,.,.",
",.,.,.,.,.,.,.,.,.,.,.,.,.,.,.,.,.,.,.,.,.,.,.,.,.,.,.,.,.,.,.,.,.,.,.,.,.,.,.,.,.,.,.,.,.,.,.,.,.,.,.,.,.,.,.,.,.,.,.,.,.,.,.,.,.,.,.,.,.,.,.,.,.,.,.,.,.,.,.,.,.,.,.,.,.,.,.,.,.,.,.,.,.,.,.,.,.,.,.,.,.,.,.,.",
",.,.,.,.,.,.,.,.,.,.,.,.,.,.,.,.,.,.,.,.,.,.,.,.,.,.,.,.,.,.,.,.,.,.,.,.,.,.,.,.,.,.,.,.,.,.,.,.,.,.,.,.,.,.,.,.,.,.,.,.,.,.,.,.,.,.,.,.,.,.,.,.,.,.,.,.,.,.,.,.,.,.,.,.,.,.,.,.,.,.,.,.,.,.,.,.,.,.,.,.,.,.,.,.",
",.,.,.,.i i i i i i i i i i i i i i i i i i i i i i i 5 5 5 5 4 4 4 4 3 3 2 2 2 < < < = = = = * & & & # M C C C C C C C C C C C C M C M M M M M M b b b b b b b b c c x c c z l z l z z k h k h h h h   ,.,.,.,.",
",.,.,.,.i i i i i i i i i i i i i i i i i i i i i i i i 5 5 5 4 4 4 4 4 3 2 2 2 < < < = = = * * & & & # S A S A S S A A C C C C M C C C M M M M M M M b b b b b b b c c c c c z z l j k k k h h h h h h ,.,.,.,.",
",.,.,.,.i i i i i i i i i i i i i i i i i i i i i i i i 5 5 4 5 4 4 4 3 3 3 2 1 < < > = = = * * * & * # Z B B B B C C A S A C C A C C C C M M M M M M b b b b b v c c c c c c x l z l k k h h h h h h   ,.,.,.,.",
",.,.,.,.i i i i i i i i i i i p i i p i i i i i i i i i 5 5 4 4 4 4 4 3 3 3 2 < < < < = = = * * * & % @ D Q / / ! D S V B A A K C C C C C C C M M M M b b b b b b b b b c c c c c z z j k k k h h h h   ,.,.,.,.",
",.,.,.,.i i i i i i i i i i g 7.2.7.7.7.7.2.2.2.p i 5 5 5 5 5 4 4 4 4 3 3 2 2 2 < < < < = = * * % : d <.8.9.9.9.9.9.8.:.! C B I A A C C C C M M M M M M M b v @.8.8.8.8.8.8.8.8.3.z l j k k h h h h h h ,.,.,.,.",
",.,.,.,.i i i i i i i i i 5 o.9.9.9.9.9.9.9.9.9.p i i 5 5 5 4 4 4 3 3 3 3 3 2 < < < = = = = * - { 7.9.9.9.9.9.9.9.9.9.9.9.4.! B A K C C C M C M M M M M M b v -.9.9.9.9.9.9.9.9.8.c j z k k k h h h h   ,.,.,.,.",
",.,.,.,.i i i i i i i i i 5 o.9.9.9.9.9.9.9.9.7.p i i 5 5 4 5 4 4 4 3 3 3 2 2 < < < = = = * q 1.9.9.9.9.9.9.9.9.9.9.9.9.9.9.9.=.V C A C C C C M M M M M M b v #.9.9.9.9.9.9.9.9.8.z z l k k k k h h h h ,.,.,.,.",
",.,.,.,.i i i i i i i i i 5 o.9.9.9.9.9.9.9.9.7.p 5 5 5 5 4 4 4 4 4 4 3 2 2 2 < < < = = * t 9.9.9.9.9.9.9.9.9.9.9.9.9.9.9.9.9.9.>.C C K C C C C M M M M M b v #.9.9.9.9.9.9.9.9.8.z l z k k k h h h h h ,.,.,.,.",
",.,.,.,.i i i i i i i i i i o.9.9.9.9.9.9.9.9.7.p 5 5 5 5 5 4 4 3 3 3 3 3 2 1 < ; ; ; * r 9.9.9.9.9.9.9.9.9.9.9.9.9.9.9.9.9.9.9.9.:.B S C C C M C C M M M M v &.9.9.9.9.9.9.9.9.8.c l l k k k h h h h h ,.,.,.,.",
",.,.,.,.i i i i i i i i i i o.9.9.9.9.9.9.9.9.7.p 5 5 5 4 4 4 4 4 3 3 3 2 2 < < < < ; , 6.9.9.9.9.9.9.9.9.9.9.9.9.9.9.9.9.9.9.9.9.9.*.B S C C C C M M M M M v &.9.9.9.9.9.9.9.9.8.c l z z k k h j h h h ,.,.,.,.",
",.,.,.,.i i i i i i i i i i o.9.9.9.9.9.9.9.9.7.p 5 5 4 4 4 4 4 4 3 3 3 2 2 < < ; < *  .9.9.9.9.9.9.9.9.9.9.9.9.9.9.9.9.9.9.9.9.9.:.R C A C C C C C M M M M v &.9.9.9.9.9.9.9.9.8.c l l l k k j h h h h ,.,.,.,.",
",.,.,.,.i i i i i i i i i 5 o.9.9.9.9.9.9.9.9.7.7 5 5 5 4 4 4 4 4 3 3 3 1 2 < < < = w 9.9.9.9.9.9.9.9.9.9.5.:.:.4.9.9.9.9.9.9.5.! G H K K C C C C M M M M M v $.9.9.9.9.9.9.9.9.8.c l l l k k h h h h h ,.,.,.,.",
",.,.,.,.i i i i i i i i i i o.9.9.9.9.9.9.9.9.7.7 5 5 4 4 4 4 4 3 3 3 2 2 < < < < * } 9.9.9.9.9.9.9.9.5.^ Y J J J T :.9.9.9.*.I H S L C K A C C C C C M M M v &.9.9.9.9.9.9.9.9.8.c l l l z k j h h h h ,.,.,.,.",
",.,.,.,.i i i i i i i i i 5 o.9.9.9.9.9.9.9.9.7.p 4 5 4 4 4 4 4 3 3 3 2 2 < < ; ; = 6.9.9.9.9.9.9.9.5.Y J Y Y Y Y P J =.4.~ G L L L L L C A C C C M C M M M n &.9.9.9.9.9.9.9.9.8.c l z j k k h j h h h ,.,.,.,.",
",.,.,.,.i i i i i i i i i 5 o.9.9.9.9.9.9.9.9.7.7 4 5 4 4 4 3 3 3 3 2 2 < < < < = w 9.9.9.9.9.9.9.9.~ H Y Y Y Y Y Y Y J P J I I L A A A A A C C M C C M M M v &.9.9.9.9.9.9.9.9.8.c l l z k k k j h h h ,.,.,.,.",
",.,.,.,.i i i i i i i i i 5 o.9.9.9.9.9.9.9.9.7.7 4 4 4 4 3 3 3 3 2 2 2 < < < = = s 9.9.9.9.9.9.9.>.H Y Y Y Y Y Y Y Y Y Y Y Y I L L L A A A A C C M C M M Z v -.9.9.9.9.9.9.9.9.8.c l z l k k k h h h h ,.,.,.,.",
",.,.,.,.i i i i i i i i i 5 o.9.9.9.9.9.9.9.9.7.7 4 4 4 4 3 3 3 2 2 2 < < < = > * ` 9.9.9.9.9.9.9._ G Y Y Y Y Y Y Y Y Y Y Y I L L A A L A A C C C C M Z M M v &.9.9.9.9.9.9.9.9.8.c l z j k k h j h h h ,.,.,.,.",
",.,.,.,.i 5 i i 5 i i i i 5 o.9.9.9.9.9.9.9.9.7.7 4 4 4 4 3 3 2 2 2 < < < < > = * ' 9.9.9.9.9.9.9.) G Y Y Y Y Y Y Y Y Y L Y I L L L L L A A A C C M M M M M v $.9.9.9.9.9.9.9.9.8.c l z l k k h h h h h ,.,.,.,.",
",.,.,.,.5 5 5 i 5 5 i 5 i 5 [ 9.9.9.9.9.9.9.9.7.6 4 4 4 3 3 3 2 2 2 < < < > = = * ` 9.9.9.9.9.9.9.*.G Y I Y Y Y Y Y Y Y Y L L L L L A A A C C C C C M M M M v &.9.9.9.9.9.9.9.9.8.c z l l k k j j h h h ,.,.,.,.",
",.,.,.,.5 5 5 5 5 5 5 5 5 4 o.9.9.9.9.9.9.9.9.7.6 4 3 3 3 3 3 2 < < < < < > = = * u 9.9.9.9.9.9.9.4.H I K I Y Y Y Y Y Y L I I L A L A A A A C C C C M M M M v &.9.9.9.9.9.9.9.9.8.c l l j k k h h h h h ,.,.,.,.",
",.,.,.,.5 5 5 5 5 5 5 5 5 4 [ 9.9.9.9.9.9.9.9.7.6 3 3 2 3 3 2 1 < < < ; = = = = * q 9.9.9.9.9.9.9.9.^ G I Y Y I Y Y Y I I H I I L A L A C H C C M M M M M M v &.9.9.9.9.9.9.9.9.8.c l l z k k h j h h h ,.,.,.,.",
",.,.,.,.4 4 5 4 5 4 5 5 5 4 [ 9.9.9.9.9.9.9.9.7.6 3 3 3 3 2 2 < < < < = = = = = * * 6.9.9.9.9.9.9.9.8.U G H I Y Y H H :.5.! G K L L C A C C C C C M M M M M v #.9.9.9.9.9.9.9.9.8.c l l z k k k h h h h ,.,.,.,.",
",.,.,.,.4 5 5 4 4 4 5 4 4 4 [ 9.9.9.9.9.9.9.9.7.2 1 1 1 1 ; ; < < < ; = = = = * * % { 9.9.9.9.9.9.9.9.8.( I H H I Q 4.9.9.9.:.I V S S A C C C C M C M M M b v #.9.9.9.9.9.9.9.9.8.c l l z k k h h h h h ,.,.,.,.",
",.,.,.,.4 4 4 4 4 4 4 4 4 3 [ 9.9.9.9.9.9.9.9.9.| ] ] ] ] ] ` < < = = = = = * * * & 9 9.9.9.9.9.9.9.9.9.9.8.4.4.5.9.9.9.9.9.9.8./ V C A C C C M Z M M M M M v $.9.9.9.9.9.9.9.9.8.z j j k k k h h h h h ,.,.,.,.",
",.,.,.,.4 4 4 4 4 4 4 4 4 3 [ 9.9.9.9.9.9.9.9.9.9.9.9.9.9.9.7.< = < = = = = * * * & % { 9.9.9.9.9.9.9.9.9.9.9.9.9.9.9.9.9.9.9.9.9.>.R C Z C C M M M M b M b v #.9.9.9.9.9.9.9.9.8.c j z k k h j h h h   ,.,.,.,.",
",.,.,.,.3 4 4 4 4 3 4 4 4 3 [ 9.9.9.9.9.9.9.9.9.9.9.9.9.9.9.2.< = = = = * * * * & & % & 1.9.9.9.9.9.9.9.9.9.9.9.9.9.9.9.9.9.9.9.9.9.( m C M C M M M M M b b v #.9.9.9.9.9.9.9.9.8.z j z k k h h h h h h ,.,.,.,.",
",.,.,.,.3 3 4 3 4 3 3 3 4 2 [ 9.9.9.9.9.9.9.9.9.9.9.9.9.9.9.2.; = = = = * * & & & & & % 8 7.9.9.9.9.9.9.9.9.9.9.9.9.9.9.9.9.9.9.9.%.N A C M M M M M M M M b v #.9.9.9.9.9.9.9.9.8.z j k k k k h h h h h ,.,.,.,.",
",.,.,.,.3 3 3 3 3 3 3 3 3 1 ] 9.9.9.9.9.9.9.9.9.9.9.9.9.9.9.2.= = = * = * * & & & % % & o 0 6.9.9.9.9.9.9.9.9.9.9.9.9.9.9.9.9.9.&.m C C M M M M M M M b b b v #.9.9.9.9.9.9.9.9.8.c j k k k h k h h h   ,.,.,.,.",
",.,.,.,.2 3 3 2 3 3 3 3 3 1 ] 9.9.9.9.9.9.9.9.9.9.9.9.9.9.9.2.- = * * * & & & & % % % O O o $ <.9.9.9.9.9.9.9.9.9.9.9.9.9.9.9.( n C C M M M M M M M b b b b v &.9.9.9.9.9.9.9.9.8.z k k k h h h h h h   ,.,.,.,.",
",.,.,.,.2 2 2 2 2 2 2 2 2 < | 9.9.9.9.9.9.9.9.9.9.9.9.9.9.9.7.= * * * * & & & & & O % O O @ o o y 6.9.9.9.9.9.9.9.9.9.9.9.:.D n C C M M M M M M M M b b b b x $.9.9.9.9.9.9.9.9.7.z k k k h h h h h h   ,.,.,.,.",
",.,.,.,.< 2 2 2 2 2 < 2 2 < a +.O.+.+.+.+.+.+.+.O.+.+.+...+.} * * * & & & & & & % O O O O o O o X @ e X.8.9.9.9.9.9.4.%.R m m S m M M M M M M b b b b b b b v W -.;.;.;.-.;.;.-.$.z j j h k h h h h h   ,.,.,.,.",
",.,.,.,.< < < < < < < < < < < ; ; ; ; ; = = = = * * * * * * * * * & & & & & O O O O % O O o o o o o X . Z D E E R S M n m M M M M M M M M M M M b b b b b b b x x x x x j j j j j j k j k h h h h       ,.,.,.,.",
",.,.,.,.< < < < < < < < < < < < < < < > > = > > ; = = = * * * * * * & & & O & & O O O O o o o o o o o + M m m m m M C Z S M M M M M M M b b M b b b b b b b c b c c x c c c z z k k k h k h h h h h     ,.,.,.,.",
",.,.,.,.> > < > ; < ; < = < ; ; > > > = = = = = = * * * * * * & & & & O & % O O O O O O o o o o o o o + Z M M M M M M M M M M M M M M M M b M b b b b b c c v c c x c x l z z k k k k j h h h h         ,.,.,.,.",
",.,.,.,.= > ; < = = < = = > = = > > = = = = * * = * * * * * * = & O & O O O O O O o o o o o o o o o o + b M M M M M M M M M M M b M b b b b b b b b b b b b c c c c x c x l l k k k h h h h h h h       ,.,.,.,.",
",.,.,.,.,.,.,.,.,.,.,.,.,.,.,.,.,.,.,.,.,.,.,.,.,.,.,.,.,.,.,.,.,.,.,.,.,.,.,.,.,.,.,.,.,.,.,.,.,.,.,.,.,.,.,.,.,.,.,.,.,.,.,.,.,.,.,.,.,.,.,.,.,.,.,.,.,.,.,.,.,.,.,.,.,.,.,.,.,.,.,.,.,.,.,.,.,.,.,.,.,.,.,.,.",
",.,.,.,.,.,.,.,.,.,.,.,.,.,.,.,.,.,.,.,.,.,.,.,.,.,.,.,.,.,.,.,.,.,.,.,.,.,.,.,.,.,.,.,.,.,.,.,.,.,.,.,.,.,.,.,.,.,.,.,.,.,.,.,.,.,.,.,.,.,.,.,.,.,.,.,.,.,.,.,.,.,.,.,.,.,.,.,.,.,.,.,.,.,.,.,.,.,.,.,.,.,.,.,.",
",.,.,.,.,.,.,.,.,.,.,.,.,.,.,.,.,.,.,.,.,.,.,.,.,.,.,.,.,.,.,.,.,.,.,.,.,.,.,.,.,.,.,.,.,.,.,.,.,.,.,.,.,.,.,.,.,.,.,.,.,.,.,.,.,.,.,.,.,.,.,.,.,.,.,.,.,.,.,.,.,.,.,.,.,.,.,.,.,.,.,.,.,.,.,.,.,.,.,.,.,.,.,.,.",
",.,.,.,.,.,.,.,.,.,.,.,.,.,.,.,.,.,.,.,.,.,.,.,.,.,.,.,.,.,.,.,.,.,.,.,.,.,.,.,.,.,.,.,.,.,.,.,.,.,.,.,.,.,.,.,.,.,.,.,.,.,.,.,.,.,.,.,.,.,.,.,.,.,.,.,.,.,.,.,.,.,.,.,.,.,.,.,.,.,.,.,.,.,.,.,.,.,.,.,.,.,.,.,.",
",.,.,.,.,.,.,.,.,.,.,.,.,.,.,.,.,.,.,.,.,.,.,.,.,.,.,.,.,.,.,.,.,.,.,.,.,.,.,.,.,.,.,.,.,.,.,.,.,.,.,.,.,.,.,.,.,.,.,.,.,.,.,.,.,.,.,.,.,.,.,.,.,.,.,.,.,.,.,.,.,.,.,.,.,.,.,.,.,.,.,.,.,.,.,.,.,.,.,.,.,.,.,.,.",
",.,.,.,.,.,.,.,.,.,.,.,.,.,.,.,.,.,.,.,.,.,.,.,.,.,.,.,.,.,.,.,.,.,.,.,.,.,.,.,.,.,.,.,.,.,.,.,.,.,.,.,.,.,.,.,.,.,.,.,.,.,.,.,.,.,.,.,.,.,.,.,.,.,.,.,.,.,.,.,.,.,.,.,.,.,.,.,.,.,.,.,.,.,.,.,.,.,.,.,.,.,.,.,.",
",.,.,.,.,.,.,.,.,.,.,.,.,.,.,.,.,.,.,.,.,.,.,.,.,.,.,.,.,.,.,.,.,.,.,.,.,.,.,.,.,.,.,.,.,.,.,.,.,.,.,.,.,.,.,.,.,.,.,.,.,.,.,.,.,.,.,.,.,.,.,.,.,.,.,.,.,.,.,.,.,.,.,.,.,.,.,.,.,.,.,.,.,.,.,.,.,.,.,.,.,.,.,.,.",
",.,.,.,.,.,.,.,.,.,.,.,.,.,.,.,.,.,.,.,.,.,.,.,.,.,.,.,.,.,.,.,.,.,.,.,.,.,.,.,.,.,.,.,.,.,.,.,.,.,.,.,.,.,.,.,.,.,.,.,.,.,.,.,.,.,.,.,.,.,.,.,.,.,.,.,.,.,.,.,.,.,.,.,.,.,.,.,.,.,.,.,.,.,.,.,.,.,.,.,.,.,.,.,.",
",.,.,.,.,.,.,.,.,.,.,.,.,.,.,.,.,.,.,.,.,.,.,.,.,.,.,.,.,.,.,.,.,.,.,.,.,.,.,.,.,.,.,.,.,.,.,.,.,.,.,.,.,.,.,.,.,.,.,.,.,.,.,.,.,.,.,.,.,.,.,.,.,.,.,.,.,.,.,.,.,.,.,.,.,.,.,.,.,.,.,.,.,.,.,.,.,.,.,.,.,.,.,.,.",
",.,.,.,.,.,.,.,.,.,.,.,.,.,.,.,.,.,.,.,.,.,.,.,.,.,.,.,.,.,.,.,.,.,.,.,.,.,.,.,.,.,.,.,.,.,.,.,.,.,.,.,.,.,.,.,.,.,.,.,.,.,.,.,.,.,.,.,.,.,.,.,.,.,.,.,.,.,.,.,.,.,.,.,.,.,.,.,.,.,.,.,.,.,.,.,.,.,.,.,.,.,.,.,.",
",.,.,.,.,.,.,.,.,.,.,.,.,.,.,.,.,.,.,.,.,.,.,.,.,.,.,.,.,.,.,.,.,.,.,.,.,.,.,.,.,.,.,.,.,.,.,.,.,.,.,.,.,.,.,.,.,.,.,.,.,.,.,.,.,.,.,.,.,.,.,.,.,.,.,.,.,.,.,.,.,.,.,.,.,.,.,.,.,.,.,.,.,.,.,.,.,.,.,.,.,.,.,.,.",
",.,.,.,.,.,.,.,.,.,.,.,.,.,.,.,.,.,.,.,.,.,.,.,.,.,.,.,.,.,.,.,.,.,.,.,.,.,.,.,.,.,.,.,.,.,.,.,.,.,.,.,.,.,.,.,.,.,.,.,.,.,.,.,.,.,.,.,.,.,.,.,.,.,.,.,.,.,.,.,.,.,.,.,.,.,.,.,.,.,.,.,.,.,.,.,.,.,.,.,.,.,.,.,.",
",.,.,.,.,.,.,.,.,.,.,.,.,.,.,.,.,.,.,.,.,.,.,.,.,.,.,.,.,.,.,.,.,.,.,.,.,.,.,.,.,.,.,.,.,.,.,.,.,.,.,.,.,.,.,.,.,.,.,.,.,.,.,.,.,.,.,.,.,.,.,.,.,.,.,.,.,.,.,.,.,.,.,.,.,.,.,.,.,.,.,.,.,.,.,.,.,.,.,.,.,.,.,.,.",
",.,.,.,.,.,.,.,.,.,.,.,.,.,.,.,.,.,.,.,.,.,.,.,.,.,.,.,.,.,.,.,.,.,.,.,.,.,.,.,.,.,.,.,.,.,.,.,.,.,.,.,.,.,.,.,.,.,.,.,.,.,.,.,.,.,.,.,.,.,.,.,.,.,.,.,.,.,.,.,.,.,.,.,.,.,.,.,.,.,.,.,.,.,.,.,.,.,.,.,.,.,.,.,.",
",.,.,.,.,.,.,.,.,.,.,.,.,.,.,.,.,.,.,.,.,.,.,.,.,.,.,.,.,.,.,.,.,.,.,.,.,.,.,.,.,.,.,.,.,.,.,.,.,.,.,.,.,.,.,.,.,.,.,.,.,.,.,.,.,.,.,.,.,.,.,.,.,.,.,.,.,.,.,.,.,.,.,.,.,.,.,.,.,.,.,.,.,.,.,.,.,.,.,.,.,.,.,.,.",
",.,.,.,.,.,.,.,.,.,.,.,.,.,.,.,.,.,.,.,.,.,.,.,.,.,.,.,.,.,.,.,.,.,.,.,.,.,.,.,.,.,.,.,.,.,.,.,.,.,.,.,.,.,.,.,.,.,.,.,.,.,.,.,.,.,.,.,.,.,.,.,.,.,.,.,.,.,.,.,.,.,.,.,.,.,.,.,.,.,.,.,.,.,.,.,.,.,.,.,.,.,.,.,.",
",.,.,.,.,.,.,.,.,.,.,.,.,.,.,.,.,.,.,.,.,.,.,.,.,.,.,.,.,.,.,.,.,.,.,.,.,.,.,.,.,.,.,.,.,.,.,.,.,.,.,.,.,.,.,.,.,.,.,.,.,.,.,.,.,.,.,.,.,.,.,.,.,.,.,.,.,.,.,.,.,.,.,.,.,.,.,.,.,.,.,.,.,.,.,.,.,.,.,.,.,.,.,.,.",
",.,.,.,.,.,.,.,.,.,.,.,.,.,.,.,.,.,.,.,.,.,.,.,.,.,.,.,.,.,.,.,.,.,.,.,.,.,.,.,.,.,.,.,.,.,.,.,.,.,.,.,.,.,.,.,.,.,.,.,.,.,.,.,.,.,.,.,.,.,.,.,.,.,.,.,.,.,.,.,.,.,.,.,.,.,.,.,.,.,.,.,.,.,.,.,.,.,.,.,.,.,.,.,.",
",.,.,.,.,.,.,.,.,.,.,.,.,.,.,.,.,.,.,.,.,.,.,.,.,.,.,.,.,.,.,.,.,.,.,.,.,.,.,.,.,.,.,.,.,.,.,.,.,.,.,.,.,.,.,.,.,.,.,.,.,.,.,.,.,.,.,.,.,.,.,.,.,.,.,.,.,.,.,.,.,.,.,.,.,.,.,.,.,.,.,.,.,.,.,.,.,.,.,.,.,.,.,.,.",
",.,.,.,.,.,.,.,.,.,.,.,.,.,.,.,.,.,.,.,.,.,.,.,.,.,.,.,.,.,.,.,.,.,.,.,.,.,.,.,.,.,.,.,.,.,.,.,.,.,.,.,.,.,.,.,.,.,.,.,.,.,.,.,.,.,.,.,.,.,.,.,.,.,.,.,.,.,.,.,.,.,.,.,.,.,.,.,.,.,.,.,.,.,.,.,.,.,.,.,.,.,.,.,.",
",.,.,.,.,.,.,.,.,.,.,.,.,.,.,.,.,.,.,.,.,.,.,.,.,.,.,.,.,.,.,.,.,.,.,.,.,.,.,.,.,.,.,.,.,.,.,.,.,.,.,.,.,.,.,.,.,.,.,.,.,.,.,.,.,.,.,.,.,.,.,.,.,.,.,.,.,.,.,.,.,.,.,.,.,.,.,.,.,.,.,.,.,.,.,.,.,.,.,.,.,.,.,.,."
};
