/* XPM */
static char *NEOX[] = {
/* columns rows colors chars-per-pixel */
"104 78 196 2",
"   c #E5C823",
".  c #E5C824",
"X  c #E5C825",
"o  c #E5C826",
"O  c #E5C827",
"+  c #E5C828",
"@  c #E5C928",
"#  c #E5C929",
"$  c #E5C92A",
"%  c #E5C92B",
"&  c #E5C92C",
"*  c #E5C92D",
"=  c #E4C92F",
"-  c #E5C92E",
";  c #E4C930",
":  c #E4C932",
">  c #E4CA32",
",  c #E4CA33",
"<  c #E4CA35",
"1  c #E4CA36",
"2  c #E4CA37",
"3  c #E4CA38",
"4  c #E4CA39",
"5  c #E4CA3A",
"6  c #E4CB3B",
"7  c #E4CB3C",
"8  c #E4CB3D",
"9  c #E4CB3F",
"0  c #E3CB41",
"q  c #E3CB43",
"w  c #E3CB47",
"e  c #E3CC44",
"r  c #E3CC45",
"t  c #E3CC46",
"y  c #E3CC47",
"u  c #E4CB40",
"i  c #E4CB41",
"p  c #E4CB42",
"a  c #E3CB49",
"s  c #E3CC48",
"d  c #E3CC49",
"f  c #E3CC4A",
"g  c #E3CC4B",
"h  c #E3CC4C",
"j  c #E3CD4F",
"k  c #E3CD50",
"l  c #E3CD51",
"z  c #E3CC52",
"x  c #E3CD52",
"c  c #E3CD54",
"v  c #E3CD55",
"b  c #E2CD57",
"n  c #E3CD56",
"m  c #E2CE57",
"M  c #E2CE58",
"N  c #E2CE59",
"B  c #E2CE5A",
"V  c #E2CE5D",
"C  c #E2CE5E",
"Z  c #E2CE5F",
"A  c #E2CF5F",
"S  c #E2CF61",
"D  c #E2CE62",
"F  c #E2CF62",
"G  c #E2CF63",
"H  c #E2CF64",
"J  c #E2CF65",
"K  c #E2CF66",
"L  c #E2CF67",
"P  c #E2CF68",
"I  c #E2CF69",
"U  c #E2CF6A",
"Y  c #E2CF6B",
"T  c #E1CF6C",
"R  c #E1CF6D",
"E  c #E2D068",
"W  c #E2D069",
"Q  c #E2D06A",
"!  c #E2D06B",
"~  c #E1D06C",
"^  c #E1D06D",
"/  c #E1D06E",
"(  c #E1D06F",
")  c #E1D070",
"_  c #E1D071",
"`  c #E1D173",
"'  c #E1D174",
"]  c #E1D175",
"[  c #E1D176",
"{  c #E1D177",
"}  c #E0D178",
"|  c #E1D178",
" . c #E1D179",
".. c #E1D17B",
"X. c #E1D27B",
"o. c #E1D27C",
"O. c #E1D27D",
"+. c #E1D27E",
"@. c #E1D27F",
"#. c #DFD38E",
"$. c #DFD492",
"%. c #DFD493",
"&. c #DFD495",
"*. c #DFD496",
"=. c #DFD497",
"-. c #DFD597",
";. c #DFD498",
":. c #DFD598",
">. c #DFD599",
",. c #DFD59B",
"<. c #DFD59C",
"1. c #DFD59E",
"2. c #DFD59F",
"3. c #DFD5A0",
"4. c #DFD6A1",
"5. c #DFD6A2",
"6. c #DFD6A5",
"7. c #DED6A7",
"8. c #DFD6A6",
"9. c #DFD6A7",
"0. c #DED6A8",
"q. c #DED7A9",
"w. c #DFD6A8",
"e. c #DFD6A9",
"r. c #DED6AA",
"t. c #DED7AE",
"y. c #DED7B2",
"u. c #DED7B3",
"i. c #DED7B4",
"p. c #DED8B4",
"a. c #DED8B5",
"s. c #DED8B6",
"d. c #DED8B7",
"f. c #DDD8BA",
"g. c #DDD8BB",
"h. c #DED8B8",
"j. c #DED8B9",
"k. c #DED8BA",
"l. c #DED8BB",
"z. c #DDD9BC",
"x. c #DDD9BE",
"c. c #DED8BC",
"v. c #DED8BD",
"b. c #DED9BC",
"n. c #DED9BD",
"m. c #E0D280",
"M. c #E0D281",
"N. c #E1D280",
"B. c #E0D282",
"V. c #E0D283",
"C. c #E0D385",
"Z. c #E0D287",
"A. c #E0D388",
"S. c #E0D389",
"D. c #E0D38B",
"F. c #E0D38D",
"G. c #E0D48E",
"H. c #E0D48F",
"J. c #E0D390",
"K. c #E0D490",
"L. c #E0D491",
"P. c #E0D492",
"I. c #E0D493",
"U. c #E0D494",
"Y. c #DDD9C0",
"T. c #DDD9C1",
"R. c #DDD9C3",
"E. c #DED9C0",
"W. c #DDD9C4",
"Q. c #DDD9C5",
"!. c #DDD9C6",
"~. c #DDDAC5",
"^. c #DDDAC6",
"/. c #DDDAC7",
"(. c #DDDAC8",
"). c #DDDAC9",
"_. c #DDDACA",
"`. c #DDDACB",
"'. c #DDDACC",
"]. c #DDDACD",
"[. c #DDDACE",
"{. c #DDDBCF",
"}. c #DDDBD0",
"|. c #DDDBD1",
" X c #DCDBD2",
".X c #DCDBD3",
"XX c #DDDBD2",
"oX c #DCDBD4",
"OX c #DCDBD5",
"+X c #DCDBD6",
"@X c #DCDBD7",
"#X c #DCDCD8",
"$X c #DCDCD9",
"%X c #DCDCDA",
"&X c #DCDCDB",
"*X c gainsboro",
/* pixels */
"*X*X*X*X*X*X*X*X*X*X*X*X*X*X*X*X*X*X*X*X*X*X*X*X*X*X*X*X*X*X*X*X*X*X*X*X*X*X*X*X*X*X*X*X*X*X*X*X*X*X*X*X*X*X*X*X*X*X*X*X*X*X*X*X*X*X*X*X*X*X*X*X*X*X*X*X*X*X*X*X*X*X*X*X*X*X*X*X*X*X*X*X*X*X*X*X*X*X*X*X*X*X*X*X",
"*X*X*X*X*X*X*X*X*X*X*X*X*X*X*X*X*X*X*X*X*X*X*X*X*X*X*X*X*X*X*X*X*X*X*X*X*X*X*X*X*X*X*X*X*X*X*X*X*X*X*X*X*X*X*X*X*X*X*X*X*X*X*X*X*X*X*X*X*X*X*X*X*X*X*X*X*X*X*X*X*X*X*X*X*X*X*X*X*X*X*X*X*X*X*X*X*X*X*X*X*X*X*X*X",
"*X*X*X*X*X*X*X*X*X*X*X*X*X*X*X*X*X*X*X*X*X*X*X*X*X*X*X*X*X*X*X*X*X*X*X*X*X*X*X*X*X*X*X*X*X*X*X*X*X*X*X*X*X*X*X*X*X*X*X*X*X*X*X*X*X*X*X*X*X*X*X*X*X*X*X*X*X*X*X*X*X*X*X*X*X*X*X*X*X*X*X*X*X*X*X*X*X*X*X*X*X*X*X*X",
"*X*X*X*X*X*X*X*X*X*X*X*X*X*X*X*X*X*X*X*X*X*X*X*X*X*X*X*X*X*X*X*X*X*X*X*X*X*X*X*X*X*X*X*X*X*X*X*X*X*X*X*X*X*X*X*X*X*X*X*X*X*X*X*X*X*X*X*X*X*X*X*X*X*X*X*X*X*X*X*X*X*X*X*X*X*X*X*X*X*X*X*X*X*X*X*X*X*X*X*X*X*X*X*X",
"*X*X*X*X*X*X*X*X*X*X*X*X*X*X*X*X*X*X*X*X*X*X*X*X*X*X*X*X*X*X*X*X*X*X*X*X*X*X*X*X*X*X*X*X*X*X*X*X*X*X*X*X*X*X*X*X*X*X*X*X*X*X*X*X*X*X*X*X*X*X*X*X*X*X*X*X*X*X*X*X*X*X*X*X*X*X*X*X*X*X*X*X*X*X*X*X*X*X*X*X*X*X*X*X",
"*X*X*X*X*X*X*X*X*X*X*X*X*X*X*X*X*X*X*X*X*X*X*X*X*X*X*X*X*X*X*X*X*X*X*X*X*X*X*X*X*X*X*X*X*X*X*X*X*X*X*X*X*X*X*X*X*X*X*X*X*X*X*X*X*X*X*X*X*X*X*X*X*X*X*X*X*X*X*X*X*X*X*X*X*X*X*X*X*X*X*X*X*X*X*X*X*X*X*X*X*X*X*X*X",
"*X*X*X*X*X*X*X*X*X*X*X*X*X*X*X*X*X*X*X*X*X*X*X*X*X*X*X*X*X*X*X*X*X*X*X*X*X*X*X*X*X*X*X*X*X*X*X*X*X*X*X*X*X*X*X*X*X*X*X*X*X*X*X*X*X*X*X*X*X*X*X*X*X*X*X*X*X*X*X*X*X*X*X*X*X*X*X*X*X*X*X*X*X*X*X*X*X*X*X*X*X*X*X*X",
"*X*X*X*X*X*X*X*X*X*X*X*X*X*X*X*X*X*X*X*X*X*X*X*X*X*X*X*X*X*X*X*X*X*X*X*X*X*X*X*X*X*X*X*X*X*X*X*X*X*X*X*X*X*X*X*X*X*X*X*X*X*X*X*X*X*X*X*X*X*X*X*X*X*X*X*X*X*X*X*X*X*X*X*X*X*X*X*X*X*X*X*X*X*X*X*X*X*X*X*X*X*X*X*X",
"*X*X*X*X*X*X*X*X*X*X*X*X*X*X*X*X*X*X*X*X*X*X*X*X*X*X*X*X*X*X*X*X*X*X*X*X*X*X*X*X*X*X*X*X*X*X*X*X*X*X*X*X*X*X*X*X*X*X*X*X*X*X*X*X*X*X*X*X*X*X*X*X*X*X*X*X*X*X*X*X*X*X*X*X*X*X*X*X*X*X*X*X*X*X*X*X*X*X*X*X*X*X*X*X",
"*X*X*X*X*X*X*X*X*X*X*X*X*X*X*X*X*X*X*X*X*X*X*X*X*X*X*X*X*X*X*X*X*X*X*X*X*X*X*X*X*X*X*X*X*X*X*X*X*X*X*X*X*X*X*X*X*X*X*X*X*X*X*X*X*X*X*X*X*X*X*X*X*X*X*X*X*X*X*X*X*X*X*X*X*X*X*X*X*X*X*X*X*X*X*X*X*X*X*X*X*X*X*X*X",
"*X*X*X*X*X*X*X*X*X*X*X*X*X*X*X*X*X*X*X*X*X*X*X*X*X*X*X*X*X*X*X*X*X*X*X*X*X*X*X*X*X*X*X*X*X*X*X*X*X*X*X*X*X*X*X*X*X*X*X*X*X*X*X*X*X*X*X*X*X*X*X*X*X*X*X*X*X*X*X*X*X*X*X*X*X*X*X*X*X*X*X*X*X*X*X*X*X*X*X*X*X*X*X*X",
"*X*X*X*X*X*X*X*X*X*X*X*X*X*X*X*X*X*X*X*X*X*X*X*X*X*X*X*X*X*X*X*X*X*X*X*X*X*X*X*X*X*X*X*X*X*X*X*X*X*X*X*X*X*X*X*X*X*X*X*X*X*X*X*X*X*X*X*X*X*X*X*X*X*X*X*X*X*X*X*X*X*X*X*X*X*X*X*X*X*X*X*X*X*X*X*X*X*X*X*X*X*X*X*X",
"*X*X*X*X*X*X*X*X*X*X*X*X*X*X*X*X*X*X*X*X*X*X*X*X*X*X*X*X*X*X*X*X*X*X*X*X*X*X*X*X*X*X*X*X*X*X*X*X*X*X*X*X*X*X*X*X*X*X*X*X*X*X*X*X*X*X*X*X*X*X*X*X*X*X*X*X*X*X*X*X*X*X*X*X*X*X*X*X*X*X*X*X*X*X*X*X*X*X*X*X*X*X*X*X",
"*X*X*X*X*X*X*X*X*X*X*X*X*X*X*X*X*X*X*X*X*X*X*X*X*X*X*X*X*X*X*X*X*X*X*X*X*X*X*X*X*X*X*X*X*X*X*X*X*X*X*X*X*X*X*X*X*X*X*X*X*X*X*X*X*X*X*X*X*X*X*X*X*X*X*X*X*X*X*X*X*X*X*X*X*X*X*X*X*X*X*X*X*X*X*X*X*X*X*X*X*X*X*X*X",
"*X*X*X*X*X*X*X*X*X*X*X*X*X*X*X*X*X*X*X*X*X*X*X*X*X*X*X*X*X*X*X*X*X*X*X*X*X*X*X*X*X*X*X*X*X*X*X*X*X*X*X*X*X*X*X*X*X*X*X*X*X*X*X*X*X*X*X*X*X*X*X*X*X*X*X*X*X*X*X*X*X*X*X*X*X*X*X*X*X*X*X*X*X*X*X*X*X*X*X*X*X*X*X*X",
"*X*X*X*X*X*X*X*X*X*X*X*X*X*X*X*X*X*X*X*X*X*X*X*X*X*X*X*X*X*X*X*X*X*X*X*X*X*X*X*X*X*X*X*X*X*X*X*X*X*X*X*X*X*X*X*X*X*X*X*X*X*X*X*X*X*X*X*X*X*X*X*X*X*X*X*X*X*X*X*X*X*X*X*X*X*X*X*X*X*X*X*X*X*X*X*X*X*X*X*X*X*X*X*X",
"*X*X*X*X*X*X*X*X*X*X*X*X*X*X*X*X*X*X*X*X*X*X*X*X*X*X*X*X*X*X*X*X*X*X*X*X*X*X*X*X*X*X*X*X*X*X*X*X*X*X*X*X*X*X*X*X*X*X*X*X*X*X*X*X*X*X*X*X*X*X*X*X*X*X*X*X*X*X*X*X*X*X*X*X*X*X*X*X*X*X*X*X*X*X*X*X*X*X*X*X*X*X*X*X",
"*X*X*X*X*X*X*X*X*X*X*X*X*X*X*X*X*X*X*X*X*X*X*X*X*X*X*X*X*X*X*X*X*X*X*X*X*X*X*X*X*X*X*X*X*X*X*X*X*X*X*X*X*X*X*X*X*X*X*X*X*X*X*X*X*X*X*X*X*X*X*X*X*X*X*X*X*X*X*X*X*X*X*X*X*X*X*X*X*X*X*X*X*X*X*X*X*X*X*X*X*X*X*X*X",
"*X*X*X*X*X*X*X*X*X*X*X*X*X*X*X*X*X*X*X*X*X*X*X*X*X*X*X*X*X*X*X*X*X*X*X*X*X*X*X*X*X*X*X*X*X*X*X*X*X*X*X*X*X*X*X*X*X*X*X*X*X*X*X*X*X*X*X*X*X*X*X*X*X*X*X*X*X*X*X*X*X*X*X*X*X*X*X*X*X*X*X*X*X*X*X*X*X*X*X*X*X*X*X*X",
"*X*X*X*X*X*X*X*X*X*X*X*X*X*X*X*X*X*X*X*X*X*X*X*X*X*X*X*X*X*X*X*X*X*X*X*X*X*X*X*X*X*X*X*X*X*X*X*X*X*X*X*X*X*X*X*X*X*X*X*X*X*X*X*X*X*X*X*X*X*X*X*X*X*X*X*X*X*X*X*X*X*X*X*X*X*X*X*X*X*X*X*X*X*X*X*X*X*X*X*X*X*X*X*X",
"*X*X*X*X*X*X*X*X*X*X*X*X*X*X*X*X*X*X*X*X*X*X*X*X*X*X*X*X*X*X*X*X*X*X*X*X*X*X*X*X*X*X*X*X*X*X*X*X*X*X*X*X*X*X*X*X*X*X*X*X*X*X*X*X*X*X*X*X*X*X*X*X*X*X*X*X*X*X*X*X*X*X*X*X*X*X*X*X*X*X*X*X*X*X*X*X*X*X*X*X*X*X*X*X",
"*X*X*X*X*X*X*X*X*X*X*X*X*X*X*X*X*X*X*X*X*X*X*X*X*X*X*X*X*X*X*X*X*X*X*X*X*X*X*X*X*X*X*X*X*X*X*X*X*X*X*X*X*X*X*X*X*X*X*X*X*X*X*X*X*X*X*X*X*X*X*X*X*X*X*X*X*X*X*X*X*X*X*X*X*X*X*X*X*X*X*X*X*X*X*X*X*X*X*X*X*X*X*X*X",
"*X*X*X*X*X*X*X*X*X*X*X*X*X*X*X*X*X*X*X*X*X*X*X*X*X*X*X*X*X*X*X*X*X*X*X*X*X*X*X*X*X*X*X*X*X*X*X*X*X*X*X*X*X*X*X*X*X*X*X*X*X*X*X*X*X*X*X*X*X*X*X*X*X*X*X*X*X*X*X*X*X*X*X*X*X*X*X*X*X*X*X*X*X*X*X*X*X*X*X*X*X*X*X*X",
"*X*X*X*X*X*X*X*X*X*X*X*X*X*X*X*X*X*X*X*X*X*X*X*X*X*X*X*X*X*X*X*X*X*X*X*X*X*X*X*X*X*X*X*X*X*X*X*X*X*X*X*X*X*X*X*X*X*X*X*X*X*X*X*X*X*X*X*X*X*X*X*X*X*X*X*X*X*X*X*X*X*X*X*X*X*X*X*X*X*X*X*X*X*X*X*X*X*X*X*X*X*X*X*X",
"*X*X*X*X*X*X*X*X*X*X*X*X*X*X*X*X*X*X*X*X*X*X*X*X*X*X*X*X*X*X*X*X*X*X*X*X*X*X*X*X*X*X*X*X*X*X*X*X*X*X*X*X*X*X*X*X*X*X*X*X*X*X*X*X*X*X*X*X*X*X*X*X*X*X*X*X*X*X*X*X*X*X*X*X*X*X*X*X*X*X*X*X*X*X*X*X*X*X*X*X*X*X*X*X",
"*X*X*X*X*X*X*X*X*X*X*X*X*X*X*X*X*X*X*X*X*X*X*X*X*X*X*X*X*X*X*X*X*X*X*X*X*X*X*X*X*X*X*X*X*X*X*X*X*X*X*X*X*X*X*X*X*X*X*X*X*X*X*X*X*X*X*X*X*X*X*X*X*X*X*X*X*X*X*X*X*X*X*X*X*X*X*X*X*X*X*X*X*X*X*X*X*X*X*X*X*X*X*X*X",
"*X*X*X*X*X*X*X*X*X*X*X*X*X*X*X*X*X*X*X*X*X*X*X*X*X*X*X*X*X*X*X*X*X*X*X*X*X*X*X*X*X*X*X*X*X*X*X*X*X*X*X*X*X*X*X*X*X*X*X*X*X*X*X*X*X*X*X*X*X*X*X*X*X*X*X*X*X*X*X*X*X*X*X*X*X*X*X*X*X*X*X*X*X*X*X*X*X*X*X*X*X*X*X*X",
"*X*X*X*X*X*X*X*X*X*X*X*X*X*X*X*X*X*X*X*X*X*X*X*X*X*X*X*X*X*X*X*X*X*X*X*X*X*X*X*X*X*X*X*X*X*X*X*X*X*X*X*X*X*X*X*X*X*X*X*X*X*X*X*X*X*X*X*X*X*X*X*X*X*X*X*X*X*X*X*X*X*X*X*X*X*X*X*X*X*X*X*X*X*X*X*X*X*X*X*X*X*X*X*X",
"*X*X*X*X*X*X*X*X&X*X*X0.( i * . + i H 3.OX*X&X&X*X*X*X*X*X*X*X*X*X*X*X{.J.c 4 . . ; d | y.*X*X&X*X*X*X*X*X*X*X*X*X&X*X*Xa.] a * + + 4 B #._.*X*X&X*X*X&X*Xn.Y R Y ] J.h.*X*X*X&X*X*X&X*X*X}.0.C.) R R R *X*X*X*X",
"*X*X*X*X*X*X&X&X*X0.c . . . . . . . . . i =.*X*X&X*X*X*X*X*X*X&X*XOX@.4 . . . . . . . . . V j.*X&X*X*X*X*X*X*X*X&X*Xn.S + . . . . . . . . 1 M.OX*X&X*X&X*X0.. . . . . + h J.&X*X&X&X*X_.@.9 . . . . . . *X*X*X*X",
"*X*X*X*X*X&X&X*X| . . . . . . . . . . + . . V {.*X&X*X*X*X*X&X*Xn.y . . . . . . . . . . . . + H.*X&X*X*X*X*X&X&X*X%.+ . . . . . . . . . . . . h Y.*X&X&X*X0.+ + . + . . . . a h.*X*X=.; . . . + . . + . *X*X*X*X",
"*X*X*X*X&X&X*XW . . . . . . . + . . . . . + . y {.&X&X*X*X&X*Xn.; . + + . . . . . + . . . + . . C.*X&X*X&X&X&X*X@.. . + . . . . . + . . . . + . 1 n.*XOX*X0.. . . . . . . . . * 6.@.. . . . . . . . . . *X*X*X*X",
"*X*X*X*X$X*X| . + . . . . . . . . . . . . . + . l $X$X$X*X$X{.8 . . . . . . . . . . . . . . . + . =.*X&X&X&X&X=.. . . . . + . .     . . . . . + . 8 {.$X*X6.. . . . + . . . . . . . + . . . + . o   o o *X*X*X*X",
"*X*X*X*X*Xt.. + . . . . . + h c l ; . . . . . + . #.*X$X$X*XH . + . . . . . 4 c B d . . . . . . . * /.*X&X&X/.* . . . . . . . a B B 5   . . . . + . H *X*X0.. . . . . . . . . . . . . . . . . .     o o *X*X*X*X",
"*X*X*X*X$Xa . + . . . . ] /.*X*X*X{.#.* . . . . . ; {.$X*Xi.. + . . . . 4 <.OX*X*X*Xn.V . . . . + . W *X&X*XR . + . . . . S n.*X&X*XOX>., . . . . . . i.*X.Xn.n.Y.a.#., . . . . . . . . . . l >.h.n.n.n.*X*X*X*X",
"*X*X*X*X0.. . . . . . ;.*X*X*X*X*X*X*Xi.* . . . . . #.*X*XH . + . . . i /.*X*X&X&X&X*X&X@.. . . . . + /.*X_.* . . . . . | *X*X*X&X&X*X&X_.0 . . . . . Y *X&X*X&X*X*X&X_.l . . . . . . . . M.*X*X*X*X*X*X*X*X*X*X",
"*X*X*X*XR . . . . . ) *X$X$X*X*X*X*X$X*X%.. . . . . h *X}., . . . . + j.*X&X&X*X&X&X*X&X*Xl . . . . . U.*X>.. + . .   l *X&X&X&X*X*X&X&X*Xa.+ . . . . , OX*X&X&X*X$X$X*XOX5 . . . . . . Y &X&X&X$X*X*X$X*X*X*X*X",
"*X*X*X*Xq . . . . + /.*X$X*X*X*X*X*X$X$X$X8 . . . . ; $Xh.. . . . . * d q y q y y y y q y 4 . . . + . ) *XR . + . .   6.*X&X*X*X*X*X*X*X&X*XS . + . . . i.*X&X*X*X*X*X$X*X%.. . . . . * /.&X&X*X*X*X*X*X*X*X*X*X",
"*X*X*X*X; . . . . a $X*X*X*X*X*X*X*X*X$X*XY . + . . . _.6.. + . . . . . . .     . . . . . . . . . . . c *Xc . . . . * {.*X&X*X*X*X*X*X*X&X&X#.. + . + . 3.*X&X*X*X*X*X*X$X/.+ . . .   j &X&X*X*X*X*X*X*X*X*X*X*X",
"*X*X*X*X. . . . . c *X$X*X*X*X*X*X*X*X$X*X@.. + . . . _.>.. + . . . . + + + + + + + + + + . . . . + . c *Xd . + . . 4 OX*X&X*X*X*X*X*X*X&X*X3.. . . . . 3.*X&X*X*X*X*X*X*X}.; . . .   B &X&X*X*X*X*X*X*X*X*X*X*X",
"*X*X*X*X. . . + . z *X*X*X*X*X*X*X*X*X$X*X| . + . . . _.0.. . . . . . . . . .   .     . . . .       . l *XB . . . . ; }.*X&X*X*X*X*X*X*X$X*X%.. + . . . 3.*X&X*X*X*X*X$X*X/.. . . . . c *X&X*X*X*X*X*X*X*X*X*X*X",
"*X*X*X*X. . . . . z *X*X*X*X*X*X*X*X*X$X*X@.. + . . . /.v.. . . . . + d 0 y y q y q q y q q y q y y y M.*X( . . . + . 6.*X&X*X*X*X*X*X*X$X*XV . + . . . a.&X&X*X*X*X*X$X*X=.. . . . . + /.&X&X*X*X*X*X*X*X*X*X*X",
"*X*X*X*X. . . + . l *X$X*X*X*X*X*X*X*X$X$X@.. . . . . Y.$X, . . . . + j.*X&X*X*X&X&X&X&X&X&X*X*X&X&X&X*X*X=.. . . . . l &X&X&X*X*X*X*X$X*Xi.+ . . . . ; .X&X&X*X*X$X$X*X}.8 . . . . + . R *X&X&X*X*X*X$X*X*X*X*X",
"*X*X*X*X. . . . . c *X*X*X*X*X*X*X*X*X$X*X@.. + . . . h.*XH . + . . . 9 /.*X*X&X&X@X&X&X&X&X&X&X&X&X&X&X&X{.* . . . . . | *X*X&X$X*X*X*X{.0 . . . + . H *X*X*X*X*X*X$X{.l . . . . . . . . C.*X*X*X*X*X*X*X*X*X*X",
"*X*X*X*X. . . + . c *X*X*X*X*X*X*X*X*X$X*X| . . . . . v.*Xi.. . . . . . 4 <.OX*X&X&X*X*X*X*X*X*X&X&X&X&X&X*XY   + . . + . S j.*X*X*XOX<.8 . . . . . . j.*X}.Y.Y.n.i.#., . . . . . . . . . . l <.h.n.x.x.*X*X*X*X",
"*X*X*X*X. . . . . c *X*X*X*X*X*X*X*X*X$X*X@.. + . . . n.*X*XS . + . . . . . 9 B H W W W W W W W W @.&X&X&X*X/.* . . . . . . . d V B 8 . . . . . + . S *X*X6.. . . . . . . . . . . . . . . . . . o   o   *X*X*X*X",
"*X*X*X*X. . . + . c *X*X*X*X*X*X*X*X*X$X*X| . + . . . n.*X&X_.4 . + . . . . . . . . . . . . . .   1 &X*X*X&X*X>.. + . . . + . . . . . . . . . + . , {.$X*X0.. . . . + . . . . . . . . . . . + .   o o   *X*X*X*X",
"*X*X*X*X. . . . . c *X$X*X*X*X*X*X*X*X$X*X@.. + . . . n.*X&X*Xh.; . + . . . . + . + + + . + + + . y *X*X*X*X&X*XM.. . . . . . . + + . . . . + . , h.*X$X*X0.. . . . . . . . . * 0.M.. . + . . .     o o *X*X*X*X",
"*X*X*X*X. . + + . B *X$X*X*X*X*X*X*X*X&X*X@.. + . + . Y.*X&X&X*Xn.q . . . . . . . . . . . . . . . 0 *X*X*X*X*X&X&XH.+ . . . . . . . . . . .   q j.&X&X&X*X0.+ + . + . . . . d a.*X*X%.;         o o o o *X*X*X*X",
"*X*X*X*X. . . . . h *X*X*X*X*X*X*X*X*X&X*X] . . . . . v.*X&X*X&X*XOXM.1 . . . . . . . . . . . . . i *X*X*X*X*X*X&X*Xj.B + . . . . . . . . 5 #.OX&X&X&X&X*X6.. . . . . . d %.&X*X&X&X*X/.] 8     o       *X*X*X*X",
"*X*X*X*XY H Y Y Y #.$X$X*X*X*X*X*X*X*X&X*X6.H Y Y H Y _.*X&X*X*X*X*X*X_.A.l 1 . .       . . . .   y *X*X*X*X*X*X*X&X*X*Xi.) q * + + , c %.{.&X*X&X&X&X&X*XY.) ] ) ) #.a.&X*X*X&X*X*X&X*X*X.X0.#.Y Y Y ( *X*X*X*X",
"*X*X*X*X*X*X*X*X*X*X$X*X*X*X*X*X*X*X*X*X*X*X*X*X*X*X*X*X*X*X*X*X*X*X*X*X*X*X*X*X*X*X*X*X*X*X*X*X*X*X*X*X*X*X*X*X*X*X*X*X*X*X*X*X*X*X*X*X*X*X&X*X&X&X&X&X*X*X*X*X*X*X*X*X*X*X*X*X*X*X*X*X*X*X*X*X&X*X*X*X*X*X*X*X",
"*X*X*X*X*X*X*X*X*X*X*X*X*X*X*X*X*X*X*X*X*X*X*X*X*X*X*X*X*X*X*X*X*X*X*X*X*X*X*X*X*X*X*X*X*X*X*X*X*X*X*X*X*X*X*X*X*X*X*X*X*X*X*X*X*X*X*X*X*X*X*X*X&X*X*X*X*X*X*X*X*X*X*X*X*X*X*X*X*X*X*X*X*X*X*X*X&X&X*X*X*X*X*X*X",
"*X*X*X*X*X*X*X*X*X*X*X*X*X*X*X*X*X*X*X*X*X*X*X*X*X*X*X*X*X*X*X*X*X*X*X*X*X*X*X*X*X*X*X*X*X*X*X*X*X*X*X*X*X*X*X*X*X*X*X*X*X*X*X*X*X*X*X*X*X*X*X*X*X*X*X*X*X*X*X*X*X*X*X*X*X*X*X*X*X*X*X*X*X*X*X*X*X*X*X*X*X*X*X*X",
"*X*X*X*X*X*X*X*X*X*X*X*X*X*X*X*X*X*X*X*X*X*X*X*X*X*X*X*X*X*X*X*X*X*X*X*X*X*X*X*X*X*X*X*X*X*X*X*X*X*X*X*X*X*X*X*X*X*X*X*X*X*X*X*X*X*X*X*X*X*X*X*X*X*X*X*X*X*X*X*X*X*X*X*X*X*X*X*X*X*X*X*X*X*X*X*X*X*X*X*X*X*X*X*X",
"*X*X*X*X*X*X*X*X*X*X*X*X*X*X*X*X*X*X*X*X*X*X*X*X*X*X*X*X*X*X*X*X*X*X*X*X*X*X*X*X*X*X*X*X*X*X*X*X*X*X*X*X*X*X*X*X*X*X*X*X*X*X*X*X*X*X*X*X*X*X*X*X*X*X*X*X*X*X*X*X*X*X*X*X*X*X*X*X*X*X*X*X*X*X*X*X*X*X*X*X*X*X*X*X",
"*X*X*X*X*X*X*X*X*X*X*X*X*X*X*X*X*X*X*X*X*X*X*X*X*X*X*X*X*X*X*X*X*X*X*X*X*X*X*X*X*X*X*X*X*X*X*X*X*X*X*X*X*X*X*X*X*X*X*X*X*X*X*X*X*X*X*X*X*X*X*X*X*X*X*X*X*X*X*X*X*X*X*X*X*X*X*X*X*X*X*X*X*X*X*X*X*X*X*X*X*X*X*X*X",
"*X*X*X*X*X*X*X*X*X*X*X*X*X*X*X*X*X*X*X*X*X*X*X*X*X*X*X*X*X*X*X*X*X*X*X*X*X*X*X*X*X*X*X*X*X*X*X*X*X*X*X*X*X*X*X*X*X*X*X*X*X*X*X*X*X*X*X*X*X*X*X*X*X*X*X*X*X*X*X*X*X*X*X*X*X*X*X*X*X*X*X*X*X*X*X*X*X*X*X*X*X*X*X*X",
"*X*X*X*X*X*X*X*X*X*X*X*X*X*X*X*X*X*X*X*X*X*X*X*X*X*X*X*X*X*X*X*X*X*X*X*X*X*X*X*X*X*X*X*X*X*X*X*X*X*X*X*X*X*X*X*X*X*X*X*X*X*X*X*X*X*X*X*X*X*X*X*X*X*X*X*X*X*X*X*X*X*X*X*X*X*X*X*X*X*X*X*X*X*X*X*X*X*X*X*X*X*X*X*X",
"*X*X*X*X*X*X*X*X*X*X*X*X*X*X*X*X*X*X*X*X*X*X*X*X*X*X*X*X*X*X*X*X*X*X*X*X*X*X*X*X*X*X*X*X*X*X*X*X*X*X*X*X*X*X*X*X*X*X*X*X*X*X*X*X*X*X*X*X*X*X*X*X*X*X*X*X*X*X*X*X*X*X*X*X*X*X*X*X*X*X*X*X*X*X*X*X*X*X*X*X*X*X*X*X",
"*X*X*X*X*X*X*X*X*X*X*X*X*X*X*X*X*X*X*X*X*X*X*X*X*X*X*X*X*X*X*X*X*X*X*X*X*X*X*X*X*X*X*X*X*X*X*X*X*X*X*X*X*X*X*X*X*X*X*X*X*X*X*X*X*X*X*X*X*X*X*X*X*X*X*X*X*X*X*X*X*X*X*X*X*X*X*X*X*X*X*X*X*X*X*X*X*X*X*X*X*X*X*X*X",
"*X*X*X*X*X*X*X*X*X*X*X*X*X*X*X*X*X*X*X*X*X*X*X*X*X*X*X*X*X*X*X*X*X*X*X*X*X*X*X*X*X*X*X*X*X*X*X*X*X*X*X*X*X*X*X*X*X*X*X*X*X*X*X*X*X*X*X*X*X*X*X*X*X*X*X*X*X*X*X*X*X*X*X*X*X*X*X*X*X*X*X*X*X*X*X*X*X*X*X*X*X*X*X*X",
"*X*X*X*X*X*X*X*X*X*X*X*X*X*X*X*X*X*X*X*X*X*X*X*X*X*X*X*X*X*X*X*X*X*X*X*X*X*X*X*X*X*X*X*X*X*X*X*X*X*X*X*X*X*X*X*X*X*X*X*X*X*X*X*X*X*X*X*X*X*X*X*X*X*X*X*X*X*X*X*X*X*X*X*X*X*X*X*X*X*X*X*X*X*X*X*X*X*X*X*X*X*X*X*X",
"*X*X*X*X*X*X*X*X*X*X*X*X*X*X*X*X*X*X*X*X*X*X*X*X*X*X*X*X*X*X*X*X*X*X*X*X*X*X*X*X*X*X*X*X*X*X*X*X*X*X*X*X*X*X*X*X*X*X*X*X*X*X*X*X*X*X*X*X*X*X*X*X*X*X*X*X*X*X*X*X*X*X*X*X*X*X*X*X*X*X*X*X*X*X*X*X*X*X*X*X*X*X*X*X",
"*X*X*X*X*X*X*X*X*X*X*X*X*X*X*X*X*X*X*X*X*X*X*X*X*X*X*X*X*X*X*X*X*X*X*X*X*X*X*X*X*X*X*X*X*X*X*X*X*X*X*X*X*X*X*X*X*X*X*X*X*X*X*X*X*X*X*X*X*X*X*X*X*X*X*X*X*X*X*X*X*X*X*X*X*X*X*X*X*X*X*X*X*X*X*X*X*X*X*X*X*X*X*X*X",
"*X*X*X*X*X*X*X*X*X*X*X*X*X*X*X*X*X*X*X*X*X*X*X*X*X*X*X*X*X*X*X*X*X*X*X*X*X*X*X*X*X*X*X*X*X*X*X*X*X*X*X*X*X*X*X*X*X*X*X*X*X*X*X*X*X*X*X*X*X*X*X*X*X*X*X*X*X*X*X*X*X*X*X*X*X*X*X*X*X*X*X*X*X*X*X*X*X*X*X*X*X*X*X*X",
"*X*X*X*X*X*X*X*X*X*X*X*X*X*X*X*X*X*X*X*X*X*X*X*X*X*X*X*X*X*X*X*X*X*X*X*X*X*X*X*X*X*X*X*X*X*X*X*X*X*X*X*X*X*X*X*X*X*X*X*X*X*X*X*X*X*X*X*X*X*X*X*X*X*X*X*X*X*X*X*X*X*X*X*X*X*X*X*X*X*X*X*X*X*X*X*X*X*X*X*X*X*X*X*X",
"*X*X*X*X*X*X*X*X*X*X*X*X*X*X*X*X*X*X*X*X*X*X*X*X*X*X*X*X*X*X*X*X*X*X*X*X*X*X*X*X*X*X*X*X*X*X*X*X*X*X*X*X*X*X*X*X*X*X*X*X*X*X*X*X*X*X*X*X*X*X*X*X*X*X*X*X*X*X*X*X*X*X*X*X*X*X*X*X*X*X*X*X*X*X*X*X*X*X*X*X*X*X*X*X",
"*X*X*X*X*X*X*X*X*X*X*X*X*X*X*X*X*X*X*X*X*X*X*X*X*X*X*X*X*X*X*X*X*X*X*X*X*X*X*X*X*X*X*X*X*X*X*X*X*X*X*X*X*X*X*X*X*X*X*X*X*X*X*X*X*X*X*X*X*X*X*X*X*X*X*X*X*X*X*X*X*X*X*X*X*X*X*X*X*X*X*X*X*X*X*X*X*X*X*X*X*X*X*X*X",
"*X*X*X*X*X*X*X*X*X*X*X*X*X*X*X*X*X*X*X*X*X*X*X*X*X*X*X*X*X*X*X*X*X*X*X*X*X*X*X*X*X*X*X*X*X*X*X*X*X*X*X*X*X*X*X*X*X*X*X*X*X*X*X*X*X*X*X*X*X*X*X*X*X*X*X*X*X*X*X*X*X*X*X*X*X*X*X*X*X*X*X*X*X*X*X*X*X*X*X*X*X*X*X*X",
"*X*X*X*X*X*X*X*X*X*X*X*X*X*X*X*X*X*X*X*X*X*X*X*X*X*X*X*X*X*X*X*X*X*X*X*X*X*X*X*X*X*X*X*X*X*X*X*X*X*X*X*X*X*X*X*X*X*X*X*X*X*X*X*X*X*X*X*X*X*X*X*X*X*X*X*X*X*X*X*X*X*X*X*X*X*X*X*X*X*X*X*X*X*X*X*X*X*X*X*X*X*X*X*X",
"*X*X*X*X*X*X*X*X*X*X*X*X*X*X*X*X*X*X*X*X*X*X*X*X*X*X*X*X*X*X*X*X*X*X*X*X*X*X*X*X*X*X*X*X*X*X*X*X*X*X*X*X*X*X*X*X*X*X*X*X*X*X*X*X*X*X*X*X*X*X*X*X*X*X*X*X*X*X*X*X*X*X*X*X*X*X*X*X*X*X*X*X*X*X*X*X*X*X*X*X*X*X*X*X",
"*X*X*X*X*X*X*X*X*X*X*X*X*X*X*X*X*X*X*X*X*X*X*X*X*X*X*X*X*X*X*X*X*X*X*X*X*X*X*X*X*X*X*X*X*X*X*X*X*X*X*X*X*X*X*X*X*X*X*X*X*X*X*X*X*X*X*X*X*X*X*X*X*X*X*X*X*X*X*X*X*X*X*X*X*X*X*X*X*X*X*X*X*X*X*X*X*X*X*X*X*X*X*X*X",
"*X*X*X*X*X*X*X*X*X*X*X*X*X*X*X*X*X*X*X*X*X*X*X*X*X*X*X*X*X*X*X*X*X*X*X*X*X*X*X*X*X*X*X*X*X*X*X*X*X*X*X*X*X*X*X*X*X*X*X*X*X*X*X*X*X*X*X*X*X*X*X*X*X*X*X*X*X*X*X*X*X*X*X*X*X*X*X*X*X*X*X*X*X*X*X*X*X*X*X*X*X*X*X*X",
"*X*X*X*X*X*X*X*X*X*X*X*X*X*X*X*X*X*X*X*X*X*X*X*X*X*X*X*X*X*X*X*X*X*X*X*X*X*X*X*X*X*X*X*X*X*X*X*X*X*X*X*X*X*X*X*X*X*X*X*X*X*X*X*X*X*X*X*X*X*X*X*X*X*X*X*X*X*X*X*X*X*X*X*X*X*X*X*X*X*X*X*X*X*X*X*X*X*X*X*X*X*X*X*X",
"*X*X*X*X*X*X*X*X*X*X*X*X*X*X*X*X*X*X*X*X*X*X*X*X*X*X*X*X*X*X*X*X*X*X*X*X*X*X*X*X*X*X*X*X*X*X*X*X*X*X*X*X*X*X*X*X*X*X*X*X*X*X*X*X*X*X*X*X*X*X*X*X*X*X*X*X*X*X*X*X*X*X*X*X*X*X*X*X*X*X*X*X*X*X*X*X*X*X*X*X*X*X*X*X",
"*X*X*X*X*X*X*X*X*X*X*X*X*X*X*X*X*X*X*X*X*X*X*X*X*X*X*X*X*X*X*X*X*X*X*X*X*X*X*X*X*X*X*X*X*X*X*X*X*X*X*X*X*X*X*X*X*X*X*X*X*X*X*X*X*X*X*X*X*X*X*X*X*X*X*X*X*X*X*X*X*X*X*X*X*X*X*X*X*X*X*X*X*X*X*X*X*X*X*X*X*X*X*X*X",
"*X*X*X*X*X*X*X*X*X*X*X*X*X*X*X*X*X*X*X*X*X*X*X*X*X*X*X*X*X*X*X*X*X*X*X*X*X*X*X*X*X*X*X*X*X*X*X*X*X*X*X*X*X*X*X*X*X*X*X*X*X*X*X*X*X*X*X*X*X*X*X*X*X*X*X*X*X*X*X*X*X*X*X*X*X*X*X*X*X*X*X*X*X*X*X*X*X*X*X*X*X*X*X*X"
};
