/* XPM */
static char *ORF_III[] = {
/* columns rows colors chars-per-pixel */
"104 78 65 1",
"  c #DE0002",
". c #E0000C",
"X c #E2001A",
"o c #E30A22",
"O c #E41729",
"+ c #E51B31",
"@ c #E6263A",
"# c #E72E42",
"$ c #E83446",
"% c #E93E51",
"& c #E8404D",
"* c #EA4959",
"= c #EB4F60",
"- c #EC5667",
"; c #EC656C",
": c #ED6775",
"> c #EF717D",
", c #856CA5",
"< c #8C74A9",
"1 c #927CAE",
"2 c #EF7482",
"3 c #F17E8B",
"4 c #9581AF",
"5 c #9A87B4",
"6 c #A18FB9",
"7 c #A695BC",
"8 c #9DB8D9",
"9 c #95B8E3",
"0 c #AD9DC1",
"q c #AFA0C3",
"w c #A6BDDB",
"e c #B6A8C8",
"r c #BDB1CC",
"t c #A0BEE4",
"y c #ACC2DC",
"u c #B8C8DD",
"i c #ACC5E4",
"p c #B8CCE4",
"a c #BFD0E6",
"s c #DDAAAF",
"d c #F1828D",
"f c #F28C97",
"g c #F2929B",
"h c #F49AA3",
"j c #F5A4AC",
"k c #F5ACB4",
"l c #F6B5BC",
"z c #C1B7CF",
"x c #C4B9D3",
"c c #F7BCC2",
"v c #CAC4D8",
"b c #D1CCD9",
"n c gainsboro",
"m c #C0CEE1",
"M c #C7D6E8",
"N c #D3DDEB",
"B c #D7E2EE",
"V c #D8E3F0",
"C c #F8C7CB",
"Z c #F9CDD2",
"A c #FAD8DB",
"S c #FBDFE2",
"D c #FCE8EA",
"F c #FDEFF0",
"G c #FFFDFD",
/* pixels */
"nnnnnnnnnnnnnnnnnnnnnnnnnnnnnnnnnnnnnnnnnnnnnnnnnnnnnnnnnnnnnnnnnnnnnnnnnnnnnnnnnnnnnnnnnnnnnnnnnnnnnnnn",
"nnnnnnnnnnnnnnnnnnnnnnnnnnnnnnnnnnnnnnnnnnnnnnnnnnnnnnnnnnnnnnnnnnnnnnnnnnnnnnnnnnnnnnnnnnnnnnnnnnnnnnnn",
"nnnnnnnnnnnnnnnnnnnnnnnnnnnnnnnnnnnnnnnnnnnnnnnnnnnnnnnnnnnnnnnnnnnnnnnnnnnnnnnnnnnnnnnnnnnnnnnnnnnnnnnn",
"nnnnnnnnnnnnnnnnnnnnnnnnnnnnnnnnnnnnnnnnnnnnnnnnnnnnnnnnnnnnnnnnnnnnnnnnnnnnnnnnnnnnnnnnnnnnnnnnnnnnnnnn",
"nnnnnnnnnnnnnnnnnnnnnnnnnnnnnnnnnnnnnnnnnnnnnnnnnnnnnnnnnnnnnnnnnnnnnnnnnnnnnnnnnnnnnnnnnnnnnnnnnnnnnnnn",
"nnnnnnnnnnnnnnnnnnnnnnnnnnnnnnnnnnnnnnnnnnnnnnnnnnnnnnnnnnnnnnnnnnnnnnnnnnnnnnnnnnnnnnnnnnnnnnnnnnnnnnnn",
"nnnnnnnnnnnnnnnnnnnnnnnnnnnnnnnnnnnnnnnnnnnnnnnnnnnnnnnnnnnnnnnnnnnnnnnnnnnnnnnnnnnnnnnnnnnnnnnnnnnnnnnn",
"nnnnnnnnnnnnnnnnnnnnnnnnnnnnnnnnnnnnnnnnnnnnnnnnnnnnnnnnnnnnnnnnnnnnnnnnnnnnnnnnnnnnnnnnnnnnnnnnnnnnnnnn",
"nnnnnnnnnnnnnnnnnnnnnnnnnnnnnnnnnnnnnnnnnnnnnnnnnnnnnnnnnnnnnnnnnnnnnnnnnnnnnnnnnnnnnnnnnnnnnnnnnnnnnnnn",
"nnnnnnnnnnnnnnnnnnnnnnnnnnnnnnnnnnnnnnnnnnnnnnnnnnnnnnnnnnnnnnnnnnnnnnnnnnnnnnnnnnnnnnnnnnnnnnnnnnnnnnnn",
"nnnnnnnnnnnnnnnnnnnnnnnnnnnnnnnnnnnnnnnnnnnnnnnnnnnnnnnnnnnnnnnnnnnnnnnnnnnnnnnnnnnnnnnnnnnnnnnnnnnnnnnn",
"nnnnnnnnnnnnnnnnnnnnnnnnnnnnnnnnnnnnnnnnnnnnnnnnnnnnnnnnnnnnnnnnnnnnnnnnnnnnnnnnnnnnnnnnnnnnnnnnnnnnnnnn",
"nnnnnnnnnnnnnnnnnnnnnnnnnnnnnnnnnnnnnnnnnnnnnnnnnnnnnnnnnnnnnnnnnnnnnnnnnnnnnnnnnnnnnnnnnnnnnnnnnnnnnnnn",
"nnnnnnnnnnnnnnnnnnnnnnnnnnnnnnnnnnnnnnnnnnnnnnnnnnnnnnnnnnnnnnnnnnnnnnnnnnnnnnnnnnnnnnnnnnnnnnnnnnnnnnnn",
"nnnnnnnnnnnnnnnnnnnnnnnnnnnnnnnnnnnnnnnnnnnnnnnnnnnnnnnnnnnnnnnnnnnnnnnnnnnnnnnnnnnnnnnnnnnnnnnnnnnnnnnn",
"nnnnnnnnnnnnnnnnnnnnnnnnnnnnnnnnnnnnnnnnnnnnnnnnnnnnnnnnnnnnnnnnnnnnnnnnnnnnnnnnnnnnnnnnnnnnnnnnnnnnnnnn",
"nnnnnnnnnnnnnnnnnnnnnnnnnnnnnnnnnnnnnnnnnnnnnnnnnnnnnnnnnnnnnnnnnnnnnnnnnnnnnnnnnnnnnnnnnnnnnnnnnnnnnnnn",
"nnnnnnnnnnnnnnnnnnnnnnnnnnnnnnnnnnnnnnnnnnnnnnnnnnnnnnnnnnnnnnnnnnnnnnnnnnnnnnnnnnnnnnnnnnnnnnnnnnnnnnnn",
"nnnnnnnnnnnnnnnnnnnnnnnnnnnnnnnnnnnnnnnnnnnnnnnnnnnnnnnnnnnnnnnnnnnnnnnnnnnnnnnnnnnnnnnnnnnnnnnnnnnnnnnn",
"nnnnnnnnnnnnnnnnnnnnnnnnnnnnnnnnnnnnnnnnnnnnnnnnnnnnnnnnnnnnnnnnnnnnnnnnnnnnnnnnnnnnnnnnnnnnnnnnnnnnnnnn",
"nnnnnnnnnnnnnnnnnnnnnnnnnnnnnnnnnnnnnnnnnnnnnnnnnnnnnnnnnnnnnnnnnnnnnnnnnnnnnnnnnnnnnnnnnnnnnnnnnnnnnnnn",
"nnnnnnnnnnnnnnnnnnnnnnnnnnnnnnnnnnnnnnnnnnnnnnnnnnnnnnnnnnnnnnnnnnnnnnnnnnnnnnnnnnnnnnnnnnnnnnnnnnnnnnnn",
"nnnnnnnnnnnnnnnnnnnnnnnnnnnnnnnnnnnnnnnnnnnnnnnnnnnnnnnnnnnnnnnnnnnnnnnnnnnnnnnnnnnnnnnnnnnnnnnnnnnnnnnn",
"nnnnnnnnnnnnnnnnnnnnnnnnnnnnnnnnnnnnnnnnnnnnnnnnnnnnnnnnnnnnnnnnnnnnnnnnnnnnnnnnnnnnnnnnnnnnnnnnnnnnnnnn",
"nnnnnnnnnnnnnnnnnnnnnnnnnnnnnnnnnnnnnnnnnnnnnnnnnnnnnnnnnnnnnnnnnnnnnnnnnnnnnnnnnnnnnnnnnnnnnnnnnnnnnnnn",
"nnnnXXXXXXXXXXXXXXXXXXXXXXXXXXXXXXXXXXXXXXXXXXXXXXXXXXXXXXXXXXXXXXXXXXsnnnnnnnnuynnnnnnnnvinnnnnnnr4nnnn",
"nnnnXXXXXXXXXXXXXXXXXXXXXXXXXXXXXXXXXXXXXXXXXXXXXXXXXXXXXXXXXXXXXXXXXXsnnnnnbuy8ynnnnnnai99nnnnbr5,,nnnn",
"nnnnXXXXXXXXXXXXXXXXXXXXXXXXXXXXXXXXXXXXXXXXXXXXXXXXXXXXXXXXXXXXXXXXXXsnnnnMiy88wnnnnmpi999nnnr75<<,nnnn",
"nnnnXXXXXXXXXXXXXXXXXXXXXXXXXXXXXXXXXXXXXXXXXXXXXXXXXXXXXXXXXXXXXXXXXXsnnnnapyw8ynnnnppit99nnne754<,nnnn",
"nnnnXXXXXXXXXXXXXXXXXXXXXXXXXXXXXXXXXXXXooXXXXXXXXXXXXXXXXXXXXXXXXXXXXsnnnnmpyw8ynnnnppit99nnne754<,nnnn",
"nnnnXXXXXXXXX..XO@+X..XXXXXXXXXXXXX..XXX. XoXXXXXXXXX..XX..XX.XX.XXXXXsnnnnmpyw8ynnnnppit99nnnr754<,nnnn",
"nnnnXXXXXXXX.@dCFGFAj&.XXXXXXX.*CCCCCCCCcg$ XXXXXXXokCCCCZCCCCCClXXXXXsnnnnMpyy8ynnnnppi999nnnr0641,nnnn",
"nnnnXXXXXXX.:FGGGGGGGGjoXXXXXX.-GGGGGGGGGGGgXXXXXXXoDGGGGGGGGGGGFoXXXXsnnnnMppwwwnnnnmpit99nnnr0641<nnnn",
"nnnnXXXXXX.dGGGGGGGGGGGZOXXXXX.=GGGGGGGGGGGGf XXXXXoAGGGGGGGGGGGDoXXXXsnnnnMppwwwnnnnmpit99nnnzq751<nnnn",
"nnnnXXXXX.-GGGGGChkFGGGGl.XXXo.=GGGFAAAAFGGGG@XXXXXXSGGGAAAAAAAACoXXXXsnnnnNMpiwynnnnppit99nnnrq751<nnnn",
"nnnnXXXXXoDGGGS&...OjGGGG=.XXX.=GGGg oXoOlGGG> oXXXoSGGDOXoXoXoXXXXXXXsnnnnNMpiwynnnnapi999nnnzq064<nnnn",
"nnnnXXXX.-GGGF@.XXoX cGGGl.oXX.=GGGg.ooo =GGGh XXXXXDGGDX X.X..XXXXXXXsnnnnMMpiwynnnnaiit99nnnxe0551nnnn",
"nnnnXXXo.hGGGg.oXXXX.$GGGDoXXo.=GGGf ..  2GGGd oXXXoDGGD$@@@@@#oXXXXXXsnnnnNMapwynnnnapit99nnnxeq751nnnn",
"nnnnXXXX.lGGG=.XXXXXXXDGGG@XoX.=GGGc;>::gFGGG%.oXXXoAGGGGGGGGGG*.XXXXXsnnnnNMmpwynnnnapit99nnnxeq751nnnn",
"nnnnXXXX.lGGG*.XXXXXXXSGGG@.XX.=GGGGGGGGGGGGk.XXXXXXDGGGGGGGGGG*.oXXXXsnnnnNMMpiunnnnppit99nnnxrq751nnnn",
"nnnnXXXo.hGGGf oXXXo.#GGGFoXXX.=GGGGGGGGGGGkoXXXXXXXDGGGGGGGGGG=.XXXXXsnnnnBMMpiunnnnppi999nnnxze054nnnn",
"nnnnXXXX.-GGGF@.oXXX lGGGl.XXX.=GGGGGGGGGGl XXXXXXXXAGGFggffffg#.XXXXXsnnnNNNMaiunnnnapii99nnnvze074nnnn",
"nnnnXXXXXoDGGGA$  .OhGGGG-.XXX.=GGGl**3GGGF* oXXXXXXSGGDX . ...XXXXXXXsnnnnNNMaiunnnnppi999nnnxreq75nnnn",
"nnnnXXXXo.-GGGGGcgjDGGGGC.XXXo.=GGGf X lGGGDOXXXXXXXDGGDoXooXXXXXXXXXXsnnnNVNMapunnnnppi999nnNvrrq75nnnn",
"nnnnXXXXXo.gGGGGGGGGGGGZOXXXXX.=GFGg oX+FGGGk oXXXXoDGGDoXXXXXXXXXXXXXsnnnnNNMMiunnnnppit99nnnvxre05nnnn",
"nnnnXXXXXXX.>FGGGGGGGGkOXXXXXX.-GGGh oo ;GGGG2 XXXXoDGGFoXXXXXXXXXXXXXsnnnnNBMMpunnnnmpit99nnnxzre05nnnn",
"nnnnXXXXXXXX.@fZFGGSk*.XXXXXXX.*ZCZ2.oXXXhZZZCOXXXXXlZZloXXXXXXXXXXXXXsnnnnVBNMppnnnnppit99nnnvxre07nnnn",
"nnnnXXXXXXXXX..X+#@o..XXXXXXXXXXXXXXXXXXX.XXXXXXXXXX.XXXXXXXXXXXXXXXXXsnnnnVBNMapnnnnapit99nnnvxreq7nnnn",
"nnnnXXXXXXXXXXoXXX.XXoXXXXXXXXXXXXXXXXXXXXXXXXXXXXXXXXXXXXXXXXXXXXXXXXsnnnnBBNMamnnnnmiit99nnnbxrrq0nnnn",
"nnnnXXXXXXXXXXXXXXXXXXXXXXXXXXXXXXXXXXXXXXXXXXXXXXXXXXXXXXXXXXXXXXXXXXsnnnnVBNMMmnnnnppit99nnnxxxrq0nnnn",
"nnnnXXXXXXXXXXXXXXXXXXXXXXXXXXXXXXXXXXXXXXXXXXXXXXXXXXXXXXXXXXXXXXXXXXsnnnnBBNNmmnnnnMpit99Nnnbxxre0nnnn",
"nnnnXXXXXXXXXXXXXXXXXXXXXXXXXXXXXXXXXXXXXXXXXXXXXXXXXXXXXXXXXXXXXXXXXXsnnnnnnNNMMnnnnnnbw99nnnnnmre0nnnn",
"nnnnXXXXXXXXXXXXXXXXXXXXXXXXXXXXXXXXXXXXXXXXXXXXXXXXXXXXXXXXXXXXXXXXXXsnnnnnnnnNMnnnnnnnnmtnnnnnNnbennnn",
"nnnnnnnnnnnnnnnnnnnnnnnnnnnnnnnnnnnnnnnnnnnnnnnnnnnnnnnnnnnnnnnnnnnnnnnnnnnnnnnnnnnnnnnnnnnnnnnnnnnnnnnn",
"nnnnnnnnnnnnnnnnnnnnnnnnnnnnnnnnnnnnnnnnnnnnnnnnnnnnnnnnnnnnnnnnnnnnnnnnnnnnnnnnnnnnnnnnnnnnnnnnnnnnnnnn",
"nnnnnnnnnnnnnnnnnnnnnnnnnnnnnnnnnnnnnnnnnnnnnnnnnnnnnnnnnnnnnnnnnnnnnnnnnnnnnnnnnnnnnnnnnnnnnnnnnnnnnnnn",
"nnnnnnnnnnnnnnnnnnnnnnnnnnnnnnnnnnnnnnnnnnnnnnnnnnnnnnnnnnnnnnnnnnnnnnnnnnnnnnnnnnnnnnnnnnnnnnnnnnnnnnnn",
"nnnnnnnnnnnnnnnnnnnnnnnnnnnnnnnnnnnnnnnnnnnnnnnnnnnnnnnnnnnnnnnnnnnnnnnnnnnnnnnnnnnnnnnnnnnnnnnnnnnnnnnn",
"nnnnnnnnnnnnnnnnnnnnnnnnnnnnnnnnnnnnnnnnnnnnnnnnnnnnnnnnnnnnnnnnnnnnnnnnnnnnnnnnnnnnnnnnnnnnnnnnnnnnnnnn",
"nnnnnnnnnnnnnnnnnnnnnnnnnnnnnnnnnnnnnnnnnnnnnnnnnnnnnnnnnnnnnnnnnnnnnnnnnnnnnnnnnnnnnnnnnnnnnnnnnnnnnnnn",
"nnnnnnnnnnnnnnnnnnnnnnnnnnnnnnnnnnnnnnnnnnnnnnnnnnnnnnnnnnnnnnnnnnnnnnnnnnnnnnnnnnnnnnnnnnnnnnnnnnnnnnnn",
"nnnnnnnnnnnnnnnnnnnnnnnnnnnnnnnnnnnnnnnnnnnnnnnnnnnnnnnnnnnnnnnnnnnnnnnnnnnnnnnnnnnnnnnnnnnnnnnnnnnnnnnn",
"nnnnnnnnnnnnnnnnnnnnnnnnnnnnnnnnnnnnnnnnnnnnnnnnnnnnnnnnnnnnnnnnnnnnnnnnnnnnnnnnnnnnnnnnnnnnnnnnnnnnnnnn",
"nnnnnnnnnnnnnnnnnnnnnnnnnnnnnnnnnnnnnnnnnnnnnnnnnnnnnnnnnnnnnnnnnnnnnnnnnnnnnnnnnnnnnnnnnnnnnnnnnnnnnnnn",
"nnnnnnnnnnnnnnnnnnnnnnnnnnnnnnnnnnnnnnnnnnnnnnnnnnnnnnnnnnnnnnnnnnnnnnnnnnnnnnnnnnnnnnnnnnnnnnnnnnnnnnnn",
"nnnnnnnnnnnnnnnnnnnnnnnnnnnnnnnnnnnnnnnnnnnnnnnnnnnnnnnnnnnnnnnnnnnnnnnnnnnnnnnnnnnnnnnnnnnnnnnnnnnnnnnn",
"nnnnnnnnnnnnnnnnnnnnnnnnnnnnnnnnnnnnnnnnnnnnnnnnnnnnnnnnnnnnnnnnnnnnnnnnnnnnnnnnnnnnnnnnnnnnnnnnnnnnnnnn",
"nnnnnnnnnnnnnnnnnnnnnnnnnnnnnnnnnnnnnnnnnnnnnnnnnnnnnnnnnnnnnnnnnnnnnnnnnnnnnnnnnnnnnnnnnnnnnnnnnnnnnnnn",
"nnnnnnnnnnnnnnnnnnnnnnnnnnnnnnnnnnnnnnnnnnnnnnnnnnnnnnnnnnnnnnnnnnnnnnnnnnnnnnnnnnnnnnnnnnnnnnnnnnnnnnnn",
"nnnnnnnnnnnnnnnnnnnnnnnnnnnnnnnnnnnnnnnnnnnnnnnnnnnnnnnnnnnnnnnnnnnnnnnnnnnnnnnnnnnnnnnnnnnnnnnnnnnnnnnn",
"nnnnnnnnnnnnnnnnnnnnnnnnnnnnnnnnnnnnnnnnnnnnnnnnnnnnnnnnnnnnnnnnnnnnnnnnnnnnnnnnnnnnnnnnnnnnnnnnnnnnnnnn",
"nnnnnnnnnnnnnnnnnnnnnnnnnnnnnnnnnnnnnnnnnnnnnnnnnnnnnnnnnnnnnnnnnnnnnnnnnnnnnnnnnnnnnnnnnnnnnnnnnnnnnnnn",
"nnnnnnnnnnnnnnnnnnnnnnnnnnnnnnnnnnnnnnnnnnnnnnnnnnnnnnnnnnnnnnnnnnnnnnnnnnnnnnnnnnnnnnnnnnnnnnnnnnnnnnnn",
"nnnnnnnnnnnnnnnnnnnnnnnnnnnnnnnnnnnnnnnnnnnnnnnnnnnnnnnnnnnnnnnnnnnnnnnnnnnnnnnnnnnnnnnnnnnnnnnnnnnnnnnn",
"nnnnnnnnnnnnnnnnnnnnnnnnnnnnnnnnnnnnnnnnnnnnnnnnnnnnnnnnnnnnnnnnnnnnnnnnnnnnnnnnnnnnnnnnnnnnnnnnnnnnnnnn",
"nnnnnnnnnnnnnnnnnnnnnnnnnnnnnnnnnnnnnnnnnnnnnnnnnnnnnnnnnnnnnnnnnnnnnnnnnnnnnnnnnnnnnnnnnnnnnnnnnnnnnnnn",
"nnnnnnnnnnnnnnnnnnnnnnnnnnnnnnnnnnnnnnnnnnnnnnnnnnnnnnnnnnnnnnnnnnnnnnnnnnnnnnnnnnnnnnnnnnnnnnnnnnnnnnnn",
"nnnnnnnnnnnnnnnnnnnnnnnnnnnnnnnnnnnnnnnnnnnnnnnnnnnnnnnnnnnnnnnnnnnnnnnnnnnnnnnnnnnnnnnnnnnnnnnnnnnnnnnn"
};
