/* XPM */
static char *RTS_SAT[] = {
/* columns rows colors chars-per-pixel */
"104 78 47 1",
"  c gray23",
". c #1C0A7C",
"X c #200D7E",
"o c #4C4C4C",
"O c #585858",
"+ c #5F5F60",
"@ c #60605F",
"# c #686868",
"$ c #6F6F70",
"% c gray47",
"& c #271682",
"* c #433893",
"= c #5D509F",
"- c #695DA7",
"; c #7F7F80",
": c #6C62AA",
"> c #FA0B08",
", c #F9100D",
"< c #FA1613",
"1 c #F92524",
"2 c #FC3E3C",
"3 c #F65A58",
"4 c #F66767",
"5 c #F67371",
"6 c #878788",
"7 c #8F8F90",
"8 c #989898",
"9 c #9F9FA0",
"0 c #9292BF",
"q c #A0A09F",
"w c #A7A7A7",
"e c #B7B7B7",
"r c #999DC5",
"t c #BFBCD3",
"y c #EC9F9E",
"u c #F09B93",
"i c gray78",
"p c #C4C1D1",
"a c #CFD0CA",
"s c #D2D3CD",
"d c gainsboro",
"f c #C5CFE1",
"g c #E3C2C3",
"h c #E2D0CC",
"j c #E1DADA",
"k c gray90",
"l c #F3F3F3",
/* pixels */
"dddddddddddddddddddddddddddddddddddddddddddddddddddddddddddddddddddddddddddddddddddddddddddddddddddddddd",
"ddddddddddddddddddddddddddddddddddddddddjjdddddddddddddddddddddddddddddddddddddddddddddddddddddddddddddd",
"ddddddddddddddddddddddddddddddddddddddddjjeqq87888weiadddddddddddddddddddddddddddddddddddddddddddddddddd",
"dddddddddddddddddddddddddddddddddddddddiq66666778q8qwwwiiddddddddddddddddddddddddddddddddddddddddddddddd",
"dddddddddddddddddddddddddddddddddddddd9%%%6667788qqwwwwweeisdddddddddddddddddddddddddddddddddddddddddddd",
"ddddddddddddddddddddddddddddddddddddi;$%;;;6677888qwwwweeeeiisdddddddddddddddddddddddddddddddddddddddddd",
"dddddddddddddddddddddddddddddddddddi%#$%%;6667788qqqwweeeeeeeiisdddddddddddddddddddddddddddddddddddddddd",
"dddddddddddddddddddddddddddddddddds$#$$%%;;667788qqqwwweeeeeiiiipddddddddddddddddddddddddddddddddddddddd",
"dddddddddddddddddddddddddddddddddd6#$$$%%%6667788qqqwwweweeiieiiiadddddddddddddddddddddddddddddddddddddd",
"ddddddddddddddddddddddddddddddddde+##$$%%66677788qqwwweweeeeiiiiaspsdddddddddddddddddddddddddddddddddddd",
"ddddddddddddddddddddddddddddddddd$O#$$$%%%;667788qqwwwweeeeeeiiipspsdddddddddddddddddddddddddddddddddddd",
"ddddddddddddddddddddddddddddddddeO###$$%%%6667788qwwwweweeeeiiiiapsdsddddddddddddddddddddddddddddddddddd",
"dddddddddddddddddddddddddddddddd6O+##$$%%66667788qqwwweeeeeeeiiiapsssdddkddddddddddddddddddddddddddddddd",
"dddddddddddddddddddddddddddddddd#O+##$$%%;;667788qqqwwweeeeiiiiiassssddddkkddddddddddddddddddddddddddddd",
"dddddddddddddddddddddddddddddddiO++##$$%%%66677889qwwwwweeeeeiiiappdsdddddkddddddddddddddddddddddddddddd",
"dddddddddddddddddddddddddddddddwOO+##$$%%666677888qqwweeeeeeieiiapspsddddddkdddddddddddddddddddddddddddd",
"ddddddddddddddddddddddddddddddd8O@@##$$%%;;6667888qwwweeeeeteeiiiassjddjddddkddddddddddddddddddddddddddd",
"ddddddddddddddddddddddddddddddd%o@@@##$%%;;667788qqqwwweweeeiiiiiapsfsjjddddkkdddddddddddddddddddddddddd",
"ddddddddddddddddddddddddddddddd;o@@@#$$%%;;66778889qwwwweeeeeiiipssshsddddkdkkkddddddddddddddddddddddddd",
"ddddddddddddddddddddddddddddddd%o@@@##$%%;;;677788qqwwweeeeeeeiiisppsdfddddkkkkkdddddddddddddddddddddddd",
"ddddddddddddddddddddddddddddddd;o@@@#$$%%;;;6678889qwwweeeeeeiiiiisssfsddddkkkkkkkdddddddddddddddddddddd",
"ddddddddddddddddddddddddddddddd%o@@@##$$%%;66777889qwwwweeeeiieiiaassssddddddkkkkldddddddddddddddddddddd",
"ddddddddddddddddddddddddddddddd%oOO@##$$%;;;6677888qqwweweeeeeeiiiassfsddddddkkkkkkddddddddddddddddddddd",
"ddddddddddddddddddddddddddddddd8OOO@@#$$%%;;6677888qqwwwweeeeeiiiippsssdddddkkkkkklkdddddddddddddddddddd",
"ddddddddddddddddddddddddddddddd8oOO@@#$$%%;;6667888qqwwwweeeeeiiiiiiasfdsddddkkkkkkkkddddddddddddddddddd",
"dddddddddddddddddddddddddddddddeOOO@@##$$%%666677888qwwwweweeeeiiiiiaasssddddddkkkkklkdddddddddddddddddd",
"dddddddddddddddddddddddddddddddaOOO@@##$%%%;6667788qqqwwwweeeeeiiiiiaassdddddkkkkkkkkkdddddddddddddddddd",
"ddddddddddddddddddddddddddddddkl@oO@@##$$%%;;6677888qwwwweeeeeeiiiiipssddsdddddkllllllkddddddddddddddddd",
"dddddddddddddddddddddddddddddddl6oOO@@#$$%%;;666777888qqwweeeeeeeetiiiiappssskksiwwweikkdddddddddddddddd",
"dddddddddddddddddddddddddddddddlwoOO@@#$$$%;;%OOO++++++++@$8#+@+++O#++++++#Owa;#OooooO#wkddddddddddddddd",
"dddddddddddddddddddddddddddddddldoOO@@##$$%%;$OOOOOOOOOOOOOOOOOOOOOOOOOOOOOO;OoOOOOOOOOOwddddddddddddddd",
"dddddddddddddddddddddddddddddddkl$oOO@##$$%%;#OOOOOOOOOOOOOOO+OOOOOOOO+OOOOOOOOOOOOOOOOO$jdddddddddddddd",
"ddddddddddddddddddddddddddddddddlqoOO@@##$%%;+OOOO@###OOOOOOOOOoOOOOOOOoooOOOOOO6ie#OOO@Osjddddddddddddd",
"ddddddddddddddddddddddddddddddddksoOO+@##$$%%OOOOO$88q7OOOOO+%$%#OOOOO$%%6$O@OO$lkleoooooakddddddddddddd",
"dddddddddddddddddddddddddddddddddk%oO+@##$$%$OOOOO;8788OOOOO6eei6OOOO#issd7oOOO@8ids8ewwtkkddddddddddddd",
"dddddddddddddddddddddddddddddddddkwoOO@@##$%#OOOOO6788#OOOOOqewe#OOOO$iiis6oOOOOoO#7ikllkkkkdddddddddddd",
"dddddddddddddddddddddddddddddddddda+oOO@###%#OOOOO###OOOOOO%weewOOO@o6iiis8oOOOOOOOoo#wkdjkkdddddddddddd",
"dddddddddddddddddddddddddddddddddds8oO+@@##$OOOOOOOOOOOOOO$wwwe8OOOOOqiiiii$oOOOOOO@OOowkdjkdddddddddddd",
"ddddddddddddddddddddddddddddddddddaeOOO+##$#OOOOOOOOOOOO+;wwwwe6OOOOOwieiiii6OoOO@OOO@O#ddkddddddddddddd",
"ddddddddddddddddddddddddddddddddddsi;oOO+###OO+OO@OOOOOO6w8wwww$OO@O#etiiiiadt7$@oOOOOOOtkdddkdddddddddd",
"dddddddddddddddddddddddddddddddddddewOOOO##@OOOOO;$OOOOOO7qqwww#OOOO$ieeieeeeedsi8OOOOOOekdddddddddddddd",
"dddddddddddddddddddddddddddddddddddie;oOO+#OOOOO@;6@OOO+O$qqqw8OOO+O7eei;O++o%apaj8OOOO+iddddddddddddddd",
"dddddddddddddddddddddddddddddddddddswqOOO@+OOOOO#;6#OOOOO#888w6OOOOO9eee#oOOo$asad;OO+O$dsdsdddddddddddd",
"ddddddddddddddddddddddddddddddddddddiq;oOO+OOOOO$%6%OOOOOO788w%OOOO+weei%O+OOO;ew;OOOOoedssddddddddddddd",
"ddddddddddddddddddddddddddddddddddddd87+OO+OOOOO$%;;+OOOOO;q8q#OOOO#eeee6O+OOOOOOoOO+o7dspdsfddddddddddd",
"dddddddddddddddddddddddddddddddddddddi6%OOOOOOO+$%%;#OOOOO$888+OOOO;ewwew+OO++OOO+OOo7spssspsssddddddddd",
"dddddddddddddddddddddddddddddddddddddd8$@oOOOOO+$$%;$OOOOOO786OOOOo7wweee9#oooOoOoO#waiapasssssddddddddd",
"ddddddddddddddddddddddddddddddddddddddi##OOO++@#$$%%%$$$$%%787%;;66wwwwweee97;%%;8wiaiiipaaspspddddddddd",
"ddddddddddddddddddddddddddddddddddddddd8ooOO+++#$$$%%%6666777899qwwwwwwweeeeteiiiiiieiiiiiiiaaiadddddddd",
"dddddddddddjdddddddddddddddddjdddddddddsiiiiiiiiaaasssssssaiaaaiaiaaaaaasssspssssssssieiiiiiiiiidddddddd",
"ddddddddj533333333333333333333333h0=----::-:-:---::----::-tddddddddddddddddddddddddddiiiiiiiiiiisddddddd",
"ddddddddh<>>>>>>>>>>>>>>>>>>>>>><h*.....XX...X...........&pdddddddddddddddddddddddddaeiiietiiiiiaddddddd",
"ddddddddy<<<,,,,<<<<,<,,>><,<,<>3f&&&&&&&&&X&&&&XX&&&&&&&*ddddddddddddddddddddddddddeeeeeeiiiieiiddddddd",
"dddddddd4>,,>>>,,,>,>>>>>>,,,,,,ur&&&&XXXXXX&&..XXX&X.&&.-ddddddddddddddddddddddddddeeeeeeeeiiietddddddd",
"dddddddd2,<<<<<<<<<<<<<<<<<<<<<1h:&&&&&&&&&&&&&&&&&&&&&&&rdsdddddddddddddddddddddddaeeeeeeeeeeeeeddddddd",
"ddddddddggggggggggggggggggggggggdpttppppppppppttpppppppppfdddddddddddddddddddddddddtweeeeeeeeeeeeddddddd",
"ddddddddjdddddddddddddddddddddddddddddddddddddddddddddddddw9wwwwwweeweeeeeeeeeeeeeeweeweeeweeeeeeddddddd",
"ddddddddddddddddddddddhddddsddddddddddddddddddsddddddddsdi%%%;;;;66777788889w9wwwwwwwwwweeewweeeeddddddd",
"dddddddddddddddddddddddddddddddddddddddddddddddddddddddddw$%%%;;66666777888888wwwwwwwwwwwwewweweeddddddd",
"ddddddddddddddddddddddddddddddddddddddddddddddddddddddddd7#$%%%;%;666667778888888w8wwwwwwwwwweeweddddddd",
"ddddddddddddddddddddddddddddddddddddddddddddddddddddddddd%#$$$%%%%66666677788888889wwwwwwwwwwwwweddddddd",
"dddddddddddddddddddddddddddddddddddddddddddddddddddddddda$##$$$%%%%;%666677777888888w88wqwwwwwwwwddddddd",
"dddddddddddddddddddddddddddddddddddddddddddddddddddddddde+###$$$%%%%%6666667777888888988qwqqwwwqwddddddd",
"dddddddddddddddddddddddddddddddddddddddddddddddddddddddd8O@###$$%%%%%%%;666667777888888888q8qqw7wddddddd",
"ddddddddddddddddddddddddddddddddddddddddddddddddddddddddd8o+####$$$%%;;;;;666677777778888888q8q%iddddddd",
"dddddddddddddddddddddddddddddddddddddddddddddddddddddddjdke#O+####$$$%%%;;;6;6666777777788888q7%dddddddd",
"ddddddddddddddddddddddddddddddddddddddddddddddddddddddddddkd6OO###$$$$$%%%;;;;666667777777787q@qdddddddd",
"ddddddddddddddddddddddddddddddddddddddddddddddddddddddddddddje#O+###$$$$%%%%;;;;;666667777778%ojdddddddd",
"ddddddddddddddddddddddddddddddddddddddddddddddddddddddddddddsda8+O+#$$$$$$%%%%;;;;;6666666677 qjdddddddd",
"dddddddddddddddddddddddddddddddddddddddddddddddddddddddddddddapst6#O####$$$%%%%%%;;;;;666676 $kjdddddddd",
"ddddddddddddddddddddddddddddddddddddddddddddddddddddddddddddddseeiw6#++##$$$$%%%%%%;;;;;66% osjddddddddd",
"ddddddddddddddddddddddddddddddddddddddddddddddddddddddddddddddddieeew7$#+##$$$$$%%%%%%;;%# Oaddddddddddd",
"dddddddddddddddddddddddddddddddddddddddddddddddddddddddddddddddddsiw9997;$$###$$$$%%%%$#o @idddddddddddd",
"ddddddddddddddddddddddddddddddddddddddddddddddddddddddddddddddddddddiw87776%%$$#$###Ooo o7sddddddddddddd",
"dddddddddddddddddddddddddddddddddddddddddddddddddddddddddddddddddddddjse97;;%$###OooooO7addddddddddddddd",
"dddddddddddddddddddddddddddddddddddddddddddddddddddddddddddddddddddddddddsie86;%#%%68edddddddddddddddddd",
"dddddddddddddddddddddddddddddddddddddddddddddddddddddddddddddddddddddddddddddddddddddddddddddddddddddddd",
"dddddddddddddddddddddddddddddddddddddddddddddddddddddddddddddddddddddddddddddddddddddddddddddddddddddddd"
};
