/* XPM */
static char *SONY_TV_Asia[] = {
/* columns rows colors chars-per-pixel */
"104 78 75 1",
"  c #010101",
". c #080514",
"X c #081F07",
"o c #181818",
"O c #130B2A",
"+ c #190E3A",
"@ c #121524",
"# c #0C3C0F",
"$ c #0E3C10",
"% c #103A0F",
"& c #143A10",
"* c #193929",
"= c #213110",
"- c #282828",
"; c #3A3A3A",
": c #2E1B65",
"> c #321D6E",
", c #371E78",
"< c #2D2062",
"1 c #372178",
"2 c #35386C",
"3 c #19491E",
"4 c #185918",
"5 c #1A661B",
"6 c #34585C",
"7 c #344665",
"8 c #394371",
"9 c #336756",
"0 c #327A4C",
"q c #337152",
"w c #511311",
"e c #494949",
"r c #585858",
"t c gray40",
"y c gray47",
"u c #3A1984",
"i c #3B2281",
"p c #29892E",
"a c #289627",
"s c #319A3D",
"d c #2BA12A",
"f c #2DB92D",
"g c #25BD30",
"h c #30AF2F",
"j c #31A936",
"k c #30B72E",
"l c #31B530",
"z c #328845",
"x c #329341",
"c c #35A145",
"v c #2FC12A",
"b c #2CC533",
"n c #30C12B",
"m c #34C333",
"M c #5C942F",
"N c #5D9530",
"B c #44A42F",
"V c #46A730",
"C c #629932",
"Z c #8F7030",
"A c #926E30",
"S c #907030",
"D c #DE3731",
"F c #EA2F31",
"G c #E23531",
"H c #F12B31",
"J c #F13834",
"K c #898989",
"L c gray59",
"P c gray66",
"I c gray72",
"U c #C6C6C6",
"Y c gainsboro",
"T c #E7E7E7",
"R c #FDFDFD",
/* pixels */
"YYYYYYYYYYYYYYYYYYYYYYYYYYYYYYYYYYYYYYYYYYYYYYYYYYYYYYYYYYYYYYYYYYYYYYYYYYYYYYYYYYYYYYYYYYYYYYYYYYYYYYYY",
"YYYYYYYYYYYYYYYYYTYYYYYYYYYYYYYYYYYYYYYYYYYYYYYYYYYYYYYYYYYYYYYYYYYYYYYYYYYYYYYYYYYYYYYYYYYYYYYYYYYYYYYY",
"YYYYYYYYYYYYYY                                                                             YYYYYYYYYYYYY",
"YYYYYYYYYYYYYY 4daaaaaaaaaap<:::>::::::::::::::::::>:::::::::::>::::>::::::>::::::>:>:::>+ YYYYYYYYYYYYY",
"YYYYYYYYYYYYYY 5mkmkmkmkmkn9u1111i11ii,i1i,i11i1ui11i,1i1i11u1i,1i,11i1,u11i1u111i11u11,i+ YYYYYYYYYYYYY",
"YYYYYYYYYYYYYY 5mhlllhlhlfj,,,,,,,,,,,,,,1,,,,,,,1,,,,,,,,,,11,,,1,,,,,,,1,,11,1,,,1,1,,1+ YYYYYYYYYYYYY",
"YYYYYYYYYYYYYY 5mhllllllln0u1,,1,,,1,1,,,,1,,,,1,,11,,11,,1,,,,1,,1,,,,,,,11,,,,,,,,1,,,i+ YYYYYYYYYYYYY",
"YYYYYYYYYYYYYY 5mhlllllllf7,,,,,1,,1,,,11,,,1,,11,,,1,,,,111111111,,1,,,1,,,,11,1,1,,,1,i+ YYYYYYYYYYYYY",
"YYYYYYYYYYYYYY 5mkllllllfs,,,,,1,,,1,1,,,,1,1,,,,,,1,,,,1,,u,,u,,,,,,,,,1,,,,,,1,,,11,,,1+ YYYYYYYYYYYYY",
"YYYYYYYYYYYYYY 5mhllllllf0,,11,,,1,,,1,11,1,,,1,11,,,,,,,127766722,u,,,,,,1111,,,1,,,,1,i+ YYYYYYYYYYYYY",
"YYYYYYYYYYYYYY 5mhlllllhv6,,,,1,1,1,,,1,,1,,,1,1,,,,,,,70jlfnfffklx92,,,,1,,,,1,1,1,,11,i+ YYYYYYYYYYYYY",
"YYYYYYYYYYYYYY 5mhllllllf7,1,1,,,,1,1,,,,,,1,1,,,1,,,,qffflllhhhllnnlx2,1,1,,1,,,,1,,1,,i+ YYYYYYYYYYYYY",
"YYYYYYYYYYYYYY 5mkllllkkk2,1,,11,1,,1,,11,,1,,1,,,11,9vlhllllllllllllfn6,,,,,,11,1,,1,,,i+ YYYYYYYYYYYYY",
"YYYYYYYYYYYYYY 5mhllllhfj1,11,,,,,1,1,,11,,1,1,,1,,,1jlhllllllllllllllln7,,,1,,,,,1,1,,,i+ YYYYYYYYYYYYY",
"YYYYYYYYYYYYYY 5mhllllkfj1,,1,,,11,,,,,,,,,,,,11,,1,2llllllllllllllllllkx,,,1,,,11,,,,,,i+ YYYYYYYYYYYYY",
"YYYYYYYYYYYYYY 5mhllllhfs,1,,,11,,,1,11,,11,1,,,,,,,1lllllllllllllllllllk7,1,,1,,,,1,11,i+ YYYYYYYYYYYYY",
"YYYYYYYYYYYYYY 5mhlllllfs,1,,1,,,11,1,,,1,,,,,,1,,,1,zfjllllllllllllllllk9,,1,,,,,,,,,,,i+ YYYYYYYYYYYYY",
"YYYYYYYYYYYYYY 5mhlllllfs111,,1,,,,,,,11,,1111,,,111,2hfllllllllllllllllnq,,,,,,,,,,,,,,u+ YYYYYYYYYYYYY",
"YYYYYYYYYYYYYY 5mhkllllfj1,,11,,1,,1,1,,,1,,,,1,,1,,,,7lflllllllllllllllljxssssssxssxxxsc3 YYYYYYYYYYYYY",
"YYYYYYYYYYYYYY 5mhlllllfj1,1,,,11,,1,,1,,,1,,1,,,,,1,,u2xfflllllllllllllllklkkklkkkkffffb5 YYYYYYYYYYYYY",
"YYYYYYYYYYYYYY 5mhlllllll2,,1,,,,,,1,1,,11,,,,111,,1,,1,,70lnflllllllllllllllllllllllllhm4 YYYYYYYYYYYYY",
"YYYYYYYYYYYYYY 5mhlllllln7,,,,11,1,,,1,1,,,11,,,1,,1,1,1,,,29xlnffllhllklllllllllllllllhm4 YYYYYYYYYYYYY",
"YYYYYYYYYYYYYY 5mhlllllln9,1,1,,1,1,,,1,,,,11,,,,,,,,,11,,,,u,29zjfffllllllllllllllllllhm4 YYYYYYYYYYYYY",
"YYYYYYYYYYYYYY 5mhllllllfz,1,,1,,,1,1,,,11,,,,11,11,1,,,,,,,,,,,,270slfffllllllllllllllkm4 YYYYYYYYYYYYY",
"YYYYYYYYYYYYYY 5mhlllllllh11,,,,,1,,11,,,1,,,1,,,11,1,,,,,,,,,111,,,,270jlffllhhlllllllhm4 YYYYYYYYYYYYY",
"YYYYYYYYYYYYYY 5mhllllllln6,1,,1,,1,,,,1,1,1,,1,,,,,,,11,,,,,1,,,1,1,,,u,260jfnflllllllkm4 YYYYYYYYYYYYY",
"YYYYYYYYYYYYYY 5mhlllllllfx,,,1,11,,,,,1,,1,11,,1,,1,1,,,,,,1,1,,,1,,,,,,,,,17qzjnfllllhm4 YYYYYYYYYYYYY",
"YYYYYYYYYYYYYY 5mllllllllhf7,1,,,,,111,,1,,,,,,11,,1,,1,,,,,,,1,1,,,,,,,,,11,,,,16xhnflhm4 YYYYYYYYYYYYY",
"YYYYYYYYYYYYYY 5mhllllllllfx,1,11,,,,,,1,,111,,,,,,1,1,,,11,,,1,,,111,,,,,,,,,1,,,,29skkm4 YYYYYYYYYYYYY",
"YYYYYYYYYYYYYY 5mlllllllllln6,1,,,11,1,,1,,,,,11,1,,,1,1,,,,1,1,1,,,,,11,,,,,,,,,,,,,,70m5 YYYYYYYYYYYYY",
"YYYYYYYYYYYYYY 5mhllllllllllj1,,,1,,1,1,1,,,,1,,1,1,,,1,1,,1,1,,1,,,,1,,1,1,,,,,,,,,,,,,8* YYYYYYYYYYYYY",
"YYYYYYYYYYYYYY 5mhllllllllllfz,,1,1,,,1,,,11,,1,,,1,1,,,1,,1,,,1,,11,,1,,,1,,,,,,,,,,,,,u+ YYYYYYYYYYYYY",
"YYYYYYYYYYYYYY 5mhllllllllllln9,11,,,,1,,1,,,1,,11,,,,11,,1,,,1,,,11,,1,,,1,1,,,1,,1,,,,1+ YYYYYYYYYYYYY",
"YYYYYYYYYYYYYY 5mhllllllllllllfq,,,,,,1,,1,1,,1,,,,11,,,,1,,1,1,1,,,,1,,1,1,,,1,1,,1,11>i+ YYYYYYYYYYYYY",
"YYYYYYYYYYYYYY 5mhllllllllllllln0,,,,,,,,,,,11,,,,,11,,,,,11,1,,1,,,,,11,1,,,1,1,,,,1,,,i+ YYYYYYYYYYYYY",
"YYYYYYYYYYYYYY 5mllllllllllllllhfx1,11,1,,,,,,,111,,,,111,,,,,,1,,111,,,,,,1,1,,,11,,,1,i+ YYYYYYYYYYYYY",
"YYYYYYYYYYYYYY 5mhllllllllllllllhfj7,,1,,,,,,,,,,,1,,1,,,,,111,,1,,,,,,11,,1,,1,,11,,,1,i+ YYYYYYYYYYYYY",
"YYYYYYYYYYYYYY 5mhllllllllllllllllffq1,1,,,,,,,,,1,,,,1,11,,,,,1,,1,11,,1,,1,1,,,,,,1,,,i+ YYYYYYYYYYYYY",
"YYYYYYYYYYYYYY 5mhlllllllllllllllllffj6,,,1,,,,,,,1111,,,,1,,,,1,1,1,,1,,,,,,,111,,1,1,,i+ YYYYYYYYYYYYY",
"YYYYYYYYYYYYYY 5mllllllllllllllllllhlffs91,,11,,1,,,,,,1,1,,11,,,1,,,1,,,11,1,,,1,,1,,1>i+ YYYYYYYYYYYYY",
"YYYYYYYYYYYYYY 5mhllllllllllllllllllllllnj02,,,,1,,,,1,,,11,,,1,1,,,1,,1,,,1,11,,,,11,,,1+ YYYYYYYYYYYYY",
"YYYYYYYYYYYYYY 5mlllllllllllllllllllllllllnkx61,,,,,1,,,,,,,1,1,,,1,1,,111,,,,,,,1,,,,1,i+ YYYYYYYYYYYYY",
"YYYYYYYYYYYYYY 5mhllllllllllllllllllllllllllknlz61,u,,111,,1,,,,,1,,,,,,,,1,1,,11,1,,11,i+ YYYYYYYYYYYYY",
"YYYYYYYYYYYYYY 5mhlllllllllllllllllllllllllllllknhx92,u,,,1111,1,1,,,11,,1,,1,,1,,1,,1,>i+ YYYYYYYYYYYYY",
"YYYYYYYYYYYYYY 5mhllllllllllllllllllllllllllllllhkfnljz62,,,,,11,,,,,1,,,,1,1,,,,1,,1,,,i+ YYYYYYYYYYYYY",
"YYYYYYYYYYYYYY 5mllllllllllllllkllllllllllllllllllllllfkls0621,,,,1,,,,,1,1,,,1,,,1,1,,,i+ YYYYYYYYYYYYY",
"YYYYYYYYYYYYYY 5mhllllllllllllkkllllllllllllllllllllllhhlkfnfjz921,,,1,,,1,,,1,111,,,,,,i+ YYYYYYYYYYYYY",
"YYYYYYYYYYYYYY 5mlllllllllllhhhkllllllllllllllVllllllllllllllkffkjq7,,,11,,1,1,,,,,1,11,i+ YYYYYYYYYYYYY",
"YYYYYYYYYYYYYY 5mhlllllllbbgbgggggvgggggggggbggggggblllllllllllhlfnfjq2,,,,,,1,,1,,,,,1,i+ YYYYYYYYYYYYY",
"YYYYYYYYYYYYYY 5mllllllljSZZZZZZZZZZZZZZZZZZZZZSAAZZVkllllllllllllhllnlz2u,,,1,1,,1111,,i+ YYYYYYYYYYYYY",
"YYYYYYYYYYYYYY 5mhlllllgVFHHHHHHFFHHHHHHFHHHHHHHHHHHNglllllllllllllllhlnl9,,,,,,,1,,,,,>i+ YYYYYYYYYYYYY",
"YYYYYYYYYYYYYY 5mhlllllfBDDDGGGGDDDDDDDGDDDDDDGGGDDFNflllllllllllllllllllv6,11,,,,1,,1,,i+ YYYYYYYYYYYYY",
"YYYYYYYYYYYYYY 5mhlllllgVDGGGGGGGGGGGGGGGGGGGGGGGGGFMgllllllllllllllllllllf7,1,,11,,1,,,i+ YYYYYYYYYYYYY",
"YYYYYYYYYYYYYY 5mhlllllfVDGGGGGGGGGGGGGGGGGGGGGGGGGFMglllllllllllllllllllhfz,1,,,,,1,,1,i+ YYYYYYYYYYYYY",
"YYYYYYYYYYYYYY 5mhlllllfVDGGGGGGGGGGGGGGGGGGGGGGGGGFMgllllllllllllllllllllfs,,,,,,,11111i+ YYYYYYYYYYYYY",
"YYYYYYYYYYYYYY 5mhllhhlfBDGDGGGGGGGGGGGGGGGGGGGGGGDFMglhhhkllhhhlhllhllhlhfx,,,,11,,1111i+ YYYYYYYYYYYYY",
"YYYYYYYYYYYYYY 5mmmmkmkmVJJJJJJJJJJJJJJJJJJJJJJJJJJJCbkmmkmmfmmkkmmkmmkmmkmqu1i1111iiu11i+ YYYYYYYYYYYYY",
"YYYYYYYYYYYYYY X$%%%%%%$&wwwwwwwwwwwwwwwwwwwwwwwwwww=$&%&&$&&&$&%%%%%%%%&%$@OOOOOOOOOOOOO. YYYYYYYYYYYYY",
"YYYYYYYYYYYYYY                                                                             YYYYYYYYYYYYY",
"YYYYYYYYYYYYYY                                                                             YYYYYYYYYYYYY",
"YYYYYYYYYYYYYY    otPUYYUKe.oro      ;yIYYYUKe.    ------     o------..-------o  .------o  YYYYYYYYYYYYY",
"YYYYYYYYYYYYYY   KRRRRTTRRRYIRe    ;URRRRYTRRRYe  .YRRRRRK    LRRRRRR;eRRRRRRRU  -RRRRRRP .YYYYYYYYYYYYY",
"YYYYYYYYYYYYYY  KRRUeo. o;KTRR;   tRRRIeo .;IRRRy  rtTRRRRP   ;tLRRytootyTRRRU;  .rTRRKte  YYYYYYYYYYYYY",
"YYYYYYYYYYYYYY oTRR;       oURe  ;RRRP       PRRRr   IRRRRRL    ;RTo     ;RRRT-   rRRy     YYYYYYYYYYYYY",
"YYYYYYYYYYYYYY oRRRUytr;-o  ;I-  IRRTo       oTRRY.  IRUYRRRIo  ;RT-      tRRRT- eRRK      TYYYYYYYYYYYY",
"YYYYYYYYYYYYYY  PRRRRRRRRTUPe   -RRRL         LRRR;  IRKoTRRRY- ;RTo       yRRRYeTRL       YYYYYYYYYYYYY",
"YYYYYYYYYYYYYY  -URRRRRRRRRRRIo eRRRy         yRRRr  IRL -YRRRY--RTo        KRRRRRI        YYYYYYYYYYYYY",
"YYYYYYYYYYYYYY    rLUYRRRRRRRRP ;RRRK         yRRRe  IRL  oURRRYyRR-         PRRRYo        YYYYYYYYYYYYY",
"YYYYYYYYYYYYYY  KU.  .-;etLYRRToXTRRI         IRRRo  IRL   oURRRRRRo         -RRRK         YYYYYYYYYYYYY",
"YYYYYYYYYYYYYY. PRy        -RRT- LRRRe       eRRRP   IRL    .PRRRRR-         -RRRy        .YYYYYYYYYYYYY",
"YYYYYYYYYYYYYY  PRRKo      rRRU  .URRTe     eTRRYo . IRP .    LRRRR-         ;RRRK         YYYYYYYYYYYYY",
"YYYYYYYYYYYYYY  IRTRRTPLLPTRRUo   .LRRRYLyKURRRIo  IRRRRRY.    tRRR-       rRTRRRRRP       YYYYYYYYYYYYY",
"YYYYYYYYYYYYYY  KY;ePTRRRRTUt.      ;PTRRRRRTIe    yPLLLLK.     eLLo       ;PLLLLLPt       TYYYYYYYYYYYY",
"YYYYYYYYYYYYYY       .-;;-o           o;ere;o                                              YYYYYYYYYYYYY",
"YYYYYYYYYYYYYY                                                                             YYYYYYYYYYYYY",
"YYYYYYYYYYYYYY                          .                                                  YYYYYYYYYYYYY",
"YYYYYYYYYYYYYYYYYYYYYYYYYYYYYYYYYYYYYYYYYYYYYYYYYYYYYYYYYYYYYYYYYYYYYYYYYYYYYYYYYYYYYYYYYYYYYYYYYYYYYYYY",
"YYYYYYYYYYYYYYYYYYYYYYYYYYYYYYYYYYYYYYYYYYYYYYYYYYYYYYYYYYYYYYYYYYYYYYYYYYYYYYYYYYYYYYYYYYYYYYYYYYYYYYYY"
};
