/* XPM */
static char *Television_X[] = {
/* columns rows colors chars-per-pixel */
"104 78 92 1",
"  c #050606",
". c #0B1616",
"X c #150A0B",
"o c #180F10",
"O c #14100F",
"+ c #191818",
"@ c #172321",
"# c #28090A",
"$ c #221E1F",
"% c #38090B",
"& c #201F20",
"* c #21201E",
"= c #2B292A",
"- c #312C2D",
"; c #312F30",
": c #373535",
"> c #47090C",
", c #4C0C11",
"< c #560A0E",
"1 c #580C12",
"2 c #51181B",
"3 c #472D31",
"4 c #67090E",
"5 c #680E13",
"6 c #64171F",
"7 c #76090F",
"8 c #760C12",
"9 c #67363A",
"0 c #70373B",
"q c #413F40",
"w c #43413F",
"e c #494949",
"r c #46514E",
"t c #4B5553",
"y c #504F4F",
"u c #51504F",
"i c #585757",
"p c #5A6462",
"a c #605B5C",
"s c #60605E",
"d c #696868",
"f c #716C6D",
"g c #797878",
"h c #87070F",
"j c #870B12",
"k c #9D050E",
"l c #9B0C12",
"z c #AA050F",
"x c #A80D15",
"c c #AB131A",
"v c #B7040F",
"b c #B90E17",
"n c #B81018",
"m c #AB1923",
"M c #BA1B24",
"N c #A0222A",
"B c #817D7D",
"V c #C80E19",
"C c #C8111A",
"Z c #D5010E",
"A c #D80916",
"S c #D4101C",
"D c #CA1C26",
"F c #D51723",
"G c #EC000E",
"H c #E60412",
"J c #F1000E",
"K c #F30312",
"L c #E71524",
"P c #898888",
"I c #918E8F",
"U c #918F90",
"Y c #9A9A9A",
"T c #A09E9E",
"R c #A09FA0",
"E c #A0A09D",
"W c #A7A6A6",
"Q c #B0AFAF",
"! c #B0AFB0",
"~ c #B1B0AF",
"^ c gray73",
"/ c #BFC0BE",
"( c #BFC0C0",
") c #C1BEBD",
"_ c gray78",
"` c #D0CFD0",
"' c #D1D0CF",
"] c gainsboro",
"[ c #DFE0E0",
"{ c #E6E5E5",
"} c #F0EEEF",
"| c #FEFDFD",
/* pixels */
"]]]]]]]]]]]]]]]]]]]]]]]]]]]]]]]]]]]]]]]]]]]]]]]]]]]]]]]]]]]]]]]]]]]]]]]]]]]]]]]]]]]]]]]]]]]]]]]]]]]]]]]]",
"]]]]]]]]]]]]]]]]]]]]]]]]]]]]]]]]]]]]]]]]]]]]]]]]]]]]]]]]]]]]]]]]]]]]]]]]]]]]]]]]]]]]]]]]]]]]]]]]]]]]]]]]",
"]]]]]]]]]]]]]]]]]]]]]]]]]]]]]]]]]]]]]]]]]]]]]]]]]]]]]]]]]]]]]]]]]]]]]]]]]]]]]]]]]]]]]]]]]]]]]]]]]]]]]]]]",
"]]]]]]]]]]]]]]]]]]]]]]]]]]]]]]]]]]]]]]]]]]]]]]]]]]]]]]]]]]]]]]]]]]]]]]]]]]]]]]]]]]]]]]]]]]]]]]]]]]]]]]]]",
"]]]]]]]]]]]]]]]]]]]]]]]]]]]]]]]]]]]]]]]]]]]]]]]]]]]]]]]]]]]]]]]]]]]]]]]]]]]]]]]]]]]]]]]]]]]]]]]]]]]]]]]]",
"]]]]]]]]]]]]]]]]]]]]]]]]]]]]]]]]]]]]]]]]]]]]]]]]]]]]]]]]]]]]]]]]]]]]]]]]]]]]]]]]]]]]]]]]]]]]]]]]]]]]]]]]",
"]]]]]]]]]]]]]]]]]]]]]]]]]]]]]]]]]]]]]]]]]]]]]]]]]]]]]]]]]]]]]]]]]]]]]]]]]]]]]]]]]]]]]]]]]]]]]]]]]]]]]]]]",
"]]]]]]]]]]]]]]]]]]]]]]]]]]]]]]]]]]]]]]]]]]]]]]]]]]]]]]]]]]]]]]]]]]]]]]]]]]]]]]]]]]]]]]]]]]]]]]]]]]]]]]]]",
"]]]]]]]]]]]]]]]]]]]]]]]]]]]]]]]]]]]]]]]]]]]]]]]]]]]]]]]]]]]]]]]]]]]]]]]]]]]]]]]]]]]]]]]]]]]]]]]]]]]]]]]]",
"]]]]]]]]]]]]]]]]]]]]]]]]]]]]]]]]]]]]]]]]]]]]]]]]]]]]]]]]]]]]]]]]]]]]]]]]]]]]]]]]]]]]]]]]]]]]]]]]]]]]]]]]",
"]]]]]]]]]]]]]]]]]]]]]]]]]]]]]]]]]]]]]]]]]]]]]]]]]]]]]]]]]]]]]]]]]]]]]]]]]]]]]]]]]]]]]]]]]]]]]]]]]]]]]]]]",
"]]]]]]]]]]]]]]]]]]]]]]]]]]]]]]]]]]]]]]]]]]]]]]]]]]]]]]]]]]]]]]]]]]]]]]]]]]]]]]]]]]]]]]]]]]]]]]]]]]]]]]]]",
"]]]]]]]]]]]]]]]]]]]]]]]]]]]]]]]]]]]]]]]]]]]]]]]]]]]]]]]]]]]]]]]]]]]]]]]]]]]]]]]]]]]]]]]]]]]]]]]]]]]]]]]]",
"]]]]]]]]]]]]]]]]]]]]]]]]]]]]]]]]]]]]]]]]]]]]]]]]]]]]]]]]]]]]]]]]]]]]]]]]]]]]]]]]]]]]]]]]]]]]]]]]]]]]]]]]",
"]]]]]]]]]]]]]]]]]]]]]]]]]]]]]]]]]]]]]]]]]]]]]]]]]]]]]]]]]]]]]]]]]]]]]]]]]]]]]]]]]]]]]]]]]]]]]]]]]]]]]]]]",
"]]]]]]]]]]]]]]]]]]]]]]]]]]]]]]]]]]]]]]]]]]]]]]]]]]]]]]]]]]]]]]]]]]]]]]]]]]]]]]]]]]]]]]]]]]]]]]]]]]]]]]]]",
"]]]]]]]]]]]]]]]]]]]]]]]]]]]]]]]]]]]]]]]]]]]]]]]]]]]]]]]]]]]]]]]]]]]]]]]]]]]]]]]]]]]]]]]]]]]]]]]]]]]]]]]]",
"]]]]]]]]]]]]]]]]]]]]]]]]]]]]]]]]]]]]]]]]]]]]]]]]]]]]]]]]]]]]]]]]]]]]]]]]]]]]]]]]]]]]]]]]]]]]]]]]]]]]]]]]",
"]]]]]]]]]]]]]]]]]]]]]]]]]]]]]]]]]]]]]]]]]]]]]]]]]]]]]]]]]]]]]]]]]]]]]]]]]]]]]]]]]]]]]]]]]]]]]]]]]]]]]]]]",
"]]]]]]]]]]]]]]]]]]]]]]]]]]]]]]]]]]]]]]]]]]]]]]]]]]]]]]]]]]]]]]]]]]]]]]]]]]]]]]]]]]]________________]]]]]",
"]]]]]]]]]]]]]]]]]]]]]]]]]]]]]]]]]]]]]]]]]]]]]]]]]]]]]]]]]]]]]']]]]]]]]]]]]]]]]]]]B-+$+$$&$$$$$+&&@R]]]]]",
"]]]]]]]]]]]]]]]]]]]]]]]]]]]]]]]]]]]]]]]]]]]]]]]]]]]]]]]]]]]]]]]]]]]]]]]]]]]]]]]]u                f]]]]]]",
"]]]]]]]]]]]]]]]]]]]]]]]]]]]]]]]]]]]]]]]]]]]]]]]]]'YPPPPIPPIIPPPPIPPY`]]]]]]]]`]g X<78541<<<<1X  y]]]]]]]",
"]]]]]]]]]]]]]]]]]]]]]]]]]]]]]]]]]]]]]]]]]]]]]]]]]]YO                &U]]]]]]]]U  4VVCCCVVVVV7  ;`]]]]]]]",
"]]]]]]]]]]]]]]]]]]]]]]]]]]]]]]]]]]]]]]]]]]]]]]]]]]]Q+    XXX##%%%,,% XU]]]]]]^o 4VVVVVVbVbVj  +^]]]]]]]]",
"]]]]]]]]]]]]]]]]]]]]]]]]]]]]]]]]]]]]]]]]]]]]]]]]]]']!+  #777jlkzxnbb5 XU]]]]`= ,VVVVVVVVVVxX XY]]]]]]]]]",
"]]]]]]]]]]]]]]]]]]]]]]]]]]]]]]]]]]]]]]]]]]]]]]]]]]]]]Q+ X<kllxxxxxnnV8 XP]]]e %AAVSVSVVVVV>  g]]]]]]]]]]",
"]]]]]]]]]]]]]]]]]]]]]]]]]]]]]]]]]]]]]]]]]]]]]]]]]]]]]]W+ X7llxxxcnnnbAh XP]f XVHASAAAAASS8  y]]]]]]]]]]]",
"]]]]]]]]]]]]]]]]]]]]]]]]]]]]]]]]]]]]]]]]]]]]]]]]]]]]]]]Qo #hxxxcnnnbbVLh Xu  vHAAAAAAAAAzX ;`]]]]]]]]]]]",
"]]]]]]]]]]]]]]]]]]]]]]]]]]]]]]]]]]]]]]]]]]]]]]]]]]]]]]]]Qo #lcxnnnbVVVVH7   hKAAHAHAAAAA> +^]]]]]]]]]]]]",
"]]]]]]]]]]]]]]]]]]]]]]]]]]]]]]]]]]]]]]]]]]]]]]]]]]]]]]]']Qo %bncnbVVVVSVHh 4GAHAHHAHHAH8 XY]]]]]]]]]]]]]",
"]]]]]]]]]]]]]]]]]]]]]]]]]]]]]]]]]]]]]]]]]]]]]]]]]]]]]]]]]]Qo >VbbbVVVAAAAHvHHHHHHHHHHGxX g]`]]]]]]]]]]]]",
"]]]]][]]]]]]]]]]]]]]]]]]]]][]]]]]]]]]]]][]]]]][[]]]]]]]]]]]^=.6FCCMDDDSSFFLFAHHHHHHHGA# i]]]]]]]]]]]]]]]",
"]]]][i;;===;;=====;;=;:W]_e======;:==:g:==:;;=eg:=====:;;=iW=  o20=OoO9:Ooo=MGHHHHHHK, :`]]]]]]]]]]]]]]]",
"]]]]];dRRRRigWYRRRPyWR:P]^=PWRRRRgqWWyOeRRegWP ;PRRRYWtPWf =fWWUt.=RWg.&BWI@MGHHHHHK7 +(]]]]]]]]]]]]]]]]",
"]]]][q(||||Y]|||||}U||iP]/:}|||||{y||_ !||i`|[:}||||||U[|(:{|||||U:|||gO{|}:MGHHHHKk XR]]]]]]]]]]]]]]]]]",
"]]]][tW{{||Y`|}]]]^P||dY]/e{|}]]]_:`|}e[|]:`|_Y||]]]]{P`|!W||}{|||g}||}e_|{rMGHHHGV  B]]]]]]]]]]]]]]]]]]",
"]]]]]diuB||W]|}!~^RR||gY]_s{|}!~~Qt!||^||^y}|'Q||^~~Ypi{|(_|}gy!||R}|||_`|}pMGHHHZ# s]]]]]]]]]]]]]]]]]]]",
"]]]]]_`Ud||Y'|||||}Y||gY[_y{||||||:d|||||g:]|'i}|||||]e{|^^|}e:B||I}||||||}rMGHHGz XB]]]]]]]]]]]]]]]]]]]",
"]]]]]]]Y;||g^|{Q!^Pd||; =+ [|{Q!~P  ]|||{O _|' =R~!^||i_|RY|{O d||d}|~{|||'.MJHHHKh  B]]]]]]]]]]]]]]]]]]",
"]]]]]]]U:||g(|{RWWBf||^YYYy'|{RWWB+OU|}|WO.(|_tYYWR!||g_|RY||_W{||d{|gi|||'+MGHHHHKh XP]]]]]]]]]]]]]]]]]",
"]]]]]]]U;||B_|||||{g||||||g]|||||]+:e|||i=+_|_P||||||}=]|Q:||||||^=||I ^||].MGHHHHHKj XP]]]]]]]]]]]]]]]]",
"]]]]]]]U={{fW{{[[{^d{{{[[{d({{{[{!+R+`{]+Y=W{Wd{[[[{_q _{R eW][`I.+]{g ='{(.MGHHHHHHKh XP]]]]]]]]]]]]]]]",
"]]]]]][R+&+++@+++++.++++++.++++++.+_:o++-_=.+++++++++:+++.=p+++.o3..+.;-.@..MJHHHHHHHK8  B]`]]]]]]]]]]]]",
"]]]]]]]`^^^//^/^^/^^(^^/^^^^^^^^/^/]_^^^_]_^^^^^((^^_]((^(_][P++mDmmmmMDmmmMSHHHHHHHHHH8  P]]]]]]]]]]]]]",
"]]]]]]]]]]]]]]]]]]]][]]]]]]]]]]]]]]]]]]]]]]]]]]]]]][]]]]]]]]_= 4HAAHGGGGJGKZHGHHHHHHHHHA4  B]]]]]]]]]]]]",
"]]]]]]]]]]]]]]]]]]]]]]]]]]]]]]]]]]]]]]]]]]]]]]]]]]]]]]]]]]]`: >AVAAAAHHHAKvX>HGHHHHHHHHHZ> Xg]]]]]]]]]]]",
"]]]]]]]]]]]]]]]]]]]]]]]]]]]]]]]]]]]]]]]]]]]]]]]]]]]]]]]]]]]i #bCVAAAAHHHGAX  >HGHHHHHHHHKA%  B]]]]]]]]]]",
"]]]]]]]]]]]]]]]]]]]]]]]]]]]]]]]]]]]]]]]]]]]]]]]]]]]]]]]]]]g XjVVVSAAAHHHH% :& >GHHHHKKHZz7%X  f]]]]]]]]]",
"]]]]]]]]]]]]]]]]]]]]]]]]]]]]]]]]]]]]]]]]]]]]]]]]]]]]]]]]]WX <bbVVSAAAHHK4 &`^$ >AKHAbj1#X     =W]]]]]]]]",
"]]]]]]]]]]]]]]]]]]]]]]]]]]]]]]]]]]]]]]]]]]]]]]]]]]]]]]][^+ #xbCCVVSAAAKh o!]]^$ #51#     *wfY(]]]]]]]]]]",
"]]]]]]]]]]]]]]]]]]]]]]]]]]]]]]]]]]]]]]]]]]]]]]]]]]]]]]]'; X8bnbbVVVAAHz  I]]]]^;    O;iB~']][[]]]]]]]]]]",
"]]]]]]]]]]]]]]]]]]]]]]]]]]]]]]]]]]]]]]]]]]]]]]]]]]]]]][i  ,ncnbbVSSSAzX f]]]]]]`YfgE_]]]]]]]]]]]]]]]]]]]",
"]]]]]]]]]]]]]]]]]]]]]]]]]]]]]]]]]]]]]]]]]]]]]]]]]]]]`]g  XxnbCnnxkj8,X e]]]]]]]]]]]]]]]]]]]]]]]]]]]]]]]]",
"]]]]]]]]]]]]]]]]]]]]]]]]]]]]]]]]]]]]]]]]]]]]]]]]]]]]]R  Xllj51,%#X    e']]]]]]]]']]]]]]]]]]]]]]]]]]]]]]]",
"]]]]]]]]]]]]]]]]]]]]]]]]]]]]]]]]]]]]]]]]]]]]]]]]]]]]^+  #%XX      +efW]]]]]]]]]]]]]]]]]]]]]]]]]]]]]]]]]]",
"]]]]]]]]]]]]]]]]]]]]]]]]]]]]]]]]]]]]]]]]]]]]]]]]]]]`; X      o:iP~']]]]]]]]]]]]]]]]]]]]]]]]]]]]]]]]]]]]]",
"]]]]]]]]]]]]]]]]]]]]]]]]]]]]]]]]]]]]]]]]]]]]]]]]]]]e    X=egW_][]]]]]]]]]]]]]]]]]]]]]]]]]]]]]]]]]]]]]]]]",
"]]]]]]]]]]]]]]]]]]]]]]]]]]]]]]]]]]]]]]]]]]]]]]]]]]dX+edU^]]]]]]]]]]]]]]]]]]]]]]]]]]]]]]]]]]]]]]]]]]]]]]]",
"]]]]]]]]]]]]]]]]]]]]]]]]]]]]]]]]]]]]]]]]]]]]]]]]](P!`]]]]]]]]]]]]]]]]]]]]]]]]]]]]]]]]]]]]]]]]]]]]]]]]]]]",
"]]]]]]]]]]]]]]]]]]]]]]]]]]]]]]]]]]]]]]]]]]]]]]]]]]]]]]]]]]]]]]]]]]]]]]]]]]]]]]]]]]]]]]]]]]]]]]]]]]]]]]]]",
"]]]]]]]]]]]]]]]]]]]]]]]]]]]]]]]]]]]]]]]]]]]]]]]]]]]]]]]]]]]]]]]]]]]]]]]]]]]]]]]]]]]]]]]]]]]]]]]]]]]]]]]]",
"]]]]]]]]]]]]]]]]]]]]]]]]]]]]]]]]]]]]]]]]]]]]]]]]]]]]]]]]]]]]]]]]]]]]]]]]]]]]]]]]]]]]]]]]]]]]]]]]]]]]]]]]",
"]]]]]]]]]]]]]]]]]]]]]]]]]]]]]]]]]]]]]]]]]]]]]]]]]]]]]]]]]]]]]]]]]]]]]]]]]]]]]]]]]]]]]]]]]]]]]]]]]]]]]]]]",
"]]]]]]]]]]]]]]]]]]]]]]]]]]]]]]]]]]]]]]]]]]]]]]]]]]]]]]]]]]]]]]]]]]]]]]]]]]]]]]]]]]]]]]]]]]]]]]]]]]]]]]]]",
"]]]]]]]]]]]]]]]]]]]]]]]]]]]]]]]]]]]]]]]]]]]]]]]]]]]]]]]]]]]]]]]]]]]]]]]]]]]]]]]]]]]]]]]]]]]]]]]]]]]]]]]]",
"]]]]]]]]]]]]]]]]]]]]]]]]]]]]]]]]]]]]]]]]]]]]]]]]]]]]]]]]]]]]]]]]]]]]]]]]]]]]]]]]]]]]]]]]]]]]]]]]]]]]]]]]",
"]]]]]]]]]]]]]]]]]]]]]]]]]]]]]]]]]]]]]]]]]]]]]]]]]]]]]]]]]]]]]]]]]]]]]]]]]]]]]]]]]]]]]]]]]]]]]]]]]]]]]]]]",
"]]]]]]]]]]]]]]]]]]]]]]]]]]]]]]]]]]]]]]]]]]]]]]]]]]]]]]]]]]]]]]]]]]]]]]]]]]]]]]]]]]]]]]]]]]]]]]]]]]]]]]]]",
"]]]]]]]]]]]]]]]]]]]]]]]]]]]]]]]]]]]]]]]]]]]]]]]]]]]]]]]]]]]]]]]]]]]]]]]]]]]]]]]]]]]]]]]]]]]]]]]]]]]]]]]]",
"]]]]]]]]]]]]]]]]]]]]]]]]]]]]]]]]]]]]]]]]]]]]]]]]]]]]]]]]]]]]]]]]]]]]]]]]]]]]]]]]]]]]]]]]]]]]]]]]]]]]]]]]",
"]]]]]]]]]]]]]]]]]]]]]]]]]]]]]]]]]]]]]]]]]]]]]]]]]]]]]]]]]]]]]]]]]]]]]]]]]]]]]]]]]]]]]]]]]]]]]]]]]]]]]]]]",
"]]]]]]]]]]]]]]]]]]]]]]]]]]]]]]]]]]]]]]]]]]]]]]]]]]]]]]]]]]]]]]]]]]]]]]]]]]]]]]]]]]]]]]]]]]]]]]]]]]]]]]]]",
"]]]]]]]]]]]]]]]]]]]]]]]]]]]]]]]]]]]]]]]]]]]]]]]]]]]]]]]]]]]]]]]]]]]]]]]]]]]]]]]]]]]]]]]]]]]]]]]]]]]]]]]]",
"]]]]]]]]]]]]]]]]]]]]]]]]]]]]]]]]]]]]]]]]]]]]]]]]]]]]]]]]]]]]]]]]]]]]]]]]]]]]]]]]]]]]]]]]]]]]]]]]]]]]]]]]",
"]]]]]]]]]]]]]]]]]]]]]]]]]]]]]]]]]]]]]]]]]]]]]]]]]]]]]]]]]]]]]]]]]]]]]]]]]]]]]]]]]]]]]]]]]]]]]]]]]]]]]]]]",
"]]]]]]]]]]]]]]]]]]]]]]]]]]]]]]]]]]]]]]]]]]]]]]]]]]]]]]]]]]]]]]]]]]]]]]]]]]]]]]]]]]]]]]]]]]]]]]]]]]]]]]]]",
"]]]]]]]]]]]]]]]]]]]]]]]]]]]]]]]]]]]]]]]]]]]]]]]]]]]]]]]]]]]]]]]]]]]]]]]]]]]]]]]]]]]]]]]]]]]]]]]]]]]]]]]]"
};
