/* XPM */
static char *TF6[] = {
/* columns rows colors chars-per-pixel */
"104 78 27 1",
"  c #EC171F",
". c #ED1B24",
"X c #EC232B",
"o c #EC2B33",
"O c #EB343C",
"+ c #EA3B44",
"@ c #EA424A",
"# c #E94B52",
"$ c #E8555B",
"% c #E75C63",
"& c #E7666C",
"* c #E66B71",
"= c #E5757A",
"- c #E47D82",
"; c #DFBBBD",
": c #E58589",
"> c #E38D92",
", c #E29699",
"< c #E19EA2",
"1 c #E1A7AA",
"2 c #E1AEB2",
"3 c #E0B4B7",
"4 c #DFBFC1",
"5 c #E0BEC0",
"6 c #DFC5C7",
"7 c #DDCFD0",
"8 c gainsboro",
/* pixels */
"88888888888888888888888888888888888888888888888888888888888888888888888888888888888888888888888888888888",
"88888888888888888888888888888888888888888888888888888888888888888888888888888888888888888888888888888888",
"88888888888888888888888888888888888888888888888888888888888888888888888888888888888888888888888888888888",
"88888888888888888888888888888888888888888888888888888888888888888888888888888888888888888888888888888888",
"88888888888888888888888888888888888888888888888888888888888888888888888888888888888888888888888888888888",
"88888888888888888888888888888888888888888888888888888888888888888888888888888888888888888888888888888888",
"88888888888888888888888888888888888888888888888888888888888888888888888888888888888888888888888888888888",
"88888888888888888888888888888888888888888888888888888888888888888888888888888888888888888888888888888888",
"88888888888888888888888888888888888888888888888888888888888888888888888888888888888888888888888888888888",
"88888888888888888888888888888888888888888888888888888888888888888888888888888888888888888888888888888888",
"88888888888888888888888888888888888888888888888888888888888888888888888888888888888888888888888888888888",
"88888888888888888888888888888888888888888888888888888888888888888888888888888888888888888888888888888888",
"88888888888888888888888888888888888888888888888888888888888888888888888888888888888888888888888888888888",
"88888888888888888888888888888888888888888888888888888888888888888888888888888888888888888888888888888888",
"88888888888888888888888888888888888888888888888888888888888888888888888888888888888888888888888888888888",
"88888888888888888888888888888888888888888888888888888888888888888888888888888888888888888888888888888888",
"88888888888888888888888888888888888888888888888888888888888888888888888888888888888888888888888888888888",
"88888888888888888888888888888888888888888888888888888888888888888888888888888888888888888888888888888888",
"88888888888888888888888888888888888888888888888888888888888888888888888888888888888888888888888888888888",
"88888888888888888888888888888888888888888888888888888888888888888888888888888888888888888888888888888888",
"88888888888888888888888888888888888888888888888888888888888888888888888888888888888888888888888888888888",
"88888888888888888888888888888888888888888888888888888888888888888888888888888888888888888888888888888888",
"88888888888888888888888888888888888888888888888888888888888888888888888888888888888888888888888888888888",
"88888888888888888888888888888888888888888888888888888888888888888888888888888888888888888888888888888888",
"888888#XoooooooooooXooooXooooooooooooXoX;8788;-#Oooooooooooooooooooo+88888;>&$@OooooooooooooooooooX#8888",
"888884.................................o788;$.......................$887:@.........................=8888",
"88888>.X...............................$88=X......................X.>81o...........................18888",
"88888%.................................:8$..........................4,..X.........................O78888",
"88887o.................................;%..........................@<..................X....X.....$88888",
"8888<.X...X.X..X............X.........+*.......................... @O.......X.....................:88888",
"8888%.................................XX........XO+OOO+OOOO+OO++OOOX..........oOOOOOOOOOOOOOOOOO+o388888",
"8888:==========-%........+-====-=-===-O........*7888888888888888886X.......X=678888788888788887888888888",
"8888888888888888>......X.:888888888888+.X.....#8888888888888888878=.......X18888888888888888888888888888",
"8888878887888878$........;87878888888;........>8887888888888787888+.......=87888787888788788788888888888",
"8888888888888887o.......O788888888888>.......X6888888888888888888;........;88888888888888888888888888888",
"8888888888888881........%888888888888$.......o::::::::::--:::::::$.......X-:::::::::::::::>,168888888888",
"888888888888888=.X......,888888888887O.......................................................X+:78888888",
"888888888888888#........;888888888882.................X..X......X............X.X..X...X..X.X....$8888888",
"888888888888887X.......+888888888888-..........................................................X.,888888",
"88888888888888<........&888888888888$..........................................................X.&888888",
"88888888888888=......X.<888888888886o.......................................... ................ %888888",
"88888888888888@.......X6888888888881....................................X...X...XXX..............&878888",
"88888888888886X.......@888888888888=.......o;;;;4444444;4444447:.......o;6;66666666664;1$......X.:888888",
"8888888888878,........=878888888888#.X.....#8888888888888888888*.......#8888888888888888;........2888888",
"8888888888888*........<888888888886X.....X.-8888888888888888888+.X.....=87888888888888882.......o7888888",
"8888888888888+.......X788888888888<........28888888888888888886........<8888888888888888-.......$8888888",
"888888888888;........#888888888888*.......o78888888888888888881........;8788788888788887+.....X.>8888888",
"888888888888,.X......-888888888888+.......$8888888888888888888>........=888888888888887$........;8888888",
"888888888888%........2888888888886X.......:8788888888888888878-.........+&==========*$X....... #88888888",
"888888888887O.......o788888888878<........38888888888888888888>.X............... ..............>88888888",
"888888888883........$888888888888*.......O788888888888888888881.............X..X...XX.........+888888888",
"88888888888:.X......:888888888888+.......%888888888888888888887+.X...........................X2888888888",
"88888888888$........2888888888884........>888888888888888888888<........................X...X<8888888888",
"88888888887O.XX....O788888888888,.XXXX.X.488888888888888888888881+......... ......... ....X&688888888888",
"88888888887;;;;;;;;688888888888876666664688888888888888888888888881=$@OoOOOoOoOoOooOOO#%=<78888888888888",
"88888888888888888888888888888888888888888888888888888888888888888888888888888888888888888888888888888888",
"88888888888888888888888888888888888888888888888888888888888888888888888888888888888888888888888888888888",
"88888888888888888888888888888888888888888888888888888888888888888888888888888888888888888888888888888888",
"88888888888888888888888888888888888888888888888888888888888888888888888888888888888888888888888888888888",
"88888888888888888888888888888888888888888888888888888888888888888888888888888888888888888888888888888888",
"88888888888888888888888888888888888888888888888888888888888888888888888888888888888888888888888888888888",
"88888888888888888888888888888888888888888888888888888888888888888888888888888888888888888888888888888888",
"88888888888888888888888888888888888888888888888888888888888888888888888888888888888888888888888888888888",
"88888888888888888888888888888888888888888888888888888888888888888888888888888888888888888888888888888888",
"88888888888888888888888888888888888888888888888888888888888888888888888888888888888888888888888888888888",
"88888888888888888888888888888888888888888888888888888888888888888888888888888888888888888888888888888888",
"88888888888888888888888888888888888888888888888888888888888888888888888888888888888888888888888888888888",
"88888888888888888888888888888888888888888888888888888888888888888888888888888888888888888888888888888888",
"88888888888888888888888888888888888888888888888888888888888888888888888888888888888888888888888888888888",
"88888888888888888888888888888888888888888888888888888888888888888888888888888888888888888888888888888888",
"88888888888888888888888888888888888888888888888888888888888888888888888888888888888888888888888888888888",
"88888888888888888888888888888888888888888888888888888888888888888888888888888888888888888888888888888888",
"88888888888888888888888888888888888888888888888888888888888888888888888888888888888888888888888888888888",
"88888888888888888888888888888888888888888888888888888888888888888888888888888888888888888888888888888888",
"88888888888888888888888888888888888888888888888888888888888888888888888888888888888888888888888888888888",
"88888888888888888888888888888888888888888888888888888888888888888888888888888888888888888888888888888888",
"88888888888888888888888888888888888888888888888888888888888888888888888888888888888888888888888888888888",
"88888888888888888888888888888888888888888888888888888888888888888888888888888888888888888888888888888888"
};
