/* XPM */
static char *TNT_Film_HD[] = {
/* columns rows colors chars-per-pixel */
"104 78 123 2",
"   c #A55903",
".  c #AC630C",
"X  c #AD6713",
"o  c #B1690E",
"O  c #B36C17",
"+  c #B8731E",
"@  c #AF6E20",
"#  c #A97438",
"$  c #B16F25",
"%  c #BA7826",
"&  c #B67B39",
"*  c #986E49",
"=  c #9C724B",
"-  c #98785A",
";  c #997E63",
":  c #AB784B",
">  c #A87B55",
",  c #B47D48",
"<  c #B37E51",
"1  c #C17F2B",
"2  c #BD8137",
"3  c #988068",
"4  c #9D8975",
"5  c #AC8456",
"6  c #BA844A",
"7  c #B98455",
"8  c #BC915E",
"9  c #A98667",
"0  c #A78D77",
"q  c #AF9168",
"w  c #AB937D",
"e  c #B58B65",
"r  c #B18E72",
"t  c #BA9569",
"y  c #B89979",
"u  c #BDA17C",
"i  c #C1812E",
"p  c #C88939",
"a  c #C58848",
"s  c #C78B59",
"d  c #CE9243",
"f  c #CA9458",
"g  c #D18B4A",
"h  c #D08E59",
"j  c #D39849",
"k  c #D69758",
"l  c #C78E62",
"z  c #C89967",
"x  c #C39B76",
"c  c #D79763",
"v  c #D69F73",
"b  c #DBA358",
"n  c #CBA16A",
"m  c #CAA477",
"M  c #D9A769",
"N  c #D5AA77",
"B  c #D8B47B",
"V  c #E49B5C",
"C  c #E69D65",
"Z  c #E0AA5E",
"A  c #E7A769",
"S  c #EBA972",
"D  c #E7B369",
"F  c #E9B975",
"G  c #F7A96B",
"H  c #F3AB70",
"J  c #F6B06D",
"K  c #FDB876",
"L  c #ECC07A",
"P  c #F7C37C",
"I  c #AC9988",
"U  c #B39A84",
"Y  c #AFA69B",
"T  c #BBA289",
"R  c #B9A798",
"E  c #BFB099",
"W  c #BBAEA2",
"Q  c #BCB2A9",
"!  c #BEBAB4",
"~  c #C29F80",
"^  c #C5A989",
"/  c #C6AC96",
"(  c #CEB587",
")  c #CAB398",
"_  c #DAAC84",
"`  c #DBB588",
"'  c #D6B897",
"]  c #C8B9A7",
"[  c #C4BDB8",
"{  c #D5BCA6",
"}  c #D0BEB0",
"|  c #E6B888",
" . c #E4BB94",
".. c #F6BC81",
"X. c #DCC083",
"o. c #DAC294",
"O. c #CEC1AE",
"+. c #CBC2B9",
"@. c #D8C3AA",
"#. c #D6C8B7",
"$. c #DFD2BB",
"%. c #E9C78A",
"&. c #E6C799",
"*. c #EBD198",
"=. c #F9C885",
"-. c #FED18A",
";. c #FCD897",
":. c #E5CBA9",
">. c #E8CDB0",
",. c #EBD6AA",
"<. c #E6D6B8",
"1. c #FADDA3",
"2. c #FDE4A9",
"3. c #FEEBB4",
"4. c #CCC9C6",
"5. c #D4CDC6",
"6. c #D9D2CB",
"7. c gainsboro",
"8. c #E3D6C8",
"9. c #E0DCD4",
"0. c #E3E0CE",
"q. c #E3E3D4",
"w. c #E2E2E2",
/* pixels */
"7.7.7.7.7.7.7.7.7.7.7.7.7.7.7.7.7.7.7.7.7.7.7.7.7.7.7.7.7.7.7.7.7.7.7.7.7.7.7.7.7.7.7.7.7.7.7.7.7.7.7.7.7.7.7.7.7.7.7.7.7.7.7.7.7.7.7.7.7.7.7.7.7.7.7.7.7.7.7.7.7.7.7.7.7.7.7.7.7.7.7.7.7.7.7.7.7.7.7.7.7.7.7.7.",
"7.7.7.7.7.7.7.7.7.7.7.7.7.7.7.7.7.7.7.7.7.7.7.7.7.7.7.7.7.7.7.7.7.7.7.7.7.7.7.7.7.7.7.7.7.7.7.7.7.7.7.7.7.7.7.7.7.7.7.7.7.7.7.7.7.7.7.7.7.7.7.7.7.7.7.7.7.7.7.7.7.7.7.7.7.7.7.7.7.7.7.7.7.7.7.7.7.7.7.7.7.7.7.7.",
"7.7.7.7.7.7.7.7.7.7.7.7.7.7.7.7.7.7.7.7.7.7.7.7.7.7.7.7.7.7.7.7.7.7.7.7.7.7.7.7.7.7.7.7.7.7.7.7.7.7.7.7.7.7.7.7.7.7.7.7.7.7.7.7.7.7.7.7.7.7.7.7.7.7.7.7.7.7.7.7.7.7.7.7.7.7.7.7.7.7.7.7.7.7.7.7.7.7.7.7.7.7.7.7.",
"7.7.7.7.7.7.7.7.7.7.7.7.7.7.7.7.7.7.7.7.7.7.7.7.7.7.7.7.7.7.7.7.7.7.7.7.7.7.7.7.7.7.7.7.7.7.7.7.7.7.7.7.7.7.7.7.7.7.7.7.7.7.7.7.7.7.7.7.7.7.7.7.7.7.7.7.7.7.7.7.7.7.7.7.7.7.7.7.7.7.7.7.7.7.7.7.7.7.7.7.7.7.7.7.",
"7.7.7.7.7.7.7.7.7.7.7.7.7.7.7.7.7.7.7.7.7.7.7.7.7.7.7.7.7.7.7.7.7.7.7.7.7.7.7.7.7.7.7.7.7.7.7.7.7.7.7.7.7.7.7.7.7.7.7.7.7.7.7.7.7.7.7.7.7.7.7.7.7.7.7.7.7.7.7.7.7.7.7.7.7.7.7.7.7.7.7.7.7.7.7.7.7.7.7.7.7.7.7.7.",
"7.7.7.7.7.7.7.7.7.7.7.7.7.7.7.7.7.7.7.7.7.7.7.7.7.7.7.7.7.7.7.7.7.7.7.7.7.7.7.7.7.7.7.7.7.7.7.7.7.7.7.7.7.7.7.7.7.7.7.7.7.7.7.7.7.7.7.7.7.7.7.7.7.7.7.7.7.7.7.7.7.7.7.7.7.7.7.7.7.7.7.7.7.7.7.7.7.7.7.7.7.7.7.7.",
"7.7.7.7.7.7.7.7.7.7.7.7.7.7.7.7.7.7.7.7.7.7.7.7.7.7.7.7.7.7.7.7.7.7.7.7.7.7.7.7.7.7.7.7.7.7.7.7.7.7.7.7.7.7.7.7.7.7.7.7.7.7.7.7.7.7.7.7.7.7.7.7.7.7.7.7.7.7.7.7.7.7.7.7.7.7.7.7.7.7.7.7.7.7.7.7.7.7.7.7.7.7.7.7.",
"7.7.7.7.7.7.7.7.7.7.7.7.7.7.7.7.7.7.7.7.7.7.7.7.7.7.7.7.7.7.7.7.7.7.7.7.7.7.7.7.7.7.7.7.7.7.7.7.7.7.7.7.7.7.7.7.7.7.7.7.7.7.7.7.7.7.7.7.7.7.7.7.7.7.7.7.7.7.7.7.7.7.7.7.7.7.7.7.7.7.7.7.7.7.7.7.7.7.7.7.7.7.7.7.",
"7.7.7.7.7.7.7.7.7.7.7.7.7.7.7.7.7.7.7.7.7.7.7.7.7.7.w.9.7.7.7.7.7.7.7.7.7.7.7.7.7.7.7.7.7.7.7.7.7.7.7.7.7.7.7.7.7.7.7.7.7.7.7.7.7.7.7.7.7.7.7.7.7.7.7.7.7.7.7.7.7.7.7.7.7.7.7.7.7.7.7.7.7.7.7.7.7.7.7.7.7.7.7.7.",
"7.7.7.7.7.7.7.7.7.7.7.7.7.7.7.7.7.7.7.7.7.7.7.7.7.7.7.9.7.7.7.7.7.7.7.7.7.7.7.7.7.7.7.7.7.7.7.7.7.7.7.7.7.7.7.7.7.7.7.7.7.7.7.7.7.7.7.7.7.7.7.7.7.7.7.7.7.7.7.7.7.7.7.7.7.7.7.7.7.7.7.7.7.7.7.7.7.7.7.7.7.7.7.7.",
"7.7.7.7.7.7.7.7.7.7.7.7.7.7.7.7.7.7.7.7.7.9.5.{  .| ..P P =.K .. . .} 6.7.7.7.9.7.7.7.7.7.7.7.7.7.7.7.7.7.7.7.7.7.7.7.7.7.7.7.7.7.7.7.7.7.7.7.7.7.7.7.7.7.7.7.7.7.7.7.7.7.7.7.7.7.7.7.7.7.7.7.7.7.7.7.7.7.7.7.7.",
"7.7.7.7.7.7.7.7.7.7.7.7.7.7.7.7.7.7.7.4./ v C G J K P P P P P P K G G C ~ } 6.9.7.7.7.7.7.7.7.7.7.7.7.7.7.7.7.7.7.7.7.7.7.7.7.7.7.7.7.7.7.7.7.7.7.7.7.7.7.7.7.7.7.7.7.7.7.7.7.7.7.7.7.7.7.7.7.7.7.7.7.7.7.7.7.7.",
"7.7.7.7.7.7.7.7.7.7.7.7.7.7.7.7.7.[ x h V V G G K K K K K K K K K G G G C h l / 6.7.7.7.7.7.7.7.7.7.7.7.7.7.7.7.7.7.7.7.7.7.7.7.7.7.7.7.7.7.7.7.7.7.7.7.7.7.7.7.7.7.7.7.7.7.7.7.7.7.7.7.7.7.7.7.7.7.7.7.7.7.7.7.",
"7.7.7.7.7.7.7.7.7.7.7.7.7.7.7.5.y s h C C G C V g g a a 7 6 a a g k C C C C c h < R 7.7.7.7.7.7.7.7.7.7.7.7.7.7.7.7.7.7.7.7.7.7.7.7.7.7.7.7.7.7.7.7.7.7.7.7.7.7.7.7.7.7.7.7.7.7.7.7.7.7.7.7.7.7.7.7.7.7.7.7.7.7.",
"7.7.7.7.7.7.7.7.7.7.7.7.7.7.W < s h c C h a , q R [ 4.6.6.6.5.+.] U e , g h C h c s ; 4.7.7.7.7.7.7.7.7.7.7.7.7.7.7.7.7.7.7.7.7.7.7.7.7.7.7.7.7.7.7.7.7.7.7.7.7.7.7.7.7.7.7.7.7.7.7.7.7.7.7.7.7.7.7.7.7.7.7.7.7.",
"7.7.7.7.7.7.7.7.7.7.7.7.7.w < h s h s & e ] 7.7.7.7.7.7.7.7.7.7.9.7.9.5./ : , h h h h < ] 7.7.7.7.7.7.7.7.7.7.7.7.7.7.7.7.7.7.7.7.7.7.7.7.7.7.7.7.7.7.7.7.7.7.7.7.7.7.7.7.7.7.7.7.7.7.7.7.7.7.7.7.7.7.7.7.7.7.7.",
"7.7.7.7.7.7.7.7.7.7.7.6.0 7 h l h , 9 +.7.7.7.7.7.7.7.7.7.7.7.7.7.7.7.7.7.7.] : , h s s < Y 7.7.7.7.7.7.7.7.7.7.7.7.7.7.7.7.7.7.7.7.7.7.7.7.7.7.7.7.7.7.7.7.7.7.7.7.7.7.7.7.7.7.7.7.7.7.7.7.7.7.7.7.7.7.7.7.7.7.",
"7.7.7.7.7.7.7.7.7.7.4.; s l l s : ] 7.7.7.7.7.7.7.7.7.7.7.7.7.7.7.7.7.7.7.7.7.6.y # s s s < I 7.7.7.7.7.7.7.7.7.7.7.7.7.7.7.7.7.7.7.7.7.7.7.7.7.7.7.7.7.7.7.7.7.7.7.7.7.7.7.7.7.7.7.7.7.7.7.7.7.7.7.7.7.7.7.7.7.",
"7.7.7.7.7.7.7.7.7.6.9 s s h , 5 5.7.6.7.7.7.7.7.7.7.7.7.7.7.7.7.7.7.7.7.7.7.7.7.7.[ # s s h < Y 7.7.7.7.7.7.7.7.7.7.7.7.7.7.7.7.7.7.7.7.7.7.7.7.7.7.7.7.7.7.7.7.7.7.7.7.7.7.7.7.7.7.7.7.7.7.7.7.7.7.7.7.7.7.7.7.",
"7.7.7.7.7.7.7.7.7.I s h h , r 9.7.7.7.7.7.7.7.7.7.7.7.7.7.7.7.7.7.7.7.7.7.7.7.7.7.7.4.: a s h : Q 7.7.7.7.7.7.7.7.7.7.7.7.7.7.7.7.7.7.7.7.7.7.7.7.7.7.7.7.7.7.7.7.7.7.7.7.7.7.7.7.7.7.7.7.7.7.7.7.7.7.7.7.7.7.7.",
"7.7.7.7.7.7.7.7.W < c h , e 7.7.7.7.7.7.7.7.7.7.7.7.7.7.7.7.7.7.7.7.7.7.7.7.7.7.7.7.7.5.: s s h > 4.7.7.7.7.7.7.7.7.7.7.7.7.7.7.7.7.7.7.7.7.7.7.7.7.7.7.7.7.7.7.7.7.7.7.7.7.7.7.7.7.7.7.7.7.7.7.7.7.7.7.7.7.7.7.",
"7.7.7.7.7.7.7.4.< C c s 5 7.7.7.7.7.7.7.7.7.7.7.7.7.7.7.7.7.7.7.7.7.7.7.7.7.7.7.7.7.7.7.+.# h c c ; 7.7.7.7.7.7.7.7.7.7.7.7.7.7.7.7.7.7.7.7.7.7.7.7.7.7.7.7.7.7.7.7.7.7.7.7.7.7.7.7.7.7.7.7.7.7.7.7.7.7.7.7.7.7.",
"7.7.7.7.7.7.7.r C C k : 5.7.7.7.7.7.7.7.7.7.7.7.7.7.7.7.7.7.7.7.7.7.7.7.7.7.7.7.7.7.7.7.7.E , c C h ] 7.7.7.7.7.7.7.7.7.7.7.7.7.7.7.7.7.7.7.7.7.7.7.7.7.7.7.7.7.7.7.7.7.7.7.7.7.7.7.7.7.7.7.7.7.7.7.7.7.7.7.7.7.",
"7.7.7.7.7.7.[ c G G 1 ) 7.7.7.7.7.7.7.7.7.7.7.7.7.7.7.7.7.7.7.7.7.7.7.7.7.7.7.7.7.7.7.7.7.7.e g S H x 7.7.7.7.7.7.7.7.7.7.7.7.7.7.7.7.7.7.7.7.7.7.7.7.7.7.7.7.7.7.7.7.7.7.7.7.7.7.7.7.7.7.7.7.7.7.7.7.7.7.7.7.7.",
"7.7.7.7.7.7.y P K V 8 7.7.7.7.7.7.7.7.7.7.7.7.7.7.7.7.7.7.7.7.7.7.7.7.7.7.7.7.7.7.7.7.7.7.7.5., H P F Q 7.7.7.7.7.7.6.5.5.6.6.6.6.7.7.7.7.7.7.7.7.7.7.7.7.7.7.7.7.7.7.7.7.7.7.7.7.7.7.7.7.7.9.7.7.7.7.7.7.7.7.7.",
"7.7.7.7.7.+.( ;.=.a +.7.7.7.7.7.7.7.7.7.7.7.7.7.7.7.7.7.7.7.7.7.7.7.7.7.7.7.7.7.7.7.7.7.9.6.7.y k -.;.^ 7.7.7.7.7.6.# k | *.*.,.X.6.7.7.7.7.4.2 Z L *.*.,.t 7.5 $ 2 6 6 a f f f n B ' #.6.7.7.7.7.7.7.7.7.7.7.7.",
"7.7.7.7.7.R ,.2.F 5 7.7.7.7.7.7.7.7.7.7.7.7.7.7.7.7.7.7.7.7.7.7.7.7.7.7.7.7.7.7.7.7.7.7.7.7.7.5.6 =.2.` [ 7.7.7.7.6.* =.-.-.-.;.B 6.7.7.7.7.4.2 -.-.-.-.-.6 7.5 d j j j j j j j j j j b M ` #.7.7.7.7.7.7.7.7.7.",
"7.7.7.7.7.^ 3.2.f ] 7.7.7.7.7.7.7.7.7.7.7.7.7.7.7.7.7.7.7.7.7.7.7.7.7.7.7.6.7.7.7.7.7.7.7.7.7.7.t F 2.,.R 7.7.7.7.7.: ..=.=.=.=.B 6.7.7.7.7.4.2 P L P P P n 7.5 p d d d d d d d d j d p p j k m 4.7.7.7.7.7.7.7.",
"7.7.7.7.[ ' 3.;.6 7.7.7.7.7.9.7.7.7.7.7.7.7.7.7.7.7.7.7.7.7.7.7.7.7.7.7.7.7.7.7.7.7.7.7.7.7.7.7.] f 1.2.E 7.7.7.7.6.& P F P P P n 6.7.7.7.7.6.2 L L P L P B 9.5 i p p p p p p p p p p p p p p d t 5.7.7.7.7.7.7.",
"7.7.7.7.W %.2.F t 7.7.5.$.6.5.5.$.8.8.8.8.8.7.6.8.9.9.9.7.7.7.9.8.8.7.7.6.8.8.8.8.5.5.8.5.5.6.7.6.6 -.;.( 4.7.7.7.6.6 L F F F F n 7.7.7.7.7.6.j L L L L L B 7.5 i p p i p 2 p p p p p p p i p p p n 7.7.7.7.7.7.",
"7.7.7.7.T =.-.k E 7.7.r 6 7 7 s a s s s a S 7.' c A S 8.7.7.7.&.c l 5.q.v a a 7 s 7 7 7 s < R 7.7.e J -.B [ 7.7.7.7.6 D D D D D j 6.7.7.7.7.6.b L L L D L *.9.8 2 i i i i p @ @ O $ % i i i i i 2 p o.7.7.7.7.7.",
"7.7.7.7.y J K a O.7.7.0 7 7 6 7 < < < < : N 7.) s h c | 7.7.7. .7 7 5.q.z : < < , < < < 7 < R 7.7.u V K M Q 7.7.7.6.7 D D D D D 6 6.7.7.7.7.6.D Z Z Z Z D *.7.t + i 2 2 + %.6.5.5.{ z & 1 % % % 2 + M 7.7.7.7.7.",
"7.7.7.7.e G A 6 5.7.7.{ ' o.o.e < z &. . .&.7.' s s s C <.7.7. .7 7 5.9. . . . .5 : x &.' ` } 7.7./ g S c R 7.7.7.7.8 b b Z Z Z % ) @.@.O.#.#.F b Z Z Z Z *.q.t % + + % O %.q.7.7.7.7.] 2 O % + % O a 8.7.7.7.7.",
"7.7.7.7.< k c 6 6.7.7.7.7.7.6.> : m q.9.7.7.7.) 7 7 s h | 7.7. .7 7 5.7.9.7.7.<.7 : U 7.7.7.7.7.7.) 6 c h U 7.7.7.7.t b b b b b p p j j b b Z D b b b b Z *.7.y + O O O o F 7.7.7.7.7.7.' % O O O O % :.7.7.7.7.",
"7.7.7.7.> h s 6 7.7.7.7.7.7.6.> : n 9.9.7.7.9.) 7 s c 7 h >.7.| 7 < 5.7.7.7.7.<.7 : U 7.7.7.7.7.7.O., h s w 7.6.7.6.z b b j b b b b b b b j k j j b b j j %.7.u O o X O . F q.7.7.7.7.7.5.a . o o X O &.7.7.7.7.",
"7.7.7.7.= s s 7 7.7.7.7.7.7.6.> : v 9.7.7.7.9./ 7 s ` s 7 N 9.` < 7 5.9.7.7.7.,.7 : U 7.7.7.7.7.7.O., s 7 0 7.7.7.7.z j j j j j j j j j j j j j j j j j j %.7.u O . . .   M 7.7.7.7.7.7.6.f   . . . . ` 7.7.7.7.",
"7.7.7.7.= s 7 6 7.7.7.7.7.7.6.- : n q.9.7.7.7./ 7 7 :.) < s >.' 7 < 5.7.7.7.7.,.7 : w 7.7.7.7.7.7.{ , s 7 w 7.7.7.7.m p p j j p d d d d d j d d j d p j j P 7.u X     .   M 9.7.7.7.7.7.6.6       .   o.7.7.7.7.",
"7.7.7.7.- 7 7 , 5.7.7.7.7.7.7.- : z q.9.7.7.7./ 7 7 :.9.l : v S : < #.7.7.7.7.,.7 : U 7.7.7.7.7.7.) 6 7 < I 7.7.7.q.N p p p p p p p p p p p p p p p p p p P 7.u .         j 8.7.7.7.7.7.#.&         . o.7.7.7.7.",
"7.7.7.7.; 7 7 & +.7.7.7.7.7.6.> , z q.7.7.7.7.^ < s { 7.@.a < c < < 5.7.7.7.7.>.7 : w 7.7.7.7.6.7.^ 6 7 : Y 7.7.7.7.N i p p p p p f b M B F F f p p i p p L 7.^ .         p 6.7.7.7.7.7.m .         $ <.7.7.7.7.",
"7.7.7.7.0 : 7 , ) 7.7.7.7.7.6.> , z 9.7.7.7.7./ < 7 { 7.7._ < < < : 4.7.7.7.7.:.7 : w 7.7.7.7.7.7.t , 7 * ! 7.7.7.7.N i i i i i c 7.7.7.7.7.7.a i i i i i F 7.( X         i 6.7.7.7.6.T $           a 6.7.7.7.7.",
"7.7.7.7.Y : 7 < y 7.7.7.7.7.6.- : z 9.7.7.7.7.^ < < { 9.9.8.s : < > 5.7.7.7.7.:.7 : w 7.7.7.7.7.6.6 5 6 * 4.7.7.7.7.m 2 i + 2 + b 7.7.7.7.7.7.k + 2 % 2 2 M 7.( X         o t u y 8 # .             m 7.7.7.7.7.",
"7.7.7.7.4.* 7 < 7 6.7.7.7.7.6.> < z 8.7.7.7.7.^ < 7 { 9.7.7. .< < : +.7.7.7.7.&.7 : w 7.7.7.7.7.O.6 7 6 3 7.7.7.7.7.B + + + + + M 6.7.7.7.7.7.k + + + + + M 7.( X                                 & #.7.7.7.7.7.",
"7.7.7.7.7.; < 7 , { 7.7.7.7.6.{ { { 9.7.7.7.7.#.{ { 5.7.7.7.9.{ ] ] 6.7.7.7.7.$.{ ' +.7.7.7.7.7.u 6 5 5 I 7.9.7.7.q.B + O O O O M 7.7.7.7.7.7.M O O O O O f 7.' X                               $ ^ 7.7.7.7.7.7.",
"7.7.7.7.7.I : 7 , z 7.7.7.7.7.7.7.7.7.7.7.7.7.7.7.9.9.7.7.7.7.7.7.7.7.7.7.7.7.7.7.7.7.7.7.7.7.6.6 6 5 * ! 7.7.7.7.7.B X o o o o M 7.7.7.7.7.7.B o o o o o a 7.o.O                             2 ^ 7.7.7.7.7.7.7.",
"7.7.7.7.7.4.* 7 7 , #.7.7.7.7.7.7.7.7.7.7.7.7.7.7.7.7.7.7.7.7.7.7.7.7.7.7.7.7.7.7.7.7.7.7.7.7.^ , 5 < 3 7.7.7.7.7.7.B o . X . . D 7.7.7.7.7.9.` o . . . . 2 7.o.O                         @ f ] 7.7.7.7.7.7.7.7.",
"7.7.7.7.7.7.4 < 7 6 t 7.7.7.7.7.7.7.7.7.7.7.7.7.7.7.7.7.7.7.7.7.7.7.7.7.7.7.7.7.7.7.7.7.7.7.5.6 6 7 = W 7.7.7.7.7.7.B           M 6.7.7.7.7.7.o..         # 7.o.O   . .   . . . . X % 2 n @.7.7.7.7.7.7.7.7.7.7.",
"7.7.7.7.7.7.! * 7 7 & ) 7.7.7.7.7.7.7.7.7.7.7.7.7.7.7.7.7.7.7.7.7.7.7.7.7.7.7.7.7.7.7.7.7.7.z 6 7 6 ; 7.7.7.7.7.7.7.w - - 3 3 3 y 7.7.7.7.7.7.w - - - 3 - 9 7.( : 6 5 7 8 8 t t m ) O.6.7.7.7.7.7.7.7.7.7.7.7.7.",
"7.7.7.7.7.7.7.0 < s s 6 5.7.7.7.7.7.7.7.7.7.7.7.7.7.7.7.7.7.7.7.7.7.7.7.7.7.7.7.7.7.7.7.7.) , 7 7 = Q 7.7.7.7.7.7.7.7.7.7.7.7.7.7.7.7.7.7.7.7.7.7.7.7.7.7.7.7.7.7.7.7.7.7.7.7.7.7.7.7.7.7.7.7.7.7.7.7.7.7.7.7.7.",
"7.7.7.7.7.7.7.4.- s s h 8 7.7.7.7.7.7.7.7.7.7.7.7.7.7.7.7.7.7.7.7.7.7.7.7.7.7.7.7.7.7.7.#.6 s s 7 4 7.7.7.7.7.7.7.7.7.7.7.7.7.7.7.7.7.7.7.7.7.7.7.7.7.7.7.6.7.7.7.7.6.7.7.7.7.7.7.7.7.7.7.7.7.7.7.7.7.7.7.7.7.7.",
"7.7.7.7.7.7.7.7.Q : h c h z 7.7.7.7.7.7.7.7.7.7.7.7.7.7.7.7.7.7.7.7.7.7.7.7.7.7.7.7.7.5.a c l h > 6.7.7.7.7.7.7.7.7.7.7.7.7.7.7.7.7.7.7.7.7.7.7.7.7.7.7.7.7.7.7.7.7.7.7.7.7.7.7.7.7.7.7.7.7.7.7.7.7.7.7.7.7.7.7.",
"7.7.7.7.7.7.7.7.7.I s A H V t 7.7.7.7.7.7.7.7.7.7.7.7.7.7.7.7.7.7.7.7.7.7.7.7.7.7.7.#.s A C C < ! 7.7.7.7.7.7.7.7.7.7.7.7.7.7.7.7.7.7.7.7.7.7.7.7.7.7.7.7.7.7.7.7.7.7.7.7.7.7.7.7.7.7.7.7.7.7.7.7.7.7.7.7.7.7.7.",
"7.7.7.7.7.7.7.7.7.7.w S K P A 8 5.7.7.7.7.7.7.7.7.7.7.7.7.7.7.7.7.7.7.7.7.7.7.7.7.) f K ..K f W 7.7.7.7.7.7.7.7.7.7.7.7.7.7.7.7.7.7.7.7.7.7.7.7.7.7.7.7.7.7.7.7.7.7.7.7.7.7.7.7.7.7.7.7.7.7.7.7.7.7.7.7.7.7.7.7.",
"7.7.7.7.7.7.7.7.7.7.7.w %.;.;.=.f ) 7.7.7.7.7.7.7.7.7.7.7.7.7.7.7.7.7.7.7.7.7.7.m k -.;.;.M R 7.7.7.7.7.7.7.7.7.7.7.7.7.7.7.7.7.7.7.7.7.7.7.7.7.7.7.7.7.7.7.7.7.7.7.7.7.7.7.7.7.7.7.7.7.7.7.7.7.7.7.7.7.7.7.7.7.",
"7.7.7.7.7.7.7.7.7.7.7.7.T &.3.1.;.C z #.7.7.7.7.7.7.7.7.7.7.7.7.7.7.7.7.7.7.) f S ;.1.3.( W 7.7.7.7.7.7.7.7.7.7.7.7.7.7.7.7.7.7.7.7.7.7.7.7.7.7.7.7.7.7.7.7.7.7.7.7.7.7.7.7.7.7.7.7.7.7.7.7.7.7.7.7.7.7.7.7.7.7.",
"7.7.7.7.7.7.7.7.7.7.7.7.7.R o.3.;.-.G h z { 7.7.7.7.7.7.7.7.7.7.7.7.7.5.' k k K -.2.2.^ ] 7.7.7.7.7.7.7.7.7.7.7.7.7.7.7.7.7.7.7.7.7.7.7.7.7.7.7.7.7.7.7.7.7.7.7.7.7.7.7.7.7.7.7.7.7.7.7.7.7.7.7.7.7.7.7.7.7.7.7.",
"7.7.7.7.7.7.7.7.7.7.7.7.7.7.] ^ *.-.K G C h c v ' #.8.8.6.6.8.6.@.' M g h c S K -.o.U 4.7.7.7.7.7.7.7.7.7.7.7.7.7.7.7.7.7.7.7.7.7.7.7.7.7.7.7.7.7.7.7.7.7.7.7.7.7.7.7.7.7.7.7.7.7.7.7.7.7.7.7.7.7.7.7.7.7.7.7.7.",
"7.7.7.7.7.7.7.7.7.7.7.7.7.7.7.5.R v G G C c c h h h k V C c k h h s s s c c S S y W 7.7.7.7.7.7.7.7.7.7.7.7.7.7.7.7.7.7.7.7.7.7.7.7.7.7.7.7.7.7.7.7.7.7.7.7.7.7.7.7.7.7.7.7.7.7.7.7.7.7.7.7.7.7.7.7.7.7.7.7.7.7.",
"7.7.7.7.7.7.7.7.7.7.7.7.7.7.7.7.7.4.U l h c c c c c h l h s s s s s s s s s e R 6.7.7.7.7.7.7.7.7.7.7.7.7.7.7.7.7.7.7.7.7.7.7.7.7.7.7.7.7.7.7.7.7.7.7.7.7.7.7.7.7.7.7.7.7.7.7.7.7.7.7.7.7.7.7.7.7.7.7.7.7.7.7.7.",
"7.7.7.7.7.7.7.7.7.7.7.7.7.7.7.7.7.7.7.4.W r < 7 h c c c c h s s s 7 < > w Q 7.7.7.7.7.7.7.7.7.7.7.7.7.7.7.7.7.7.7.7.7.7.7.7.7.7.7.7.7.7.7.7.7.7.7.7.7.7.7.7.7.7.7.7.7.7.7.7.7.7.7.7.7.7.7.7.7.7.7.7.7.7.7.7.7.7.",
"7.7.7.7.7.7.7.7.7.7.7.7.7.7.7.7.7.7.7.7.7.7.4.[ R U r e e 9 9 r w Y [ 6.7.7.7.7.7.7.7.7.7.7.7.7.7.7.7.7.7.7.7.7.7.7.7.7.7.7.7.7.7.7.7.7.7.7.7.7.7.7.7.7.7.7.7.7.7.7.7.7.7.7.7.7.7.7.7.7.7.7.7.7.7.7.7.7.7.7.7.7.",
"7.7.7.7.7.7.7.7.7.7.7.7.7.7.7.7.7.7.7.7.7.7.7.7.7.7.7.7.7.7.7.7.7.7.7.7.7.7.7.7.7.7.7.7.7.7.7.7.7.7.7.7.7.7.7.7.7.7.7.7.7.7.7.7.7.7.7.7.7.7.7.7.7.7.7.7.7.7.7.7.7.7.7.7.7.7.7.7.7.7.7.7.7.7.7.7.7.7.7.7.7.7.7.7.",
"7.7.7.7.7.7.7.7.7.7.7.7.7.7.7.6.6.9.9.9.9.7.9.9.6.7.9.9.9.7.7.7.7.7.9.9.7.7.7.7.9.9.7.7.7.7.7.7.7.7.7.7.7.7.7.7.7.7.7.7.7.7.7.7.7.7.7.7.7.7.7.7.7.7.7.7.7.7.7.7.7.7.7.7.7.7.7.7.7.7.7.7.7.7.7.7.7.7.7.7.7.7.7.7.",
"7.7.7.7.7.7.7.7.7.7.7.7.7.7.5.h c c c c _ 7._ H &.7.&... .9.7.7.7.<.c z v 9.7.' l c ] 7.7.7.7.7.7.7.7.7.7.7.7.7.7.7.7.7.7.7.7.7.7.7.7.7.7.7.7.7.7.7.7.7.7.7.7.7.7.7.7.7.7.7.7.7.7.7.7.7.7.7.7.7.7.7.7.7.7.7.7.7.",
"7.7.7.7.7.7.7.7.7.7.7.7.7.7.4.7 l ^ W / { 7.~ S  .7. .F _ 7.7.7.7.#.7 < a #.9.z 7 7 / 7.7.7.7.7.7.7.7.7.7.7.7.7.7.7.7.7.7.7.7.7.7.7.7.7.7.7.7.7.7.7.7.7.7.7.7.7.7.7.7.7.7.7.7.7.7.7.7.7.7.7.7.7.7.7.7.7.7.7.7.7.",
"7.7.7.7.7.7.7.7.7.7.7.7.7.7.4.7 h >.8.<.9.7.v C  .7.' S _ 7.7.7.7.#.7 e < ' 8.7 x s / 7.7.7.7.7.7.7.7.7.7.7.7.7.7.7.7.7.7.7.7.7.7.7.7.7.7.7.7.7.7.7.7.7.7.7.7.7.7.7.7.7.7.7.7.7.7.7.7.7.7.7.7.7.7.7.7.7.7.7.7.7.",
"7.7.7.7.7.7.7.7.7.7.7.7.7.7.4.< 7 < < 7 #.7.x c  .7.' C _ 7.7.7.7.#.< y < x { > / 7 / 7.7.7.7.7.7.7.7.7.7.7.7.7.7.7.7.7.7.7.7.7.7.7.7.7.7.7.7.7.7.7.7.7.7.7.7.7.7.7.7.7.7.7.7.7.7.7.7.7.7.7.7.7.7.7.7.7.7.7.7.7.",
"7.7.7.7.7.7.7.7.7.7.7.7.7.7.+.: 7 } 5.4.7.7.x c ' 7.) c _ 9.7.7.7.} < T ~ e l r @.< E 7.7.7.7.7.7.7.7.7.7.7.7.7.7.7.7.7.7.7.7.7.7.7.7.7.7.7.7.7.7.7.7.7.7.7.7.7.7.7.7.7.7.7.7.7.7.7.7.7.7.7.7.7.7.7.7.7.7.7.7.7.",
"7.7.7.7.7.7.7.7.7.7.7.7.7.7.4.: 7 8.7.7.7.7.y h _ 7./ c c _ _ N } [ < ^ } < : Q @.< R 7.7.7.7.7.7.7.7.7.7.7.7.7.7.7.7.7.7.7.7.7.7.7.7.7.7.7.7.7.7.7.7.7.7.7.7.7.7.7.7.7.7.7.7.7.7.7.7.7.7.7.7.7.7.7.7.7.7.7.7.7.",
"7.7.7.7.7.7.7.7.7.7.7.7.7.7.4.* : #.7.7.7.7.r : ^ 7.~ < < > : = R [ = U 7.> * 6.{ * R 7.7.7.7.7.7.7.7.7.7.7.7.7.7.7.7.7.7.7.7.7.7.7.7.7.7.7.7.7.7.7.7.7.7.7.7.7.7.7.7.7.7.7.7.7.7.7.7.7.7.7.7.7.7.7.7.7.7.7.7.7.",
"7.7.7.7.7.7.7.7.7.7.7.7.7.7.7.7.7.7.7.7.7.7.7.7.7.7.7.7.7.7.7.7.7.7.7.7.7.7.7.7.7.7.7.7.7.7.7.7.7.7.7.7.7.7.7.7.7.7.7.7.7.7.7.7.7.7.7.7.7.7.7.7.7.7.7.7.7.7.7.7.7.7.7.7.7.7.7.7.7.7.7.7.7.7.7.7.7.7.7.7.7.7.7.7.",
"7.7.7.7.7.7.7.7.7.7.7.7.7.7.7.7.7.7.7.7.7.7.7.7.7.7.7.7.7.7.7.7.7.7.7.7.7.7.7.7.7.7.7.7.7.7.7.7.7.7.7.7.7.7.7.7.7.7.7.7.7.7.7.7.7.7.7.7.7.7.7.7.7.7.7.7.7.7.7.7.7.7.7.7.7.7.7.7.7.7.7.7.7.7.7.7.7.7.7.7.7.7.7.7.",
"7.7.7.7.7.7.7.7.7.7.7.7.7.7.7.7.7.7.7.7.7.7.7.7.7.7.7.7.7.7.7.7.7.7.7.7.7.7.7.7.7.7.7.7.7.7.7.7.7.7.7.7.7.7.7.7.7.7.7.7.7.7.7.7.7.7.7.7.7.7.7.7.7.7.7.7.7.7.7.7.7.7.7.7.7.7.7.7.7.7.7.7.7.7.7.7.7.7.7.7.7.7.7.7.",
"7.7.7.7.7.7.7.7.7.7.7.7.7.7.7.7.7.7.7.7.7.7.7.7.7.7.7.7.7.7.7.7.7.7.7.7.7.7.7.7.7.7.7.7.7.7.7.7.7.7.7.7.7.7.7.7.7.7.7.7.7.7.7.7.7.7.7.7.7.7.7.7.7.7.7.7.7.7.7.7.7.7.7.7.7.7.7.7.7.7.7.7.7.7.7.7.7.7.7.7.7.7.7.7.",
"7.7.7.7.7.7.7.7.7.7.7.7.7.7.7.7.7.7.7.7.7.7.7.7.7.7.7.7.7.7.7.7.7.7.7.7.7.7.7.7.7.7.7.7.7.7.7.7.7.7.7.7.7.7.7.7.7.7.7.7.7.7.7.7.7.7.7.7.7.7.7.7.7.7.7.7.7.7.7.7.7.7.7.7.7.7.7.7.7.7.7.7.7.7.7.7.7.7.7.7.7.7.7.7.",
"7.7.7.7.7.7.7.7.7.7.7.7.7.7.7.7.7.7.7.7.7.7.7.7.7.7.7.7.7.7.7.7.7.7.7.7.7.7.7.7.7.7.7.7.7.7.7.7.7.7.7.7.7.7.7.7.7.7.7.7.7.7.7.7.7.7.7.7.7.7.7.7.7.7.7.7.7.7.7.7.7.7.7.7.7.7.7.7.7.7.7.7.7.7.7.7.7.7.7.7.7.7.7.7.",
"7.7.7.7.7.7.7.7.7.7.7.7.7.7.7.7.7.7.7.7.7.7.7.7.7.7.7.7.7.7.7.7.7.7.7.7.7.7.7.7.7.7.7.7.7.7.7.7.7.7.7.7.7.7.7.7.7.7.7.7.7.7.7.7.7.7.7.7.7.7.7.7.7.7.7.7.7.7.7.7.7.7.7.7.7.7.7.7.7.7.7.7.7.7.7.7.7.7.7.7.7.7.7.7.",
"7.7.7.7.7.7.7.7.7.7.7.7.7.7.7.7.7.7.7.7.7.7.7.7.7.7.7.7.7.7.7.7.7.7.7.7.7.7.7.7.7.7.7.7.7.7.7.7.7.7.7.7.7.7.7.7.7.7.7.7.7.7.7.7.7.7.7.7.7.7.7.7.7.7.7.7.7.7.7.7.7.7.7.7.7.7.7.7.7.7.7.7.7.7.7.7.7.7.7.7.7.7.7.7.",
"7.7.7.7.7.7.7.7.7.7.7.7.7.7.7.7.7.7.7.7.7.7.7.7.7.7.7.7.7.7.7.7.7.7.7.7.7.7.7.7.7.7.7.7.7.7.7.7.7.7.7.7.7.7.7.7.7.7.7.7.7.7.7.7.7.7.7.7.7.7.7.7.7.7.7.7.7.7.7.7.7.7.7.7.7.7.7.7.7.7.7.7.7.7.7.7.7.7.7.7.7.7.7.7."
};
