/* XPM */
static char *1-2-3.tv[] = {
/* columns rows colors chars-per-pixel */
"64 48 16 1",
"  c #070707",
". c #1B6C28",
"X c #546356",
"o c #BA1009",
"O c #CE5A54",
"+ c #FDBF00",
"@ c #FDC720",
"# c #F4D061",
"$ c #DB827E",
"% c #DAABA9",
"& c #F0E0AD",
"* c gainsboro",
"= c #CBCBC6",
"- c #FEFBF8",
"; c #F2DBCD",
": c #A9B3A9",
/* pixels */
"****************************************************************",
"****************************************************************",
"****************************************************************",
"****************************************************************",
"****************************************************************",
"****************************************************************",
"****************************************************************",
"****************************************************************",
"****************************************************************",
"****************************************************************",
"****************************************************************",
"****************************************************************",
"****************************************************************",
"****************************************************************",
"****************************************************************",
"****************************************************************",
"****************************************************************",
"****************************************************************",
"*****::=:==::=:=****=&=&&&&&=&&=***=%%%%%%%%%%%*****************",
"****.............**&++++++++++++%**Ooooooooooooo=***************",
"***=....::**.....=*#+@;-------&+#**oo%;---*-;;Oo%***************",
"***=....::--.....=*#+&-&#####--@#**oO-;O$$$O;-%o%*:X=***********",
"***=......--.....=*#+#&#++++@--+#**ooOOooooo$-%o%*  =*****-*****",
"***=......--.....:O#++++++#--;#+#o%oooooO;;;-%Oo:    X  *=  ****",
"***=......--.....:$#++++#--&#+++#$%oooooO$$$$-%o%X  X:  :: X****",
"***=......--.....=*#++&--&@++@&@#*=oo%Ooooooo--o%*  =*X XX :****",
"***=......--.....=*#+---;&&&&;-&#**oO-;%$%%%%--o%=  =*:    *****",
"***=......==.....=*#@&;&&;&&&&&@#=*oo%;;;;;;;%$o%*  X=*   X*****",
"****.............**=++++++++++++%**Ooooooooooooo**X  :*X  :*****",
"*****===========*****==&&;&;&*&*;***==;==%=%====***::=*===******",
"****************************************************************",
"****************************************************************",
"****************************************************************",
"****************************************************************",
"****************************************************************",
"****************************************************************",
"****************************************************************",
"****************************************************************",
"****************************************************************",
"****************************************************************",
"****************************************************************",
"****************************************************************",
"****************************************************************",
"****************************************************************",
"****************************************************************",
"****************************************************************",
"****************************************************************",
"****************************************************************"
};
