/* XPM */
static char *13EME_RUE[] = {
/* columns rows colors chars-per-pixel */
"64 48 16 1",
"  c #020202",
". c #0B0B0B",
"X c gray9",
"o c gray16",
"O c #373737",
"+ c #505050",
"@ c #676767",
"# c #777777",
"$ c gray53",
"% c #979797",
"& c gray66",
"* c #B7B7B7",
"= c gray78",
"- c LightGray",
"; c #DADADA",
": c gainsboro",
/* pixels */
"::::::::::::::::::::::::::::;;;;;;::::::::::::::::::::::::::::::",
"::::::::::::::::::::::::::::;;%+=;;:::::::::::::::::::::::::::::",
":::::::::::::::::::::::::::;;&X O=;;::::::::::::::::::::::::::::",
"::::::::::::::::::::::::::;:&. . O-:;:::::::::::::::::::::::::::",
":::::::::::::::::::::::::;:&X  . @;:;:::::::::::::::::::::::::::",
":::::::::::::::::::::::;;:&.    @:;;:;;:::::::::::::::::::::::::",
":::::::::::::::::::::::;:&X    @;;;;::;;::::::::::::::::::::::::",
"::::::::::::::::::::::;:&X    @;-%@++$-:;:::::::::::::::::::::::",
":::::::::::::::::::::;;&X    @:*O     o&:;::::::::::::::::::::::",
"::::::::::::::::::::;:&X    @:*o  ...  .*:;:::::::::::::::::::::",
":::::::::::::::::::::&X    @:;O         +:::::::::::::::::::::::",
"::::::::::::::::::;:&X .  @;;;%.  o#O   .*:;::::::::::::::::::::",
"::::::::::::::::;;;&X    @;;;;:%.o=;=X   %;;;;::::::::::::::::::",
"::::::::::::::::;;&X    @;;;::;:%*;;;X   %;;:;;;::::::::::::::::",
":::::::::::::::;:*X    @:;;;:;;;:;;;+   .*:;&=;;::::::::::::::::",
"::::::::::::::;:&X .  @;;;;;;;=-:;;+    +;:% O-;;:::::::::::::::",
":::::::::::::;:*X .  +::;::::=O+-=+ .. X*;$ $$%;:;::::::::::::::",
"::::::::::::::*X .. +:::;:::=O  oo    .&:$o@#*.+:;;:::::::::::::",
":::::::::::::&X    +;*O*:;;:# .   .  .%::%X=%XX&==:;::::::::::::",
":::::::::::::+ .  +:=o o*:;:-O      X%:$O=&#o+@%.+:;::::::::::::",
":::::::::::::*o  +;;O . X*:;:$   oo+*:%. $:%#O+oX#@=::::::::::::",
"::::::::::::::=o+;;#    X*::;O . &:;:$..$:;;&o+o$+X+::::::::::::",
":::::::::::::;:=-:;+   X*:;:+    &::;o X=:#@:=O$OX*&::::::::::::",
"::::::::::::::;:;:=o . $;;;+  . o-:%&=X O@ X=;*o+$&;::::::::::::",
"::::::::::::::::::;O . +;=+    .&;% X**X  X&:;;#O;:;::::::::::::",
":::::::::::::::::;;@ .  Oo  . .%::=O .*=X o=:$+=*-::::::::::::::",
":::::::::::::::::;;*. .      .%;%%;=O X**X O$. %;;::::::::::::::",
":::::::::::::::::;;;$  .... .%:&. %;=O .*=X . $;;;::::::::::::::",
":::::::::::::::::::;:%X    o*;:;+ .%;=O X**X $:;::::::::::::::::",
"::::::::::::::::::::;;=%##&=:*#%;+ .%;=O O:&$:;:::::::::::::::::",
"::::::::::::::::::::;;;:;:;;&.  +-+ .%;=o &:;;::::::::::::::::::",
"::::::::::::::::::::::;;;;:&..O. @;+ .%-o.*:;:::::::::::::::::::",
"::::::::::::::::::::::::;:%. #:$ o;-+  X @:;::::::::::::::::::::",
"::::::::::::::::::::::::;:*X o==..o$;@X.@;::::::::::::::::::::::",
":::::::::::::::::::::::::;:*X.oo X  @:==:;::::::::::::::::::::::",
"::::::::::::::::::::::::::;:*X  +;@ .O=;;:::::::::::::::::::::::",
":::::::::::::::::::::::::::;;&X.O=:# @:;::::::::::::::::::::::::",
"::::::::::::::::::::::::::::;:*X o=:=;::::::::::::::::::::::::::",
":::::::::::::::::::::::::::::;;*X o=:;::::::::::::::::::::::::::",
":::::::::::::::::::::::::::::;;:*X@:;:::::::::::::::::::::::::::",
"::::::::::::::::::::::::;:::::::;=;;::::::::::::::::::::::::::::",
"::::::::::::::;;;;;;:;;;;;:;;;;;;;;;::;;::;::;::::::::::::::::::",
":::::::::::::::;::::::::;;;;:;;:::;;::::;;::::;;::::::::::::::::",
":::::::::::::;&-***&;&-&=&;*=&%%=&$&:*%&;=%;;&=;;:::::::::::::::",
"::::::::::::::O*#@# @+&o&O%O%o@#&o@O&OO#;#.%:o*;;:::::::::::::::",
":::::::::::::;O%@#$@OX*o-# $=o#*=o+O=@+O&O+O=O%=-:::::::::::::::",
"::::::::::::::%++*$%*O=+-*o*=+@@%@*+=#+@$@&+%@++*:;:::::::::::::",
"::::::::::::::;;;;:::::::::;;;::::;:;:::::::::;;;:::::::::::::::"
};
