/* XPM */
static char *AB1[] = {
/* columns rows colors chars-per-pixel */
"64 48 16 1",
"  c #ED1317",
". c #EE1E22",
"X c #EE2428",
"o c #D32528",
"O c #F05250",
"+ c #F1615D",
"@ c #EF6A68",
"# c #C96265",
"$ c #EC3F43",
"% c #EC9293",
"& c #F1B1B2",
"* c #CDA2A3",
"= c gainsboro",
"- c #FBD0D1",
"; c #FFFCFC",
": c #FAC0C0",
/* pixels */
"================================================================",
"================================================================",
"================================================================",
"================================================================",
"================================================================",
"================================================================",
"================================================================",
"================================================================",
"================================================================",
"================================================================",
"================================================================",
"================================================================",
"================================================================",
"===#o$OO+@%*&&=========*$XOO+@%%&&=========*#$OOO@@%**==========",
"==#$++++OOOOOOOO+@%*==*oO+++++OOOOOOO@@*===o$++++OOOOOOO+@@%:===",
"==oO@++++@+++++++OOO@=#o@++++++++@++OO+OO=*o@++++++@+++@@OO$X*==",
"==oO@++++++++++++++@O:#$++++++++++++++@@O%*X@++++++++OO$XXXX.O==",
"==oO@+++++++++++++++O%#$@+++++++++++@++++@*o@++++O$$X....X...X==",
"==oO++++++O+++O++++@O%#$+++@@+++++OOO+@@+%*XOO$X...    .X....X==",
"==oO+++++O%;--&+++++O%#$+O%;;;;----&&@OO$@*....... +-:-%.X...X==",
"==oO@++++O-;;;;@+++@O*#$@O%;;;;;;;;;;-X..@*oX... .%;;;;& X...X==",
"==oO++++O%;;;;;&O+++O%#$++%;;;-----;;;@..@*o....O-;;;;;& X....==",
"==oO@+++O-;;&-;;@++@O%#$@O@;;-     +;;@ .@*o.XX %;;;O-;& X....==",
"==oO++@O%;;;@%;;&O@+$%#.X O;;;%%%%%&;;$..@*o....X-:X -;& X...X==",
"==o$@++O-;;&O+;;;$XX.%#.X +;;;;;;;;;;& .X@*oX..X.X. X-;& ....X==",
"==o$+++%;;;%@@&;;@ X.*#XX +;;;&&&&&-;;@ X@*oX...X.XXX-;& X...X==",
"==oO++$:;;;;;;;;;-XX.%#.X O;;-     .;;& .@*oX..X.XX..-;& X...X==",
"==ooX O;;;;;;;-;;;@ X*#.X +;;;%&&&&-;;% .@*o.......XX-;& ....X==",
"==o o &;;-X$XXXO;;-X.%#.X O;;;;;;;;;;;@ X@*oX.X...X..-;& XX...==",
"==o. O;;;+ ..X. %&&X.%#.X +;;;;;;---:@ XX@*oX........&;% X...X==",
"==o. O+OO..XX.X.   .X*#.X.X+OOXXXX..  .X.@*.X................X==",
"==oo..   ...X.......X%#....  .......XX...@*.X..X...X...X.....X==",
"==o...XXX....X.X.XXXo&#.X..X......XX.XXXo%*oX............X...$==",
"==o.X....XX....X..XX@=#.X.XX..o....X....$=*oX..XX.XX........X&==",
"==%o.......XXXX$O@@*==*o..X... .XXXXO+@*===$.X...X....o$$+@%====",
"===#oX$$+@%**&=========*oXX$O@%%&&=========*$oX$O@@%*&==========",
"================================================================",
"================================================================",
"================================================================",
"================================================================",
"================================================================",
"================================================================",
"================================================================",
"================================================================",
"================================================================",
"================================================================",
"================================================================",
"================================================================"
};
