/* XPM */
static char *AIT_Int'l[] = {
/* columns rows colors chars-per-pixel */
"64 48 16 1",
"  c #960302",
". c #A61802",
"X c #B52B03",
"o c #A82E2C",
"O c #C33C03",
"+ c #D15105",
"@ c #E77103",
"# c #DB6311",
"$ c #CA6C51",
"% c #EE9505",
"& c #E9AC56",
"* c #F6D7A6",
"= c gainsboro",
"- c #FEFDFC",
"; c #F5DFC9",
": c #E3AC94",
/* pixels */
"========================================;=======================",
"========        ..XXoXOOO+o###########@############O+OoO========",
"========         ...XXXXOO++++++########@#####++++OOOOOO========",
"========          ....XXXXO++++##+#@@#@@+@+@##++OOOOOXoo========",
"========         ...XXXXXOOO++++@@@@@@@@@@@@@+@+++OOOOO+========",
"========         ...XXXXO+O++++++@@@@@@@@@@@@@@+#+++OOO+========",
"========        ....XXOOOO++++##@@@@@@@%%@@@@@@@#+++OO++========",
"========        ...XXXXOO+++++#@@@@@@@%%@@@@@@@@##+++O+#========",
"========        ..XXXX$$$#++##@@@@&&&%%&&&%%@@@@@@@++O+#========",
"========        ..XX$;----*$+@@@@:--;%%*--*%%%%@@@@++++#========",
"========       ..X.$--------&@@@@:--;%%*--*%%%%%@@@+#+##========",
"========      ..XXo---;::----@@@@:--;%%*--*%%%%%@@@@#+##========",
"========     ...XX*--;+++#---:@%%:--;%%*--*%%&%%@@@@@+##========",
"========     ...Xo---#++#+&--;%%%*--;%%*------;%@@@@@+##========",
"========     ....$--;O+++#@---%%%*--;%%*-------%%%@@@##$========",
"========     ....$$&$O++#@@&&:%%%&&&&%%&&&*&&&&%%%%@@@##========",
"========      ..XXXXO+++#@@@@@%%%%%%%%%%%%%%%%%%%%@@@@##========",
"========      .XXXO++++#+@@@%%%%%%%%%%%%%%%%%%%%%@%@@@##========",
"========     ...XXOOO++++@@@@@%%%%%%%%%%%%%%%%%%%%@@@@##========",
"========     ...XXOOOO+%&#&&&&%%%&&&&%%&&&%%%%%%%%%@@@##========",
"========     ...XXXX$:=-------:%%*=-;%%*--*%%%%@%%%@@@##========",
"========     ...XX+:----------&%%*--;%%*--*%%%%@@%%@@@##========",
"========     ..oXo=------;----&%%*--;%%*--*%%%%@@%@@@+##========",
"========     . .X;----*$##&---&%%:--;%%*--*%%%%%@@@@@@##========",
"========      o :----$+++#&---&@%:--;%%*--*%%%%@@@@@##+#========",
"========       o=---:O++++&---&@%*--*%%*--*%%@@@@@@@#++$========",
"========       $---;X+++++&---&@%:--;%%*--*@@%@@@+@@#++#========",
"========       $---:XOX+++&---&@@:--;%%*--*@@@@@@++@@+++========",
"========       :---$X+++++&---&#@:--;%%*--*@@@@@@++@+++$========",
"========       :---$XXX++O&---&#@:--;%@*--*@@@@@++++++++========",
"========       :---$XOO+OO:---&+@:--;@@*--*@@+@+++++++O+========",
"========       :---:.XXOOO;---&+@:--;##*--:+@++++++++OO#========",
"========       o---=XXXXX$----&++:--*@+*--;+##++++OO+XO+========",
"========        =---:.X.$-----&++:--;++*---#+++++OOO+OXX========",
"========        $----;::---=--$++:--;++:---=:::O+OOXOXXo========",
"========         ;--------$=--&++:--*++#;-----:XOOXXXXXX========",
"========          :-----;$X---$XO:--;O+O#;----:XXXXXXXXX========",
"========           o$::o..X$::$XO$::$OO+O+$::$$XXXXX...o========",
"========                ......XXOXXXOOOO+XXXXXXXXX......========",
"========              .....XXXXXXXXOXXXXXXXXXXXXX..... .========",
"========                 .....XXXXXXXXXXXXXXX.......    ========",
"========                   ......X..XX.X.........      o========",
"========                    ..........o.......o.        ========",
"========                        .... ........           ========",
"========                          . .  .  .             ========",
"========                            . .. . .            ========",
"========                 o     o  .. .  .   .           ========",
"================================================================"
};
