/* XPM */
static char *BuzMuzik[] = {
/* columns rows colors chars-per-pixel */
"64 48 16 1",
"  c #6D0256",
". c #610750",
"X c #4E0E43",
"o c #8F046A",
"O c #A60977",
"+ c #A8247C",
"@ c #B61A88",
"# c #A65D92",
"$ c #D41D97",
"% c #E758B2",
"& c #EB7CC3",
"* c #E0A6CC",
"= c #DCDBDC",
"- c #F6F6F7",
"; c #EED7E6",
": c #B99FB2",
/* pixels */
"==================================;==;==;;;;;===================",
"====================:%%$%$%%$%%%%%%%%%%%&%&&*=;;================",
"==================*%$$$%%$$%%%$%$%%%%%%%%&%%%&*;================",
"=================%@$$%%$$$%$$%%%%%%%%%%%%%&&&%&&================",
"================#$$$$$$%$%%$%$$%%%%%%%%%%%&%%&&%&;==============",
"==============-#@$$$$$$$$$$%$%%%$$%%%%%%%%%%%%%&%&==============",
"==============:@@$@$$$$$%$%$%$%$%%%$%%%%%%%%%&%&%&*;============",
"==============#@@@@@#$$$$$$%$%$%$$%%$%$%%%%%%%%%&%&;============",
"=============*O+@@@@@@$$$%$$$%$%%%%$%%%%%%%%%%%%%%&*============",
"=============#OOO@@@@@@@$$$$$$$$$%%$$%$%%%$%%%%%&&%&============",
"=============@OO@@@@$=*=;*$$*;*%$%;;%;;;;;;;;%%%%%&&============",
"=============+OOoOO@$-----;$*-;%$%-;&;------*%%%%%&&============",
"=============+oo@O@O#=-%&--$*-;%$&--&****--;%%%%%%&%============",
"=============+ooo@o@@=-#%--$*-;$$%--%$%$&--&%%%%%%%%============",
"=============+ooooO@@====-=@*--%$%--&%%%--;$%%%%%%%&============",
"=============ooooooo@====-;$&-;$$&--%$$*--%%%%$%%%%%============",
"=============+oooooo@==#O*-*:-;$$%--&$&--*$%$%$%%%%%============",
"=============+ +oooo@==#o:-*&-=$@&--%$;-;$%$$%%%%%%%============",
"=============+.  ooo+==##=-*@--=*---$&--;;;;;%%%$%%%============",
"=============   o oo+======@O:-----%$--------%$%%%%%============",
"============-  o o o #####+OOO@%&%@@$&%%%%&%$$$$%%%%*===========",
"=============+  o oo oooo+o+@O++O@$$$$$@$$@$$$$$$$$$============",
"=============      o ::o#=O#*O:*#-;--$-&&-$*=$$$$$$$============",
"============-       +::o:=O:*o:*$==-*@-%&;$-$O$$$$$$============",
"============= .   o X::X:=X:=o:*OO@-#O-%&=;;O$$O$$$$============",
"============- .  o  #:::==#::o:*OO&=@@-%&--%O$$$$$$$============",
"============= .     X:::::##:o:=OO=*O@;%&--$$$O$O$$$============",
"============- ..    #:::#:##: ::o@-#O@-#%--&$$$$O$$$============",
"=============...    ###=#:##: ::o:=OOO;%&=*-$$$$$$O$============",
"============-.X.    ##X:X###=:=:o=*::@=%&=+-%OOO$OO$============",
"=============.X.....:#.:X#:.:==+#===-@=#&=O*=$$$$O$O============",
"=============.XX... X..#.##X.#. ++@##O#@+$O+$$O$O$$$============",
"=============XXXX....      oo  o ooooOOOOOOO$O$$$O$$============",
"=============XXXX.X....    o ooooooooooOOOOOO$OO$$$$============",
"=============#XXXXX....      o ooooooOOOOOOOO$O$O$$%============",
"=============:XXXXX.X...      o  oooooooOOOOOOO$$OO*============",
"=============:XXXXX.....     o o o oooooOOOOO@OOO$%=============",
"==============#XXXXXX... .     oo oooooooOoOOOOOO$*=============",
"==============:XXXXXXXX....       oooooooOOOOOOOO*==============",
"===============#XXXXXXXX....     o oooooooOOOOO+*===============",
"================XXXXXXXXXXX.. .    o oo ooooOO#=================",
"================:XXXXXXXXX.    . o o oo++oo##:==================",
"=================*.XXXXX:=:=====:====:==========================",
"===================#XXXXX=======================================",
"====================:XXXXX======================================",
"======================:#XXX=====================================",
"=========================:##:===================================",
"================================================================"
};
