/* XPM */
static char *C.ESTRELLAS[] = {
/* columns rows colors chars-per-pixel */
"64 48 16 1",
"  c #665656",
". c #A7111A",
"X c #A31E25",
"o c #A65D60",
"O c #C62830",
"+ c #DE686F",
"@ c #B43C43",
"# c #EC7B82",
"$ c #9E7E81",
"% c #A59E9C",
"& c #DE999D",
"* c gray86",
"= c #FCFBFB",
"- c #E6D6D7",
"; c #CEC2C1",
": c #88837E",
/* pixels */
"**********=*****************************--**********************",
"********************************;%$oo@@@@oo+&;******************",
"****************************;%o@XX@XX@@O@OOOOO@$-***************",
"**************************&o@XXXXXXXXXXXXO@OOOOOO@&*************",
"*******=**************-;$@.XoXXX@oo$$%&oo@@@@+@OOO.+;--*********",
"*********************;+X...o @%;*=========&#&:XO@OOOO&--********",
"************=*******&@....X:X@=========;o@&% %&@XO@O..+-********",
"******************;###....o ..*=====-#O..@% *==-oXOOO..+****=***",
"***********=*****&+###+.XXo X.%===;o...Xo::=====-%XOOO.O#*******",
"****************&#####@..o: ..o*&X..X.X$ %*=======%XOOO.O;******",
"**************-######+...o %..XX.....o% %*========-$.OOOOO-*****",
"**************+####&#@@@o %o........o: %*==========;oOO..O&*****",
"*************+&%$$:       ;o......X$: ;*============%XOO.O+*****",
"************o++o      :::;*o......o :;*=============-oOOO.O-****",
"***=******-++&+##$%%%;%;;=*o........o*==============-%OO..O&****",
"**********&+###+##oo;***===o.X.......Xo;=============;OO.OO&****",
"*********;@#######..@**===*@.X.X....XX.X@&===========*@OX.O+---*",
"*********+#######+.@o ====*@........XXXX..@&=========*oOO.OO--**",
"********&@#######.@: ;====*X..X@@XX...XX....@-=======*oO..O+****",
"****=**-@+######+@: %*====*X..o   : ooo @OO..+&-=====*oOO..+****",
"*******&@#######+  %;=;+==;XXX: :         :ooo&&&-===*oO..O+****",
"*******+@######&  %*%o.X%=;..@:%%%%%%%:::::::   oo%==*oO..O&****",
"****--;@+#####%  :%@...X%=%X.@:*;*;;;*;*;;;;****;%:*=;++.OO&****",
"****--&@+####&  :o......:*%X. %**************=======*%+#O.O-****",
"*****-+@##+#&  oX..X.X..o;%.Xo;=*=**================*###O.+--***",
"****-;+X###& o#..X......o%:.X:*====*================;###OO&-****",
"*****&oX##&:o#+..X...X..o%o.X:*====================-&###.O--****",
"*****&oX#&&+##O.........X:o.o%=====================;###+.#--****",
"*****&+.+&+###O...X..XX.X:o.o%====================-####@O-******",
"*=**-&+.@####+...X......X:o.:*====================&+###O#*******",
"****-&#XX####+......X...X: X:*===================&+###+@-*******",
"*****&#@Xo###@...X.X...X.  O:===================;+####O&********",
"****-&#o. ++#O..X....X...o @%==================;+####@+*********",
"*****&##XXo#+O....X....X.@ @%=================&+####++**********",
"*****-##@X $+......X..X..X  *================&+##+#+@-**********",
"*****-&#+ Xo&@...X...X...Xo:*==============-++###&+@-***********",
"*=****;#++X :%o....XXX....o:*=============&@+#++#+@;-***********",
"*******#+#oX :%$ X........o%============;@.+&###+@;*************",
"*******;##++XX$%%%:  XXX.. %=======*=*;o...++#&++-********=*****",
"********&####@Xo%%%%%::: ::;=*=====-%@.....+&#o+--****-*********",
"*********&&##&+@X %%%%;%%;**=****%oX...XX. ++o%*****************",
"*****=****&+#++&+.X@o:%%:%%;;%o X...X....Xo@+***************=***",
"**********-&++#+&O....XXXXXX.....X...XX.X@o;********************",
"************-####+...X.X....XX.X.....X.Xo%******=***************",
"*************-&&++@....XX....X.X....X o****************=********",
"**************--;&++@X...X.X...XXXo:%;**************************",
"**=*************-**;&&@XXXXXXXo$%;******************************",
"********************************;**************************=****"
};
