/* XPM */
static char *CANAL+_HD[] = {
/* columns rows colors chars-per-pixel */
"64 48 16 1",
"  c gray1",
". c #313131",
"X c #320409",
"o c #4E4F4E",
"O c gray40",
"+ c #5D1A21",
"@ c #D01124",
"# c #D63949",
"$ c #CC4451",
"% c #E17A84",
"& c gray62",
"* c #DE9AA0",
"= c gainsboro",
"- c gray98",
"; c #F6D1D5",
": c #F1BFC4",
/* pixels */
"================================================================",
"================================================================",
"================================================================",
"================================================================",
"================================================================",
"================================================================",
"================================================================",
"================================================================",
"================================================================",
"================================================================",
"================================================================",
"================================================================",
"================================================================",
"================================================================",
"================================================================",
"=================================================$@@@@@@@@@@@*==",
"=================================================*@*%@;@*;;%@%==",
"=================================================:@*;#-#%:@-#$==",
"==================================================@$-*;%#-#-##==",
"==OOOOoOOOOOoOOOoOOoOoOOoOOOOoOOOoOOOoOOOoOOoOoOOo@@-@%:@;;%@@==",
"==                                                +@%@@#@@@@#$==",
"==    XO&O.    ...    ..   ...    ...   ...    .Oo+@@@+$**:=====",
"==   O-----O  O--=   O--O  &-&   &--&   &-&    o--.XX  &========",
"==  o--=&&-O  =---.  &---  :-&   ---=   =-&    o--.    &========",
"==  =-=.   . o-==-O  &---& =-O  &-=--.  =-O o&&&--&&&. &========",
"==  =-O      =-O&-&  =-&--o=-o .=-.=-o .--o &--------. &========",
"==  --O     o--.O-:  --.&-=--. &-=.&-& o--. O===--===. &========",
"==  =-=     =-----= .--..----  =-----= O--     o--.    &========",
"==  O--=&:Oo--=&=--..-=  &--= &--=&=-= O--&&o  o--.    &========",
"==   &----o=-&   =-OO-=  X--= --O   --.&----o  o--.    &========",
"==    .OOo .o    ..X o.   ... o.    .o .o...    o.     &========",
"==                                                     O========",
"==                                                     &========",
"================================================================",
"================================================================",
"================================================================",
"================================================================",
"================================================================",
"================================================================",
"================================================================",
"================================================================",
"================================================================",
"================================================================",
"================================================================",
"================================================================",
"================================================================",
"================================================================",
"================================================================"
};
