/* XPM */
static char *Channel_AKA[] = {
/* columns rows colors chars-per-pixel */
"64 48 13 1",
"  c #020202",
". c #2F2F2F",
"X c gray32",
"o c #717171",
"O c #CC0404",
"+ c #CF3434",
"@ c #D14F4F",
"# c #D37272",
"$ c #929292",
"% c gray69",
"& c #D68E8F",
"* c #D8AFAF",
"= c gray86",
/* pixels */
"================================================================",
"================================================================",
"================================================================",
"================================================================",
"================================================================",
"================================================================",
"================================================================",
"================================================================",
"================================================================",
"================================================================",
"================================================================",
"========#@&==$ .       $====o     .===      %===X       . ======",
"======*+OOO==o         X====X      ==$     .====X         $=====",
"=======+OO+==X         X====X      ==X     X====.         o=====",
"=======@OO*==X         .====X      ==.     $====          X=====",
"=======@OO@==.          ====X      =%     .====%          X=====",
"======&OOOO==           %===X      =o     X====%           =====",
"======OOOOO=*     .     $===X      =.     $====$     .     =====",
"=====#OOOO+=%     .     o===X      %      =====o     X     %====",
"=====+OOOO@=$     o.    X===X     .o     X=====X     o     $====",
"====&OOOOO#=o     $.    .===X      .     $=====X     $     o====",
"====@OOOOO&=X     %.    .===X            ======.    .%     X====",
"====OOOOOO*=.     =X    .===X           X======     .=     .====",
"===&OOOOO+==.     =X     %==X           X=====%     .=.    .====",
"==*+OOOOO@==     .=o     $==X           .=====%     X=.     ====",
"==*OOOOO+==*     .=o     o==X            %====$     o=X     %===",
"==#OOOO+*==%     X=$     X==X            o====o     o=X     $===",
"==+OOO@====$     X=%     X==X      .     X====X     $=o     o===",
"==+OOO+&&*=o     .X.     .==X     .o      ====.     .X.     X===",
"==OOOOOOO@=X              ==X      $      $===.             .===",
"==OOOOOOO#=.              %=X      %.     X===               ===",
"==+OOOOOO&=.              $=X      =.     .==%               ===",
"==+OOO+*+*=               o=X      =o      %=%               %==",
"==*OOO*===%      X%%      X=X      =%      o=$      o%$      $==",
"===@OO#===$      o==.     X=X      ==      X=o      $=%      X==",
"===&OOO===$      $==.     .=X      ==.      =X      %==      X==",
"===&OOO===o      $==.      =o      %=o      %X .    ===      .==",
"==*+OO+===X ..   %==X      =o.     ==%      X. .    ===.      ==",
"================================================================",
"================================================================",
"================================================================",
"================================================================",
"================================================================",
"================================================================",
"================================================================",
"================================================================",
"================================================================",
"================================================================"
};
