/* XPM */
static char *Channel_4_HD[] = {
/* columns rows colors chars-per-pixel */
"64 48 16 1",
"  c #01748F",
". c #107C94",
"X c #1D8299",
"o c #2B889D",
"O c #3E91A5",
"+ c #358DA1",
"@ c #4E98AA",
"# c #74ABB8",
"$ c #67A4B3",
"% c #5FA0B0",
"& c #86B3BE",
"* c #95BBC3",
"= c #A3C1C8",
"- c #B8CBCF",
"; c gainsboro",
": c #C7D2D5",
/* pixels */
";;;;;;;;;;;;;;;;;;;;;;;;;;;;;;;;;;;;;;;;;;;;;;;;;;;;;;;;;;;;;;;;",
";;;;;;;;;;;;;;;;;;;;;;;;;;;;;;;;;;;;;;;;;;;;;;;;;;;;;;;;;;;;;;;;",
";;;;;;;;;;;;;;;;;;;;;;;;;;;;;;;;;;;;;;;;;;;;;;;;;;;;;;;;;;;;;;;;",
";;;;;;;;;;;;;;;;;;;;;;;;;;;;;;;;;;;;;;;;;;;;;;;;;;;;;;;;;;;;;;;;",
";;;;;;;;;;;;;;;;;;;*@;;;;;;;;;;;;;;;;;;;;;;;;;;;;;;;;;;;;;;;;;;;",
";;;;;;;;;;;;;;;;;;;@ .=;;;;;;;;;;;;;;;;;;;;;;;;;;;;;;;;;;;;;;;;;",
";;;;;;;;;;;;;;;;;;=@   -;;;;;;;;;*&###-;;;;;;;;;;;;;;;;;:#:;:#;;",
";;;;;;;;;;;;;;;;;@ .  .;;;;;;;;;;..+. *;;;;;;;;;;;;;;;;;- :;= ;;",
";;;;;;;;;;;;;;;;#     O;;;;;;;;;;+&;;.*;;;;;;;;;;;;;;;;;- :;= ;;",
";;;;;;;;;;;;;;;=     @@;;;;;;;;;;.#;;.*;;;;;;;;;;;;;;;;;- :;* ;;",
";;;;;;;;;;;;;;:.    &#@;:.:;;;;;;+#;;.*;;;;;;;;;;;;;;;;;= -;= ;;",
";;;;;;;;;;;;;;#    %;$+:o@;;;;;;;.#;;..@@@#-;;;;;;;-$@@@@ :;= ;;",
";;;;;;;;;;;;;=#   o;;#@@.;;;;;;;;+#;;+@$%@..@;;;;;@ .%$$@.-;= ;;",
";;;;;;;;;;;;# X   :;;# .:;;;;;;;;o#;;;;;;;;=.%;;;%.=;;;;;;;;= ;;",
";;;;;;;;;;;*     .;;;# *;;;;;;;;;o#;;;;;;;;;= :;:.*;;;;;;;;;= ;;",
";;;;;;;;;;:.    @.;;;#O;;;;;;;;;;o#;;;;;;;;;;.*;*.;;;;;;;;;;= ;;",
";;;;;;;;;;o    %*.;;;#@;;;;;;;;;;.&;;;;;;;;;;.&;%@;;;;;;;;;;= ;;",
";;;;;;;;;@    O;=.;;;#O;;;;;;;;;;.#;;;;;;;;;;.#;@@;;;;;;;;;;= ;;",
";;;;;;;;#    .:;=.;;;#O;;;;;;;;;;O&;;;;;;;;;;O#;@%;;;;;;;;;;= ;;",
";;;;;;;=     =;;=.;;;#O;;;;;;;;;;.&;;;;;;;;;;.#;+%;;;;;;;;;;* ;;",
";;;;;;:.    #;;;*.;;;#O;;;;;;;;;;.&;;;;;;;;;;@#;@@;;;;;;;;;;*.;;",
";;;;;;o    %;;;;+.;;;#O;;;;;;;;;;O&;;;;;;;;;;.#;@@;;;;;;;;;;&.;;",
";;;;;@    o;;;;% .;;;#O;;;;;;;;;;.&;;;;;;;;;;O$;#.;;;;;;;;;;@@;;",
";;;;&    .-;;;*  .;;;#O;;;;;;;;;;.#;;;;;;;;;;.#;- -;;;;;;;;;.&;;",
";;;=     =;;;;#  .;;;#O;;;;;;;;;;@#;;;;;;;;;;.#;;@.;;;;;;;;#.;;;",
";;;o    #;;;;;&  .;;;#O;;;;;;;;;;.&;;;;;;;;;;@#;;;..$**=*#..-;;;",
";;=&.  @;;;;===@..;;;#O;;;-*==;;;$*;;;;;;;;;;$*;;;;*......#:;;;;",
";;    o;;;;%     .;;;#O;;;@   +:;;;;;;;;;;;;;;;;;;;;;;;;;;;;;;;;",
";;    Xoooo      .ooo.O;;;@    .-;;;;;;;;;;;;;;;;;;;;;;;;;;;;;;;",
";;   %***************@O;;;@@*****;;;;;;;;;;;;;;;;;;;;;;;;;;;;;;;",
";;@  &;;;;;;;;;;;;;;;#@;;;@$;;;;;;;;;;;;;;;;;;;;;;;;;;;;;;;;;;;;",
";;;& &;;;;;;;;;;;;;;;#O;;;@%;;;;;;;;;;;;;;;;;;;;;;;;;;;;;;;;;;;;",
";;;;==;;;;;;;;:::-:--%O;;;-&;;;;;;;;;;;;;;;;;;;;;;;;;;;;;;;;;;;;",
";;;;;;;;;;;;;;#       O;;;;;;;;;;;;;;;;;;;;;;;;;;;;;;;;;;;;;;;;;",
";;;;;;;;;;;;;;#  .;::$O;;;;;;;;;;;;;;;;;;;;;;;;;;;;;;;;;;;;;;;;;",
";;;;;;;;;;;;;;#  .;;;#O;;;;;;;;;;;;;;;;;;;;;;;;;;;;;;;;;;;;;;;;;",
";;;;;;;;;;;;;;#  .;;;$@;;;;;;;;;;;;;;;;;;;;;;;;;;;;;;;;;;;;;;;;;",
";;;;;;;;;;;;;;#  .;;;#O;;;;;;;;;;;;;;;;;;;;;;;;;;;;;;;;;;;;;;;;;",
";;;;;;;;;:--=:#  .;;;#O;;;-:;;;;;;;;;;;;;;;;;;;;;;;;;;;;;;;;;;;;",
";;;;;;;;;=   .@  .;;;#O;;;@ *;;;;;;;;;;;;;;;;;;;;;;;;;;;;;;;;;;;",
";;;;;;;;;=       .;;;#.OOO.  %;;;;;;;;;;;;;;;;;;;;;;;;;;;;;;;;;;",
";;;;;;;;;=   #&&$.;;;&.&&&&&&&-;;;;;;;;;;;;;;;;;;;;;;;;;;;;;;;;;",
";;;;;;;;;-.  :;;=.;;;#@;;;;;;;;;;;;;;;;;;;;;;;;;;;;;;;;;;;;;;;;;",
";;;;;;;;;;:+ :;;=.;;;$@;;;;;;;;;;;;;;;;;;;;;;;;;;;;;;;;;;;;;;;;;",
";;;;;;;;;;;;%:;;;@;;;-$;;;;;;;;;;;;;;;;;;;;;;;;;;;;;;;;;;;;;;;;;",
";;;;;;;;;;;;;;;;;;;;;;;;;;;;;;;;;;;;;;;;;;;;;;;;;;;;;;;;;;;;;;;;",
";;;;;;;;;;;;;;;;;;;;;;;;;;;;;;;;;;;;;;;;;;;;;;;;;;;;;;;;;;;;;;;;",
";;;;;;;;;;;;;;;;;;;;;;;;;;;;;;;;;;;;;;;;;;;;;;;;;;;;;;;;;;;;;;;;"
};
