/* XPM */
static char *CHASSE_et_PECHE[] = {
/* columns rows colors chars-per-pixel */
"64 48 16 1",
"  c #914C1A",
". c #945529",
"X c #A7652E",
"o c #A15D27",
"O c #A8744D",
"+ c #936343",
"@ c #863C09",
"# c #B68C6C",
"$ c #C09C7E",
"% c #B59F8F",
"& c #C8B09D",
"* c #D4C4B8",
"= c gray86",
"- c #EAEEEF",
"; c #E2DEDA",
": c #7E370A",
/* pixels */
"============-====-========================================-=====",
"=======-==============-;===============;====-===-===-===========",
";================;===============-=======;============;==;======",
"==;==========================-;========-=;======-============;==",
"=;========-===-=========-=;==================;=============-=-==",
"====;==-=====;==-======-=====-=============;======;=============",
";=================;=================-====;====;=====-===========",
"=====;;===============================;====;==============;=====",
"====;============;==========;;;;-===;========;==================",
"=;;====;==-==========;;=====;;;;====;;;=========================",
"==================;;========;;;;====;;;;======;;=========-======",
"=;=====;==========;;=====;====;;====;;;;======;;=========;=====-",
"=========**=====********=*=*****==**************=******=========",
"=-=====% ..oXo  oXXoXXXXXoXXXXXXoXXoXXXXXXXXXXXXXXX+oooo========",
"=======%  oo o#%#oo$#  oXXooooXoooooXXXXoooXXXXooooo oo.*=====;=",
"=======% oooX;-;-&X-$X#XoXoX#XoooX##XXoo##XoXoX##oooooo.=====-==",
"=======%.oo &-Oo#-$*---;OX*---&o#---;OX*---&o#---*Xooooo*=======",
";=====-%o.o ** oo#O=;#O;*#;#X$-#;*XO;*&-#X$-#;*X#;& oo.o*=======",
"-======%.oo =* oXoo-$  #-XX%&&-&;*#OOX*-##OO#-#XX**ooooo*=======",
"=======%.oo ** oo o-$ o$;#--;;-$#;--;#X*---&#-----*ooo .*=====-=",
"-======%.o. ==  o*$;$ o$;*;o  ;&#XXX*;##oX#-&;$O### o..o========",
"=======%... $-%#*-#;&  #;%-&$*-%;;##;*%-$#&-#==$$# oo.o.*=======",
"=======%.... %--;#.;$ o#;X%;;=;$X;--*Xo&---# O*--=oo.o..*===-===",
"=======%..... .+  ooo  ooo  oO..ooXX .. XXooo. o........========",
"=======%+..+ .###...OOOO...+*;*X.o  .o.+#  ...o. .......*=======",
"=======%+.. +=%%&*.O----;O X$O#..  O+o &;.+. .  ++ .....*=======",
"==-====%...:%%:. #.O-%OO==.#=-;# +*--;X%-=-;$ +=--*+...+*=======",
"=======%..+:%%:+...O-O  #-$-&#*-O*-##;;%-&#*-#*;#$-%:.:+========",
"=======%.:+:+-%....O-#..*=&;. +-%;$@ O#&= @.=&=#: &=..:.========",
"=======%:+:.*+&%:..O-;;--#%-----&=# o :&=..+=&=----=....========",
"=-=====%..:+*.:*%%O+-&%%O@%-#####;#@ oO&=...-&=%####....*=======",
"=======%:++:*+::&-.+-O:   #-%OO+ ==OO==%=. +-%=*#+# ..:.*=======",
"=======%:+::+*%%&*%+-+:... %---% O=--=+&=. .=%+=---+:+:.*=======",
"=======%::+::+OO+:+:++.. ..:++++  .OO..++ ..+.: +++ ::..*=======",
"=======%+++++++++++++++++++++++++++.++++++++++++++++++++========",
"========================*==*=====*===*=======*=**==*==*=========",
"================================================================",
"================================================================",
"===============================-================================",
"============================================-===================",
"========-====================-==================================",
"==============-============================-=-==================",
"=================================================-=============-",
"==========================-===========-=============-===========",
"=======================================================-========",
"===============-====================-===========================",
"=-=======-================-==============================-======",
"==================-=======================-===-=-=============-="
};
