/* XPM */
static char *CINEMAGIC_HD[] = {
/* columns rows colors chars-per-pixel */
"64 48 16 1",
"  c #16282C",
". c #1A3C44",
"X c #27555B",
"o c #536A6D",
"O c #455933",
"+ c #527B84",
"@ c #549560",
"# c #689297",
"$ c #46A8AE",
"% c #9AABAF",
"& c #B2C8CC",
"* c gray86",
"= c #F3F9FA",
"- c #D4E5E5",
"; c #A9BEC1",
": c #95A64A",
/* pixels */
"**********************************************=***************=*",
"*************=****&;%%&**&&*****************-********=**********",
"*****=**********&%&-%%*===**;***********************************",
"***************;&---;%-======&&*********************************",
"*************&;**==-;;*=-=====**********************************",
"****-*-*****&;****-%oO...X%*===***********-********=************",
"************;*****#        .%===*******=************************",
"***********;&**=*o   .. .... %==******************************=*",
"***=*******%****o  . ........ *==**********&********************",
"**********;%***% .   .......X o==******&&***--*&****************",
"**********%;*-*O .. .......X...*=*****;*========****************",
"**********%;--%  . ..........X ;=****%-===;+oo#;==********=*****",
"**********%&--@ . ...........X %=***%&-=*o..XXX.X*=*************",
"**********%&--o .. .....XX.X.X.;=***;*--X.XXXXXXXX;=**********=*",
"*=********;*--O    . ...XX.... *=&*;*--o.XXXXXXXXXX*=***********",
"**********&*--o . . . .OX#XX. X=***%&-;.X#XX#+$;%#X+==**********",
"*************-#     . .Xo$@X. #=*&&%--#.+-X.-#%=;-;.*=**********",
"***********&**; . .  .   o.. .-===**&-+.+-++-#;%.+=X%=**********",
"************&&*@ .       ..  OOo#;===-+ o=-*=+;;XX-+#=**********",
"******=*****&;--O . OoX.          .#-=% o-..*#%%.+-X+=-*********",
"*************&&-;o XoXo++.  o%X. .   %; o-X.-#%=-=%.$=**********",
"**=************;%%#     .#o.&#+.....  . Xo..XXX++++.;=**********",
"**************-*%%-*  oo  ##+o.XX X... . ....XX..XXX==**********",
"*************;%%%%=% o%;%% %o+%#oo#o;%++#...XXXXXX.%==&*****-***",
"************$XO%%&% oOo% o %&%&%%&;;;X%&#X...XX...%==****=******",
"************;X@;#;X..o&;.o%%##%-;+%;*+*-o.-#XXXX+&==**********=*",
"*******=****&$$&#X .X.o;%;$+$$$$+$+X+o*. .-==--===-*************",
"************$X@$+       XX$$$$$$$$$$X#& X.#==--=-&*****=********",
"************$X+$XXO     .. .Xoo#$$$$$$#XXXo==-oO%***************",
"************$X+$@@@Oo           . . ...XX.X&&-o.#**********=****",
"=*********=*$X@o@O.@oO:O O               .Xo. .$;***************",
"************#OXX@oO+#:::#*%o;%oo     OX  .oX  X$&***************",
"******=****&o X  :OO::O:%%%###;&o#*OO:oO #%X  X$---*************",
"************%O       Oo@O;o%o%o#o:*%oOo:#&%o  @$&-**-***********",
"**************%O             o.%%**o@@ :%##X  X$*-**************",
"**************&;#O               ooO@:OO+*%   +%**-******=******",
"=**************%##..XXX.    .      .@@O  oX   +%****************",
"***************%o%o XX$$###+$+X.          .   +%************=***",
"****************##%XXXX+$$$$$$$$$+XX.   Xoooo%******************",
"****************%#%%XXXX++$$$$$$$++XX.  ;&&&;***********=*******",
"**=**************%%;%XXo++$$$$$$X+XX. o&&%%%********************",
"******************%**&+XXXXXXXX$XXXX.o%%%%%;****=***************",
"*********=*********;-=-%+XXXXXXXX.XX%#oooo%******************=**",
"********************&*=-&#+oXX+XX+##oooo%%**********************",
"*********************&&**;%%###%#+o++##%************************",
"***********************&&&;%%%##+####%;****************=*=******",
"***********=**************&%%%%%#%%;&***************************",
"*****=**************************--******************************"
};
