/* XPM */
static char *COSMOPOLITAN[] = {
/* columns rows colors chars-per-pixel */
"64 48 16 1",
"  c #9F0F3B",
". c #B1174C",
"X c #AE5A6D",
"o c #C60853",
"O c #CC2F6D",
"+ c #C84C79",
"@ c #BA7886",
"# c #CF6C8F",
"$ c #D65E8C",
"% c #D39AAB",
"& c #E1B8C5",
"* c gainsboro",
"= c #E8CED5",
"- c #FEFEFE",
"; c #F2DBE3",
": c #BD858F",
/* pixels */
"****************************************************************",
"****************************************************************",
"****************************************************************",
"****************************************************************",
"****************************************************************",
"****************************************************************",
"****************************************************************",
"****************************************************************",
"*******;********************************************************",
"*******;*********;**********************************************",
"***#OooooooooooooooooooooooooooooooooooooooooooooooO+#&*********",
"**%ooooooooooooooooooooooooooooooooooooooooooooooooooooO%;******",
"**Ooooooooooooooooooooooooooooooooooooooooooooooooooooooo$******",
"**ooooooooooooooooooooooooooooooooooooooooooooooooooooooooO=****",
"**ooooooooO##$oooooO$#$oooooo$##OooOOOOOoooOOO+oooO#%$ooooo$****",
"**ooooooo%----=ooo%-----OooO;----#o=---;oo$----$o%-----Ooooo%***",
"**oooooo$------%o$------;oo;------+=----oo%----+$------;ooooO***",
"**oooooo;--%:---o=--;%---#$---X=--&=----Oo&----+=--;:---#oooo&**",
"**oooooO---..---$---@ =--=%--: X--;=----$o;----#---X =--=oooo$**",
"**ooooo#--;oo---%---Oo:---&--#oo---=----%o-----%---Oo%---ooooO**",
"**ooooo&--=oo;--&---.o#---&--;Oo   *----&O--;--&---oo:---Ooooo**",
"**ooooo&--=ooXXX%---oo#---:---=oo..*-=;-;$--=--&---oo#---Ooooo**",
"**ooooo;--&oo.o.%---oo#---+----;Ooo=-;=--%-==--&---oo#---+oooo**",
"**ooooo;--&ooooo%---oo#---+X----=Oo=-;%--;-%=--=---oo#---+oooo**",
"**ooooo;--&ooooo&---oo#---+.:----=o=-=#----#=--=---oo$---+oooo**",
"**ooooo;--&ooooo%---oo$---+o :----#=-;+----+=--=---oo#---+oooo**",
"**ooooo=--&oo#;=&---oo$---+oo :---;=-=O----.=--&---oo#---Ooooo**",
"**Ooooo&--=oo&--&---oo#---$+$O %---=-=.----o=--&---oo#---.oooo**",
"**Ooooo%--;oo&--:---Oo%---;--Oo.---;-=o=--=o=--%---Oo%---ooooo**",
"**$oooo@---Oo---+---#o&--==--$oO---=-;o%--%o=--#---$o&--=ooooo**",
"**&oooo.---&&--;.=--;%---:%--=$&--;=-;o:--#o=--#=--;%---#ooooo**",
"***Ooooo&------@oX-------.X-------:=-*o+--Xo=--#X-------.ooooo**",
"***%oooo.*----& o %-----Xoo:-----& &-=oO--.o=--$ %-----X.ooooo**",
"****$ooo. :%%X oo. X%&:. oo X%&:X oXXXooXXooXXX.o X%%: .oooooo**",
"*****Ooooo   .ooooo.   ooooo     oo.. oo. oo.. ooo.   oooooooo**",
"******$ooooooooooooooooooooooooooooooooooooooooooooooooooooooO**",
"*******%Ooooooooooooooooooooooooooooooooooooooooooooooooooooo%**",
"*********&#$OooooooooooooooooooooooooooooooooooooooooooooooO%***",
"****************************************************************",
"****************************************************************",
"****************************************************************",
"****************************************************************",
"****************************************************************",
"****************************************************************",
"****************************************************************",
"****************************************************************",
"****************************************************************",
"****************************************************************"
};
