/* XPM */
static char *Deutsches_Musik_Fernsehen[] = {
/* columns rows colors chars-per-pixel */
"64 48 16 1",
"  c #0C6CB7",
". c #277BBC",
"X c #005BAE",
"o c #2B7FC0",
"O c #3784BF",
"+ c #3986C2",
"@ c #4F91C4",
"# c #659CC7",
"$ c #73A4CB",
"% c #8EB3D0",
"& c #A2BDD3",
"* c #B3C6D5",
"= c #ADCDE6",
"- c gainsboro",
"; c #FBFDFE",
": c #CFE2F1",
/* pixels */
"----------------------------------------------------------------",
"----------------------------------------------------------------",
"----------------------------------------------------------------",
"----------------------------------------------------------------",
"----------------------------------------------------------------",
"----------------------------------------------------------------",
"----------------------------------------------------------------",
"----------------------------------------------------------------",
"----------------------------------------------------------------",
"----------------------------------------------------------------",
"----------------------------------------------------------------",
"----------------------------------------------------------------",
"----------------------------------------------------------------",
"----------------------------------------------------------------",
"--*+  X&;= +;;$X         #-#@@#---------$--------$*-------------",
"--.    :;   :;&XO        #-@*-#%-$%-&-*&O&&#&-%#*$##--$%-&#%----",
"--     :=   ;;=          $-#*-&##$#$#-#%@*O%%%#*%#%%$$$#$@%%----",
"--    X:% X$;;$X       . #-#*-%#@%$$#-$*#-&$%#&--$**$#$$%*$$----",
"--    X%&X$;;;+          $-##%@*#%$*@%O*@%#&@%#$$$**%%$%%#&O*---",
"--     +:=;;;=X          #-*%%---%*-*%*-***%*-*%-*--*-%%-*%*----",
"--     %;;;;=            $--------------------------------------",
"--   +:;;;;%           O $-**--**--------**-*-------------------",
"--  @;;;;;#X     O       $-O *- O--------%%##-------------------",
"--X@;;;;#=%X   X         #-@ %& @&#-@*@@$%%##$$-----------------",
"--+;;;;@Xo:.+@@+         $-@O@@O@$@-.% #%$#$ O------------------",
"--:;;;+X $:;;;;;:#     . $-O#OO%O%O-.&$#O###OO&-----------------",
"--;;;$X.:;;;;;;;;;$      #-@%$@&@*.OO&@@#$#$$%O-----------------",
"--;;:  =;:#:@+=;;;;O     #-------------*------------------------",
"--;;=X+;;.X$%X =;;;+     $--------------------------------------",
"--;;=X+;&X o:  @;;;+     $-*%%%-------------------&*------------",
"--=;;.X%:.  =@X+;;=      #-@.@@-**------*---*---*-O%----*-------",
"-- :;= Xo+ X@=X=;=       $-O@*-*@O&$.#@O.%%OO&*OO*@OO$*OO%%OO@--",
"-- O:;:@OOOO@---@XX   X.X#-@X.%@@@O#O-O%&O%.#&O@O@@$&O#O#O#@-X--",
"--O O#=:==&&%*%XX .. X.XX#-O#--O@%%##-O%&O&%@OO#%%O&&O#O&$#@-X--",
"--*@O OOOOOOOO* .     X..$-@$--*OO&$#-@&&@&OO%*OO*#&*@*OO%%#-O--",
"---------*------------------------------------------------------",
"----------------------------------------------------------------",
"----------------------------------------------------------------",
"----------------------------------------------------------------",
"----------------------------------------------------------------",
"----------------------------------------------------------------",
"----------------------------------------------------------------",
"----------------------------------------------------------------",
"----------------------------------------------------------------",
"----------------------------------------------------------------",
"----------------------------------------------------------------",
"----------------------------------------------------------------",
"----------------------------------------------------------------"
};
