/* XPM */
static char *Disney_XD_HD[] = {
/* columns rows colors chars-per-pixel */
"64 48 16 1",
"  c #052A4E",
". c #34516E",
"X c #315158",
"o c #546F64",
"O c #5B7188",
"+ c #6E8762",
"@ c #6A845E",
"# c #78899B",
"$ c #A6BA5E",
"% c #95AA62",
"& c #B8CC52",
"* c #C1D830",
"= c #C0D543",
"- c #9AA5B1",
"; c gainsboro",
": c #B6BDC3",
/* pixels */
";;;;;;;;;;;;;;;;;;;;;;;;;;;;;;;;;;;;;;;;;;;;;;;;;;;;;;;;;;;;;;;;",
";;;;;;;;;;;;;;;;;;;;;;;;;;;;;;;;;;;;;;;;;;;;;;;;;;;;;;;;;;;;;;;;",
";;;;;;;;;;;;;;;;;;;;;;;;;;;;;;;;;;;;;;;;;;;;;;;;;;;;;;;;;;;;;;;;",
";;;;;;;;;;;;;;;;;;;;;;;;;;;;;;;;;;;;;;;;;;;;;;;;;;;;;;;;;;;;;;;;",
";;;;;;;;;;;;;;;;;;;;;;;;;;;;;;;;;;;;;;;;;;;;;;;;;;;;;;;;;;;;;;;;",
";;;;;;;;;;;;;;;;;;;;;;;;;;;;;;;;;;;;;;;;;;;;;;;;;;;;;;;;;;;;;;;;",
";;;;;;;;;;;;;;;;;;;;;;;;;;;;;;;;;;;;;;;;;;;;;;;;;;;;;;;;;;;;;;;;",
";;;#O.oO:;;;;;;;;;;;;;;;;;;;;;;;;;;;;;;;;;;;;;;;;;;;;;;;;;;;;;;;",
";;O@$&&$o.-;;o .-;;;;;;;;;;;;;;;;;;;;;;;;;;;;;;;;;;;;;;;;;;;;;;;",
";;OX   o$&+..+=&o-;;;;;;;;;;;;;;;;;;;;;;;;;;;;;;;;;;;;;;;;;;;;;;",
";;;-;;O+  $& *$%X:;;-;;;;;;;;;;;;;;;;;;;;;;;;;;;;;;;;;;;;;;;;;;;",
";;;;;O &   %&%+X X..X X  X..:;;;;;;;;;;;;;;;;;;;;;;;;;;;;;;;;;;;",
";;;;X%&*&&$ &+%&&$o$%%&=%%o& :;;;;;;;;;;;;;;;;;;;;;;;;;;;;;;;;;;",
";;;:Xo &  $ &%$$=$%&$&=$X&&%X -;;;;;;;;;;;;;;;;;;;;;;;;;;;;;;;;;",
";;;;Oo%*  .$=o$%&=$o$%=$o*=$   :;;;;;;;;;;;;;;;;;;;;;;;;;;;;;;;;",
";;;;;.X=&&&%  X oX    %oo=o     .......o.O.........O...O-;;;;;;;",
";;;;;;.       X&=&&&&$  $$     $&&&=&&X%&&&&&&&&&&&&=&&&X-;;;;;;",
";;;;;;;.      o********X$o    =*******+&*****************X-;;;;;",
";;;;;;;;.     o********=X    =********+&******************X-;;;;",
";;;;;;;;;.    o**********X  =*********o&******************=XO;;;",
";;;;;;;;;;.   o***********X***********o&*******************=X-;;",
";;;;;;;;;;;.  +***********************@=********************$.;;",
";;;;;;;;;;;;. +***********************o&********************&.;;",
";;;;;;;;;;;;;.X***********************o$********************&.;;",
";;;;;;;;;;;;;;.o*********************@ &****&*****$$$*******&.;;",
";;;;;;;;;;;;;;;.o*******************o  &+***.**%$%+%%o******&.;;",
";;;;;;;;;;;;;;;;oo*****************o   $ o**X**$$%$**X******&o;;",
";;;;;;;;;;;;;;;;;.o***************o    $  o*X++o$%$**X******&.;;",
";;;;;;;;;;;;;;;;;Oo***************X    $  o*X==%$%$**X******&.;;",
";;;;;;;;;;;;;;;;oo*****************o   $ o**X**$$%$**X******&.;;",
";;;;;;;;;;;;;;;Oo*******************o  $o***X**$$%Xoo%******&.;;",
";;;;;;;;;;;;;;OX*********************o $********************&O;;",
";;;;;;;;;;;;;:X***********************X=********************$.;;",
";;;;;;;;;;;;;-o***********************o$********************=.;;",
";;;;;;;;;;;;;-o***********************@=********************&.;;",
";;;;;;;;;;;;;-o***********$***********o&********************o-;;",
";;;;;;;;;;;;;-o**********o o**********+=*******************oO;;;",
";;;;;;;;;;;;;-o*********oO;Oo*********o&*****************=XO;;;;",
";;;;;;;;;;;;;-o********oo;;;oo********+&*****************oO;;;;;",
";;;;;;;;;;;;;-o======&o.;;;;;.o$==&===o$=&==&=&&*====&=&oO;;;;;;",
";;;;;;;;;;;;;;........O;;;;;;;O......X... ..... .. ...X.-;;;;;;;",
";;;;;;;;;;;;;;;;;;;;;;;;;;;;;;;;;;;;;;;;;;;;;;;;;;;;;;;;;;;;;;;;",
";;;;;;;;;;;;;;;;;;;;;;;;;;;;;;;;;;;;;;;;;;;;;;;;;;;;;;;;;;;;;;;;",
";;;;;;;;;;;;;;;;;;;;;;;;;;;;;;;;;;;;;;;;;;;;;;;;;;;;;;;;;;;;;;;;",
";;;;;;;;;;;;;;;;;;;;;;;;;;;;;;;;;;;;;;;;;;;;;;;;;;;;;;;;;;;;;;;;",
";;;;;;;;;;;;;;;;;;;;;;;;;;;;;;;;;;;;;;;;;;;;;;;;;;;;;;;;;;;;;;;;",
";;;;;;;;;;;;;;;;;;;;;;;;;;;;;;;;;;;;;;;;;;;;;;;;;;;;;;;;;;;;;;;;",
";;;;;;;;;;;;;;;;;;;;;;;;;;;;;;;;;;;;;;;;;;;;;;;;;;;;;;;;;;;;;;;;"
};
