/* XPM */
static char *Drama[] = {
/* columns rows colors chars-per-pixel */
"64 48 16 1",
"  c #381B53",
". c #3D1F62",
"X c #482970",
"o c #563F69",
"O c #583494",
"+ c #72529C",
"@ c #7745D4",
"# c #6D3DC6",
"$ c #8B6DAD",
"% c #9261E9",
"& c #A693AB",
"* c #B49EDA",
"= c #C5B5B8",
"- c #C6B6E2",
"; c #DBDBDC",
": c #DFD7EA",
/* pixels */
";;;;;;;;;;;;;;;;;;;;;;;;;;;;;;;;;;;;;;;;;;;;;;;;;;;;;;;;;;;;;;;;",
";;;;;;;;;;;;;;;;;;;;;;;;;;;;;;;;;;;;;;;;;;;;;;;;;;;;;;;;;;;;;;;;",
";;;;;;;;;;;;;;;;;;;;;;;;;;;;;;;;;;;;;;;;;;;;;;;;;;;;;;;;;;;;;;;;",
";;;;;;;;;;;;;;;;;;;;;;;;;;;;;;;;;;;;;;;;;;;;;;;;;;;;;;;;;;;;;;;;",
";;;;;;;;;;;;;;;;;;;-;;;;;;;;;======;;;;;;;;;;;;;;;;;;;;;;;;;;;;;",
";;;;;;;;;;;;;;;;;;;;;;;;;;;;;;====&=;;;;;:;;;;;;;;;;;;;;;;;;;;;;",
";;;;;;;;;;;;;;;;;;;;;;;:;;;;;;===&=&&=;:::;;;;;;;;;;;;;;;;;;;;;;",
";;;;;;;;;;;;;;;;;;;-:::;;;:;;;;===&&&==::::;;;;;;;;;;;;;;;;;;;;;",
";;;;;;;;;;;;;;;;;;;:::::::::;;;;==&&&&&==;=;::;;;;;;;;;;;;;;;;;;",
";;;;;;;;;;;;;;;;;;;::::::::::;;;=&&&&&&&&=-*-:;;;;;;;;;;;;;;;;;;",
";;;;;;;;;;;;;;;;;;;:::::::;;;;;;==&&&&&&&**%*:::;;;;;;;;;;;;;;;;",
";;;;;;;;;;;;;;;;;;;:::::::=;;;;;==&&o&$&&*%%%*;:;;;;;;;;;;;;;;;;",
";;;;;;;;;;;;;;;;;;;:::::::;;;;;;;;;=&o&&&$@%%%::;;;;;;;;;;;;;;;;",
";;;;;;;;;;;;;;;;;;:----:::;;;;;;;;;;&o$$+$#@%%-:;;;;;;;;;;;;;;;;",
";;;;;;;;;;;;;;;;:::----:-::;;;;;;;;;=+o+$*##%%%:;;;;;;;;;;;;;;;;",
";;;;;;;;;;;;;;;;:::--------;;;;;;;;;;&+&*-##@%%:;;;;;;;;;;;;;;;;",
";;;;;;;;;;;;;;;;;;:---*****:::;;;;;;;*#*--O##%%;;;;;;;;;;;;;;;;;",
";;;;;;;;;;;;;;;;;;:-*******:::;;;;;;;**-:*XO#%%;;;;;;;;;;;;;;;;;",
";;;;;;;;;;;;;;;;;;;-**%%*%%;:;;;;;;;;;-::$.OO#%;;;;;;;;;;;;;;;;;",
";;;;;;;;;;;;;;;;;;;-%*%%%%%;;;;;;;;;;::::X.OO#%;;;;;;;;;;;;;;;;;",
";;;;;;;;;;;;;;;;;;;%%%%%%@%;;;;;;;;;;:::+ .OO#%;;;;;;;;;;;;;;;;;",
";;;;;;;;;;;;;;;;;;;%%%%%%@%;;;;;;;;;;*-$  .XOO-;;;;;;;;;;;;;;;;;",
";;;;;;;;;;;;;;;;;;:%@%%%%@$;;;;;;;;;$@#  ..XO#;;;;;;;;;;;;;;;;;;",
";;;;;;;;;;;;;;;;;;-%@%@%@@#-;;;;;;;-+.   ..XO&;;;;;;;;;;;;;;;;;;",
";;;;;;;;;;;;;;;;;;;##@@###O=;;;;;=&+      XX+;;;;;;;;;;;;;;;;;;;",
";;;;;;;;;;;;;;;;;;;######OOOOOXXXX        XX*;;;;;;;;;;;;;;;;;;;",
";;;;;;;;;;;;;;;;;;=OO##OOOOOX...  .       .&;;;;;;;;;;;;;;;;;;;;",
";;;;;;;;;;;;;;;;;;;OOOOOOOOXXX...         &;;;;;;;;;;;;;;;;;;;;;",
";;;;;;;;;;;;;;;;;;=OXOOXOXXXX...        o=;;;;;;;;;;;;;;;;;;;;;;",
";;;;;;;;;;;;;;;;;;;XXXXXXXXX....       o;;;;;;;;;;;;;;;;;;;;;;;;",
";;;;;;;;;;;;;;;;;;;X............    oo=;;;;;;;;;;;;;;;;;;;;;;;;;",
";;;;;;;;;;;;;;;;;;;oXoooXoooooooo+&&;;;;;;;;;;;;;;;;;;;;;;;;;;;;",
";;;;;;;;;;;;;;;;;;;;;;;;;;;;;;;;;;;;;;;;;;;;;;;;;;;;;;;;;;;;;;;;",
";;;;;;;;;;;;;;;;;;;;;;;;;;;;;;;;;;;;;;;;;;;;;;;;;;;;;;;;;;;;;;;;",
";;;;;;;;;;;;;;;;;;;;;;;;;;;;;;;;;;;;;;;;;;;;;;;;;;;;;;;;;;;;;;;;",
";;;;;;;;;;;;;;;:;;;;;;;;;;;;;;;;;;;;;;;;;;;;;;;;;;;;;;;;;;;;;;;;",
";;;;;;;;;;;;**=-;;;;-***;:;;;;;-;;;;;=;;;;-;;;;;=;;;;;;;;;;;;;;;",
";;;;;;;;;;;*#$$$$;;;$#$$+&;;;;$+;;;;&+=;;&O&;;;&O$;;;;;;;;;;;;;;",
";;;;;;;;;;;&$;;;$$;;$*;;*#-;;;++$;;;&++;;OO&;;;++O;;;;;;;;;;;;;;",
";;;;;;;;;;;*$;;;-+-;+&;;=+;;;+$;O;;;+++&$+O&;;*o;o$;;;;;;;;;;;;;",
";;;;;;;;;;;*$;;;;+*;$&;+O&;;-O*;O$;;$+;oo;O&;;++;&O;;;;;;;;;;;;;",
";;;;;;;;;;;&+;;;*O=;+$;O+;;;&XoOXo;;++;$&;o$;=ooOOo&;;;;;;;;;;;;",
";;;;;;;;;;;&O==&O$;;O$;=O&;;X&=*=X&;++;;;;O&;$O===$o;;;;;;;;;;;;",
";;;;;;;;;;;&OOOO&;;;+&;;&X;&O;;;;&O;$+;;;;+&;O&;;;;o;;;;;;;;;;;;",
";;;;;;;;;;;;;;;;;;;;;;;;;;;;;;;;;;;;;;;;;;;;;;;;;;;;;;;;;;;;;;;;",
";;;;;;;;;;;;;;;;;;;;;;;;;;;;;;;;;;;;;;;;;;;;;;;;;;;;;;;;;;;;;;;;",
";;;;;;;;;;;;;;;;;;;;;;;;;;;;;;;;;;;;;;;;;;;;;;;;;;;;;;;;;;;;;;;;",
";;;;;;;;;;;;;;;;;;;;;;;;;;;;;;;;;;;;;;;;;;;;;;;;;;;;;;;;;;;;;;;;"
};
