/* XPM */
static char *Erotik_Sat[] = {
/* columns rows colors chars-per-pixel */
"64 48 16 1",
"  c #510527",
". c #690F28",
"X c #611828",
"o c #6A2A4A",
"O c #6A535F",
"+ c #3B1326",
"@ c #9B5861",
"# c #D9695D",
"$ c #933242",
"% c #9C7189",
"& c #E58D72",
"* c #B39AA5",
"= c #D9A39E",
"- c #DBD9DA",
"; c #EADEE4",
": c #D0BAC3",
/* pixels */
"------------------;-----;----------;----------------------------",
"-----------------;--;-----;-;;-;----------------;--------;---;--",
"---@@@@@@@@@@@@@@@@#@@@@@@@@#$$$$o$OoO@------;------------;---;-",
"---XXXX.XXXXX.XX...........X.........XX@:;-----;--;--;----------",
"--:oXXXX.....$....$............$...$.....@*;--------------------",
"--:XXXXX.........$..............$$........XO*------;;-;------;--",
"---oXXXX.$.$...................$..........XX+%:------------;----",
"---oXXX...........................$..$...XXXX+O*------------;---",
"--:$.X.X...$..................................ooO*--------------",
"--:$XXX............ ...............$......... o*O+O*-----;---;--",
"--:$.XXX........... .... .....................X@*OOOO*----------",
"---$.XXX...$.... . .ooo$$$$................... .--*OOOO*--------",
"---$.$..............$@%%*==###$$$..........  .. O;--*%OOO:-;----",
"---$....$.........oo@%%**::::=####$$............+*;;;-*OOO*--;--",
"--:X............ooo@@%%=::;;;;:%$#####$$...... .X+*-;;--*O+O:---",
"---X............oooo@%%*::;;;;;;#$#######$..  . X O*:;;-O++++---",
"--:XXXXXX.........oo@%%*=:;;;;;;:@o$########$... ..oO%@oX..  *--",
"---XXXXX$.......XXo$@@%%*::;;;;;;*..$@#=#####$..    .XX ..  X=--",
"--:oXXXX....$..$o.o$#@@%%*::;;;;;:@ .$$#=&#####$.       .   o:--",
"--:XXXXXX.......oo$@$#@@%%**:;;;;:%...o$#==&###&$...        o---",
"--:XXXXX.......X.oo@##$$%%%*=::-::%o ...$&==####=$...      +X:--",
"---$XXXX.......ooo.##$#$@%%%**::::*o .  $$===##=#=$..   +   o:--",
"---$XXXX.......o.oo#####o@@%%****=%$ ....$&===$&&=#.    + + o---",
"---$XX$X.......X.o.#####$o$@@%****%o ....$#===$#=&=$  + + ++X:--",
"---$X$XXXX.....Xooo##@&=##@#@@@%%%%o .. ..#&&&.@&&&# +++   + :--",
"---XXXXXXX......ooo#%o%:&&=&=&@%%@@o  . .$&&=# @&&&#  +  ++ X:--",
"--:XXXXXX.....XXoo@=@oO:-=&O@@*&#=@..   .#&&&$.#&&&$  +  +  X:--",
"---XXXXXX......X.o$ooooO@ooooooo$@o.   $#&&#$X$#&&#. ++++  +X:--",
"--:XXXXX..X....Xo. oooooooooooooo   .$@#&##...###&$. ++   + X:--",
"---XXXXXXXX...  .ooooooooooooooXo.$$@###$$..$####$ . +++ + +X:--",
"---XXXXX$XX....  ooooooo$O$$@@@@$@@#@$$...$$###$.    ++++ + +:--",
"--:$XXXXX.X....   ooooooooOooooX.oo.o..o$$##$$oX    ++++ +  +:--",
"--:$X.XXXXXXX ++o+ +oooooooooXXX$ooo$$@@$$$oXX + +++++++++ + *--",
"--:$.XXXXXXXXXoooooooo +ooooOO@O$@@oooooOOO+ +++oooo+++++++  *--",
"--:$X$.XXXXXXO@%%%%%Oooo++OO@%%%%%%%oo@%%%%OOo+oO%%Oo++ + + +*--",
"---$XXX..XXX$@*:::::%OOO%O@**:::::*%%O%**::*%OO%%*:%O+++ + +X=--",
"---$XX.XXXXXO&:-:---:******-----;:;:*%*--=--****:-;*Oo++    X:--",
"--:O.XXXXXXX$*-@oOO:;;-----:O-%@:$-;::::OO@:-----%::%o++++  +*--",
"--:$..XXXXXX$%:@$**-%@==@%-%$&@@:$=@-;;%$@@-:@@=*.@:*o++ ++  *--",
"---XXXXXXXX$@%-@@%*:$#:@=@%*$:*@:$$%;%*;&@#:=@@@:@%:%O++   + *--",
"--:OXXXXXXXX@*-##==-@:-@*#*:#:&&:###-*==@=@=&@&@-@=-%O+++ +  *--",
"--:$XXXXXXXo@%-=&##:&=-=&*::&&==:&:#:--:&#&:=*&*:*&:*O++ +  +*--",
"---OXXXXXXXX$%***:******::****::*:****%*::**::*:*=**%O++   + *--",
"--:XXXXXXXX+XOO@@OO%O@OOO%OOOOOOOO@OOOOOOOOOOOOOOOOOO+++ ++  *--",
"--:XXXXX+++++++O+++oo+++++++O+++o+O++O+++O+++O++X++O++++ + ++*--",
"--:@@@@@OOOoOOOOOOOOOOOOOOOOOOOOOOOOOOOOOOOOOOOOOOOOOOO+XoooX:--",
"----------------------------------------------------------------",
"----------------------------------------------------------------"
};
