/* XPM */
static char *FDF[] = {
/* columns rows colors chars-per-pixel */
"64 48 15 1",
"  c #3BA938",
". c #41AB3E",
"X c #4FB04D",
"o c #61B75E",
"O c #6EBA6C",
"+ c #77C375",
"@ c #91CA8F",
"# c #A0C99F",
"$ c #AFD1AE",
"% c #BCE1BB",
"& c #C0E4BF",
"* c gainsboro",
"= c #D3ECD3",
"- c #E0F1DF",
"; c #FBFDFB",
/* pixels */
"****************************************************************",
"**************************$@OoXXXoOO#$**************************",
"***********************$OX           .o+$***********************",
"*********************#o                  o$*********************",
"*******************$o   X              .   O=*******************",
"******************@                          @******************",
"*****************o                            +*****************",
"****************o                              o****************",
"**************=X                                O***************",
"**************o                                  O**************",
"*************+                     .              @*************",
"************$                                      %************",
"************o                 o@@@@#@##@@@X        o************",
"***********@ .              .=;;;;;;;;;;;-        . $***********",
"***********X                %;;;;;;;;;;;;+          o***********",
"**********#                X;;;;;;;;;;;;$            $**********",
"**********O                @-;-;;-;-;**@           . +**********",
"**********.                 X.X.XXX.X                X**********",
"*********#                                            $*********",
"*********O                +----$                    . @*********",
"*********o                =;;;;@                      O*********",
"*********X               X;;;;;X                      o*********",
"*********                @;;;;=XXX X                  X*********",
"*********                =;;;;;;;;;-o                 X*********",
"*********               X;;;;;;;;;;-X                 .*********",
"*********               O;;;;;;;;;;#                  X*********",
"*********X              =;;;;-=-==-o                  o*********",
"*********o             X;;;;;o                        O*********",
"*********O             O;;;;-                         @*********",
"*********#           . %;;;;#      +$#X               $*********",
"**********            .;;;;;o     +;;;-X             X**********",
"**********o           O;;;;-      =;;;;$           . O**********",
"**********#           $;;;;#      =;;;;$             $**********",
"***********X         X;;;;;o      +;;;;o            X***********",
"***********@         X==*=%        +%%+             #***********",
"************X                                      o************",
"************#                                      $************",
"*************O                                    @*************",
"**************X                                  O**************",
"***************X                                o***************",
"****************X                              o****************",
"*****************o                            O*****************",
"******************O  .                       @******************",
"*******************#X                      o$*******************",
"*********************#X                  X#*********************",
"***********************#O.            XO$***********************",
"**************************$+oX.  .XO@$=*************************",
"****************************************************************"
};
