/* XPM */
static char *Gay_Network[] = {
/* columns rows colors chars-per-pixel */
"64 48 16 1",
"  c #033671",
". c #1D4B79",
"X c #013B83",
"o c #0B4B8D",
"O c #156EAA",
"+ c #276394",
"@ c #537296",
"# c #6A8CAA",
"$ c #2684B9",
"% c #97A6B5",
"& c #A8B8C6",
"* c #DADADA",
"= c #F1F1F1",
"- c #DFE0DF",
"; c #CAB8CC",
": c #CE6B99",
/* pixels */
"****-**-*-*-**-**-***-****-*-***-**-***-*-***-*-**-*-**-**-*--*-",
"***-**-*****-**-*-*-****-**-**-*-**-*-*****-***--**-**-**-******",
"**-*****--***--*-----*****-***-***--*--****;-***--*-*****-*-*--*",
"-*ooooXooXoooXooooooooooooooooXooooXoXoooooooooooXoooooooooooo-*",
"*-oooXXXXoXoXooooXXXXXoooooooXoXXoooooXooooooooooooooooooooooo--",
"**XXoX.ooooXoXXX@##%##@+XXoooooooooooooooooooooooooooooOoooooo-*",
"-*XoXXooXoooX+%*========&@XooooXXXooooXXXoooooooXXXooooooooooo**",
"*-oXooXoXooX@=============&oXoX@;;;;;;;;:@;;;;;@;;;;;&;&OoOooo*-",
"**XooXoXoXo;================@oX#=========@%*;;;:========oooOoo**",
"**ooXooooo*==================@ @=========-@;;;:#-=======oooooO*-",
"-*oXXoXoX;====================+@==========#@:::@-=======+ooooo*-",
"-*XooXXX%=====================#@===========@:::@=======-ooOooo-*",
"**oXXoX+=========%@@@%-====*#. @===========;@::@-=======oooOOo*-",
"-*XoooX%=======*.     .%=*@. . #============@@:@-=======+ooooO-*",
"--o.oX+-======*  oooooo .  ooo #============-+:@=======-+ooooo**",
"--XXoX@=======. o.ooo.oo ooooo #=============&.@-======-+oOoOO*-",
"-*XXo #====-=% oooooo%;;;&&;&&&*==============#+-======-ooOoOo**",
"*-oXo %=-====@ ooo.o.;===========-============&+-======*+ooooO**",
"--.XXX%===-==@ oooooo;=====-==-==-==-==--====-=%*====-=*+oOOoO-*",
"**XXXX%==-===@ oooooo*==-=-====--==-=-=%&=-=-=-=-=-==-=*+oOoOO-*",
"*-XoXX@==-===% oooooo*===--==---===-=-=%.-=--=-==-=-=-=*oOOOoo**",
"--oXoX@=-=--=*.oo.ooo@##@*=--=-----==-=% #=-=-=-=--==-=*+oooOO**",
"**oXoXo*-----=% ooooo   @--=-----=----=%o.&=-------=--=*+ooOOO**",
"*-XXXoX%=------%o ooooo@-=-------------%.++------------*+OOoOO**",
"--.XXo.@-*--***-*@++.@%-----**-*--****-%.Oo#--**********+OOoOo**",
"**XXoXX %-*******-**;*-******-*@-*****-%.Ooo&-**********+OOOOO**",
"-*XoXXoX.;************;******-@+-*****-%.O+o+**********;+OOOOO**",
"*-oX.oXo @;*;****************# #-******%oOoO+#**********+OOOOO**",
"*-Xoo.XXo @;*;*;;****;***;**# o#*;*&;;*%.OOOO+%*&*;**&*&+OOOOO--",
"**XoXXX.Xo .%***;;*;*;*;**&@ .o#*******%.OoOO++*****;***@OO$OO--",
"--.XXXoooXoX @;;*******;&@. ...+@@@@@@@+.OoOO+O+@@@@#@@@OOOOOO--",
"**XXooXoXoooo  .@%%%%%#@. .....o. o..o..O+O+OOOOo...+oOOOOOO$O*-",
"**oXX.oXoooXooo        XoOoooOooooO+OOO+O+O+OOOOOOO$$O$OO$O$OO**",
"**oXXoXoooXoooooooooooooooooooooOooooOoOO+OOOOOOOOOO$$O$$O$OO$**",
"-*.Xoooo  Xoo  .oooooooooooooOoooOo+OooOOO+OOOOOOOOO%%O$O$OOO$**",
"-*oXoXXo#@ooo@#.oo+oo+oooO#@oo+#@o$*++Oo+OO$+O##OO$#%#O$$O$$$$**",
"**oooXo;%%% #&%;+o&o+&.oo&%&#+&#&##-#%#o*#+&$&%&&O&%%##%OOO$$O**",
"*-XXXX@%  %@&  @%o&.+&.o@& #%%%@#*+% +&@-#####.o&#%.#&*+O$$O$$**",
"-*oXo @%  %@%. #*.&.o&.o@% $%%%@#@+&oo&*#%*+#%oO&#%+%%#&O$O$$$**",
"**ooooo%&%*@#&%%%@%&%&.X#% @%.&#%.o%&o#-.%&.+&%&#@&o%#+&$O$$$$**",
"*-o.XoX.@.%@ .#  . +@&..+.oO..+#@.O.+.o..+.oOo#@.O+OO+O$+$$$$$**",
"-*oooX@&@#% .  .o#%@&@ oooooooo .ooOooOOOOoOOOooOOOOOO$O$$$$$$**",
"**o.ooX@%# o.oooo.#%@ ooOoOoOoOOOOOOOOoOOOOOOOOOOO$OOOO$$$$$$$**",
"-*ooooo   .ooooooo   ooooooooOOoooOoOoOOOOOOOOOOOOOOOO$OOO$$$$**",
"-*oooooooooooooooooooooOoOoOOoOOOoOOOOOOOoOOOOOOOOOOOO$OOO$$$$**",
"*-*****--*-----*---*--**-**********-**************--*-*--*******",
"*--****--***---*---**-***-****-***************--***--**---******",
"-***--****--*-*---*-**-**-********-*************--***-**-*******"
};
