/* XPM */
static char *ID[] = {
/* columns rows colors chars-per-pixel */
"64 48 16 1",
"  c #010101",
". c gray4",
"X c #181818",
"o c gray17",
"O c gray21",
"+ c gray28",
"@ c #585858",
"# c #686868",
"$ c #797979",
"% c gray53",
"& c #989898",
"* c #AFAFAF",
"= c gray78",
"- c gainsboro",
"; c gray90",
": c gray99",
/* pixels */
"----------------------------------------------------------------",
"----------------------------------------------------------------",
"-----------------------------------------*%=--------------------",
"-------------------------------------*%@Ooo*--------------------",
"---------------------------------*&#OooooOO#--------------------",
"-----------------------------=&#+oooooOooOo+--------------------",
"-------------------------=*#+ooooOOooooooooo*-------------------",
"----------------------*$+ooooooOoooOooOoOoOo&-------------------",
"------------------*%@OooooOOoOooooOOooooooOO#-------------------",
"--------------=&#OoooOoOOooooooooooXo@#$#+ooO-------------------",
"------------#+oooooOOOooooooOoooo+#*-:::::=#o*------------------",
"------------OoooOOoooooOOooooO#&=:::::::::::&%------------------",
"------------$OOooooooooooOo+=;:::::::::::::::=------------------",
"------------*ooooooOoO@&*Oo@:::::::::-=-::::::------------------",
"-------------OoOoOOo#-:::#oO;:::::*%@+OO$:::::------------------",
"-------------#oOoOOo#::::&Oo*::::%oOO+++o#::::;-----------------",
"-------------%OOOOOOO::::-OO$::::*O+++++@O*:;::-----------------",
"-------------*OOOOOOo=::::@O@::::;+++++@+.+:::;-----------------",
"--------------++OOO+o&::::%OO-::::#++@+o  .-;;:-----------------",
"--------------#O+O++O#::::*+O&::::&++o     *:;;;----------------",
"--------------&O+++++O;:::;++#::::=o.      %;--;----------------",
"--------------=O+++++O*::::#++:::;=.       &;-------------------",
"---------------+++++@O%::::&+O*;---+     . *----*---------------",
"---------------$++++++#::::*X @-==-$ .    #--=-=@---------------",
"---------------&O@+@@@+--=**  o=*==*    o$-===-%.=--------------",
"---------------=O@+OoX #****O  &****OO#&*=***=*X &--------------",
"----------------+X.    O*&&*@  #**&***********O  #--------------",
"----------------%      X%%%&#  O&&&&&&&&&&&*%o   o--------------",
"----------------*       #%%%$X X%%%%%&&&%$#o      =-------------",
"-----------------o      O$##$o  @$$%$#@OX         &-------------",
"-----------------@      o#@@#+  O#@OX             @-------------",
"-----------------&       @@@@+   .                X-------------",
"-----------------=.      O+OX.                     *------------",
"------------------O                            .O$*-------------",
"------------------#                         o#&----*------------",
"------------------*                     o@&----#&#@@=-----------",
"------------------=X                X+&*--*%%%#*###O&-----------",
"-------------------+            X+%*--=-%&&O=##%#&*-------------",
"-------------------$        .O#*=--*=##-#o=#*%=&=-==%-----------",
"-------------------*     o#&---**+#$#$%##%%=--*=$#%+@-----------",
"--------------------XX@%=---%%%+**$*#%#&----*#@*#+&*#-----------",
"--------------------=---*&*#+$*#+-%-*---$$$$$%+&##%-*-----------",
"--------------------=*@%$$+*#@*%&--*-#$$&&$@+=+$=---------------",
"--------------------*#@+O-+***=--*##&#-%##&-*-------------------",
"---------------------#%*&=----@#$#&###@***----------------------",
"---------------------=--------@=#$&#*-=-------------------------",
"------------------------------$+*=------------------------------",
"----------------------------------------------------------------"
};
