/* XPM */
static char *ITV2_HD[] = {
/* columns rows colors chars-per-pixel */
"64 48 16 1",
"  c #EE273B",
". c #ED162A",
"X c #EC3749",
"o c #ED3648",
"O c #EB4656",
"+ c #EB5866",
"@ c #EA6976",
"# c #E97A85",
"$ c #DFBBBE",
"% c #E98B94",
"& c #E59AA2",
"* c #E4AEB3",
"= c #DFBEC1",
"- c gainsboro",
"; c #DEC7CA",
": c #FCD8DC",
/* pixels */
"----------------------------------------------------------------",
"----------------------------------------------------------------",
"----------------------------------------------------------------",
"----------------------------------------------------------------",
"----------------------------------------------------------------",
"----------------------------------------------------------------",
"----------------------------------------------------------------",
"----------------------------------------------------------------",
"----------------------------------------------------------------",
"----------------------------------------------------------------",
"----------------------------------------------------------------",
"----------------------------------------------------------------",
"----------------------------------------------------------------",
"----------------------------------------------------&+XXO#$-----",
"--------------------------------------------------;+    . X&----",
"----------------------------------------;--------;O        .&---",
"-------------------------------------------------@   o   oo o$:-",
"------------------------------------$&###&$-----; .$+.. ..*#.#--",
"---------------------------------=#O      o@=---& .;*%O.+%:%.X--",
"--*OO*--------------------------*       o   X;--%o.;**:o:#:%.o--",
"--X  O----#XX%------------------&            @--%  ;@O:+:.*%.o--",
"--X  O----o  O-------------------X  @&==#    o;-* .:#+:o:&:%.+--",
"--*++$----X  O-------------------#O$-----+    =--O.+oo+.O%#X &--",
"----------X  O-------=------;----------;-@   o;--* .  .o .. @---",
"--OXX+----X   XXX;-$+ @-----@O%---------;X   X----%    oo o+;---",
"--o  X----X      =-X   *---;X @---------@ o o%-----*+o   X#-----",
"--X  O----X  O&%&--@   O---&  $--------#    +--------=*&$:------",
"--X  X----X  O-----;    %--+ O-------;+  o +;-------------------",
"--X  O----X  O------    X-$  &------$O    @;--------------------",
"--X  X---;   o;----&     #@ O------%    o%----------------------",
"--@ o %-;@    O$;;&X OX     $----;+    X$-----------------------",
"--;X   Xo  o    X   X;&    @----$X     XXXXXXX=-----------------",
"---;@X   X@;&+X.  X@;--@ .O;----%             &-----------------",
"-----;$$$-----;$$$------$$------$             *-----------------",
"---------------------------------@XXXXXXXXXXXX;-----------------",
"----------------------------------------------------------------",
"----------------------------------------------------------------",
"----------------------------------------------------------------",
"----------------------------------------------------------------",
"----------------------------------------------------------------",
"----------------------------------------------------------------",
"----------------------------------------------------------------",
"----------------------------------------------------------------",
"----------------------------------------------------------------",
"----------------------------------------------------------------",
"----------------------------------------------------------------",
"----------------------------------------------------------------",
"----------------------------------------------------------------"
};
