/* XPM */
static char *ITV4+1[] = {
/* columns rows colors chars-per-pixel */
"64 48 16 1",
"  c #7D959F",
". c #77909A",
"X c #738D98",
"o c #7E96A0",
"O c #859BA4",
"+ c #92A5AD",
"@ c #A7B5BA",
"# c #A0AFB5",
"$ c #B2BDC1",
"% c #BAC3C7",
"& c #CACED0",
"* c gainsboro",
"= c gray86",
"- c #D4D6D7",
"; c #C6CCCF",
": c #F2F4F5",
/* pixels */
"****************************************************************",
"****************************************************************",
"****************************************************************",
"****************************************************************",
"****************************************************************",
"****************************************************************",
"****************************************************************",
"****************************************************************",
"****************************************************************",
"****************************************************************",
"****************************************************************",
"****************************************************************",
"**********************************************************==****",
"****************************************************%+OO+@&==***",
"************************************************=*-+      O%*=**",
"**************************************=====****==-+         %***",
"*************************************************#  ooooXoooo&**",
"**************************************%@@@%=****-   oooo%:+ o@**",
"****==*****=*************************%  ooo&****%   ++X;::#.o+**",
"**%++;*****==***********************=Ooooo$*****@ O.%&ooo:+.oo**",
"*=O  O**==@OO@**********************$oooo+==****@O.&::-oo:+.oo**",
"*=O  +**==O o+*********************-ooooo;==****; O.;-.oo:#.o+**",
"**;##&*=*=O O+*******=*************#oooo@*-******+ .++.oo%+oo%**",
"**===****=O  +===****-******=*****&ooooO=********;  ..oooooo#***",
"**+OO+***=O   OOO-=;+O#=====#O$***+oooo;=;#++@=***%oooooooo+=***",
"**O  O***=O     o-*O   ;==*-O #**;  oo@*=@oooo%****%#oooo+%*****",
"**O  +***=Oo +%$%-*# O +=**% O&*=+ o O===%oooo%***=**-%%%*******",
"**O  +***=Oo +*****-    %**+ +**% oo %---%oooo%****=************",
"**OO +***=Oo +*====-O o O-;  ;==%    OOOoooooo%********=********",
"**Oo O***-o  o-****%   o @# +===&       oooooo%*****************",
"**#oO @=-#o o +;--%O OO     ;====+      oooooo%*****************",
"**-O   OOooO    OO  O-%o O #======&&&&&&;$oooo%*****************",
"***-#O   O@-%+O   O@-**#  +-*************% oo ;*****************",
"*****-&&&-=***-&;&-*==**&;-*******======*@    %*****************",
"*******************=******************==*;+OO+-*****************",
"****************************************************************",
"****************************************************************",
"****************************************************************",
"****************************************************************",
"****************************************************************",
"****************************************************************",
"****************************************************************",
"****************************************************************",
"****************************************************************",
"****************************************************************",
"****************************************************************",
"****************************************************************",
"****************************************************************"
};
