/* XPM */
static char *ITV_+1[] = {
/* columns rows colors chars-per-pixel */
"64 48 16 1",
"  c #030403",
". c #2A2B2A",
"X c #62655F",
"o c #02BECA",
"O c #20C3CD",
"+ c #4AC2CA",
"@ c #8D7A13",
"# c #C80565",
"$ c #DB5936",
"% c #FEAC04",
"& c #F7B12F",
"* c #B69E44",
"= c gainsboro",
"- c #E9E9E9",
"; c #B6B6AA",
": c #D1649A",
/* pixels */
"================================================================",
"================================================================",
"================================================================",
"================================================================",
"================================================================",
"================================================================",
"================================================================",
"================================================================",
"================================================================",
"================================================================",
"================================================================",
"================================================================",
"================================================================",
"==-;Oo+=============================================;X  .X======",
"=-+oooo+========;;;================================.       ;====",
"=-Oooooo======;    .;=============================.         ;===",
"==OooooO======X     ;============================X          .===",
"==+ooooO======X     ;============================       X;.  X==",
"===+ooO=======X     ;===========================;      ;--.  .==",
"==============X     X===========================X   XX ..-.  .==",
"==============X     ;=======================-===X  X--; .-.  .-=",
"==+OoOOO=====-X      ... ;====:##:========;%&;==;  .;;. .-.  .==",
"==Oooooo======X          ;==;#####;=======&%%%&==   XX   ;.  X==",
"==Oooooo======X          ;==:#####$======-&%%%===X          .===",
"==Oooooo======X     .  . ;==:#####$&-===-=%%%&====.         ;===",
"==Oooooo======X     ;========#####$%=-==-&%%%;=====X       ;====",
"==Oooooo======X     ;========;####$%&====%%%%=======;X..X;======",
"==OooooO======X     ;========;$###%%%===;%%%&-==================",
"==Oooooo======X     ;========;@###%%%&==&%%%====================",
"==Oooooo======+    .*========*@$#$%%%%==%%%&====================",
"==+ooooo+=====o    .*;======;@@@#%%%%%&&%%%=====================",
"==+OooooO====+oX   @@*;-===;@@@@*%%%%%%%%%&=====================",
"===OoooooO++Oooo. @@@@@***@@@@@@=;%%%%%%%%======================",
"====OooooooooooooX@@@@@@@@@@@@@===&%%%%%%;======================",
"=====OoooooooooO==*@@@@@@@@@@*====;%%%%%&=======================",
"=======+OOOO++;=====;**@@@*;=-=====;&&&&========================",
"========-===============-=======================================",
"========--======================================================",
"================================================================",
"================================================================",
"================================================================",
"================================================================",
"================================================================",
"================================================================",
"================================================================",
"================================================================",
"================================================================",
"================================================================"
};
