/* XPM */
static char *Kix_Power[] = {
/* columns rows colors chars-per-pixel */
"64 48 16 1",
"  c #2A5B2E",
". c #586F57",
"X c #283D26",
"o c #18B43D",
"O c #1D8D33",
"+ c #1ABC41",
"@ c #2AB049",
"# c #1CC745",
"$ c #688E6B",
"% c #53C36D",
"& c #7CBE8B",
"* c #A0A49F",
"= c gray86",
"- c #E8E7E8",
"; c #ADC7B2",
": c #85867C",
/* pixels */
"=====-=======-==-=====================================-=======-=",
"=========================-=====-=======-===-====================",
"=========-==============-=====-============-===-==-=======-=====",
"============-========-=============-============================",
"=======-==============-================================-====-===",
"====-=====-========-=================-=======-=======-===-======",
"=-================-=============-===============================",
"==============-============-=-======-====-======-============-==",
"========================================-=====-===-==-======-===",
"========-====-==================================================",
"================$ .$===============-====================-=======",
"-==============. $. :======$.$*==========-=====-=============-==",
"====**;=======. .   .;====$  ...*================-====-=========",
"===.X....;===...X#+X.$===;X$X O..$;========================-====",
"==.X.XXX..$=. $X+++OX$:==. .X#oo $ :======-=-=================-=",
"==X.*=*.X .  $Xo++o#X  =;X$Xo+o#+O..$;=================-========",
"==X.*==-*X.X$X+#+++#+X.$. .X#o+oo#O ..;=========-===============",
"==X.:===:X..Xo#+++++#  .X$Xo#o++oo#XX$.;==-===-=================",
"==X :===:X$XO#o+++#+##X.$  #+++o++$X;*..;========-==============",
"==. .==-:XXO+o+++++++# X%Xo+oo++@%;:==*..;====================-=",
"==. $===:XO++++++++##+#XX +o++++%-:*===*..;============*::*=====",
"==: .==-: +o++@@#+++++#+X++o+++@;;:====:.. ===========$Ooo ;====",
"==*X.;==:O@++%@@++##+#++O+++++@;=:*-==::. ;=========* o#+#O;====",
"==*X.;=-$.=&%;;*@+#&#+++++++++&==.=-=$$  ==:..;====; ###+#O;===-",
"==;X.*=-.:====--&%+#+++++++++%==:*-;.$X.=== +o.====*O# O##O;====",
"===X *==.:=**==;#%+++++++++o%===::*$$X:-===O#o.====; .:O## ;====",
"===X.*==.:-:*-=*;%++++++++o@===:;:..X*-=--= #o$======== ##O;====",
"==-  :==:=-.;==:==;%o+o+o+++%;;:-=$X===;:::O#o :::====;O##O;====",
"===.X:===*:====:===&++o+oo++oo%*.: *=== @@Oo#+o@oO$===; ##.;====",
"===. :===*:====:==;++++o+++++O+oX .==== ####+####+.===; ## ;====",
"=-=:X$=;:-*:==**=;@+++o+O$@++oO+O$ ====$  OO#+O O :===;O##O;====",
"===*X.;=X*-*:====%++++ooX &@oo+o$..=====;=; #o.;;======O## ;=-==",
"===*X.*=XX==.:*;%ooooo+ .$ $#ooO.X;========.#o$=====;;* ##O*;===",
"===*X.*;XX*..$$ ooooooo .X$.$oO$ .========= #+$====; OO@##oOO.==",
"===;X.*. ..$.X.$OOoooo $  X.$.$. ========== OO$====*O######## ==",
"====X.:$$XXX .X.:$$OOO$..=.X.$. ============**=====* ooOOoOOO ==",
"====*XX X**;==*XX .$::$X===:XX.;========-===========***::*:**;==",
"==-==*.:========*.XXXXX;========================================",
"===================*::;=============-===========================",
"=================================-===========-==================",
"====-========-========================-===============-=========",
"-=============-============-==================-============-====",
"===========================-===-===-=======-======-===========-=",
"=====-==-======================================-=-==============",
"==-====================================-============-==========-",
"========-==========-==========-======-======-===================",
"=======-=====-========-===================================-=====",
"==============-==========-======-========-=========-=====-======"
};
