/* XPM */
static char *Klassik_Radio[] = {
/* columns rows colors chars-per-pixel */
"64 48 16 1",
"  c black",
". c #0A0B09",
"X c #171716",
"o c #213F00",
"O c gray19",
"+ c #152800",
"@ c #274A00",
"# c gray30",
"$ c gray43",
"% c #5BB000",
"& c #6ED400",
"* c #85FF00",
"= c #A2A2A2",
"- c gainsboro",
"; c gray79",
": c #F4F4F4",
/* pixels */
"----------------------------------------------------------------",
"----------------------------------------------------------------",
"----------------------------------------------------------------",
"----------------------------------------------------------------",
"----------------------------------------------------------------",
"----------------------------------------------------------------",
"----------------------------------------------------------------",
"----------------------------------------------------------------",
"----------------------------------------------------------------",
"----------------------------------------------------------------",
"----------------------------------------------------------------",
"----------------------------------------------------------------",
"---###O#O######OOOOOOOOOOOOOOOOOOOOOOOOOOOOOOOOOOOOOOOOO#####---",
"--#               . .   .  .         .  ..      .  .         #--",
"--#                                                          #--",
"--#                                       .oooo.             #--",
"--#                                       @****o             #--",
"--#                                       @****o             #--",
"--#                                       @****o             O--",
"--O                                       @****o             #--",
"--#                                       @****o%%%%%%@      #--",
"--O          X=X   .                      @****o%****%       #--",
"--#     #O ##O:O.#$#X X$#O  #$# X#.#O ##  @****o%***%        #--",
"--#     -$=-OO:O=;$;-.-==-O=-$;=#:.-$=-O  @****o%***@        O--",
"--#     -::$ O:O$;=;:.;:;;O$:-;$#:.-::$   @****o%**&         #--",
"--#     -=$:OO:O:$#;:X;##:$$=#=;#:.-=$:#  @****o%**&         #--",
"--#     =#.$=X=X#;=$=X#===.X===OO=.=# $=. @****o%**%         #--",
"--#        .          .       ..          @****o%**&         O--",
"--#                       .   ==          @****o%***         #--",
"--#              $;=$$---#.$-;;;O-XO;:-$  @****o%***+        #--",
"--O              =:#X$$$;-O:#X-=#:X:=.#:O @****o%***%        #--",
"--#              =; X:=#;-#:X =;#:O:# X:# @****o%****@       O--",
"--#              =; .--=::.-;;:;O:X=:;-;. @****o%*****@      #--",
"--#              XX  XOO.X .OX.X.O. X#O   .++++ +++++++.     #--",
"--#   .                                    .           .     #--",
"--#   ..      ..      ..                   .           .     #--",
"---########$#$#######$#########$##$######$####$#####$###$####---",
"----------------------------------------------------------------",
"----------------------------------------------------------------",
"----------------------------------------------------------------",
"----------------------------------------------------------------",
"----------------------------------------------------------------",
"----------------------------------------------------------------",
"----------------------------------------------------------------",
"----------------------------------------------------------------",
"----------------------------------------------------------------",
"----------------------------------------------------------------",
"----------------------------------------------------------------"
};
