/* XPM */
static char *Lifetime+1[] = {
/* columns rows colors chars-per-pixel */
"64 48 16 1",
"  c #B42A2E",
". c #9C2225",
"X c #B53A42",
"o c #B85154",
"O c #CD2E34",
"+ c #E02D34",
"@ c #D93742",
"# c #D85C5C",
"$ c #DA403F",
"% c #D37C81",
"& c #F28577",
"* c #DAA1A1",
"= c #DCDBDB",
"- c #FDFCFC",
"; c #EED1D1",
": c #D0B0B1",
/* pixels */
"======================;;=============================-==========",
"=====================;**##$###%*================================",
"=========-=========;*##$$$$$O@++X%:=============================",
"=================;;&##$$$$$$$$$$OOX%============================",
"================;*&###$#$#$$$$$$X$X o:==========================",
"================*&&&###$#$$$$#$$$$$X  :=========================",
"===============;*&###$##$$$##$$$O$XO  .:===================-====",
"=============;**&&##*;--;*$#$$#$$O$X    ========================",
"=============**&&##;------&@##@@$XOOO  . ;======================",
"============;*&&##;--------#@@@@$OO     .%======================",
"============*&&##*---------&@@@+@OOO O  . ;=====================",
"===========;&&&##----------&@@@@OOOOOOO  .%=====================",
"==========;&#&##*----------&+@+@@OOOO    .o=====================",
"==========;&####;----------#+@+@O++OOOO   .:====================",
"==========;#####-----------@@@@++OOOOO    .*====================",
"==-=======*####&----------;+@@+++OOOO    ..%====================",
"==========%####*----------*+++@+++OOOOO .X.%====================",
"==========%$##$&----------#+@++@+ ++OO   X.o====================",
"==========%$##+*----------@+@@++OOO   O   .#====================",
"==========*$$++#---------;+@+@+++ OO+O    .%====================",
"==========*OO$O#---------*+@@+O++O +O     .*====================",
"==========: OOXX;--------#+@@+OO ++ OOO   .:====================",
"===-=======X  X.*--------@@@O@*#++ +O     X=====================",
"===========%  X.o-------;@@O#----#  OOO   %=====================",
"============...X.*------;OO$------#OOOO   ======================",
"============o..X  ;-----;OO*------*OOOOOX#======================",
"=====-======:... .o;-----OO*------*OOOOOo=======================",
"=============:... .o;----# #------#+++$$:=======================",
"==============%......*---: O*----;+++$+#========================",
"===============o......X%;-# X#:;&+++$+#=========================",
"================o........ O $ OO++$+$&==========================",
"=================:....      OOO$O+$o*===========================",
"===================%....        O$%=============================",
"=====================*oX....  $#*;==============================",
"========================:::*:;==================================",
"====================================================:====%X=====",
"===================================================* ==:o  =====",
"=====**====%#==%o%======:*===#*===================%o #::%# =====",
"=====  :=== $=#Oo%======#O:=: #===================oX o*==o =====",
"=====X ;===::= $====:===%$:==*=====;===============% ====o =====",
"=====XO;===##:$ X:*X $%=#  X:o*: %o #*$ #:=:# $#====:====% =====",
"=====X :===X :  #* o%o *% o%: #:  #o  oo #=$ %% #===============",
"=====X ;===X$; o=o *:* #% ==:O%: %=: o== o% #::$ ===============",
"=====  :===X : o=o.    %% :=: %: &=: o== o%     X:==============",
"=====  :===X : X=o.%=:*=o :=:.%:.%=: o== o*.o;=:================",
"=====  XXX&X : X=:  oX :* o%:.%:.%=: o==  ;o.o# %===============",
"=====oXXXX%oo;oo==:o X%==o X:X%:o*=:o%==oo=;#  o:===============",
"================================================================"
};
