/* XPM */
static char *MBC_1_(ara)[] = {
/* columns rows colors chars-per-pixel */
"64 48 16 1",
"  c #D3242A",
". c #D43136",
"X c #D53C41",
"o c #D64E52",
"O c #D65D61",
"+ c #D76F72",
"@ c #D87E81",
"# c #D98E91",
"$ c #DAB0B1",
"% c #DA9EA0",
"& c #DBBFC0",
"* c #DBC6C7",
"= c gainsboro",
"- c #DCDADA",
"; c #DCD5D5",
": c #DCCFD0",
/* pixels */
"================================================================",
"================================================================",
"================================================================",
"================================================================",
"================================================================",
"================================================================",
"================================================================",
"================================================================",
"================================================================",
"================================================================",
"================================================================",
"================================================================",
"============================---=================================",
"==========================;+o   X$--============================",
"============================:o   o--===================-========",
"===================---=====-=#   o===================-------====",
"========================-----@   O-;---===========--============",
"==$$$&*===*$&$*;==*%$$$*-----+   +=-=====-=======-===*%##%$-====",
"==#o   o*=$+   X%=$@.   #-===O   @*#+++%:==-====--=%o      X+*==",
"====O   +===#   o===$   .:===o   X  .   .#=--==-=&o    O%$*$#+==",
"==;=# . #=;=*   o====.  X;===X    %;=;%.  O=-===$.   o$=========",
"====@   #=;=$   O=;=*   o===:.   #=====$   #=--:. . o:=--=======",
"====+   $===%   +=-=$   o===*    $--==-=+  .;==+   .*--=========",
"====o   $===# . @===$   +===$    &====-=%   %=*    +=-==========",
"====o   *=;=+   #=;=#   @=;=%   .:======*   @=#    $--==========",
"===;.  .:=-=+   %=;=@   #=;=%   X=======*   +=+   .*=-==========",
"===*   .-===o   $=;=+   %=;=#   o=======$   +=+    :=-==========",
"===$   o====o   *===O   $===%   O=====-=%   #=+    *=-==========",
"===$   O=-=;.  .:===o   $===*   O=-===-=+   $-%    %---=========",
"===% . +=;=*.  .;==-.   :====%  .*=-=-=*   X;-:    o----========",
"===#   #=;=$   o===:   .====%:$+o#---=-o   #=;=#    +-=---======",
"===+   #=;=$   O=;=$   o==;=%.$======*O   o--==-o    O*======$==",
"==-+   #===%   o===&   X--==-+ o#%$%+.   o*=-=-=:O    .O#%%@o+==",
"=--$    @%-*X   O%*-o   X#&=-=@         +:--===-==#X       .#===",
"==-=$@@@+#;=&#@@+@$=;%###@$=--=&@o. .o+&==-=====-==;%@OoO+$-====",
"=====-===-==--===========-======-=---===========================",
"====================================-===========================",
"====================================-===========================",
"================================================================",
"================================================================",
"================================================================",
"================================================================",
"================================================================",
"================================================================",
"================================================================",
"================================================================",
"================================================================",
"================================================================"
};
