/* XPM */
static char *MDR_THÜRINGEN[] = {
/* columns rows colors chars-per-pixel */
"64 48 16 1",
"  c #1A69BC",
". c #2771BF",
"X c #3378C1",
"o c #4E89C6",
"O c #6D9BCA",
"+ c #7AA4D0",
"@ c #3D81C7",
"# c #8FAFD0",
"$ c #A5BCD3",
"% c #99BCE1",
"& c #B7C6D6",
"* c #AFCBE8",
"= c gainsboro",
"- c #C7D0D9",
"; c #F6F9FC",
": c #CFE0F1",
/* pixels */
"================================================================",
"================================================================",
"================================================================",
"================================================================",
"================================================================",
"================================================================",
"================================================================",
"================================================================",
"================================================================",
"================================================================",
"======:=========:==================&###=========================",
"==        .  .  ..+:;o   .       +-##o&#========================",
"==                 @;@           O&&o -#========================",
"==XX. @o  Xo.   @o@@;@... o@     +=#+O&&========================",
"==*;;%%%:+*%:X *;%:*;o*;:*%*o    O=&+#$=========================",
"=: +;+  O%  o%+;X  +;@ %;OX;+    O==============================",
"== +:   ..   %:*    +@ %$  o.    O==============================",
"== +@        .:%       %.        O==============================",
"==            @X                 O==============================",
"==                               +==============================",
"==                               O==============================",
"==                               O==============================",
"==.X....X.XXX..X.XXX.X.XX.X..XXX.#==============================",
"=======:===============:========================================",
"================================================================",
"=======================================&&-======================",
"==================&&=&--&==&&-==&&--=&=#$$-&-=-=&=-==&&-&&-&=&==",
"==================oX- +OoX&oO.=-O.#.-.&.-X#o.$X& +o-ooO&.O& #@==",
"==================oo+@+o$OOoOo==&X=XO &.-.#oo&X&.@o$.&#&.O&Xo@==",
"==================oO.++o#O+oOo==&o=X$ &.&@#o.-X&@O.& -.$o&&oo.==",
"==================O$@#+O@o-o$X-=&o=o-X-oX+$OO#X&o$.-O@.&.o&o#.==",
"================================================================",
"================================================================",
"==================&$-==$-=$$==&#&=-$=-#&=&&=$&==================",
"==================OoX&$.#$X#==oO.-+.&#Xo+#O#oo$=================",
"==================o$OOOOO&.#==Ooo=oO##O&X#Oo$#O=================",
"==================o$o#Xo =- -=oOX- oX$O#o#Oo##O=================",
"==================OXO&o=OOoo-=O$oOO=X#Xo&#O&oo-=================",
"================================================================",
"================================================================",
"================================================================",
"================================================================",
"================================================================",
"================================================================",
"================================================================",
"================================================================",
"================================================================",
"================================================================"
};
