/* XPM */
static char *MEZZO_LIVEHD[] = {
/* columns rows colors chars-per-pixel */
"64 48 16 1",
"  c #4F4344",
". c #706768",
"X c #DA2D11",
"o c #D93C22",
"O c #D94C35",
"+ c #D96754",
"@ c #D96D5B",
"# c #837B7B",
"$ c #DA8577",
"% c #B4B1B1",
"& c #938D8D",
"* c #DA958A",
"= c #DAA49C",
"- c #D8B3AE",
"; c #DBC1BD",
": c #DCDBDB",
/* pixels */
"::::::::::::::::::::::::::::::::::::::::::::::::::::::::::::::::",
"::::::::::::::::::::::::::::::::::::::::::::::::::::::::::::::::",
"::::::::::::::::::::::::::::::::::::::::::::::::::::::::::::::::",
"::::::::::::::::::::::::::::::::::::::::::::::::::::::::::::::::",
"::::::::::::::::::::::::::::::::::::::::::::::::::::::::::::::::",
"::::::::::::::::::::::::::::::::::::::::::::::::::::::::::::::::",
"::::::::::::::::::::::::::::::::::::::::::::::::::::::::::::::::",
"::::::::::::::::::::::::::::::::::::::::::::::::::::::::::::::::",
"::::::::::::::::::::::::::::::::::::::::::::::::::::::::::::::::",
"::::::::::::::::::::::::::::::::::::::::::::::::::::::::::::::::",
"::::::::::::::::::::::::::::::::::::::::::::::::::::::::::::::::",
"::::::::::::::::::::::::::::::::::::::::::::::::::::::::::::::::",
"::-=+@:-*=@+::;==$O;::::;$==@=:::$$===@+-:$@===$+$:::-$==**:::::",
"::::Xo==:::X@:-:::+o:::$O:::;X$:-@:::=Xo::O-:::oX=::*O::::*O::::",
"::::Xo*::::OX$::::$X*:=X$::::OX;-::::OX*:;=:::$X+::=X*:::::O+:::",
":::;XX-::::OX=::::$X$:oX;::::+X$::::$XO::::::;XX-::OX;:::::$o=::",
":::;XX:::::OX-::::$X$-XX*-==-+o$:::;XX=::::::+X$::-XX;:::::$XO::",
"::::XX:::::OX-::::$X$=XX;::;;::::::+X@::::::*Xo:::*XX::::::$Xo::",
":::;XX:::::OX=::::$X$=XX;:::::::::-Xo;::::::oX$:::*Xo::::::$Xo::",
"::::XX;::::OX-::::$X$;XX;:::::::::OX$::::::$X+::::;XX;:::::$X+::",
":::;Xo:::::OX-::;;+X$:OX-:::::;;:$XO::::=;;XX-:::-;@X-:::::+X-::",
"::::OX:::::OX=--$*$+*:;X@:::::=::oX=:::;$:+X$::::$;:o@:::::X$:::",
":::::$-::::OO-:::::::::-O$;:;%;:$XO;;;;O$;XX-;;;$O:::+*::;@$::::",
"::::::;-===;:::::::%:::::-==-;::;;;;;;;;;:;;;;;;-;::::;===::::::",
"::::::::::::::::::; &:::%:::::::::::::::::::::::::::::::::::::::",
"::::::::::::::::::; &::& #::::::::::::::::::::::::::::::::::::::",
"::::::::::::::::::% &:::.%::::::::::::::::::::::::::::::::::::::",
"::::::::::::::::::; &::%:::%%:::::%:::%%%::::;:::::;::;;:;::::::",
"::::::::::::::::::% &::% #:& &::::&%:#%:%.;::X+:::Oo::X+::$$::::",
"::::::::::::::::::% &::: &:: .::::%: &:::..:;X+:::OX:;X+:::O+:::",
"::::::::::::::::::% &::% &::& %::%:& %:::. %:X+:::Oo::X+:::*X=::",
"::::::::::::::::::: &::% #::% #::&:. %%%%&#%:X+:;:OX:;X+:::=X@::",
"::::::::::::::::::% &::% &:::. :%%:  %:::::::XO%;;Oo::X+:::=X+::",
"::::::::::::::::::: &::% #:::% %&::. :::::::%X+:::OX:;X+:::=X@::",
"::::::::::::::::::% &::: #::::. %::& %:::::::X+:::Oo:;X+:::$X;::",
"::::::::::::::::::: &::% &::::& ::::.#::::%::X+:::OX::X+::-X*:::",
"::::::::::::::::::%.&%%%.&%::::&:::::#&%%%:::@=:::@+::+$:;*;::::",
"::::::::::::::::::::::::::::::::::::::::::::::::::::::::::::::::",
"::::::::::::::::::::::::::::::::::::::::::::::::::::::::::::::::",
"::::::::::::::::::::::::::::::::::::::::::::::::::::::::::::::::",
"::::::::::::::::::::::::::::::::::::::::::::::::::::::::::::::::",
"::::::::::::::::::::::::::::::::::::::::::::::::::::::::::::::::",
"::::::::::::::::::::::::::::::::::::::::::::::::::::::::::::::::",
"::::::::::::::::::::::::::::::::::::::::::::::::::::::::::::::::",
"::::::::::::::::::::::::::::::::::::::::::::::::::::::::::::::::",
"::::::::::::::::::::::::::::::::::::::::::::::::::::::::::::::::",
"::::::::::::::::::::::::::::::::::::::::::::::::::::::::::::::::",
"::::::::::::::::::::::::::::::::::::::::::::::::::::::::::::::::"
};
