/* XPM */
static char *MTV_HITS[] = {
/* columns rows colors chars-per-pixel */
"64 48 16 1",
"  c #0A0202",
". c #383333",
"X c #290819",
"o c #501234",
"O c #7B0047",
"+ c #605C5C",
"@ c #A0005E",
"# c #CA0077",
"$ c #827F7F",
"% c #EE038E",
"& c #EE0998",
"* c #E561AF",
"= c #B1AFAF",
"- c #928F8F",
"; c #C0BFBF",
": c #DADADA",
/* pixels */
"::::::::::::::::::::::::::::::::::::::::::::::::::::::::::::::::",
"::::::::..    X          =:+;::::::=                 :+-::::::::",
"::::::::X                 == +=:::=                  :. +:::::::",
"::::::::                   ;=  +:;                   :.  :::::::",
"::::::::                    ;= -;                    :. .:::::::",
"::::::::                    X;;;X                    :. X:::::::",
"::::::::                     X=X                     ;. X:::::::",
"::::::::                                             :. X:::::::",
"::::::::                                             :.  :::::::",
"::::::::                                    .-+      :. -:::::::",
"::::::::                                   .:::+     :.+::::::::",
"::::::::                                 X-:::;.     ;-:::::::::",
"::::::::                              -:=;:::-.      :::::::::::",
"::::::::                              :::::=+        :::::::::::",
"::::::::                             +::::+  +.     +:::::::::::",
"::::::::                           .=:::::XX;::.    ::::+:::::::",
"::::::::                         .-::::::: +:::-   +:::+ :::::::",
"::::::::                       .$:::;+-::: +:::=   ::::  :::::::",
"::::::::                      -::::-X .:::XX:::;  +:::+ X:::::::",
"::::::::                      ;:::+   .:::. =:::X ::::.  :::::::",
"::::::::                      .=-.    .:::+ +::: .::::. .:::::::",
"::::::::                              .:::+ .:::+=::::. X:::::::",
"::::::::                           X  .:::+  =::::::-;. X:::::::",
"::::::::                 =+       +=  .:::+  +::::::.;. X:::::::",
"::::::::.                =:+     +:=  +:::+   :::::; :.  :::::::",
"::::::::XX               =-:-   -:$=  +:::+   -::::- :.  :::::::",
"::::::::                 ;+ ==.=;X+;  +:::+   .::::. :.  :::::::",
"::::::::                 =+ +:::;;:=  +:::+    =:::  :. X:::::::",
"::::::::                 =+ +::::::=  $:::+    .-=+  :. .:::::::",
"::::::::                 ;+ +::::::=  +:::+          :. X:::::::",
"::::::::X                =+ +::::::=  $:::+          :. .:::::::",
":::::::::::;:;:::;:::;:::::::::::::::;:::::;:::;:;::::::::::::::",
"::::::::::::::::::::::::::::::::::::::::::::::::::::::::::::::::",
"::::::::**&&&&&&*&&&&&&&*&&&&&&&*&&&&&&*&&&&&&*&&&*&&&&&=:::::::",
"::::::::#%%%%%%##%#%%%%%#%%%%%%%%%%%%%%%%%%%%#&%%%##%%%%%:::::::",
"::::::::%%%%%%%%%%%%%%%%%%%%%%%%%%%%%%%%%%%%%%%%%%%#%%%%%:::::::",
"::::::::%%%%%%%%%%#%%%@o&#o%%O@%oXXX@%#XXo#%%#%%%%%#%%%%&:::::::",
"::::::::%%#%%%%%%%%%%%@X%@ #%Xo%#O @#%Xo#o#%%%%%%%%%%%%%&:::::::",
"::::::::%%%%#%%%%%%%#%@X%#X%%oO%%#X%%% @&%%%%%%%#%%%%%%#&:::::::",
"::::::::%%%%%%%%#%%%#%@ OoX#%oO%%@X#%%@ O#%%%%%%%%%%%%%%&:::::::",
"::::::::%%%#%%%%%%%%%%@ Oo #%oo%%@X#%%%#XX#%%%%%%%%%%%%%&:::::::",
"::::::::%%%%%%%%%%%%%%@X&#X#%oO%%@X%%%%%%X@%%%%##%%%%%%%&:::::::",
"::::::::%%%%%%%#%%%##%OX%@ %%oo%%@ %%%O@# @%%%%%%%%%%%%%&:::::::",
"::::::::%%%%%%%%%%%%%%@o%#o%%O@%%#o%%%OX O%%#%%%%%%%#%%%&:::::::",
"::::::::%%%%%%%%%%%%%%%%%%%%%%%%#%%%#%%##%%%%%%%%%%%&&&%&:::::::",
"::::::::%%%#%%%%%%%%%%%#%%#%%%%%%%%%%%%%%%%%%%%%%%%#&&%%&:::::::",
"::::::::*%%%%%%%%#%%%%%%%%%%%%%%%%%%%%%%%%%%%%%%%%%%&&&&*:::::::",
"::::::::::::::::::::::::::::::::::::::::::::::::::::::::::::::::"
};
