/* XPM */
static char *MTV_DANCE[] = {
/* columns rows colors chars-per-pixel */
"64 48 16 1",
"  c #030203",
". c #2E2D2E",
"X c #2A1830",
"o c #5A3465",
"O c #4E4E4E",
"+ c #706673",
"@ c #3C2343",
"# c #774585",
"$ c #8B509C",
"% c #9154A2",
"& c #9761A5",
"* c #A15CB4",
"= c #AF64C5",
"- c #AFAFAF",
"; c #938E95",
": c gray86",
/* pixels */
"::::::::::::::::::::::::::::::::::::::::::::::::::::::::::::::::",
":::::::: X              .:;;:::::::.            X  X:+;:::::::::",
"::::::::                 .:O.;::::O                 :O +::::::::",
"::::::::X                 O:. X-:+                  -O  ::::::::",
"::::::::                   O:O :+                   -O  ::::::::",
"::::::::                    O::+                    -O  ::::::::",
"::::::::                     +;                     :O  ::::::::",
"::::::::                                            -O  ::::::::",
"::::::::                                            -O  ::::::::",
"::::::::                                    ++      -O ;::::::::",
"::::::::                                  X-::;     :OO:::::::::",
"::::::::                                 O::::O     -;::::::::::",
"::::::::                             O-:::::-.      -:::::::::::",
"::::::::                             ;:::::+        ::::::::::::",
"::::::::                            .::::;  OO     .::::::::::::",
"::::::::                           ;:::::+ ;::O    -:::+::::::::",
"::::::::                         +-::::::+ :::-   O:::+ ::::::::",
"::::::::                       +-:::;O:::+ :::-   -:::  ::::::::",
"::::::::                     .:::::O  -::+ -:::. O:::+  ::::::::",
"::::::::                     .:::-.   :::; +:::O ;:::.  ::::::::",
"::::::::                      +-O     :::+ .:::OX::::.  ::::::::",
"::::::::                              -::;  -::;;::::O  ::::::::",
"::::::::                              :::;  +::::::;-O  ::::::::",
"::::::::                 -.      .-.  -::;  .::::::O-O  ::::::::",
"::::::::.                ::.    .::.  :::;   -:::::X-O  ::::::::",
"::::::::X               X-;:O  O:+-.  :::;   O::::- -O  ::::::::",
"::::::::                X: O:++:O -.  :::;    -:::O -O  ::::::::",
"::::::::                .-  ;:::-::.  :::-    +::-X -O  ::::::::",
"::::::::                .-  -::::::. .:::-     +-O  -O  ::::::::",
"::::::::                .-  -::::::. .:::-          -O  ::::::::",
"::::::::..X X . X X X . .:. -::::::O .:::- .. .  XX :O..::::::::",
"::::::::::::::::::::::::::::::::::::::::::::::::::::::::::::::::",
"::::::::::::::::::::::::::::::::::::::::::::::::::::::::::::::::",
"::::::::-%*&&&&&&&%&&&%&%&&&&&%&&&&&&&&&&%%&&*&&&&&&&&%-::::::::",
"::::::::$$$%%$%%%%%$%%%%%%$%$%$%#$$$$$%%$$%%$%$%%$%$%%%&::::::::",
"::::::::%%%%%%%%%%%*%$%%%$$%%%%%$&%$%&$$*%%%%%%%%%%%%%%%::::::::",
"::::::::$$%%$%$%oXX #*$%o X%$%@o*@o*%o  @$$@ X #%%%$%%%%::::::::",
"::::::::%%%$%$$%o #@ $%*@XX$%%X *X@*# o#X$% @#o$%%%$%$%%::::::::",
"::::::::%$%$$%%%oX*% #%%XoXo%%X #X@*# %**%% #=*%$%%%%%$%::::::::",
"::::::::$%$%%%%*o %$ o%$ $X@%$X @X@*# $%$%% X@#%$%$%$%%%::::::::",
"::::::::$%%%$%%%o *$ #*# *oX%%X@X o*# $%$$% X@#%$%$%%%%%::::::::",
"::::::::%%$%$%%%o *% o*o X X%%Xo@ o*# $%*%* #=*%%$%$%%%&::::::::",
"::::::::%$%$%%%*o #@ $*@X#o #% o# @*$ o#@$% @#o$%$$%%%%%::::::::",
"::::::::$%$%%$%%oXX o%%@o*%X#*@o*Xo%%o  X%%@ X #%$%%$%%%::::::::",
"::::::::%%%$%%%$%%%%*%%$%$$%%%%%$%%%$%$$*%%%$$$%%%%$%%%&::::::::",
"::::::::%%$%$$%%$%$%$%%%%$%%%%$$%$$%%%%%$$%%%%%%%%%%%%%&::::::::",
"::::::::=%%%%%%%%%%%%%%%%%%%%%%%%%%%%%%%%%%%%%%%%%%%=*=-::::::::",
"::::::::::::::::::::::::::::::::::::::::::::::::::::::::::::::::"
};
