/* XPM */
static char *N-JOY[] = {
/* columns rows colors chars-per-pixel */
"64 48 16 1",
"  c #091656",
". c #1A2661",
"X c #48517E",
"o c #384274",
"O c #5C648A",
"+ c #A0BC02",
"@ c #A5BF14",
"# c #ABC228",
"$ c #B6C852",
"% c #C1CD77",
"& c #ABB968",
"* c #C9D295",
"= c gainsboro",
"- c #CED0CD",
"; c #A4A7B8",
": c #7E84A0",
/* pixels */
"================================================================",
"==================-. ;==========================================",
"==================-. ;==========================================",
"==================-. ;=-========================================",
"==================-. :==========================================",
"==================-. ;=-========================================",
"==================-. ;==========================================",
"==================-. ;==========================================",
"==================-. ;==========================================",
"==================-. ;==========================================",
"==================-. :==========================================",
"==================-. ;==========================================",
"==================-. :==========================================",
"==================-. ;==========================================",
"==================-. ;=-========================================",
"==================-. ;==========================================",
"==================-. ;=-========================================",
"==================-. ;==========================================",
"===================  :==========================--==============",
"====XXXX:=====-XXXX;;-===*#$$$=====%$@@@@$*==*#$$$-====$#$#$====",
"====    .-====-    ======%++++====#++++++++#==@+++$===-++++$====",
"====     O====;    -=====*+++@===#++++++++++#=%+++@===*++++-====",
"====      -===-    -=====%+++@==*+++++##+++++*=++++*==$+++$=====",
"====      O===;    -=====*+++@-=%+++@-==*@+++$=#+++&=-++++*=====",
"====       -==-    -=====*+++@==#+@+$====$+++#=%+++#=*+++@======",
"====       X==-   .-=====*+++#==#+++%====%+@+#==@+++-%+++%======",
"====        ;=-    -====-*+++@-=#+++%====%+++#==$+++%#+++-======",
"====    .   o=;   .-=====%+++@==#+@+%====%+++#==*+++@+++#=======",
"====    :    ;-    -=====*+++@==#+++%====%+++@===#++++++%=======",
"====    -O   .-   .-=====%+++#==#+++%====%+++@===%+@+++@-=======",
"====    --    O.   -=====%+++@-=#+++$====%+++#====+++++$========",
"====    ;=O        -=====*+++@==#+++%====%+++#====$++++*========",
"====    ;=-.      .-=====%+++@==#+++%====%+++#====%+++@=========",
"====    -==:       -=====*++++==#+++$====$+++#====*+++@=========",
"====    ;===.     .-=----$+++@==%++++*==*@+++%====*++++=========",
"====    -===;     .-=#+++++++#==*+++++##+++++*====*+++@=========",
"====.   ;====o    .-=$+++++++*===$++++++++++#=====*+++@=========",
"====    ;====;     -=$++++++$=====#++++++++#-=====%++++=========",
"====XXXX-=====OXXXX;;$$$$$%*=======*$#@@#$%=======*#$$$=========",
"===================  ;==========================================",
"==================-. ;==========================================",
"==================-. ;==========================================",
"==================-. :=-========================================",
"==================-. ;==========================================",
"==================-. ;=-========================================",
"==================-. ;==========================================",
"==================-. ;==========================================",
"================================================================"
};
