/* XPM */
static char *NDR_90[] = {
/* columns rows colors chars-per-pixel */
"64 48 16 1",
"  c #02427D",
". c #144F85",
"X c #2F6291",
"o c #4A759C",
"O c #6F90AD",
"+ c #CC0237",
"@ c #CF2551",
"# c #D25072",
"$ c #D5758E",
"% c #8BA3B9",
"& c #A8B7C5",
"* c #BAC4CD",
"= c #D79CAC",
"- c #DABCC4",
"; c gainsboro",
": c #D7C7CD",
/* pixels */
";;;;;;;;;;;;;;;;;;;;;;;;;;;;;;;;;;;;;;;;;;;;;;;;;;;;;;;;;;;;;;;;",
";;;;;;;;;;;;;;;;;;;;;;;;;;;;;;;;;;;;;;;;;;;;;;;;;;;;;;;;;;;;;;;;",
";;;;;;;;;;;;;;;;;;;;;;;;;;;;;;;;;;;;;;;;;;;;;;;;;;;;;;;;;;;;;;;;",
";;;;;;;;;;;;;;;;;;;;;;;;;;;;;;;;;;;;;;;;;;;;;;;;;;;;;;;;;;;;;;;;",
";;;;;;;;;;;;;;;;;;;;;;;;;;;;;;;;;;;;;;;;;;;;;;;;;;;;;;;;;;;;;;;;",
";;;;;;;;;;;;;;;;;;;;;;;;;;;;;;;;;;;;;;;;;;;;;;;;;;;;;;;;;;;;;;;;",
";;;;;;;;;;;;;;;;;;;;;;;;;;;;;;;;;;;;;;;;;;;;;;;;;;;;;;;;;;;;;;;;",
";;;;;;;;;;;;;;;;;;;;;;;;;;;;;;;;;;;;;;;;;;;;;;;;;;;;;;;;;;;;;;;;",
";;;;;;;;;;;;;;;;;;;;;;;;;;;;;;;;;;;;;;;;;;;;;;;;;;;;;;;;;;;;;;;;",
";;;;;;;;;;;;;;;;;;;;;;;;;;;;;;;;;;;;;;;;;;;;;;;;;;;;;;;;;;;;;;;;",
";;;;;;;;;;; O;;;;;;;;;;;;;;;;;;;;;;;;;;;;;;;;;;;;;;;;;;;;;;;;;;;",
";;;;;;;;;;; O;;;;;;;;;;;;;;;;;;;;;;;;;;;;;;;;;;;;;;;;;;;;;;;;;;;",
";;;;;;;;;;; O;;;;;;;;;;;;;;;;;;;;;;;;;;;;;;;;;;;;;;;;;;;;;;;;;;;",
";;;;;;;;;;; O;;;;;;;;;;;;;;;;;;;;;;;;;;;;;;;;;;;;;;;;;;;;;;;;;;;",
";;;;;;;;;;; O;;;;;;;;;;;;;;;;;;;;;;;;;;;;;;;;;;;;;;;;;;;;;;;;;;;",
";;;;;;;;;;; O;;;;;;;;;;;;;;;;;;;;;;;;;;;;;;;;;;;;;;;;;;;;;;;;;;;",
";;;;;;;;;;; O;;;;;;;;;;;;;;;;;;;;;;;;;;;;;;;;;;;;;;;;;;;;;;;;;;;",
";;;;;;;;;;; O;;;;;;;;;;;;;;;;;;;;;;;;;;;;;;;;;;;;;;;;;;;;;;;;;;;",
";;;;;;;;;;; O;;;;;;;;;;;;;;;;;;;;;;;;;;;;;;;;;;;;;;;;;;;;;;;;;;;",
";;;;;;;;;;; O;;;;;;;;;;;;;;;;;;;;;;;;;;;;;;;;;;;;;;;;;;;;;;;;;;;",
";;;;;;;;;;; O;;;;;;;;;;;;;;;;;;;;;;;:--;;;;;;;--;;;;;;;;;::;;;;;",
";;..o;;;% X*O ...Xo*;;o X  XO*;;;;;#+++@-;;;=@++@=;;;;;=@+++=;;;",
";;   %;;O  ;O       &;X       :;;;#+$-=+@:;=+@==@+-;;;#+#==@+=;;",
";;   .:;%  ;O  O%O  X;X X**O  %;;-+$;;;=+=;@@;;;;+#;;;=#;;;:+#;;",
";;    O;O  ;O  *;;o X;X o;;;  O;;=+=;;;;@#;+#;;:;#+:;;;;;;;:+#;;",
";;    .;%  ;O  *;;O  ;X X;;&  O;;=+=;;;;@@-+$;:;;=+-;;;;---@+-;;",
";;  X. O%  ;O  *;;O  ;X  oX   &;;;+@;;;#+#-+=;;;;=+-;;;:@+++=;;;",
";;  OO .O  ;O  *;;O  ;X      %;;;;=++#+++@-+=;;;:=+=;;;;===@+=;;",
";;  O:     ;O  *;;O  :X  &X X;;;;;;-###:+#:+=;;;;$+-;;;;;;;;@@;;",
";;  O;O    ;O  *;;o  ;X X;&  O;;;;;;;;;-+=;+#;;;;#+:;;-;;::;#+;;",
";;  O;*.   :O  O%O  X;X X;;X X;;;;;;;;;@+;;@+;;;;+#:--+$;;;;@+;;",
";;  O;;O   ;O       &;X X;;%  O;;;$#==@+=;;-+@==@+-@+-#+#==#+=;;",
";;  %;;:o  :%     o&;;o o;;:o o;;;$+++@=;;;;=@++@=;#+-;$@++@=;;;",
";;;;;;;;;;; %;;;;;:;;;;;;;;;;;:;;;;;;;;;;;;;;;--;;;$@;;;;-:;;;;;",
";;;;;;;;;;; O;;;;;;;;;;;;;;;;;;;;;;;;;;;;;;;;;;;;;;@$;;;;;;;;;;;",
";;;;;;;;;;; O;;;;;;;;;;;;;;;;;;;;;;;;;;;;;;;;;;;;;;-:;;;;;;;;;;;",
";;;;;;;;;;; %;;;;;;;;;;;;;;;;;;;;;;;;;;;;;;;;;;;;;;;;;;;;;;;;;;;",
";;;;;;;;;;; %;;;;;;;;;;;;;;;;;;;;;;;;;;;;;;;;;;;;;;;;;;;;;;;;;;;",
";;;;;;;;;;;;;;;;;;;;;;;;;;;;;;;;;;;;;;;;;;;;;;;;;;;;;;;;;;;;;;;;",
";;;;;;;;;;;;;;;;;;;;;;;;;;;;;;;;;;;;;;;;;;;;;;;;;;;;;;;;;;;;;;;;",
";;;;;;;;;;;;;;;;;;;;;;;;;;;;;;;;;;;;;;;;;;;;;;;;;;;;;;;;;;;;;;;;",
";;;;;;;;;;;;;;;;;;;;;;;;;;;;;;;;;;;;;;;;;;;;;;;;;;;;;;;;;;;;;;;;",
";;;;;;;;;;;;;;;;;;;;;;;;;;;;;;;;;;;;;;;;;;;;;;;;;;;;;;;;;;;;;;;;",
";;;;;;;;;;;;;;;;;;;;;;;;;;;;;;;;;;;;;;;;;;;;;;;;;;;;;;;;;;;;;;;;",
";;;;;;;;;;;;;;;;;;;;;;;;;;;;;;;;;;;;;;;;;;;;;;;;;;;;;;;;;;;;;;;;",
";;;;;;;;;;;;;;;;;;;;;;;;;;;;;;;;;;;;;;;;;;;;;;;;;;;;;;;;;;;;;;;;",
";;;;;;;;;;;;;;;;;;;;;;;;;;;;;;;;;;;;;;;;;;;;;;;;;;;;;;;;;;;;;;;;",
";;;;;;;;;;;;;;;;;;;;;;;;;;;;;;;;;;;;;;;;;;;;;;;;;;;;;;;;;;;;;;;;"
};
