/* XPM */
static char *NHK_World_HD[] = {
/* columns rows colors chars-per-pixel */
"64 48 16 1",
"  c #0C0B0B",
". c #313131",
"X c #394848",
"o c gray28",
"O c #6F6F6F",
"+ c #473E3E",
"@ c #E40808",
"# c #DD1010",
"$ c #C24C4C",
"% c #909090",
"& c #ACADAD",
"* c gainsboro",
"= c #D7E7E7",
"- c #F9F7F7",
"; c #EDDEDE",
": c #BEC2C2",
/* pixels */
"****************************************************************",
"****************************************************************",
"****************************************************************",
"****************************************************************",
"****************************************************************",
"****************************************************************",
"****************************************************************",
"****************************************************************",
"****************************************************************",
"****************************************************************",
"****************************************************************",
"****************************************************************",
"****************************************************************",
"****************************************************************",
"****************************************************************",
"****************************************************************",
"***************************************=*****=;=****************",
"********************************oooooooooooooooo.+oXX+o+oooooo**",
"********************************o................++ooooo.oooo.**",
"****=;**-==-***;*;==;=;*=-;-=;=*&&&&&&&&&&&&&&&&%o+X+Xooooo.oo**",
"****---------------------------------------------oooooo.oooooo**",
"****-----%%-O&-o-*O-O&;o*-&&%&%;oO-%o%;%--OO&---;..oX..o.. .oo**",
"****-----. & *& %.o- ..o--*OoO%%%O*OOO=o--o&O----  oo  o     .**",
"***=----* o .-o . :&  X---;oO.&%&O&Oo%;o--o*o----  oX .o  o. .**",
"****----O.- O- ** -oo; &---.%.*&oo;O&O*.%;oOO----     .o  oo  **",
"****----;=-=--*--*-=--=----*-*--:*-*;*-&&-*&-----  X.  o .oo  **",
"****--------------------------------------------;  o. .o  .  .**",
"***:#####################################@@@##@@#  o.  o    .o**",
"***:@@@@@@@@@@@@@@@@@@@@@@@@@@@@@@@@@@@@@@@@@@@@#.Xo.oooo...oo**",
"****$$$$$$$$$$$$$$$$$$$$$$$$$$$$+#+##+##+##+##+#$.oooooooooo.o**",
"****;===-===-===-===-===-==*-=-*o.XXXXXXXXXXXXXXXo.ooooooo+ooX**",
"************;;******;;******;;**o+oXXXXXXXX.XX+o+ooooo.oooX+oo**",
"********************************;*******************************",
"****************************************************************",
"****************************************************************",
"****************************************************************",
"****************************************************************",
"****************************************************************",
"****************************************************************",
"****************************************************************",
"****************************************************************",
"****************************************************************",
"****************************************************************",
"****************************************************************",
"****************************************************************",
"****************************************************************",
"****************************************************************",
"****************************************************************"
};
