/* XPM */
static char *NL-Radio_2[] = {
/* columns rows colors chars-per-pixel */
"64 48 16 1",
"  c #BA2C31",
". c #D12930",
"X c #D32128",
"o c #D13943",
"O c #E4544F",
"+ c #DD6363",
"@ c #BD5E60",
"# c #D87D83",
"$ c #ED857C",
"% c #D88F93",
"& c #E6A8A6",
"* c #F9C1B9",
"= c gainsboro",
"- c #FDFBFB",
"; c #F7D2CD",
": c #ECBDC1",
/* pixels */
"================================================================",
"================================================================",
"===========================:====================================",
"=========================:ooo#==================================",
"=========================o%=:o#=================================",
"========================&@===:o=================================",
"========================%@====o:================================",
"======================+#=o#==#@===%&============================",
"=======================o#=.@OO;=%%:&%===========================",
"====================#o%=o+=&&==%%-;-;#==========================",
"===================++%o+=o+===%&-;;;;;#=========================",
"==================+@===o%=+==%&;;;;;;;*#========================",
"==================& %==%@===&%;*:;::;*;*#;======================",
"================:==:.%=+#==%$***::*******+;=====================",
"===============%.+%=:oo+==%%**&*:******&*&+=====================",
"===============;+%@o%&+==&+*&&&&$$#$$%&&&&&+====================",
"=============:==+&%o@#==&+&$&$+%:;;=;&%+&&&$$===================",
"============+o@=&o@====%+&$&+%---------:+$$&$+;=================",
"===========+#=o&=o%===%+$$%+&-----------;+$$$$+;================",
"==========%.:=o#=%#==%+$$$++-------------&+$+$$+================",
"===========#.@+@o#=;&+$++$O*-----%+&-----=+++$$++===============",
"============#.===:=&O+++++O;----%O+o%-----$+$+++++==============",
"=============#.===&O++++++O&---;O++++-----+++++++++;============",
"==============%:=&O+++++++OO:--#O++O%-----+O++O+++O+============",
"================&o++OO++O++OOOOO++O+-----:o+OOOO+O+O+===========",
"================ooOOOOOOOOOOOOOOOO%------OOOOOOOOOOo.&==========",
"================OXXoOOOOOOOOOOO.O;-----=OoOOOOOOOO..X%==========",
"================OX.XX.OOOOOOOO.%------:ooOOOOOOoXX...&==========",
"================:.X..XX.ooOOoo:-----=+.OOOOOOo.XX..X+===========",
"=================&o.....XX.XO;-----%.X....XXXX.....+============",
"==================:.XX.XX.XO------&@$%%%#oXXXX...o+;============",
"===================&oX..X.X:--------------+X.X...+==============",
"====================: . .X.=--------------%XXX..+===============",
"=====================:  ..X;--------------%X...@================",
"======================& ..X+=------------= X..@=================",
"=======================&o..X.ooooo.o o    XX @==================",
"========================&  ..XXXXXXX... X X @===================",
"=========================: ..    . . . .   @====================",
"==========================&      XX .X.   @=====================",
"===========================:      X    . @======================",
"============================&    X      @=======================",
"=============================&    X    @========================",
"==============================: X     @=========================",
"===============================&     @==========================",
"================================&   @===========================",
"================================================================",
"================================================================",
"================================================================"
};
