/* XPM */
static char *ONZEO[] = {
/* columns rows colors chars-per-pixel */
"64 48 16 1",
"  c #050D15",
". c #141D24",
"X c #192228",
"o c #2A3238",
"O c #353C42",
"+ c #3B4349",
"@ c #585F64",
"# c #767D82",
"$ c #7E8488",
"% c #ADB0B2",
"& c #93979A",
"* c #B6BCC0",
"= c #BAC2C6",
"- c gainsboro",
"; c gray99",
": c #DCEAEB",
/* pixels */
"----------------------------------------------------------------",
"----------------------------------------------------------------",
"----------------------------------------------------------------",
"----------------------------------------------------------------",
"----------------------------------------------------------------",
"----------------------------------------------------------------",
"----------------------------------------------------------------",
"----------------------------------------------------------------",
"----------------------------------------------------------------",
"----------------------------------------------------------------",
"----------------------------------------------------------------",
"----------------------------------------------------------------",
"----------------------------------------------------------------",
"----------------------------------------------------------------",
"----------------------------------------------------------------",
"----------------------------------------------------------------",
"----------------------------------------------------------------",
"------&@o.......X.......XX.XXXXXXXXXX..XXXXX........XXXo@&------",
"-----@   .  .X..    ....  .           .         ....  .  .+-----",
"----o.X@%-=$X X.&%%&.. o%%o&%%%%%%%%%+X%%%%%%%%%O. X#%-%#X.o*---",
"---@ o-;;;;;-+ +;;;;@ .+;;+-;;;;;;;;;&@;;;;;;;;;@ +-;;;;;-O +---",
"--&..-;:&@&-;:XO;;:;-  +;;+@%&%%%&%:;&@;:%%%&%%%O.-;:&@&:;-X.&--",
"--@ @;;+   o:;&X;;&;;@ +;;+      @-;;&@;-        &;-+   +;;# +--",
"--o.%;& @*# #;-O;;+=;- +;;+.X X#-;;;%o@;;=%%**%=o*;& X.X &;- .--",
"--o -;@ %:=.@;-+;;O@;;@o;;+ X@:;;;%+. $;;;;;;;;;+-;@ XXX @;-..--",
"--o %;% +%@ $;-O;;+ -;-o;;O@:;;;%+  X #;:&&&%&&&o-;& XXX &;= X--",
"--@ @;:@   O:;&o;;+ @;;&;;o*;:%+   .X #;-        #;:+   +:;$ +--",
"--%..-;;&#&:;:.+;;+  -;;;;+%;:%%-%*%-@@;:-%-%-%=O.-;;&@&;;-X.&--",
"---@ o-;;;;;-+ +;;+. @;;;;o%;;;;;;;;;&@;;;;;;;;;@ o-;;;;;-o +---",
"----+ X@%-*@X .o&&o.X @&&@ +&&&&&&&&&@.&&&&&&&&&o. .@%-%@. o----",
"-----@.     .X..  ....    X.          .          ...     .@-----",
"------&@o...X...XX.....XXXXXXXXXXXXXX....XXXXX.........o@%------",
"----------------------------------------------------------------",
"----------------------------------------------------------------",
"----------------------------------------------------------------",
"----------------------------------------------------------------",
"----------------------------------------------------------------",
"----------------------------------------------------------------",
"----------------------------------------------------------------",
"----------------------------------------------------------------",
"----------------------------------------------------------------",
"----------------------------------------------------------------",
"----------------------------------------------------------------",
"----------------------------------------------------------------",
"----------------------------------------------------------------",
"----------------------------------------------------------------",
"----------------------------------------------------------------",
"----------------------------------------------------------------"
};
