/* XPM */
static char *Premier_Sports[] = {
/* columns rows colors chars-per-pixel */
"64 48 16 1",
"  c #242726",
". c #790202",
"X c #752A28",
"o c #4F5151",
"O c #6D6D6D",
"+ c #3D4343",
"@ c #860C0C",
"# c #8D2D2E",
"$ c #A61917",
"% c #A55A5A",
"& c #C96362",
"* c #AE9595",
"= c #CCA5A5",
"- c #DCDBDB",
"; c #EFF3F3",
": c #DFDEDE",
/* pixels */
"-----:---:--------::-:--::--:---:-:-------::----::--:-----:----:",
"-----:-:-------::-::-------:--:-----:---:----:-----:--------:---",
"::----:-::-----::----------:-:----:::-----:------:-:-:-:--:::-:-",
":::-:-------::----:-------------------:-:------------:--------:-",
"----:---:------:-------------------:--:---::---::--------:-:----",
"--:-:--------:----------:--:--:-----:-------::--:-----:---------",
"---------:----:----:--------::----:-----------------::--:-:-----",
"---:----------:--:---:---::----::---::-------:---:-----::---::--",
":-------:--:-----------------------:------------------------::--",
"--::--:::--:---------------------:----------::-----------:-----:",
"------::----:---------------------:-----:---:::--------------:-:",
"--:---::-::-------------------------------:-:-------------------",
"---:::::---:--------------------:-------------------------::::::",
"-:--:-=&*=&#X@$@@$$$$$$$$$$$$$$$@#$@$$$$$$$$$$@$$$$$$$$$$$$$X#::",
"-:--=&=--::-*...............................&-#..............#::",
"-::=*-:-::--;-X.@........@....@@............-;%.@@.@.@.......#--",
"---&---:==-:-;=...............@@@.@@........#%...............$::",
"-:==---#..X*;:;%%-%%:%.%=::=#.=-#*--*.%--=%.==%.#*--=%.%=%X-*$::",
"--&--:#.....=:;=*;:;;%=;-&=;:#:;;:-;;:;=-;;%:;%#::*&-;%%;--:=#::",
":-*--=......%;:-*;;%.%;-@@@=;*=;=@.*;;%.@-;*-;%=;%..#--*::*.@$-:",
"--*--*......#;:-=;=..=;;::::;--;&..%;;@..=;==;=-:----::=--@@@$::",
"--*--=......%;;-=;=..=;-*==**&-;*..%;;#..=;=-;=-;*****&*--$@@$::",
"--*--:%.....-;;**;=..&;-#..@@@-;&..%;;@@.=;=-;&-;%..@@@%:-$@$$::",
"--*---:*XX%-;:;#=;-.##=;;-=-;#-;&.@%;;$@@-;=-;%#;;:==:&%;-#@$$::",
"--*:---::-;:-;=.%-*@##X*=::-=%=-%##%==#@@&=**=%@#*=-==%%=*#@@$;:",
"--=---:--::;;=..@.X#####%##%X%#X####@@@@@@@@@@@@@@@@@.....@@##::",
"--&-:=*-:::-%.@@###%%%%&&%%&%%%%%%######$###$$$$$$#$#$#$##$$$&::",
"--=::*.@#%#.@$##%%#%%%%%%%%%%%%O%#%#####XXXXXX#XX#X##XXX###X##::",
"--=--*.@...###%%X+++ooooOoOOooo++++ oO+ ++   +    +-O  o     +--",
"--&-:=@########  +ooooOOOOOOOOOooo O;=*;-;Oo:--O:-*:=O-*     o--",
"--*-:*@##X#### ++oooOoOOOOOOOOoooo+O;Oo; O--* -=-+ :+o-O     *--",
"--=-:=@#####% +++oooOOOOOOOOOOOooo++O:-;+O--* :=-  :o o-O   o---",
"-:=:-=X##Xo%  +++oooOOOO*OOOOOOOoo+O--*:-;O+--*o-  *-O=-o  +----",
"--*::=XX#%#   +++ooOOOOOOOOOOOOOooo+o o;o                 O-----",
":-&==*%%%X  ++++++oooOOOOOOOOooooo++  o*+               o*------",
"---:::--::------::------::---:------:---:::---------------------",
"----:----:------::::----::::--------:-----::--------------------",
"-----------:----:::-----::-:----::--::------::------------------",
":----:-:---:-----:------------------:-:----:--------------------",
"--:--:---:---------:-------------::---:------::-----------------",
"-::-------------------------------------::---:-----:----------:-",
"----:---------------------------:---:------:-:-:-------:------:-",
":-::--------------------------------:------:------:-:--------:--",
"----:---------------------------::----::--------:---:-:--------:",
"---:---:---------------------::----:---------------:-:----------",
"-----:---------------------------:-:-:----:---:--:-----:::----:-",
"--:---:------------------------:--------::--::----:----:-----:--",
"----::-------------------------::---:------:---:---------:-:---:"
};
