/* XPM */
static char *Pro7_FUN[] = {
/* columns rows colors chars-per-pixel */
"64 48 16 1",
"  c #EF001F",
". c #EF0322",
"X c #ED1A35",
"o c #EC223D",
"O c #EB3048",
"+ c #E94D61",
"@ c #E57B89",
"# c #939393",
"$ c gray72",
"% c gray66",
"& c #E39AA3",
"* c #C8C8C8",
"= c gainsboro",
"- c #DECBCD",
"; c #E4E4E4",
": c #DFBEC2",
/* pixels */
"================================================================",
"================================================================",
"================================================================",
"================================================================",
"================================================================",
"================================================================",
"================================================================",
"================================================================",
"================================================================",
"================================================================",
"================================================================",
"================================================================",
"================================================================",
"================================================================",
"================================================================",
"================================================================",
"=====================================*====================;=====",
"==............ X==*****$$%%%%#%=*%#####$;;;;;;;=%*======;;;;;;==",
"==.. ... .. ...X==*****$$$%%###=*%#####$;;;;;;==##*====;;;;;;;==",
"==.            X==******$%#####=*%#####$;;;;;;;=%##$====;;;;;;==",
"==ooooooXoXooOO+===******$#####=*%%####$;;;;;;;=%####*==;;;;;;;=",
"============:&&&==**=-===;;;=;;==%%%%##$;;;;;;==%#####*=;;;;;;==",
"=========-&O   .==-=====;;;;;;;=*%%%%%#*;;;;;;==%######*;;;;;;==",
"========@X   ..X==*=====;;;;;;;==$$%$%%=;;;;;;;=%#######*;;;;;==",
"======:O       X========;;;;;;;==$$$$$*=;;;;;;;=$######%%=;;;;==",
"=====:X      . X======;;;;;;;;;==$$$$**=;;;;;;;=$%%%%%%%$*======",
"====:. .     . X=====;=;;;=;;====*$***===;;;;;==$%%%%%%%$**=====",
"===-o .        X======;;;;=======******===;;;;==$%%%%%$$$**=====",
"===+..         X====;;=;;=========****===;;;;===$%$%%$$$***=*===",
"==& ..       . X======;=;==========*=======;====$%%$$$$$$***====",
"==O .  .     ..X===;;;;;;=============*=========*%$$$$$$******==",
"================================================================",
"================================================================",
"================================================================",
"================================================================",
"================================================================",
"================================================================",
"================================================================",
"================================================================",
"================================================================",
"================================================================",
"================================================================",
"================================================================",
"================================================================",
"================================================================",
"================================================================",
"================================================================",
"================================================================"
};
