/* XPM */
static char *PTV_Prime[] = {
/* columns rows colors chars-per-pixel */
"64 48 16 1",
"  c #06366E",
". c #3D6654",
"X c #095899",
"o c #164C8C",
"O c #5FB266",
"+ c #72C276",
"@ c #5DA93E",
"# c #45A0C2",
"$ c #8CC53E",
"% c #8EC95C",
"& c #88B259",
"* c #A1D19B",
"= c gainsboro",
"- c #F6FAFA",
"; c #D7E9E5",
": c #A6C8CA",
/* pixels */
"============================;:;;;=;;;:;;;;;;;===================",
"===========           &===:OOOO#OOOOOOOO#;-;*o  o.:=============",
"=========== :*         .:--=:OO=;;:O#O#OOO*;--:#o  #============",
"=========== ==           o=--;++;--:OOOO+#OO*----#oo#===========",
"=========== =-            o=---*+;--+O++++++++----;#X:==========",
"=========== =-              =---*+--;++++++++O*-----:X==========",
"=========== =-              o----+:-;:O++++++++*-----#==========",
"=========== =-    o          :---;+;;;++++++++++------==========",
"=========== ;-   o o   oo     =---**--%+%+++++*+=-----==========",
"=========== --o   o oo    o o #---;+--*+*+*%+%++*-----==========",
"=========== ;;o ooooo oooo o  o=---*;-*%*+++++%+*-----==========",
"=========== ;;oooooooooooooooo :---*=-*%+%%%*%%%=-----==========",
"===========o;-oooooooooooooooo :---**-=%%%%%%%%%------==========",
"===========X;-XoooXoooooooooo  #---**-*%%%%%%%%*-----===========",
"===========X=;XoXoXXXXXXoooX##X#---**-%%%%%$%%%------#==========",
"===========X;;XXXXXXXXXoX#::--##---*=-%%%+@**%------: ==========",
"===========X;-XXXXXX#XX:;-----##---%=-*%%%=%%=-----=  ==========",
"=========;=X;-XX#XXXX#;--;----X:---$===*==%%------: # ==========",
"========;;;X;-XXXXXX:--;;-;--;X;--=$-=--*$*------# :: ==========",
"========;;;X;-XX#X#:;;-------##---$*--=$$=-----=o.=#  ==========",
"===========X;;X#X#:;;;--;----#:---$==$$*-----;# #:o  o==========",
"=========;=X;;#X#:;;;;----;-:X---*$$%*------:oo=:   o ==========",
"========;;;X;;#X#:;;;;;---;;##--=$%=-----;* o:--=o    ==========",
"========;;;#;-##::;;;------:#;--==-----:#oo:---;=: ooo==========",
"===========X;-:;;;-----;:###:-------=#oo#:------=-# Xo==========",
"==========;#----;;;:######:;----=*#ooX:-------;--==oXX==========",
"=========;=##########:;---;;::#XoX#:;----;-;-------#XX==========",
"=========;;####::;;;;:::##XXXX#:;-------;---;-;-;--:XX==========",
"==========;XX####X#XXX#XX#::X:-------------------;-;XX==========",
"==========;X:#####::;-:X:-:X:--;------;-----;;------#X==========",
"===========X-:#::::;-:X:-##;------------------------#X==========",
"===========X-:##:;;;#X;;#X###X#X#XXX#####::;--------:X==========",
"========;;:#;:;-;;:##;:X####:::::::::#####XX###:;;;-;X;;;;======",
"========;;;#;-;#####-;;-;;;;--;;;;;:;;-----;;######::#;;========",
"==========;#####:;--;;:*++OOOO.OOOOOOOOOO+*:;;---:####==========",
"==========;##:--;:*+OOOO*#OOOOOOOOOOOOOOOOOO+O+*:;--;:==========",
"===========;--**OOOOOOOO;:OO&OO+OOO+OOOOO+OO-.OOO++*;-==========",
"==========;:*++O+:+O+++*OOO+&*&O+*++OO*++O+:-***++O*++==========",
"===========+++=--;;+*-;==:*-====;-;++;;;=+*--==-+O*;O+==========",
"===========+%&==.@:;*-O.=**-..==.O;*:;.O==@&-..:;O-*O%==========",
"===========&&&-&@+&=*=.&=**=.&=&@+;*======@&=&&&=*-.+%==========",
"===========&&$==@@:=*=@$=**=@&=*@+=&=*..&*$&=&&&=-*@%&==========",
"===========$$$=--=-&&=@$=*&=@$=*@&-&&====&$$&==&&-&$%%==========",
"===========*$$-&&*@@&&@$&&&&$$&&$$&&@&&*&.$$@&&@@&@$$*==========",
"============&$=&@@@$$&$$@$$@$$$$$$@$$$@@@$$$$$$$$$$$%===========",
"=============$@&$$$$$$$$$$$$$$$$$$$$$$$$$$$$$$$$$$$&:===========",
"==============&$$$$$$$$$$$$$$$$$$$$$$$$$$$$$$$$$$$*=============",
"================================================================"
};
