/* XPM */
static char *Rai_Storia[] = {
/* columns rows colors chars-per-pixel */
"64 48 16 1",
"  c #98CD3B",
". c #9ECF46",
"X c #A2D14E",
"o c #A3D251",
"O c #A8D45B",
"+ c #B0D56E",
"@ c #BBD78A",
"# c #CAD9B0",
"$ c #C7E495",
"% c #D7EBB3",
"& c #C2D79C",
"* c gainsboro",
"= c #D5DBCA",
"- c #FEFEFC",
"; c #F2F9E7",
": c #E6F3D0",
/* pixels */
"****************************************************************",
"****************************************************************",
"****************************************************************",
"****************************************************************",
"****************************************************************",
"****************************************************************",
"****************************************************************",
"****************************************************************",
"****************************************************************",
"****************************************************************",
"****************************************************************",
"****************************************************************",
"****************************************************************",
"**oXXoooooXooooXXooooooo+***************************************",
"**ooXooooXXooooXXooooooo+***************************************",
"**ooooXXooooXXooooooooOo+***************************************",
"**ooooooooXXooXooXXooooo+***************************************",
"**oooooooXoooXoooooXoooo+***************************************",
"**oXXXXXXoooooXXXXooX.oo+***************************************",
"**oXOOOOO.XoXooooooXO$OX+***************************==**********",
"**o.%---;:OXXooOXXoX:-$X+***#+oO@******************=OO=*********",
"**o.:-;;--%XoXXXX.XX%;+X+**=oo+O+*=++=*************=OO**********",
"**o.%-% %-;oX+$+O$+X+$+X+**&X+**=*=OX#***##****==*#*##***##*==**",
"**o.:-% %-:.%---;-% :-$X+**#Xo+#=*+XXO*#OXXO=*@o@OO=OO**+oo+Oo**",
"**o.%-;;--@o--%+:-%.:-$.+***@oooO=#oo&=Oo@@X+*@oo+&=Xo*&o+#@Xo**",
"**o.:-;--@ +-;X +-% :-$.+****=&Oo&*Oo*#o+**+X=&o+**=oo*@o&**OX**",
"**o.:-%%-:X+-;+ $-%.:-$.+**=@**+o@*Oo=#o+**+X=&X&**=oo*@o@*=Oo**",
"**O.%-%O--$X;-;:--% :-$.+**@o++oX=*Oo=*+X++o+*@o@**=oo*#oO@+oo**",
"**o.%-% %;;O+;-;%;% %-$X+**=+OoO&*=++=*=+Xo+=*&o&**=O+=*@oo@+O**",
"**ooXXXXXXooXo+XXoXoXXoo+****==**********==**************==*****",
"**ooXoooooXXooXoooXXXooo+***************************************",
"**ooXXXooooXXoooooooXXoo+***************************************",
"**oooooXXooooooXoXXooooo+***************************************",
"**ooXXooooXXXXoooooooooo+***************************************",
"**oXooXooXooooXoXooXoooo+***************************************",
"**oooXoXooXooXooXooXoooo+***************************************",
"****************************************************************",
"****************************************************************",
"****************************************************************",
"****************************************************************",
"****************************************************************",
"****************************************************************",
"****************************************************************",
"****************************************************************",
"****************************************************************",
"****************************************************************",
"****************************************************************",
"****************************************************************"
};
