/* XPM */
static char *RTL4[] = {
/* columns rows colors chars-per-pixel */
"64 48 16 1",
"  c #090909",
". c gray17",
"X c #606060",
"o c #FF5E02",
"O c #FE6B14",
"+ c #FC7827",
"@ c #FF8637",
"# c #F9914F",
"$ c #FDAB6F",
"% c #F49C66",
"& c gray55",
"* c #ACACAC",
"= c #FCBA8E",
"- c #E1BDB2",
"; c #E4C4AF",
": c #DADAD9",
/* pixels */
"::::::::::::::::::::::::::::::::::::::::::::::::::::::::::::::::",
":::::::::::::::::::::::::::::::::::::::::%@@@@@@@;::::::::::::::",
":::::::::::::::::::::::::::::::::::::::::@==$$$=##::::::::::::::",
":::::::::::::::::::::::::::::::::::::::::@==$$$$##::::::::::::::",
"::::::::::::::::::::::::::::::::::::::::;@==$$$$##::::::::::::::",
":::::::::::::::::::::::::::::::::::::::::@==$$$$##::::::::::::::",
":::::::::::::::::::::::::::::::::::::::::@==$$$$##::::::::::::::",
":::::::::::::::::::::::::::::::::::::::::@==$$$$#%::::::::::::::",
"::::::::::::::::::::::X.*:::::::::::*::::@$$###$$$::::::::::::::",
"::::::::::::::::&X::::  &::::::::::::**:;@%%@@@##$::::::::::::::",
"::::::::::::::::  *:::  &:::::::::::::*:;@%%@@@@@#::::::::::::::",
"::::::::::*X.X*:  &*::  &:::::::::::*;:::@#%@@@@+#::::::::::::::",
"::::::::::    X:    *:. &:::::::::*:-::*:@#$@@@@+#::::::::::::::",
"::::::::::. X&:*   &::  &::::::::::::*:*;O#%@@@@+#::::::::::::::",
"::::::::::. &::*  *:::. &:::::::::****:::@##@@@@+#::::::::::::::",
"::::::::::. X:::  *:::. &:::::::*::-::*::O##@@@@+%::::::::::::::",
"::::::::::. &:::  &:::. &:::::::::*-:**::+#%+++++#::::::::::::::",
"::::::::::. &::*    &:    .::::***::*::::+##+O++O#::::::::::::::",
"::::::::::..&:::.   &:.   &::::::*:*:**::+##++++O#::::::::::::::",
":::::::::::::::::*::::::*::::**::::*-::::+##++O+O%::::::::::::::",
":::::::::::::::::::::::::::::*:**:-*::::-+##+OO+O#::::::::::::::",
"::::::::::::::::::::::::::::::*::*::-::::+@#+OO+O%::::::::::::::",
"::::::::::::::::::::::::::::*:*:::*::::::+##+OOOO#::::::::::::::",
":::::::::::::::::::::::::::;:*-:***::::::O@#+oOOo#::::::::::::::",
":::::::::::::::::::::::::::::*:*:*;:::::-+##OoOO+$::::::::::::::",
"::::::::::::::::::::::::::::*:*:*::::::::+@#+oOOO$::::::::::::::",
":::::::::::::::::::::::::-:-*:*::::::::::O@#OooOO#::::::::::::::",
"::::::::::::::::::::::::**:::*:**::::::::+@@Ooooo%::::::::::::::",
":::::::::::::::::::::::::::*:**::::::::::+@#+oooo#::::::::::::::",
"::::::::::::::::::::::::*::**::*:::::::::+++Ooooo%::::::::::::::",
":::::::::::::::::::::::::::*:::::::::::::-#%##%#%:::::::::::::::",
"::::::::::::::::::::::::----;-:-;;;;;;::::---:--:---::::::::::::",
":::::::::::::::::::::-+#@@@@O@++@@@O@@O%:#+@@+@@@@@@@@#:::::::::",
":::::::::::::::::::::##$$$$#@#@###@@@@@@:+$$%#####@@##O:::::::::",
":::::::::::::::::::::%#%%%#@@@@@@@@@@@@@;+%$#@@#@#@@#@+:::::::::",
":::::::::::::::::::::#@%###@@@@+@@@@@@@O:+%$#@@@@@@@@@O:::::::::",
":::::::::::::::::::::%+####@+O+OOOOOoOO@;+%$#@@@@@@@@@O:::::::::",
":::::::::::::::::::::#+%##@@OOOOOOOOoOo+:+#$#+@@@@@@@@O:::::::::",
":::::::::::::::::::::%O+++@oooO+ooooooo@:+#%@+++@@O@OO@:::::::::",
"::::::::::::::::::::::%####@#%#$######%::+##@+++@@@@@#;:::::::::",
":::::::::::::::::::::::::::::::::::::::::@#%++++@$::::::::::::::",
":::::::::::::::::::::::::::::::::::::::::###+OO++$::::::::::::::",
":::::::::::::::::::::::::::::::::::::::::+##+OOOO%::::::::::::::",
":::::::::::::::::::::::::::::::::::::::::+@#+oOOO#::::::::::::::",
":::::::::::::::::::::::::::::::::::::::::O##OooOo#::::::::::::::",
":::::::::::::::::::::::::::::::::::::::::O+@Ooooo#::::::::::::::",
":::::::::::::::::::::::::::::::::::::::::$OOoOoO+-::::::::::::::",
"::::::::::::::::::::::::::::::::::::::::::::::::::::::::::::::::"
};
