/* XPM */
static char *Silverline[] = {
/* columns rows colors chars-per-pixel */
"64 48 16 1",
"  c #0C0E0C",
". c #302F2E",
"X c #716D70",
"o c #565356",
"O c #49403A",
"+ c #81787B",
"@ c #837C84",
"# c #88817D",
"$ c #918D8F",
"% c #B2B0B3",
"& c #A39D9F",
"* c #BFBDC4",
"= c #C4BEC3",
"- c gainsboro",
"; c #F0EEEF",
": c #C3BDBD",
/* pixels */
"----------------------------------------------------------------",
"----------------------------------------------------------------",
"----------------------------------------------------------------",
"----------------------------------------------------------------",
"----------------------------------------------------------------",
"----------------------------------------------------------------",
"----------------------------------------------------------------",
"----------------------------------------------------------------",
"----------------------------------------------------------------",
"----------------------------------------------------------------",
"----------------------------------------------------------------",
"----------------------------------------------------------------",
"----------------------------------------------------------------",
"-----------------------------------::::--;;;;;;;;;;-:-----------",
"------------------------------%&&&@XooooooXX+##$&&&$+XXX#&:-----",
"---------------------------&XXXXo...OX$&&:-----------:%&#ooX&---",
"-------------------------$oooO..O+&=-----------------------:&:--",
"------------------------O .OOO#:--------------------------------",
"-----------------------X  Oo#-----------------------------------",
"-----------------------o ..X------------------------------------",
"-----------------------%.. :------------------------------------",
"------------------------:o &------------------------------------",
"--------------------------&o%-----------------------------------",
"----------------------------%-----------------------------------",
"--------------------------------------------:&=-----------------",
"---------------------------------------------$+&:---------------",
"---------------------------------------------%o@&:--------------",
"---------------------------------------------$ooXX:-------------",
"--------------------------------------------*+Xooo&-------------",
"-------------------------------------------=*-$OoO:-------------",
"---------------------------------------------$XXo$--------------",
"---------------------------------------==-%$ooX#%---------------",
"---%$&&*-------------------------=***%&$o.  .o$-----------------",
"-----%$XXX@@&&*=----------***%%&$$@Xo.    .o$-------------------",
"--------*%@XXoXX@@@@@$@@+XoooO..      .o@%----------------------",
"-------------*%$@Xo..          .OoX$%*--------------------------",
"----------------------------------------------------------------",
"----------------------------------------------------------------",
"----------------------------------------------------------------",
"----------------------------------------------------------------",
"----------------------------------------------------------------",
"----------------------------------------------------------------",
"----------------------------------------------------------------",
"----------------------------------------------------------------",
"----------------------------------------------------------------",
"----------------------------------------------------------------",
"----------------------------------------------------------------",
"----------------------------------------------------------------"
};
