/* XPM */
static char *SIXX[] = {
/* columns rows colors chars-per-pixel */
"64 48 16 1",
"  c #C9D701",
". c #CAD70A",
"X c #CBD81A",
"o c #CDD928",
"O c #CED937",
"+ c #CFD944",
"@ c #D1D959",
"# c #D0D94C",
"$ c #D4DA76",
"% c #D2DA68",
"& c #D6DB8F",
"* c #D8DBAF",
"= c #DADCC6",
"- c #DCDCDA",
"; c gainsboro",
": c #DCDCD6",
/* pixels */
";;;;;;;;;;;;;;;;;;;;;;;;;;;;;;;;;;;;;;;;;;;;;;;;;;;;;;;;;;;;;;;;",
";;;;;;;;;;;;;;;;;;;;;;;;;;;;;;;;;;;;;;;;;;;;;;;;;;;;;;;;;;;;;;;;",
";;;;;;;;;;;;;;;;;;;;;;;;;;;;;;;;;;;;;;;;;;;;;;;;;;;;;;;;;;;;;;;;",
";;;;;;;;;;;;;;;;;;;;;;;;;;;;;;;;;;;;;;;;;;;;;;;;;;;;;;;;;;;;;;;;",
";;;;;;;;;;;;;;;;;;;;;;;;;;;;;;;;;;;;;;;;;;;;;;;;;;;;;;;;;;;;;;;;",
";;;;;;;;;;;;;;;;;;;;;;;;;;;;;;;;;;;;;;;;;;;;;;;;;;;;;;;;;;;;;;;;",
";;;;;;;;;;;;;;;;;;;;;;;;;;;;;;;;;;;;;;;;;;;;;;;;;;;;;;;;;;;;;;;;",
";;;;;;;;;;;;;;;;;;;;;;;;;;;;;;;;;;;;;;;;;;;;;;;;;;;;;;;;;;;;;;;;",
";;;;;;;;;;;;;;;;;;;;;;;;;;;;;;;;;;;;;;;;;;;;;;;;;;;;;;;;;;;;;;;;",
";;;;;;;;;;;;;;;;;;;;;;;;;;;;;;;;;;;;;;;;;;;;;;;;;;;;;;;;;;;;;;;;",
";;;;;;;;;;;;;;;;;;;;;;;;;;;;;;;;;;;;;;;;;;;;;;;;;;;;;;;;;;;;;;;;",
";;;;;;;;;;;;;;;;;;;;;;;;;;;;;;;;;;;;;;;;;;;;;;;;;;;;;;;;;;;;;;;;",
";;;;;;;;;;;;;;;;;;;;;;;;;;;;;;;;;;;;;;;;;;;;;;;;;;;;;;;;;;;;;;;;",
";;;;;;;;;;;;;;;;;;;;;;;;;;;;;;;;;;;;;;;;;;;;;;;;;;;;;;;;;;;;;;;;",
";;;;;;;;;;;;;;;;;;;;;;;;;;;;;;;;;;;;;;;;;;;;;;;;;;;;;;;;;;;;;;;;",
";;;;;;;;;;;;;;;;;;;;;;;;;;;;;;;;;;;;;;;;;;;;;;;;;;;;;;;;;;;;;;;;",
";;;;;;;;;;;;;;--;;---;;;;;;-;;-;;;;;;;;;--;-;;;-;---;;;;;;-;;;;;",
";;;;;;;;;;;;--&Ooooo&-;& @;-;$ %;--;;;;--=oX=;-O *--;;;;---& +;;",
";;;;;;;;;;;;;@      O;;@ o-;;+  @;--;;-;*X  &;=. .&;-;;;--&  .;;",
";;;;;;;;;;-;$  .oooo&;;@ X:;;*X  #:;--;*X  #;;;$   &;----$   &;;",
";;;;;;;;;;;;o .*;-;;;-;@ X:;;;*X  O=;;&.  @;;--;&   $;;;@   &;;;",
";;;;;;;;;;;=. %;-;;---;@ o-;;;;=o  o=&   %;;-;;-;&.  @;#  X*;-;;",
";;;;;;;;;-;=. $;-;;;--;@ X-;;;-;:O  X.  &;-;;;;;-;*X  X  X*;-;;;",
";;;;;;;;;-;=. $;-;;;;--@ X-;;;;---@   .&--;;;;;;---*X   o=;-;;;;",
";;;;;;;;;-;=. $;-;;;;-;@ X-;;;;---@   .&-:;;;;;;---=X   O=;-;;;;",
";;;;;;;;;-;=. $;--;;;-;@ X-;;;;;:O  X   &;--;;;;:-*X  X  o*--;;;",
";;-;;;;;;-;*. $;-;;;;-;@ X:;;;;=o  o=& . $;--;;-;&.  @-#  X*;-;;",
";;;;;;;;;;:# .&;-;;;;-;@ X:;;;*X  O=;;&.  @;;--;&   %;-;@   &;;;",
";;$ooOoOoOX  o:;-;;;;-;@ o:;;*X  +:;;-;*X  #;-;$   &;----%  .&;;",
";;.         X*;-;;;;--;@ X-;;+  @;--;;--*X  &-=. .&---;---&  .;;",
";;%XXoXXXoo@=--;;;;;;-;& @;-;$ %;--;;;--;=XX=;:O *--;;;;--;& +;;",
";;;;;;;;;;----;;;;;;;;;;;;;;;;;;;;;;;;;;;;;;;;---;;-;;;;;-;;-;;;",
";;;;;;;;;;;;;;;;;;;;;;;;;;;;;;;;;;;;;;;;;;;;;;;;;;;;;;;;;;;;;;;;",
";;;;;;;;;;;;;;;;;;;;;;;;;;;;;;;;;;;;;;;;;;;;;;;;;;;;;;;;;;;;;;;;",
";;;;;;;;;;;;;;;;;;;;;;;;;;;;;;;;;;;;;;;;;;;;;;;;;;;;;;;;;;;;;;;;",
";;;;;;;;;;;;;;;;;;;;;;;;;;;;;;;;;;;;;;;;;;;;;;;;;;;;;;;;;;;;;;;;",
";;;;;;;;;;;;;;;;;;;;;;;;;;;;;;;;;;;;;;;;;;;;;;;;;;;;;;;;;;;;;;;;",
";;;;;;;;;;;;;;;;;;;;;;;;;;;;;;;;;;;;;;;;;;;;;;;;;;;;;;;;;;;;;;;;",
";;;;;;;;;;;;;;;;;;;;;;;;;;;;;;;;;;;;;;;;;;;;;;;;;;;;;;;;;;;;;;;;",
";;;;;;;;;;;;;;;;;;;;;;;;;;;;;;;;;;;;;;;;;;;;;;;;;;;;;;;;;;;;;;;;",
";;;;;;;;;;;;;;;;;;;;;;;;;;;;;;;;;;;;;;;;;;;;;;;;;;;;;;;;;;;;;;;;",
";;;;;;;;;;;;;;;;;;;;;;;;;;;;;;;;;;;;;;;;;;;;;;;;;;;;;;;;;;;;;;;;",
";;;;;;;;;;;;;;;;;;;;;;;;;;;;;;;;;;;;;;;;;;;;;;;;;;;;;;;;;;;;;;;;",
";;;;;;;;;;;;;;;;;;;;;;;;;;;;;;;;;;;;;;;;;;;;;;;;;;;;;;;;;;;;;;;;",
";;;;;;;;;;;;;;;;;;;;;;;;;;;;;;;;;;;;;;;;;;;;;;;;;;;;;;;;;;;;;;;;",
";;;;;;;;;;;;;;;;;;;;;;;;;;;;;;;;;;;;;;;;;;;;;;;;;;;;;;;;;;;;;;;;",
";;;;;;;;;;;;;;;;;;;;;;;;;;;;;;;;;;;;;;;;;;;;;;;;;;;;;;;;;;;;;;;;",
";;;;;;;;;;;;;;;;;;;;;;;;;;;;;;;;;;;;;;;;;;;;;;;;;;;;;;;;;;;;;;;;"
};
