/* XPM */
static char *Sky_Spts_News[] = {
/* columns rows colors chars-per-pixel */
"64 48 16 1",
"  c #15255E",
". c #433E6B",
"X c #566EAA",
"o c #557AC2",
"O c #294EA7",
"+ c #6A89CB",
"@ c #7D84A2",
"# c #AE2015",
"$ c #CA6B68",
"% c #BF3E33",
"& c #9FAED4",
"* c #D99E9D",
"= c gainsboro",
"- c #EAD9DE",
"; c #A5ACC7",
": c #AD7E8D",
/* pixels */
"================================================================",
"================================================================",
"================================================================",
"================================================================",
"================================================================",
"================================================================",
"================================================================",
"================================================================",
"================================================================",
"================================================================",
"================================================================",
"================================================================",
"================================================================",
"================================================================",
"================================================================",
"================================================================",
"================================================================",
"================================================================",
"================================================================",
"================================================================",
"==============--=---=-==--====--=-==============================",
"==OooX&+ooooo@$$**$$::$$$*$$$*$$:$*:$**::oooo++o++++oo+++++++O==",
"== O&+&+o&Oo+X%-**$-*-*$---$---$*--*-*=$%O+=oo&+=&+=o=+&&&&&O ==",
"== &=+&=&&&=X.%-*$%-$*--$#-*-%-*#-$%-*$#%O+==+&&=+o=+=&&&-&o  ==",
"== O;=;=;.-; .#%$-*--*%-$#-*---##-$#%$-*# @;@=;@=@O@-@== O@=@ ==",
"== X@XX.X.=. .#**-$-%##$-**%*#-$#*$#**=$# X@ =;@=;@.=.;;.&&=X ==",
"==       .@  .#%%%#%##%#%%##%#%%#%##%%%#%        .. O    ...  ==",
"================----==-=========-----===========================",
"================================================================",
"================================================================",
"================================================================",
"================================================================",
"================================================================",
"================================================================",
"================================================================",
"================================================================",
"================================================================",
"================================================================",
"================================================================",
"================================================================",
"================================================================",
"================================================================",
"================================================================",
"================================================================",
"================================================================",
"================================================================",
"================================================================",
"================================================================"
};
