/* XPM */
static char *Sky_News_HD[] = {
/* columns rows colors chars-per-pixel */
"64 48 16 1",
"  c #070708",
". c #2C2C2E",
"X c #5E0E09",
"o c #5F5F61",
"O c #3C3D44",
"+ c #9B2324",
"@ c #A45C5A",
"# c #D62625",
"$ c #B14D4A",
"% c #AAA5A6",
"& c #D3A7A7",
"* c gainsboro",
"= c #F6F5F5",
"- c #E4D7D7",
"; c #D7C4BF",
": c #97827F",
/* pixels */
"****************************************************************",
"****************************************************************",
"****************************************************************",
"****************************************************************",
"****************************************************************",
"****************************************************************",
"****************************************************************",
"****************************************************************",
"****************************************************************",
"****************************************************************",
"****************************************************************",
"****************************************************************",
"****************************************************************",
"****************************************************************",
"****************************************************************",
"****************************************************************",
"****************************************************************",
"****************************************************************",
"******************************************=*********************",
"********************OXXXXXXXXXX.XXXXXXXXXXX+XXX;****************",
"***=====*O%=========OX XXXXXXXXX XXXXXXXXXXXXXX-=============***",
"***==***;.;==*====*=+$&XXX%+%;;;@%+X:@X@&X%*;+X-*%===%=;%%*==***",
"**=*.  O* *=o o==oo=+@=&X$=@=&@:+=:X==X;;;-@&+X=:.==; ;. . O==**",
"**=: %%=* %O o %* %=X@==@X=+*@XXX;:@--X-@&-XXXX-o ==% ; :=% %=**",
"**=*O  o; O %=O.O.==+@*@=@=+-==&X&&:&&$-+X;=;+X-:     ; :==.o=**",
"**==*;o : %.O=*  %==+@=X&==$=$++X@;;$&&-++++-&+=: %%: ; %=* o=**",
"**=%   O% *; o=o.===+@=++&=$=;@&++==+@=;+:&@-&+-o ==% % .o  *=**",
"**==;%%==%==*%* %===#$&##+&$&&&&$#&&##&$#@;;&++-:o==%O*o..o*=***",
"***====*==**==o.****$##########################*==*=*========***",
"**;***;*******%%****$########################$#%****;*****;*****",
"********************--**-***************************************",
"********************--**-***************************************",
"****************************************************************",
"****************************************************************",
"****************************************************************",
"****************************************************************",
"****************************************************************",
"****************************************************************",
"****************************************************************",
"****************************************************************",
"****************************************************************",
"****************************************************************",
"****************************************************************",
"****************************************************************",
"****************************************************************",
"****************************************************************",
"****************************************************************",
"****************************************************************"
};
