/* XPM */
static char *Sky_Xmas[] = {
/* columns rows colors chars-per-pixel */
"64 48 16 1",
"  c #1B2C5F",
". c #37486D",
"X c #79797C",
"o c #454A5B",
"O c #5B6FA1",
"+ c #3B4F89",
"@ c #6F85B5",
"# c #7590C3",
"$ c #9CA3B1",
"% c #A3AFCC",
"& c #BCC3D3",
"* c gray86",
"= c #F1F1F1",
"- c #DADCE1",
"; c #C2C1BE",
": c #807E80",
/* pixels */
"********=******=*********=********************=*****************",
"*******************=*************=****=*=*************=******=**",
"****************************************************************",
"**-*************************************************************",
"*-**************************************************************",
"***-************=******=******=*****************=*************=*",
"*-*****=******************=***************************=*=*******",
"--******=******=*********************=***=**********************",
"**************=****=***********-********=******=***=************",
"*=**************************=***=***************************=***",
"*******=********************************************************",
"*******************************************************=********",
"****************=******==******-********************************",
"****************************-***************************=******=",
"*=*************=***********************=************************",
"*********=********************-**=******=******=***=************",
"********&--&---------&-----*************************************",
"**;@OOOOOOOO+O+OOOO+OOOOO+$;;&&&*;;**;;*;;**;*;*;*;;*;;;;;;&$;**",
"**$#OOOO+OOO%#OOOOOO+OOOOO$=================================*$**",
"**$@#@@@###%=&@#@@@@#@@@@@%==================================;**",
"--#@@@O#@#O%=&O@@@@@@O@@@O%-====*-===-*=*-*&**&&-=&&&&&-=====;**",
"--#@@@&===-%=&O%--%@@#-%@@%=====#$=-=%@*O&@OO+@O%%O$@@O*=-===***",
"--#@@%=-&-&%=&$====#@&=%OO$*=**=o@===$.& ;*-$ ;**.O==******-=***",
"--##O%==&%@%=-==#%=&+=-   X;-***X.OO@..; *--$ ***: .O$;*****-***",
"-*@@@@%-===%=-==+ &=%=O   O;-**=..X.X..& ;**$ ****$O.. $**;**;**",
"--#@O#%%%-=%=$O=% +==*    X;-**=.@=*=$.; ;**$.;*****=*.o*;***;**",
"**#@O%====&O=$ ;=O #=:    X;***=.O=**@.& ;**$ ***$.... $*;*;*;**",
"**#@O.+.O+ .+   O. -=     X;***-$;***;$&$;**;$***$O:$O$***;**;**",
"**$+              O=$     X;**-*--**********************;**;*;**",
"**$               X$      o$;;;;*;;;;;;;;;;;;;;;;;;;;;;;;;;;;$**",
"**;oooooooooooooo   oooooooX::::XX:::::::X:XXX:X::XX::::::X:$;*-",
"********************;*******-**********************************-",
"****************************************************=******=****",
"****=***********************************************************",
"************=***************************=******=****************",
"********************=******=********-***************************",
"=*****************=*=******=*=*********-********=********=****=*",
"********=*******************************************************",
"****=********=*************************=***=********************",
"*********************************=******************=***********",
"**********************************************=***********=*****",
"*************=************************=*************************",
"********************=******=**********************=*************",
"=******=**********=**********=**********************************",
"*************************************************************=**",
"**********=**=******************=********=********=***=**=******",
"*******************=********=*********=******=******************",
"****=***********************************************************"
};
