/* XPM */
static char *Sky_Sports_2_HD[] = {
/* columns rows colors chars-per-pixel */
"64 48 16 1",
"  c #09286B",
". c #563361",
"X c #5469A0",
"o c #325192",
"O c #7986B5",
"+ c #7891C1",
"@ c #D01F2C",
"# c #D26665",
"$ c #B92532",
"% c #CD8374",
"& c #A1ABCA",
"* c #E4A1A0",
"= c gainsboro",
"- c #EEE0E2",
"; c #99A0C2",
": c #D77980",
/* pixels */
"================================================================",
"================================================================",
"================================================================",
"================================================================",
"================================================================",
"================================================================",
"================================================================",
"================================================================",
"================================================================",
"================================================================",
"================================================================",
"================================================================",
"================================================================",
"================================================================",
"================================================================",
"================================================================",
"================================================================",
"================================================================",
"================================================================",
"================================================================",
"===================-====--=====-====-===========================",
"==X;OX;=+++;OO%%#%%%*%%%%%%%%%##%%%%###%::%%++O;OO++OX++OO+++X==",
"== o+;;=o+XXOX##*--**-==#*--*#---%*---:=-=##o+=XX=;=-=XX+=-&o ==",
"== ;-&+=+-=o=X.#-*#@**@-*-##-*-#*-#*-#*-##$$o+=oO-&=X=&oX++-o ==",
"== o&&;=-o&-; .@*=-#*-*-*-@@-*-*-*@#=@$=-*@$ X---=;& X=  o=&  -=",
"== o&-=&&&o-o .@##*-***#@-##-:-*-@@:=@$$#-*$ X- X=O=o=& X-&X  ==",
"== oOXoo XO=  .@---#*#@@@#--##*@*-@#*@%--=$$ X& o&X==&o +-&=o ==",
"==        +o  $@@@@@@@@@@@@@@@@@@@@@@@@@@@@$                 o==",
"================================================================",
"================================================================",
"================================================================",
"================================================================",
"================================================================",
"================================================================",
"================================================================",
"================================================================",
"================================================================",
"================================================================",
"================================================================",
"================================================================",
"================================================================",
"================================================================",
"================================================================",
"================================================================",
"================================================================",
"================================================================",
"================================================================",
"================================================================"
};
