/* XPM */
static char *Sony_Movies[] = {
/* columns rows colors chars-per-pixel */
"64 48 16 1",
"  c #1A1C21",
". c #46505C",
"X c #557393",
"o c #6F8CAB",
"O c #79A5D3",
"+ c #73A2D4",
"@ c #92B2D4",
"# c #8EBAE8",
"$ c #A7BCD2",
"% c #96C4F3",
"& c #B4C6D8",
"* c #B0CBE8",
"= c #B8E4FF",
"- c #DBDCDC",
"; c #CDDEED",
": c #96A1AD",
/* pixels */
"----------------------------------------------------------------",
"----------------------------------------------------------------",
"----------------------------------------------------------------",
"----------------------------------------------------------------",
"----------------------------------------------------------------",
"----------------------------------------------------------------",
"----------------------------------------------------------------",
"----------------------------------------------------------------",
"----------------------------------------------------------------",
"----------------------------------------------------------------",
"----------------------------------------------------------------",
"----------------------------------------------------------------",
"----------------------------------------------------------------",
"----------------------------------------------------------------",
"----------------------------------------------------------------",
"----------------------------------------------------------------",
"----------------------------------------------------------------",
"----------------------------------------------------------------",
"----------------------------------------------------------------",
"--$@@@@@@$:o$---*@@--@O@-&+&-:&:&-@@--@+--@+&-@+O-$$-&@:@-OO+:--",
"--++####*X:;;--*-&@-@@-@@&@#&@-&@$+---@O$-OO-@#-@@&@-@#$#&#&&---",
"-;+O####XX;-----*%*&@--$@&#@$@&-@#&---@@@&@#&O--&@-@&@*$*&#@@$--",
"--+O##%o.@;;;--;--#*#*-$#&#-@#&-$#----@$$#$#&#&-$#-$##-$%&#-----",
"--+###@..*;;;--**&*-&#$$;&%--%&-&*----@*&#-#--#**&-&#*-$*-#$#$--",
"--+###.  o=**----*--------&----------------&---&----&&----&--&--",
"--+OO+   .@=*---*$&---$--&&----$&---&*--*---$&-&---&&$$---$-----",
"-;+++X     .:--*--;---$&-&$---&$&----#$-*---$*-&&--&&-----$-----",
"-;X++.  ... .--&------$$$$&---$$@---&$&&$---$&*$&--&$$$---@&----",
"--XX+  X+++X.--$--$&--@&-&$--&@&$$--&$-$@---@-&@---&&-----@-----",
"--oX+.X+++O+:---@@$---$---$--$---$--&$--$---$--&&--&@$$&--@$$$--",
"----;-----------------------------------------------------------",
"----------------------------------------------------------------",
"----------------------------------------------------------------",
"----------------------------------------------------------------",
"----------------------------------------------------------------",
"----------------------------------------------------------------",
"----------------------------------------------------------------",
"----------------------------------------------------------------",
"----------------------------------------------------------------",
"----------------------------------------------------------------",
"----------------------------------------------------------------",
"----------------------------------------------------------------",
"----------------------------------------------------------------",
"----------------------------------------------------------------",
"----------------------------------------------------------------",
"----------------------------------------------------------------",
"----------------------------------------------------------------",
"----------------------------------------------------------------"
};
