/* XPM */
static char *Sony_TV_+1[] = {
/* columns rows colors chars-per-pixel */
"64 48 16 1",
"  c #031A7C",
". c #07207F",
"X c #162D87",
"o c #21378C",
"O c #394C98",
"+ c #5969A9",
"@ c #7986B9",
"# c #8792BE",
"$ c #8F99C5",
"% c #ABB1CB",
"& c #99A3CA",
"* c #BDC3DD",
"= c gainsboro",
"- c #D0D5E7",
"; c #FCFCFD",
": c #DEE1EE",
/* pixels */
"================---===-=================-=======================",
"==oOOOOOOOOooooooooooooooooooooooooooooooXooooooo%==============",
"==O:;;;;;;OXooooXoooooooooooooooooooooXoooooooooo%==============",
"==O;;;;;;*XoooXoooooooooooooooooooooooooooooooooo%==============",
"==O;;;;;;+XoooooooXoXooooooooooXooooooXoooooooooo%==============",
"==O;;;;;;OXoooXooooooooooooXXoOOOoXXoooooooXooooo%==============",
"==O;;;;;-oooooooooooooooooo@-:;;;:%+oXooooooooooo%==============",
"==O;;;;;%XoooooooooooooooX%;;;;;;;;;:OXooXooooooo%==============",
"==O;;;;;&XooooooooooooXoXO;;;;;;;;;;;-ooooooooooX%==============",
"==O;;;;;$XoooooooXoooXooX+;;;;;;;;;;;;+Xooooooooo&==============",
"==O;;;;;$XooXooooooooooooo-;;;;;;;;;;;@XoXoXXXXXX%==============",
"==O;;;;;&XoXoooooooooooooXO:;;;;;;;;;;:--------:+&==============",
"==O;;;;;%XoooooooXooooooooXo$:;;;;;;;;;;;;;;;;;;+%==============",
"==O;;;;;-XooooooooooooooooooXo+*;;;;;;;;;;;;;;;;+%==============",
"==O;;;;;;oXoooXooooXooooooooooXXo+$-;;;;;;;;;;;;+&==============",
"==O;;;;;;+XooooooooooooooooooXoooXXXO+&-;;;;;;;;+&==============",
"==O;;;;;;*XoooooooXoooooooXooooooooooX.XO#%;;;;;+%==============",
"==O;;;;;;;+Xooooooooooooooooooooooooooooo..O+-;;+%==============",
"==O:;;;;;;-XooooXoooooXoooXoooooooooooooooO...+*+%==============",
"==O;;;;;;;;$XooooooooooooooooXoooooooooXooO.oO...%==============",
"==O;;;;;;;;;+XooooXoooooooooooooooooooooooooO.O..*==============",
"==O;;;;;;;;;;$XooooooXooooooXooooooooooooooo.O.O.%==============",
"==O;;;;;;;;;;;%OXoooooooooooooooooooooooooooO.O.O%==============",
"==O;;;;;;;;;;;;:+XXoooooXooooooooXoooooooooo.O.O.*==============",
"==O;;;;;;;;;;;;;;-+oXXoooooooooooooooooo.O.O.O.O.%==============",
"==O;;;;;;;;;;;;;;;;:$OXXXoooooooooooXoooO.O.O..OO%==============",
"==O;;;;;;;;;;;;;;;;;;;-@OoXXooooXooooooo.O.O.O.O.%==============",
"==O;;;;;;;;;;;;;;;;;;;;;;:%+OoXoXoooooooO.O.O.O.O%==============",
"==O;;;;;;;;;;;;;;;;;;;;;;;;;;:%+OXXXoooo.O.O.O.O.%==============",
"==O;;;;;;;;;;;;;;;;;;;;;;;;;;;;;;-$+XXooO.O.O.O.O%==============",
"==O:;;;;-$$$$$$$$$$$$$$$$:;;;;;;;;;;-+Xo.O.O.O.O.%==============",
"==O;;;;;$ XXXXXXXXXXXXXXX%;;;;;;;;;;;;%XO.O.O.O.O%==============",
"==O;;;;;&XooooooooooooooX-;;;;;;;;;;;;;&Xoooooooo%==============",
"==O;;;;;$XooooooooooooooX*;;;;;;;;;;;;;:ooooooooo%==============",
"==O;;;;;$XooooXoooooooooX*;;;;;;;;;;;;;:ooooooooo%==============",
"==O$$$$$+oooooooooooooooo+&$&$$$$$&$$&%+ooooooooo%=-============",
"==XXXXXXXXXXoooXXXXXXXooo   ....    X  XXXooXXXXo%==========Oo==",
"==oX+%-:-%+@oXXO$-::-@oXO&@#+.o+$@$@O$$+@+XO$+$+o%==-%====#...==",
"==X+;-+++%;:OX+;;%++%;:OO%;;;+ +%;:$O%:;;$XO:;*@o%==&o$===O+Oo==",
"==X-;+ooXXO:OO:;+XXXX$;-XX:;;;@.X:& o.O;;&XO;&XXo%==%.&=====Oo==",
"==X$;;;;:*$OX@;:oooooO;;+.;&&;;#X:%XooX+;;&:*Xoo.%%.O.O.#===O.==",
"==oo#-:;;;;;O@;-oooooO:;+.;& %;;$:%XoooX+;;-ooooO%=++.++&===O.==",
"==X$# oO++*;@O;;OXooX+;;O.;%..$;;;&XooooX-;+Xoooo%==%.#=====+o==",
"==X&;$OXXX%;+X%;-OXX+:;@.O;%O..#;;&XooooO:;$ooooo%==%o&=====Oo==",
"==X&--:::;;@XoX$;;::;:+X+==;=Oo.+:&XoooO::::%Xooo%==========#+==",
"==oOoXO++OoXoooXo+++OoXoO....oooXooooooooooooooo.%==============",
"==oooooXXooooooooXXXooOooooo.OooooooooooooooooooO%==============",
"================================================================"
};
