/* XPM */
static char *Star_Jalsha[] = {
/* columns rows colors chars-per-pixel */
"64 48 16 1",
"  c #F70E07",
". c #F62425",
"X c #F82E4E",
"o c #F1596C",
"O c #FB5520",
"+ c #ED7588",
"@ c #F28F67",
"# c #E4ACB4",
"$ c #E8979E",
"% c #E1BBC1",
"& c #DCDCDB",
"* c #E5D9D6",
"= c #E6E3DC",
"- c #F0EDE9",
"; c #E0E2E0",
": c #D3C1BD",
/* pixels */
"&&&&&&&&&&&;&&&&&&&&&&&&&&&&&&&&&&&&&&&&&&&&&&&&&&&&&&&&&&&&&&&&",
"&&&&&&&&&&&&&&&&&&&&&&&&&&&&&&&&&&&&&&&&&&&&;&&&&&&&&&&&&&&&&&&&",
"&&&&&&&&&&&&&&&&&&&&&&&&&&&&&&&&&&&&&&&&&&;&&&;&;&&;&&&&&&&&&&&&",
"&&&&&&&&&&&;&&&&&&&&&&&&&&&&&&&&&&&&&&&&&&&&&&&&&&&&&&&&&&&&&&&&",
"&&&&&&&&&&&&;&&;&&&&&&&&&&&&&&&;;&&&&&&&&&&&&&&&&&&&&&&&&&&&&&&&",
"&&&&&&;&&&&&&&&&&&&&&&&&&&&&&&&;;&&&&&&&&&;&&&&&&&&&&&&&&&&&&&&&",
"&;&&&&;&&&&&&&&&&&&&&&&&&&&&&&&;-&&&&&&&&&&&&&&&&&&&&&&&&&&&&&&&",
"&&&&&&&&&&&&&&&&&&&&&&&&&&&&&&&&-&&&&&&&&&&&&&&&&&&&&&&&&&&&&&&&",
"&&&&&&&&&&&&&&&&&&&&&&&&&&&&&&&;-&&&&&&&&&&&&&&&&&&&&&&&&&&&&&&&",
"&&&&&&&&&;&&&&&&&&&&&&&&&&&&&&*--&&&&&&&&&&&&&&&&&&&&&&&&&&&&&&&",
"&&&&&&&&&;&&&&&&&&&&&&&&&&&&&&*=-&:&&&&&&&&&&&&&&&&&&&&&&&&&&&&&",
"&&&&&&&&&&&&&&&&&&&&&&&&&&&&&:*--;:&&&&&&&&&&&&&&&&&&&&&&&&&&&&&",
"&&&&&&&&&&&&&&&&&&&&&&&&&&&&**==--:&&&&&&&&&&&&&&&&&&&&&&&&&&&&&",
"&&&&&&&&&&&&&&&&&&&&&&&&&&&&**-*--*&&&&&&&&&&&&&&&&&&&&&&&&&&&&&",
"&&&&&&&&&&&&&&&&&&&&&&&&&&&&-**----*&&&&&&&&&&&&&&&&&&&&&&&&&&&&",
"&&&&&&&&&&&&&&&;&&&&&&&&&&&&=***---*&&&&;;;;;;;;;;&&&&&&&&&&&&&&",
"&&&&&&&&&&&&&&&;;;;;;;&&&&:***==---*-**%**;*;&&&&;&&&&&&&&&&&&&&",
"&&&&&&&&&&&&&&&&;;--------;;**==-----------&*&&&&&&&&&&&&&&&&&&&",
"&&&&&&&&&&&&&&&&&&;;;;--------=---------**&**&&&&&&&&&&&&&&&&&&&",
"&&&&&&&&&&&&&&&&&&&&;-;;=-----------*****%%&&&&&&&&&&&&&&&&&&&&&",
"&&&&&&&&&&&&&&&&&&&&&*-;===------*$@$%%%*&&&&&&&&&&&&&&&&&&&&&&&",
"&&&&&&&&&&&&&&&&&&&&&&**-==--*$oO.O@***-&&&&&&&&&&&&&&&&&&&&&&&&",
"&&&&&&&&&&&&&&&&&&&&&&&&*-*$O    O*-**;-&&&&&&&&&&&&&&&&&&&&&&&&",
"&&&&&&&&&&&&&&&&&&&&&&&&&@O     @----**&&&&&&&&&&&&&&&&&&&&&&&&&",
"&&&&&&&&&&&&&&&&&&&&&&&&* .    @-------=&&&&&&&&&&&&&&&&&&&&&&&&",
"&&&&&&&&&&&&&&&&&&&&&&&&$ .   $;-------=&&&&&&&&&&&&&&&&&&&&&&&&",
"&&&&&&&&&&&&&&&&&&&&&&&&o.   #&&----=-**&&&&&&&&&&&&&&&&&&&&&&&&",
"&&&&&&&&&&&&&&&&&&&&&&&*O  .:&&&=---==&:&&&&&&&&&&&&&&&&&&&&&&&&",
"&&&&&&&&&&&&&&&&&&&;&&&$. .:&&:&---=-==&&&&&&&&&&&&&&&&&&&&&&&&&",
"&&&&&&&&&&&&&&&&&&&&&&&@ .&&&:&&;=*====&&&&&&&&&&&&&&&&&&&&&&&&&",
"&&&&&&&&&&&&&&&&&&&&&&&..&;&:&&&&&&*====&&&&&&&&&&&&&&&&&&&&&&&&",
"&&&&&&&&&&&&&&&&&&&;&&#X&;&&&&&&&&&&*==-&&&&&&&&&&&&&&&&&&&&&&&&",
"&&&&&&&&&&&&&&&&&&&&&&+%;&&&&&&&&&&&&&=&*&&&&&&&&&&&&&&&&&&&&&&&",
"&&&&&&&&&&&&&&&&&&&&&&%;&%&&&&&&&&&&&&&**&&&&&&&&&&&&&&&&&&&&&&&",
"&&&&&&&&&&&&&&&&&&&&&&;&&&&&&&&&&&&&&&&&&*&&&&&&&&&&&&&&&&&&&&&&",
"&&&&&&&&&&&&&&&&&&&&&&&&&&&&&&&&&&&&&&&&&&&&&&&&&&&&&&&&&&&&&&&&",
"&&&&&&&&&&&&&&&&&&&&&&&&&&&&&&&&&&&&&&&&&&&&&&&&&&&&&&&&&&&&&&&&",
"&&&&&&&&&&&&&&&&&&&&&&&&&&&&&&&&&&&&&&&&&&&&&&&&&&&&&&&&&&&&&&&&",
"&&&&&&&&&&&&&&&&&&&&&&&&&&&&&&&&&&&&&&&&&&&&&&&&&&&&&&&&&&&&&&&&",
"&&&&&&&&&&&&&&&&%+o&%%&&&&&&&%$#+%#$$$$$$$$$$#%#&&&&&&&&&&&&&&&&",
"&&&&&&&&&&&&&&&&X+##Xo%%+#%$$#$XoX+$++$XXXX+XoX+&&&&&&&&&&&&&&&&",
"&&&&&&&&&&&&&&&&oX#%Xo+XoX#Xo%%X#+X#+X+X+&o+o#X&&&&&&&&&&&&&&&&&",
"&&&&&&&&&&&&&&&&&$X+X%++%X%X&+$$X+o+X%+++%XX+#X&&&&&&&&&&&&&&&&&",
"&&&&&&&&&&&&&&&&+#X+X++X+X#X&#X$o+X#+X%+oo#$o%X&&&&&&&&&&&&&&&&&",
"&&&&&&&&&&&&&&&&+o+&#o#+o+#+&&%o+&$+&%&#$&&#$%$&&&&&&&&&&&&&&&&&",
"&&&&&&&&&&&&&&&&&&&&&&&&&&&&&&&&&&&&&&&&&&&&&&&&&&&&&&&&&&&&&&&&",
"&&&&&&&&&&&&&&&&&&&&&&&&&&&&&&&&*&&&&&&&&&&&&&&&&&&&&&&&&&&&&&&&",
"&&&&&&&&&&&&&&&&&&&&&&&&&&&&&&&&&&&&&&&&&&&&&&&&&&&&&&&&&&&&&&&&"
};
