/* XPM */
static char *TBN_Europe[] = {
/* columns rows colors chars-per-pixel */
"64 48 16 1",
"  c #5F521D",
". c #EF5A31",
"X c #EF682E",
"o c #ED7552",
"O c #B45B14",
"+ c #AB941B",
"@ c #E09D12",
"# c #ED8C6E",
"$ c #A79957",
"% c #ABA89E",
"& c #EAAA97",
"* c #EAC5B9",
"= c #DCDBDB",
"- c #FEF9F7",
"; c #F8D9CF",
": c #BDBDC3",
/* pixels */
"================================================================",
"================================================================",
"=========-======================================================",
"================================================================",
"=================*&&&&##=#..X....#=====##&======================",
"============&##o.......o=#.X.......*==%..o======##&=============",
"============o.X........X=o..Xoo..X.o==&...&====*X.#=============",
"============o.XoX..o&%&*=#..#===o...==&....*===*X.#=============",
"=============*==&XX#=====o..o===&.X.*=&....#===:X.&=============",
"================:..#=====#..o===#..o==&.....:==&.X&=============",
"================:..#=====#..o:&#..X&==%.XoX.#==&..&=============",
"=================..o=====#........#===#..%o..&=&..==============",
"=================..o=====#.........#:=&..*:..#=&..:=============",
"=================X.o=====#...#&&#...#=&..*=o..*#..:=============",
"=================o.o=====#..o====#..o=#..*=&.X##.X*=============",
"=================oXo=====#..o====&...=#X.===o....X==============",
"=====-===========o.o=====#..o====#...=&.X:==:....X==============",
"=================&..=====&..o&&&#...o=o.X====#.X.o==============",
"=================o..:====&..........&=o.X====&X..o==============",
"=================&..*====&.........&==o.X=====#X.#==============",
"=================#..*===;&#&&##&&&====&.o=====&X.#==============",
"=================**============::=:::==========&o&==============",
"===============:%%%$$$$+O+++++@++++++++++$$$$%%%:===============",
"=========%%$$++@+++@@@@@@@@@@X@@@@@@@@@@@@@@@@@@+++$$%%=========",
"========%+@@@@@@@XX..........................XXX@@@@@@+%========",
"========%@@X........oo.o&oo*#&*..&;;o.o&o#o.........X@@$========",
"========%@X.X.#;-&.X-*.#-##-*--X;-&;-.#----#..&;*..X.X@%========",
"======%%+@X..&-&&-&.-*.#-##-;#oo-&.o-&o-&o;-.&-*;-o..X@$:=======",
"==:%$+++@@X.o-;X#-;X-;.#-##-&..#-#.o-&&-o.&-o;-o.-*..X@@@@@#*===",
"==++@@@o.XX.#---;*&X-;.#-##-#..o-&.o-&#-o.&-#---;-;..XX.X@@@@+==",
"==%@@....@XO#-*...o.-;#;-##-#...;-&;-.&-&o;-X;-.ooo..XX.X..X+$==",
"==%+XX...XX.#--&#;;.&--*-#o-#...X*-;#.&----&.&-;oo#..@X.XX.@+%==",
"==:+@....XX..#;-=&X..oo.X......X......&-ooo...#---*..XX.X..@+===",
"===$@...XXX................X..XX...XX.&-o.......Xo...XXX...@$===",
"===$@....X@....X.X...XX...X...XX...X..&-o...........X@....X@%===",
"===%@X....@X..........XXXXXXXX@@XXXXXXX#o...........XX..X.@+:===",
"====+@....XX....XX@@@@@@@@@@@+++@+++@@@@@@@@@@@#....X@....@+====",
"====+@....X@@@@@@@++++$$$%%%%%%:%%%%%$$$$$++++++@@@@@X...X@%====",
"====$@X...X@++   %:==========================:%   ++@....X+:====",
"====%@X.X..@++   =============================:   O+@....@+=====",
"====:+@.....@@@@+%============================:+@@@@....X@$=====",
"=====$@.X@@@@@++$==============================$++@@@@XX@@%=====",
"=====$@@+++$$%:============-=====================:%$$+++@+======",
"=====%+$%:===========================================:%%+$======",
"================================================================",
"================================================================",
"================================================================",
"========================================-======================="
};
