/* XPM */
static char *TCM_HD[] = {
/* columns rows colors chars-per-pixel */
"64 48 16 1",
"  c gray2",
". c gray20",
"X c #4E4E4E",
"o c #6F6F6F",
"O c #B10000",
"+ c #940000",
"@ c #C40101",
"# c #EE0303",
"$ c #EC2B2B",
"% c #F05656",
"& c #909090",
"* c #B2B2B2",
"= c #F7A2A2",
"- c gray86",
"; c #FBCECE",
": c #FDF8F8",
/* pixels */
"-------------------------------------------------:--------------",
"---------------------:--------------:---------------------------",
"-----------:-----------------------------:--------------:-------",
"------------------------:------:--------------------------------",
"-------:-----------------------------------------------------:--",
"--------------:-----------------------------:-------:-----------",
"----------------:-------------------:---------------------------",
"--------------------------------------------------------:-------",
"----------------------------------------------------------------",
"-----------------------------------------------------:----------",
"---------:-----------:------------------------------------------",
"-----------------------------------:-----:--------------------:-",
"--------------------------------------------------:-------------",
"---:------------------------------------------------------------",
"--------------:-------------------------------------------------",
"--                                                            --",
"-- +@@@@@@@@@@@@@@@@@@@@OO@@@@@@@@@@@@@@@@@+                  --",
"-- @#######################################O   X   X  XXX.    --",
"-- O###$$$$$$$$#####$%%%$$$##$$$$####$$$$##O  o:. X:X ::::-   --",
"-- O##;:;::::=:=##%;::;=;:;##=::;:$$::::=$#O  o:. .:X :* X:&  --",
"-- @#$;$$:=;;#%;#%:=;;###%;##$;:==;;:;=:###+  o:X.o:X :&  -*  --",
"-- O####$:%;;####=:%;;#######$;%:=:%=;%:###O  X:::::X :&  -*  --",
"-- O####$:=;;####$:;;;###$%##$;#%:=#=;=:###O  o:X X:. :&  -*  --",
"-- O####;::::%####$=::;=;;=##=:=#$#%::::=##O  X:. X:X :& X:&  --",
"-- O####$$$$$$#####@#$%%$####$$$###$$$$$$##O  o:. X:X ::::-   --",
"-- @#######################################O  .X   X  .XXX    --",
"-- +@@@@@#@@@@@@@@@@@@@@@@@@@@@@@@@@@#@@@@@+                  --",
"--                                                            --",
"----*--------*-*----*--*-----*-**--*---**--*-*-----*-----*------",
"----------------------------------------------------------------",
"--&o*&**&o&*o**&o*&o&--&o*&*--o-&o-&o-&*&o*--X-X-oo*&&*&*X&*o&--",
"--*&-o*&*X&*XX*&&-&X&--o--&*-&X**o**&*&*o----XXo*&&*oo-o-X*-o&--",
"--*&-&o**&&**o*&o-&&&--&o*&o*o&&*o&*o&&*&o*--&*&*oo-&&-&-X&-&X--",
"----------------------------------------------------------------",
"----------------------------------------------------------------",
"------------------------------------:---------------------------",
"----------------------------------------------------------------",
"-------------------------------::-------------------------------",
"---------------------------------------------------------:------",
"-----------------------:------------------:---------------------",
"-----------------------------:----------------------------------",
"----------------------------------------------------------------",
"-------------------------------------:-------:-------:------:---",
":--------------:--:---------------------------------------------",
"----------------------------------------------------------------",
"-------:---:-----------:----------------------------------------",
"--------------:------------------:--------:--------:------------",
"------------------------:-------------------------------:-------"
};
