/* XPM */
static char *Travel_Ch_+1[] = {
/* columns rows colors chars-per-pixel */
"64 48 12 1",
"  c #1AAEE7",
". c #2AB3E8",
"X c #49BCE8",
"o c #55C2ED",
"O c #6DC9ED",
"+ c #91D4EF",
"@ c #B3D3DF",
"# c #A4D8EC",
"$ c #B7E5F7",
"% c gainsboro",
"& c #CBECFA",
"* c #FAFDFF",
/* pixels */
"%%%%%%%%%%%%%%%%%%%%%%%%%%%%%%%%%%%%%%%%%%%%%%%%%%%%%%%%%%%%%%%%",
"%%%%%%%%%%%%%%%%%%%%%%%%%%%%%%%%%%%%%%%%%%%%%%%%%%%%%%%%%%%%%%%%",
"%%%%%%%%%%%%%%%%%%%%%%%%%%%%%%%%%%%%%%%%%%%%%%%%%%%%%%%%%%%%%%%%",
"%%%%%%%%%%%%%%%%%%%%%%%%%%%%%%%%%%%%%%%%%%%%%%%%%%%%%%%%%%%%%%%%",
"%%%%%%%%%%%%%%%%%%%%%%%%%%%%%%%%%%%%%%%%%%%%%%%%%%%%%%%%%%%%%%%%",
"%%%%%%%%%%%%%%%%%%%%%%%%%%%%%%%%%%%%%%%%%%%%%%%%%%%%%%%%%%%%%%%%",
"%%%%%%%%%%%%%%%%%%%%%%%%%%%%%%%%%%%%%%%%%%%%%%%%%%%%%%%%%%%%%%%%",
"%%%%%%%%%%%%%%%%%%%%%%%%%%%%%%%%%%%%%%%%%%%%%%%%%%%%%%%%%%%%%%%%",
"%%%%%%%%%%%%%%%%%%%%%%%%%%%%%%%%%%%%%%%%%%%%%%%%%%%%%%%%%%%%%%%%",
"%%%%%%%%%%%%%%%%%%%%%%%%%%%%%%%%%%%%%%%%%%%%%%%%%%%%%%%%%%%%%%%%",
"%%%%%%%%%%%%%%%%%%%%%%%%%%%%%%%%%%%%%%%%%%%%%%%%%%%%%%%%%%%%%%%%",
"%%%%%%%%%%%%%%%%%%%%%%%%%%%%%%%%%%%%%%%%%%%%%%%%%%%%%%%%%%%%%%%%",
"%%%%%%%%%%%%%%%%%%%%%%%%%%%%%%%%%%%%%%%%%%%%%%%%%%%%%%%%%%%%%%%%",
"%%%%%%%%%%%%%%%%%%%%%%%%%%%%%%%%%%%%%%%%%%%%%%%%%%%%%%%%%%%%%%%%",
"%%..................... ................ .......%o .%%%%%%%%+.%%",
"%%............................... ..............+@..+%%@O%%O..%%",
"%%....................................... ......X%X..%@O.@%%@ %%",
"%%........o. .......................... .X.......@@. @OX.X@%@ %%",
"%%..... +&&........................... #*& ......X%X.X%@X%%%@.%%",
"%%. ... &*&    ..     ... ...  ...   ..**& . .... @@. @%@%%%@X%%",
"%%..... &*&OooO..OooOOo oOO. oOo .OOO .&*& .......X%X.X%%%%%%%%%",
"%%..... &***&#*$&*$****++**o **$X&***# &*& ........@@..@%%%%%%%%",
"%%..... &**&+#****+$&&**O**O.**O&*&+**O&*$.........o%. O%%%%%%%%",
"%%......&*$  $**o  o.+**O&*+o**o**O.**+&*&..........%+..@%%%%%%%",
"%%......&*&  #**..$*****o#*&+*$o******&&*& .........O%..@%%%%%%%",
"%%..... &*$  #**.O**$+**oo*&$*+o**#OOOo&*&  ........@@.X@%%%%%%%",
"%%..... $**#+#**.O**O+**o.****o.**&+$# $**#O ......X%..O%%%%%%%%",
"%%..... o***&$**..******O &**&. o*****.o***@ ......@@..@%%%%%%%%",
"%%X..... XO+OO+O..o##oO+X o+OO.. .O#+o. .O+X .....X%X.X%%%%%%%%%",
"%%O.......      ...     .. .oX..oXX..X.oXX. ......@@..@%%%%%%%%%",
"%%@........................#o++O$O+$+$#++OO .... X%X.X%%%%%%%%%%",
"%%%+.......................#o+++$$+$++$+@O@......@@. @%%%%%%%%%%",
"%%%%O......................XOX.o.Xo.oXXoOoOo ...o%o X%%%%%%%%%%%",
"%%%%%+X....... .... .......  .. .  . .   .  ....##..+%%%%%%%%%%%",
"%%%%%%@OX.......................................%X..%%%%%%%%%%%%",
"%%%%%%%%%%%%%%%%%%%%%%%%%%%%%%%%&%%%%%%%%%%%%%%%%%%%%%%%%%%%%%%%",
"%%%%%%%%%%%%%%%%%%%%%%%%%%%%%%%%%%%%%%%%%%%%%%%%%%%%%%%%%%%%%%%%",
"%%%%%%%%%%%%%%%%%%%%%%%%%%%%%%%%%%%%%%%%%%%%%%%%%%%%%%%%%%%%%%%%",
"%%%%%%%%%%%%%%%%%%%%%%%%%%%%%%%%%%%%%%%%%%%%%%%%%%%%%%%%%%%%%%%%",
"%%%%%%%%%%%%%%%%%%%%%%%%%%%%%%%%%%%%%%%%%%%%%%%%%%%%%%%%%%%%%%%%",
"%%%%%%%%%%%%%%%%%%%%%%%%%%%%%%%%%%%%%%%%%%%%%%%%%%%%%%%%%%%%%%%%",
"%%%%%%%%%%%%%%%%%%%%%%%%%%%%%%%%%%%%%%%%%%%%%%%%%%%%%%%%%%%%%%%%",
"%%%%%%%%%%%%%%%%%%%%%%%%%%%%%%%%%%%%%%%%%%%%%%%%%%%%%%%%%%%%%%%%",
"%%%%%%%%%%%%%%%%%%%%%%%%%%%%%%%%%%%%%%%%%%%%%%%%%%%%%%%%%%%%%%%%",
"%%%%%%%%%%%%%%%%%%%%%%%%%%%%%%%%%%%%%%%%%%%%%%%%%%%%%%%%%%%%%%%%",
"%%%%%%%%%%%%%%%%%%%%%%%%%%%%%%%%%%%%%%%%%%%%%%%%%%%%%%%%%%%%%%%%",
"%%%%%%%%%%%%%%%%%%%%%%%%%%%%%%%%%%%%%%%%%%%%%%%%%%%%%%%%%%%%%%%%",
"%%%%%%%%%%%%%%%%%%%%%%%%%%%%%%%%%%%%%%%%%%%%%%%%%%%%%%%%%%%%%%%%"
};
