/* XPM */
static char *TSF_JAZZ[] = {
/* columns rows colors chars-per-pixel */
"64 48 16 1",
"  c #040302",
". c #2E0C0A",
"X c #2F2E2D",
"o c #590F0E",
"O c #51504E",
"+ c #6B6A68",
"@ c #41403E",
"# c #B91C1D",
"$ c #8A1616",
"% c #D91F21",
"& c #E31F22",
"* c #ED2124",
"= c #CE1E20",
"- c #82827F",
"; c #8D8C8A",
": c gainsboro",
/* pixels */
"::::::::::::::::::::::::::::::::::::::::::::::::::::::::::::::::",
":::::::::                                              :::::::::",
":::::::::                                              :::::::::",
":::::::::                                              :::::::::",
":::::::::                                              :::::::::",
":::::::::                                              :::::::::",
":::::::::                                              :::::::::",
":::::::::                                              :::::::::",
":::::::::                                             .:::::::::",
":::::::::                                              :::::::::",
":::::::::                                              :::::::::",
":::::::::                                              :::::::::",
":::::::::       .oooooooooo   oooo.  .ooooooooo        :::::::::",
":::::::::       o*&&&&&***# o%****&#..**&&**&&%.       :::::::::",
":::::::::       o***%%&***#.&&&&****o.&%%*****&       .:::::::::",
":::::::::       .$oo=%*#oooo*&#..o%$ o&&=oo$o$o        :::::::::",
":::::::::           #&*o   o*&=..    o&&#              :::::::::",
":::::::::           #&*o   o*&&*%#o  .*&%$$$$$.        :::::::::",
":::::::::           #&*o    o**&***%..*%&*****o        :::::::::",
":::::::::           #&&o     .$#%*%*#.*&&%%%%*o       .:::::::::",
":::::::::           #&*o    o.   o**=o&&=.....         :::::::::",
":::::::::           #**o   .%%$o.o**#o&&=              :::::::::",
":::::::::           #&*o   #*&****&*o.*&=              :::::::::",
":::::::::           =**o    $=&****$ o**=              :::::::::",
":::::::::           ..o       oooo.   ...              :::::::::",
":::::::::                          XX    XX.XX         :::::::::",
":::::::::           +    .;X    @+OOO;O X+OO@++        :::::::::",
":::::::::           +    OOO        .+       +         :::::::::",
":::::::::           +   .+ +X       +       +@         :::::::::",
":::::::::           +   O@ XO      +X      OO         X:::::::::",
":::::::::           +   +   +     OO      X+           :::::::::",
":::::::::           +  O;O+O;O   X+       -            :::::::::",
":::::::::       @   +  -.    +   +       +X            :::::::::",
":::::::::       O+X+@ @O     @O ++XOOOX O-X@@OX       .:::::::::",
":::::::::        X@X          X XXXXXX  .XXXXX.        :::::::::",
":::::::::                                              :::::::::",
":::::::::                                              :::::::::",
":::::::::                                              :::::::::",
":::::::::                                              :::::::::",
":::::::::                                              :::::::::",
":::::::::                                              :::::::::",
":::::::::                                              :::::::::",
":::::::::                                             .:::::::::",
":::::::::                                              :::::::::",
":::::::::                                              :::::::::",
":::::::::                                              :::::::::",
":::::::::                                              :::::::::",
"::::::::::::::::::::::::::::::::::::::::::::::::::::::::::::::::"
};
