/* XPM */
static char *TV5MONDE_EUROPE[] = {
/* columns rows colors chars-per-pixel */
"64 48 16 1",
"  c #0195CC",
". c #05A7DB",
"X c #03B2E4",
"o c #2FADD9",
"O c #31B8E2",
"+ c #4CB7DD",
"@ c #52BCE2",
"# c #64BFE1",
"$ c #6FC8E7",
"% c #50C6E8",
"& c #38C3E9",
"* c #B4E6F5",
"= c #98D7EE",
"- c gainsboro",
"; c #F9FDFE",
": c #CDECF7",
/* pixels */
"----------------------------------------------------------------",
"----------------------------------------------------------------",
"----------------------------------------------------------------",
"----------------------------------------------------------------",
"----------------------------------------------------------------",
"----------------------------------------------------------------",
"----------------------------------------------------------------",
"----------------------------------------------------------------",
"----------------------------------------------------------------",
"----------------------------------------------------------------",
"----------------------------------------------------------------",
"----------------------------------------------------------------",
"----------------------------------------------------------------",
"----------------------------------------------------------------",
"--               ..    .. . . . ............XX..XXXXXXXXXXXXXX--",
"--                   ..  . . ................XXXXXXXXXXXXXXXXX--",
"--                         .  ........X.........XXXXXXXXXXXXXX::",
"--    #######  ##+++++o O@+.o%@. .+$%..&%%.X%%&%%&OXX&%%%&XXXX--",
"--   +--;;;;;o ;;=:;;;= :;;.=;;O.*;;;:O$;;%O;;*;;;;=X*;;;*XXXX--",
"--   o-;;-*-;##;;o;:==o.;;;+:;;@=;;*;;*$;;:&;:=;:*;;$*;*$&XXXX--",
"--     -;= =;*=;=o;;;;$o;;;:;;;=*;= %;;*;;;:;;=;:.*;**;;;$XXXX:-",
"--     -;= o;;;;oo#+=;;$;**;:=;=*;*.$;:=;**;;:=;:X*;**;*=&XXXX--",
"--     -;=  :;;: =*$=;:=;=$;*@;:$;;;;;=$;*O;;;=;;;;;%*;:*$XXXX--",
"--     *;=  #;;$ =;;;;#=;$o;$o;;.$;;;=.$;*.=;:=;;;*%X*;;;*XXXX--",
"--     oo    oo   o++. .. ....... .O.......XXXXXXXXXXX&XXXXXXX::",
"--          .  .. .....  ..... ...........X.....XXXXXXXXXXXXXX--",
"--         oo  .. .X.Xo .XoXXX..XXXXX.XXXXX.X.XXXXXXXXXXXXXXXX--",
"--    +##+ +#o #@.##o@#.o#+.o@@o#@o+$o@#@+...X.XXXXXXXXXXXXXXX--",
"--    #### #=o =$o$$$$+ #=+ o$$o$$==#.$$##.X....XXXXXXXXXXXXXX::",
"--    #-#+o#=##==.==$=@ +==#==$o==Oo..==%+O.XXXXXXXXXXXXXXXXXX--",
"--    #---+o*-**oo**+*-o $*:*=.o**....=**:%..XXXXXXXXXXXXXXXXX--",
"--     ooo  o++o  oo o+o  o@O. .+o....OOO&X...XXXXXXXXXXXXXXXX--",
"--               .       .   ...   .........XX.XXXX.XXXXXXXXXX--",
"--                  . . . ....................XX.XXXXXXXXXXXXX--",
"----------------------------------------------------------------",
"----------------------------------------------------------------",
"----------------------------------------------------------------",
"----------------------------------------------------------------",
"----------------------------------------------------------------",
"----------------------------------------------------------------",
"----------------------------------------------------------------",
"----------------------------------------------------------------",
"----------------------------------------------------------------",
"----------------------------------------------------------------",
"----------------------------------------------------------------",
"----------------------------------------------------------------",
"----------------------------------------------------------------",
"----------------------------------------------------------------"
};
