/* XPM */
static char *Watch_+1[] = {
/* columns rows colors chars-per-pixel */
"64 48 16 1",
"  c #070807",
". c #2E2F2F",
"X c #616262",
"o c #63142C",
"O c #AF0621",
"+ c #A90762",
"@ c #D10A1C",
"# c #CB1958",
"$ c #DF556F",
"% c #D4628D",
"& c #9F9C9D",
"* c #E299A8",
"= c gainsboro",
"- c #EFEBEC",
"; c #E5B2C8",
": c #7B8083",
/* pixels */
"================================================================",
"================================================================",
"================================================================",
"================================================================",
"=======================;*$@@@OXX:&==============================",
"=====================*$@@@@@@O...XX:&===========================",
"===================;@@@@@@@@@O.....XXX:=========================",
"==================$@@@@@@@@@@O ......XXX&=======================",
"================;#@@@@$$@@@@@O   ......XX:&=====================",
"===============;@@@@$$$$@@@@@O   .  ....XX:&====================",
"==============;@@@@$$$$$@@@@@O     .......XX&===================",
"==============#@@$$$$$$$@@@@@O         ......&==================",
"=============$O@@$$$$$$$@@@@@O         .......==================",
"============*@@@@@$$$$$$@@@@@O            ....X=================",
"============@@@@@@@$$$$$@@@@@O            .. ..&================",
"===========&@@O@@@@#$$@@@@@@@O                 .================",
"===========@@@@@@@@@$@@@@@@@@O                  &===============",
"==========*OO@@@@@@@@@@@@@@@@O                  .===============",
"==========%$@@@@@@$@@@#$@@@@$@......   .XXX   ..X===============",
"===::&====$$;@@$;*****$*;@;**$::X&X=. &&XXX&X &&:&===;&X========",
"==-. .-==XO@$$@*$@$**@@@%$*@@O     XX&.     ::&  X-=-:  &=======",
"===:  ;==o@O@*@*@@%;$@@@#;*$$O  ...&=   .X   ==  X-==:  &=======",
"====  X-Xo@@@%*$@@**@@#@@**%*&  X&X&&  X&X&X&X&  X---:  &=======",
"===-X .-.o@OO$-#@$;%@@=#@$%O@&  :X :. .&  .&  &.  ....  &=======",
"====&  X o$$O@$OO*;#@#;%@#*##*  :X &. .&      &         &-======",
"=====.   o;*OOO@#;*@#*;;##%$#&  :. XX  &. X=X &  .&:&.  &=======",
"=====X   .**#O@O%=$O#####@#*#&  :X .&  .&&& X&;  X-==:  &=&XX===",
"=====;   :@$%O#O;;O@#%#$###*$&  :.  &X       &;  X===:  ==:&&:==",
"=====-.  &@O;OO$-$O#**%*;###;*  X.   &X    .&X&  X-==:  &-::X&==",
"=======&=-OO*;*;;****##+%;**;;&&;.    X&&&&&. &&&&====&&===&&-==",
"==========$OO##O####++###+###+          ..     . ===============",
"==========&OOOO+#++########+++   .              .===============",
"===========++OO++#+#+###++#+++  &-.             &===============",
"===========%OO+++#+++%++#%#+++X---.            .================",
"============++++++##+%+++-;+++&=&-.            :================",
"============&Oo+++++++++%-;+++  &-.           .-================",
"=============+++++++++%-----;+  &-.           &=================",
"==============++++++++%;;--;;+  &-.          X==================",
"==============;++++++++++-;+++. &-.         X===================",
"===============&++++++++%;*+++  &-.        X====================",
"================;+++++++++++++  X&.       X-====================",
"================-=++++++++++++          .&======================",
"===================;++++++++++..       X========================",
"=====================&:++++++X..    .X&=========================",
"=======================&%:++++  ..X&============================",
"================================================================",
"================================================================",
"================================================================"
};
