/* XPM */
static char *yourfamily_entertainment[] = {
/* columns rows colors chars-per-pixel */
"64 48 16 1",
"  c #78CCEF",
". c #EB698F",
"X c #B8CB30",
"o c #BCCF48",
"O c #C8D761",
"+ c #B3ADAB",
"@ c #A79F9D",
"# c #92D6F2",
"$ c #DDA3B3",
"% c #F3B2C5",
"& c #DDE5A4",
"* c #DCDBDB",
"= c #EBD3DA",
"- c #FBFBFB",
"; c #DEEAE8",
": c #ACC5B8",
/* pixels */
"****************************=**=**=*****************************",
"******;************;******;;-;;;;;;--=************;**********;**",
"************;******;*=;;-==*+++++++::*;-;=*****;****;***;*******",
"*******;***;*******=*;-*++++**;--==*$+++=;;*********************",
"**********;********;;*++*;-------------*@+*-;***************;***",
"****;*************;=++*------------------*@+=;******************",
"*;**************=;*+:----------------------*+*=*;*****;*;***;***",
"***************;;*@*------------------------*@*-;***************",
"**************;;*@;---------------------------+:;****;**********",
"*************;;*@------------------------------@*-**************",
"*******;;****;*@--------------------------------@=-***********;*",
";*;*********;;@*------------------#;;;----------*@;;*******;****",
"***********=-+*-----------------##    -----------:+-;*********;*",
"***********;=@-----------------; ##;;#------------@=;******;****",
"*;*********;+*-----------------# #----------------*+;*;*********",
"****;*******+------------------# ;-----------------+*;**********",
"**********;$*------------------# ;-----------------*+-**********",
"*********=;+;------------------# ;------;;---------;+;=*********",
"***;***;*;=+-----$.%-------%.$#   ####&oXXo&--------+=;*******;*",
"*********;*:-----%..-------..:### # #OXXOOoXO-------:$-****;****",
"*******;*;+*------..%-----%.$--  ;--&XO---;oX&------*+;*********",
"********=-+=------$..-----$.%--# ;--oX&----&XO------;+-********;",
"**;******;+;------=..=---=..;--# #-&XO-----;oo;-----;+;***;*****",
";********;+--------..%---%.$---  ;-&oO&&&&&&oo&------+=*;*******",
"*********;+--------%..---..%---# ;-OooXXXXXXXX&------+;*********",
"*********;+;-------=..%-=..----# ;-OXO&&&&&&&&------;+;****;****",
"*********;+*--------$.$-$.%----# #-&XO--------------=+;=*******;",
"*;****;**-+*--------%..=..=----# ;-&Xo;-------------=+;*********",
"*********;*+---------.....-----# ;--oX&-------------:*;*********",
"********=;*+---------$...%-----# ;--&XX&------------+===*******;",
"**********;+;--------=...------# ;---OXXOO&&OX&----;+;*****;****",
"**;**;****-$*---------..%------# ;----&oXXXXXO-----*:;*;********",
"**********;*@---------..=-------;-------*&&;-------+*;**********",
"**;**;*****-+*-------%..--------------------------*+-***********",
"***********;*@-------$.%--------------------------@*;=**********",
"***********=;+:-----=..=-------------------------:+;;********;**",
"**;*;*******;=@*----%.$-------------------------*@;;=**;***;****",
"*************;*@;---===------------------------=@=;*************",
"**************;*@------------------------------@*;************;*",
"*********;*****-*@;--------------------------;@:;*=*************",
"****;**********;;*@*------------------------*@*;;******;***;****",
"*;*******;*******=*@+----------------------+@==**********;******",
"****;*************;=+@*;----------------;*@+;-*****;*********;**",
"************;******;;=+@:;------------;$@+*-;*******************",
";********;***********;-*:+@+***;;*=*+@+:*;;**************;******",
"**********************=;-==:++++++++:*=;;******;****************",
"**************;**********;;;;;;;;;-;-;**=************;**********",
"*****;*******;************=**=****=*=**************;**********;*"
};
