<?xml version="1.0" encoding="UTF-8" standalone="no"?>
<!-- Generator: Adobe Illustrator 18.0.0, SVG Export Plug-In . SVG Version: 6.00 Build 0)  -->

<svg
   xmlns:dc="http://purl.org/dc/elements/1.1/"
   xmlns:cc="http://creativecommons.org/ns#"
   xmlns:rdf="http://www.w3.org/1999/02/22-rdf-syntax-ns#"
   xmlns:svg="http://www.w3.org/2000/svg"
   xmlns="http://www.w3.org/2000/svg"
   xmlns:sodipodi="http://sodipodi.sourceforge.net/DTD/sodipodi-0.dtd"
   xmlns:inkscape="http://www.inkscape.org/namespaces/inkscape"
   version="1.1"
   id="Capa_1"
   x="0px"
   y="0px"
   viewBox="0 0 512 512"
   style="enable-background:new 0 0 512 512;"
   xml:space="preserve"
   inkscape:version="0.48.5 r10040"
   sodipodi:docname="mute.svg"
   width="100%"
   height="100%"><metadata
     id="metadata43"><rdf:RDF><cc:Work
         rdf:about=""><dc:format>image/svg+xml</dc:format><dc:type
           rdf:resource="http://purl.org/dc/dcmitype/StillImage" /></cc:Work></rdf:RDF></metadata><defs
     id="defs41" /><sodipodi:namedview
     pagecolor="#ffffff"
     bordercolor="#666666"
     borderopacity="1"
     objecttolerance="10"
     gridtolerance="10"
     guidetolerance="10"
     inkscape:pageopacity="0"
     inkscape:pageshadow="2"
     inkscape:window-width="1680"
     inkscape:window-height="1031"
     id="namedview39"
     showgrid="false"
     inkscape:zoom="0.4609375"
     inkscape:cx="-14.101695"
     inkscape:cy="256"
     inkscape:window-x="-4"
     inkscape:window-y="-8"
     inkscape:window-maximized="1"
     inkscape:current-layer="g3" /><g
     id="g3"
     style="fill:#{sdcol(icon)};fill-opacity:1"><path
       d="m 454.46496,256 21.56884,-21.56884 c 10.6216,-10.6182 10.6216,-27.84436 0,-38.46256 -10.625,-10.625 -27.84436,-10.625 -38.46936,0 L 415.999,217.53404 394.43356,195.9686 c -10.625,-10.625 -27.84436,-10.625 -38.46936,0 -10.6216,10.6182 -10.6216,27.84436 0,38.46256 L 377.53304,256 355.9642,277.56884 c -10.6216,10.6182 -10.6216,27.84436 0,38.46256 5.31256,5.31245 12.27236,7.96872 19.23468,7.96872 6.96244,0 13.92224,-2.65627 19.23468,-7.96872 l 21.56544,-21.56544 21.56544,21.56544 c 5.31244,5.31245 12.27224,7.96872 19.23468,7.96872 6.96232,0 13.92212,-2.65627 19.23468,-7.96872 10.6216,-10.6182 10.6216,-27.84436 0,-38.46256 L 454.46496,256 z"
       id="path5"
       inkscape:connector-curvature="0"
       style="fill:#ff0000" /><path
       d="m 285.999,4 h -47.25 L 96.999016,161.5 h -47.25 C 32.35314,161.5 18.25,175.60216 18.25,193 v 126 c 0,17.39588 14.10314,31.5 31.499016,31.5 h 47.25 L 238.749,508 h 47.25 c 8.69796,0 15.751,-7.05208 15.751,-15.75 V 19.75 C 301.75,11.052063 294.69696,4 285.999,4 z"
       id="path7"
       inkscape:connector-curvature="0"
       style="fill:#ff0000" /></g><g
     id="g9" /><g
     id="g11" /><g
     id="g13" /><g
     id="g15" /><g
     id="g17" /><g
     id="g19" /><g
     id="g21" /><g
     id="g23" /><g
     id="g25" /><g
     id="g27" /><g
     id="g29" /><g
     id="g31" /><g
     id="g33" /><g
     id="g35" /><g
     id="g37" /></svg>