/* XPM */
static char * 40latino_xpm[] = {
"64 48 17 1",
" 	c None",
".	c #0D0506",
"+	c #463B38",
"@	c #696867",
"#	c #7D7D7D",
"$	c #CF9E8F",
"%	c #D2B5AC",
"&	c #853F2F",
"*	c #DFC9C0",
"=	c #EDD7CC",
"-	c #B24D3C",
";	c #841A20",
">	c #D8684D",
",	c #FDFDFB",
"'	c #D88570",
")	c #47160E",
"!	c #E25A3E",
",,,,,,,,,,,,,,,,,,,,,,,,,,,,,,,,,,,,,,,,,,,,,,,,,,,,,,,,,,,,,,,,",
",,,,,,,,,,,,,,,,,,,,,,,,,,,,,,,,,,,,,,,,,,,,,,,,,,,,,,,,,,,,,,,,",
",,,,,,,,,,,,*%**====,=,,=,,,,,,,,,,,,,,,,,,,,,,,,,,,,,,,,,,,,,,,",
",,,,,,,,,,,*>!!>!>>!>>>>>>>>'>''''''$$$$%%%*%*%%$$=,,,,,,,,,,,,,",
",,,,,,,,,,,=>!;));&&&&&--------!-!!!!!!!!!!!!!!!!!$,,,,,,,,,,,,,",
",,,,,,,,,,,=>!).......................))))));)))-!$,,,,,,,,,,,,,",
",,,,,,,,,,,='!).................................-!$,,,,,,,,,,,,,",
",,,,,,,,,,,=>!).................................!!%,,,,,,,,,,,,,",
",,,,,,,,,,,='!).................................!!%,,,,,,,,,,,,,",
",,,,,,,,,,,='!)................................)!!=,,,,,,,,,,,,,",
",,,,,,,,,,,,'!;............)+->-..........)).).)>>=,,,,,,,,,,,,,",
",,,,,,,,,,,,'>;........)+&>>>>>>).....+&-->>>>--!>,,,,,,,,,,,,,,",
",,,,,,,,,,,,'>&....)+->>>''%*=>>;...+->>>!!!!!!!!>,,,,,,,,,,,,,,",
",,,,,,,,,,,,$>;)+&->>>'$==,,,,'>).)->!!!>'''$$$'>$,,,,,,,,,,,,,,",
",,,,,,,,,,,,$>!>>>'%*=,,,,,,,,'>&;->!!$*=,,,,,,,=,,,,,,,,,,,,,,,",
",,,,,,,,,,,,%''$==,,,,,,,,,,,,$!!>!!'=,,,,,,,,,,,,,,,,,,,,,,,,,,",
",,,,,,,,,,,,,=,,,%@',,,,,,,,,,$!!!!'=,,,,,,,,,,,,,,,,,,,,,,,,,,,",
",,,,,,,,,,,,,,,=&;;;$,,,,,,,,,%!!!',,,,,,,,,,,,,,,,,,,,,,,,,,,,,",
",,,,,,,,,,,,,,,*+-;;',,,,,,,,,%!!',,,,,,,,,,,,,,,,,,,,,,,,,,,,,,",
",,,,,,,,,,,,,,,,=$!!*,,,,,,,,,*!'=,,,,,,,,,,,,,,,,,,,,,,,,,,,,,,",
",,,,,,,,,,,,,,,,,,,,,,,,,,,,,,=*=,,,,,,,,,,,,,,,,,,,,,,,,,,,,,,,",
",,,,,,,,,,,,,,,,,,,,,,,,,,,,,,,,,,,,,,,,,,,,,,,,,,,,,,,,,,,,,,,,",
",,,,,,,,,,,,,,,,,,,,,,,,,,,,,,,,,,,,,,,,,,,,,,,,,,,,,,,,,,,,,,,,",
",,,,,,,,,,,,,*$$$%%==,,,,,,,,,,,,,,,,,,,,,,,,,,,,,,,,,,,,,,,,,,,",
",,,,,,,,,,,,,'!!!!>>$,,,,,,,,,,=***=,,,,,,,,,,,,,,,,,,,,,,,,,,,,",
",,,,,,,,,,,,,$!-))->>,,,,,,,,,,*>!>>%,,,,,,,,,,,,,,,,,,,,,,,,,,,",
",,,,,,,,,,,,,$!-..;>'=,,,,,,,,,*!!&!!'=,,,,,,,,,,,=,,,,,,,,,,,,,",
",,,,,,,,,,,,,$!-..)>>=,,,,,,,,,=!!))!>>$==,,,,,,=$>$,,,,,,,,,,,,",
",,,,,,,,,,,,,$!-..)>!>>>>''''$$'!!...&-!>>'''''>>>!$,,,,,,,,,,,,",
",,,,,,,,,,,,,%!-...;----!--!!!!!!-.....)&--!-!--&!!$,,,,,,,,,,,,",
",,,,,,,,,,,,,%!-.............).).................&>$,,,,,,,,,,,,",
",,,,,,,,,,,,,%!-)................................&!$,,,,,,,,,,,,",
",,,,,,,,,,,,,*!!!!>>->!->------&-&&&&&&&+&+;)+)))-!',,,,,,,,,,,,",
",,,,,,,,,,,,,=*$$'$'''''''>'>''>'>'>>>>>>>>>!>>>>!>$,,,,,,,,,,,,",
",,,,,,,,,,,,,$$,,,,,,,,,,*@,,,,=@%,,,=,=========***=,,,,,,,,,,,,",
",,,,,,,,,,,,,#+,,,,,,,,,,%+=,,,,+@,,,,,,,,,,,,,,,,,,,,,,,,,,,,,,",
",,,,,,,,,,,,,#+,,,,,,,,,,$+=,,,,=%,,,,,,,,,,,,,,,,,,,,,,,,,,,,,,",
",,,,,,,,,,,,,$.=,,,,,,,*#+.@%$,,,,,,,,,,,,,,,,,,,,,,,,,,,,,,,,,,",
",,,,,,,,,,,,,%.=,,,,,,,*#..@**,,,,,,,,,,,,,,,,*$%=,,,,,,,,,,,,,,",
",,,,,,,,,,,,,*.%,,,,,=*,,@+,,,,,=,,=,,,#+#,,*@....@%,,,,,,,,,,,,",
",,,,,,,,,,,,,*.%,,,,%+.#,@#,,,,,#**@,=@#++,$+@$$#$@.,,,,,,,,,,,,",
",,,,,,,,,,,,,,.#,,=@++++,#*,,,,,+%$+%@#,@#$+#,,,,,#+=,,,,,,,,,,,",
",,,,,,,,,,,,,,+#,*++%#.+,#=,,,,,.*#..#,=+%++,,,,,=+#,,,,,,,,,,,,",
",,,,,,,,,,,,,,+#=++$@..+,@%,=*,=.,$.+=,%+%.$,,,,*+@=,,,,,,,,,,,,",
",,,,,,,,,,,,,,+#%...@%#@,@+@+%,*+,#+%,,%+%+@*%#@.#,,,,,,,,,,,,,,",
",,,,,,,,,,,,,,@%%+#*,,%@,#.+%,,,#,%%,,,*+=$+++@#*,,,,,,,,,,,,,,,",
",,,,,,,,,,,,,,=,,,,,,,,*,,%=,,,,,,,,,,,,,,,,=,,,,,,,,,,,,,,,,,,,",
",,,,,,,,,,,,,,,,,,,,,,,,,,,,,,,,,,,,,,,,,,,,,,,,,,,,,,,,,,,,,,,,"};
