/* XPM */
static char * axn_xpm[] = {
"64 48 17 1",
" 	c None",
".	c #F8040D",
"+	c #EA1019",
"@	c #E52933",
"#	c #E74C54",
"$	c #F4969A",
"%	c #F5A3A6",
"&	c #F9BEBF",
"*	c #FEDADD",
"=	c #FEE2E5",
"-	c #FEEAEA",
";	c #EA6167",
">	c #FDF5F4",
",	c #EA7E83",
"'	c #E9222A",
")	c #E73B43",
"!	c #FEFEFE",
"!!!!!!!!!!!!!!!!!!!!!!!!!!!!!!!!!!!!!!!!!!!!!!!!!!!!!!!!!!!!!!!!",
"!!!!!!!!!!!!!!!!!!!!!!!!!!!!!!!!!!!!!!!!!!!!!!!!!!!!!!!!!!!!!!!!",
"!!!!!!!!!!!!!!!!!!!!!!!!!!!!!!!!!!!!!!!!!!!!!!!!!!!!!!!!!!!!!!!!",
"!!!!!!!!!!!!!!!!!!!!!!!!!!!!!!!!!!!!!!!!!!!!!!!!!!!!!!!!!!!!!!!!",
"!!!!!!!!!!!!!!!!!!!!!!!!!!!!!!!!!!!!!!!!!!!!!!!!!!!!!!!!!!!!!!!!",
"!!!!!!!!!!!!!!!!!!!!!!!!!!!!!!!!!!!!!!!!!!!!!!!!!!!!!!!!!!!!!!!!",
"!!!!!!!!!!!!!!!!!!!!!!!!!!!!!!!!!!!!!!!!!!!!!!!!!!!!!!!!!!!!!!!!",
"!!!!!!!!!!!!!!!!!!!!!!!!!!!!!!!!!!!!!!!!!!!!!!!!!!!!!!!!!!!!!!!!",
"!!!!!!!!!!!!!!!!!!!!!!!!!!!!!!!!!!!!!!!!!!!!!!!!!!!!!!!!!!!!!!!!",
"!!!!!!!!!!!!!!!!!!!!!!!!!!!!!!!!!!!!!!!!!!!!!!!!!!!!!!!!!!!!!!!!",
"!!!!!!!!!!!!!!!!!!!!!!!!!!!!!!!!!!!!!!!!!!!!!!!!!!!!!!!!!!!!!!!!",
"!!!!!!!!!!!!!!!!!!!!!!!!!!!!!!!!!!!!!!!!!!!!!!!!!!!!!!!!!!!!!!!!",
"!!!!!!!!!!!!!!!!!!!!!!!!!!!!!!!!!!!!!!!!!!!!!!!!!!!!!!!!!!!!!!!!",
"!!!!!!!!!!!!!!!!!!!!!!!!!!!!!!!!!!!!!!!!!!!!!!!!!!!!!!!!!!!!!!!!",
"!!!!!!!!!!!!!!!!!!!!!!!!!!!!!!!!!!!!!!!!!!!!!!!!!!!!!!!!!!!!!!!!",
"!!!!!!!!!!!!!!!!!!!!!!!!!!!!!!!!!!!!!!!!!!!!!!!!!!!!!!!!!!!!!!!!",
"&$%$$$$$$$$$$$$$$$$$$$$$$$$$$$$,$$,%=!!!!-&$%$$%$%$%$$$$%$$$%$%&",
"$+.+.+.....''..........')))))'....+$>!!!=;+.+'+.....+.........+,",
"$+........'$%'.........)&->--&@..@%>>!>*#+..'&,@.......++;;;)..,",
"$........',>!%+.........)&>!!-&'@&>!!>&)....@*>*;'......'*!!,..,",
"$.......+,->>>,.........+)&>!!!&&>>!>&)+....@=!>>&;'....'*>!,+.,",
"$.......;=!%%>-;..........@&>!>!!!!>$'......@=>!!!>&;+..'*!!,+.,",
"$......#=>&@'&>-#..........'%!>!!!>,'.......@=!>-=>>>&#+'*>!,..,",
"%.....)*!&)+')*!*).........'%>!!>!>,+.......@=!!%)%=>>=%;*!!,+.,",
"$....)&>!-*&&&->>&@.......@&>!!!!!>=,+......@=!>$++)%=>!->!>,+.,",
"$...'&>!>>>!>>>-!>%'.....)&>>!>*=>!!-$+.....@-!!$...+)$=>!!!,..,",
"$..+%>!*;))))))#=!>$+...#*>!!!*##*!!>>$'....'*!>$+....+#%->!,+.,",
"$++,--*#+.......#*>*,.+;*>!!>&)++#*>>>>%@...@*>>,......++#%=,..,",
"$+.@@@@.........+@))'+,=>!!!&@+...@@))))+...+@@)'.........+##..,",
"$...................+$-!!>>&@...............................+..,",
"%++++++++++...+++++@%>>!!>&@++++++++...++++.+.+++.+.+++++++++.+,",
"-*********=-===*===-!!!>!!-==******====***====**====********=*=-",
"!>!!>!!!!!>!!>!!!!!!!!!!!!!!!!!!!!!!!!!!!!>!>!!!>!!!!!!!!!!!!!!!",
"!!!!!!!!!!!!!!!!!!!!!!!!!!>!!!!!!!!!!!!!!!!!!!!!!!!!!!!!!!!!!!!!",
"!!!!!!!!!!!!!!!!!!!!!!!!!!!!!!!!!!!!!!!!!!!!!!!!!!!!!!!!!!!!!!!!",
"!!!!!!!!!!!!!!!!!!!!!!!!!!!!!!!!!!!!!!!!!!!!!!!!!!!!!!!!!!!!!!!!",
"!!!!!!!!!!!!!!!!!!!!!!!!!!!!!!!!!!!!!!!!!!!!!!!!!!!!!!!!!!!!!!!!",
"!!!!!!!!!!!!!!!!!!!!!!!!!!!!!!!!!!!!!!!!!!!!!!!!!!!!!!!!!!!!!!!!",
"!!!!!!!!!!!!!!!!!!!!!!!!!!!!!!!!!!!!!!!!!!!!!!!!!!!!!!!!!!!!!!!!",
"!!!!!!!!!!!!!!!!!!!!!!!!!!!!!!!!!!!!!!!!!!!!!!!!!!!!!!!!!!!!!!!!",
"!!!!!!!!!!!!!!!!!!!!!!!!!!!!!!!!!!!!!!!!!!!!!!!!!!!!!!!!!!!!!!!!",
"!!!!!!!!!!!!!!!!!!!!!!!!!!!!!!!!!!!!!!!!!!!!!!!!!!!!!!!!!!!!!!!!",
"!!!!!!!!!!!!!!!!!!!!!!!!!!!!!!!!!!!!!!!!!!!!!!!!!!!!!!!!!!!!!!!!",
"!!!!!!!!!!!!!!!!!!!!!!!!!!!!!!!!!!!!!!!!!!!!!!!!!!!!!!!!!!!!!!!!",
"!!!!!!!!!!!!!!!!!!!!!!!!!!!!!!!!!!!!!!!!!!!!!!!!!!!!!!!!!!!!!!!!",
"!!!!!!!!!!!!!!!!!!!!!!!!!!!!!!!!!!!!!!!!!!!!!!!!!!!!!!!!!!!!!!!!",
"!!!!!!!!!!!!!!!!!!!!!!!!!!!!!!!!!!!!!!!!!!!!!!!!!!!!!!!!!!!!!!!!",
"!!!!!!!!!!!!!!!!!!!!!!!!!!!!!!!!!!!!!!!!!!!!!!!!!!!!!!!!!!!!!!!!"};
