/* XPM */
static char * beur_tv_xpm[] = {
"64 48 17 1",
" 	c None",
".	c #035C8E",
"+	c #196280",
"@	c #587E5A",
"#	c #ECC71B",
"$	c #91A562",
"%	c #DAC532",
"&	c #8EBAC8",
"*	c #C1BE48",
"=	c #AFCDC6",
"-	c #E6D360",
";	c #C7DFE8",
">	c #D8EFF3",
",	c #76A8BF",
"'	c #4F88A1",
")	c #D9A140",
"!	c #FDFEFC",
"!!!!!!!!!!!!!!!!!!!!!!!!!!!!!!!!!!!!!!!!!!!!!!!!!!!!!!!!!!!!!!!!",
"!!!!!!!!!!!!!!!!!!!!!!>--!!!!!!!!!!!!!!!!!!!!!!!!!!!!!!!!!!!!!!!",
"!!!!!!!!!!!!!!!!!!!!-####-!!!!!!!!!!!!!!!!!!!!!!!!!!!!!!!!!!!!!!",
"!!!!!!!!!!!!!!!!!!!-#######-!!!!!!!!!!!!!!!!!!!!!!!!!!!!!!!!!!!!",
"!!!!!!!!!!!!!!!!!!#-########-!!!!!!!!!!!!!!!!!!!!!!!!!!!!!!!!!!!",
"!!!!!!!!!!!!!!!!-#############-;;;>!!!!!!!!!!!!!!!!!!!!!!!!!!!!!",
"!!!!!!!!!!!!!!!-###############$@+'=>!!!!!!!!!!!!!!!!!!!!!!!!!!!",
"!!!!!!!!!!!!!-##################*@.+,>!!!!!!!!!!!!!!!!!!!!!!!!!!",
"!!!!!!!!!!!!-##########)#########%$+.@=!!!!!!!!!!!!!!!!!!!!!!!!!",
"!!!!!!!!!!--#######$)#)@*#*)######%*@.+,>!!!!!!!!!!!!!!!!!!!!!!!",
"!!!!!!!!!--#######*@$%$+)%@@*######%*'+.';!!!!!!!!!!!!!!!!!!!!!!",
"!!!!!!!!!-#####%$%%@@%$+**@@#%$%####%$...+&!!!!!!!!!!!!!!!!!!!!!",
"!!!!!!!!!!#####$+$%$+*$+)$+$#$+)%###*++....'>!!!!!!!!!!!!!!!!!!!",
"!!!!!!!!!!!-####@+$*+$$+*@@*$+@%##*$+.......+=!!!!!!!!!!!!!!!!!!",
"!!!!!!!!!!!!-)*%%@+*@+$+$+$$+@##*$@...........,>!!!!!!!!!!!!!!!!",
"!!!!!!!!!!!!!>@@**+@$+'+'+$+@**@...............+;!!!!!!!!!!!!!!!",
"!!!!!!!!!!!!!!=++$$+@++++'@+*,+..................&>!!!!!!!!!!!!!",
"!!!!!!!!!!!!>,++++@'++@@@++'+.....................';!!!!!!!!!!!!",
"!!!!!!!!!!!;'......++$)))@+++......................+&!!!!!!!!!!!",
"!!!!!!!!!>;=&'.....+@)))))@..........................'>!!!!!!!!!",
"!!!!!!!!;',!!'......+$)))@+...........................'&!!!!!!!!",
"!!!!!!>=+.'!!'.......++@+++.....................+......+,>!!!!!!",
"!!!!!>,...,!!'',,@..+@&&$'..'',..+',++''@$$$$$$$$$$@.+$$$'=!!!!!",
"!!!!;+....'!!;!!!>'+=>!!!>,.&!!+.'!!;;!&@######*$##$+@%#$++&!!!!",
"!!!>'.....,!!;&;!!=&!>,'=!>@&!!+.'!!!>!&@%%###%*@%#*@$##$...=!!!",
"!!!;......,!!,.+>!!>!=+',!!'&!!+.'!!=''++@@##*+@+*##@%#%+...,!!!",
"!!!;+.....'!!'..=!!!!!>>>!!,&!!+.'>!,.....@%#*...$##%%#$++..&!!!",
"!!!!&+....,!!'..=!!!!;&&,&,'&!!+.'!!,.....@%%*+..@%####@..+'>!!!",
"!!!!!=+...'!!'.+!!>>!;+...+,;!!'+'!!,.....@%#$+..+*###%@.+,!!!!!",
"!!!!!!>'..,!!;&;!!,&!!;,,&;!>!!>=>!!,.....@##*+..+$###$.'=!!!!!!",
"!!!!!!!!&+,>!!!!!=++&!!!!!>,'>!!!;!!,.....@*#$+...@###@$>!!!!!!!",
"!!!!!!!!!;','+,,'+..++,&,'+..+&,'+'''.....+$$$....+$$*;>!!!!!!!!",
"!!!!!!!!!!!,+.......................................';!!!!!!!!!!",
"!!!!!!!!!!!!;'....................................+&!!!!!!!!!!!!",
"!!!!!!!!!!!!!>,..................................';!!!!!!!!!!!!!",
"!!!!!!!!!!!!!!!=+..............................+,>!!!!!!!!!!!!!!",
"!!!!!!!!!!!!!!!!>'+...........................+=!!!!!!!!!!!!!!!!",
"!!!!!!!!!!!!!!!!!!&+........................+,>!!!!!!!!!!!!!!!!!",
"!!!!!!!!!!!!!!!!!!!;'......................+&!!!!!!!!!!!!!!!!!!!",
"!!!!!!!!!!!!!!!!!!!!>,+...................';!!!!!!!!!!!!!!!!!!!!",
"!!!!!!!!!!!!!!!!!!!!!!='................+&!!!!!!!!!!!!!!!!!!!!!!",
"!!!!!!!!!!!!!!!!!!!!!!!;,+.............'=!!!!!!!!!!!!!!!!!!!!!!!",
"!!!!!!!!!!!!!!!!!!!!!!!!>=+..........+,>!!!!!!!!!!!!!!!!!!!!!!!!",
"!!!!!!!!!!!!!!!!!!!!!!!!!!>'........+=!!!!!!!!!!!!!!!!!!!!!!!!!!",
"!!!!!!!!!!!!!!!!!!!!!!!!!!!!&+.....,>!!!!!!!!!!!!!!!!!!!!!!!!!!!",
"!!!!!!!!!!!!!!!!!!!!!!!!!!!!!>&,,&;>!!!!!!!!!!!!!!!!!!!!!!!!!!!!",
"!!!!!!!!!!!!!!!!!!!!!!!!!!!!!!!!!!!!!!!!!!!!!!!!!!!!!!!!!!!!!!!!",
"!!!!!!!!!!!!!!!!!!!!!!!!!!!!!!!!!!!!!!!!!!!!!!!!!!!!!!!!!!!!!!!!"};
