/* XPM */
static char * BR_ALPHA_xpm[] = {
"64 48 17 1",
" 	c None",
".	c #05216A",
"+	c #AEFEFE",
"@	c #6ACFF8",
"#	c #11A4EC",
"$	c #1498DB",
"%	c #184189",
"&	c #4087BB",
"*	c #41A9DE",
"=	c #365AAA",
"-	c #8296BD",
";	c #A3D3F4",
">	c #7891BF",
",	c #5E78A7",
"'	c #8FAFD6",
")	c #EFFEFE",
"!	c #D4E9FB",
"================================================================",
"================================================================",
"================================================================",
"================================================================",
"================================================================",
"================================================================",
"================================================================",
"==================%%%%%=========================================",
"================%.%===%.%=======================================",
"===============.%$######%%======================================",
"==============%%#########%%=====================================",
"=============%%##########$=%====================================",
"=============%#######$$#+$#%====================================",
"============%=##$$$$##$*+$$$%===================================",
"========&===%$#$#$###$$@+&##=====%%%%=========%%%===============",
"%%%%%%%%%%%%=#$$$$$$#$$;+$$#&%===*))-========%+);===============",
"%..........%$$*!+*$$$$$+*$$$$%==%'))'%=======%)))===============",
"=;;;;;;;;=.%$$)))!*$$$&+@$&&&%%%%-))-%%%%%%%%.)))%%%%====%%%%%%=",
",'',,>-,>>.=$*)))++$$$*!$&@++);>.>))&>+;,;!;=.))!=!);=%%=;!)!!,=",
"=-')),!)',.&$++)&&+*$$!)&+))))))%>)),'))))));.)))!))))==))))))),",
"==.>!..);&.=&+)*$$*@$$++')))))))>,)),')))))))=)))))))),-)))))))'",
"=,..)..';,.$&++&$$$;$*)'$;@,=,))-,)),'))),!))-!))!,!))'>';%.,))'",
"==.=!..);,.&&+;$$$$**;+&&&;+))))>,)),'))-.=))'!))=.>))-.=;!))));",
"=--))='!',.$&+@$$$$$+)+,'+))+)))-,)),')),%%))'!)!=%,))--)))))))'",
",-'));))'&.&&+*$#$$$;);&)))&=,))-,)),'))-.=))'!))=%,))-')),.=))'",
"==.=).!)'>.&&+@$$$$&+)*$!)),&)))>,)),-)))-!))-!))%%,))-!)),=!));",
"=,..!.>)',.&$@*$$$&+)+&&+)))))))-,)),')))))))=)))=%,))-')))))))'",
"==.=)..);,.=#*+&$$'+)!@&-))))+))'>))-'))))))!.)))=%-))'-))))!));",
"=--)!..,',.%$$+;*@))!&+*');!'%-'>=''=')),;!'%%-'-==,'',%-!!>%-'-",
"=;!;'..%',.%#$*)))))@&*)))*&$%%%=%%=.'))=.%%==%=%==%=%=%%%%%=%==",
"=)))))))),..$$$@)))+&$&+)+*$&%======%;)),=======================",
"............=$$$*@;$$$$$++$#%%======%')),=======================",
"============.$$$$$$$$$$$$&##%========%%%%=======================",
"============%%#$$$$$$$$$$$$%%===================================",
"=============%=###$######$$%====================================",
"=============%%$###$#$###$.%====================================",
"==============..$###$$#$$%%=====================================",
"===============%.%$$*$&%.%======================================",
"=================.......========================================",
"===================%%%=&========================================",
"================================================================",
"================================================================",
"==========&===&===&==================%==========================",
"=========%===%===%========================&========&===&========",
"==========================================%=====================",
"====================&=====&=========&===========================",
"==============================&===========&=====================",
"================================================================"};
