/* XPM */
static char * viasat_cinema_xpm[] = {
"64 48 17 1",
" 	c None",
".	c #181102",
"+	c #4C420C",
"@	c #827813",
"#	c #887B63",
"$	c #968C70",
"%	c #E6D824",
"&	c #B1A89F",
"*	c #E9DB2A",
"=	c #A89E17",
"-	c #C4BDBC",
";	c #D8D1E1",
">	c #34236F",
",	c #BEB216",
"'	c #FDFDFC",
")	c #514573",
"!	c #F1E011",
"''''''''''''''''''''''''''''''''''''''''''''''''''''''''''''''''",
"''''''''''''''''''''''''''''''''''''''''''''''''''''''''''''''''",
"''''''''''''''''''''''''''''''''''''''''''''''''''''''''''''''''",
"''''''''''''''''''''''''''''''''''''''''''''''''''''''''''''''''",
"''''''''''''''''''''''''''''''''''''''''''''''''''''''''''''''''",
"'''''''''''''''''''''''''';&##))))#$-;''''''''''''''''''''''''''",
"''''''''''''''''''''''';&#>>>>>>>>>>>)#&''''''''''''''''''''''''",
"''''''''''''''''''''''&)>>>>>>>>>>>>>>>>)-''''''''''''''''''''''",
"'''''''''''''''''''';)>>>>>>>>>>>>>>>>>>>>#;''''''''''''''''''''",
"'''''''''''''''''''&)>>>>>>>>))#)))>>>>>>>>);'''''''''''''''''''",
"''''''''''''''''''&>>>>>>>)&;;'''';;$)>>>>>>)-''''''''''''''''''",
"'''''''''''''''''&)>>>>>#-''''''''''''-)>>>>>);'''''''''''''''''",
"'''''''''''''''';>>>>>>$''''''''''''''''#>>>>>);''''''''''''''''",
"'''''''''''''''')>>>>)&''''''''''''''''''&>>>>>#''''''''''''''''",
"'''''''''''''''$>>>>>-''''''''''''''''''';&>>>>>-'''''''''''''''",
"'''''''''''''';)>>>>&''''''''''''''''''''''#>>>>)'''''''''''''''",
"''''''''''''''$>>>>#;'''''''''''''''''''''';)>>>>-''''''''''''''",
"'''''''''''''')>>>>-';''''''''''''''';''''''&>>>>#;'''''''''''''",
"'''''';##@##@#)#)#)$#$@@#@#@#@#@#@#@$#@#@#@##)#)@)$@#@@##;''''''",
"'''''';$!!!!!!!!!!!!!!!*!!!!!!!!!!!!!!!!!!!!!!!!!!!!!!!*=;''''''",
"'''''''$!!!!%,,*!!!%!!!%*!!%%!!%%%%%!!%*!!!!%*!!!!%!!!!!$'''''''",
"'''''';$!!*@...+%!,>,!,.@!!>@!!>...$!,.@!!!=.=!!!!+%!!!!$;''''''",
"'''''''$!!@.)=$+%!=.,!,..=!>+!!>+$=,!%..,!!+.@!!!%.@!!!!$'''''''",
"'''''';=!%++!!!!!!=.,!=..+%>@!!.+,,!%,..@!@..=!!!@.>!!!!$;''''''",
"'''''''$!%.@!!!!!!,.,!,.+.@.@!!...+!!,...-+..@!!*.+.@!!!='''''''",
"'''''';$!%++!!!!!!=.,!=.=+..@!!.+,,!!,.#.+.@.=!!@.).+!!!$;''''''",
"'''''''$!!@.@,=@%!,.,!,.=,>.+!!>+%,%!,.=@.+,.@!!+.++.=!!$'''''''",
"'''''';$!!*+...>%!=.,!=.,!@.@!!....=!,.=,+,,.=!=.=%%++!!$;''''''",
"'''''''$!!!!%=,%!!!,*!!,%!!,,!!,,,,%!!,%*,!!,%!%,!!!,,!!='''''''",
"'''''';=!!!!!!!!!!!!!!!!!!!!!!!!!!!!!!!!!!!!!!!!!!!!!!!!$;''''''",
"'''''''#$$$#$@#@###$$$$@$$$$$$$$@$#$$#$$$$#$#@##@#$$=$$$#'''''''",
"''''''''''''''#>>>>#'''''''''''''''''''''''')>>>>&''''''''''''''",
"'''''''''''''';>>>>>&''''''''''''''''''''''$>>>>);''''''''''''''",
"'''''''''''''''#>>>>)-''''''''''''''''''''->>>>>&'''''''''''''''",
"''''''''''''''''>>>>>);''''''''''''''''''&)>>>>)''''''''''''''''",
"''''''''''''''''->>>>)#&''''''''''''''';&)>>>>);''''''''''''''''",
"'''''''''''''''''$>>>&$)#;'''''''''''';#$;)>>>-'''''''''''''''''",
"''''''''''''''''''$>>&&-#)#;;'''''';-#>#;;)>>&''''''''''''''''''",
"'''''''''''''''''''$)-;$>&#>)##$###))-#>)-#)&'''''''''''''''''''",
"''''''''''''''''''''&#)>);#);;>)&&&>#';#>)#-''''''''''''''''''''",
"''''''''''''''''''''';#>#->$;'))';-)$;&&)$;'''''''''''''''''''''",
"'''''''''''''''''''''''-#))&$;#)-;;))#)$;'''''''''''''''''''''''",
"''''''''''''''''''''''''';-$)#)))#)#$-;'''''''''''''''''''''''''",
"''''''''''''''''''''''''''''';';;';'''''''''''''''''''''''''''''",
"''''''''''''''''''''''''''''''''''''''''''''''''''''''''''''''''",
"''''''''''''''''''''''''''''''''''''''''''''''''''''''''''''''''",
"''''''''''''''''''''''''''''''''''''''''''''''''''''''''''''''''",
"''''''''''''''''''''''''''''''''''''''''''''''''''''''''''''''''"};
