/* XPM */
static char * etb_sat_xpm[] = {
"64 48 17 1",
" 	c None",
".	c #033E71",
"+	c #EBF4F7",
"@	c #B6030E",
"#	c #9F0D1C",
"$	c #801630",
"%	c #BF333A",
"&	c #617B9A",
"*	c #8E162D",
"=	c #495C7F",
"-	c #C1645E",
";	c #96222E",
">	c #405D81",
",	c #C5C2CB",
"'	c #7B91AD",
")	c #314F73",
"!	c #9FAEBE",
"................................................................",
"................................................................",
"................................................................",
"................................................................",
"................................................................",
"................................................................",
"................................................................",
"................................................................",
"................................................................",
"................................................................",
"................................................................",
"................................................................",
"................................................................",
"................................................................",
"................................................................",
"................................................................",
"................................................................",
"................................................................",
"..................!+'...........................................",
".............=&...,+'.............).........$.$.................",
"............),'...!+!..........)&'''=.....$$##$$.....)===&'.....",
"....)!,,'..)++,,,),+,,,!).....)''''!,!)..$$@*%---...)====+,&....",
"...),+!'+,.&+++,,.,++!,+,)....&'''!++,!..#@@-,,,+=.)=>==,++,&...",
"...!+,))!+&.,+'...,+!.),+&....''!',+,!'.$#@@%%%-+!.)=>=='+,=>...",
"...,++,,++'.!+!...!+'..!+!...)''''!+++,.)#@@%-,,+!.===&>'+,>)...",
"...,+,>>>>).,+'...,+'..,+'...)'''''',++.$#@#-+--+!.>==>=&+,>)...",
"...&++&..&&.!+,>'.,+,>&++&....&'!',,,+!..*@#,+-,+&..==>=&++!>...",
"....'+++++>.>++++),+++++'.....)'''!,+,>..$#@%,!-!)..)=>>>',!)...",
".....)>&>....)&&).>>)>&>.......)&'!'&.....)##@#$.....)>>>>).....",
".............................................)..................",
"................................................................",
"................................................................",
"................................................................",
"................................................................",
"................................................................",
"................................................................",
"................................................................",
"................................................................",
"................................................................",
"................................................................",
"................................................................",
"................................................................",
"................................................................",
"................................................................",
"................................................................",
"................................................................",
"................................................................",
"................................................................"};
