/* XPM */
static char * foxkids_xpm[] = {
"64 48 17 1",
" 	c None",
".	c #0B0404",
"+	c #FDD718",
"@	c #400C0A",
"#	c #701C13",
"$	c #DDB263",
"%	c #FBD223",
"&	c #D59550",
"*	c #951711",
"=	c #F7CF37",
"-	c #C37647",
";	c #B61212",
">	c #E2C7A4",
",	c #DA523E",
"'	c #FDFCF9",
")	c #F21012",
"!	c #E8392A",
"''''''''''''''''''''''''''''''''''''''''''''''''''''''''''''''''",
"''''''''''''''''''''''''''''''''''''''''''=>''''''''''''''''''''",
"'''''''''''''''''''''''''''''''''''''''>====''''''''=>''''''''''",
"''''''''''''''''''''''''''''''''''''>===+++=''''''=%$=+>''''''''",
"'''''''''''''''''''''''''''''''''==$$%++++%==''''=%==++++'''''''",
"''''''''''$!!,-$>>''''''''''''''>$%%$=++++++='''=$=$+++++=='''''",
"''''''''>!))))))!!,-&>>''''''''''==++$%+++++=''=$$$%++++++>>''''",
"''''''''>)))))))))))!!,$'''''>>>>'+++=$+++++=='$&&$++++++=='''''",
"''''''''&)));)))))))))!,--&-,!!!!,&&$$&=+++++=$&&&++++++=$''''''",
"''''''''&)!))))))))))))@.@*))))))))!,,#-%++++=-,&=+++++==>''''''",
"''''''''-!!)))))));));;#@;))))))))))),#@&++++%-@&%++++%$+'''''''",
"'''''''',)!))))))@@@@@@@;)))));@*)))))!##$++++$-%++++%$'''''''''",
"'''''''',!!))))))@@...@@))))))@..*)))))*@-=++++=%++++$='''''''''",
"'''''''>!)!))))));*#*@@*))))))@..@))))))@@&+++%+++++$>''''''''''",
"'''''''>!!))))))))))!!*;))))))@..@))))))*.#$+++++++$#$''''''''''",
"'''''''>)!))))))))))))*;)))));@..@))))))*..,=+++++$-.$''''''''''",
"'''''''&))))))))))))))*;))))))@..#))))));...-++++=#..$''''''''''",
"'''''''-))))))))));;;;@*)))))!@..@))))))#...&++++-...$''''''''''",
"''''''',)))))))))@@@@@.@;)))))#.@*))))))@..#%++++-...>''''''''''",
"'''''''!)))))))))@......#)))))!#*))))))*...&+++++=...$''''''''''",
"''''''>!)))))))))@......@*))))))))))))*...-=+=&-++#..>''''''''''",
"'''''''))))))))))@........*;))))))));*@...&%+$@@$+&..>''''''''''",
"'''''''>&#@*;;;);@.........@*;;));;*@....-=%$#..#%=@.>''''''''''",
"''''''''>@...@@@@............@@@@@@.....@$+$-....-=-.>''''''''''",
"''''''''>@..........@...................-==-......-&.>''''''''''",
"'''''''''.....@....#!*......@##........@&$-.......#&#>''''''''''",
"''''''''>.@@#;,@..@))!,@.@*;!!#...@#*;!!!,#....#*!,,,$''''''''''",
"'''''''>&*;)))!@.@;)))*..*)))!@@*;)!;*;))),#.@*!)));!-''''''''''",
"''''''-!)))))))#@*)))*@..;)))!@@)));@@@*)))!#@)))));)-''''''''''",
"'''''>)));)))))@@)));@...;))))@@)));@..@))))#*)));@@@,''''''''''",
"''''''!))))))))*;));@....;)));.@))))....;))!@@)));@..&''''''''''",
"'''''',))))))))))))@.....*)));@@)));@..@;)))@.*)))!@.>''''''''''",
"''''''&)))))))))))*......*)));.@;)))@..@)))*...*))),#>''''''''''",
"''''''$!)!)))))))))@.....*)));..))))@..;)))@....*)))!$''''''''''",
"''''''>!)!)))))))))!@....#)));..;)))@.#)))#.....@;)))-''''''''''",
"''''''>!)!))))))))))!*@..@)));..;)))@@;))*@@##.@#))))!''''''''''",
"''''''',!))))));;))))),#@@)));..*)))*!))*...;!!;)))))-''''''''''",
"'''''''-)))))))*@#;)))))#@)));..*)))!);*...@;)))))));$''''''''''",
"'''''''&)))))));..@*;))*.@;;;@..@;)));@....@*;))));@@>''''''''''",
"'''''''$)))))))!@..@@**@..@@@....@@**@......@@@#@@@..>''''''''''",
"'''''''>))))));@@....................................'''''''''''",
"'''''''',;;;*@@......................................>>>>'''''''",
"''''''''$@@@..................................@@##---'>'''''''''",
"''''''''>.......................@.#@-#--&&$>'>''''''''''''''''''",
"''''''''>@.........@###----&$>>'''''''''''''''''''''''''''''''''",
"''''''''''>$&&$>>'''''''''''''''''''''''''''''''''''''''''''''''",
"''''''''''''''''''''''''''''''''''''''''''''''''''''''''''''''''",
"''''''''''''''''''''''''''''''''''''''''''''''''''''''''''''''''"};
