/* XPM */
static char * gameone_xpm[] = {
"64 48 17 1",
" 	c None",
".	c #B90232",
"+	c #AD1039",
"@	c #BF3E61",
"#	c #D06885",
"$	c #DE91AA",
"%	c #EECAD9",
"&	c #FBE3EC",
"*	c #FEEAF2",
"=	c #BE3459",
"-	c #FEF1F8",
";	c #E8ACBE",
">	c #CB5979",
",	c #B52248",
"'	c #DA7F99",
")	c #C14E6E",
"!	c #FEFEFE",
"!!!!!!!!!!!!!!!!!!!!!!!!!!!!!!!!!!!!!!!!!!!!!!!!!!!!!!!!!!!!!!!!",
"!!!!!!!!!!!!!!!!!!!!!!!!!!!!!!!!!!!!!!!!!!!!!!!!!!!!!!!!!!!!!!!!",
"!!!!!!!!!!!!!!!!!!!!!!!!!!!!!!!!!!!!!!!!!!!!!!!!!!!!!!!!!!!!!!!!",
"!!!!!!!!!!!!!!!!!!!!!!!!!!!!!!!!!!!!!!!!!!!!!!!!!!!!!!!!!!!!!!!!",
"!!!!!!!!!!!!!-&%;;;;;;;;;;;;;;;;;;;;;;;;;;;;;;;;;;;;;;;;;%!!!!!!",
"!!!!!!!!!!!-%>,..+.+.+.+.+.+.+.+.+.+.+.+.+.+.+.+.+.+.+.+.@*!!!!!",
"!!!!!!!!!!-',............................................=*!!!!!",
"!!!!!!!!!-#+.............................................@*!!!!!",
"!!!!!!!!-'...........++,+,,+,,+,,+,,+,,+,++..............@*!!!!!",
"!!!!!!!!;+........,#$;%%%%%%%%%%%%%%%%%%%%%;$)+..........@*!!!!!",
"!!!!!!!&@.......,$&-!!!!!!!!!!!!!!!!!!!!!!!!!-%#+........@*!!!!!",
"!!!!!!!$+......@%-!!!!!!!!!!!!!!!!!!!!!!!!!!!!!-;,.......@*!!!!!",
"!!!!!!->......=&!!!!!!!!!!!!!!!!!!!!!!!!!!!!!!!!-;+......=*!!!!!",
"!!!!!!&,.....+%!!!!!!!!!!!!!!!!!!!!!!!!!!!!!!!!!!!$......@*!!!!!",
"!!!!!!%+.....#-!!!!!!-%$'''#'''#'''#''''';%-!!!!!!&=.....@*!!!!!",
"!!!!!!%.....+%!!!!!!$,+...................+);!!!!!!$.....@*!!!!!",
"!!!!!!%.....@-!!!!-$+.......................+;!!!!!%+....@*!!!!!",
"!!!!!!%.....#!!!!!%+.........................=&!!!!*@....@*!!!!!",
"!!!!!!%.....$!!!!!'.....=))))))))))))))@+....+;!!!!-)....=*!!!!!",
"!!!!!!%....+;!!!!-).....$--------------*@.....$!!!!!#....@*!!!!!",
"!!!!!!%.....;!!!!-@.....$!!!!!!!!!!!!!!&=.....$!!!!!#....@*!!!!!",
"!!!!!!%....+;!!!!-@....+$!!!!!!!!!!!!!!%,.....'!!!!!#....@*!!!!!",
"!!!!!!%.....;!!!!-@.....$!!!!!!!!!!!!!!%......$!!!!!#....@*!!!!!",
"!!!!!!%....+;!!!!!@.....$&******-!!!!!!;......'!!!!!#....@*!!!!!",
"!!!!!!%.....;!!!!-@.....,=======$!!!!!-#......$!!!!!#....=*!!!!!",
"!!!!!!%....+;!!!!!@............+%!!!!!&@......'!!!!!#....@*!!!!!",
"!!!!!!%.....;!!!!-@...........+#-!!!!!;+......$!!!!!#....@*!!!!!",
"!!!!!!%....+;!!!!!#=========@);-!!!!!->.......'!!!!!#....@*!!!!!",
"!!!!!!%.....;!!!!!-*********--!!!!!!-$+.......$!!!!!#....@*!!!!!",
"!!!!!!%....+;!!!!!!!!!!!!!!!!!!!!!!!%,........'!!!!!#....@*!!!!!",
"!!!!!!%.....;!!!!!!!!!!!!!!!!!!!!!-;+.........$!!!!!#....=*!!!!!",
"!!!!!!%....+;!!!!!!!!!!!!!!!!!!!!&#+..........'!!!!!#....@*!!!!!",
"!!!!!!%.....;&&****&**&*&****&%;>+............'****&>....@*!!!!!",
"!!!!!!%.....++,,+,+,,,+,,+,+,+++..............+,,+,,+....@*!!!!!",
"!!!!!!%.....+)>>>,@>>>,=>#)>#+@>#>,..+>>>>>,..=+@>>>,....@-!!!!!",
"!!!!!!%.....##)>)#$))$'')$$);''>>)+..'>)>$;;=.#'$>)>,....#!!!!!!",
"!!!!!!%.....$,>$;;;$$;;@+'=.$;$$$$,.,$..+$$)$)';;$$$=...+;!!!!!!",
"!!!!!!%.....$@=@$;,+,#;=.#,.$;)===+.,$=,)'$,+';;#@==,...@&!!!!!!",
"!!!!!!%.....#'''@>+..@#,.)+.>#'''',..'''#=),.+##''''=..+;!!!!!!!",
"!!!!!!%........................................+......+'-!!!!!!!",
"!!!!!!%..............................................+'&!!!!!!!!",
"!!!!!!%.............................................=$-!!!!!!!!!",
"!!!!!!%++.+.++++++.+.+.+.+.++.+.+.+.+.+.+.+.+.+++,)$&!!!!!!!!!!!",
"!!!!!!*%%%%%%%%%%%%%%%%%%%%%%%%%%%%%%%%%%%%%%%%%%&-!!!!!!!!!!!!!",
"!!!!!!!!!!!!!!!!!!!!!!!!!!!!!!!!!!!!!!!!!!!!!!!!!!!!!!!!!!!!!!!!",
"!!!!!!!!!!!!!!!!!!!!!!!!!!!!!!!!!!!!!!!!!!!!!!!!!!!!!!!!!!!!!!!!",
"!!!!!!!!!!!!!!!!!!!!!!!!!!!!!!!!!!!!!!!!!!!!!!!!!!!!!!!!!!!!!!!!",
"!!!!!!!!!!!!!!!!!!!!!!!!!!!!!!!!!!!!!!!!!!!!!!!!!!!!!!!!!!!!!!!!"};
