/* XPM */
static char * hr_skyline_xpm[] = {
"64 48 17 1",
" 	c None",
".	c #150C0C",
"+	c #544D4D",
"@	c #746D6D",
"#	c #958F90",
"$	c #ADA7A6",
"%	c #D3C4C5",
"&	c #DCD7D6",
"*	c #E4E5E4",
"=	c #652D2D",
"-	c #E9EAEA",
";	c #333332",
">	c #DA9193",
",	c #9B5656",
"'	c #FEFEFE",
")	c #481315",
"!	c #EBA4A6",
"''''''''''''''''''''''''''''''''''''''''''''''''''''''''''''''''",
"''''''''''''''''''''''''''''''''''''''''''''''''''''''''''''''''",
"''''''''''''''''''''''''''''''''''''''''''''''''''''''''''''''''",
"''''''''''''''''''''''''''''''''''''''''''''''''''''''''''''''''",
"''''''''''''''''''''''''''''''''''''''''''''''''''''''''''''''''",
"''''''''''''''''''''''''''''''''''''''''''''''''''''''''''''''''",
"''''''''''''''''''''''''''''''''''''''''''''''''''''''''''''''''",
"''''''''''''''''''''''''''''''''''''''''''''''''''''''''''''''''",
"''''''''''''''''''''''''''''''''''''''''''''''''''''''''''''''''",
"''''''''''''''''''''''''''''''''''''''''''''''''''''''''''''''''",
"''''''''''''''''''''''''''''''''''''''''''''''''''''''''''''''''",
"''''''''''''''''''''''''''''''''''''''''''''''''''''''''''''''''",
"''''''''''''''''''''''''''''''''''''''''''''''''''''''''''''''''",
"''''''''''''''''''''''''''''''''''''''''''''''''''''''''''''''''",
"''''''''''''''''''''''''''''''''''''''''''''''''''''''''''''''''",
"''''''''''''''''''''''''''''''''''''''''''''''''''''''''''''''''",
"''''''''''''''''''''''''''''''''''''''''''''''''''''''''''''''''",
"''%$'''''''''''''$%''''''''''''''-##%'''''''''''''''''''''''''''",
"''$+&--&-'''''''-++''''''''''''''&;.@'%$&'''''''''''''''''''''''",
"''$.;@+;+-''''''-+@''''''''''''''*..@-+.+-''''''''''''''''''''''",
"''$+$;;%#-*&&&&&-+@'''-&-*-''''*-*;.@'$@$'**-**&*-''**&*&*-'''''",
"''#+%;;%'#++@+@+&+@''&+#&+#''''+#&;.@-@;@-+;;;;;;@-#;;;;;;+-''''",
"''$@$++%-;#-'-'-'+@-#+$-*;#''''+@&;.@-+.+-;.;%%@..&+.+%%@..&''''",
"'-$>>>>>>=,#>>#>!=+,)#!!>=,>>>!+,>=),!=),>=)=!!,))>=)=>>,))>>!''",
"''%%&%&&%>==;==)$,)#,)!&%=#%&%&=,%).,&+.,%=.,&&#.)%=..);).)>%&''",
"''''''''''----&;$+@'&++&-;#''''@@*;.@-+.+*;.+-'#..&;.+%%%&%-''''",
"'''''''''-**-**.$+@''%;@&+@****+@&;.@-+.+-;.+''#..&+.;$$$$$*''''",
"''''''''-@++++++&@@'''%+#$+++++.@&+;#-+;@&@;@-'$;+&$+++++++&''''",
"'''''''''-*****''--''''--'*--*-+@'---'---'---''--*''-******'''''",
"'''''''''''''''''''''''''%%&%&%+@'''''''''''''''''''''''''''''''",
"'''''''''''''''''''''''''$######''''''''''''''''''''''''''''''''",
"''''''''''''''''''''''''''''''''''''''''''''''''''''''''''''''''",
"''''''''''''''''''''''''''''''''''''''''''''''''''''''''''''''''",
"''''''''''''''''''''''''''''''''''''''''''''''''''''''''''''''''",
"''''''''''''''''''''''''''''''''''''''''''''''''''''''''''''''''",
"''''''''''''''''''''''''''''''''''''''''''''''''''''''''''''''''",
"''''''''''''''''''''''''''''''''''''''''''''''''''''''''''''''''",
"''''''''''''''''''''''''''''''''''''''''''''''''''''''''''''''''",
"''''''''''''''''''''''''''''''''''''''''''''''''''''''''''''''''",
"''''''''''''''''''''''''''''''''''''''''''''''''''''''''''''''''",
"''''''''''''''''''''''''''''''''''''''''''''''''''''''''''''''''",
"''''''''''''''''''''''''''''''''''''''''''''''''''''''''''''''''",
"''''''''''''''''''''''''''''''''''''''''''''''''''''''''''''''''",
"''''''''''''''''''''''''''''''''''''''''''''''''''''''''''''''''",
"''''''''''''''''''''''''''''''''''''''''''''''''''''''''''''''''",
"''''''''''''''''''''''''''''''''''''''''''''''''''''''''''''''''",
"''''''''''''''''''''''''''''''''''''''''''''''''''''''''''''''''",
"''''''''''''''''''''''''''''''''''''''''''''''''''''''''''''''''"};
