/* XPM */
static char * kabel1_xpm[] = {
"64 48 17 1",
" 	c None",
".	c #FD9A04",
"+	c #F69D16",
"@	c #F3A839",
"#	c #F6BC63",
"$	c #F8D18A",
"%	c #FCE2AC",
"&	c #FEECC2",
"*	c #FEF4D4",
"=	c #FEFAE3",
"-	c #FEFCEC",
";	c #FEFDF4",
">	c #F4B34C",
",	c #F3A32A",
"'	c #F7C672",
")	c #FEFEFE",
"!	c #FBDB9C",
"))))))))))))))))))))))))));)))))))))))))))))))))))))))))))))))))",
")))))))))))))))))))))));;))));;;;;;;;)))))))))))))))))))))))))))",
"))))))))))))))));))));))));-*&!$'''$%*=;;)))))))))))))))))))))))",
")))))))))))))))))));)))))*%'@+++++++++>!*;))))))))))))))))))))))",
")))))))))))))))))))));)=%>,...........++@!*-;)))))))))))))))))))",
"))))))))))))))))))));-*',+...............+>%-)))))))))))))))))))",
"))))))))))))))))))));%>++..................+$=))))))))))))))))))",
")))))))))))))))));)-&>+...........+.........+'=)))))))))))))))))",
"))))))))))))))))));&>.........+,>''$'#>@.....+#=;)))))))))))))))",
"))))))))))))))))))*#........>$%*--;);)-&$>+...,'-)))))))))))))))",
")))))))))))))))));$+.....+@%*;)))))))));;=!>+..+$;))))))))))))))",
")))))))))))))))))*@.....,$=)))))));))))););&#+..,&;));))))))))))",
"))))))))))))))));$+....,%-))))))))))))))));;*'+..>*)))))))))))))",
"))))))))))))))))=>....@&;;;);)))));)))););;);*'+++!)))))))))))))",
"))))))))))))))))%++..+%;))))))))))))-=*&%$'&;;*>.+>*))))))))))))",
"))))))))))))))))$...+$-));)))))))));$>,++++$;)-&+.,!;)))))))))))",
"))))))))))));-);'...@&))))))))));))&@+..+..')))-#++#-)))))))))))",
"))))))))))))&%)=>..+$;)))))))))));*>+......'-)))&++@*)))))))))))",
"))))))))));;'%)=>+.,&))))))))))))*#.+......'))))=>.+!)))))))))))",
")))))))))))&@%;=@.+>=))))))););=&>.........';))))!+.$;))))))))))",
")))))))))))$+&;=>..#;))))))));&',+........+')))))&,.#;))))))))))",
"))))))))))=>+%;;#..'-))));))))#+.+.........$));;-=@.#-))))))))))",
"))))))))))&,,%;;$..#;))));)))->...........+!)))))=>.>-))))))))))",
")))))))));&++!;;%+.#-)))));;)*,+..........+&))));;#.>-))))))))))",
")))))))));!++';)*@.@=))););))*$$>.........@*))););#.>=))))))))))",
")))))))));!+.#-);'+,%;))))));==*>.........';;));;;#.>-))))))))))",
"))))))));;%+.@*);%,.#=;)))));;;=@........+%);)));=>.#-))))))))))",
"))))))))))%+.+!))=#+,$;))))));;!........+>=)));))*@.';))))))))))",
"))))))))))&,.+#=))&@+,!=));;);*@........+%;))))))&++$)))))))))))",
")))))))));=>..+&))=!++,'*-);;%>........+'-;)))))-$+,&)))))))))))",
")))))))));-'..+#=);-$+++,#''#,.........>&;))))))=>.>=)))))))))))",
")))))))));;!+..+!;;-=$+...+++.........>&;;)))))-!+.$;)))))))))))",
")))))))))))*@+.+@*;;-=$@+............#*;););));=@.,&;)))))))))))",
"))))))));));$.+++>*;;);&',+.......+@!-;)));););'+.'=))))))))))))",
"))))))))))))*@+..+#*)));=&$>++++,#!*;;))))););%,.+&)))))))))))))",
")))))))))));-$+...+>*;);;;-;;&**-);=;))))));;!,.+$;)))))))))))))",
"))))))))));))*>....+@%=;;));;);;)))))))))))=!,..>*))))))))))))))",
"))))))))))))))*@...++,'&-;;))))));))));));&'+.+@&)))))))))))))))",
")))))))))))));;%,....++@'&-))))))))))))-*$@+..,%))))))))))))))))",
")))))))))))))));!,....+++@#!&*==-;;=*&!'@+..+@%)))))))))))))))))",
"))))))))))))))))-%@.+.......+@>#'''>>@++...+@&-)))))))))))))))))",
"))))))))))))))));)&#+........++++.+..++...+'*-))))))))))))))))))",
")))))))))))))))))))=!>+.................+>!=;)))))))))))))))))))",
")))))))))))))))))));;&!>,+...........++#!*)));;)))))))))))))))))",
"))))))))))))))))))));;;=&$#@,+++++,@#!&=))));;))))))))))))))))))",
")))))))))))))))))));;;;;;))=*&%%%&*=;)));)))))))))))))))))))))))",
")))))))))))))))))))))));)))))))))))))))));))))))))))))))))))))))",
"))))))))))))))))))))))))))))))))))))))))))))))))))))))))))))))))"};
