/* XPM */
static char * net5_xpm[] = {
"64 48 17 1",
" 	c None",
".	c #030E41",
"+	c #FDAE05",
"@	c #5291BB",
"#	c #4A8ABA",
"$	c #5485B1",
"%	c #64748C",
"&	c #55647F",
"*	c #F8AF13",
"=	c #435272",
"-	c #7A9FBE",
";	c #3A4662",
">	c #E5EAF1",
",	c #DDA232",
"'	c #293760",
")	c #392426",
"!	c #B7B4AE",
"................................................................",
"................................................................",
".............................................)..................",
"........................................));%,)..................",
".........................)&%,,,,,,,,,,,,,+++%)..................",
".......................)%,+,,,+,,,+,+,++,++,)...................",
"......................;+++++++++++++++++++,=....................",
".....................),,++++++,+++,+,++,+,;.....................",
".....................%++++++,++++++,+,+,&)......................",
"....................),++,,,%,,,,,,,,,%))........................",
"....................=++,&)....))))).............................",
"....................%,+%........................................",
"....................,,,)........................................",
"...................),+%.........................................",
"...................),=).........................................",
"................................................................",
".......................';&$$@@@@$%=')...........................",
".....................)%#####$########&'.........................",
".....................'#################&'.......................",
"......................=&$&$$#############;......................",
"...........................''=###########$;.....................",
"...............................'$##########'....................",
".................................=#########&....................",
"..................................'$########'...................",
"...................................=########&...................",
"....................................&########...................",
"....................................=#######$...................",
"...........;&&&&......'&)..'&%%%&%%%@-###@!-!%&%&%%%=...........",
"...........)&>>>%.....&>'...;->>!-%-!>-##->>!->>!-%!>...........",
".............!>>>)....=>)....&>>;...'>@##!-#%'>>%..)!...........",
".............!!!>!....&>'....=>>=...'@@##@@@&.>>%...;...........",
".............!!)>>%...&>'....&>>;...$@######;'>>%...............",
".............!!.;>>;..=>)....=>>=..)!-######..>>-...............",
".............!!..->!..&>'....&>>>!!>>-#####;.)>>%...............",
".............!!..)!>-.&>'....=>>&';->-####=..)>>%...............",
".............!!...;>>;&>)....&>>;.##-@###$...)>>%...............",
".............!!....%>!%>'....=>>&&######&.....>>-...............",
".............!!....)!>>>)....&>>@###@@-='....)>>%...............",
".............!!.....;>>>'....=>>!$###!-......'>>%...............",
".............-!......%>!)...)$>>>!>!>>$.......>>%...............",
"......................))...=$$@@@@@&'.).......))................",
"........................'=$###@##&..............................",
".....................''&######&;'...............................",
"..................';=######&;'..................................",
".................;=&&==;'.......................................",
"................................................................",
"................................................................",
"................................................................"};
