/* XPM */
static char * orf1_xpm[] = {
"64 48 17 1",
" 	c None",
".	c #090909",
"+	c #303030",
"@	c #565656",
"#	c #747474",
"$	c #9DAD93",
"%	c #9CCB65",
"&	c #B9C9A8",
"*	c #CDD6C2",
"=	c #626262",
"-	c #C6E1AF",
";	c #666666",
">	c #7E7E7E",
",	c #65B030",
"'	c #E3E7DE",
")	c #7DBB3D",
"!	c #FEFEFE",
"!!!!!!!!!!!!!!!!!!!!!!!!!!!!!!!!!!!!!!!!!!!!!!!!!!!!!!!!!!!!!!!!",
"!!!!!!!!!!!!!!!!!!!!!!!!!!!!!!!!!!!!!!!!!!!!!!!!!!!!!!!!!!!!!!!!",
"!!!!!!!!!!!!!!!!!!!!!!!!!!!!!!!!!!!!!!!!!!!!!!!!!!!!!!!!!!!!!!!!",
"!!!!!!!!!!!!!!!!!!!!!!!!!!!!!!!!!!!!!!!!!!!!!!!!!!!!!!!!!!!!!!!!",
"!!!!!!!!!!!!!!!!!!!!!!!!!!!!!!!!!!!!!!!!!!!!!!!!!!!!!!!!!!!!!!!!",
"!!!!!!!!!!!!!!!!!!!!!!!!!!!!!!!!!!!!!!!!!!!!!!!!!!!!!!!!!!!!!!!!",
"!!!!!!!!!!!!!!!!!!!!!!!!!!!!!!!!!!!!!!!!!!!!!!!!!!!!!!!!!!!!!!!!",
"!!!!!!!!!!!!!!!!!!!!!!!!!!!!!!!!!!!!!!!!!!!!!!!!!!!!!!!!!!!!!!!!",
"!!!!!!!!!!!!!!!!!!!!!!!!!!!!!!!!!!!!!!!!!!!!!!!!!!!!!!!!!!!!!!!!",
"!!!!!!!!!!!!!!!!!!!!!!!!!!!!!!!!!!!!!!!!!!!!!!!!!!!!!!!!!!!!!!!!",
"!!!!!!!!!!!!!!!!!!!!!!!!!!!!!!!!!!!!!!!!!!!!!!!!!!!!!!!!!!!!!!!!",
"!!!!!!!!!!!!!!!!!!!!!!!!!!!!!!!!!!!!!!!!!!!!!!!!!!!!!!!!!!!!!!!!",
"!!!!!!!!!!!!!!!!!!!!!!!!!!!!!!!!!!!!!!!!!!!!!!!!!!!!!!!!!!!!!!!!",
"!!!!!!!!!!!!!!!!!!!!!!!!!!!!!!!!!!!!!!!!!!!!!!!!!!!!!!!!!!!!!!!!",
"!!!!!!!!!!!!!!!!!!!!!!!!!!!!!!!!!!!!!!!!!!!!!!!!!!!!!!!!!!!!!!!!",
"!!!!!!!!!!!!!!!!!!!!!!!!!!!!!!!!!!!!!!!!!!!-&&%&&&&&&%&%$%&'!!!!",
"!!!!!!!!!!!!!!!!!!!!!!!!!!!!!!!!!!!!!!!!!!',,,,)))))),,,,,,)!!!!",
"!!!!!!!!!!!!!!!!!!!!!!!!!!!!!!!!!!!!!!!!!!->,,)))%))),,,,,)$!!!!",
"!!!!!!!'&&*'!!!!!!'*****'!!!!!!********!!!',,,)))),,,,,,,)%&!!!!",
"!!!!!'$+..+@&!!!!!@+++++@$!!!!'++++++++*!!',),,,,,,#,,,,)%%%!!!!",
"!!!!'#......+$!!!'+.......$!!!'+.......*!!-)))),,,$--,,,,%%&!!!!",
"!!!!$..+>$#..+*!!!+.+>>#+.='!!'..@>>>>$'!!')%),,,%!!-),,,%-&!!!!",
"!!!'@.+*!!'>..$!!!+.=!!!;.+'!!'+.>!!!!!!!!')%)),,%'!-,,,))%%!!!!",
"!!!'..=!!!!'+.;!!!+.@&&$+.@'!!'..+@@@;*!!!'%%%),,,%!-),,)%%&!!!!",
"!!!'..;'!!!'+.=!!!+...+...&!!!'+......*!!!')-%),,,-!-,,,)%%%!!!!",
"!!!'@.+*!!'$..>!!!+......$'!!!'..+@@@;'!!!'%%%),,,%!-),,))%%!!!!",
"!!!!>..@$&>..+*!!!+.@&>..#!!!!'+.>!!'!!!!!'%%%)),,%!-),,))%%!!!!",
"!!!!'@...+...$!!!!+.=!'=..$!!!'..#!!!!!!!!-%%%))),%!-),)))%)!!!!",
"!!!!!'>+...@$!'!!!+.=!!&+.+*!!'+.>!!!!!!!!')%%)),,%-%))))))%!!!!",
"!!!!!!!*$$$'!!!!!!*&*!!!**&'!!!*&'!!!!!!!!!)%%)),,,#,,)))),)!!!!",
"!!!!!!!!!!!!!!!!!!!!!!!!!!!!!!!!!!!!!!!!!!-,%%)),,,,,))%))))!!!!",
"!!!!!!!!!!!!!!!!!!!!!!!!!!!!!!!!!!!!!!!!!!-,,,,,,,,,))%%%),)!!!!",
"!!!!!!!!!!!!!!!!!!!!!!!!!!!!!!!!!!!!!!!!!!!%$%%)$%%%%%%%%%&-!!!!",
"!!!!!!!!!!!!!!!!!!!!!!!!!!!!!!!!!!!!!!!!!!!!!!!!!!!!!!!!!!!!!!!!",
"!!!!!!!!!!!!!!!!!!!!!!!!!!!!!!!!!!!!!!!!!!!!!!!!!!!!!!!!!!!!!!!!",
"!!!!!!!!!!!!!!!!!!!!!!!!!!!!!!!!!!!!!!!!!!!!!!!!!!!!!!!!!!!!!!!!",
"!!!!!!!!!!!!!!!!!!!!!!!!!!!!!!!!!!!!!!!!!!!!!!!!!!!!!!!!!!!!!!!!",
"!!!!!!!!!!!!!!!!!!!!!!!!!!!!!!!!!!!!!!!!!!!!!!!!!!!!!!!!!!!!!!!!",
"!!!!!!!!!!!!!!!!!!!!!!!!!!!!!!!!!!!!!!!!!!!!!!!!!!!!!!!!!!!!!!!!",
"!!!!!!!!!!!!!!!!!!!!!!!!!!!!!!!!!!!!!!!!!!!!!!!!!!!!!!!!!!!!!!!!",
"!!!!!!!!!!!!!!!!!!!!!!!!!!!!!!!!!!!!!!!!!!!!!!!!!!!!!!!!!!!!!!!!",
"!!!!!!!!!!!!!!!!!!!!!!!!!!!!!!!!!!!!!!!!!!!!!!!!!!!!!!!!!!!!!!!!",
"!!!!!!!!!!!!!!!!!!!!!!!!!!!!!!!!!!!!!!!!!!!!!!!!!!!!!!!!!!!!!!!!",
"!!!!!!!!!!!!!!!!!!!!!!!!!!!!!!!!!!!!!!!!!!!!!!!!!!!!!!!!!!!!!!!!",
"!!!!!!!!!!!!!!!!!!!!!!!!!!!!!!!!!!!!!!!!!!!!!!!!!!!!!!!!!!!!!!!!",
"!!!!!!!!!!!!!!!!!!!!!!!!!!!!!!!!!!!!!!!!!!!!!!!!!!!!!!!!!!!!!!!!",
"!!!!!!!!!!!!!!!!!!!!!!!!!!!!!!!!!!!!!!!!!!!!!!!!!!!!!!!!!!!!!!!!",
"!!!!!!!!!!!!!!!!!!!!!!!!!!!!!!!!!!!!!!!!!!!!!!!!!!!!!!!!!!!!!!!!"};
