/* XPM */
static char * qvc_xpm[] = {
"64 48 17 1",
" 	c None",
".	c #D90707",
"+	c #C93227",
"@	c #A47055",
"#	c #A2956F",
"$	c #C1AC84",
"%	c #E1BF96",
"&	c #E2CDA1",
"*	c #EBDAAD",
"=	c #DD9676",
"-	c #F5E4B5",
";	c #D15F49",
">	c #C64C3B",
",	c #FDF6BE",
"'	c #EFAE8B",
")	c #D6765D",
"!	c #C91C15",
",,,,,,,,,,,,,,,,,,,,,,,,,,,,,,,,,,,,,,,,,,,,,,,,,,,,,,,,,,,,,,,,",
",,,,,,,,,,,,,,,,,,,,,,,,,,,,,,,,,,,,,,,,,,,,,,,,,,,,,,,,,,,,,,,,",
",,,,,,,,,,,,,,,,,,,,,,,,,,,,,,,,,,,,,,,,,,,,,,,,,,,,,,,,,,,,,,,,",
",,,,,,,,,,,,,,,,,,,,,,,,,,,,,,,,,,,,,,,,,,,,,,,,,,,,,,,,,,,,,,,,",
",,,,,,,,,,,,,,,,,,,,,,,,,,,,,,,,,,,,,,,,,,,,,,,,,,,,,,,,,,,,,,,,",
",,,,,,,,,,,,,,,,,,,,,,,,,,,,,,,,,,,,,,,,,,,,,,,,,,,,,,,,,,,,,,,,",
",,,-,,,-,,,-,,,-,,,-,,,-,,,-,,,-,,,-,,,-,,,-,,,-,,,-,,,-,,,,,,,,",
",,,,,,,,,,,,,,,,,,,,,,,,,,,,,,,,,,,,,,,,,,,,,,,,,,,,-,,,,,,,,,,,",
",,,,-,,,,,,,,,,,,,,,-,,,,,,,,,,,,,,,,,,,,,,,,,,,,,,,,,-,,,,,,,,,",
",,,,,,,,,,,,,,,,,,,,,,,,,,,,,,,,,,,,,,,,,,,,,,,,,,,,,,,,,,,,,,,,",
",,,,,,,,,,,-,,,,,,,,,,,-,,,,,,,,,,,,,,,,,,,,,,,,,,,--,,,,,,,,,,,",
",,,,,,-*''===''*-,,,,'====)='-,,,,,,%===)=%,,,,*&=)>+;='-,-'-,,,",
",,,,-&;++>;);>++;',,,'+....!)*-,,,,,'+...+=--*=+++;))>>!>;>!%-,,",
",,,*=!.>=''$%'=>.!;&,,%!...>$$*,,,,,,'!.+)$$'+.+)'$$$$$)>...=%,,",
",,-;..>=##%&***%>!.+',,)...>#$-,,,,,,-+!@@$)!.!)##%&***&'>..@$,,",
",*;..+@#$*,-,,,,*+..+%,*+..!#*,,,,,,,&+>#$)!..>##&--,,,,-&+!@$,,",
",;...>##*,,,,,,,,'...;&,=...;%,,,,,,,)+=#=!..!@#&-,,,,,,,,=+@$,,",
"&!..!@#&,,,,,,,,,*+..!=**+..+$-,,,,,%+)$$)...>@$-,,,,,,,,,-'#%,,",
")...+#$-,,,,,,-,,,>...>%,=...@&,,,,-;+'$'+...>#%,,,,,,,,,,,-&&-,",
"+...+#%,,,,,,,,,,-;...+=**+..+$,,,,%!;$$'!...@#*,,,,,,,,,,,,,-,,",
"....>#&,,,,,,,,,,,;...+#&,)...)&,,,;+=$&%....>#-,,,,,,,,,,,,,,,,",
"....@#&,,,-,,,,,,,;...+@&,&!..+$-,'!)$$-&...!@$-,,,,,,,,,,,,,,,,",
">...>#*,,,,,,,,,,,;...+#%,,)...)*->!'#%,&!...@$,,,,,,,,,,,-,,,,,",
")...+#*,,,,-,,,,,->...+#&,,%!..+$'.)#$-,-+...>#-,,,,,,,,,,,-,,,,",
"&...!#*,,,,,,,,,,-+..!@#%,,-;..!)>!=#&,,-=...+$-,,,,,,-,,,-)-,,,",
",)...>&-,,,,,,,,,'...+@#*,,,%...+!)$$*,,,&!..!@&,,,,,,,,,,'+%-,,",
",%!..+$-,,,&')==*;..!@#$,,,,,;...!=#&,,,,,=!..>%-,,,,,,,,-;!=&,,",
",,'!.!;&,,'+!...++.!@#$*,,,,,%!..>#$*,,,,,-)!.!)*,,,,,,,-=.!#$,,",
",,,'>.!;&,%=)+.+))+>@#&,,,,,,,;.!@#&,,,,,,,-=!.!;*,,,,-';!+)#$,,",
",,,-%)+.+)));+!>>!..+$-,,,,,,,&!+@$*,,,,,,,,-%;+!!;));>!+=$##&,,",
",,,,,*$);>>+>>)@@....!)&-,-*-,,%##&,,,,,,,,,,-&$#@))===''$$$*-,,",
",,,,,,-*$$$$=$$$$=+....!+>!+%-,-&$*,,,,,,,,,,,,-*&$$$$$$$%&-,,,,",
",,,,,,,,,**&&%%*--%;+.....!)%&,,,,,,-,,,,,,,,,,,,,-,------,,,,,,",
",,,,,,,,,,,,,,,,,,,*'@;>>@@##&-,,,,,,,,,,,,,,,,,,,,,,,,,,,,,-,,,",
",,,,,,,,,,,,,,,,,,,,-&$$#$#$&-,,,,,,,,,,,,,,,,,,,,,,,,,,,,,,,,,,",
",,,,,,,,,,,,,,,,,,,,,,,-----,,-,,,,,,,,,-,,,,,,,,,,,,,,,,,,,,,,,",
",,,,,,,,,,,,,,,,,,,,,,,,,,,,,,,,,,,,,,,,,,,,,,,,,,,,,,,,,,,,,,,,",
",,,,,,,,,,,,,,,,,,,,,,,,,,,,,,,,,,,,,,,,,,,,,-,,-,,,,,,,-,,,-,,,",
",,,,,,,,,,,,,,,,,,,,,,,,,,,,,,,,,,-,,,,,-,,,,,,,,,,,,,,,,,,,,,,,",
",-,,,,,,,,,,,,,,,,,,,,,,,,,,,,,,,,,,,,,,,,,,,,,,,,-,,-,,,,,,,,,,",
",,,,,,,,,,,,,,,,,,,,,,,,,,,,,,,,,,,,,,,,,,,,,,,,,,,,,,,,,,,,,,,,",
",,,,,,,,,,,,,,,,,,,,,,,,,,,,,,,,,,,-,,,,,,,,,,,,,,,,,,,-,,,-,,,,",
",,,-,,,,,,,,,,,,,,,-,,,,,,,,,,,,,,,,,,-,,,-,,,,,,,,,,,,,,,,,,,,,",
",,,,,,,,,,,,,,,-,,,,,,,,,,,,,,-,,,,,,,,,,,,,,,-,,,,,,,,,,,,,,,,,",
",,,,,,,,,,-,,,,,,,,,,,,,,,,,,,,,,,,,,,,,,,,,,,,,,,,,,,,,,,,,,,,,",
",,,,,,,,,,,,,,,,,,,,,,,,,-,,,,,,,,-,,,,,,,,,,,,,,,-,,,,,-,,,,,,,",
",,,-,,,,,,,,,,,,,,,-,,,,,,,,,,,,,,,,,,,,-,,,,,,-,,,,,,,,,,,,-,,,",
",,,,,,-,,,,,,,-,,,,,,,,,,,,,,-,,,,,,,,,,,,,,,,,,,,,,,,,,,,,,,,,,"};
