/* XPM */
static char * radio_maria_at_xpm[] = {
"64 48 17 1",
" 	c None",
".	c #0F166E",
"+	c #232872",
"@	c #555995",
"#	c #7D82B8",
"$	c #9699C2",
"%	c #A9ABCC",
"&	c #BBBEDC",
"*	c #CFD1E7",
"=	c #DBDEF2",
"-	c #454988",
";	c #E6E8F7",
">	c #F0F1FB",
",	c #383D7E",
"'	c #656AA2",
")	c #181E72",
"!	c #FEFEFE",
"!!!!!!!!!!!!!!!!!!!!!!!!!!!!!!!!!!!!!!!!!!!!!!!!!!!!!!!!!!!!!!!!",
"!!!!!!!!!!!!!!!!!!!!!!!!!!!!!!!!!!!!!!!!!!!!!!!!!!!!!!!!!!!!!!!!",
"!!!!!!!!!!!!!!!!!!!!!!!!!!!!!!!!!!!!!!!!!!!!!!!!!!!!!!!!!!!!!!!!",
"!!!!!!!!!!!!!!!!!!!!!!!!!!!!!!!!!!!!!!!!!!!!!!!!!!!!!!!!!!!!!!!!",
"!!!!!!!!!!!!!!!!!!!!!!!!!!!!!>>>>>!!!!!!!!!!!!!!!!!!!!!!!!!!!!!!",
"!!!!!!!!!!!!!!!!!!!!!!!!>=&%#'''@'#&*>>!!!!!!!!!!!!!!!!!!!!!!!!!",
"!!!!!!!!!!!!!!!!!!!!!!>&#-+))+$&@...+@$=!!!!!!!!!!!!!!!!!!!!!!!!",
"!!!!!!!!!!!!!!!!!!!!>&',-+.+.#>>&))+),,-#;!!!!!!!!!!!!!!!!!!!!!!",
"!!!!!!!!!!!!!!!!!!!;$+)#$$,..&!!;++),$%','*!!!!!!!!!!!!!!!!!!!!!",
"!!!!!!!!!!!!!!!!!!=@)#-#)''.+*!!!@..#'$%%)+%>!!!!!!!!!!!!!!!!!!!",
"!!!!!!!!!!!!!!!!!*@--'###$-.'>!!!$))#@#@$.,,$!!!!!!!!!!!!!!!!!!!",
"!!!!!!!!!!!!!!!!=-'$$'$-,+.)%!!>!*,..--$,###+$!!!!!!!!!!!!!!!!!!",
"!!!!!!!!!!!!!!!;-.-$-$,+.)),=!!!!>'.).+,'$-#)+%!!!!!!!!!!!!!!!!!",
"!!!!!!!!!!!!!!>'-$@-%'))+).@>!!!!!$.))))+'%+'#,=!!!!!!!!!!!!!!!!",
"!!!!!!!!!!!!!!&)%@%'++.))).'!>!!!!&.).)..,,$#$-'>!!!!!!!!!!!!!!!",
"!!!!!!!!!!!!!;-.-&$,+))).+.#>!!!>!&..).)..,%$'+)&!!!!!!!!!!!!!!!",
"!!!!!!!!!!!!!$,$@-'+.))).).'!!!!>!&..).....-,'%,-;!!!!!!!!!!!!!!",
"!!!!!!!!!!!!;'##%#+.)..)...'>!!>!!%....)....$'@-)&!!!!!!!!!!!!!!",
"!!!!!!!!!!!!*+,$&'.)..).)).'>;%$*>%..)......+##$@#!!!!!!!!!!!!!!",
"!!!!!!!!!!!!%...--.).).....@>%*>$>%.).....).)$##,@>!!!!!!!!!!!!!",
"!!!!!!!!!!!!#.))..)......).-;#=>%;$..........''+.+*!!!!!!!!!!!!!",
"!!!!!!!!!!!;@...).)........-;&$*$>'.............).&!!!!!!!!!!!!!",
"!!!!!!!!!!!*,.)............,=$&;$=#...........).).$!!!!!!!!!!!!!",
"!!!!!!!!!!!*+).)...........,&%>!*%@...............#!!!!!!!!!!!!!",
"!!!!!!!!!!!&+))............,*%>!=%'...............#!!!!!!!!!!!!!",
"!!!!!!!!!!!*+).............,&%!!*%-...............#!!!!!!!!!!!!!",
"!!!!!!!!!!!*,)............),&%!!%&@.............).$!!!!!!!!!!!!!",
"!!!!!!!!!!!;-.)............,*$!!%&@..............)&!!!!!!!!!!!!!",
"!!!!!!!!!!!>'..............,=%>!%=@..............,=!!!!!!!!!!!!!",
"!!!!!!!!!!!>%).............-=$>!%=@............).@>!!!!!!!!!!!!!",
"!!!!!!!!!!!!*+.............-=$>!$>'..............$>!!!!!!!!!!!!!",
"!!!!!!!!!!!!>'............)@;$>>$;'.............)*!!!!!!!!!!!!!!",
"!!!!!!!!!!!!>%))...........'>$>>$>#..........)).#;!!!!!!!!!!!!!!",
"!!!!!!!!!!!!!;-..).)..)..).#>$>>#>$........)..)+*!!!!!!!!!!!!!!!",
"!!!!!!!!!!!!!>&).))##)..)))%>$>!$>%......@+))).$>!!!!!!!!!!!!!!!",
"!!!!!!!!!!!!!!>#.)'@-#).)).*;%>>$>*....+@@#+).@;!!!!!!!!!!!!!!!!",
"!!!!!!!!!!!!!!!;')$,@'''+.)#'$;;#'')..@,'$#@.-*>!!!!!!!!!!!!!!!!",
"!!!!!!!!!!!!!!!!*--##+#'$')).+-@+..--@#).#-),*!!!!!!!!!!!!!!!!!!",
"!!!!!!!!!!!!!!!!!*'++@#,#@#'+',,'+@#,#'@',+-*>!!!!!!!!!!!!!!!!!!",
"!!!!!!!!!!!!!!!!!!;#+'@@#-$+-'#'''##,#''@+@*!!!!!!!!!!!!!!!!!!!!",
"!!!!!!!!!!!!!!!!!!!;%-)-,-%,'%@@#',&'@-.,$=!!!!!!!!!!!!!!!!!!!!!",
"!!!!!!!!!!!!!!!!!!!!!=$,.)'@@$@@$'.-@+,#*>!!!!!!!!!!!!!!!!!!!!!!",
"!!!!!!!!!!!!!!!!!!!!!!!=%'@,+++++++-'%=>!!!!!!!!!!!!!!!!!!!!!!!!",
"!!!!!!!!!!!!!!!!!!!!!!!!!>;*&%#$$%&=;!!!!!!!!!!!!!!!!!!!!!!!!!!!",
"!!!!!!!!!!!!!!!!!!!!!!!!!!!!!!>!>!!!!!!!!!!!!!!!!!!!!!!!!!!!!!!!",
"!!!!!!!!!!!!!!!!!!!!!!!!!!!!!!!!!!!!!!!!!!!!!!!!!!!!!!!!!!!!!!!!",
"!!!!!!!!!!!!!!!!!!!!!!!!!!!!!!!!!!!!!!!!!!!!!!!!!!!!!!!!!!!!!!!!",
"!!!!!!!!!!!!!!!!!!!!!!!!!!!!!!!!!!!!!!!!!!!!!!!!!!!!!!!!!!!!!!!!"};
