/* XPM */
static char * radiohoreb_xpm[] = {
"64 48 17 1",
" 	c None",
".	c #0BA3D5",
"+	c #4EA0BB",
"@	c #88B3C5",
"#	c #ADCDDA",
"$	c #C3D1D8",
"%	c #D2E9F0",
"&	c #DEF0F4",
"*	c #E8F7FA",
"=	c #37A5CB",
"-	c #4EB2D6",
";	c #8FCADF",
">	c #B2E3F0",
",	c #2BA2CA",
"'	c #FDFEFD",
")	c #6AB8D5",
"!	c #C5E5EF",
"''''''''''''''''''''''''''''''''''''''''''''''''''''''''''''''''",
"'''''''''''''''''''''''''''''*'***''''''''''''''''''''''''''''''",
"''''''''''''''''''''''''**>;)--=--);>%*'''''''''''''''''''''''''",
"''''''''''''''''''''''*>)+,,=-)))--=,,);%'''''''''''''''''''''''",
"'''''''''''''''''''**>=,,-);;;;;!%**%>-==;%'''''''''''''''''''''",
"'''''''''''''''''''>-,.,,,,,,,,,,,-;>**!;--#*'''''''''''''''''''",
"'''''''''''''''''*;,...,-);;>>%%!>)-=)>**&;)@&''''''''''''''''''",
"'''''''''''''''**)....,,,,,,=,-)>%*&>)+;!'*>)@!'''''''''''''''''",
"'''''''''''''''*).....,-;;>>>>;-,=;!**>))#*'&;@$''''''''''''''''",
"''''''''''''''*).....,==-=-);>**!;-->**&#)#*'&#@!'''''''''''''''",
"'''''''''''''*;.....,+);;;;-==->&**;-@%'*>@;*'*;#%''''''''''''''",
"'''''''''''''>,...,)#&****'**>;-@!''!;@!'*>@#*'%;#*'''''''''''''",
"''''''''''''&=...+$*'''''''''**!;)#&'%;@%''>@$''%#$'''''''''''''",
"'''''''''''*;..,@*''''''''''''''&#@#*'&#@%''$@%'*$@%''''''''''''",
"'''''''''''&,.,@*''''''''''''''''*>)#*'%##&'&$#*'*$$*'''''''''''",
"''''''''''*;.,@*''''''''''''''''''*>@$'*$#$''$#$''$$%'''''''''''",
"''''''''''*-.-*''''''''''''**&>''''*>;%'*##&'*!#''*$$'''''''''''",
"''''''''''>,,$''''''''''*&>),,,)*'''%#$''%#$''$#&''!#*''''''''''",
"'''''''''';.)&''''''''*&;=......@&*'*$;%'*$#*'*$$''%#$''''''''''",
"'''''''''')+$''''''''*;,.........)&''%#$''%#%''$#*'%$$''''''''''",
"'''''''''*)+%'*'''''%)............)&'*$$**&$$''%@''&##''''''''''",
"'''''''''&)@&'''''*&)=-...........,@&'%%#>**&''%@&'&##''''''''''",
"'''''''''&)@''''''%)----.-..........)&*;..)!'''!@%'*;@''''''''''",
"'''''''''%@@''''*&;)------===,......,)),...=>*'$#$'';@*'''''''''",
"'''''''''%);''''*;);))-----@#;,.............,#'!@$'*@@''''''''''",
"'''''''''*@@''''>;;;;;)))@#&**>-=............,$&@%'*@@*'''''''''",
"'''''''''*;;*''*;;;;);;)@$*'''*;--............+%%&'&-@''''''''''",
"'''''''''*#@&''!;;;;;;@@$'''*'**>----=...,=,..,@*''!,#''''''''''",
"''''''''''$@&'*>>;>;;;@$''''''''*>----.-,+$>...,#'';,$''''''''''",
"''''''''''%;$'%#>;>>>@@''''*''''**>----+@$'*-..,+&*)+%''''''''''",
"''''''''''&##*!>>>>;;@&'''''''%*%'*>))-@$'''!=..=$&,@&''''''''''",
"'''''''''''$@&!>>>>>#@!*%>!*%>;*!*>>>@@$'*''')=,,@>,@'''''''''''",
"'''''''''''&#&!!!$>$@$#!#%@!#&;&;;&>>%%''''*'>--,+#+%'''''''''''",
"'''''''''''*%&!!!!!$@%$!!*;!>*;*>;*%$'*''''''*--)+$$''''''''''''",
"'''''''''''''%!!!!%$@&$*##;*##;&>!;#&*'*'''''*;--)$'*'''''''''''",
"'''''''''''''&$%$%$$###*'*''***'''*'''@#*''*'*;))@#'''''''''''''",
"''''''''''''''$$$$$$$@+;%'&>;&*>$&!;!*)+;#*'''&##@$'''''''''''''",
"'''''''''''''''&%&&'*),=+#),+=>,+;,=+;+,++@*''**''''''''''''''''",
"'''''''''''''''#+@''')+!+)+@&+),;+,+,+++%>+$'*%$$'''''''''''''''",
"''''''''''''''''),@&')@$+)+;%++,#),))@-+>;+$&$$$''''''''''''''''",
"''''''''''''''''*;,-!@@!+@;=++$+#!+++;@+++)!$$$'''''''''''''''''",
"'''''''''''''''''*>+,;!*&&*%!&*%**&!!*&%>#$$#$''''''''''''''''''",
"''''''''''''''''''*%),=#&''*''''''*'''*&>##$&'''''''''''''''''''",
"''''''''''''''''''''*>),=)>&**''''**%!#;##%*''''''''''''''''''''",
"''''''''''''''''''''''*!;-,=-);;@;;;);#$%'''''''''''''''''''''''",
"'''''''''''''''''''''''*'*!>;));)@;$$%*'*'''''''''''''''''''''''",
"'''''''''''''''''''''''''''*''*'*'''''''''''''''''''''''''''''''",
"''''''''''''''''''''''''''''''''''''''''''''''''''''''''''''''''"};
