/* XPM */
static char * rtl4_xpm[] = {
"64 48 17 1",
" 	c None",
".	c #040203",
"+	c #161516",
"@	c #F3700E",
"#	c #827F81",
"$	c #FC6905",
"%	c #D8A36D",
"&	c #D5BBA1",
"*	c #F66A08",
"=	c #E0CCB8",
"-	c #A04111",
";	c #6B6867",
">	c #D4D2D0",
",	c #FBE4A6",
"'	c #FDFDF9",
")	c #433B39",
"!	c #E3893B",
"''''''''''''''''''''''''''''''''''''''''''''''''''''''''''''''''",
"'''''''''',;))))))))))))))))))))))))))))))))))))))))>'''''''''''",
"''''''''''').......................................+>'''''''''''",
"'''''''''',).......................................+>'''''''''''",
"''''''''''').......................................+>'''''''''''",
"''''''''''')............................++++.......+>'''''''''''",
"'''''''''',)..................+))......+&>>&.......+>'''''''''''",
"''''''''''')..................+,;.......))&>+......+>'''''''''''",
"'''''''''',)..................)';.........%&+......+>'''''''''''",
"''''''''''')......+#))#&#+..)##'>#%;......%>+......+>'''''''''''",
"'''''''''',)......+>>&>&>;..)&>'>>>#+.....%>.......+>'''''''''''",
"''''''''''').......&'>)+&&....)';+++......%&+......+>'''''''''''",
"'''''''''',).......%';.+;)+...+';.........%>.......+>'''''''''''",
"''''''''''')......+#>)........+,;........+#>+......+>'''''''''''",
"'''''''''',).......&>+........)';.........&&+......+>'''''''''''",
"''''''''''').......%>+........+';..+......%>.......+>'''''''''''",
"'''''''''',).......#>+........+,#.+&#.....&>.......+>'''''''''''",
"''''''''''')......+&>+.........&>#>>).....%>+......+>'''''''''''",
"'''''''''',).......#&+.........)&>&)+.....#&.......+>'''''''''''",
"''''''''''')........+............+.........+.......+>'''''''''''",
"'''''''''',).......................................+>'''''''''''",
"''''''''''').......................................+>'''''''''''",
"'''''''''',).......................................+>'''''''''''",
"'''''''''''-)---)---------);;;)-----;;;;;;;;;;;;;;;#,'''''''''''",
"'''''''''''%@************@&,',!****%,'''''''''''''''''''''''''''",
"'''''''''''%@***********@!,'',!***$%''''''''''''''''''''''''''''",
"'''''''''',&@$$$*$*$$$$*@=''',!*$$$%,'''''''''''''''''''''''''''",
"'''''''''''=@$$$$$$$$$$@!,''',@*$$$%,''','''''''''''''''''''''''",
"''''''''''',@**$$$$$$$$@=','',!**$@%''''''''''''''''''''''''''''",
"''''''''''',!*$$$$$***@%,'=,',!@$@@%,'''''''''''''''''''''''''''",
"''''''''''''%$$*$$$*@@!=',%,',!$$$@%''''''''''''''''''''''''''''",
"''''''''''''=*$$$*$$$@%,'=!=',!$@@@%,'''''''''''''''''''''''''''",
"'''''''''''',!*$$$$$@!,',!!,',!$$$@%''''''''''''''''''''''''''''",
"'''''''''''''&@$$*$@@%,'&@@=',!*$$@%''''''''''''''''''''''''''''",
"''''''''''''',!@@$$$!,',%%!,',%!!@$%''''''''''''''''''''''''''''",
"''''''''''''''=@*$$$%,''''''''',=@@%''''''''''''''''''''''''''''",
"'''''''''''''',%@@$@%,,,,,,''',,=@@%,'''''''''''''''''''''''''''",
"''''''''''''''',!@@@!!%!%!!=''%!!$@%''''''''''''''''''''''''''''",
"''''''''''''''''=!@$$$@@@$!,,,!@$$*%''''''''''''''''''''''''''''",
"'''''''''''''''''=!@$@@@$$@,',!@$$$%''''''''''''''''''''''''''''",
"'''''''''''''''''',!@@$@$@@,,,!$$*$%''''''''''''''''''''''''''''",
"''''''''''''''''''',!@$@$$@!%%@$$$$!''''''''''''''''''''''''''''",
"'''''''''''''''''''',%!@$$$@@@@$$@@%''''''''''''''''''''''''''''",
"''''''''''''''''''''',=!@*$@@@@@$$$%''''''''''''''''''''''''''''",
"''''''''''''''''''''''',=!@@@@$$$@@%''''''''''''''''''''''''''''",
"''''''''''''''''''''''''',=%!!@@**$%''''''''''''''''''''''''''''",
"'''''''''''''''''''''''''''',,=&%!%&''''''''''''''''''''''''''''",
"''''''''''''''''''''''''''''''''''''''''''''''''''''''''''''''''"};
