/* XPM */
static char * scifi_de_xpm[] = {
"64 48 17 1",
" 	c None",
".	c #020202",
"+	c #0C0C0C",
"@	c #2B2B2B",
"#	c #515151",
"$	c #6F6F6F",
"%	c #8D8D8D",
"&	c #A1A1A1",
"*	c #B4B4B4",
"=	c #C8C8C8",
"-	c #D6D6D6",
";	c #DEDEDE",
">	c #E6E6E6",
",	c #EAEAEA",
"'	c #EEEEEE",
")	c #FEFEFE",
"!	c #404040",
"))))))))))))))))))))))))))))))))))))))))))))))))))))))))))))))))",
"))))))))))))))))))))))))))))))))))))))))))))))))))))))))))))))))",
"))))))))))))))))))))))))))))))))))))))))))))))))))))))))))))))))",
"))))))))))))))))))))))))))))))))))))))))))))))))))))))))))))))))",
"))))))))))))))))))))))))))))))))))))))))))))))))))))))))))))))))",
"))))))))))))))))))))))))))))))))))))))))))))))))))))))))))))))))",
"))))))))))))))))))))))))))))))))))))))))))))))))))))))))))))))))",
"))))))))))))))))))))))))))))))))))))))))))))))))))))))))))))))))",
"))))))))))))))))))))))))))))))))))))))))))))))))))))))))))))))))",
"))))))))))))))))))))))))))))))))))))))))))))))))))))))))))))))))",
"))))))))))))))))))))))))))))))))))))))))))))))))))))))))))))))))",
"))))))))))))))))))))))))))))))))))))))))))))))))))))))))))))))))",
"))))))))))))))))))))))))))))))))))))))))))))))))))))))))))))))))",
")))))))))'=**=,)))))))))))))))))))))))))))))))))))))))))))))))))",
"))))))))*!++.+!%))))))))))))))))))))))))))));&$$$$$$%'))))))))))",
")))))))&+......+$')))))))))))))))))))))))))&@+......@'))))))))))",
"))))))=@..+!!+..+&))))))))))))))))))))))))*+........@'))))))))))",
")))))'%..+&''=@.+$))))))))))))))))))))))))$...@$%%%%&)))))))))))",
")))))'#..$')))=!&)))))))))))))))))))))))))#..@=)))))))))))))))))",
")))))'#..$')))),))))))))))))))))))))))))))#..#')))))))))))))))))",
"))))))%..@&'))))))))))))';==-,))'',,))))))#..$)))))))',,')))))))",
"))))))=+..+#*>))))))))>%!@+@+!%)&@@!-)))))#..$))))))>$+@%)))))))",
")))))))%++..+!*>)))));#+......@'&..@-)))))#..#;;>;>',#..$'))))))",
"))))))))&!+...+#-)))'#...!##@.!'&+.@-)))))#..+@@@@@&,!.+$)))))))",
")))))))))-%!+...@=))%+.+$;));$!'&..@-)))))#........%,#..$)))))))",
")))))))))));*#...#'-!..$'))))'*'&+.@-)))))#.......+%,!.+$'))))))",
")))))))))))))'$..+*=..+=))))))))&..@-)))))#..!*&*&*-'#..$)))))))",
")))))))->)))));@..%*..@>))))))))&+.@-)))))#..$)))))),!.+$)))))))",
")))))&#@%))))))@..%*..@-))))))))&..@-)))))#..$))))))'#..$)))))))",
"))))'!..!>))))*+.+&-+.+&))))));'&+.@-)))))#..$)))))),!.+$'))))))",
")))))%..+$')'=!..@''#..@='))'*#'&..@-)))))#..$')))))'#..$)))))))",
")))))>!...!$#+...%))-+..+$&*#+@'&+.@-)))))#..$)))))),!.+$)))))))",
"))))))*@........$')))*@.......!,&..@-)))))#..$))))))'#..$)))))))",
")))))))=#+....@%')))')=$+....+$'&+.@-)))))#..$)))))),#++$'))))))",
"))))))))'=%$$*-))))))))';*&&*=))'===')))))-*=-)))))))-==;)))))))",
"))))))))))))))))))))))))))))))))))))))))))))))))))))))))))))))))",
"))))))))))))))))))))))))))))))))))))))))))))))))))))))))))))))))",
"))))))))))))))))))))))))))))))))))))))))))))))))))))))))))))))))",
"))))))))))))))))))))))))))))))))))))))))))))))))))))))))))))))))",
"))))))))))))))))))))))))))))))))))))))))))))))))))))))))))))))))",
"))))))))))))))))))))))))))))))))))))))))))))))))))))))))))))))))",
"))))))))))))))))))))))))))))))))))))))))))))))))))))))))))))))))",
"))))))))))))))))))))))))))))))))))))))))))))))))))))))))))))))))",
"))))))))))))))))))))))))))))))))))))))))))))))))))))))))))))))))",
"))))))))))))))))))))))))))))))))))))))))))))))))))))))))))))))))",
"))))))))))))))))))))))))))))))))))))))))))))))))))))))))))))))))",
"))))))))))))))))))))))))))))))))))))))))))))))))))))))))))))))))",
"))))))))))))))))))))))))))))))))))))))))))))))))))))))))))))))))"};
