/* XPM */
static char * sud_radio_xpm[] = {
"64 48 17 1",
" 	c None",
".	c #D61818",
"+	c #FDFAF8",
"@	c #FAD0CF",
"#	c #F3BAB9",
"$	c #EA8E8E",
"%	c #B56971",
"&	c #DB595A",
"*	c #E04949",
"=	c #DA3839",
"-	c #E70E10",
";	c #E62829",
">	c #F0090A",
",	c #FDE7E7",
"'	c #FD0202",
")	c #E27171",
"!	c #EBA3A2",
"''''''''''''''''''''''''''''''''>'''''''''''''''''''>'''''''''''",
"''''''''''''''''''''''''''''''''''''''''''''>'''>>--.->'''''''''",
"''''''''''''''''''''''''''''''''''''''''''''''>-=$@,+@*>''''''''",
"''''''''''''''''''''''''''''''''''''''''''''>-&#,+++++#-'>''''''",
"''''''''''''''''''''''''''''''''''>'>''>'>-=$.,+++,@+++*>>''''''",
"'''''''''''''''''''''''''''''''''''''>''>>!,,%,+,$;=@++)>'''''''",
"'''''''''''''''''''''''''''''''''''>.=;''-#+,%,+@.>>$++!-'''''''",
"'''''''''''''''''''''''''''''''''''&#@&>>-@++%,+@->>&++#-'''''''",
"'''''''''''''''''''''''''''''-.**--$+,&''-#++%,+,.>>*,+!->''''''",
"''''''''''''''''''''>''''''>=$@+,#;$++*>>-@++%,+@.>>*++)>>''>'''",
"'''''''''''''''''''''''>''-)@++++,)$++*>'-#+,%,+@.>>)++*'>''''''",
"''''''''''''''''''>->''''>&,+,!#+@%$+,&>>-@++%++@-'=@+#.''''>'''",
"'''''''''''''''>''-$>'''>;@+#=-.);-$++*>'-#+,%,+@.*@+,&>''''''''",
"''''''''''''''>->';@=>'''&,+*--..>-!++*>>-@+,%,++@,+,$-'>'''''''",
"'''''''''''''>.)>'=+)-''>)++#$#@#).!++*>'-#+,%,++++,$->'''''''''",
"''''''''''>'''.@.'$+@->'')++++++++!!++&>>;,+@%++++@=>>'''>''''''",
"'''''''''';-'>&,&>$+,*>'>*,+++++++,#++!.=!+,)*,@$%&));>'''''>'''",
"''''''''''*&>>)+#.,++$>''-)#@##@++,$+++,,++#.;..%@,++,&>''''''''",
"'''''''''>&#--@+,%,++@.>''>----.++@=,++++,!.>'-),+++++@=''''''''",
"''''''''''!,*;,+++++++*>'-.=->-%++).)@@@#%=;'>)++,@@+++&>'''''''",
"''''''''>-#+!)++++++++!>-$,@&=),,#.>-.;.*#,$-=,,#=..!++$>'''''''",
"''''''''';@+,@++++++++@;-#+++,++@=>>>>>>&++#.#+,=>>>*,+#-'''''''",
"''''''''>*+++++++++++++&-&,++++#=.=&)*->&++#*,+#.'>'=++#-'''''''",
"''''''''>&+++++++++++++#--)#!!%%!#,++,!-&++!$++$>''>=,+!-'''''''",
"''''''''-!+++++++++++++,='>--.#,+++++++*&++#$++$''''*++$>'''''''",
"''''''''-#++++++++++++@)-''''-,++,#!,++$&++##++$''>>)++&>'''>'''",
"'''''''';,+++++++++@!&=&&.>''-,+,=..$++@)++#!++$>''.#+@;>'''''''",
"''''''''*+++++++,$*..=#,+&>'>>,+,-''=++@$++!!++#.>>$++$-''''''''",
"''''''''&+++++#&;-''>)+++!->'-,+,->';++@$++#)+++!)!,+@;>''''''''",
"'''''''>!++,!&.->>'>>!+++,='>-,+,>''=++#)++$;@++++++@=>'''''''''",
"'''''''>!#)=*$!#&>''.#+,++)>'>,+@-'>=++$%++$.*,+++,!;>''''''''''",
"'''''''>.=$@++++,;''=,,$,+@.>-,+@>'>$+,**++$>-=)));-''''''''''''",
"'''''''-$,+++++++*'>&+@=#+,*>-,+@->=@+!-*++$''>>-->'''''''''''''",
"'''''''-#++@$$,+,='>$+#.),+#--,+@.&#+,*>*@$*''''''''''''''''''''",
"'''''''-#+@;-.#+,-'-!+!.&,+,;-,++,++,)-'-.>>''''''''''''''''''''",
"''''''>-#+#.>.#,)>';@+@#,+++$.,+++,@)-''''''''''''''''''''''''''",
"'''''''-#+#;=!+,.>>=,++++++++%,+,#);>>''''''''''''''''''''''''''",
"''''''>-#+,#,++,)>>)++,@$%,+,$#)*->>''>'>''''>''''''''''''''''''",
"'''''''-#+++++++,--$+,%->>!@$=->''''''''''''''''''''''''''''''''",
"''''''>.#++@!$,+,.-#,#-''';.-'''''''''''''''''''''''''''''''''''",
"'''''''-#+#.>.#++&.,+$-'''>'''''''''''''''''''''''''''''''''''''",
"'''''''.#+#.'>$++)*#$;'''''''>''''''''''''''''''''''''''''''''''",
"'''''''-#+#-''),,$..>>''''''''''''''''''''''''''''''''''''''''''",
"'''''''-#+#.''*);>>'''''''''''''''''''''''''''''''''''''''''''''",
"'''''''-!+#-'>'>>'''''''''''''''''''''''''''''''''''''''''''''''",
"'''''''>!!&>''>''''>''''''''''''''''''''''''''''''''''''''''''''",
"''''''''->''''''>'''''''''''''''''''''''''''''''''''''''''''''''",
"''''''''''''''''''''''''''''''''''''''''''''''''''''''''''''''''"};
