/* XPM */
static char * taquilla_xpm[] = {
"64 48 17 1",
" 	c None",
".	c #030303",
"+	c #CECECE",
"@	c #A8A8A8",
"#	c #4F4F4F",
"$	c #4A4A4A",
"%	c #434343",
"&	c #969696",
"*	c #333333",
"=	c #D2D2D2",
"-	c #222222",
";	c #838383",
">	c #D6D6D6",
",	c #F8F8F8",
"'	c #BDBDBD",
")	c #767676",
"!	c #141414",
"................................................................",
".............................!*!................................",
".............................%##%*!.............................",
"............................-###$#$%-...........................",
"............................*%$#$####!..........................",
"............................%##$#$$#$-..........................",
"...........................-#$$$##$##%-...!**!..................",
"...........................*$$$#$$$$$##***$#$#%-!...............",
"..........................!$#$$#$##$$$####$$$$##$%!.............",
"..........................-$$##$#$$#$#$$#$#$###$##-.............",
"..........................%$$$#$#$$#$##$#$#$$$#%##-.............",
".........................!%#$#$$$##$$$$#$$$#$###$%..............",
".........................*$#$##$$$####$$##%#$$##$*..............",
".........................%$$#$$#$#$#$$$#$##$$#$##!..............",
".......!!-!-!-!!........-#$$#$$#$#$#$$###########...............",
".......),>>>,>>&........*$$#$$#$#$$#$$'>'$@,'%@,@...............",
".......),,,,,,,&.......!$#$##$$$#$$#$%@,+%@,+%@,'...............",
".......!--@,+--!.......-#$#$$$##$$####)&;$@,+%','...............",
"..........@,=!.........*$$$#$$$##$$###$$$$@,+%@,'...............",
"..........@,+!..!!!...!###$######$########@,+%','...!!!.........",
"..........@,+!.;++=&!.*'>=&>'%@>'%@>@#@>@$@,+%@,'.!)+++;!.......",
"..........@,+!#,,'>,&.&,,>,,=$',+%',+$@,'$@,+%@,'.),,@,,).......",
"..........@,+!;,'.;,+!@,>#+,=%',=%',+$','$@,+*&,'.@,@!&,@!......",
"..........@,+.)';.),'*',+$@,=$',+%',+#@,'$@,+-&,'.;').&,'!......",
"..........&,+!.-##@,+%@,'%&,>$',=%',+$',+%@,+!&,'.!*##','!......",
"..........@,+!*=,,,,=#','$@,>$',+%','#@,'#@,'.;,'.*=,,,,'!......",
"..........@,+.;,>)&,>$@,'%@,>$',=%',+#','$@,'.&,'.&,>)@,'!......",
"..........@,+!',@.),>#','$&,>%',+%',+$@,'$@,'.&,'!+,&.&,'!......",
"..........@,+.',;.),=$@,'%@,>%',=%',+$@,+%@,@.&,'.+,;!&,'!......",
"..........@,+!',&.;,>#',+%@,>$',=*',+#','$','.&,'!+,;.@,'!......",
"..........@,+!&,+)>,>%@,,@>,>%@,,@,,+%@,'%@,'.&,'.@,+;>,'!......",
"..........@,'!$,,>@,+$)>,,,,>#),,,+,+#@,'%@,@.;,@!#,,>&,'!......",
"..........!*-..-%-$#)%%#)#&,>#%#)######)#$-*-.!--..*%-!--.......",
".................-#$$###$#&,>#########$$#%......................",
".................*$$$#$##$@,=#$$######$##*......................",
".................%#$#$$$$$&,=##$$$##$$$$%!......................",
"................-##$###$#$)&&$#$#$$#####%.......................",
"................%#%#$$$$$#$%$$$#$##$$$$%-.......................",
"................%#$$#$##$$###$$$$$#$#$#$!.......................",
"................!*%###$$$$$$####$#$#$#$*........................",
"..................!-*%##*--*$$$#$#$#$##-........................",
".....................!-!....-##$#$$$$$%.........................",
".............................*#$#$####*.........................",
".............................*#$$#$$$$!.........................",
"..............................-*$##%$%..........................",
"................................!-%##-..........................",
"...................................!-!..........................",
"................................................................"};
