/* XPM */
static char * tv_trwam_xpm[] = {
"64 48 17 1",
" 	c None",
".	c #D3545D",
"+	c #DA6A74",
"@	c #E28E96",
"#	c #EAB0B6",
"$	c #F2C7CC",
"%	c #F7D6DA",
"&	c #FAE2E4",
"*	c #FDECED",
"=	c #DC848C",
"-	c #FEF5F6",
";	c #DB5F6A",
">	c #DB7E88",
",	c #E05560",
"'	c #FEFEFE",
")	c #E59BA3",
"!	c #DB7680",
"''''''''''''''''''''''''''''''''''''''''''''''''''''''''''''''''",
"''''''''''''-'''''''''''''''''''''''''''''''''''''''''''''''''''",
"'''''''''&)))&''''''''''''''''''''''''''''''''''''''''''''''''''",
"'''''''''%;;;%''''''''''''''''''''''''''''''''''''''''''''''''''",
"'''''''''$..;&''''''''''''''''''''''''''''''''''''''''''''''''''",
"'''''''''#..!*''''''''''''''''''''''''''''''''''''''''''''''''''",
"'''''''''),,>-''''''''''''''''''''''''''''''''''''''''''''''''''",
"''''-----),,@*--'----'-'---------'-'-'-'----'-'-'''''''''''-''''",
"'-#==>>=>;.,;>=====================@======@)##$#$%%$$%%$##)))%''",
"'*+,;,,;,,,,,,,,,,,,;,,,,,,;;;,,,,,,.;;!@+;!@)#$$%$%%%%&$$=+>%''",
"'%.,,,,,,,,,,,,,,,,,,,,,,,,,,,,,,,,,,;,+@)=>))##$$$$$$#$#)>+>*''",
"'$)@))))!,,;@))@)@))))))))))))))))))))))####$&&*%$$$$&&%$%%%&'''",
"'''''''-#,,+*''-'''-'''-'''''''''''''''''''-''''''''''''''''''''",
"''''''''#,,@-'''''''''''''''''''''''''''''''''''''''''''''''''''",
"'''''''-),,)''--''''''''''''''''''''''''''''''''''''''''''''''''",
"'''''''-=,;#'-==)$&-''''-'''''&&*''''&)))#)#-'''''''''''*)#)*'''",
"'''''''->;,#'-+..%##*''&@=%''&..>''''$,,,;,+&'''''''''''#;++&'''",
"'''''''*>;;&'&+,+&-))-'%+;#-'&;.!-''-#.,+,;;$''''''''''&!,+>-'''",
"'''''''%;;;&'$..+*'$.$'%..#''&.,+-''->,,!,;;#''''''''''#.,;@-'''",
"'''''''%;,>*'$..!*'$.)'&+.#-'$.,+-''&;,,@,,+)-''''''''&+,,;#''''",
"'''''''$,;@-'#.,=-'$.)-%;.$'-).,;&''%.,!@,,+)*'''''''-#;;;;$''''",
"''''''-%,;@''@.,@'-#.)-&;,#''>.,.%'-$,,@),,,=%''''-''%;,;;+%''''",
"''''''-#,+#-'!.,#'->.)-%;.#'*;,,.$'-#.,)),;;;)-'''''-@,;;;!&''''",
"''''''-),,$'&+,.$'%.;%'%;,#'$..,.$'*=.,#),,+;+*'''''$;,,,,!-''''",
"''''''-@;;%'%..;&-@.)-'%..#-#.,,.#'*+,;%@,,;;;$-'''-@,,;;;@-''''",
"''''''&+,!*'$..!-%+!%''&..#-@,,..#'$,,!&>,,@+.!*-'-$,,;;,,)'''''",
"''''''&;,>-'#.,=%!!&-''%..#*>,,,,@'#.,>*=.,@=,;$-'*!,;@+,,#'''''",
"''''-'%,,=-'),,;+.#''''&;.#%;;;..)-@.,)*!,,)#.,>-'#,,)$;,+$'''''",
"''''''#,,)--@.,,,,=''''%..)%;=@,.=-!.;%*!,,)&+,.$&>,+%$,,+&'''''",
"''''''),;#'*!,,).,!-'''&..##>#@.,@&;,+&*+.,#-#.,==,,)&$,,>*'''''",
"'''''-@,,#'&;.+%+,+%'''%..###&#..!$,.+@=,.,+@@,,,,,,@%),,@-'''''",
"'''''&+;+%'%;,+*=.;$'''&;,@>$*#.,>#,,+,,,,,,;@;,,,,,=&=,,#''''''",
"'''''&+,+&'#..!-)..#'''%..;=$'$..;!.,>...,,,.!;,,,,,#&+,;$''''''",
"'''''&;,!*'#.,)-$..@-''&;,+)&'$.,,+,,$$#,,,@$$$>,,>#*&+,!&''''''",
"'''''$;,!*'#..$'%!,!*''%;.+)*'%..,,,+&'-!..)'''@,,#-'%.,>*''''''",
"'''''#,,)-'),.&'&@.+*''&.,+#*'*..,,,>''*+.,#-'');.$''$.,@'''''''",
"'''''#,,)'-=..&'-#;+%''&.,+#-'-;..,.@''*+,.#-''&&$%''#.,#'''''''",
"''''*=,;#'-!.;&''$+.$''&;,+#-'';..,.$''-+,;#''''''''').,$'''''''",
"''''*>,;%'-!.>-''*=;#''&;,+%''-!.,,.$''-!.!$'''''''''@,,$'''''''",
"''''*!,+%'*+,=-''-)+)-'*>,!&''-+...+-'-*!,+%''''''''-!,;$'''''''",
"''''%+;=*'$;;)''''$@@*'')+)-''').,.>'''*!++&-'''''''*+,>&'''''''",
"''''%)$%''%)%*''''-$>%''-&&'''-#.,,#'''-=+>&''''''''*>,#''''''''",
"''''*&-'''-*''''''''&-'''''''''%..;$-''->;@*''''''''*=;#-'''''''",
"'''''''''''''''''''''''''''''''-+;+&''''$#*-'''''''''&)#-'''''''",
"''''''''''''''''''''''''''''''''%%%-''''''''''''''''''--''''''''",
"''''''''''''''''''''''''''''''''''''''''''''''''''''''''''''''''",
"'''''''''''''''''''''''''''''''''''''-''''''''''''''''''''''''''",
"''''''''''''''''''''''''''''''''''''''''''''''''''''''''''''''''"};
