/* XPM */
static char * tv7_xpm[] = {
"64 48 17 1",
" 	c None",
".	c #0D0B0F",
"+	c #212022",
"@	c #565357",
"#	c #8C7E8F",
"$	c #AA99AE",
"%	c #BCB2BE",
"&	c #D0C6D2",
"*	c #DDD7DE",
"=	c #E8E3E8",
"-	c #F0ECF1",
";	c #592067",
">	c #120E12",
",	c #FEFEFE",
"'	c #563A5E",
")	c #785581",
"!	c #620D7A",
",,,,,,,,,,,,,,,,,,,,,,,,,,,,,,,,,,,,,,,,,,,,,,,,,,,,,,,,,,,,,,,,",
",,,,,,,,,,,,,,,,,,,,,,,,,,,,,,,,,,,,,,,,,,,,,,,,,,,,,,,,,,,,,,,,",
",,,,,,,,,,,,,,,,,,,,,,-----,,,,,,,,,,,,,,,,,,,,,,,,,,,,,,,,,,,,,",
",,,,,,,,,,,,,,,,,,,,,=)''))#%=,,,,,,,,,,,,,,,,,,,,,,,,,,,,,,,,,,",
",,,,,,,,,,,,,,,,,,,,,%!!!!!!!'%-,,,,,,,,,,,,,,,,,,,,,,,,,,,,,,,,",
",,,,,,,,,,,,,,,,,,,,-#!!!!!!!!!$,,,,,,,,,,,,,,,,,,,,,,,,,,,,,,,,",
",,,,,,,,,,,,,,,,,,,,-)!!!!!!!!!!%,,,,,,,,,,,,,,,,,,,,,,,,,,,,,,,",
",,,,,,,,,,,,,,,,,,,,&;!!!!!!!!!!)-,,,,,,,,,,,,,,,,,,,,,,,,,,,,,,",
",,,,,,,,,,,,,,,,,,,,$!!!!!!!!!!!;*,,,,,,,,,,,,,,,,,,,,,,,,,,,,,,",
",,,,,,,,,,,,,,,,,,,,)!!!!!!!!!!!;&,,,,,,,,,,,,,,,,,,,,,,,,,,,,,,",
",,,,,,,,,,,,,,,,,,,=;!!!!!!!!!!!!&,,,,,,,,,,,,,,,,,,,,,,,,,,,,,,",
",,,,,,,,,,,,,,,,,,,&;!!!!!!!!!!!;*,,,,,,,,,,,,,,,,,,,,,,,,,,,,,,",
",,,,,,,,,,,,,,,,,,,*$$$#)!!!!!!!'=,*$#&,,-%$%-,,,,,,,,,,,,,,,,,,",
",,,,,,,,,,,,,,,,,,,,,,---*)!!!!!',&'!!'&-#;!;$,,,,,,,,,,,,,,,,,,",
",,,,,,,,,,,,,,,,,,,,,,,,,,='!!!!#-#!!!!)*;!!!;=,,,,,,,,,,,,,,,,,",
",,,,,,,,,,,,,,,,,,,,,,,,,,-#!!!!%-#!!!!)&;!!!;*,,,,,,,,,,,,,,,,,",
",,,,,,,,,,,,,,,,,,,,,,,,,,,$!!!!&,%;!!!$=)!!!)-,,,,,,,,,,,,,,,,,",
",,,,,,,,,,,,,,,,,,,,,,,,,,-$!!!'-,,%))%-,*)')*,,,,,,,,,,,,,,,,,,",
",,,,,,,,,,,,,,,,,,,,,,,,,,,$!!!),,,,-------=---,,,,,,,,,,,,,,,,,",
",,,,,,,,,,,,,,,,,,,,,,,,,,-$!!!$,,,,,,%)))))')'*,,,,,,,,,,,,,,,,",
",,,,,,,,,,,,,,,,,,,,,,,,,,,)!!;=,,,,,-#!!!!!!!;*,,,,,,,,,,,,,,,,",
",,,,,,,,,,,,,,,,,,,,,,,,,,-)!!)-,,,,,=)!!!!!!!!*,,,,,,,,,,,,,,,,",
",,,,,,,,,,,,,,,,,,,,,,,,,,=;!!$,,,,,-#!!!!!!!!;*,,,,,,,,,,,,,,,,",
",,,,,,,,,,,,,,,,,,,,,,,,,,&;!;*,,,-&)!!!!!!!!!;*,,,,,,,,,,,,,,,,",
",,,,,,,,,,,,,,,,=-,,,,,,,,$!!)-=*%);!!!!!!!!!!)-,,,,,,,,,,,,,,,,",
",,,,,,,,,,,,,,,=$####$$$$$)!!)));!!!!!!!!!!!!!%,,,,,,,,,,,,,,,,,",
",,,,,,,,,,,,,,,,-*&$));;!;!!!!!!!!!!!!!!!!!!;$-,,,,,,,,,,,,,,,,,",
",,,,,,,,,,,,,,,,,,,,--*%%)!!';;!!!!!!!!!!;'#&-,,,,,,,,,,,,,,,,,,",
",,,,,,,,,,,,,,,,,,,,,,,,,$!;**&%$$###$#$&&=-,,,,,,,,,,,,,,,,,,,,",
",,,,,,,,,,,,,,,,,,,,,,,,,)!#--,-,-,,,-,,,,,,,,,,,,,,,,,,,,,,,,,,",
",,,,,,,,,,,,,,,,,,,,,,,,=';*,,,,,,,,,,,,,,,,,,,,,,,,,,,,,,,,,,,,",
",,,,,,,,,,,,,,,,,,,,,,,-&!)--)#,,%%%,=,,%%$%&,,,,,,,,,,,,,,,,,,,",
",,,,,,,,,,,,,,,,,,,,,,,,#!$,,&#-,&%@-#%-&$#@$,,,,,,,,,,,,,,,,,,,",
",,,,,,,,,,,,,,,,,,,,,,,-')=,*@'=%&#@%%@@@'###,,,,,,,,,,,,,,,,,,,",
",,,,,,,,,,,,,,,,,,,,,,,%;$,,$++@>@@@++@+++@#@,,,,,,,,,,,,,,,,,,,",
",,,,,,,,,,,,,,,,,,,,,,-$;&,,*#@+@+#@'++++++%$,,,,,,,,,,,,,,,,,,,",
",,,,,,,,,,,,,,,,,,,,,,-)#-,,,,-$#*---==----,,,,,,,,,,,,,,,,,,,,,",
",,,,,,,,,,,,,,,,,,,,,,&'&,,,,,,&%-,,,,,,,,,,,,,,,,,,,,,,,,,,,,,,",
",,,,,,,,,,,,,,,,,,,,,,##-,,,=%=,,,,,-*,,,-*=-,,,,,,,,,,,,,,,,,,,",
",,,,,,,,,,,,,,,,,,,,,-)%,,,,*@%,,,,,=#=,$#@#$,,,,,,,,,,,,,,,,,,,",
",,,,,,,,,,,,,,,,,,,,,*#,,,,,*#$--==&&%%#&%###,,,,,,,,,,,,,,,,,,,",
",,,,,,,,,,,,,,,,,,,,,&*,,,,-@'@##@@@@@@@##@##,,,,,,,,,,,,,,,,,,,",
",,,,,,,,,,,,,,,,,,,,,,,,,,,,#+>+.>>+.++.>++##-,,,,,,,,,,,,,,,,,,",
",,,,,,,,,,,,,,,,,,,,,,,,,,,,-=$##%%%$%%'#%$*=,,,,,,,,,,,,,,,,,,,",
",,,,,,,,,,,,,,,,,,,,,,,,,,,,,,-@$,-,,*@#,,,,,,,,,,,,,,,,,,,,,,,,",
",,,,,,,,,,,,,,,,,,,,,,,,,,,,,,,,-,,,,,--,,,,,,,,,,,,,,,,,,,,,,,,",
",,,,,,,,,,,,,,,,,,,,,,,,,,,,,,,,,,,,,,,,,,,,,,,,,,,,,,,,,,,,,,,,",
",,,,,,,,,,,,,,,,,,,,,,,,,,,,,,,,,,,,,,,,,,,,,,,,,,,,,,,,,,,,,,,,"};
