/* XPM */
static char * urheilukanava_xpm[] = {
"64 48 17 1",
" 	c None",
".	c #27320D",
"+	c #5C7526",
"@	c #749233",
"#	c #80A925",
"$	c #94C123",
"%	c #AABC77",
"&	c #B1CF68",
"*	c #C2CF97",
"=	c #354414",
"-	c #C5DB89",
";	c #485D1E",
">	c #D4DFAA",
",	c #98AA68",
"'	c #8A9765",
")	c #E5EDBD",
"!	c #6A842F",
"))))))))))))))))))))))))))))))))))))))))))))))))))))))))))))))))",
"))))))))))))))))))))))))))>>>>>>>>>->>))))))))))))))))))))))))))",
")))))))))))))))))))))))>-->))))))))))>-->)))))))))))))))))))))))",
")))))))))))))))))))))>-->)>)))))))))))))>*>)))))))))>)))))))))))",
"))))))))))))))>)>))>--->-)---&&%%&*>))))))-*>))>))))))))))))))))",
"))))))))))))))))))-------&,@;;===..=;@%>)>)>*-))))))))))))))))))",
"))>))>))>))))))))-&&-&-$!;;+',%*%%,';==;,>)>>-&)>))))>))>)))))))",
"))))))))))))))))-&&&&&$;;,*>)))))))))*,;;&)>---*)>))))))))))>)))",
"))))))))>)))>))-$&&&&&$'>))))))))))))))>%------&&)))))))))))))))",
")))))))))))))))$$$$&$&$*))))))))))))))))$------&&-))>)))))))))))",
"))))))))))))))$$$$$$$$$*))))))))))))))))%&&-&&&&&$>))))>))))))))",
"))>))>)))))))$$$$#$$$$$*))))))))))))))))&$&&&$@$&$&)))))))))>)))",
")))))))>))>)&#$#@=#$$$,&))>))>))>)))))))$$$$&#=@$$$-))))))))))))",
"))))))))))))$###.+#$$#,*))))))))))))))))&$$$$#+=$$$$>>))>)))))))",
")))))))))))*###;=$#####%))))))>)))))))))%#$$$#-=+$$#&)))))))))))",
"))))>))))))###@.'*####'%)>)))))))>)))>))$##$$#>'=@$$,)))))))>)))",
"))))))))))-@@@;=>*@###@%))))))))>))))))),#####>>;+###-))))))))))",
"))))))))))$@#@=')&@###@%)))>)))))))))))),@###@>)'=###,))))))))))",
"))))))))))#@@!=*)*@#@@@%)))))%,'',%))))),@##@@>)*;!###)>)))))>))",
")))>))>))*@!@+;>)*!@#@!%)))),@!!!!!#>)))#!@@#@>));+#@#-)))))))))",
")))))))))&!!!;!))*@@@@!%)))%!!!!!!!!%)))%!@@@!>))@;@@@*)))))))))",
")))))))))$!!!;'))&!@@@!%))>@!+!+!+++!-)),!!!@@>)),;@@@%))))>))))",
"))))))))),+!!=,))*!@@@!%)),!!+++++++!,>),!!!!!>)),;@@!,)))))))))",
")))))))))#+!!;,))&!@!!!%)>@+!++++++++!))#+++!!>))&;+@!#)))))))))",
"))))>))))'+++;,))-!!@!+,))!+!+++++++++>)#++++!)))%+!!+#))))>))))",
")))))))))#+++;,))-+!!!!,))@+++++++;+;!))@++++!>)>%++!+,)))))))))",
")))))>))),+++;')))!+!!!'))%++++;+;+;;%)>!+;+;@))),!+++,)>)))))))",
")>)))))))%;;++!)))@+!++'*))@;+;++;+;!>)%+;++;,)))@++++%)))))))))",
")))))))))*+;+;+>))%++!+!,))>#;;+;;;!>)>,+;;;+*))>@!;;+%))))>))))",
")))))))))-+;;++%))-+++++'%)))&@@',*))),@;+;;+>))&@++;+>)))))))))",
"))))))))))!;;+!@))),+++++!%)))))))))>,';;;;;%))),,;;;!))))))))))",
")>)))>))))%;;;!!-)>>;+;+++!@*))))))*'@;;;;;+>))>@!;;;,))))))))))",
"))))))))))>;;;;,')))%;+;;+;+@',%,,@@+;;;=;;*))),,;=;;>)>)))>))))",
"))))))))>))'=;;!!*))),;;+;+;;;+!!+;;=;=;==%)))>'!;==')))))))))))",
"))))))>))))*;;;;!!>))),;;;;;;;;;;;;=;;=;;%)))>',===;*)))))))))))",
"))>)))))))))'==;;@@>)))%;;;;;;;=;=;=;==+*)))),,;===')>))))))))))",
"))))))))))))>;=;=+!'))))>';=;=;=;===;+%>))>),,+===;>))))>))>))))",
")))))))))))))*===;+!@>))))>%!+;;;+!'*>))))),,+.=.=*)))))))))))))",
")))))))>)))))),====+!!*))))))>)>)))))))))*',;=..=,>)))))))))))))",
")))))))))))))))'====;!!'*))))))))>)))))*,'';....')))))))))))))))",
")))>))))))))))))'=====+!!'%>))))))))-*,@@+.....'>))))>))))>)))))",
"))))))))))))))))),=..=.;;!@@',,%%,,'''!;=.....,))>)))))>))))))))",
"))))))))))))))))))*;.=.=.=;+!''''''!+;......;*))))))))))))))))))",
")))))>))))))))))>))>'=........====........='>)))))))))))))))>)))",
"))))))))>))))))))))))*'=................='>)))))>))))))>))))))))",
")>)))))))))>)))))))))))>,+=..........=!%))>)))))))))))))))))))))",
")))))))))))))>))))))))))))>*''++++',*))))))))))))>))))))))))))))",
"))))))>)))))))))))))))))))))))))))))))))))))>))))))))))))>))>)))"};
