/* XPM */
static char * vox_xpm[] = {
"64 48 17 1",
" 	c None",
".	c #131111",
"+	c #3B393A",
"@	c #676062",
"#	c #97878B",
"$	c #AFA7A9",
"%	c #C3BCBF",
"&	c #D7CCCF",
"*	c #CF1033",
"=	c #DD3C5C",
"-	c #E3D9DC",
";	c #BC0C2C",
">	c #D03155",
",	c #FDFDFD",
"'	c #DF647C",
")	c #AE163A",
"!	c #B33851",
",,,,,,,,,,,,,,,,,,,,,,,,,,,,,,,,,,,,,,,,,,,,,,,,,,,,,,,,,,,,,,,,",
",,,,,,,,,,,,,,,,,,,,,,,,,,,,,,,,,,,,,,,,,,,,,,,,,,,,,,,,,,,,,,,,",
",,,,,,,,,,,,,,,,,,,,,,,,,,,,,,,,,,,,,,,,,,,,,,,,,,,,,,,,,,,,,,,,",
",,,,,,,,,,,,,,,,,,,,,,,,,,,,,,,,,,,,,,,,,,,,,,,,,,,,,,,,,,,,,,,,",
",,,,,,,,,,,,,,,,,,,,,,,,,,,,,,,,,,,,,,,,,,,,,,,,,,,,,,,,,,,,,,,,",
",,,,,,,,,,,,,,,,,,,,,,,,,,,,,,,,,,,,,,,,,,,,,,,,,,,,,,,,,,,,,,,,",
",,,,,,,,,,,,,,,,,,,,,,,,,,,,,,,,,,,,,,,,,,,,,,,,,,,,,,,,,,,,,,,,",
",,,,,,,,,,,,,,,,,,,,,,,,,,,,,,,,,,,,,,,,,,,,,,,,,,,,,,,,,,,,,,,,",
",,,,,,,,,,,,,,,,,,,,,,,,,,,,,,,,,,,,,,,,,,,,,,,,,,,,,,,,,,,,,,,,",
",,,,,,,,,,,,,,,,,,,,,,,,,,,,,,,,,,,,,,,,,,,,,,,,,,,,,,,,,,,,,,,,",
",,,,,,,,,,,,,,,,,,,,,,,,,,,,,,,,,,,,,,,,,,,,,,,,,,,,,,,,,,,,,,,,",
",,,,,,,,,,,,,,,,,,,,,,,,,,,,,,,,,,,,,,,,,,,,,,,,,,,,,,,,,,,,,,,,",
",,,,,,,,,,,,,,,,,,,,,,,,,,,,,,,,,,,,,,,,,,,,,,,,,,,,,,,,,,,,,,,,",
",,,,,,,,,,,,,,,,,,,,,,,,,,,,,,,,,,,,,,,,,,,,,,,,,,,,,,,,,,,,,,,,",
",,,,,,,,,,,,,,,,,,,,,,,,,,,,,,,,,,,,,-,,,,,,,,,,,,,,,,,,,,,,,,,,",
",,,-%%&%%%%$&,,,,,,$######$-,,,,,,,,,%#$$%$$&,,,$$$$%%%%&%-,,,,,",
",,,-@++++++@#-,,,,&+...+.+&,,,,,,,,,-%+.++.+#&-$+.....+++@-,,,,,",
",,,,$..+++++@%,,,,#+@$%%@-,,,,,,,,,,,,%+.+..+$%+........+%,,,,,,",
",,,,-@.++@@+##-,,%.+$&&@&,,,-,--,--,,,,%++++.@@........+%,,,,,,,",
",,,,,$+.+@@@@#$,,@+@$-##,,,,-&&--%%--,,,#@#@++++.......$,,,,,,,,",
",,,,,-@++@@++##-%.+@$-#-,,,-'=$%%''$-,,,%@%@@+++......$,,,,,,,,,",
",,,,,,$+.+@@@@#$@.@@$$@,,,-$)*>===))$-,,-@&$@@++++...#-,,,,,,,,,",
",,,,,,-@.+@@@+#@++@$%#$,,,-!);;*;;))'-,,,#%%@@@+....@-,,,,,,,,,,",
",,,,,,,%+.++@+@#+@#$-%%,,,&!;*****!!'-,,,$%&@@++...@-,,,,,,,,,,,",
",,,,,,,-#.+@@@+@@@$$&%-,,,%)***>==''#-,,,$%%@@+++..@&,,,,,,,,,,,",
",,,,,,,,%+.+++++@@@@@@&-,,&'>>==''''%-,,,$-$@+++....@&,,,,,,,,,,",
",,,,,,,,-#.......+...+&,,,-$'''$'$$%&,,,,$-#+++++...+@-,,,,,,,,,",
",,,,,,,,,%+..........@-,,,,-&---&&&--,,,-%#..........+#-,,,,,,,,",
",,,,,,,,,,#..........%,,,,,--&------,,,,-$+............#-,,,,,,,",
",,,,,,,,,,%+......+.@-,,,,,,,,,---,,,,,,&#..............#-,,,,,,",
",,,,,,,,,,-#.....@+.%,,,,,,,-,,,,,,,,,,&$+...@%+.........#,,,,,,",
",,,,,,,,,,,&@...@@.@,,,,,,,,,,,,,,,,,-&#+...+&,%+.........#,,,,,",
",,,,,,,,,,,,$+.++.+%,,,,,,,,,,,,,,,,%@+....+%,,,$+++++....+$,,,,",
",,,,,,,,,,,,&$#$$$$,,,,,,,,,,,,,,,,,$######%,,,,,%$#$$$$###%,,,,",
",,,,,,,,,,,,,,,,,,,,,,,,,,,,,,,,,,,,,,,,,,,,,,,,,,,,,,,,,,,,,,,,",
",,,,,,,,,,,,,,,,-,,,,,,,,,,,,,,,,,,,,,,,,,,,,,,,,,,,,,,,,,,,,,,,",
",,,,,,,,,,,,,,,,,,,,,,,,,,,,,,,,,,,,,,,,,,,,,,,,,,,,,,,,,,,,,,,,",
",,,,,,,,,,,,,,,,,,,,,,,,,,,,,,,,,,,,,,,,,,,,,,,,,,,,,,,,,,,,,,,,",
",,,,,,,,,,,,,,,,,,,,,,,,,,,,,,,,,,,,,,,,,,,,,,,,,,,,,,,,,,,,,,,,",
",,,,,,,,,,,,,,,,,,,,,,,,,,,,,,,,,,,,,,,,,,,,,,,,,,,,,,,,,,,,,,,,",
",,,,,,,,,,,,,,,,,,,,,,,,,,,,,,,,,,,,,,,,,,,,,,,,,,,,,,,,,,,,,,,,",
",,,,,,,,,,,,,,,,,,,,,,,,,,,,,,,,,,,,,,,,,,,,,,,,,,,,,,,,,,,,,,,,",
",,,,,,,,,,,,,,,,,,,,,,,,,,,,,,,,,,,,,,,,,,,,,,,,,,,,,,,,,,,,,,,,",
",,,,,,,,,,,,,,,,,,,,,,,,,,,,,,,,,,,,,,,,,,,,,,,,,,,,,,,,,,,,,,,,",
",,,,,,,,,,,,,,,,,,,,,,,,,,,,,,,,,,,,,,,,,,,,,,,,,,,,,,,,,,,,,,,,",
",,,,,,,,,,,,,,,,,,,,,,,,,,,,,,,,,,,,,,,,,,,,,,,,,,,,,,,,,,,,,,,,",
",,,,,,,,,,,,,,,,,,,,,,,,,,,,,,,,,,,,,,,,,,,,,,,,,,,,,,,,,,,,,,,,",
",,,,,,,,,,,,,,,,,,,,,,,,,,,,,,,,,,,,,,,,,,,,,,,,,,,,,,,,,,,,,,,,"};
