/* XPM */
static char * vega_xpm[] = {
"64 48 17 1",
" 	c None",
".	c #021A4E",
"+	c #FEFEFE",
"@	c #AAB2C2",
"#	c #2A4E7A",
"$	c #8E9EAE",
"%	c #7A8AA2",
"&	c #2A4972",
"*	c #173E6D",
"=	c #C5CAD3",
"-	c #5E728E",
";	c #F3F4F4",
">	c #062A4E",
",	c #12305F",
"'	c #032A59",
")	c #465E7E",
"!	c #D9DDE1",
"****'''''''''''''>''''''''''''''>'''''''''''''''''''''''''''''''",
"****,'','>','''''''>>>>>>>>>>>''''>>>>>>>>>>>>>>>>>>>>>>>>>>>>>>",
"''''############################################################",
"''''############################################################",
"****''''''''''''''''''''''''''''''''''''''''''''''''''''''''''''",
"****'''''''''''''''>,'>,'>,'>,'''','>,'>,'>,'>,'>,'>,'>,'>,'>,>>",
"''',############################################################",
"''''############################################################",
"****,',',,,,,,,',,','','','',',,','','','','','','','','',''''''",
"****'''>''''''''>''>>>>>>>>>>>''>'>>>>>>>>>>>>>>>>>>>>>>>>,>>,>>",
"'','############################################################",
"''''############################################################",
"****,,',',',',,,,,,,,,,,,',,,',,,,,,,,,,,,,,,,,,,,,,,',,',''''''",
"&***'''>'>''>'>'>>'>'>'>''>''''>>>>>>>>>>>>>>>>>>>>>>>>>>>,>>,>>",
"''''###############*,'''',*#####################################",
"''',############*''''''*########################################",
"*****>,',,>,,',','','''>'',',',',',',>,',>,>,>,>,>,,>,,>,,>'''''",
"****'>'>>'>''''''''''''''''''''''''''''''''''>'>''>'>>'>>'>''''>",
"''''#####'''''','*'''')%'',-'''@#''%*''=-''''''',&##############",
"'','####,',','''''''''%!>'.;.'.++>'@,>&.;',',',''',*############",
"''''###,''''''''''''''%@''$-@'.+&''@&>.!@,'''''''''',*##########",
"****,''''''''','''''''''.>....'''''''''''''''''','''',,,,,,,,'''",
"****,''''.@-''''.+%.''-==!!;;%'''''''%!'''','',.+''''''''>'''','",
"','','''@+++''''=++++'$++++++$''''%++++#'''''''=++'','''''&#####",
"''''''''$+++%'''++++)'$+++;;;$'''#+++++$'','''*+++'''''''''#####",
"****'''''++++*'#+++-''%++$''''''!++++$,''''''.+++++''',','''''''",
"***''''''$+++=.!++!.''%++@#)-''.++++#>'''',''&+++++!.''''',''','",
"''''''''''=+++-+++''''%++++++.'=+++.',,,*''''+++.+++!'''''''####",
"'''''''''''++++++=''''%++++++..;++@''$+++''.!++@.-+++.''''''####",
"****'''''''=++++!.''''%++$''''.!+++.'%+++''@+++++++++;''',',''''",
"****''''''''++++''''''%++@))))')++++%$+++''+++++++++++%''''''','",
"****''''''''%+++''''''%+++++++'.+++++++++')+++@$%--++++'''''''''",
"''''#,'''''''@+.''''''$+++++++''')+++++++''=+;'''''-+=''',######",
"''',##*''''''.)'''''''',,,,*##''''.,)-)*'''>#-'''''.$''''#######",
"''''''''''''''''','''''',',>>''''''''''>'''''''''''''''''','''''",
"''''''''''''''''''',''''''''''''''''''''''''''''''''''',''''''''",
"****,','''''''',',''''''''''''''''''''''''''''''''''''''',',''''",
"*&**'''''',',''''''',',>>>>',',','>'>>'>'>>',',',>>'>,'>'>>>>,>>",
"''''############################################################",
"''''############################################################",
"**&*',,',''',',',',''''''''''''',''''''''''''''''''',',',,''''''",
"****''''''''''''''''>,>,'>,>>,'''''>,'>,>>,>>,>,>,'>>>>>>>,>>,>>",
"''''############################################################",
"''',############################################################",
"****,,,,,',,',,,',,>,,',','',>,,,>,'',',','',>,',',,',',',''''''",
"****'''''''''''''>''>>>>>>>>>>>>''>>>>>>>>>>>>>>>>>>>>>>>>,>>,>>",
"''''############################################################",
"',',############################################################"};
